<svg xmlns="http://www.w3.org/2000/svg" width="1001" height="210" viewBox="0 0 1001 210"><g fill="none" fill-rule="evenodd" transform="translate(.5)"><rect width="1000" height="210" fill="#FAFAFA"/><polygon fill="#E96115" points="94.003 148.25 36.995 178.379 47.883 114.565 1.763 69.371 65.499 60.06 94.003 2 122.506 60.06 186.243 69.371 140.123 114.565 151.01 178.379" transform="translate(9 15.5)"/><g transform="translate(396.5 6.5)"><path fill="#FFF" stroke="#000864" stroke-width="1.1" d="M104,3.7427533 L135.228221,67.0180408 L205.056647,77.164705 L154.528323,126.417648 L166.456443,195.963918 L104,163.128623 L41.5435574,195.963918 L53.4716766,126.417648 L2.94335313,77.164705 L72.7717787,67.0180408 L104,3.7427533 Z"/><polygon fill="#E96115" points="103.896 158.646 46.587 188.775 57.532 124.961 11.168 79.767 75.241 70.456 103.896 12.396 132.551 70.456 196.624 79.767 150.26 124.961 161.205 188.775"/></g><polygon fill="#E96115" points="94.003 148.25 36.995 178.379 47.883 114.565 1.763 69.371 65.499 60.06 94.003 2 122.506 60.06 186.243 69.371 140.123 114.565 151.01 178.379" transform="translate(208.5 15.5)"/><path stroke="#E96115" d="M95,3.12977573 L123.322498,60.5174254 L186.65353,69.7199629 L140.826765,114.390019 L151.644997,177.465149 L95,147.685112 L38.3550034,177.465149 L49.1732351,114.390019 L3.34647023,69.7199629 L66.6775017,60.5174254 L95,3.12977573 Z" transform="translate(603 15.5)"/><path stroke="#E96115" d="M95,3.12977573 L123.322498,60.5174254 L186.65353,69.7199629 L140.826765,114.390019 L151.644997,177.465149 L95,147.685112 L38.3550034,177.465149 L49.1732351,114.390019 L3.34647023,69.7199629 L66.6775017,60.5174254 L95,3.12977573 Z" transform="translate(802 15.5)"/></g></svg>