<svg xmlns="http://www.w3.org/2000/svg" width="381" height="191"  viewBox="0 0 381 191" xml:space="preserve" fill-rule="evenodd" clip-rule="evenodd"><g transform="matrix(1,0,0,1,-1.5,0.5)"><rect width="381" height="191" fill="#fff" transform="matrix(1,0,0,1,1.5,-0.5)"/><rect x="191.5" width="190" height="190" fill="#fff" stroke="#949494" stroke-width="1px" transform="matrix(0.948047,0,0,0.948047,9.95606,4.93553)"/><path d="M94.5,148.25L37.191,178.379L48.136,114.565L1.772,69.371L65.845,60.06L94.5,2L123.155,60.06L187.228,69.371L140.864,114.565L151.809,178.379L94.5,148.25Z" fill="#e96115" transform="matrix(0.948047,0,0,0.948047,191.507,8.2537)"/><path d="M94.5,148.25L37.191,178.379L48.136,114.565L1.772,69.371L65.845,60.06L94.5,2L123.155,60.06L187.228,69.371L140.864,114.565L151.809,178.379L94.5,148.25Z" fill="#e96115" transform="matrix(0.948047,0,0,0.948047,9.95606,8.2537)"/></g></svg>