<svg xmlns="http://www.w3.org/2000/svg" width="339" height="88" viewBox="0 0 339 88"><g fill="none" fill-rule="evenodd"><rect width="339" height="88" fill="#FFF"/><g transform="translate(12 16)"><rect width="147" height="56" fill="#08569E"/><g fill="#FFF" fill-rule="nonzero" transform="translate(15 9.5)"><polygon points="16.16 19.195 6.371 19.195 6.371 24.377 17.527 24.377 17.527 28 2.256 28 2.256 7.848 17.035 7.848 17.035 11.416 6.371 11.416 6.371 15.695 16.16 15.695"/><polygon points="33.77 28 28.916 28 26.346 23.529 23.762 28 19.031 28 24.117 20.453 19.25 13.125 24.021 13.125 26.51 17.445 28.943 13.125 33.578 13.125 28.684 20.385"/><path d="M36.6269531 14.7109375C37.656901 13.3984375 39.4251302 12.7421875 41.9316406 12.7421875 43.563151 12.7421875 45.0123698 13.0657552 46.2792969 13.7128906 47.546224 14.360026 48.1796875 15.5813802 48.1796875 17.3769531L48.1796875 24.2128906C48.1796875 24.686849 48.1888021 25.2610677 48.2070312 25.9355469 48.234375 26.4459635 48.311849 26.7923177 48.4394531 26.9746094 48.5670573 27.156901 48.7584635 27.3072917 49.0136719 27.4257812L49.0136719 28 44.7753906 28C44.656901 27.6992188 44.5748698 27.4166667 44.5292969 27.1523438 44.483724 26.8880208 44.4472656 26.5872396 44.4199219 26.25 43.8821615 26.8333333 43.2623698 27.3300781 42.5605469 27.7402344 41.7220052 28.2233073 40.7740885 28.4648438 39.7167969 28.4648438 38.3678385 28.4648438 37.2535807 28.0797526 36.3740234 27.3095703 35.4944661 26.539388 35.0546875 25.4479167 35.0546875 24.0351562 35.0546875 22.203125 35.7610677 20.8769531 37.1738281 20.0566406 37.9485677 19.610026 39.0878906 19.2910156 40.5917969 19.0996094L41.9179688 18.9355469C42.6380208 18.844401 43.1529948 18.7304688 43.4628906 18.59375 44.0188802 18.3567708 44.296875 17.9876302 44.296875 17.4863281 44.296875 16.875651 44.0849609 16.4541016 43.6611328 16.2216797 43.2373047 15.9892578 42.6152344 15.8730469 41.7949219 15.8730469 40.874349 15.8730469 40.2226562 16.1009115 39.8398438 16.5566406 39.5664062 16.8938802 39.3841146 17.3496094 39.2929688 17.9238281L35.5332031 17.9238281C35.6152344 16.6204427 35.9798177 15.5494792 36.6269531 14.7109375ZM39.5253906 25.1835938C39.889974 25.484375 40.3365885 25.6347656 40.8652344 25.6347656 41.703776 25.6347656 42.476237 25.3886719 43.1826172 24.8964844 43.8889974 24.4042969 44.2558594 23.5065104 44.2832031 22.203125L44.2832031 20.7539062C44.0371094 20.9088542 43.788737 21.0341797 43.5380859 21.1298828 43.2874349 21.2255859 42.9433594 21.3144531 42.5058594 21.3964844L41.6308594 21.5605469C40.8105469 21.7063802 40.2226562 21.8841146 39.8671875 22.09375 39.265625 22.4492188 38.9648438 23.000651 38.9648438 23.7480469 38.9648438 24.4134115 39.1516927 24.8919271 39.5253906 25.1835938ZM60.0058594 17.1992188C59.6777344 16.4791667 59.0351562 16.1191406 58.078125 16.1191406 56.9661458 16.1191406 56.21875 16.4791667 55.8359375 17.1992188 55.6263021 17.609375 55.5214844 18.2200521 55.5214844 19.03125L55.5214844 28 51.5703125 28 51.5703125 13.125 55.3574219 13.125 55.3574219 15.2988281C55.8404948 14.5240885 56.296224 13.9726562 56.7246094 13.6445312 57.4811198 13.0611979 58.4609375 12.7695312 59.6640625 12.7695312 60.8033854 12.7695312 61.7239583 13.0201823 62.4257812 13.5214844 62.9908854 13.9863281 63.4192708 14.5833333 63.7109375 15.3125 64.2213542 14.4375 64.8548177 13.7949219 65.6113281 13.3847656 66.4134115 12.9746094 67.3066406 12.7695312 68.2910156 12.7695312 68.9472656 12.7695312 69.594401 12.8971354 70.2324219 13.1523438 70.8704427 13.4075521 71.4492188 13.8541667 71.96875 14.4921875 72.3880208 15.0117188 72.6705729 15.6497396 72.8164062 16.40625 72.9075521 16.9075521 72.953125 17.641276 72.953125 18.6074219L72.9257812 28 68.9335938 28 68.9335938 18.5117188C68.9335938 17.9466146 68.8424479 17.4817708 68.6601562 17.1171875 68.3138021 16.4244792 67.6757812 16.078125 66.7460938 16.078125 65.6705729 16.078125 64.9277344 16.5247396 64.5175781 17.4179688 64.3079427 17.8919271 64.203125 18.4615885 64.203125 19.1269531L64.203125 28 60.2792969 28 60.2792969 19.1269531C60.2792969 18.2428385 60.188151 17.6002604 60.0058594 17.1992188ZM89.0175781 14.6972656C90.2207031 15.9824219 90.8222656 17.8691406 90.8222656 20.3574219 90.8222656 22.9824219 90.2320964 24.9830729 89.0517578 26.359375 87.8714193 27.7356771 86.3515625 28.4238281 84.4921875 28.4238281 83.3072917 28.4238281 82.3229167 28.1276042 81.5390625 27.5351562 81.1106771 27.2070312 80.6914062 26.7285156 80.28125 26.0996094L80.28125 33.8652344 76.4257812 33.8652344 76.4257812 13.0976562 80.1582031 13.0976562 80.1582031 15.2988281C80.577474 14.6516927 81.0240885 14.141276 81.4980469 13.7675781 82.3639323 13.1022135 83.3938802 12.7695312 84.5878906 12.7695312 86.328776 12.7695312 87.8053385 13.4121094 89.0175781 14.6972656ZM86.8027344 20.5488281C86.8027344 19.4003906 86.5406901 18.3841146 86.0166016 17.5 85.492513 16.6158854 84.6425781 16.1738281 83.4667969 16.1738281 82.0540365 16.1738281 81.0833333 16.84375 80.5546875 18.1835938 80.28125 18.8945312 80.1445312 19.796875 80.1445312 20.890625 80.1445312 22.6223958 80.6048177 23.8391927 81.5253906 24.5410156 82.0722656 24.9511719 82.719401 25.15625 83.4667969 25.15625 84.5514323 25.15625 85.3785807 24.7369792 85.9482422 23.8984375 86.5179036 23.0598958 86.8027344 21.9433594 86.8027344 20.5488281Z"/><polygon points="93.721 7.848 97.617 7.848 97.617 28 93.721 28"/><path d="M114.173828,23.625 C114.073568,24.5091146 113.613281,25.406901 112.792969,26.3183594 C111.516927,27.7675781 109.730469,28.4921875 107.433594,28.4921875 C105.53776,28.4921875 103.865234,27.8815104 102.416016,26.6601562 C100.966797,25.4388021 100.242188,23.4518229 100.242188,20.6992188 C100.242188,18.1197917 100.896159,16.1419271 102.204102,14.765625 C103.512044,13.3893229 105.209635,12.7011719 107.296875,12.7011719 C108.536458,12.7011719 109.652995,12.9335938 110.646484,13.3984375 C111.639974,13.8632812 112.460286,14.5970052 113.107422,15.5996094 C113.690755,16.483724 114.06901,17.5091146 114.242188,18.6757812 C114.342448,19.359375 114.383464,20.34375 114.365234,21.6289062 L104.166016,21.6289062 C104.220703,23.1236979 104.690104,24.171875 105.574219,24.7734375 C106.111979,25.1471354 106.759115,25.3339844 107.515625,25.3339844 C108.317708,25.3339844 108.969401,25.1061198 109.470703,24.6503906 C109.744141,24.4042969 109.985677,24.0625 110.195312,23.625 L114.173828,23.625 Z M110.318359,19.0585938 C110.254557,18.0286458 109.942383,17.2470703 109.381836,16.7138672 C108.821289,16.1806641 108.126302,15.9140625 107.296875,15.9140625 C106.394531,15.9140625 105.694987,16.1966146 105.198242,16.7617188 C104.701497,17.3268229 104.389323,18.0924479 104.261719,19.0585938 L110.318359,19.0585938 Z"/></g></g><g transform="translate(179 16)"><rect width="149" height="58" x="-1" y="-1" fill="#08569E" stroke="#000" stroke-width="2"/><g fill="#FFF" fill-rule="nonzero" transform="translate(16 9.5)"><polygon points="16.16 19.195 6.371 19.195 6.371 24.377 17.527 24.377 17.527 28 2.256 28 2.256 7.848 17.035 7.848 17.035 11.416 6.371 11.416 6.371 15.695 16.16 15.695"/><polygon points="33.77 28 28.916 28 26.346 23.529 23.762 28 19.031 28 24.117 20.453 19.25 13.125 24.021 13.125 26.51 17.445 28.943 13.125 33.578 13.125 28.684 20.385"/><path d="M36.6269531 14.7109375C37.656901 13.3984375 39.4251302 12.7421875 41.9316406 12.7421875 43.563151 12.7421875 45.0123698 13.0657552 46.2792969 13.7128906 47.546224 14.360026 48.1796875 15.5813802 48.1796875 17.3769531L48.1796875 24.2128906C48.1796875 24.686849 48.1888021 25.2610677 48.2070312 25.9355469 48.234375 26.4459635 48.311849 26.7923177 48.4394531 26.9746094 48.5670573 27.156901 48.7584635 27.3072917 49.0136719 27.4257812L49.0136719 28 44.7753906 28C44.656901 27.6992188 44.5748698 27.4166667 44.5292969 27.1523438 44.483724 26.8880208 44.4472656 26.5872396 44.4199219 26.25 43.8821615 26.8333333 43.2623698 27.3300781 42.5605469 27.7402344 41.7220052 28.2233073 40.7740885 28.4648438 39.7167969 28.4648438 38.3678385 28.4648438 37.2535807 28.0797526 36.3740234 27.3095703 35.4944661 26.539388 35.0546875 25.4479167 35.0546875 24.0351562 35.0546875 22.203125 35.7610677 20.8769531 37.1738281 20.0566406 37.9485677 19.610026 39.0878906 19.2910156 40.5917969 19.0996094L41.9179688 18.9355469C42.6380208 18.844401 43.1529948 18.7304688 43.4628906 18.59375 44.0188802 18.3567708 44.296875 17.9876302 44.296875 17.4863281 44.296875 16.875651 44.0849609 16.4541016 43.6611328 16.2216797 43.2373047 15.9892578 42.6152344 15.8730469 41.7949219 15.8730469 40.874349 15.8730469 40.2226562 16.1009115 39.8398438 16.5566406 39.5664062 16.8938802 39.3841146 17.3496094 39.2929688 17.9238281L35.5332031 17.9238281C35.6152344 16.6204427 35.9798177 15.5494792 36.6269531 14.7109375ZM39.5253906 25.1835938C39.889974 25.484375 40.3365885 25.6347656 40.8652344 25.6347656 41.703776 25.6347656 42.476237 25.3886719 43.1826172 24.8964844 43.8889974 24.4042969 44.2558594 23.5065104 44.2832031 22.203125L44.2832031 20.7539062C44.0371094 20.9088542 43.788737 21.0341797 43.5380859 21.1298828 43.2874349 21.2255859 42.9433594 21.3144531 42.5058594 21.3964844L41.6308594 21.5605469C40.8105469 21.7063802 40.2226562 21.8841146 39.8671875 22.09375 39.265625 22.4492188 38.9648438 23.000651 38.9648438 23.7480469 38.9648438 24.4134115 39.1516927 24.8919271 39.5253906 25.1835938ZM60.0058594 17.1992188C59.6777344 16.4791667 59.0351562 16.1191406 58.078125 16.1191406 56.9661458 16.1191406 56.21875 16.4791667 55.8359375 17.1992188 55.6263021 17.609375 55.5214844 18.2200521 55.5214844 19.03125L55.5214844 28 51.5703125 28 51.5703125 13.125 55.3574219 13.125 55.3574219 15.2988281C55.8404948 14.5240885 56.296224 13.9726562 56.7246094 13.6445312 57.4811198 13.0611979 58.4609375 12.7695312 59.6640625 12.7695312 60.8033854 12.7695312 61.7239583 13.0201823 62.4257812 13.5214844 62.9908854 13.9863281 63.4192708 14.5833333 63.7109375 15.3125 64.2213542 14.4375 64.8548177 13.7949219 65.6113281 13.3847656 66.4134115 12.9746094 67.3066406 12.7695312 68.2910156 12.7695312 68.9472656 12.7695312 69.594401 12.8971354 70.2324219 13.1523438 70.8704427 13.4075521 71.4492188 13.8541667 71.96875 14.4921875 72.3880208 15.0117188 72.6705729 15.6497396 72.8164062 16.40625 72.9075521 16.9075521 72.953125 17.641276 72.953125 18.6074219L72.9257812 28 68.9335938 28 68.9335938 18.5117188C68.9335938 17.9466146 68.8424479 17.4817708 68.6601562 17.1171875 68.3138021 16.4244792 67.6757812 16.078125 66.7460938 16.078125 65.6705729 16.078125 64.9277344 16.5247396 64.5175781 17.4179688 64.3079427 17.8919271 64.203125 18.4615885 64.203125 19.1269531L64.203125 28 60.2792969 28 60.2792969 19.1269531C60.2792969 18.2428385 60.188151 17.6002604 60.0058594 17.1992188ZM89.0175781 14.6972656C90.2207031 15.9824219 90.8222656 17.8691406 90.8222656 20.3574219 90.8222656 22.9824219 90.2320964 24.9830729 89.0517578 26.359375 87.8714193 27.7356771 86.3515625 28.4238281 84.4921875 28.4238281 83.3072917 28.4238281 82.3229167 28.1276042 81.5390625 27.5351562 81.1106771 27.2070312 80.6914062 26.7285156 80.28125 26.0996094L80.28125 33.8652344 76.4257812 33.8652344 76.4257812 13.0976562 80.1582031 13.0976562 80.1582031 15.2988281C80.577474 14.6516927 81.0240885 14.141276 81.4980469 13.7675781 82.3639323 13.1022135 83.3938802 12.7695312 84.5878906 12.7695312 86.328776 12.7695312 87.8053385 13.4121094 89.0175781 14.6972656ZM86.8027344 20.5488281C86.8027344 19.4003906 86.5406901 18.3841146 86.0166016 17.5 85.492513 16.6158854 84.6425781 16.1738281 83.4667969 16.1738281 82.0540365 16.1738281 81.0833333 16.84375 80.5546875 18.1835938 80.28125 18.8945312 80.1445312 19.796875 80.1445312 20.890625 80.1445312 22.6223958 80.6048177 23.8391927 81.5253906 24.5410156 82.0722656 24.9511719 82.719401 25.15625 83.4667969 25.15625 84.5514323 25.15625 85.3785807 24.7369792 85.9482422 23.8984375 86.5179036 23.0598958 86.8027344 21.9433594 86.8027344 20.5488281Z"/><polygon points="93.721 7.848 97.617 7.848 97.617 28 93.721 28"/><path d="M114.173828,23.625 C114.073568,24.5091146 113.613281,25.406901 112.792969,26.3183594 C111.516927,27.7675781 109.730469,28.4921875 107.433594,28.4921875 C105.53776,28.4921875 103.865234,27.8815104 102.416016,26.6601562 C100.966797,25.4388021 100.242188,23.4518229 100.242188,20.6992188 C100.242188,18.1197917 100.896159,16.1419271 102.204102,14.765625 C103.512044,13.3893229 105.209635,12.7011719 107.296875,12.7011719 C108.536458,12.7011719 109.652995,12.9335938 110.646484,13.3984375 C111.639974,13.8632812 112.460286,14.5970052 113.107422,15.5996094 C113.690755,16.483724 114.06901,17.5091146 114.242188,18.6757812 C114.342448,19.359375 114.383464,20.34375 114.365234,21.6289062 L104.166016,21.6289062 C104.220703,23.1236979 104.690104,24.171875 105.574219,24.7734375 C106.111979,25.1471354 106.759115,25.3339844 107.515625,25.3339844 C108.317708,25.3339844 108.969401,25.1061198 109.470703,24.6503906 C109.744141,24.4042969 109.985677,24.0625 110.195312,23.625 L114.173828,23.625 Z M110.318359,19.0585938 C110.254557,18.0286458 109.942383,17.2470703 109.381836,16.7138672 C108.821289,16.1806641 108.126302,15.9140625 107.296875,15.9140625 C106.394531,15.9140625 105.694987,16.1966146 105.198242,16.7617188 C104.701497,17.3268229 104.389323,18.0924479 104.261719,19.0585938 L110.318359,19.0585938 Z"/></g></g></g></svg>