<svg xmlns="http://www.w3.org/2000/svg" width="1004" height="214" viewBox="0 0 1004 214"><g fill="none" fill-rule="evenodd" transform="translate(2 2)"><rect width="1000" height="210" fill="#FAFAFA" stroke="#000864" stroke-width="3"/><polygon fill="#E96115" points="94.003 148.25 36.995 178.379 47.883 114.565 1.763 69.371 65.499 60.06 94.003 2 122.506 60.06 186.243 69.371 140.123 114.565 151.01 178.379" transform="translate(9 15)"/><polygon fill="#E96115" points="94.003 148.25 36.995 178.379 47.883 114.565 1.763 69.371 65.499 60.06 94.003 2 122.506 60.06 186.243 69.371 140.123 114.565 151.01 178.379" transform="translate(207 15)"/><polygon fill="#E96115" points="94.003 148.25 36.995 178.379 47.883 114.565 1.763 69.371 65.499 60.06 94.003 2 122.506 60.06 186.243 69.371 140.123 114.565 151.01 178.379" transform="translate(405 15)"/><path stroke="#E96115" d="M95,3.12977573 L123.322498,60.5174254 L186.65353,69.7199629 L140.826765,114.390019 L151.644997,177.465149 L95,147.685112 L38.3550034,177.465149 L49.1732351,114.390019 L3.34647023,69.7199629 L66.6775017,60.5174254 L95,3.12977573 Z" transform="translate(603 15)"/><path stroke="#E96115" d="M95,3.12977573 L123.322498,60.5174254 L186.65353,69.7199629 L140.826765,114.390019 L151.644997,177.465149 L95,147.685112 L38.3550034,177.465149 L49.1732351,114.390019 L3.34647023,69.7199629 L66.6775017,60.5174254 L95,3.12977573 Z" transform="translate(802 15)"/></g></svg>