<svg width="1200px" height="400px" xmlns="http://www.w3.org/2000/svg" xml:space="preserve" style="fill-rule:evenodd;clip-rule:evenodd" viewBox="0 0 1200 400"><path d="M0 0h1200v400H0z" style="fill:#fff"/><g transform="translate(622 6)"><path d="M0 0h44v240H0z" style="fill:#005b85" transform="translate(386 112)"/><path d="M30 40v64c0 4.415-3.585 8-8 8s-8-3.585-8-8V40c0-4.415 3.585-8 8-8s8 3.585 8 8" style="fill:#b1d272" transform="translate(386 112)"/><path d="M388 32v80c0 17.661-14.339 32-32 32H32c-17.661 0-32-14.339-32-32V32C0 14.339 14.339 0 32 0h324c17.661 0 32 14.339 32 32" style="fill:#000f8a" transform="translate(0 160)"/><path d="M43.688 45.938h5.468v16.656q1.844-2.406 4.406-3.672 2.563-1.266 5.563-1.266 6.25 0 10.141 4.297t3.89 12.672q0 7.938-3.844 13.187-3.843 5.25-10.656 5.25-3.812 0-6.437-1.843-1.563-1.094-3.344-3.5V92h-5.187zm14.624 42.156q4.563 0 6.829-3.625t2.265-9.563q0-5.281-2.265-8.75-2.267-3.468-6.672-3.468-3.845 0-6.735 2.843t-2.89 9.375q0 4.719 1.187 7.656 2.219 5.532 8.281 5.532M84.031 83.094q0 2.437 1.781 3.844 1.782 1.406 4.219 1.406 2.969 0 5.75-1.375 4.688-2.282 4.688-7.469v-4.531q-1.032.656-2.657 1.093a23 23 0 0 1-3.187.626l-3.406.437q-3.063.406-4.594 1.281-2.594 1.469-2.594 4.688m13.625-11.375q1.938-.25 2.594-1.625.375-.75.375-2.156 0-2.876-2.047-4.172-2.047-1.297-5.859-1.297-4.407 0-6.25 2.375-1.032 1.313-1.344 3.906h-5.25q.156-6.188 4.016-8.609t8.953-2.422q5.906 0 9.594 2.25 3.656 2.25 3.656 7V86.25q0 .875.359 1.406.36.532 1.516.532.375 0 .843-.047.47-.048 1-.141v4.156q-1.311.375-2 .469-.687.094-1.874.094-2.907 0-4.219-2.063-.688-1.093-.969-3.094-1.719 2.25-4.938 3.907-3.218 1.656-7.093 1.656-4.656 0-7.61-2.828-2.953-2.829-2.953-7.078 0-4.656 2.906-7.219 2.907-2.562 7.626-3.156zM128.219 57.562q5.656 0 9.203 2.75t4.266 9.469h-5.469q-.5-3.093-2.281-5.14t-5.719-2.047q-5.376 0-7.688 5.25-1.5 3.406-1.5 8.406 0 5.031 2.125 8.469t6.688 3.437q3.5 0 5.547-2.14t2.828-5.86h5.469q-.939 6.657-4.688 9.735-3.75 3.078-9.594 3.078-6.562 0-10.468-4.797-3.907-4.797-3.907-11.984 0-8.813 4.281-13.719 4.282-4.907 10.907-4.907M147.188 46.094h5.406V72.75l14.437-14.219h7.188l-12.813 12.531L174.938 92h-7.188l-10.438-16.875-4.718 4.313V92h-5.406zM198.219 49.188h5.687v9.343h5.344v4.594h-5.344v21.844q0 1.75 1.188 2.343.656.344 2.187.344.407 0 .875-.015.469-.016 1.094-.079V92q-.969.282-2.016.406-1.047.126-2.265.125-3.938 0-5.344-2.015t-1.406-5.235V63.125h-4.531v-4.594h4.531zM228.156 88.375q5.594 0 7.672-4.234 2.079-4.235 2.078-9.422 0-4.688-1.5-7.625-2.375-4.626-8.187-4.625-5.157 0-7.5 3.937-2.344 3.938-2.344 9.5 0 5.345 2.344 8.906 2.343 3.564 7.437 3.563m.219-30.813q6.469 0 10.937 4.313 4.47 4.313 4.469 12.687 0 8.094-3.937 13.376-3.937 5.28-12.219 5.281-6.906 0-10.969-4.672T212.594 76q0-8.437 4.281-13.438 4.28-5 11.5-5M269.375 49.188h5.687v9.343h5.344v4.594h-5.344v21.844q0 1.75 1.188 2.343.657.344 2.188.344.405 0 .874-.015a17 17 0 0 0 1.094-.079V92a12.5 12.5 0 0 1-2.015.406q-1.047.126-2.266.125-3.937 0-5.344-2.015-1.406-2.016-1.406-5.235V63.125h-4.531v-4.594h4.531zM299.312 88.375q5.595 0 7.672-4.234 2.079-4.235 2.078-9.422 0-4.688-1.5-7.625-2.375-4.626-8.187-4.625-5.156 0-7.5 3.937-2.344 3.938-2.344 9.5 0 5.345 2.344 8.906 2.344 3.564 7.437 3.563m.219-30.813q6.47 0 10.938 4.313t4.469 12.687q0 8.094-3.938 13.376-3.937 5.28-12.219 5.281-6.906 0-10.969-4.672T283.75 76q0-8.437 4.281-13.438 4.281-5 11.5-5M335.75 88.219q3.937 0 6.547-3.297 2.609-3.296 2.609-9.86 0-4-1.156-6.874-2.187-5.532-8-5.532-5.844 0-8 5.844-1.156 3.125-1.156 7.938 0 3.875 1.156 6.593 2.187 5.188 8 5.188m-14.562-29.531h5.468v4.437q1.687-2.281 3.688-3.531 2.844-1.875 6.687-1.875 5.688 0 9.657 4.359 3.968 4.359 3.968 12.453 0 10.938-5.718 15.625-3.626 2.969-8.438 2.969-3.781 0-6.344-1.656-1.5-.937-3.344-3.219v17.094h-5.624z" style="fill:#fff;fill-rule:nonzero" transform="translate(0 160)"/><circle cx="408" cy="228" r="46" style="fill:#ca2626;fill-opacity:.2;stroke:#ca2626;stroke-width:4px"/><path d="M5.938-57.266h43.75v12.305H23.711v10h22.187v11.563H23.711V0H5.938zM86.914-9.453H66.758L63.984 0H45.898l21.524-57.266h19.297L108.242 0H89.727zm-3.711-12.383-6.328-20.586-6.289 20.586zM114.609-57.266h17.734V0h-17.734zM145.039-57.266h17.695v43.164h27.618V0h-45.313z" style="fill:#ab2020;fill-rule:nonzero" transform="translate(132 88)"/></g><g transform="translate(40 6)"><path d="M0 0h44v240H0z" style="fill:#005b85" transform="translate(414 112)"/><path d="M30 40v64c0 4.415-3.585 8-8 8s-8-3.585-8-8V40c0-4.415 3.585-8 8-8s8 3.585 8 8" style="fill:#b1d272" transform="translate(414 112)"/><path d="M388 32v80c0 17.661-14.339 32-32 32H32c-17.661 0-32-14.339-32-32V32C0 14.339 14.339 0 32 0h324c17.661 0 32 14.339 32 32" style="fill:#000f8a" transform="translate(0 160)"/><path d="M43.688 45.938h5.468v16.656q1.844-2.406 4.406-3.672 2.563-1.266 5.563-1.266 6.25 0 10.141 4.297t3.89 12.672q0 7.938-3.844 13.187-3.843 5.25-10.656 5.25-3.812 0-6.437-1.843-1.563-1.094-3.344-3.5V92h-5.187zm14.624 42.156q4.563 0 6.829-3.625t2.265-9.563q0-5.281-2.265-8.75-2.267-3.468-6.672-3.468-3.845 0-6.735 2.843t-2.89 9.375q0 4.719 1.187 7.656 2.219 5.532 8.281 5.532M84.031 83.094q0 2.437 1.781 3.844 1.782 1.406 4.219 1.406 2.969 0 5.75-1.375 4.688-2.282 4.688-7.469v-4.531q-1.032.656-2.657 1.093a23 23 0 0 1-3.187.626l-3.406.437q-3.063.406-4.594 1.281-2.594 1.469-2.594 4.688m13.625-11.375q1.938-.25 2.594-1.625.375-.75.375-2.156 0-2.876-2.047-4.172-2.047-1.297-5.859-1.297-4.407 0-6.25 2.375-1.032 1.313-1.344 3.906h-5.25q.156-6.188 4.016-8.609t8.953-2.422q5.906 0 9.594 2.25 3.656 2.25 3.656 7V86.25q0 .875.359 1.406.36.532 1.516.532.375 0 .843-.047.47-.048 1-.141v4.156q-1.311.375-2 .469-.687.094-1.874.094-2.907 0-4.219-2.063-.688-1.093-.969-3.094-1.719 2.25-4.938 3.907-3.218 1.656-7.093 1.656-4.656 0-7.61-2.828-2.953-2.829-2.953-7.078 0-4.656 2.906-7.219 2.907-2.562 7.626-3.156zM128.219 57.562q5.656 0 9.203 2.75t4.266 9.469h-5.469q-.5-3.093-2.281-5.14t-5.719-2.047q-5.376 0-7.688 5.25-1.5 3.406-1.5 8.406 0 5.031 2.125 8.469t6.688 3.437q3.5 0 5.547-2.14t2.828-5.86h5.469q-.939 6.657-4.688 9.735-3.75 3.078-9.594 3.078-6.562 0-10.468-4.797-3.907-4.797-3.907-11.984 0-8.813 4.281-13.719 4.282-4.907 10.907-4.907M147.188 46.094h5.406V72.75l14.437-14.219h7.188l-12.813 12.531L174.938 92h-7.188l-10.438-16.875-4.718 4.313V92h-5.406zM198.219 49.188h5.687v9.343h5.344v4.594h-5.344v21.844q0 1.75 1.188 2.343.656.344 2.187.344.407 0 .875-.015.469-.016 1.094-.079V92q-.969.282-2.016.406-1.047.126-2.265.125-3.938 0-5.344-2.015t-1.406-5.235V63.125h-4.531v-4.594h4.531zM228.156 88.375q5.594 0 7.672-4.234 2.079-4.235 2.078-9.422 0-4.688-1.5-7.625-2.375-4.626-8.187-4.625-5.157 0-7.5 3.937-2.344 3.938-2.344 9.5 0 5.345 2.344 8.906 2.343 3.564 7.437 3.563m.219-30.813q6.469 0 10.937 4.313 4.47 4.313 4.469 12.687 0 8.094-3.937 13.376-3.937 5.28-12.219 5.281-6.906 0-10.969-4.672T212.594 76q0-8.437 4.281-13.438 4.28-5 11.5-5M269.375 49.188h5.687v9.343h5.344v4.594h-5.344v21.844q0 1.75 1.188 2.343.657.344 2.188.344.405 0 .874-.015a17 17 0 0 0 1.094-.079V92a12.5 12.5 0 0 1-2.015.406q-1.047.126-2.266.125-3.937 0-5.344-2.015-1.406-2.016-1.406-5.235V63.125h-4.531v-4.594h4.531zM299.312 88.375q5.595 0 7.672-4.234 2.079-4.235 2.078-9.422 0-4.688-1.5-7.625-2.375-4.626-8.187-4.625-5.156 0-7.5 3.937-2.344 3.938-2.344 9.5 0 5.345 2.344 8.906 2.344 3.564 7.437 3.563m.219-30.813q6.47 0 10.938 4.313t4.469 12.687q0 8.094-3.938 13.376-3.937 5.28-12.219 5.281-6.906 0-10.969-4.672T283.75 76q0-8.437 4.281-13.438 4.281-5 11.5-5M335.75 88.219q3.937 0 6.547-3.297 2.609-3.296 2.609-9.86 0-4-1.156-6.874-2.187-5.532-8-5.532-5.844 0-8 5.844-1.156 3.125-1.156 7.938 0 3.875 1.156 6.593 2.187 5.188 8 5.188m-14.562-29.531h5.468v4.437q1.687-2.281 3.688-3.531 2.844-1.875 6.687-1.875 5.688 0 9.657 4.359 3.968 4.359 3.968 12.453 0 10.938-5.718 15.625-3.626 2.969-8.438 2.969-3.781 0-6.344-1.656-1.5-.937-3.344-3.219v17.094h-5.624z" style="fill:#fff;fill-rule:nonzero" transform="translate(0 160)"/><circle cx="436" cy="228" r="46" style="fill:#00ff41;fill-opacity:.2;stroke:#1c7026;stroke-width:4px"/><path d="M5.781-57.266h29.414q9.61 0 14.395 4.571t4.785 13.007q0 8.673-5.215 13.555-5.214 4.883-15.918 4.883h-9.687V0H5.781zm17.774 24.414h4.336q5.117 0 7.187-1.777 2.07-1.778 2.07-4.551 0-2.695-1.796-4.57t-6.758-1.875h-5.039zM92.07-9.453H71.914L69.141 0H51.055l21.523-57.266h19.297L113.398 0H94.883zm-3.711-12.383-6.328-20.586-6.289 20.586zM115.977-18.945 132.812-20q.547 4.102 2.227 6.25 2.734 3.477 7.813 3.477 3.789 0 5.839-1.778 2.052-1.777 2.051-4.121 0-2.226-1.953-3.984t-9.062-3.321q-11.641-2.616-16.602-6.953-5-4.335-5-11.054 0-4.414 2.559-8.34 2.557-3.926 7.695-6.172 5.136-2.246 14.082-2.246 10.977 0 16.738 4.082 5.762 4.082 6.856 12.988l-16.68.977q-.665-3.867-2.793-5.625t-5.879-1.758q-3.086 0-4.648 1.308-1.563 1.31-1.563 3.184 0 1.368 1.289 2.461 1.25 1.133 5.938 2.109 11.6 2.5 16.621 5.059 5.019 2.559 7.305 6.348t2.285 8.476q0 5.508-3.047 10.156t-8.516 7.051T142.578.977q-14.609 0-20.234-5.625t-6.367-14.297M173.75-18.945 190.586-20q.548 4.102 2.226 6.25 2.735 3.477 7.813 3.477 3.79 0 5.84-1.778 2.05-1.777 2.051-4.121 0-2.226-1.954-3.984-1.952-1.758-9.062-3.321-11.64-2.616-16.602-6.953-5-4.335-5-11.054 0-4.414 2.559-8.34t7.695-6.172q5.138-2.246 14.082-2.246 10.977 0 16.739 4.082t6.855 12.988l-16.68.977q-.663-3.867-2.793-5.625-2.128-1.758-5.878-1.758-3.086 0-4.649 1.308-1.562 1.31-1.562 3.184 0 1.368 1.289 2.461 1.25 1.133 5.937 2.109 11.602 2.5 16.621 5.059 5.02 2.559 7.305 6.348t2.285 8.476q0 5.508-3.047 10.156t-8.515 7.051Q208.671.977 200.352.977q-14.61 0-20.235-5.625t-6.367-14.297" style="fill:#186723;fill-rule:nonzero" transform="translate(122 88)"/></g></svg>