<svg viewBox="0 0 560 265" xmlns="http://www.w3.org/2000/svg" xml:space="preserve" fill-rule="evenodd" clip-rule="evenodd" stroke-miterlimit="1"><rect width="560" height="265" fill="none"/><clipPath id="a"><rect width="560" height="265"/></clipPath><g clip-path="url(#a)"><rect x="-0" width="560" height="265" fill="#fff"/><path d="M10,87.5l540,-0" fill="none" stroke="#ddd" stroke-width="1px"/><path d="M10,172.5l540,-0" fill="none" stroke="#ddd" stroke-width="1px"/><path d="M59.002,26c0,-0 0.332,-0.637 0.613,-1l0.387,0l0,0.011c0,-0.004 0,-0.007 0,-0.011l1,0l0,1l-2,-0Zm0,1l1,-0l0,1l-1,-0l0,-1Zm0,2l1,0l0,1l-1,0l0,-1Zm0,2l1,0l0,1l-1,0l0,-1Zm0,2l1,0l0,1l-1,0l0,-1Zm0,2l1,-0l0,1l-1,-0l0,-1Zm0,2l1,-0l0,1l-1,0l0,-1Zm0,2l1,0l0,1l-1,-0l0,-1Zm0,2l1,0l0,1l-1,0l0,-1Zm0,2l1,-0l0,1l-1,0l0,-1Zm0,2l1,-0l0,1l-1,-0l0,-1Zm0,2l1,-0l0,2l-1,-0l0,-1l0.011,-0c-0.004,-0 -0.007,0 -0.011,0l0,-1Zm2,2l0,-1l1,-0l0,1l-1,-0Zm2,-0l0,-1l1,0l0,1l-1,-0Zm2,-0l0,-1l1,-0l0,1l-1,-0Zm2,-0l0,-1l1,-0l0,1l-1,-0Zm2,-0l0,-1l1,-0l0,1l-1,-0Zm2,-0l0,-1l1,-0l0,1l-1,-0Zm2,-0l0,-1l1,-0l0,1l-1,-0Zm2,-0l0,-1l1,0l0,1l-1,-0Zm2,-0l0,-1l1,0l0,1l-1,-0Zm2,-0l0,-1l1,-0l0,1l-1,-0Zm2,-0l0,-1l2,0l0,1l-1,-0l0,-0.011c0,0.004 0,0.007 0,0.011l-1,-0Zm2,-2l-1,0l0,-1l1,0l0,1Zm0,-2l-1,-0l0,-1l1,-0l0,1Zm0,-2l-1,-0l0,-1l1,-0l0,1Zm0,-2l-1,-0l0,-1l1,-0l0,1Zm0,-2l-1,0l0,-1l1,0l0,1Zm0,-2l-1,0l0,-1l1,-0l0,1Zm0,-2l-1,-0l0,-1l1,0l0,1Zm0,-2l-1,-0l0,-1l1,-0l0,1Zm0,-2l-1,0l0,-1l1,-0l0,1Zm0,-2l-1,0l0,-1l1,0l0,1Zm0,-2l-1,0l0,-2c0,0.943 1,1 1,1l0,1Zm-2,-2l0,1l-1,-0l0,-1l1,0Zm-2,0l0,1l-1,-0l0,-1l1,0Zm-2,0l0,1l-1,-0l0,-1l1,0Zm-2,0l0,1l-1,-0l0,-1l1,0Zm-2,0l0,1l-1,-0l0,-1l1,0Zm-2,0l0,1l-1,-0l0,-1l1,0Zm-2,0l0,1l-1,-0l0,-1l1,0Zm-2,0l0,1l-1,-0l0,-1l1,0Zm-2,0l0,1l-1,0l0,-1l1,0Zm-2,0l0,1l-1,-0l0,-1l1,0Z" fill="#6a6bd3"/><path d="M83.002,26c0,-0 0.332,-0.637 0.613,-1l0.387,0l0,0.011c0,-0.004 0,-0.007 0,-0.011l1,0l0,1l-2,-0Zm0,1l1,-0l0,1l-1,-0l0,-1Zm0,2l1,0l0,1l-1,0l0,-1Zm0,2l1,0l0,1l-1,0l0,-1Zm0,2l1,0l0,1l-1,0l0,-1Zm0,2l1,-0l0,1l-1,-0l0,-1Zm0,2l1,-0l0,1l-1,0l0,-1Zm0,2l1,0l0,1l-1,-0l0,-1Zm0,2l1,0l0,1l-1,0l0,-1Zm0,2l1,-0l0,1l-1,0l0,-1Zm0,2l1,-0l0,1l-1,-0l0,-1Zm0,2l1,-0l0,2l-1,-0l0,-1l0.011,-0c-0.004,-0 -0.007,0 -0.011,0l0,-1Zm2,2l0,-1l1,-0l0,1l-1,-0Zm2,-0l0,-1l1,0l0,1l-1,-0Zm2,-0l0,-1l1,-0l0,1l-1,-0Zm2,-0l0,-1l1,-0l0,1l-1,-0Zm2,-0l0,-1l1,-0l0,1l-1,-0Zm2,-0l0,-1l1,-0l0,1l-1,-0Zm2,-0l0,-1l1,-0l0,1l-1,-0Zm2,-0l0,-1l1,0l0,1l-1,-0Zm2,-0l0,-1l1,0l0,1l-1,-0Zm2,-0l0,-1l1,-0l0,1l-1,-0Zm2,-0l0,-1l2,0l0,1l-1,-0l0,-0.011c0,0.004 0,0.007 0,0.011l-1,-0Zm2,-2l-1,0l0,-1l1,0l0,1Zm0,-2l-1,-0l0,-1l1,-0l0,1Zm0,-2l-1,-0l0,-1l1,-0l0,1Zm0,-2l-1,-0l0,-1l1,-0l0,1Zm0,-2l-1,0l0,-1l1,0l0,1Zm0,-2l-1,0l0,-1l1,-0l0,1Zm0,-2l-1,-0l0,-1l1,0l0,1Zm0,-2l-1,-0l0,-1l1,-0l0,1Zm0,-2l-1,0l0,-1l1,-0l0,1Zm0,-2l-1,0l0,-1l1,0l0,1Zm0,-2l-1,0l0,-2c0,0.943 1,1 1,1l0,1Zm-2,-2l0,1l-1,-0l0,-1l1,0Zm-2,0l0,1l-1,-0l0,-1l1,0Zm-2,0l0,1l-1,-0l0,-1l1,0Zm-2,0l0,1l-1,-0l0,-1l1,0Zm-2,0l0,1l-1,-0l0,-1l1,0Zm-2,0l0,1l-1,-0l0,-1l1,0Zm-2,0l0,1l-1,-0l0,-1l1,0Zm-2,0l0,1l-1,-0l0,-1l1,0Zm-2,0l0,1l-1,0l0,-1l1,0Zm-2,0l0,1l-1,-0l0,-1l1,0Z" fill="#6a6bd3"/><path d="M107.002,26c0,-0 0.332,-0.637 0.613,-1l0.387,0l0,0.011c0,-0.004 0,-0.007 0,-0.011l1,0l0,1l-2,-0Zm0,1l1,-0l0,1l-1,-0l0,-1Zm0,2l1,0l0,1l-1,0l0,-1Zm0,2l1,0l0,1l-1,0l0,-1Zm0,2l1,0l0,1l-1,0l0,-1Zm0,2l1,-0l0,1l-1,-0l0,-1Zm0,2l1,-0l0,1l-1,0l0,-1Zm0,2l1,0l0,1l-1,-0l0,-1Zm0,2l1,0l0,1l-1,0l0,-1Zm0,2l1,-0l0,1l-1,0l0,-1Zm0,2l1,-0l0,1l-1,-0l0,-1Zm0,2l1,-0l0,2l-1,-0l0,-1l0.011,-0c-0.004,-0 -0.007,0 -0.011,0l0,-1Zm2,2l0,-1l1,-0l0,1l-1,-0Zm2,-0l0,-1l1,0l0,1l-1,-0Zm2,-0l0,-1l1,-0l0,1l-1,-0Zm2,-0l0,-1l1,-0l0,1l-1,-0Zm2,-0l0,-1l1,-0l0,1l-1,-0Zm2,-0l0,-1l1,-0l0,1l-1,-0Zm2,-0l0,-1l1,-0l0,1l-1,-0Zm2,-0l0,-1l1,0l0,1l-1,-0Zm2,-0l0,-1l1,0l0,1l-1,-0Zm2,-0l0,-1l1,-0l0,1l-1,-0Zm2,-0l0,-1l2,0l0,1l-1,-0l0,-0.011c0,0.004 0,0.007 0,0.011l-1,-0Zm2,-2l-1,0l0,-1l1,0l0,1Zm0,-2l-1,-0l0,-1l1,-0l0,1Zm0,-2l-1,-0l0,-1l1,-0l0,1Zm0,-2l-1,-0l0,-1l1,-0l0,1Zm0,-2l-1,0l0,-1l1,0l0,1Zm0,-2l-1,0l0,-1l1,-0l0,1Zm0,-2l-1,-0l0,-1l1,0l0,1Zm0,-2l-1,-0l0,-1l1,-0l0,1Zm0,-2l-1,0l0,-1l1,-0l0,1Zm0,-2l-1,0l0,-1l1,0l0,1Zm0,-2l-1,0l0,-2c0,0.943 1,1 1,1l0,1Zm-2,-2l0,1l-1,-0l0,-1l1,0Zm-2,0l0,1l-1,-0l0,-1l1,0Zm-2,0l0,1l-1,-0l0,-1l1,0Zm-2,0l0,1l-1,-0l0,-1l1,0Zm-2,0l0,1l-1,-0l0,-1l1,0Zm-2,0l0,1l-1,-0l0,-1l1,0Zm-2,0l0,1l-1,-0l0,-1l1,0Zm-2,0l0,1l-1,-0l0,-1l1,0Zm-2,0l0,1l-1,0l0,-1l1,0Zm-2,0l0,1l-1,-0l0,-1l1,0Z" fill="#6a6bd3"/><path d="M131.002,26c0,-0 0.332,-0.637 0.613,-1l0.387,0l0,0.011c0,-0.004 0,-0.007 0,-0.011l1,0l0,1l-2,-0Zm0,1l1,-0l0,1l-1,-0l0,-1Zm0,2l1,0l0,1l-1,0l0,-1Zm0,2l1,0l0,1l-1,0l0,-1Zm0,2l1,0l0,1l-1,0l0,-1Zm0,2l1,-0l0,1l-1,-0l0,-1Zm0,2l1,-0l0,1l-1,0l0,-1Zm0,2l1,0l0,1l-1,-0l0,-1Zm0,2l1,0l0,1l-1,0l0,-1Zm0,2l1,-0l0,1l-1,0l0,-1Zm0,2l1,-0l0,1l-1,-0l0,-1Zm0,2l1,-0l0,2l-1,-0l0,-1l0.011,-0c-0.004,-0 -0.007,0 -0.011,0l0,-1Zm2,2l0,-1l1,-0l0,1l-1,-0Zm2,-0l0,-1l1,0l0,1l-1,-0Zm2,-0l0,-1l1,-0l0,1l-1,-0Zm2,-0l0,-1l1,-0l0,1l-1,-0Zm2,-0l0,-1l1,-0l0,1l-1,-0Zm2,-0l0,-1l1,-0l0,1l-1,-0Zm2,-0l0,-1l1,-0l0,1l-1,-0Zm2,-0l0,-1l1,0l0,1l-1,-0Zm2,-0l0,-1l1,0l0,1l-1,-0Zm2,-0l0,-1l1,-0l0,1l-1,-0Zm2,-0l0,-1l2,0l0,1l-1,-0l0,-0.011c0,0.004 0,0.007 0,0.011l-1,-0Zm2,-2l-1,0l0,-1l1,0l0,1Zm0,-2l-1,-0l0,-1l1,-0l0,1Zm0,-2l-1,-0l0,-1l1,-0l0,1Zm0,-2l-1,-0l0,-1l1,-0l0,1Zm0,-2l-1,0l0,-1l1,0l0,1Zm0,-2l-1,0l0,-1l1,-0l0,1Zm0,-2l-1,-0l0,-1l1,0l0,1Zm0,-2l-1,-0l0,-1l1,-0l0,1Zm0,-2l-1,0l0,-1l1,-0l0,1Zm0,-2l-1,0l0,-1l1,0l0,1Zm0,-2l-1,0l0,-2c0,0.943 1,1 1,1l0,1Zm-2,-2l0,1l-1,-0l0,-1l1,0Zm-2,0l0,1l-1,-0l0,-1l1,0Zm-2,0l0,1l-1,-0l0,-1l1,0Zm-2,0l0,1l-1,-0l0,-1l1,0Zm-2,0l0,1l-1,-0l0,-1l1,0Zm-2,0l0,1l-1,-0l0,-1l1,0Zm-2,0l0,1l-1,-0l0,-1l1,0Zm-2,0l0,1l-1,-0l0,-1l1,0Zm-2,0l0,1l-1,0l0,-1l1,0Zm-2,0l0,1l-1,-0l0,-1l1,0Z" fill="#6a6bd3"/><path d="M155.002,26c0,-0 0.332,-0.637 0.613,-1l0.387,0l0,0.011c0,-0.004 0,-0.007 0,-0.011l1,0l0,1l-2,-0Zm0,1l1,-0l0,1l-1,-0l0,-1Zm0,2l1,0l0,1l-1,0l0,-1Zm0,2l1,0l0,1l-1,0l0,-1Zm0,2l1,0l0,1l-1,0l0,-1Zm0,2l1,-0l0,1l-1,-0l0,-1Zm0,2l1,-0l0,1l-1,0l0,-1Zm0,2l1,0l0,1l-1,-0l0,-1Zm0,2l1,0l0,1l-1,0l0,-1Zm0,2l1,-0l0,1l-1,0l0,-1Zm0,2l1,-0l0,1l-1,-0l0,-1Zm0,2l1,-0l0,2l-1,-0l0,-1l0.011,-0c-0.004,-0 -0.007,0 -0.011,0l0,-1Zm2,2l0,-1l1,-0l0,1l-1,-0Zm2,-0l0,-1l1,0l0,1l-1,-0Zm2,-0l0,-1l1,-0l0,1l-1,-0Zm2,-0l0,-1l1,-0l0,1l-1,-0Zm2,-0l0,-1l1,-0l0,1l-1,-0Zm2,-0l0,-1l1,-0l0,1l-1,-0Zm2,-0l0,-1l1,-0l0,1l-1,-0Zm2,-0l0,-1l1,0l0,1l-1,-0Zm2,-0l0,-1l1,0l0,1l-1,-0Zm2,-0l0,-1l1,-0l0,1l-1,-0Zm2,-0l0,-1l2,0l0,1l-0.989,-0l-0.011,-0.011l0,0.011l-1,-0Zm2,-2l-1,0l0,-1l1,0l0,1Zm0,-2l-1,-0l0,-1l1,-0l0,1Zm0,-2l-1,-0l0,-1l1,-0l0,1Zm0,-2l-1,-0l0,-1l1,-0l0,1Zm0,-2l-1,0l0,-1l1,0l0,1Zm0,-2l-1,0l0,-1l1,-0l0,1Zm0,-2l-1,-0l0,-1l1,0l0,1Zm0,-2l-1,-0l0,-1l1,-0l0,1Zm0,-2l-1,0l0,-1l1,-0l0,1Zm0,-2l-1,0l0,-1l1,0l0,1Zm0,-2l-1,0l0,-2c0,0.943 1,1 1,1l0,1Zm-2,-2l0,1l-1,-0l0,-1l1,0Zm-2,0l0,1l-1,-0l0,-1l1,0Zm-2,0l0,1l-1,-0l0,-1l1,0Zm-2,0l0,1l-1,-0l0,-1l1,0Zm-2,0l0,1l-1,-0l0,-1l1,0Zm-2,0l0,1l-1,-0l0,-1l1,0Zm-2,0l0,1l-1,-0l0,-1l1,0Zm-2,0l0,1l-1,-0l0,-1l1,0Zm-2,0l0,1l-1,0l0,-1l1,0Zm-2,0l0,1l-1,-0l0,-1l1,0Z" fill="#6a6bd3"/><path d="M179.002,26c0,-0 0.332,-0.637 0.613,-1l0.387,0l0,0.011c0,-0.004 0,-0.007 0,-0.011l1,0l0,1l-2,-0Zm0,1l1,-0l0,1l-1,-0l0,-1Zm0,2l1,0l0,1l-1,0l0,-1Zm0,2l1,0l0,1l-1,0l0,-1Zm0,2l1,0l0,1l-1,0l0,-1Zm0,2l1,-0l0,1l-1,-0l0,-1Zm0,2l1,-0l0,1l-1,0l0,-1Zm0,2l1,0l0,1l-1,-0l0,-1Zm0,2l1,0l0,1l-1,0l0,-1Zm0,2l1,-0l0,1l-1,0l0,-1Zm0,2l1,-0l0,1l-1,-0l0,-1Zm0,2l1,-0l0,2l-1,-0l0,-1l0.011,-0c-0.004,-0 -0.007,0 -0.011,0l0,-1Zm2,2l0,-1l1,-0l0,1l-1,-0Zm2,-0l0,-1l1,0l0,1l-1,-0Zm2,-0l0,-1l1,-0l0,1l-1,-0Zm2,-0l0,-1l1,-0l0,1l-1,-0Zm2,-0l0,-1l1,-0l0,1l-1,-0Zm2,-0l0,-1l1,-0l0,1l-1,-0Zm2,-0l0,-1l1,-0l0,1l-1,-0Zm2,-0l0,-1l1,0l0,1l-1,-0Zm2,-0l0,-1l1,0l0,1l-1,-0Zm2,-0l0,-1l1,-0l0,1l-1,-0Zm2,-0l0,-1l2,0l0,1l-1,-0l0,-0.011c0,0.004 0,0.007 0,0.011l-1,-0Zm2,-2l-1,0l0,-1l1,0l0,1Zm0,-2l-1,-0l0,-1l1,-0l0,1Zm0,-2l-1,-0l0,-1l1,-0l0,1Zm0,-2l-1,-0l0,-1l1,-0l0,1Zm0,-2l-1,0l0,-1l1,0l0,1Zm0,-2l-1,0l0,-1l1,-0l0,1Zm0,-2l-1,-0l0,-1l1,0l0,1Zm0,-2l-1,-0l0,-1l1,-0l0,1Zm0,-2l-1,0l0,-1l1,-0l0,1Zm0,-2l-1,0l0,-1l1,0l0,1Zm0,-2l-1,0l0,-2c0,0.943 1,1 1,1l0,1Zm-2,-2l0,1l-1,-0l0,-1l1,0Zm-2,0l0,1l-1,-0l0,-1l1,0Zm-2,0l0,1l-1,-0l0,-1l1,0Zm-2,0l0,1l-1,-0l0,-1l1,0Zm-2,0l0,1l-1,-0l0,-1l1,0Zm-2,0l0,1l-1,-0l0,-1l1,0Zm-2,0l0,1l-1,-0l0,-1l1,0Zm-2,0l0,1l-1,-0l0,-1l1,0Zm-2,0l0,1l-1,0l0,-1l1,0Zm-2,0l0,1l-1,-0l0,-1l1,0Z" fill="#6a6bd3"/><path d="M194.002,35c0,1.646 -1.354,3 -3,3c-1.646,-0 -3,-1.354 -3,-3c0,-1.646 1.354,-3 3,-3c1.646,-0 3,1.354 3,3Z" fill-rule="nonzero"/><path d="M183.002,37c0,-4.389 3.611,-8 8,-8c4.389,-0 8,3.611 8,8c0,4.389 -3.611,8 -8,8c-4.389,-0 -8,-3.611 -8,-8Zm8,-7c-3.84,0 -7,3.16 -7,7c0,1.588 0.541,3.13 1.532,4.37c0.71,-1.144 2.273,-2.37 5.468,-2.37c3.195,-0 4.757,1.225 5.468,2.37c0.991,-1.24 1.532,-2.782 1.532,-4.37c-0,-3.84 -3.16,-7 -7,-7Z"/><path d="M168.537,30.016c0.132,-0.001 0.26,0.052 0.354,0.146l4.95,4.95c0.194,0.194 0.194,0.513 -0,0.707c-0.48,0.48 -1.072,0.588 -1.503,0.588c-0.177,-0 -0.335,-0.018 -0.46,-0.039l-3.134,3.134c0.082,0.332 0.136,0.671 0.16,1.013c0.046,0.702 -0.032,1.687 -0.72,2.375c-0.194,0.194 -0.513,0.194 -0.707,-0l-2.829,-2.828l-3.182,3.182c-0.195,0.195 -1.219,0.902 -1.414,0.707c-0.195,-0.195 0.512,-1.22 0.707,-1.414l3.182,-3.182l-2.828,-2.829c-0.194,-0.194 -0.194,-0.513 -0,-0.707c0.688,-0.688 1.673,-0.767 2.375,-0.72c0.341,0.024 0.68,0.077 1.013,0.16l3.134,-3.133c-0.026,-0.153 -0.04,-0.307 -0.04,-0.461c-0,-0.43 0.108,-1.022 0.589,-1.503c0.093,-0.094 0.22,-0.146 0.353,-0.146Z" fill-rule="nonzero"/><path d="M135.052,32.555c0.207,-0.907 1.02,-1.555 1.95,-1.555l12,0c0.93,-0 1.743,0.648 1.95,1.555l-7.95,4.859l-7.95,-4.859Zm-0.05,1.142l0,7.104l5.803,-3.558l-5.803,-3.546Zm6.761,4.133l-6.57,4.026c0.331,0.698 1.037,1.145 1.809,1.144l6.256,0c-0.17,-0.482 -0.256,-0.989 -0.256,-1.5c-0.001,-1.329 0.587,-2.592 1.606,-3.446l-0.367,-0.225l-1.239,0.757l-1.239,-0.757l0,0.001Zm9.239,-4.133l0,4.974c-0.853,-1.057 -2.141,-1.672 -3.5,-1.671c-0.681,-0.001 -1.352,0.153 -1.965,0.45l-0.338,-0.207l5.803,-3.546Z" fill-rule="nonzero"/><path d="M151.002,41.5c0,1.92 -1.58,3.5 -3.5,3.5c-1.92,0 -3.5,-1.58 -3.5,-3.5c0,-1.92 1.58,-3.5 3.5,-3.5c1.92,0 3.5,1.58 3.5,3.5Zm-3.5,-2c-0.274,0 -0.5,0.226 -0.5,0.5l0,1l-1,0c-0.274,0 -0.5,0.226 -0.5,0.5c0,0.274 0.226,0.5 0.5,0.5l1,0l0,1c0,0.274 0.226,0.5 0.5,0.5c0.274,0 0.5,-0.226 0.5,-0.5l0,-1l1,0c0.274,0 0.5,-0.226 0.5,-0.5c0,-0.274 -0.226,-0.5 -0.5,-0.5l-1,0l0,-1c0,-0.274 -0.226,-0.5 -0.5,-0.5Z" fill-rule="nonzero"/><path d="M119.709,30.395c-0.388,-0.387 -1.026,-0.387 -1.414,0l-6.647,6.646c-0.094,0.094 -0.147,0.222 -0.147,0.354c0,0.275 0.226,0.501 0.501,0.501c0.133,0 0.26,-0.053 0.354,-0.147l6.646,-6.647l6.646,6.647c0.094,0.094 0.221,0.147 0.354,0.147c0.275,0 0.501,-0.226 0.501,-0.501c-0,-0.132 -0.053,-0.26 -0.147,-0.354l-2.354,-2.353l0,-3.293c0,-0.274 -0.226,-0.5 -0.5,-0.5l-1,0c-0.274,0 -0.5,0.226 -0.5,0.5l0,1.293l-2.293,-2.293Z" fill-rule="nonzero"/><path d="M119.002,32.188l6,6l0,4.207c0,0.823 -0.677,1.5 -1.5,1.5l-9,0c-0.823,0 -1.5,-0.677 -1.5,-1.5l0,-4.207l6,-6Z" fill-rule="nonzero"/><path d="M95.002,29c4.389,-0 8,3.611 8,8c0,4.389 -3.611,8 -8,8c-4.389,0 -8,-3.611 -8,-8c0,-4.389 3.611,-8 8,-8Zm-3.5,7.5c-0.274,0 -0.5,0.226 -0.5,0.5c0,0.274 0.226,0.5 0.5,0.5l5.793,0l-2.147,2.146c-0.094,0.094 -0.147,0.221 -0.147,0.354c0,0.275 0.226,0.501 0.501,0.501c0.133,-0 0.26,-0.053 0.354,-0.147l3,-3c0.094,-0.094 0.147,-0.221 0.147,-0.354c0,-0.133 -0.053,-0.26 -0.147,-0.354l-3,-3c-0.094,-0.094 -0.221,-0.147 -0.354,-0.147c-0.275,0 -0.501,0.226 -0.501,0.501c0,0.133 0.053,0.26 0.147,0.354l2.147,2.146l-5.793,0Z" fill-rule="nonzero"/><path d="M71.002,29c-4.389,-0 -8,3.611 -8,8c0,4.389 3.611,8 8,8c4.389,0 8,-3.611 8,-8c0,-4.389 -3.611,-8 -8,-8Zm3.5,7.5c0.274,0 0.5,0.226 0.5,0.5c0,0.274 -0.226,0.5 -0.5,0.5l-5.793,0l2.147,2.146c0.094,0.094 0.147,0.221 0.147,0.354c-0,0.275 -0.226,0.501 -0.501,0.501c-0.133,-0 -0.26,-0.053 -0.354,-0.147l-3,-3c-0.094,-0.094 -0.147,-0.221 -0.147,-0.354c0,-0.133 0.053,-0.26 0.147,-0.354l3,-3c0.094,-0.094 0.221,-0.147 0.354,-0.147c0.275,0 0.501,0.226 0.501,0.501c-0,0.133 -0.053,0.26 -0.147,0.354l-2.147,2.146l5.793,0Z" fill-rule="nonzero"/><path d="M53.502,25.5l-8,-0" fill="none" stroke="#000" stroke-width="1px" stroke-miterlimit="10"/><path d="M53.502,48.5l-8,0" fill="none" stroke="#000" stroke-width="1px" stroke-miterlimit="10"/><path d="M49.502,25.5l0,23" fill="none" stroke="#000" stroke-width="1px"/><path d="M59.502,54.5l0,8" fill="none" stroke="#000" stroke-width="1px" stroke-miterlimit="10"/><path d="M82.502,54.5l0,8" fill="none" stroke="#000" stroke-width="1px" stroke-miterlimit="10"/><path d="M59.502,58.5l23,0" fill="none" stroke="#000" stroke-width="1px"/><path d="M16.873,34.28c-0.036,-1.02 0.469,-2.112 1.657,-2.112c0.901,-0 1.645,0.612 1.645,1.536c-0,1.176 -0.732,1.704 -2.173,2.592c-1.201,0.745 -2.219,1.465 -2.387,3.48l5.554,-0l0,-0.899l-4.368,0c0.204,-1.056 1.321,-1.596 2.389,-2.244c1.057,-0.661 2.063,-1.417 2.063,-2.917c0,-1.584 -1.174,-2.447 -2.663,-2.447c-1.801,0 -2.819,1.283 -2.735,3.011l1.018,0Z" fill-rule="nonzero"/><path d="M27.025,31.269l-0.814,0l-3.876,5.532l-0,0.983l3.732,-0l-0,1.992l0.958,-0l0,-1.992l1.152,-0l0,-0.899l-1.152,0l0,-5.616Zm-3.814,5.616l2.832,-4.164l0.024,0l-0,4.164l-2.856,0Z" fill-rule="nonzero"/><path d="M34.275,36.62c-0,1.213 -0.468,2.401 -1.861,2.401c-1.404,0 -1.957,-1.128 -1.957,-2.353c0,-1.164 0.529,-2.34 1.897,-2.34c1.321,-0 1.921,1.128 1.921,2.292Zm-4.8,5.532l1.018,-0l0,-3.203l0.024,0c0.457,0.731 1.369,0.971 2.005,0.971c1.897,-0 2.831,-1.475 2.831,-3.228c0,-1.752 -0.946,-3.263 -2.855,-3.263c-0.852,0 -1.645,0.3 -1.981,0.983l-0.024,-0l0,-0.839l-1.018,0l-0,8.579Z" fill-rule="nonzero"/><path d="M35.895,39.776l1.236,-0l1.727,-2.578l1.728,2.578l1.307,-0l-2.399,-3.36l2.135,-2.843l-1.223,0l-1.548,2.162l-1.488,-2.162l-1.307,0l2.159,2.939l-2.327,3.264Z" fill-rule="nonzero"/><path d="M59.401,68.072c-0.036,-1.021 0.468,-2.113 1.657,-2.113c0.9,0 1.644,0.612 1.644,1.537c0,1.176 -0.732,1.704 -2.173,2.592c-1.2,0.744 -2.219,1.464 -2.387,3.479l5.555,0l-0,-0.898l-4.368,-0c0.204,-1.056 1.32,-1.597 2.389,-2.245c1.056,-0.66 2.063,-1.416 2.063,-2.916c-0,-1.585 -1.175,-2.447 -2.663,-2.447c-1.801,-0 -2.82,1.282 -2.736,3.011l1.019,-0Z" fill-rule="nonzero"/><path d="M69.553,65.061l-0.815,-0l-3.876,5.532l0,0.982l3.732,0l0,1.992l0.959,0l-0,-1.992l1.152,0l-0,-0.898l-1.152,-0l-0,-5.616Zm-3.815,5.616l2.832,-4.164l0.024,-0l0,4.164l-2.856,-0Z" fill-rule="nonzero"/><path d="M76.802,70.412c0,1.212 -0.468,2.401 -1.86,2.401c-1.405,-0 -1.957,-1.129 -1.957,-2.353c-0,-1.164 0.528,-2.341 1.897,-2.341c1.32,0 1.92,1.129 1.92,2.293Zm-4.8,5.531l1.019,0l-0,-3.202l0.024,-0c0.456,0.731 1.368,0.97 2.005,0.97c1.896,0 2.831,-1.474 2.831,-3.227c-0,-1.753 -0.947,-3.263 -2.855,-3.263c-0.853,-0 -1.645,0.299 -1.981,0.982l-0.024,0l-0,-0.838l-1.019,-0l0,8.578Z" fill-rule="nonzero"/><path d="M78.422,73.567l1.236,0l1.728,-2.577l1.727,2.577l1.308,0l-2.4,-3.36l2.136,-2.842l-1.224,-0l-1.547,2.161l-1.488,-2.161l-1.308,-0l2.16,2.938l-2.328,3.264Z" fill-rule="nonzero"/><path d="M254.141,43.779l4.398,-0l-0,-4.32l2.601,-0c3.28,-0 5.599,-1.619 5.599,-5.079c-0,-2.041 -1.359,-4.879 -5.238,-4.879l-7.36,0l0,14.278Zm4.398,-10.62l1.961,-0c1.081,-0 2.081,0.08 2.081,1.381c0,1.441 -1.2,1.521 -2.341,1.521l-1.701,0l-0,-2.902Z" fill="#1b7024" fill-rule="nonzero"/><path d="M271.46,38.681l1.38,-4.4l0.04,0l1.28,4.4l-2.7,0Zm-6.019,5.098l4.42,-0l0.639,-2.04l4.54,-0l0.6,2.04l4.559,-0l-5.199,-14.278l-4.3,0l-5.259,14.278Z" fill="#1b7024" fill-rule="nonzero"/><path d="M280.281,38.981c0.04,4.558 4.658,5.138 6.279,5.138c3.181,-0 6.599,-1.199 6.599,-4.918c-0,-2.621 -1.999,-3.562 -4.018,-4.122c-2.021,-0.56 -4.062,-0.78 -4.142,-1.8c-0,-0.8 0.98,-0.96 1.581,-0.96c0.44,-0 0.941,0.1 1.301,0.36c0.36,0.24 0.6,0.6 0.52,1.14l4.158,-0c-0.12,-3.478 -2.859,-4.658 -5.959,-4.658c-2.94,0 -5.759,1.419 -5.759,4.718c0,2.881 2.579,3.501 4.838,4.141c2.462,0.7 3.082,0.901 3.082,1.641c0,1.06 -1.1,1.3 -1.821,1.3c-0.82,0 -1.781,-0.18 -2.101,-1.04c-0.1,-0.26 -0.16,-0.58 -0.16,-0.94l-4.398,-0Z" fill="#1b7024" fill-rule="nonzero"/><path d="M293.621,38.981c0.04,4.558 4.658,5.138 6.279,5.138c3.181,-0 6.599,-1.199 6.599,-4.918c-0,-2.621 -1.999,-3.562 -4.018,-4.122c-2.021,-0.56 -4.062,-0.78 -4.142,-1.8c-0,-0.8 0.98,-0.96 1.581,-0.96c0.44,-0 0.941,0.1 1.301,0.36c0.36,0.24 0.6,0.6 0.52,1.14l4.158,-0c-0.12,-3.478 -2.859,-4.658 -5.959,-4.658c-2.94,0 -5.759,1.419 -5.759,4.718c0,2.881 2.579,3.501 4.838,4.141c2.462,0.7 3.082,0.901 3.082,1.641c0,1.06 -1.1,1.3 -1.821,1.3c-0.82,0 -1.781,-0.18 -2.101,-1.04c-0.1,-0.26 -0.16,-0.58 -0.16,-0.94l-4.398,-0Z" fill="#1b7024" fill-rule="nonzero"/><path d="M359.002,26c0,-0 0.332,-0.637 0.613,-1l0.387,0l0,0.011c0,-0.004 0,-0.007 0,-0.011l1,0l0,1l-2,-0Zm0,1l1,-0l0,1l-1,-0l0,-1Zm0,2l1,0l0,1l-1,0l0,-1Zm0,2l1,0l0,1l-1,0l0,-1Zm0,2l1,0l0,1l-1,0l0,-1Zm0,2l1,-0l0,1l-1,-0l0,-1Zm0,2l1,-0l0,1l-1,0l0,-1Zm0,2l1,0l0,1l-1,-0l0,-1Zm0,2l1,0l0,1l-1,0l0,-1Zm0,2l1,-0l0,1l-1,0l0,-1Zm0,2l1,-0l0,1l-1,-0l0,-1Zm0,2l1,-0l0,2l-1,-0l0,-1l0.011,-0c-0.004,-0 -0.007,0 -0.011,0l0,-1Zm2,2l0,-1l1,-0l0,1l-1,-0Zm2,-0l0,-1l1,0l0,1l-1,-0Zm2,-0l0,-1l1,-0l0,1l-1,-0Zm2,-0l0,-1l1,-0l0,1l-1,-0Zm2,-0l0,-1l1,-0l0,1l-1,-0Zm2,-0l0,-1l1,-0l0,1l-1,-0Zm2,-0l0,-1l1,-0l0,1l-1,-0Zm2,-0l0,-1l1,0l0,1l-1,-0Zm2,-0l0,-1l1,0l0,1l-1,-0Zm2,-0l0,-1l1,-0l0,1l-1,-0Zm2,-0l0,-1l2,0l0,1l-1,-0l0,-0.011c0,0.004 0,0.007 0,0.011l-1,-0Zm2,-2l-1,0l0,-1l1,0l0,1Zm0,-2l-1,-0l0,-1l1,-0l0,1Zm0,-2l-1,-0l0,-1l1,-0l0,1Zm0,-2l-1,-0l0,-1l1,-0l0,1Zm0,-2l-1,0l0,-1l1,0l0,1Zm0,-2l-1,0l0,-1l1,-0l0,1Zm0,-2l-1,-0l0,-1l1,0l0,1Zm0,-2l-1,-0l0,-1l1,-0l0,1Zm0,-2l-1,0l0,-1l1,-0l0,1Zm0,-2l-1,0l0,-1l1,0l0,1Zm0,-2l-1,0l0,-2c0,0.943 1,1 1,1l0,1Zm-2,-2l0,1l-1,-0l0,-1l1,0Zm-2,0l0,1l-1,-0l0,-1l1,0Zm-2,0l0,1l-1,-0l0,-1l1,0Zm-2,0l0,1l-1,-0l0,-1l1,0Zm-2,0l0,1l-1,-0l0,-1l1,0Zm-2,0l0,1l-1,-0l0,-1l1,0Zm-2,0l0,1l-1,-0l0,-1l1,0Zm-2,0l0,1l-1,-0l0,-1l1,0Zm-2,0l0,1l-1,0l0,-1l1,0Zm-2,0l0,1l-1,-0l0,-1l1,0Z" fill="#6a6bd3"/><path d="M383.002,26c0,-0 0.332,-0.637 0.613,-1l0.387,0l0,0.011c0,-0.004 0,-0.007 0,-0.011l1,0l0,1l-2,-0Zm0,1l1,-0l0,1l-1,-0l0,-1Zm0,2l1,0l0,1l-1,0l0,-1Zm0,2l1,0l0,1l-1,0l0,-1Zm0,2l1,0l0,1l-1,0l0,-1Zm0,2l1,-0l0,1l-1,-0l0,-1Zm0,2l1,-0l0,1l-1,0l0,-1Zm0,2l1,0l0,1l-1,-0l0,-1Zm0,2l1,0l0,1l-1,0l0,-1Zm0,2l1,-0l0,1l-1,0l0,-1Zm0,2l1,-0l0,1l-1,-0l0,-1Zm0,2l1,-0l0,2l-1,-0l0,-1l0.011,-0c-0.004,-0 -0.007,0 -0.011,0l0,-1Zm2,2l0,-1l1,-0l0,1l-1,-0Zm2,-0l0,-1l1,0l0,1l-1,-0Zm2,-0l0,-1l1,-0l0,1l-1,-0Zm2,-0l0,-1l1,-0l0,1l-1,-0Zm2,-0l0,-1l1,-0l0,1l-1,-0Zm2,-0l0,-1l1,-0l0,1l-1,-0Zm2,-0l0,-1l1,-0l0,1l-1,-0Zm2,-0l0,-1l1,0l0,1l-1,-0Zm2,-0l0,-1l1,0l0,1l-1,-0Zm2,-0l0,-1l1,-0l0,1l-1,-0Zm2,-0l0,-1l2,0l0,1l-1,-0l0,-0.011c0,0.004 0,0.007 0,0.011l-1,-0Zm2,-2l-1,0l0,-1l1,0l0,1Zm0,-2l-1,-0l0,-1l1,-0l0,1Zm0,-2l-1,-0l0,-1l1,-0l0,1Zm0,-2l-1,-0l0,-1l1,-0l0,1Zm0,-2l-1,0l0,-1l1,0l0,1Zm0,-2l-1,0l0,-1l1,-0l0,1Zm0,-2l-1,-0l0,-1l1,0l0,1Zm0,-2l-1,-0l0,-1l1,-0l0,1Zm0,-2l-1,0l0,-1l1,-0l0,1Zm0,-2l-1,0l0,-1l1,0l0,1Zm0,-2l-1,0l0,-2c0,0.943 1,1 1,1l0,1Zm-2,-2l0,1l-1,-0l0,-1l1,0Zm-2,0l0,1l-1,-0l0,-1l1,0Zm-2,0l0,1l-1,-0l0,-1l1,0Zm-2,0l0,1l-1,-0l0,-1l1,0Zm-2,0l0,1l-1,-0l0,-1l1,0Zm-2,0l0,1l-1,-0l0,-1l1,0Zm-2,0l0,1l-1,-0l0,-1l1,0Zm-2,0l0,1l-1,-0l0,-1l1,0Zm-2,0l0,1l-1,0l0,-1l1,0Zm-2,0l0,1l-1,-0l0,-1l1,0Z" fill="#6a6bd3"/><path d="M407.002,26c0,-0 0.332,-0.637 0.613,-1l0.387,0l0,0.011c0,-0.004 0,-0.007 0,-0.011l1,0l0,1l-2,-0Zm0,1l1,-0l0,1l-1,-0l0,-1Zm0,2l1,0l0,1l-1,0l0,-1Zm0,2l1,0l0,1l-1,0l0,-1Zm0,2l1,0l0,1l-1,0l0,-1Zm0,2l1,-0l0,1l-1,-0l0,-1Zm0,2l1,-0l0,1l-1,0l0,-1Zm0,2l1,0l0,1l-1,-0l0,-1Zm0,2l1,0l0,1l-1,0l0,-1Zm0,2l1,-0l0,1l-1,0l0,-1Zm0,2l1,-0l0,1l-1,-0l0,-1Zm0,2l1,-0l0,2l-1,-0l0,-1l0.011,-0c-0.004,-0 -0.007,0 -0.011,0l0,-1Zm2,2l0,-1l1,-0l0,1l-1,-0Zm2,-0l0,-1l1,0l0,1l-1,-0Zm2,-0l0,-1l1,-0l0,1l-1,-0Zm2,-0l0,-1l1,-0l0,1l-1,-0Zm2,-0l0,-1l1,-0l0,1l-1,-0Zm2,-0l0,-1l1,-0l0,1l-1,-0Zm2,-0l0,-1l1,-0l0,1l-1,-0Zm2,-0l0,-1l1,0l0,1l-1,-0Zm2,-0l0,-1l1,0l0,1l-1,-0Zm2,-0l0,-1l1,-0l0,1l-1,-0Zm2,-0l0,-1l2,0l0,1l-1,-0l0,-0.011c0,0.004 0,0.007 0,0.011l-1,-0Zm2,-2l-1,0l0,-1l1,0l0,1Zm0,-2l-1,-0l0,-1l1,-0l0,1Zm0,-2l-1,-0l0,-1l1,-0l0,1Zm0,-2l-1,-0l0,-1l1,-0l0,1Zm0,-2l-1,0l0,-1l1,0l0,1Zm0,-2l-1,0l0,-1l1,-0l0,1Zm0,-2l-1,-0l0,-1l1,0l0,1Zm0,-2l-1,-0l0,-1l1,-0l0,1Zm0,-2l-1,0l0,-1l1,-0l0,1Zm0,-2l-1,0l0,-1l1,0l0,1Zm0,-2l-1,0l0,-2c0,0.943 1,1 1,1l0,1Zm-2,-2l0,1l-1,-0l0,-1l1,0Zm-2,0l0,1l-1,-0l0,-1l1,0Zm-2,0l0,1l-1,-0l0,-1l1,0Zm-2,0l0,1l-1,-0l0,-1l1,0Zm-2,0l0,1l-1,-0l0,-1l1,0Zm-2,0l0,1l-1,-0l0,-1l1,0Zm-2,0l0,1l-1,-0l0,-1l1,0Zm-2,0l0,1l-1,-0l0,-1l1,0Zm-2,0l0,1l-1,0l0,-1l1,0Zm-2,0l0,1l-1,-0l0,-1l1,0Z" fill="#6a6bd3"/><path d="M431.002,26c0,-0 0.332,-0.637 0.613,-1l0.387,0l0,0.011c0,-0.004 0,-0.007 0,-0.011l1,0l0,1l-2,-0Zm0,1l1,-0l0,1l-1,-0l0,-1Zm0,2l1,0l0,1l-1,0l0,-1Zm0,2l1,0l0,1l-1,0l0,-1Zm0,2l1,0l0,1l-1,0l0,-1Zm0,2l1,-0l0,1l-1,-0l0,-1Zm0,2l1,-0l0,1l-1,0l0,-1Zm0,2l1,0l0,1l-1,-0l0,-1Zm0,2l1,0l0,1l-1,0l0,-1Zm0,2l1,-0l0,1l-1,0l0,-1Zm0,2l1,-0l0,1l-1,-0l0,-1Zm0,2l1,-0l0,2l-1,-0l0,-1l0.011,-0c-0.004,-0 -0.007,0 -0.011,0l0,-1Zm2,2l0,-1l1,-0l0,1l-1,-0Zm2,-0l0,-1l1,0l0,1l-1,-0Zm2,-0l0,-1l1,-0l0,1l-1,-0Zm2,-0l0,-1l1,-0l0,1l-1,-0Zm2,-0l0,-1l1,-0l0,1l-1,-0Zm2,-0l0,-1l1,-0l0,1l-1,-0Zm2,-0l0,-1l1,-0l0,1l-1,-0Zm2,-0l0,-1l1,0l0,1l-1,-0Zm2,-0l0,-1l1,0l0,1l-1,-0Zm2,-0l0,-1l1,-0l0,1l-1,-0Zm2,-0l0,-1l2,0l0,1l-1,-0l0,-0.011c0,0.004 0,0.007 0,0.011l-1,-0Zm2,-2l-1,0l0,-1l1,0l0,1Zm0,-2l-1,-0l0,-1l1,-0l0,1Zm0,-2l-1,-0l0,-1l1,-0l0,1Zm0,-2l-1,-0l0,-1l1,-0l0,1Zm0,-2l-1,0l0,-1l1,0l0,1Zm0,-2l-1,0l0,-1l1,-0l0,1Zm0,-2l-1,-0l0,-1l1,0l0,1Zm0,-2l-1,-0l0,-1l1,-0l0,1Zm0,-2l-1,0l0,-1l1,-0l0,1Zm0,-2l-1,0l0,-1l1,0l0,1Zm0,-2l-1,0l0,-2c0,0.943 1,1 1,1l0,1Zm-2,-2l0,1l-1,-0l0,-1l1,0Zm-2,0l0,1l-1,-0l0,-1l1,0Zm-2,0l0,1l-1,-0l0,-1l1,0Zm-2,0l0,1l-1,-0l0,-1l1,0Zm-2,0l0,1l-1,-0l0,-1l1,0Zm-2,0l0,1l-1,-0l0,-1l1,0Zm-2,0l0,1l-1,-0l0,-1l1,0Zm-2,0l0,1l-1,-0l0,-1l1,0Zm-2,0l0,1l-1,0l0,-1l1,0Zm-2,0l0,1l-1,-0l0,-1l1,0Z" fill="#6a6bd3"/><path d="M455.002,26c0,-0 0.332,-0.637 0.613,-1l0.387,0l0,0.011c0,-0.004 0,-0.007 0,-0.011l1,0l0,1l-2,-0Zm0,1l1,-0l0,1l-1,-0l0,-1Zm0,2l1,0l0,1l-1,0l0,-1Zm0,2l1,0l0,1l-1,0l0,-1Zm0,2l1,0l0,1l-1,0l0,-1Zm0,2l1,-0l0,1l-1,-0l0,-1Zm0,2l1,-0l0,1l-1,0l0,-1Zm0,2l1,0l0,1l-1,-0l0,-1Zm0,2l1,0l0,1l-1,0l0,-1Zm0,2l1,-0l0,1l-1,0l0,-1Zm0,2l1,-0l0,1l-1,-0l0,-1Zm0,2l1,-0l0,2l-1,-0l0,-1l0.011,-0c-0.004,-0 -0.007,0 -0.011,0l0,-1Zm2,2l0,-1l1,-0l0,1l-1,-0Zm2,-0l0,-1l1,0l0,1l-1,-0Zm2,-0l0,-1l1,-0l0,1l-1,-0Zm2,-0l0,-1l1,-0l0,1l-1,-0Zm2,-0l0,-1l1,-0l0,1l-1,-0Zm2,-0l0,-1l1,-0l0,1l-1,-0Zm2,-0l0,-1l1,-0l0,1l-1,-0Zm2,-0l0,-1l1,0l0,1l-1,-0Zm2,-0l0,-1l1,0l0,1l-1,-0Zm2,-0l0,-1l1,-0l0,1l-1,-0Zm2,-0l0,-1l2,0l0,1l-0.989,-0l-0.011,-0.011l0,0.011l-1,-0Zm2,-2l-1,0l0,-1l1,0l0,1Zm0,-2l-1,-0l0,-1l1,-0l0,1Zm0,-2l-1,-0l0,-1l1,-0l0,1Zm0,-2l-1,-0l0,-1l1,-0l0,1Zm0,-2l-1,0l0,-1l1,0l0,1Zm0,-2l-1,0l0,-1l1,-0l0,1Zm0,-2l-1,-0l0,-1l1,0l0,1Zm0,-2l-1,-0l0,-1l1,-0l0,1Zm0,-2l-1,0l0,-1l1,-0l0,1Zm0,-2l-1,0l0,-1l1,0l0,1Zm0,-2l-1,0l0,-2c0,0.943 1,1 1,1l0,1Zm-2,-2l0,1l-1,-0l0,-1l1,0Zm-2,0l0,1l-1,-0l0,-1l1,0Zm-2,0l0,1l-1,-0l0,-1l1,0Zm-2,0l0,1l-1,-0l0,-1l1,0Zm-2,0l0,1l-1,-0l0,-1l1,0Zm-2,0l0,1l-1,-0l0,-1l1,0Zm-2,0l0,1l-1,-0l0,-1l1,0Zm-2,0l0,1l-1,-0l0,-1l1,0Zm-2,0l0,1l-1,0l0,-1l1,0Zm-2,0l0,1l-1,-0l0,-1l1,0Z" fill="#6a6bd3"/><path d="M479.002,26c0,-0 0.332,-0.637 0.613,-1l0.387,0l0,0.011c0,-0.004 0,-0.007 0,-0.011l1,0l0,1l-2,-0Zm0,1l1,-0l0,1l-1,-0l0,-1Zm0,2l1,0l0,1l-1,0l0,-1Zm0,2l1,0l0,1l-1,0l0,-1Zm0,2l1,0l0,1l-1,0l0,-1Zm0,2l1,-0l0,1l-1,-0l0,-1Zm0,2l1,-0l0,1l-1,0l0,-1Zm0,2l1,0l0,1l-1,-0l0,-1Zm0,2l1,0l0,1l-1,0l0,-1Zm0,2l1,-0l0,1l-1,0l0,-1Zm0,2l1,-0l0,1l-1,-0l0,-1Zm0,2l1,-0l0,2l-1,-0l0,-1l0.011,-0c-0.004,-0 -0.007,0 -0.011,0l0,-1Zm2,2l0,-1l1,-0l0,1l-1,-0Zm2,-0l0,-1l1,0l0,1l-1,-0Zm2,-0l0,-1l1,-0l0,1l-1,-0Zm2,-0l0,-1l1,-0l0,1l-1,-0Zm2,-0l0,-1l1,-0l0,1l-1,-0Zm2,-0l0,-1l1,-0l0,1l-1,-0Zm2,-0l0,-1l1,-0l0,1l-1,-0Zm2,-0l0,-1l1,0l0,1l-1,-0Zm2,-0l0,-1l1,0l0,1l-1,-0Zm2,-0l0,-1l1,-0l0,1l-1,-0Zm2,-0l0,-1l2,0l0,1l-1,-0l0,-0.011c0,0.004 0,0.007 0,0.011l-1,-0Zm2,-2l-1,0l0,-1l1,0l0,1Zm0,-2l-1,-0l0,-1l1,-0l0,1Zm0,-2l-1,-0l0,-1l1,-0l0,1Zm0,-2l-1,-0l0,-1l1,-0l0,1Zm0,-2l-1,0l0,-1l1,0l0,1Zm0,-2l-1,0l0,-1l1,-0l0,1Zm0,-2l-1,-0l0,-1l1,0l0,1Zm0,-2l-1,-0l0,-1l1,-0l0,1Zm0,-2l-1,0l0,-1l1,-0l0,1Zm0,-2l-1,0l0,-1l1,0l0,1Zm0,-2l-1,0l0,-2c0,0.943 1,1 1,1l0,1Zm-2,-2l0,1l-1,-0l0,-1l1,0Zm-2,0l0,1l-1,-0l0,-1l1,0Zm-2,0l0,1l-1,-0l0,-1l1,0Zm-2,0l0,1l-1,-0l0,-1l1,0Zm-2,0l0,1l-1,-0l0,-1l1,0Zm-2,0l0,1l-1,-0l0,-1l1,0Zm-2,0l0,1l-1,-0l0,-1l1,0Zm-2,0l0,1l-1,-0l0,-1l1,0Zm-2,0l0,1l-1,0l0,-1l1,0Zm-2,0l0,1l-1,-0l0,-1l1,0Z" fill="#6a6bd3"/><path d="M494.002,35c0,1.646 -1.354,3 -3,3c-1.646,-0 -3,-1.354 -3,-3c0,-1.646 1.354,-3 3,-3c1.646,-0 3,1.354 3,3Z" fill-rule="nonzero"/><path d="M483.002,37c0,-4.389 3.611,-8 8,-8c4.389,-0 8,3.611 8,8c0,4.389 -3.611,8 -8,8c-4.389,-0 -8,-3.611 -8,-8Zm8,-7c-3.84,0 -7,3.16 -7,7c0,1.588 0.541,3.13 1.532,4.37c0.71,-1.144 2.273,-2.37 5.468,-2.37c3.195,-0 4.757,1.225 5.468,2.37c0.991,-1.24 1.532,-2.782 1.532,-4.37c-0,-3.84 -3.16,-7 -7,-7Z"/><path d="M468.537,30.016c0.132,-0.001 0.26,0.052 0.354,0.146l4.95,4.95c0.194,0.194 0.194,0.513 -0,0.707c-0.48,0.48 -1.072,0.588 -1.503,0.588c-0.177,-0 -0.335,-0.018 -0.46,-0.039l-3.134,3.134c0.082,0.332 0.136,0.671 0.16,1.013c0.046,0.702 -0.032,1.687 -0.72,2.375c-0.194,0.194 -0.513,0.194 -0.707,-0l-2.829,-2.828l-3.182,3.182c-0.195,0.195 -1.219,0.902 -1.414,0.707c-0.195,-0.195 0.512,-1.22 0.707,-1.414l3.182,-3.182l-2.828,-2.829c-0.194,-0.194 -0.194,-0.513 -0,-0.707c0.688,-0.688 1.673,-0.767 2.375,-0.72c0.341,0.024 0.68,0.077 1.013,0.16l3.134,-3.133c-0.026,-0.153 -0.04,-0.307 -0.04,-0.461c-0,-0.43 0.108,-1.022 0.589,-1.503c0.093,-0.094 0.22,-0.146 0.353,-0.146Z" fill-rule="nonzero"/><path d="M435.052,32.555c0.207,-0.907 1.02,-1.555 1.95,-1.555l12,0c0.93,-0 1.743,0.648 1.95,1.555l-7.95,4.859l-7.95,-4.859Zm-0.05,1.142l0,7.104l5.803,-3.558l-5.803,-3.546Zm6.761,4.133l-6.57,4.026c0.331,0.698 1.037,1.145 1.809,1.144l6.256,0c-0.17,-0.482 -0.256,-0.989 -0.256,-1.5c-0.001,-1.329 0.587,-2.592 1.606,-3.446l-0.367,-0.225l-1.239,0.757l-1.239,-0.757l0,0.001Zm9.239,-4.133l0,4.974c-0.853,-1.057 -2.141,-1.672 -3.5,-1.671c-0.681,-0.001 -1.352,0.153 -1.965,0.45l-0.338,-0.207l5.803,-3.546Z" fill-rule="nonzero"/><path d="M451.002,41.5c0,1.92 -1.58,3.5 -3.5,3.5c-1.92,0 -3.5,-1.58 -3.5,-3.5c0,-1.92 1.58,-3.5 3.5,-3.5c1.92,0 3.5,1.58 3.5,3.5Zm-3.5,-2c-0.274,0 -0.5,0.226 -0.5,0.5l0,1l-1,0c-0.274,0 -0.5,0.226 -0.5,0.5c0,0.274 0.226,0.5 0.5,0.5l1,0l0,1c0,0.274 0.226,0.5 0.5,0.5c0.274,0 0.5,-0.226 0.5,-0.5l0,-1l1,0c0.274,0 0.5,-0.226 0.5,-0.5c0,-0.274 -0.226,-0.5 -0.5,-0.5l-1,0l0,-1c0,-0.274 -0.226,-0.5 -0.5,-0.5Z" fill-rule="nonzero"/><path d="M419.709,30.395c-0.388,-0.387 -1.026,-0.387 -1.414,0l-6.647,6.646c-0.094,0.094 -0.147,0.222 -0.147,0.354c0,0.275 0.226,0.501 0.501,0.501c0.133,0 0.26,-0.053 0.354,-0.147l6.646,-6.647l6.646,6.647c0.094,0.094 0.221,0.147 0.354,0.147c0.275,0 0.501,-0.226 0.501,-0.501c-0,-0.132 -0.053,-0.26 -0.147,-0.354l-2.354,-2.353l0,-3.293c0,-0.274 -0.226,-0.5 -0.5,-0.5l-1,0c-0.274,0 -0.5,0.226 -0.5,0.5l0,1.293l-2.293,-2.293Z" fill-rule="nonzero"/><path d="M419.002,32.188l6,6l0,4.207c0,0.823 -0.677,1.5 -1.5,1.5l-9,0c-0.823,0 -1.5,-0.677 -1.5,-1.5l0,-4.207l6,-6Z" fill-rule="nonzero"/><path d="M395.002,29c4.389,-0 8,3.611 8,8c0,4.389 -3.611,8 -8,8c-4.389,0 -8,-3.611 -8,-8c0,-4.389 3.611,-8 8,-8Zm-3.5,7.5c-0.274,0 -0.5,0.226 -0.5,0.5c0,0.274 0.226,0.5 0.5,0.5l5.793,0l-2.147,2.146c-0.094,0.094 -0.147,0.221 -0.147,0.354c0,0.275 0.226,0.501 0.501,0.501c0.133,-0 0.26,-0.053 0.354,-0.147l3,-3c0.094,-0.094 0.147,-0.221 0.147,-0.354c0,-0.133 -0.053,-0.26 -0.147,-0.354l-3,-3c-0.094,-0.094 -0.221,-0.147 -0.354,-0.147c-0.275,0 -0.501,0.226 -0.501,0.501c0,0.133 0.053,0.26 0.147,0.354l2.147,2.146l-5.793,0Z" fill-rule="nonzero"/><path d="M371.002,29c-4.389,-0 -8,3.611 -8,8c0,4.389 3.611,8 8,8c4.389,0 8,-3.611 8,-8c0,-4.389 -3.611,-8 -8,-8Zm3.5,7.5c0.274,0 0.5,0.226 0.5,0.5c0,0.274 -0.226,0.5 -0.5,0.5l-5.793,0l2.147,2.146c0.094,0.094 0.147,0.221 0.147,0.354c-0,0.275 -0.226,0.501 -0.501,0.501c-0.133,-0 -0.26,-0.053 -0.354,-0.147l-3,-3c-0.094,-0.094 -0.147,-0.221 -0.147,-0.354c0,-0.133 0.053,-0.26 0.147,-0.354l3,-3c0.094,-0.094 0.221,-0.147 0.354,-0.147c0.275,0 0.501,0.226 0.501,0.501c-0,0.133 -0.053,0.26 -0.147,0.354l-2.147,2.146l5.793,0Z" fill-rule="nonzero"/><path d="M359.502,54.5l0,8" fill="none" stroke="#000" stroke-width="1px" stroke-miterlimit="10"/><path d="M382.502,54.5l0,8" fill="none" stroke="#000" stroke-width="1px" stroke-miterlimit="10"/><path d="M359.502,58.5l23,0" fill="none" stroke="#000" stroke-width="1px"/><path d="M359.401,68.072c-0.036,-1.021 0.468,-2.113 1.657,-2.113c0.9,0 1.644,0.612 1.644,1.537c0,1.176 -0.732,1.704 -2.173,2.592c-1.2,0.744 -2.219,1.464 -2.387,3.479l5.555,0l-0,-0.898l-4.368,-0c0.204,-1.056 1.32,-1.597 2.389,-2.245c1.056,-0.66 2.063,-1.416 2.063,-2.916c-0,-1.585 -1.175,-2.447 -2.663,-2.447c-1.801,-0 -2.82,1.282 -2.736,3.011l1.019,-0Z" fill-rule="nonzero"/><path d="M369.553,65.061l-0.815,-0l-3.876,5.532l0,0.982l3.732,0l0,1.992l0.959,0l-0,-1.992l1.152,0l-0,-0.898l-1.152,-0l-0,-5.616Zm-3.815,5.616l2.832,-4.164l0.024,-0l0,4.164l-2.856,-0Z" fill-rule="nonzero"/><path d="M376.802,70.412c0,1.212 -0.468,2.401 -1.86,2.401c-1.405,-0 -1.957,-1.129 -1.957,-2.353c-0,-1.164 0.528,-2.341 1.897,-2.341c1.32,0 1.92,1.129 1.92,2.293Zm-4.8,5.531l1.019,0l-0,-3.202l0.024,-0c0.456,0.731 1.368,0.97 2.005,0.97c1.896,0 2.831,-1.474 2.831,-3.227c-0,-1.753 -0.947,-3.263 -2.855,-3.263c-0.853,-0 -1.645,0.299 -1.981,0.982l-0.024,0l-0,-0.838l-1.019,-0l0,8.578Z" fill-rule="nonzero"/><path d="M378.422,73.567l1.236,0l1.728,-2.577l1.727,2.577l1.308,0l-2.4,-3.36l2.136,-2.842l-1.224,-0l-1.547,2.161l-1.488,-2.161l-1.308,-0l2.16,2.938l-2.328,3.264Z" fill-rule="nonzero"/><circle cx="371.002" cy="37" r="12" fill="#00ff41" fill-opacity=".2"/><path d="M371.002,25c6.623,0 12,5.377 12,12c0,6.623 -5.377,12 -12,12c-6.623,0 -12,-5.377 -12,-12c0,-6.623 5.377,-12 12,-12Zm0,1c-6.071,0 -11,4.929 -11,11c0,6.071 4.929,11 11,11c6.071,0 11,-4.929 11,-11c0,-6.071 -4.929,-11 -11,-11Z" fill="#1b7024"/><circle cx="395.002" cy="37" r="12" fill="#00ff41" fill-opacity=".2"/><path d="M395.002,25c6.623,0 12,5.377 12,12c0,6.623 -5.377,12 -12,12c-6.623,0 -12,-5.377 -12,-12c0,-6.623 5.377,-12 12,-12Zm0,1c-6.071,0 -11,4.929 -11,11c0,6.071 4.929,11 11,11c6.071,0 11,-4.929 11,-11c0,-6.071 -4.929,-11 -11,-11Z" fill="#1b7024"/><circle cx="419.002" cy="37" r="12" fill="#00ff41" fill-opacity=".2"/><path d="M419.002,25c6.623,0 12,5.377 12,12c0,6.623 -5.377,12 -12,12c-6.623,0 -12,-5.377 -12,-12c0,-6.623 5.377,-12 12,-12Zm0,1c-6.071,0 -11,4.929 -11,11c0,6.071 4.929,11 11,11c6.071,0 11,-4.929 11,-11c0,-6.071 -4.929,-11 -11,-11Z" fill="#1b7024"/><circle cx="443.002" cy="37" r="12" fill="#00ff41" fill-opacity=".2"/><path d="M443.002,25c6.623,0 12,5.377 12,12c0,6.623 -5.377,12 -12,12c-6.623,0 -12,-5.377 -12,-12c0,-6.623 5.377,-12 12,-12Zm0,1c-6.071,0 -11,4.929 -11,11c0,6.071 4.929,11 11,11c6.071,0 11,-4.929 11,-11c0,-6.071 -4.929,-11 -11,-11Z" fill="#1b7024"/><circle cx="467.002" cy="37" r="12" fill="#00ff41" fill-opacity=".2"/><path d="M467.002,25c6.623,0 12,5.377 12,12c0,6.623 -5.377,12 -12,12c-6.623,0 -12,-5.377 -12,-12c0,-6.623 5.377,-12 12,-12Zm0,1c-6.071,0 -11,4.929 -11,11c0,6.071 4.929,11 11,11c6.071,0 11,-4.929 11,-11c0,-6.071 -4.929,-11 -11,-11Z" fill="#1b7024"/><circle cx="491.002" cy="37" r="12" fill="#00ff41" fill-opacity=".2"/><path d="M491.002,25c6.623,0 12,5.377 12,12c0,6.623 -5.377,12 -12,12c-6.623,0 -12,-5.377 -12,-12c0,-6.623 5.377,-12 12,-12Zm0,1c-6.071,0 -11,4.929 -11,11c0,6.071 4.929,11 11,11c6.071,0 11,-4.929 11,-11c0,-6.071 -4.929,-11 -11,-11Z" fill="#1b7024"/><path d="M59,111c0,-0 0.332,-0.638 0.613,-1l0.387,-0l0,0.011c0,-0.004 -0,-0.008 -0,-0.011l1,-0l0,1l-2,-0Zm0,1l1,-0l0,1l-1,-0l0,-1Zm0,2l1,-0l0,1l-1,-0l0,-1Zm0,2l1,-0l0,1l-1,-0l0,-1Zm0,2l1,-0l0,1l-1,-0l0,-1Zm0,2l1,-0l0,1l-1,-0l0,-1Zm0,2l1,-0l0,1l-1,-0l0,-1Zm0,2l1,-0l0,1l-1,-0l0,-1Zm0,2l1,-0l0,1l-1,-0l0,-1Zm0,2l1,-0l-0,2l-1,-0l0,-1l0.011,-0c-0.004,-0 -0.007,-0 -0.011,-0l0,-1Zm2,2l0,-1l1,-0l0,1l-1,-0Zm2,-0l-0,-1l1,-0l-0,1l-1,-0Zm2,-0l-0,-1l1,-0l-0,1l-1,-0Zm2,-0l-0,-1l1,-0l-0,1l-1,-0Zm2,-0l-0,-1l1,-0l-0,1l-1,-0Zm2,-0l-0,-1l1,-0l-0,1l-1,-0Zm2,-0l0,-1l1,-0l-0,1l-1,-0Zm2,-0l-0,-1l1,-0l-0,1l-1,-0Zm2,-0l-0,-1l2,-0l0,1l-1,-0l-0,-0.011c-0,0.003 0,0.007 0,0.011l-1,-0Zm2,-2l-1,-0l0,-1l1,-0l0,1Zm0,-2l-1,-0l0,-1l1,-0l0,1Zm0,-2l-1,-0l0,-1l1,-0l0,1Zm0,-2l-1,-0l0,-1l1,-0l0,1Zm0,-2l-1,-0l0,-1l1,-0l0,1Zm0,-2l-1,-0l0,-1l1,-0l0,1Zm0,-2l-1,-0l0,-1l1,-0l0,1Zm0,-2l-1,-0l0,-1l1,-0l0,1Zm0,-2l-1,-0l0,-2c0,0.942 1,1 1,1l0,1Zm-2,-2l-0,1l-1,-0l-0,-1l1,-0Zm-2,-0l0,1l-1,-0l0,-1l1,-0Zm-2,-0l0,1l-1,-0l0,-1l1,-0Zm-2,-0l0,1l-1,-0l0,-1l1,-0Zm-2,-0l0,1l-1,-0l0,-1l1,-0Zm-2,-0l0,1l-1,-0l0,-1l1,-0Zm-2,-0l-0,1l-1,-0l0,-1l1,-0Zm-2,-0l0,1l-1,-0l0,-1l1,-0Z" fill="#6a6bd3"/><path d="M83,111c0,-0 0.332,-0.638 0.613,-1l0.387,-0l0,0.011c0,-0.004 -0,-0.008 -0,-0.011l1,-0l0,1l-2,-0Zm0,1l1,-0l0,1l-1,-0l0,-1Zm0,2l1,-0l0,1l-1,-0l0,-1Zm0,2l1,-0l0,1l-1,-0l0,-1Zm0,2l1,-0l0,1l-1,-0l0,-1Zm0,2l1,-0l0,1l-1,-0l0,-1Zm0,2l1,-0l0,1l-1,-0l0,-1Zm0,2l1,-0l0,1l-1,-0l0,-1Zm0,2l1,-0l0,1l-1,-0l0,-1Zm0,2l1,-0l-0,2l-1,-0l0,-1l0.011,-0c-0.004,-0 -0.007,-0 -0.011,-0l0,-1Zm2,2l0,-1l1,-0l0,1l-1,-0Zm2,-0l-0,-1l1,-0l-0,1l-1,-0Zm2,-0l-0,-1l1,-0l-0,1l-1,-0Zm2,-0l-0,-1l1,-0l-0,1l-1,-0Zm2,-0l-0,-1l1,-0l-0,1l-1,-0Zm2,-0l-0,-1l1,-0l-0,1l-1,-0Zm2,-0l0,-1l1,-0l-0,1l-1,-0Zm2,-0l-0,-1l1,-0l-0,1l-1,-0Zm2,-0l-0,-1l2,-0l0,1l-1,-0l-0,-0.011c-0,0.003 0,0.007 0,0.011l-1,-0Zm2,-2l-1,-0l0,-1l1,-0l0,1Zm0,-2l-1,-0l0,-1l1,-0l0,1Zm0,-2l-1,-0l0,-1l1,-0l0,1Zm0,-2l-1,-0l0,-1l1,-0l0,1Zm0,-2l-1,-0l0,-1l1,-0l0,1Zm0,-2l-1,-0l0,-1l1,-0l0,1Zm0,-2l-1,-0l0,-1l1,-0l0,1Zm0,-2l-1,-0l0,-1l1,-0l0,1Zm0,-2l-1,-0l0,-2c0,0.942 1,1 1,1l0,1Zm-2,-2l-0,1l-1,-0l-0,-1l1,-0Zm-2,-0l0,1l-1,-0l0,-1l1,-0Zm-2,-0l0,1l-1,-0l0,-1l1,-0Zm-2,-0l0,1l-1,-0l0,-1l1,-0Zm-2,-0l0,1l-1,-0l0,-1l1,-0Zm-2,-0l0,1l-1,-0l0,-1l1,-0Zm-2,-0l-0,1l-1,-0l0,-1l1,-0Zm-2,-0l0,1l-1,-0l0,-1l1,-0Z" fill="#6a6bd3"/><path d="M107,111c0,-0 0.332,-0.638 0.613,-1l0.387,-0l0,0.011c0,-0.004 -0,-0.008 -0,-0.011l1,-0l0,1l-2,-0Zm0,1l1,-0l0,1l-1,-0l0,-1Zm0,2l1,-0l0,1l-1,-0l0,-1Zm0,2l1,-0l0,1l-1,-0l0,-1Zm0,2l1,-0l0,1l-1,-0l0,-1Zm0,2l1,-0l0,1l-1,-0l0,-1Zm0,2l1,-0l0,1l-1,-0l0,-1Zm0,2l1,-0l0,1l-1,-0l0,-1Zm0,2l1,-0l0,1l-1,-0l0,-1Zm0,2l1,-0l-0,2l-1,-0l0,-1l0.011,-0c-0.004,-0 -0.007,-0 -0.011,-0l0,-1Zm2,2l0,-1l1,-0l0,1l-1,-0Zm2,-0l-0,-1l1,-0l-0,1l-1,-0Zm2,-0l-0,-1l1,-0l-0,1l-1,-0Zm2,-0l-0,-1l1,-0l-0,1l-1,-0Zm2,-0l-0,-1l1,-0l-0,1l-1,-0Zm2,-0l-0,-1l1,-0l-0,1l-1,-0Zm2,-0l0,-1l1,-0l-0,1l-1,-0Zm2,-0l-0,-1l1,-0l-0,1l-1,-0Zm2,-0l-0,-1l2,-0l0,1l-1,-0l-0,-0.011c-0,0.003 0,0.007 0,0.011l-1,-0Zm2,-2l-1,-0l0,-1l1,-0l0,1Zm0,-2l-1,-0l0,-1l1,-0l0,1Zm0,-2l-1,-0l0,-1l1,-0l0,1Zm0,-2l-1,-0l0,-1l1,-0l0,1Zm0,-2l-1,-0l0,-1l1,-0l0,1Zm0,-2l-1,-0l0,-1l1,-0l0,1Zm0,-2l-1,-0l0,-1l1,-0l0,1Zm0,-2l-1,-0l0,-1l1,-0l0,1Zm0,-2l-1,-0l0,-2c0,0.942 1,1 1,1l0,1Zm-2,-2l-0,1l-1,-0l-0,-1l1,-0Zm-2,-0l0,1l-1,-0l0,-1l1,-0Zm-2,-0l0,1l-1,-0l0,-1l1,-0Zm-2,-0l0,1l-1,-0l0,-1l1,-0Zm-2,-0l0,1l-1,-0l0,-1l1,-0Zm-2,-0l0,1l-1,-0l0,-1l1,-0Zm-2,-0l-0,1l-1,-0l0,-1l1,-0Zm-2,-0l0,1l-1,-0l0,-1l1,-0Z" fill="#6a6bd3"/><path d="M131,111c0,-0 0.332,-0.638 0.613,-1l0.387,-0l0,0.011c0,-0.004 -0,-0.008 -0,-0.011l1,-0l0,1l-2,-0Zm0,1l1,-0l0,1l-1,-0l0,-1Zm0,2l1,-0l0,1l-1,-0l0,-1Zm0,2l1,-0l0,1l-1,-0l0,-1Zm0,2l1,-0l0,1l-1,-0l0,-1Zm0,2l1,-0l0,1l-1,-0l0,-1Zm0,2l1,-0l0,1l-1,-0l0,-1Zm0,2l1,-0l0,1l-1,-0l0,-1Zm0,2l1,-0l0,1l-1,-0l0,-1Zm0,2l1,-0l-0,2l-1,-0l0,-1l0.011,-0c-0.004,-0 -0.007,-0 -0.011,-0l0,-1Zm2,2l0,-1l1,-0l0,1l-1,-0Zm2,-0l-0,-1l1,-0l-0,1l-1,-0Zm2,-0l-0,-1l1,-0l-0,1l-1,-0Zm2,-0l-0,-1l1,-0l-0,1l-1,-0Zm2,-0l-0,-1l1,-0l-0,1l-1,-0Zm2,-0l-0,-1l1,-0l-0,1l-1,-0Zm2,-0l0,-1l1,-0l-0,1l-1,-0Zm2,-0l-0,-1l1,-0l-0,1l-1,-0Zm2,-0l-0,-1l2,-0l0,1l-1,-0l-0,-0.011c-0,0.003 0,0.007 0,0.011l-1,-0Zm2,-2l-1,-0l0,-1l1,-0l0,1Zm0,-2l-1,-0l0,-1l1,-0l0,1Zm0,-2l-1,-0l0,-1l1,-0l0,1Zm0,-2l-1,-0l0,-1l1,-0l0,1Zm0,-2l-1,-0l0,-1l1,-0l0,1Zm0,-2l-1,-0l0,-1l1,-0l0,1Zm0,-2l-1,-0l0,-1l1,-0l0,1Zm0,-2l-1,-0l0,-1l1,-0l0,1Zm0,-2l-1,-0l0,-2c0,0.942 1,1 1,1l0,1Zm-2,-2l-0,1l-1,-0l-0,-1l1,-0Zm-2,-0l0,1l-1,-0l0,-1l1,-0Zm-2,-0l0,1l-1,-0l0,-1l1,-0Zm-2,-0l0,1l-1,-0l0,-1l1,-0Zm-2,-0l0,1l-1,-0l0,-1l1,-0Zm-2,-0l0,1l-1,-0l0,-1l1,-0Zm-2,-0l-0,1l-1,-0l0,-1l1,-0Zm-2,-0l0,1l-1,-0l0,-1l1,-0Z" fill="#6a6bd3"/><path d="M155,111c0,-0 0.332,-0.638 0.613,-1l0.387,-0l0,0.011c0,-0.004 -0,-0.008 -0,-0.011l1,-0l0,1l-2,-0Zm0,1l1,-0l0,1l-1,-0l0,-1Zm0,2l1,-0l0,1l-1,-0l0,-1Zm0,2l1,-0l0,1l-1,-0l0,-1Zm0,2l1,-0l-0,1l-1,-0l0,-1Zm0,2l1,-0l0,1l-1,-0l0,-1Zm0,2l1,-0l0,1l-1,-0l0,-1Zm0,2l1,-0l0,1l-1,-0l0,-1Zm0,2l1,-0l0,1l-1,-0l0,-1Zm0,2l1,-0l-0,2l-1,-0l0,-1l0.011,-0c-0.004,-0 -0.007,-0 -0.011,-0l0,-1Zm2,2l0,-1l1,-0l0,1l-1,-0Zm2,-0l-0,-1l1,-0l-0,1l-1,-0Zm2,-0l-0,-1l1,-0l-0,1l-1,-0Zm2,-0l-0,-1l1,-0l-0,1l-1,-0Zm2,-0l-0,-1l1,-0l-0,1l-1,-0Zm2,-0l-0,-1l1,-0l-0,1l-1,-0Zm2,-0l0,-1l1,-0l-0,1l-1,-0Zm2,-0l-0,-1l1,-0l-0,1l-1,-0Zm2,-0l-0,-1l2,-0l-0,1l-1,-0l-0,-0.011c-0,0.003 0,0.007 0,0.011l-1,-0Zm2,-2l-1,-0l-0,-1l1,-0l-0,1Zm-0,-2l-1,-0l-0,-1l1,-0l-0,1Zm-0,-2l-1,-0l-0,-1l1,-0l-0,1Zm-0,-2l-1,-0l-0,-1l1,-0l-0,1Zm-0,-2l-1,-0l0,-1l1,-0l-0,1Zm-0,-2l-1,-0l0,-1l1,-0l-0,1Zm-0,-2l-1,-0l-0,-1l1,-0l-0,1Zm-0,-2l-1,-0l0,-1l1,-0l-0,1Zm-0,-2l-1,-0l0,-2c0,0.942 1,1 1,1l-0,1Zm-2,-2l-0,1l-1,-0l-0,-1l1,-0Zm-2,-0l0,1l-1,-0l0,-1l1,-0Zm-2,-0l0,1l-1,-0l0,-1l1,-0Zm-2,-0l0,1l-1,-0l0,-1l1,-0Zm-2,-0l0,1l-1,-0l0,-1l1,-0Zm-2,-0l0,1l-1,-0l0,-1l1,-0Zm-2,-0l-0,1l-1,-0l0,-1l1,-0Zm-2,-0l0,1l-1,-0l0,-1l1,-0Z" fill="#6a6bd3"/><path d="M179,111c0,-0 0.332,-0.638 0.613,-1l0.387,-0l0,0.011c0,-0.004 -0,-0.008 -0,-0.011l1,-0l0,1l-2,-0Zm0,1l1,-0l0,1l-1,-0l0,-1Zm0,2l1,-0l0,1l-1,-0l0,-1Zm0,2l1,-0l0,1l-1,-0l0,-1Zm0,2l1,-0l0,1l-1,-0l0,-1Zm0,2l1,-0l0,1l-1,-0l0,-1Zm0,2l1,-0l0,1l-1,-0l0,-1Zm0,2l1,-0l0,1l-1,-0l0,-1Zm0,2l1,-0l0,1l-1,-0l0,-1Zm0,2l1,-0l-0,2l-1,-0l0,-1l0.011,-0c-0.004,-0 -0.007,-0 -0.011,-0l0,-1Zm2,2l0,-1l1,-0l0,1l-1,-0Zm2,-0l-0,-1l1,-0l-0,1l-1,-0Zm2,-0l-0,-1l1,-0l-0,1l-1,-0Zm2,-0l-0,-1l1,-0l-0,1l-1,-0Zm2,-0l-0,-1l1,-0l-0,1l-1,-0Zm2,-0l-0,-1l1,-0l-0,1l-1,-0Zm2,-0l0,-1l1,-0l-0,1l-1,-0Zm2,-0l-0,-1l1,-0l-0,1l-1,-0Zm2,-0l-0,-1l2,-0l-0,1l-1,-0l-0,-0.011c-0,0.003 0,0.007 0,0.011l-1,-0Zm2,-2l-1,-0l0,-1l1,-0l-0,1Zm-0,-2l-1,-0l-0,-1l1,-0l-0,1Zm-0,-2l-1,-0l-0,-1l1,-0l-0,1Zm-0,-2l-1,-0l-0,-1l1,-0l-0,1Zm-0,-2l-1,-0l0,-1l1,-0l-0,1Zm-0,-2l-1,-0l0,-1l1,-0l-0,1Zm-0,-2l-1,-0l0,-1l1,-0l-0,1Zm-0,-2l-1,-0l0,-1l1,-0l-0,1Zm-0,-2l-1,-0l0,-2c0,0.942 1,1 1,1l-0,1Zm-2,-2l-0,1l-1,-0l-0,-1l1,-0Zm-2,-0l0,1l-1,-0l0,-1l1,-0Zm-2,-0l0,1l-1,-0l0,-1l1,-0Zm-2,-0l0,1l-1,-0l0,-1l1,-0Zm-2,-0l0,1l-1,-0l0,-1l1,-0Zm-2,-0l0,1l-1,-0l0,-1l1,-0Zm-2,-0l-0,1l-1,-0l0,-1l1,-0Zm-2,-0l0,1l-1,-0l0,-1l1,-0Z" fill="#6a6bd3"/><path d="M192,118c-0,1.645 -1.354,3 -3,3c-1.646,-0 -3,-1.355 -3,-3c-0,-1.646 1.354,-3 3,-3c1.646,-0 3,1.354 3,3Z" fill-rule="nonzero"/><path d="M181,120c-0,-4.389 3.611,-8 8,-8c4.389,-0 8,3.611 8,8c-0,4.388 -3.611,8 -8,8c-4.389,-0 -8,-3.612 -8,-8Zm8,-7c-3.84,-0 -7,3.16 -7,7c0,1.588 0.541,3.129 1.532,4.37c0.71,-1.144 2.273,-2.37 5.468,-2.37c3.195,-0 4.757,1.225 5.468,2.37c0.991,-1.241 1.532,-2.782 1.532,-4.37c-0,-3.84 -3.16,-7 -7,-7Z"/><path d="M166.535,113.015c0.132,0 0.26,0.053 0.354,0.146l4.95,4.95c0.194,0.194 0.194,0.513 -0,0.707c-0.48,0.48 -1.072,0.588 -1.503,0.588c-0.177,0 -0.335,-0.018 -0.46,-0.039l-3.134,3.134c0.082,0.333 0.136,0.672 0.16,1.013c0.046,0.702 -0.032,1.687 -0.72,2.375c-0.194,0.194 -0.513,0.194 -0.707,0l-2.829,-2.828l-3.182,3.182c-0.195,0.195 -1.219,0.902 -1.414,0.707c-0.195,-0.195 0.512,-1.22 0.707,-1.414l3.182,-3.182l-2.828,-2.829c-0.194,-0.194 -0.194,-0.513 -0,-0.707c0.688,-0.688 1.673,-0.767 2.375,-0.72c0.341,0.024 0.68,0.078 1.013,0.16l3.134,-3.133c-0.027,-0.152 -0.04,-0.306 -0.04,-0.461c-0,-0.43 0.108,-1.022 0.589,-1.503c0.093,-0.093 0.22,-0.146 0.353,-0.146Z" fill-rule="nonzero"/><path d="M133.05,115.555c0.207,-0.907 1.02,-1.555 1.95,-1.555l12,-0c0.93,-0 1.743,0.648 1.95,1.555l-7.95,4.859l-7.95,-4.859Zm-0.05,1.142l-0,7.104l5.803,-3.558l-5.803,-3.546Zm6.761,4.133l-6.57,4.026c0.33,0.697 1.037,1.144 1.809,1.144l6.256,-0c-0.17,-0.482 -0.257,-0.989 -0.256,-1.5c-0.001,-1.329 0.587,-2.593 1.606,-3.446l-0.367,-0.225l-1.239,0.757l-1.239,-0.757l-0,0.001Zm9.239,-4.133l-0,4.974c-0.853,-1.058 -2.141,-1.673 -3.5,-1.671c-0.681,-0.001 -1.353,0.153 -1.965,0.45l-0.338,-0.207l5.803,-3.546Z" fill-rule="nonzero"/><path d="M149,124.5c-0,1.92 -1.58,3.5 -3.5,3.5c-1.92,-0 -3.5,-1.58 -3.5,-3.5c-0,-1.92 1.58,-3.5 3.5,-3.5c1.92,-0 3.5,1.58 3.5,3.5Zm-3.5,-2c-0.274,-0 -0.5,0.225 -0.5,0.5l-0,1l-1,-0c-0.274,-0 -0.5,0.225 -0.5,0.5c-0,0.274 0.226,0.5 0.5,0.5l1,-0l-0,1c-0,0.274 0.226,0.5 0.5,0.5c0.274,-0 0.5,-0.226 0.5,-0.5l-0,-1l1,-0c0.274,-0 0.5,-0.226 0.5,-0.5c-0,-0.275 -0.226,-0.5 -0.5,-0.5l-1,-0l-0,-1c-0,-0.275 -0.226,-0.5 -0.5,-0.5Z" fill-rule="nonzero"/><path d="M117.707,113.395c-0.388,-0.388 -1.026,-0.388 -1.414,0l-6.647,6.646c-0.094,0.094 -0.147,0.221 -0.147,0.354c0,0.275 0.226,0.501 0.501,0.501c0.133,-0 0.26,-0.053 0.354,-0.147l6.646,-6.647l6.646,6.647c0.094,0.094 0.221,0.147 0.354,0.147c0.275,-0 0.501,-0.226 0.501,-0.501c-0,-0.133 -0.053,-0.26 -0.147,-0.354l-2.354,-2.353l-0,-3.293c-0,-0.274 -0.226,-0.5 -0.5,-0.5l-1,0c-0.274,0 -0.5,0.226 -0.5,0.5l-0,1.293l-2.293,-2.293Z" fill-rule="nonzero"/><path d="M117,115.188l6,6l-0,4.207c-0,0.823 -0.677,1.5 -1.5,1.5l-9,0c-0.823,0 -1.5,-0.677 -1.5,-1.5l-0,-4.207l6,-6Z" fill-rule="nonzero"/><path d="M93,112c4.389,-0 8,3.611 8,8c0,4.388 -3.611,8 -8,8c-4.389,-0 -8,-3.612 -8,-8c0,-4.389 3.611,-8 8,-8Zm-3.5,7.5c-0.274,-0 -0.5,0.225 -0.5,0.5c0,0.274 0.226,0.5 0.5,0.5l5.793,-0l-2.147,2.146c-0.094,0.093 -0.147,0.221 -0.147,0.354c0,0.274 0.226,0.5 0.501,0.5c0.133,0 0.26,-0.053 0.354,-0.146l3,-3c0.094,-0.094 0.147,-0.222 0.147,-0.354c-0,-0.133 -0.053,-0.261 -0.147,-0.354l-3,-3c-0.094,-0.094 -0.221,-0.147 -0.354,-0.147c-0.275,-0 -0.501,0.226 -0.501,0.501c0,0.132 0.053,0.26 0.147,0.354l2.147,2.146l-5.793,-0Z" fill-rule="nonzero"/><path d="M69,112c-4.389,-0 -8,3.611 -8,8c0,4.388 3.611,8 8,8c4.389,-0 8,-3.612 8,-8c0,-4.389 -3.611,-8 -8,-8Zm3.5,7.5c0.274,-0 0.5,0.225 0.5,0.5c0,0.274 -0.226,0.5 -0.5,0.5l-5.793,-0l2.147,2.146c0.094,0.093 0.147,0.221 0.147,0.354c-0,0.274 -0.226,0.5 -0.501,0.5c-0.133,0 -0.26,-0.053 -0.354,-0.146l-3,-3c-0.094,-0.094 -0.147,-0.222 -0.147,-0.354c0,-0.133 0.053,-0.261 0.147,-0.354l3,-3c0.094,-0.094 0.221,-0.147 0.354,-0.147c0.275,-0 0.501,0.226 0.501,0.501c-0,0.132 -0.053,0.26 -0.147,0.354l-2.147,2.146l5.793,-0Z" fill-rule="nonzero"/><path d="M53.5,110.5l-8,-0" fill="none" stroke="#000" stroke-width="1px" stroke-miterlimit="10"/><path d="M53.5,129.5l-8,-0" fill="none" stroke="#000" stroke-width="1px" stroke-miterlimit="10"/><path d="M49.5,110.5l0,19" fill="none" stroke="#000" stroke-width="1px"/><path d="M59.5,135.5l0,8" fill="none" stroke="#000" stroke-width="1px" stroke-miterlimit="10"/><path d="M78.5,135.5l0,8" fill="none" stroke="#000" stroke-width="1px" stroke-miterlimit="10"/><path d="M59.5,139.5l19,-0" fill="none" stroke="#000" stroke-width="1px"/><path d="M16.871,117.28c-0.036,-1.02 0.468,-2.112 1.657,-2.112c0.9,-0 1.645,0.612 1.645,1.536c-0,1.176 -0.733,1.704 -2.173,2.592c-1.201,0.745 -2.219,1.465 -2.387,3.48l5.554,-0l0,-0.899l-4.368,0c0.204,-1.056 1.321,-1.596 2.389,-2.244c1.057,-0.661 2.063,-1.417 2.063,-2.917c0,-1.584 -1.174,-2.447 -2.663,-2.447c-1.801,0 -2.819,1.283 -2.735,3.011l1.018,0Z" fill-rule="nonzero"/><path d="M22.501,118.6c-0,1.873 0.168,4.32 2.831,4.32c2.663,-0 2.831,-2.447 2.831,-4.32c0,-1.884 -0.168,-4.331 -2.831,-4.331c-2.663,0 -2.831,2.447 -2.831,4.331Zm1.078,-0.012c0,-1.26 0.012,-3.42 1.753,-3.42c1.741,-0 1.753,2.16 1.753,3.42c-0,1.273 -0.012,3.433 -1.753,3.433c-1.741,0 -1.753,-2.16 -1.753,-3.433Z" fill-rule="nonzero"/><path d="M34.273,119.62c-0,1.213 -0.468,2.401 -1.861,2.401c-1.405,0 -1.957,-1.128 -1.957,-2.353c0,-1.164 0.528,-2.34 1.897,-2.34c1.321,-0 1.921,1.128 1.921,2.292Zm-4.8,5.532l1.018,-0l0,-3.203l0.024,0c0.456,0.731 1.369,0.971 2.005,0.971c1.897,-0 2.831,-1.475 2.831,-3.228c0,-1.752 -0.946,-3.263 -2.855,-3.263c-0.852,0 -1.645,0.3 -1.981,0.983l-0.024,-0l0,-0.839l-1.018,0l-0,8.579Z" fill-rule="nonzero"/><path d="M35.893,122.776l1.235,-0l1.728,-2.578l1.728,2.578l1.307,-0l-2.399,-3.36l2.135,-2.843l-1.223,0l-1.548,2.162l-1.488,-2.162l-1.307,0l2.159,2.939l-2.327,3.264Z" fill-rule="nonzero"/><path d="M57.277,149.072c-0.036,-1.021 0.469,-2.113 1.657,-2.113c0.901,0 1.645,0.612 1.645,1.537c-0,1.176 -0.732,1.704 -2.173,2.592c-1.201,0.744 -2.219,1.464 -2.387,3.479l5.554,0l0,-0.898l-4.368,-0c0.204,-1.056 1.321,-1.597 2.389,-2.245c1.057,-0.66 2.063,-1.416 2.063,-2.916c0,-1.585 -1.174,-2.447 -2.663,-2.447c-1.801,-0 -2.819,1.282 -2.735,3.011l1.018,-0Z" fill-rule="nonzero"/><path d="M62.907,150.392c-0,1.872 0.168,4.319 2.831,4.319c2.664,0 2.831,-2.447 2.831,-4.319c0,-1.884 -0.167,-4.331 -2.831,-4.331c-2.663,-0 -2.831,2.447 -2.831,4.331Zm1.078,-0.012c0,-1.26 0.012,-3.421 1.753,-3.421c1.741,0 1.753,2.161 1.753,3.421c-0,1.272 -0.012,3.433 -1.753,3.433c-1.741,-0 -1.753,-2.161 -1.753,-3.433Z" fill-rule="nonzero"/><path d="M74.679,151.412c-0,1.212 -0.468,2.401 -1.861,2.401c-1.404,-0 -1.957,-1.129 -1.957,-2.353c0,-1.164 0.529,-2.341 1.897,-2.341c1.321,0 1.921,1.129 1.921,2.293Zm-4.8,5.531l1.018,0l0,-3.202l0.024,-0c0.457,0.731 1.369,0.97 2.005,0.97c1.897,0 2.831,-1.474 2.831,-3.227c0,-1.753 -0.946,-3.263 -2.855,-3.263c-0.852,-0 -1.645,0.299 -1.981,0.982l-0.024,0l0,-0.838l-1.018,-0l-0,8.578Z" fill-rule="nonzero"/><path d="M76.299,154.567l1.236,0l1.727,-2.577l1.728,2.577l1.307,0l-2.399,-3.36l2.135,-2.842l-1.223,-0l-1.548,2.161l-1.488,-2.161l-1.307,-0l2.159,2.938l-2.327,3.264Z" fill-rule="nonzero"/><path d="M78.081,98.561l-0.814,-0l-3.876,5.532l-0,0.982l3.732,0l-0,1.992l0.958,0l0,-1.992l1.152,0l0,-0.898l-1.152,-0l0,-5.616Zm-3.814,5.616l2.832,-4.164l0.024,-0l-0,4.164l-2.856,-0Z" fill-rule="nonzero"/><path d="M85.331,103.912c-0,1.212 -0.468,2.401 -1.861,2.401c-1.404,-0 -1.957,-1.129 -1.957,-2.353c0,-1.164 0.529,-2.341 1.897,-2.341c1.321,0 1.921,1.129 1.921,2.293Zm-4.8,5.531l1.018,0l0,-3.202l0.024,-0c0.457,0.731 1.369,0.97 2.005,0.97c1.897,0 2.831,-1.474 2.831,-3.227c0,-1.753 -0.946,-3.263 -2.855,-3.263c-0.852,-0 -1.644,0.299 -1.981,0.982l-0.024,0l0,-0.838l-1.018,-0l-0,8.578Z" fill-rule="nonzero"/><path d="M86.951,107.067l1.236,0l1.727,-2.577l1.728,2.577l1.307,0l-2.399,-3.36l2.136,-2.842l-1.224,-0l-1.548,2.161l-1.487,-2.161l-1.308,-0l2.159,2.938l-2.327,3.264Z" fill-rule="nonzero"/><path d="M254.141,126.779l4.398,-0l-0,-4.32l2.601,-0c3.28,-0 5.599,-1.619 5.599,-5.079c-0,-2.041 -1.359,-4.879 -5.238,-4.879l-7.36,0l0,14.278Zm4.398,-10.62l1.961,-0c1.081,-0 2.081,0.08 2.081,1.381c0,1.441 -1.2,1.521 -2.341,1.521l-1.701,0l-0,-2.902Z" fill="#1b7024" fill-rule="nonzero"/><path d="M271.46,121.681l1.38,-4.4l0.04,0l1.28,4.4l-2.7,0Zm-6.019,5.098l4.42,-0l0.639,-2.04l4.54,-0l0.6,2.04l4.559,-0l-5.199,-14.278l-4.3,0l-5.259,14.278Z" fill="#1b7024" fill-rule="nonzero"/><path d="M280.281,121.981c0.04,4.558 4.658,5.138 6.279,5.138c3.181,-0 6.599,-1.199 6.599,-4.918c-0,-2.621 -1.999,-3.562 -4.018,-4.122c-2.021,-0.56 -4.062,-0.78 -4.142,-1.8c-0,-0.8 0.98,-0.96 1.581,-0.96c0.44,-0 0.941,0.1 1.301,0.36c0.36,0.24 0.6,0.6 0.52,1.14l4.158,-0c-0.12,-3.478 -2.859,-4.658 -5.959,-4.658c-2.94,0 -5.759,1.419 -5.759,4.718c0,2.881 2.579,3.501 4.838,4.141c2.462,0.7 3.082,0.901 3.082,1.641c0,1.06 -1.1,1.3 -1.821,1.3c-0.82,0 -1.781,-0.18 -2.101,-1.04c-0.1,-0.26 -0.16,-0.58 -0.16,-0.94l-4.398,-0Z" fill="#1b7024" fill-rule="nonzero"/><path d="M293.621,121.981c0.04,4.558 4.658,5.138 6.279,5.138c3.181,-0 6.599,-1.199 6.599,-4.918c-0,-2.621 -1.999,-3.562 -4.018,-4.122c-2.021,-0.56 -4.062,-0.78 -4.142,-1.8c-0,-0.8 0.98,-0.96 1.581,-0.96c0.44,-0 0.941,0.1 1.301,0.36c0.36,0.24 0.6,0.6 0.52,1.14l4.158,-0c-0.12,-3.478 -2.859,-4.658 -5.959,-4.658c-2.94,0 -5.759,1.419 -5.759,4.718c0,2.881 2.579,3.501 4.838,4.141c2.462,0.7 3.082,0.901 3.082,1.641c0,1.06 -1.1,1.3 -1.821,1.3c-0.82,0 -1.781,-0.18 -2.101,-1.04c-0.1,-0.26 -0.16,-0.58 -0.16,-0.94l-4.398,-0Z" fill="#1b7024" fill-rule="nonzero"/><path d="M358.999,111c-0,-0 0.331,-0.638 0.612,-1l0.388,-0l-0,0.011c-0,-0.004 -0,-0.008 -0,-0.011l1,-0l-0,1l-2,-0Zm-0,1l1,-0l-0,1l-1,-0l-0,-1Zm-0,2l1,-0l-0,1l-1,-0l-0,-1Zm-0,2l1,-0l-0,1l-1,-0l-0,-1Zm-0,2l1,-0l-0,1l-1,-0l-0,-1Zm-0,2l1,-0l-0,1l-1,-0l-0,-1Zm-0,2l1,-0l-0,1l-1,-0l-0,-1Zm-0,2l1,-0l-0,1l-1,-0l-0,-1Zm-0,2l1,-0l-0,1l-1,-0l-0,-1Zm-0,2l1,-0l-0,2l-1,-0l-0,-1l0.01,-0c-0.003,-0 -0.007,-0 -0.01,-0l-0,-1Zm2,2l-0,-1l1,-0l-0,1l-1,-0Zm2,-0l-0,-1l1,-0l-0,1l-1,-0Zm2,-0l-0,-1l1,-0l-0,1l-1,-0Zm2,-0l-0,-1l1,-0l-0,1l-1,-0Zm2,-0l-0,-1l1,-0l-0,1l-1,-0Zm2,-0l-0,-1l1,-0l-0,1l-1,-0Zm2,-0l-0,-1l1,-0l-0,1l-1,-0Zm2,-0l-0,-1l1,-0l-0,1l-1,-0Zm2,-0l-0,-1l2,-0l-0,1l-0.99,-0l-0.01,-0.011l-0,0.011l-1,-0Zm2,-2l-1,-0l-0,-1l1,-0l-0,1Zm-0,-2l-1,-0l-0,-1l1,-0l-0,1Zm-0,-2l-1,-0l-0,-1l1,-0l-0,1Zm-0,-2l-1,-0l-0,-1l1,-0l-0,1Zm-0,-2l-1,-0l-0,-1l1,-0l-0,1Zm-0,-2l-1,-0l-0,-1l1,-0l-0,1Zm-0,-2l-1,-0l-0,-1l1,-0l-0,1Zm-0,-2l-1,-0l-0,-1l1,-0l-0,1Zm-0,-2l-1,-0l-0,-2c-0,0.942 1,1 1,1l-0,1Zm-2,-2l-0,1l-1,-0l-0,-1l1,-0Zm-2,-0l-0,1l-1,-0l-0,-1l1,-0Zm-2,-0l-0,1l-1,-0l-0,-1l1,-0Zm-2,-0l-0,1l-1,-0l-0,-1l1,-0Zm-2,-0l-0,1l-1,-0l-0,-1l1,-0Zm-2,-0l-0,1l-1,-0l-0,-1l1,-0Zm-2,-0l-0,1l-1,-0l-0,-1l1,-0Zm-2,-0l-0,1l-1,-0l-0,-1l1,-0Z" fill="#6a6bd3"/><path d="M382.999,111c-0,-0 0.331,-0.638 0.612,-1l0.388,-0l-0,0.011c-0,-0.004 -0,-0.008 -0,-0.011l1,-0l-0,1l-2,-0Zm-0,1l1,-0l-0,1l-1,-0l-0,-1Zm-0,2l1,-0l-0,1l-1,-0l-0,-1Zm-0,2l1,-0l-0,1l-1,-0l-0,-1Zm-0,2l1,-0l-0,1l-1,-0l-0,-1Zm-0,2l1,-0l-0,1l-1,-0l-0,-1Zm-0,2l1,-0l-0,1l-1,-0l-0,-1Zm-0,2l1,-0l-0,1l-1,-0l-0,-1Zm-0,2l1,-0l-0,1l-1,-0l-0,-1Zm-0,2l1,-0l-0,2l-1,-0l-0,-1l0.01,-0c-0.003,-0 -0.007,-0 -0.01,-0l-0,-1Zm2,2l-0,-1l1,-0l-0,1l-1,-0Zm2,-0l-0,-1l1,-0l-0,1l-1,-0Zm2,-0l-0,-1l1,-0l-0,1l-1,-0Zm2,-0l-0,-1l1,-0l-0,1l-1,-0Zm2,-0l-0,-1l1,-0l-0,1l-1,-0Zm2,-0l-0,-1l1,-0l-0,1l-1,-0Zm2,-0l-0,-1l1,-0l-0,1l-1,-0Zm2,-0l-0,-1l1,-0l-0,1l-1,-0Zm2,-0l-0,-1l2,-0l-0,1l-1,-0l-0,-0.011c-0,0.003 -0,0.007 -0,0.011l-1,-0Zm2,-2l-1,-0l-0,-1l1,-0l-0,1Zm-0,-2l-1,-0l-0,-1l1,-0l-0,1Zm-0,-2l-1,-0l-0,-1l1,-0l-0,1Zm-0,-2l-1,-0l-0,-1l1,-0l-0,1Zm-0,-2l-1,-0l-0,-1l1,-0l-0,1Zm-0,-2l-1,-0l-0,-1l1,-0l-0,1Zm-0,-2l-1,-0l-0,-1l1,-0l-0,1Zm-0,-2l-1,-0l-0,-1l1,-0l-0,1Zm-0,-2l-1,-0l-0,-2c-0,0.942 1,1 1,1l-0,1Zm-2,-2l-0,1l-1,-0l-0,-1l1,-0Zm-2,-0l-0,1l-1,-0l-0,-1l1,-0Zm-2,-0l-0,1l-1,-0l-0,-1l1,-0Zm-2,-0l-0,1l-1,-0l-0,-1l1,-0Zm-2,-0l-0,1l-1,-0l-0,-1l1,-0Zm-2,-0l-0,1l-1,-0l-0,-1l1,-0Zm-2,-0l-0,1l-1,-0l-0,-1l1,-0Zm-2,-0l-0,1l-1,-0l-0,-1l1,-0Z" fill="#6a6bd3"/><path d="M406.999,111c-0,-0 0.331,-0.638 0.612,-1l0.388,-0l-0,0.011c-0,-0.004 -0,-0.008 -0,-0.011l1,-0l-0,1l-2,-0Zm-0,1l1,-0l-0,1l-1,-0l-0,-1Zm-0,2l1,-0l-0,1l-1,-0l-0,-1Zm-0,2l1,-0l-0,1l-1,-0l-0,-1Zm-0,2l1,-0l-0,1l-1,-0l-0,-1Zm-0,2l1,-0l-0,1l-1,-0l-0,-1Zm-0,2l1,-0l-0,1l-1,-0l-0,-1Zm-0,2l1,-0l-0,1l-1,-0l-0,-1Zm-0,2l1,-0l-0,1l-1,-0l-0,-1Zm-0,2l1,-0l-0,2l-1,-0l-0,-1l0.01,-0c-0.003,-0 -0.007,-0 -0.01,-0l-0,-1Zm2,2l-0,-1l1,-0l-0,1l-1,-0Zm2,-0l-0,-1l1,-0l-0,1l-1,-0Zm2,-0l-0,-1l1,-0l-0,1l-1,-0Zm2,-0l-0,-1l1,-0l-0,1l-1,-0Zm2,-0l-0,-1l1,-0l-0,1l-1,-0Zm2,-0l-0,-1l1,-0l-0,1l-1,-0Zm2,-0l-0,-1l1,-0l-0,1l-1,-0Zm2,-0l-0,-1l1,-0l-0,1l-1,-0Zm2,-0l-0,-1l2,-0l-0,1l-0.99,-0l-0.01,-0.011l-0,0.011l-1,-0Zm2,-2l-1,-0l-0,-1l1,-0l-0,1Zm-0,-2l-1,-0l-0,-1l1,-0l-0,1Zm-0,-2l-1,-0l-0,-1l1,-0l-0,1Zm-0,-2l-1,-0l-0,-1l1,-0l-0,1Zm-0,-2l-1,-0l-0,-1l1,-0l-0,1Zm-0,-2l-1,-0l-0,-1l1,-0l-0,1Zm-0,-2l-1,-0l-0,-1l1,-0l-0,1Zm-0,-2l-1,-0l-0,-1l1,-0l-0,1Zm-0,-2l-1,-0l-0,-2c-0,0.942 1,1 1,1l-0,1Zm-2,-2l-0,1l-1,-0l-0,-1l1,-0Zm-2,-0l-0,1l-1,-0l-0,-1l1,-0Zm-2,-0l-0,1l-1,-0l-0,-1l1,-0Zm-2,-0l-0,1l-1,-0l-0,-1l1,-0Zm-2,-0l-0,1l-1,-0l-0,-1l1,-0Zm-2,-0l-0,1l-1,-0l-0,-1l1,-0Zm-2,-0l-0,1l-1,-0l-0,-1l1,-0Zm-2,-0l-0,1l-1,-0l-0,-1l1,-0Z" fill="#6a6bd3"/><path d="M430.999,111c-0,-0 0.331,-0.638 0.612,-1l0.388,-0l-0,0.011c-0,-0.004 -0,-0.008 -0,-0.011l1,-0l-0,1l-2,-0Zm-0,1l1,-0l-0,1l-1,-0l-0,-1Zm-0,2l1,-0l-0,1l-1,-0l-0,-1Zm-0,2l1,-0l-0,1l-1,-0l-0,-1Zm-0,2l1,-0l-0,1l-1,-0l-0,-1Zm-0,2l1,-0l-0,1l-1,-0l-0,-1Zm-0,2l1,-0l-0,1l-1,-0l-0,-1Zm-0,2l1,-0l-0,1l-1,-0l-0,-1Zm-0,2l1,-0l-0,1l-1,-0l-0,-1Zm-0,2l1,-0l-0,2l-1,-0l-0,-1l0.01,-0c-0.003,-0 -0.007,-0 -0.01,-0l-0,-1Zm2,2l-0,-1l1,-0l-0,1l-1,-0Zm2,-0l-0,-1l1,-0l-0,1l-1,-0Zm2,-0l-0,-1l1,-0l-0,1l-1,-0Zm2,-0l-0,-1l1,-0l-0,1l-1,-0Zm2,-0l-0,-1l1,-0l-0,1l-1,-0Zm2,-0l-0,-1l1,-0l-0,1l-1,-0Zm2,-0l-0,-1l1,-0l-0,1l-1,-0Zm2,-0l-0,-1l1,-0l-0,1l-1,-0Zm2,-0l-0,-1l2,-0l-0,1l-0.99,-0l-0.01,-0.011l-0,0.011l-1,-0Zm2,-2l-1,-0l-0,-1l1,-0l-0,1Zm-0,-2l-1,-0l-0,-1l1,-0l-0,1Zm-0,-2l-1,-0l-0,-1l1,-0l-0,1Zm-0,-2l-1,-0l-0,-1l1,-0l-0,1Zm-0,-2l-1,-0l-0,-1l1,-0l-0,1Zm-0,-2l-1,-0l-0,-1l1,-0l-0,1Zm-0,-2l-1,-0l-0,-1l1,-0l-0,1Zm-0,-2l-1,-0l-0,-1l1,-0l-0,1Zm-0,-2l-1,-0l-0,-2c-0,0.942 1,1 1,1l-0,1Zm-2,-2l-0,1l-1,-0l-0,-1l1,-0Zm-2,-0l-0,1l-1,-0l-0,-1l1,-0Zm-2,-0l-0,1l-1,-0l-0,-1l1,-0Zm-2,-0l-0,1l-1,-0l-0,-1l1,-0Zm-2,-0l-0,1l-1,-0l-0,-1l1,-0Zm-2,-0l-0,1l-1,-0l-0,-1l1,-0Zm-2,-0l-0,1l-1,-0l-0,-1l1,-0Zm-2,-0l-0,1l-1,-0l-0,-1l1,-0Z" fill="#6a6bd3"/><path d="M454.999,111c-0,-0 0.331,-0.638 0.612,-1l0.388,-0l-0,0.011c-0,-0.004 -0,-0.008 -0,-0.011l1,-0l-0,1l-2,-0Zm-0,1l1,-0l-0,1l-1,-0l-0,-1Zm-0,2l1,-0l-0,1l-1,-0l-0,-1Zm-0,2l1,-0l-0,1l-1,-0l-0,-1Zm-0,2l1,-0l-0,1l-1,-0l-0,-1Zm-0,2l1,-0l-0,1l-1,-0l-0,-1Zm-0,2l1,-0l-0,1l-1,-0l-0,-1Zm-0,2l1,-0l-0,1l-1,-0l-0,-1Zm-0,2l1,-0l-0,1l-1,-0l-0,-1Zm-0,2l1,-0l-0,2l-1,-0l-0,-1l0.01,-0c-0.003,-0 -0.007,-0 -0.01,-0l-0,-1Zm2,2l-0,-1l1,-0l-0,1l-1,-0Zm2,-0l-0,-1l1,-0l-0,1l-1,-0Zm2,-0l-0,-1l1,-0l-0,1l-1,-0Zm2,-0l-0,-1l1,-0l-0,1l-1,-0Zm2,-0l-0,-1l1,-0l-0,1l-1,-0Zm2,-0l-0,-1l1,-0l-0,1l-1,-0Zm2,-0l-0,-1l1,-0l-0,1l-1,-0Zm2,-0l-0,-1l1,-0l-0,1l-1,-0Zm2,-0l-0,-1l2,-0l-0,1l-1,-0l-0,-0.011c-0,0.003 -0,0.007 -0,0.011l-1,-0Zm2,-2l-1,-0l-0,-1l1,-0l-0,1Zm-0,-2l-1,-0l-0,-1l1,-0l-0,1Zm-0,-2l-1,-0l-0,-1l1,-0l-0,1Zm-0,-2l-1,-0l-0,-1l1,-0l-0,1Zm-0,-2l-1,-0l-0,-1l1,-0l-0,1Zm-0,-2l-1,-0l-0,-1l1,-0l-0,1Zm-0,-2l-1,-0l-0,-1l1,-0l-0,1Zm-0,-2l-1,-0l-0,-1l1,-0l-0,1Zm-0,-2l-1,-0l-0,-2c-0,0.942 1,1 1,1l-0,1Zm-2,-2l-0,1l-1,-0l-0,-1l1,-0Zm-2,-0l-0,1l-1,-0l-0,-1l1,-0Zm-2,-0l-0,1l-1,-0l-0,-1l1,-0Zm-2,-0l-0,1l-1,-0l-0,-1l1,-0Zm-2,-0l-0,1l-1,-0l-0,-1l1,-0Zm-2,-0l-0,1l-1,-0l-0,-1l1,-0Zm-2,-0l-0,1l-1,-0l-0,-1l1,-0Zm-2,-0l-0,1l-1,-0l-0,-1l1,-0Z" fill="#6a6bd3"/><path d="M478.999,111c-0,-0 0.331,-0.638 0.612,-1l0.388,-0l-0,0.011c-0,-0.004 -0,-0.008 -0,-0.011l1,-0l-0,1l-2,-0Zm-0,1l1,-0l-0,1l-1,-0l-0,-1Zm-0,2l1,-0l-0,1l-1,-0l-0,-1Zm-0,2l1,-0l-0,1l-1,-0l-0,-1Zm-0,2l1,-0l-0,1l-1,-0l-0,-1Zm-0,2l1,-0l-0,1l-1,-0l-0,-1Zm-0,2l1,-0l-0,1l-1,-0l-0,-1Zm-0,2l1,-0l-0,1l-1,-0l-0,-1Zm-0,2l1,-0l-0,1l-1,-0l-0,-1Zm-0,2l1,-0l-0,2l-1,-0l-0,-1l0.01,-0c-0.003,-0 -0.007,-0 -0.01,-0l-0,-1Zm2,2l-0,-1l1,-0l-0,1l-1,-0Zm2,-0l-0,-1l1,-0l-0,1l-1,-0Zm2,-0l-0,-1l1,-0l-0,1l-1,-0Zm2,-0l-0,-1l1,-0l-0,1l-1,-0Zm2,-0l-0,-1l1,-0l-0,1l-1,-0Zm2,-0l-0,-1l1,-0l-0,1l-1,-0Zm2,-0l-0,-1l1,-0l-0,1l-1,-0Zm2,-0l-0,-1l1,-0l-0,1l-1,-0Zm2,-0l-0,-1l2,-0l-0,1l-0.99,-0l-0.01,-0.011l-0,0.011l-1,-0Zm2,-2l-1,-0l-0,-1l1,-0l-0,1Zm-0,-2l-1,-0l-0,-1l1,-0l-0,1Zm-0,-2l-1,-0l-0,-1l1,-0l-0,1Zm-0,-2l-1,-0l-0,-1l1,-0l-0,1Zm-0,-2l-1,-0l-0,-1l1,-0l-0,1Zm-0,-2l-1,-0l-0,-1l1,-0l-0,1Zm-0,-2l-1,-0l-0,-1l1,-0l-0,1Zm-0,-2l-1,-0l-0,-1l1,-0l-0,1Zm-0,-2l-1,-0l-0,-2c-0,0.942 1,1 1,1l-0,1Zm-2,-2l-0,1l-1,-0l-0,-1l1,-0Zm-2,-0l-0,1l-1,-0l-0,-1l1,-0Zm-2,-0l-0,1l-1,-0l-0,-1l1,-0Zm-2,-0l-0,1l-1,-0l-0,-1l1,-0Zm-2,-0l-0,1l-1,-0l-0,-1l1,-0Zm-2,-0l-0,1l-1,-0l-0,-1l1,-0Zm-2,-0l-0,1l-1,-0l-0,-1l1,-0Zm-2,-0l-0,1l-1,-0l-0,-1l1,-0Z" fill="#6a6bd3"/><path d="M491.999,118c-0,1.645 -1.355,3 -3,3c-1.646,-0 -3,-1.355 -3,-3c-0,-1.646 1.354,-3 3,-3c1.645,-0 3,1.354 3,3Z" fill-rule="nonzero"/><path d="M480.999,120c-0,-4.389 3.611,-8 8,-8c4.388,-0 8,3.611 8,8c-0,4.388 -3.612,8 -8,8c-4.389,-0 -8,-3.612 -8,-8Zm8,-7c-3.84,-0 -7,3.16 -7,7c-0,1.588 0.54,3.129 1.532,4.37c0.71,-1.144 2.273,-2.37 5.468,-2.37c3.195,-0 4.757,1.225 5.468,2.37c0.991,-1.241 1.531,-2.782 1.531,-4.37c0,-3.84 -3.159,-7 -6.999,-7Z"/><path d="M466.533,113.015c0.133,0 0.26,0.053 0.354,0.146l4.95,4.95c0.194,0.194 0.194,0.513 0,0.707c-0.48,0.48 -1.072,0.588 -1.503,0.588c-0.177,0 -0.335,-0.018 -0.46,-0.039l-3.134,3.134c0.083,0.333 0.136,0.672 0.16,1.013c0.046,0.702 -0.032,1.687 -0.72,2.375c-0.194,0.194 -0.513,0.194 -0.707,0l-2.829,-2.828l-3.182,3.182c-0.195,0.195 -1.219,0.902 -1.414,0.707c-0.195,-0.195 0.512,-1.22 0.707,-1.414l3.182,-3.182l-2.828,-2.829c-0.194,-0.194 -0.194,-0.513 0,-0.707c0.688,-0.688 1.673,-0.767 2.375,-0.72c0.342,0.024 0.681,0.078 1.013,0.16l3.134,-3.133c-0.026,-0.152 -0.039,-0.306 -0.04,-0.461c0,-0.43 0.108,-1.022 0.589,-1.503c0.094,-0.093 0.221,-0.146 0.353,-0.146Z" fill-rule="nonzero"/><path d="M433.049,115.555c0.206,-0.907 1.02,-1.555 1.95,-1.555l12,-0c0.929,-0 1.743,0.648 1.95,1.555l-7.95,4.859l-7.95,-4.859Zm-0.05,1.142l-0,7.104l5.803,-3.558l-5.803,-3.546Zm6.761,4.133l-6.57,4.026c0.33,0.697 1.036,1.144 1.809,1.144l6.256,-0c-0.17,-0.482 -0.257,-0.989 -0.256,-1.5c-0.002,-1.329 0.587,-2.593 1.606,-3.446l-0.367,-0.225l-1.239,0.757l-1.239,-0.757l-0,0.001Zm9.239,-4.133l-0,4.974c-0.854,-1.058 -2.142,-1.673 -3.5,-1.671c-0.681,-0.001 -1.353,0.153 -1.965,0.45l-0.338,-0.207l5.803,-3.546Z" fill-rule="nonzero"/><path d="M448.999,124.5c-0,1.92 -1.58,3.5 -3.5,3.5c-1.92,-0 -3.5,-1.58 -3.5,-3.5c-0,-1.92 1.58,-3.5 3.5,-3.5c1.92,-0 3.5,1.58 3.5,3.5Zm-3.5,-2c-0.275,-0 -0.5,0.225 -0.5,0.5l-0,1l-1,-0c-0.275,-0 -0.5,0.225 -0.5,0.5c-0,0.274 0.225,0.5 0.5,0.5l1,-0l-0,1c-0,0.274 0.225,0.5 0.5,0.5c0.274,-0 0.5,-0.226 0.5,-0.5l-0,-1l1,-0c0.274,-0 0.5,-0.226 0.5,-0.5c-0,-0.275 -0.226,-0.5 -0.5,-0.5l-1,-0l-0,-1c-0,-0.275 -0.226,-0.5 -0.5,-0.5Z" fill-rule="nonzero"/><path d="M417.706,113.395c-0.388,-0.388 -1.027,-0.388 -1.414,0l-6.647,6.646c-0.094,0.094 -0.147,0.221 -0.147,0.354c-0,0.275 0.226,0.501 0.501,0.501c0.132,-0 0.26,-0.053 0.354,-0.147l6.646,-6.647l6.646,6.647c0.093,0.094 0.221,0.147 0.354,0.147c0.274,-0 0.5,-0.226 0.5,-0.501c0,-0.133 -0.053,-0.26 -0.146,-0.354l-2.354,-2.353l-0,-3.293c-0,-0.274 -0.226,-0.5 -0.5,-0.5l-1,0c-0.275,0 -0.5,0.226 -0.5,0.5l-0,1.293l-2.293,-2.293Z" fill-rule="nonzero"/><path d="M416.999,115.188l6,6l-0,4.207c-0,0.823 -0.678,1.5 -1.5,1.5l-9,0c-0.823,0 -1.5,-0.677 -1.5,-1.5l-0,-4.207l6,-6Z" fill-rule="nonzero"/><path d="M392.999,112c4.388,-0 8,3.611 8,8c-0,4.388 -3.612,8 -8,8c-4.389,-0 -8,-3.612 -8,-8c-0,-4.389 3.611,-8 8,-8Zm-3.5,7.5c-0.275,-0 -0.5,0.225 -0.5,0.5c-0,0.274 0.225,0.5 0.5,0.5l5.793,-0l-2.147,2.146c-0.094,0.093 -0.147,0.221 -0.147,0.354c-0,0.274 0.226,0.5 0.501,0.5c0.132,0 0.26,-0.053 0.354,-0.146l3,-3c0.094,-0.094 0.146,-0.222 0.146,-0.354c0,-0.133 -0.052,-0.261 -0.146,-0.354l-3,-3c-0.094,-0.094 -0.222,-0.147 -0.354,-0.147c-0.275,-0 -0.501,0.226 -0.501,0.501c-0,0.132 0.053,0.26 0.147,0.354l2.147,2.146l-5.793,-0Z" fill-rule="nonzero"/><path d="M368.999,112c-4.389,-0 -8,3.611 -8,8c-0,4.388 3.611,8 8,8c4.388,-0 8,-3.612 8,-8c-0,-4.389 -3.612,-8 -8,-8Zm3.5,7.5c0.274,-0 0.5,0.225 0.5,0.5c-0,0.274 -0.226,0.5 -0.5,0.5l-5.793,-0l2.147,2.146c0.093,0.093 0.146,0.221 0.146,0.354c0,0.274 -0.226,0.5 -0.5,0.5c-0.133,0 -0.261,-0.053 -0.354,-0.146l-3,-3c-0.094,-0.094 -0.147,-0.222 -0.147,-0.354c-0,-0.133 0.053,-0.261 0.147,-0.354l3,-3c0.093,-0.094 0.221,-0.147 0.354,-0.147c0.274,-0 0.5,0.226 0.5,0.501c0,0.132 -0.053,0.26 -0.146,0.354l-2.147,2.146l5.793,-0Z" fill-rule="nonzero"/><path d="M357.499,135.5l-0,8" fill="none" stroke="#000" stroke-width="1px" stroke-miterlimit="10"/><path d="M380.499,135.5l-0,8" fill="none" stroke="#000" stroke-width="1px" stroke-miterlimit="10"/><path d="M357.499,139.5l23,-0" fill="none" stroke="#000" stroke-width="1px"/><path d="M357.276,149.072c-0.036,-1.021 0.468,-2.113 1.657,-2.113c0.9,0 1.644,0.612 1.644,1.537c0,1.176 -0.732,1.704 -2.173,2.592c-1.2,0.744 -2.219,1.464 -2.387,3.479l5.555,0l0,-0.898l-4.368,-0c0.204,-1.056 1.32,-1.597 2.389,-2.245c1.056,-0.66 2.063,-1.416 2.063,-2.916c-0,-1.585 -1.175,-2.447 -2.663,-2.447c-1.801,-0 -2.82,1.282 -2.736,3.011l1.019,-0Z" fill-rule="nonzero"/><path d="M367.428,146.061l-0.815,-0l-3.876,5.532l0,0.982l3.732,0l0,1.992l0.959,0l-0,-1.992l1.152,0l-0,-0.898l-1.152,-0l-0,-5.616Zm-3.815,5.616l2.832,-4.164l0.024,-0l0,4.164l-2.856,-0Z" fill-rule="nonzero"/><path d="M374.677,151.412c0,1.212 -0.468,2.401 -1.86,2.401c-1.405,-0 -1.957,-1.129 -1.957,-2.353c-0,-1.164 0.528,-2.341 1.897,-2.341c1.32,0 1.92,1.129 1.92,2.293Zm-4.8,5.531l1.019,0l-0,-3.202l0.024,-0c0.456,0.731 1.368,0.97 2.005,0.97c1.896,0 2.831,-1.474 2.831,-3.227c-0,-1.753 -0.947,-3.263 -2.855,-3.263c-0.853,-0 -1.645,0.299 -1.981,0.982l-0.024,0l-0,-0.838l-1.019,-0l0,8.578Z" fill-rule="nonzero"/><path d="M376.297,154.567l1.236,0l1.728,-2.577l1.727,2.577l1.308,0l-2.399,-3.36l2.135,-2.842l-1.224,-0l-1.547,2.161l-1.488,-2.161l-1.308,-0l2.16,2.938l-2.328,3.264Z" fill-rule="nonzero"/><circle cx="369.002" cy="120" r="12" fill="#00ff41" fill-opacity=".2"/><path d="M369.002,108c6.623,0 12,5.377 12,12c0,6.623 -5.377,12 -12,12c-6.623,-0 -12,-5.377 -12,-12c0,-6.623 5.377,-12 12,-12Zm0,1c-6.071,0 -11,4.929 -11,11c0,6.071 4.929,11 11,11c6.071,-0 11,-4.929 11,-11c0,-6.071 -4.929,-11 -11,-11Z" fill="#1b7024"/><circle cx="393.002" cy="120" r="12" fill="#00ff41" fill-opacity=".2"/><path d="M393.002,108c6.623,0 12,5.377 12,12c0,6.623 -5.377,12 -12,12c-6.623,-0 -12,-5.377 -12,-12c0,-6.623 5.377,-12 12,-12Zm0,1c-6.071,0 -11,4.929 -11,11c0,6.071 4.929,11 11,11c6.071,-0 11,-4.929 11,-11c0,-6.071 -4.929,-11 -11,-11Z" fill="#1b7024"/><circle cx="417.002" cy="120" r="12" fill="#00ff41" fill-opacity=".2"/><path d="M417.002,108c6.623,0 12,5.377 12,12c0,6.623 -5.377,12 -12,12c-6.623,-0 -12,-5.377 -12,-12c0,-6.623 5.377,-12 12,-12Zm0,1c-6.071,0 -11,4.929 -11,11c0,6.071 4.929,11 11,11c6.071,-0 11,-4.929 11,-11c0,-6.071 -4.929,-11 -11,-11Z" fill="#1b7024"/><circle cx="441.002" cy="120" r="12" fill="#00ff41" fill-opacity=".2"/><path d="M441.002,108c6.623,0 12,5.377 12,12c0,6.623 -5.377,12 -12,12c-6.623,-0 -12,-5.377 -12,-12c0,-6.623 5.377,-12 12,-12Zm0,1c-6.071,0 -11,4.929 -11,11c0,6.071 4.929,11 11,11c6.071,-0 11,-4.929 11,-11c0,-6.071 -4.929,-11 -11,-11Z" fill="#1b7024"/><circle cx="465.002" cy="120" r="12" fill="#00ff41" fill-opacity=".2"/><path d="M465.002,108c6.623,0 12,5.377 12,12c0,6.623 -5.377,12 -12,12c-6.623,-0 -12,-5.377 -12,-12c0,-6.623 5.377,-12 12,-12Zm0,1c-6.071,0 -11,4.929 -11,11c0,6.071 4.929,11 11,11c6.071,-0 11,-4.929 11,-11c0,-6.071 -4.929,-11 -11,-11Z" fill="#1b7024"/><circle cx="489.002" cy="120" r="12" fill="#00ff41" fill-opacity=".2"/><path d="M489.002,108c6.623,0 12,5.377 12,12c0,6.623 -5.377,12 -12,12c-6.623,-0 -12,-5.377 -12,-12c0,-6.623 5.377,-12 12,-12Zm0,1c-6.071,0 -11,4.929 -11,11c0,6.071 4.929,11 11,11c6.071,-0 11,-4.929 11,-11c0,-6.071 -4.929,-11 -11,-11Z" fill="#1b7024"/><path d="M59.002,196c0,-0 0.332,-0.637 0.613,-1l0.387,-0l0,0.011c0,-0.004 0,-0.007 0,-0.011l1,-0l0,1l-2,-0Zm0,1l1,0l0,1l-1,-0l0,-1Zm0,2l1,-0l0,1l-1,-0l0,-1Zm0,2l1,-0l0,1l-1,-0l0,-1Zm0,2l1,-0l0,1l-1,-0l0,-1Zm0,2l1,-0l0,1l-1,-0l0,-1Zm0,2l1,-0l0,1l-1,-0l0,-1Zm0,2l1,-0l0,1l-1,-0l0,-1Zm0,2l1,-0l0,1l-1,-0l0,-1Zm0,2l1,-0l0,2l-1,-0l0,-1l0.011,-0c-0.004,-0 -0.007,0 -0.011,0l0,-1Zm2,2l0,-1l1,-0l0,1l-1,-0Zm2,-0l0,-1l1,-0l0,1l-1,-0Zm2,-0l0,-1l1,-0l0,1l-1,-0Zm2,-0l0,-1l1,-0l0,1l-1,-0Zm2,-0l0,-1l1,-0l0,1l-1,-0Zm2,-0l0,-1l1,-0l0,1l-1,-0Zm2,-0l0,-1l1,-0l0,1l-1,-0Zm2,-0l0,-1l1,-0l0,1l-1,-0Zm2,-0l0,-1l2,-0l0,1l-1,-0l0,-0.011c0,0.004 0,0.007 0,0.011l-1,-0Zm2,-2l-1,-0l0,-1l1,-0l0,1Zm0,-2l-1,0l0,-1l1,0l0,1Zm0,-2l-1,0l0,-1l1,0l0,1Zm0,-2l-1,0l0,-1l1,0l0,1Zm0,-2l-1,0l0,-1l1,0l0,1Zm0,-2l-1,0l0,-1l1,0l0,1Zm0,-2l-1,-0l0,-1l1,0l0,1Zm0,-2l-1,0l0,-1l1,0l0,1Zm0,-2l-1,0l0,-2c0,0.943 1,1 1,1l0,1Zm-2,-2l0,1l-1,-0l0,-1l1,-0Zm-2,-0l0,1l-1,-0l0,-1l1,-0Zm-2,-0l0,1l-1,-0l0,-1l1,-0Zm-2,-0l0,1l-1,-0l0,-1l1,-0Zm-2,-0l0,1l-1,-0l0,-1l1,-0Zm-2,-0l0,1l-1,-0l0,-1l1,-0Zm-2,-0l0,1l-1,-0l0,-1l1,-0Zm-2,-0l0,1l-1,-0l0,-1l1,-0Z" fill="#6a6bd3"/><path d="M79.002,196c0,-0 0.332,-0.637 0.613,-1l0.387,-0l0,0.011c0,-0.004 0,-0.007 0,-0.011l1,-0l0,1l-2,-0Zm0,1l1,0l0,1l-1,-0l0,-1Zm0,2l1,-0l0,1l-1,-0l0,-1Zm0,2l1,-0l0,1l-1,-0l0,-1Zm0,2l1,-0l0,1l-1,-0l0,-1Zm0,2l1,-0l0,1l-1,-0l0,-1Zm0,2l1,-0l0,1l-1,-0l0,-1Zm0,2l1,-0l0,1l-1,-0l0,-1Zm0,2l1,-0l0,1l-1,-0l0,-1Zm0,2l1,-0l0,2l-1,-0l0,-1l0.011,-0c-0.004,-0 -0.007,0 -0.011,0l0,-1Zm2,2l0,-1l1,-0l0,1l-1,-0Zm2,-0l0,-1l1,-0l0,1l-1,-0Zm2,-0l0,-1l1,-0l0,1l-1,-0Zm2,-0l0,-1l1,-0l0,1l-1,-0Zm2,-0l0,-1l1,-0l0,1l-1,-0Zm2,-0l0,-1l1,-0l0,1l-1,-0Zm2,-0l0,-1l1,-0l0,1l-1,-0Zm2,-0l0,-1l1,-0l0,1l-1,-0Zm2,-0l0,-1l2,-0l0,1l-1,-0l0,-0.011c0,0.004 0,0.007 0,0.011l-1,-0Zm2,-2l-1,-0l0,-1l1,-0l0,1Zm0,-2l-1,0l0,-1l1,0l0,1Zm0,-2l-1,0l0,-1l1,0l0,1Zm0,-2l-1,0l0,-1l1,0l0,1Zm0,-2l-1,0l0,-1l1,0l0,1Zm0,-2l-1,0l0,-1l1,0l0,1Zm0,-2l-1,-0l0,-1l1,0l0,1Zm0,-2l-1,0l0,-1l1,0l0,1Zm0,-2l-1,0l0,-2c0,0.943 1,1 1,1l0,1Zm-2,-2l0,1l-1,-0l0,-1l1,-0Zm-2,-0l0,1l-1,-0l0,-1l1,-0Zm-2,-0l0,1l-1,-0l0,-1l1,-0Zm-2,-0l0,1l-1,-0l0,-1l1,-0Zm-2,-0l0,1l-1,-0l0,-1l1,-0Zm-2,-0l0,1l-1,-0l0,-1l1,-0Zm-2,-0l0,1l-1,-0l0,-1l1,-0Zm-2,-0l0,1l-1,-0l0,-1l1,-0Z" fill="#6a6bd3"/><path d="M99.002,196c0,-0 0.332,-0.637 0.613,-1l0.387,-0l0,0.011c0,-0.004 0,-0.007 0,-0.011l1,-0l0,1l-2,-0Zm0,1l1,0l0,1l-1,-0l0,-1Zm0,2l1,-0l0,1l-1,-0l0,-1Zm0,2l1,-0l0,1l-1,-0l0,-1Zm0,2l1,-0l0,1l-1,-0l0,-1Zm0,2l1,-0l0,1l-1,-0l0,-1Zm0,2l1,-0l0,1l-1,-0l0,-1Zm0,2l1,-0l0,1l-1,-0l0,-1Zm0,2l1,-0l0,1l-1,-0l0,-1Zm0,2l1,-0l0,2l-1,-0l0,-1l0.011,-0c-0.004,-0 -0.007,0 -0.011,0l0,-1Zm2,2l0,-1l1,-0l0,1l-1,-0Zm2,-0l0,-1l1,-0l0,1l-1,-0Zm2,-0l0,-1l1,-0l0,1l-1,-0Zm2,-0l0,-1l1,-0l0,1l-1,-0Zm2,-0l0,-1l1,-0l0,1l-1,-0Zm2,-0l0,-1l1,-0l0,1l-1,-0Zm2,-0l0,-1l1,-0l0,1l-1,-0Zm2,-0l0,-1l1,-0l0,1l-1,-0Zm2,-0l0,-1l2,-0l0,1l-1,-0l0,-0.011c0,0.004 0,0.007 0,0.011l-1,-0Zm2,-2l-1,-0l0,-1l1,-0l0,1Zm0,-2l-1,0l0,-1l1,0l0,1Zm0,-2l-1,0l0,-1l1,0l0,1Zm0,-2l-1,0l0,-1l1,0l0,1Zm0,-2l-1,0l0,-1l1,0l0,1Zm0,-2l-1,0l0,-1l1,0l0,1Zm0,-2l-1,-0l0,-1l1,0l0,1Zm0,-2l-1,0l0,-1l1,0l0,1Zm0,-2l-1,0l0,-2c0,0.943 1,1 1,1l0,1Zm-2,-2l0,1l-1,-0l0,-1l1,-0Zm-2,-0l0,1l-1,-0l0,-1l1,-0Zm-2,-0l0,1l-1,-0l0,-1l1,-0Zm-2,-0l0,1l-1,-0l0,-1l1,-0Zm-2,-0l0,1l-1,-0l0,-1l1,-0Zm-2,-0l0,1l-1,-0l0,-1l1,-0Zm-2,-0l0,1l-1,-0l0,-1l1,-0Zm-2,-0l0,1l-1,-0l0,-1l1,-0Z" fill="#6a6bd3"/><path d="M119.002,196c0,-0 0.332,-0.637 0.613,-1l0.387,-0l0,0.011c0,-0.004 0,-0.007 0,-0.011l1,-0l0,1l-2,-0Zm0,1l1,0l0,1l-1,-0l0,-1Zm0,2l1,-0l0,1l-1,-0l0,-1Zm0,2l1,-0l0,1l-1,-0l0,-1Zm0,2l1,-0l0,1l-1,-0l0,-1Zm0,2l1,-0l0,1l-1,-0l0,-1Zm0,2l1,-0l0,1l-1,-0l0,-1Zm0,2l1,-0l0,1l-1,-0l0,-1Zm0,2l1,-0l0,1l-1,-0l0,-1Zm0,2l1,-0l0,2l-1,-0l0,-1l0.011,-0c-0.004,-0 -0.007,0 -0.011,0l0,-1Zm2,2l0,-1l1,-0l0,1l-1,-0Zm2,-0l0,-1l1,-0l0,1l-1,-0Zm2,-0l0,-1l1,-0l0,1l-1,-0Zm2,-0l0,-1l1,-0l0,1l-1,-0Zm2,-0l0,-1l1,-0l0,1l-1,-0Zm2,-0l0,-1l1,-0l0,1l-1,-0Zm2,-0l0,-1l1,-0l0,1l-1,-0Zm2,-0l0,-1l1,-0l0,1l-1,-0Zm2,-0l0,-1l2,-0l0,1l-1,-0l0,-0.011c0,0.004 0,0.007 0,0.011l-1,-0Zm2,-2l-1,-0l0,-1l1,-0l0,1Zm0,-2l-1,0l0,-1l1,0l0,1Zm0,-2l-1,0l0,-1l1,0l0,1Zm0,-2l-1,0l0,-1l1,0l0,1Zm0,-2l-1,0l0,-1l1,0l0,1Zm0,-2l-1,0l0,-1l1,0l0,1Zm0,-2l-1,-0l0,-1l1,0l0,1Zm0,-2l-1,0l0,-1l1,0l0,1Zm0,-2l-1,0l0,-2c0,0.943 1,1 1,1l0,1Zm-2,-2l0,1l-1,-0l0,-1l1,-0Zm-2,-0l0,1l-1,-0l0,-1l1,-0Zm-2,-0l0,1l-1,-0l0,-1l1,-0Zm-2,-0l0,1l-1,-0l0,-1l1,-0Zm-2,-0l0,1l-1,-0l0,-1l1,-0Zm-2,-0l0,1l-1,-0l0,-1l1,-0Zm-2,-0l0,1l-1,-0l0,-1l1,-0Zm-2,-0l0,1l-1,-0l0,-1l1,-0Z" fill="#6a6bd3"/><path d="M139.002,196c0,-0 0.332,-0.637 0.613,-1l0.387,-0l0,0.011c0,-0.004 0,-0.007 0,-0.011l1,-0l0,1l-2,-0Zm0,1l1,0l0,1l-1,-0l0,-1Zm0,2l1,-0l0,1l-1,-0l0,-1Zm0,2l1,-0l0,1l-1,-0l0,-1Zm0,2l1,-0l0,1l-1,-0l0,-1Zm0,2l1,-0l0,1l-1,-0l0,-1Zm0,2l1,-0l0,1l-1,-0l0,-1Zm0,2l1,-0l0,1l-1,-0l0,-1Zm0,2l1,-0l0,1l-1,-0l0,-1Zm0,2l1,-0l0,2l-1,-0l0,-1l0.011,-0c-0.004,-0 -0.007,0 -0.011,0l0,-1Zm2,2l0,-1l1,-0l0,1l-1,-0Zm2,-0l0,-1l1,-0l0,1l-1,-0Zm2,-0l0,-1l1,-0l0,1l-1,-0Zm2,-0l0,-1l1,-0l0,1l-1,-0Zm2,-0l0,-1l1,-0l0,1l-1,-0Zm2,-0l0,-1l1,-0l0,1l-1,-0Zm2,-0l0,-1l1,-0l0,1l-1,-0Zm2,-0l0,-1l1,-0l0,1l-1,-0Zm2,-0l0,-1l2,-0l0,1l-1,-0l0,-0.011c0,0.004 0,0.007 0,0.011l-1,-0Zm2,-2l-1,-0l0,-1l1,-0l0,1Zm0,-2l-1,0l0,-1l1,0l0,1Zm0,-2l-1,0l0,-1l1,0l0,1Zm0,-2l-1,0l0,-1l1,0l0,1Zm0,-2l-1,0l0,-1l1,0l0,1Zm0,-2l-1,0l0,-1l1,0l0,1Zm0,-2l-1,-0l0,-1l1,0l0,1Zm0,-2l-1,0l0,-1l1,0l0,1Zm0,-2l-1,0l0,-2c0,0.943 1,1 1,1l0,1Zm-2,-2l0,1l-1,-0l0,-1l1,-0Zm-2,-0l0,1l-1,-0l0,-1l1,-0Zm-2,-0l0,1l-1,-0l0,-1l1,-0Zm-2,-0l0,1l-1,-0l0,-1l1,-0Zm-2,-0l0,1l-1,-0l0,-1l1,-0Zm-2,-0l0,1l-1,-0l0,-1l1,-0Zm-2,-0l0,1l-1,-0l0,-1l1,-0Zm-2,-0l0,1l-1,-0l0,-1l1,-0Z" fill="#6a6bd3"/><path d="M159.002,196c0,-0 0.332,-0.637 0.613,-1l0.387,-0l0,0.011c0,-0.004 0,-0.007 0,-0.011l1,-0l0,1l-2,-0Zm0,1l1,0l0,1l-1,-0l0,-1Zm0,2l1,-0l0,1l-1,-0l0,-1Zm0,2l1,-0l0,1l-1,-0l0,-1Zm0,2l1,-0l0,1l-1,-0l0,-1Zm0,2l1,-0l0,1l-1,-0l0,-1Zm0,2l1,-0l0,1l-1,-0l0,-1Zm0,2l1,-0l0,1l-1,-0l0,-1Zm0,2l1,-0l0,1l-1,-0l0,-1Zm0,2l1,-0l0,2l-1,-0l0,-1l0.011,-0c-0.004,-0 -0.007,0 -0.011,0l0,-1Zm2,2l0,-1l1,-0l0,1l-1,-0Zm2,-0l0,-1l1,-0l0,1l-1,-0Zm2,-0l0,-1l1,-0l0,1l-1,-0Zm2,-0l0,-1l1,-0l0,1l-1,-0Zm2,-0l0,-1l1,-0l0,1l-1,-0Zm2,-0l0,-1l1,-0l0,1l-1,-0Zm2,-0l0,-1l1,-0l0,1l-1,-0Zm2,-0l0,-1l1,-0l0,1l-1,-0Zm2,-0l0,-1l2,-0l0,1l-0.989,-0l-0.011,-0.011l0,0.011l-1,-0Zm2,-2l-1,-0l0,-1l1,-0l0,1Zm0,-2l-1,0l0,-1l1,0l0,1Zm0,-2l-1,0l0,-1l1,0l0,1Zm0,-2l-1,0l0,-1l1,0l0,1Zm0,-2l-1,0l0,-1l1,0l0,1Zm0,-2l-1,0l0,-1l1,0l0,1Zm0,-2l-1,-0l0,-1l1,0l0,1Zm0,-2l-1,0l0,-1l1,0l0,1Zm0,-2l-1,0l0,-2c0,0.943 1,1 1,1l0,1Zm-2,-2l0,1l-1,-0l0,-1l1,-0Zm-2,-0l0,1l-1,-0l0,-1l1,-0Zm-2,-0l0,1l-1,-0l0,-1l1,-0Zm-2,-0l0,1l-1,-0l0,-1l1,-0Zm-2,-0l0,1l-1,-0l0,-1l1,-0Zm-2,-0l0,1l-1,-0l0,-1l1,-0Zm-2,-0l0,1l-1,-0l0,-1l1,-0Zm-2,-0l0,1l-1,-0l0,-1l1,-0Z" fill="#6a6bd3"/><path d="M172.002,203c0,1.646 -1.354,3 -3,3c-1.646,-0 -3,-1.354 -3,-3c0,-1.646 1.354,-3 3,-3c1.646,-0 3,1.354 3,3Z" fill-rule="nonzero"/><path d="M161.002,205c0,-4.389 3.611,-8 8,-8c4.389,-0 8,3.611 8,8c0,4.389 -3.611,8 -8,8c-4.389,-0 -8,-3.611 -8,-8Zm8,-7c-3.84,0 -7,3.16 -7,7c0,1.588 0.541,3.13 1.532,4.37c0.71,-1.144 2.273,-2.37 5.468,-2.37c3.195,-0 4.757,1.225 5.468,2.37c0.991,-1.24 1.532,-2.782 1.532,-4.37c-0,-3.84 -3.16,-7 -7,-7Z"/><path d="M150.537,198.016c0.132,-0.001 0.26,0.052 0.354,0.146l4.95,4.95c0.194,0.194 0.194,0.513 -0,0.707c-0.48,0.48 -1.072,0.588 -1.503,0.588c-0.177,-0 -0.335,-0.018 -0.46,-0.039l-3.134,3.134c0.082,0.332 0.136,0.671 0.16,1.013c0.046,0.702 -0.032,1.687 -0.72,2.375c-0.194,0.194 -0.513,0.194 -0.707,-0l-2.829,-2.828l-3.182,3.182c-0.195,0.195 -1.219,0.902 -1.414,0.707c-0.195,-0.195 0.512,-1.22 0.707,-1.414l3.182,-3.182l-2.828,-2.829c-0.194,-0.194 -0.194,-0.513 -0,-0.707c0.688,-0.688 1.673,-0.767 2.375,-0.72c0.341,0.024 0.68,0.077 1.013,0.16l3.134,-3.133c-0.026,-0.153 -0.04,-0.307 -0.04,-0.461c-0,-0.43 0.108,-1.022 0.589,-1.503c0.093,-0.094 0.22,-0.146 0.353,-0.146Z" fill-rule="nonzero"/><path d="M121.052,200.555c0.207,-0.907 1.02,-1.555 1.95,-1.555l12,-0c0.93,-0 1.743,0.648 1.95,1.555l-7.95,4.859l-7.95,-4.859Zm-0.05,1.142l0,7.104l5.803,-3.558l-5.803,-3.546Zm6.761,4.133l-6.57,4.026c0.331,0.698 1.037,1.145 1.809,1.144l6.256,-0c-0.17,-0.482 -0.256,-0.989 -0.256,-1.5c-0.001,-1.329 0.587,-2.592 1.606,-3.446l-0.367,-0.225l-1.239,0.757l-1.239,-0.757l0,0.001Zm9.239,-4.133l0,4.974c-0.853,-1.057 -2.141,-1.672 -3.5,-1.671c-0.681,-0.001 -1.352,0.153 -1.965,0.45l-0.338,-0.207l5.803,-3.546Z" fill-rule="nonzero"/><path d="M137.002,209.5c0,1.92 -1.58,3.5 -3.5,3.5c-1.92,-0 -3.5,-1.58 -3.5,-3.5c0,-1.92 1.58,-3.5 3.5,-3.5c1.92,-0 3.5,1.58 3.5,3.5Zm-3.5,-2c-0.274,-0 -0.5,0.226 -0.5,0.5l0,1l-1,-0c-0.274,-0 -0.5,0.226 -0.5,0.5c0,0.274 0.226,0.5 0.5,0.5l1,-0l0,1c0,0.274 0.226,0.5 0.5,0.5c0.274,-0 0.5,-0.226 0.5,-0.5l0,-1l1,-0c0.274,-0 0.5,-0.226 0.5,-0.5c0,-0.274 -0.226,-0.5 -0.5,-0.5l-1,-0l0,-1c0,-0.274 -0.226,-0.5 -0.5,-0.5Z" fill-rule="nonzero"/><path d="M109.709,198.395c-0.388,-0.387 -1.026,-0.387 -1.414,0l-6.647,6.646c-0.094,0.094 -0.147,0.222 -0.147,0.354c0,0.275 0.226,0.501 0.501,0.501c0.133,0 0.26,-0.053 0.354,-0.147l6.646,-6.647l6.646,6.647c0.094,0.094 0.221,0.147 0.354,0.147c0.275,0 0.501,-0.226 0.501,-0.501c-0,-0.132 -0.053,-0.26 -0.147,-0.354l-2.354,-2.353l0,-3.293c0,-0.274 -0.226,-0.5 -0.5,-0.5l-1,0c-0.274,0 -0.5,0.226 -0.5,0.5l0,1.293l-2.293,-2.293Z" fill-rule="nonzero"/><path d="M109.002,200.188l6,6l0,4.207c0,0.823 -0.677,1.5 -1.5,1.5l-9,0c-0.823,0 -1.5,-0.677 -1.5,-1.5l0,-4.207l6,-6Z" fill-rule="nonzero"/><path d="M89.002,197c4.389,-0 8,3.611 8,8c0,4.389 -3.611,8 -8,8c-4.389,-0 -8,-3.611 -8,-8c0,-4.389 3.611,-8 8,-8Zm-3.5,7.5c-0.274,-0 -0.5,0.226 -0.5,0.5c0,0.274 0.226,0.5 0.5,0.5l5.793,-0l-2.147,2.146c-0.094,0.094 -0.147,0.221 -0.147,0.354c0,0.275 0.226,0.501 0.501,0.501c0.133,-0 0.26,-0.053 0.354,-0.147l3,-3c0.094,-0.094 0.147,-0.221 0.147,-0.354c0,-0.133 -0.053,-0.26 -0.147,-0.354l-3,-3c-0.094,-0.094 -0.221,-0.147 -0.354,-0.147c-0.275,0 -0.501,0.226 -0.501,0.501c0,0.133 0.053,0.26 0.147,0.354l2.147,2.146l-5.793,-0Z" fill-rule="nonzero"/><path d="M69.002,197c-4.389,-0 -8,3.611 -8,8c0,4.389 3.611,8 8,8c4.389,-0 8,-3.611 8,-8c0,-4.389 -3.611,-8 -8,-8Zm3.5,7.5c0.274,-0 0.5,0.226 0.5,0.5c0,0.274 -0.226,0.5 -0.5,0.5l-5.793,-0l2.147,2.146c0.094,0.094 0.147,0.221 0.147,0.354c-0,0.275 -0.226,0.501 -0.501,0.501c-0.133,-0 -0.26,-0.053 -0.354,-0.147l-3,-3c-0.094,-0.094 -0.147,-0.221 -0.147,-0.354c0,-0.133 0.053,-0.26 0.147,-0.354l3,-3c0.094,-0.094 0.221,-0.147 0.354,-0.147c0.275,0 0.501,0.226 0.501,0.501c-0,0.133 -0.053,0.26 -0.147,0.354l-2.147,2.146l5.793,-0Z" fill-rule="nonzero"/><path d="M53.502,195.5l-8,-0" fill="none" stroke="#000" stroke-width="1px" stroke-miterlimit="10"/><path d="M53.502,214.5l-8,-0" fill="none" stroke="#000" stroke-width="1px" stroke-miterlimit="10"/><path d="M49.502,195.5l0,19" fill="none" stroke="#000" stroke-width="1px"/><path d="M59.502,220.5l0,8" fill="none" stroke="#000" stroke-width="1px" stroke-miterlimit="10"/><path d="M78.502,220.5l0,8" fill="none" stroke="#000" stroke-width="1px" stroke-miterlimit="10"/><path d="M59.502,224.5l19,-0" fill="none" stroke="#000" stroke-width="1px"/><path d="M16.871,203.072c-0.036,-1.021 0.468,-2.113 1.657,-2.113c0.9,0 1.645,0.612 1.645,1.537c-0,1.176 -0.733,1.704 -2.173,2.592c-1.201,0.744 -2.219,1.464 -2.387,3.479l5.554,0l0,-0.898l-4.368,-0c0.204,-1.056 1.321,-1.597 2.389,-2.245c1.057,-0.66 2.063,-1.416 2.063,-2.916c0,-1.585 -1.174,-2.447 -2.663,-2.447c-1.801,-0 -2.819,1.282 -2.735,3.011l1.018,-0Z" fill-rule="nonzero"/><path d="M22.501,204.392c-0,1.872 0.168,4.319 2.831,4.319c2.663,0 2.831,-2.447 2.831,-4.319c0,-1.884 -0.168,-4.331 -2.831,-4.331c-2.663,-0 -2.831,2.447 -2.831,4.331Zm1.078,-0.012c0,-1.26 0.012,-3.421 1.753,-3.421c1.741,0 1.753,2.161 1.753,3.421c-0,1.272 -0.012,3.433 -1.753,3.433c-1.741,-0 -1.753,-2.161 -1.753,-3.433Z" fill-rule="nonzero"/><path d="M34.273,205.412c-0,1.212 -0.468,2.401 -1.861,2.401c-1.405,-0 -1.957,-1.129 -1.957,-2.353c0,-1.164 0.528,-2.341 1.897,-2.341c1.321,0 1.921,1.129 1.921,2.293Zm-4.8,5.531l1.018,0l0,-3.202l0.024,-0c0.456,0.731 1.369,0.97 2.005,0.97c1.897,0 2.831,-1.474 2.831,-3.227c0,-1.753 -0.946,-3.263 -2.855,-3.263c-0.852,-0 -1.645,0.299 -1.981,0.982l-0.024,0l0,-0.838l-1.018,-0l-0,8.578Z" fill-rule="nonzero"/><path d="M35.893,208.567l1.235,0l1.728,-2.577l1.728,2.577l1.307,0l-2.399,-3.36l2.135,-2.842l-1.223,-0l-1.548,2.161l-1.488,-2.161l-1.307,-0l2.159,2.938l-2.327,3.264Z" fill-rule="nonzero"/><path d="M57.556,234.432c-0.036,-1.021 0.468,-2.113 1.657,-2.113c0.9,0 1.645,0.612 1.645,1.536c-0,1.177 -0.733,1.705 -2.173,2.593c-1.201,0.744 -2.219,1.464 -2.387,3.479l5.554,0l0,-0.898l-4.368,-0c0.204,-1.057 1.321,-1.597 2.389,-2.245c1.056,-0.66 2.063,-1.416 2.063,-2.917c0,-1.584 -1.175,-2.446 -2.663,-2.446c-1.801,-0 -2.819,1.282 -2.735,3.011l1.018,-0Z" fill-rule="nonzero"/><path d="M63.186,235.752c-0,1.872 0.167,4.319 2.831,4.319c2.663,0 2.831,-2.447 2.831,-4.319c0,-1.884 -0.168,-4.331 -2.831,-4.331c-2.664,-0 -2.831,2.447 -2.831,4.331Zm1.078,-0.012c0,-1.26 0.012,-3.421 1.753,-3.421c1.741,0 1.753,2.161 1.753,3.421c-0,1.272 -0.012,3.433 -1.753,3.433c-1.741,-0 -1.753,-2.161 -1.753,-3.433Z" fill-rule="nonzero"/><path d="M74.958,236.772c-0,1.212 -0.469,2.401 -1.861,2.401c-1.405,-0 -1.957,-1.129 -1.957,-2.353c0,-1.164 0.528,-2.341 1.897,-2.341c1.32,0 1.921,1.128 1.921,2.293Zm-4.8,5.531l1.018,0l0,-3.202l0.024,-0c0.456,0.731 1.369,0.97 2.005,0.97c1.896,0 2.831,-1.475 2.831,-3.227c0,-1.753 -0.947,-3.263 -2.855,-3.263c-0.853,-0 -1.645,0.299 -1.981,0.982l-0.024,0l0,-0.838l-1.018,-0l-0,8.578Z" fill-rule="nonzero"/><path d="M76.578,239.927l1.235,0l1.728,-2.577l1.727,2.577l1.308,0l-2.399,-3.36l2.135,-2.842l-1.224,-0l-1.547,2.161l-1.488,-2.161l-1.308,-0l2.16,2.938l-2.327,3.264Z" fill-rule="nonzero"/><path d="M258.141,211.779l4.398,-0l-0,-5.44l5.7,-0l-0,-3.398l-5.7,0l-0,-1.782l6.64,-0l-0,-3.658l-11.038,0l0,14.278Z" fill="#ca2626" fill-rule="nonzero"/><path d="M274.36,206.681l1.38,-4.4l0.04,0l1.28,4.4l-2.7,0Zm-6.019,5.098l4.42,-0l0.639,-2.04l4.54,-0l0.6,2.04l4.559,-0l-5.199,-14.278l-4.3,0l-5.259,14.278Z" fill="#ca2626" fill-rule="nonzero"/><rect x="284.081" y="197.501" width="4.397" height="14.278" fill="#ca2626" fill-rule="nonzero"/><path d="M290.741,211.779l10.718,-0l-0,-3.658l-6.32,0l-0,-10.62l-4.398,0l0,14.278Z" fill="#ca2626" fill-rule="nonzero"/><path d="M359.002,196c0,-0 0.332,-0.637 0.613,-1l0.387,-0l0,0.011c0,-0.004 0,-0.007 0,-0.011l1,-0l0,1l-2,-0Zm0,1l1,0l0,1l-1,-0l0,-1Zm0,2l1,-0l0,1l-1,-0l0,-1Zm0,2l1,-0l0,1l-1,-0l0,-1Zm0,2l1,-0l0,1l-1,-0l0,-1Zm0,2l1,-0l0,1l-1,-0l0,-1Zm0,2l1,-0l0,1l-1,-0l0,-1Zm0,2l1,-0l0,1l-1,-0l0,-1Zm0,2l1,-0l0,1l-1,-0l0,-1Zm0,2l1,-0l0,2l-1,-0l0,-1l0.011,-0c-0.004,-0 -0.007,0 -0.011,0l0,-1Zm2,2l0,-1l1,-0l0,1l-1,-0Zm2,-0l0,-1l1,-0l0,1l-1,-0Zm2,-0l0,-1l1,-0l0,1l-1,-0Zm2,-0l0,-1l1,-0l0,1l-1,-0Zm2,-0l0,-1l1,-0l0,1l-1,-0Zm2,-0l0,-1l1,-0l0,1l-1,-0Zm2,-0l0,-1l1,-0l0,1l-1,-0Zm2,-0l0,-1l1,-0l0,1l-1,-0Zm2,-0l0,-1l2,-0l0,1l-1,-0l0,-0.011c0,0.004 0,0.007 0,0.011l-1,-0Zm2,-2l-1,-0l0,-1l1,-0l0,1Zm0,-2l-1,0l0,-1l1,0l0,1Zm0,-2l-1,0l0,-1l1,0l0,1Zm0,-2l-1,0l0,-1l1,0l0,1Zm0,-2l-1,0l0,-1l1,0l0,1Zm0,-2l-1,0l0,-1l1,0l0,1Zm0,-2l-1,-0l0,-1l1,0l0,1Zm0,-2l-1,0l0,-1l1,0l0,1Zm0,-2l-1,0l0,-2c0,0.943 1,1 1,1l0,1Zm-2,-2l0,1l-1,-0l0,-1l1,-0Zm-2,-0l0,1l-1,-0l0,-1l1,-0Zm-2,-0l0,1l-1,-0l0,-1l1,-0Zm-2,-0l0,1l-1,-0l0,-1l1,-0Zm-2,-0l0,1l-1,-0l0,-1l1,-0Zm-2,-0l0,1l-1,-0l0,-1l1,-0Zm-2,-0l0,1l-1,-0l0,-1l1,-0Zm-2,-0l0,1l-1,-0l0,-1l1,-0Z" fill="#6a6bd3"/><path d="M379.002,196c0,-0 0.332,-0.637 0.613,-1l0.387,-0l0,0.011c0,-0.004 0,-0.007 0,-0.011l1,-0l0,1l-2,-0Zm0,1l1,0l0,1l-1,-0l0,-1Zm0,2l1,-0l0,1l-1,-0l0,-1Zm0,2l1,-0l0,1l-1,-0l0,-1Zm0,2l1,-0l0,1l-1,-0l0,-1Zm0,2l1,-0l0,1l-1,-0l0,-1Zm0,2l1,-0l0,1l-1,-0l0,-1Zm0,2l1,-0l0,1l-1,-0l0,-1Zm0,2l1,-0l0,1l-1,-0l0,-1Zm0,2l1,-0l0,2l-1,-0l0,-1l0.011,-0c-0.004,-0 -0.007,0 -0.011,0l0,-1Zm2,2l0,-1l1,-0l0,1l-1,-0Zm2,-0l0,-1l1,-0l0,1l-1,-0Zm2,-0l0,-1l1,-0l0,1l-1,-0Zm2,-0l0,-1l1,-0l0,1l-1,-0Zm2,-0l0,-1l1,-0l0,1l-1,-0Zm2,-0l0,-1l1,-0l0,1l-1,-0Zm2,-0l0,-1l1,-0l0,1l-1,-0Zm2,-0l0,-1l1,-0l0,1l-1,-0Zm2,-0l0,-1l2,-0l0,1l-1,-0l0,-0.011c0,0.004 0,0.007 0,0.011l-1,-0Zm2,-2l-1,-0l0,-1l1,-0l0,1Zm0,-2l-1,0l0,-1l1,0l0,1Zm0,-2l-1,0l0,-1l1,0l0,1Zm0,-2l-1,0l0,-1l1,0l0,1Zm0,-2l-1,0l0,-1l1,0l0,1Zm0,-2l-1,0l0,-1l1,0l0,1Zm0,-2l-1,-0l0,-1l1,0l0,1Zm0,-2l-1,0l0,-1l1,0l0,1Zm0,-2l-1,0l0,-2c0,0.943 1,1 1,1l0,1Zm-2,-2l0,1l-1,-0l0,-1l1,-0Zm-2,-0l0,1l-1,-0l0,-1l1,-0Zm-2,-0l0,1l-1,-0l0,-1l1,-0Zm-2,-0l0,1l-1,-0l0,-1l1,-0Zm-2,-0l0,1l-1,-0l0,-1l1,-0Zm-2,-0l0,1l-1,-0l0,-1l1,-0Zm-2,-0l0,1l-1,-0l0,-1l1,-0Zm-2,-0l0,1l-1,-0l0,-1l1,-0Z" fill="#6a6bd3"/><path d="M399.002,196c0,-0 0.332,-0.637 0.613,-1l0.387,-0l0,0.011c0,-0.004 0,-0.007 0,-0.011l1,-0l0,1l-2,-0Zm0,1l1,0l0,1l-1,-0l0,-1Zm0,2l1,-0l0,1l-1,-0l0,-1Zm0,2l1,-0l0,1l-1,-0l0,-1Zm0,2l1,-0l0,1l-1,-0l0,-1Zm0,2l1,-0l0,1l-1,-0l0,-1Zm0,2l1,-0l0,1l-1,-0l0,-1Zm0,2l1,-0l0,1l-1,-0l0,-1Zm0,2l1,-0l0,1l-1,-0l0,-1Zm0,2l1,-0l0,2l-1,-0l0,-1l0.011,-0c-0.004,-0 -0.007,0 -0.011,0l0,-1Zm2,2l0,-1l1,-0l0,1l-1,-0Zm2,-0l0,-1l1,-0l0,1l-1,-0Zm2,-0l0,-1l1,-0l0,1l-1,-0Zm2,-0l0,-1l1,-0l0,1l-1,-0Zm2,-0l0,-1l1,-0l0,1l-1,-0Zm2,-0l0,-1l1,-0l0,1l-1,-0Zm2,-0l0,-1l1,-0l0,1l-1,-0Zm2,-0l0,-1l1,-0l0,1l-1,-0Zm2,-0l0,-1l2,-0l0,1l-0.989,-0l-0.011,-0.011l0,0.011l-1,-0Zm2,-2l-1,-0l0,-1l1,-0l0,1Zm0,-2l-1,0l0,-1l1,0l0,1Zm0,-2l-1,0l0,-1l1,0l0,1Zm0,-2l-1,0l0,-1l1,0l0,1Zm0,-2l-1,0l0,-1l1,0l0,1Zm0,-2l-1,0l0,-1l1,0l0,1Zm0,-2l-1,-0l0,-1l1,0l0,1Zm0,-2l-1,0l0,-1l1,0l0,1Zm0,-2l-1,0l0,-2c0,0.943 1,1 1,1l0,1Zm-2,-2l0,1l-1,-0l0,-1l1,-0Zm-2,-0l0,1l-1,-0l0,-1l1,-0Zm-2,-0l0,1l-1,-0l0,-1l1,-0Zm-2,-0l0,1l-1,-0l0,-1l1,-0Zm-2,-0l0,1l-1,-0l0,-1l1,-0Zm-2,-0l0,1l-1,-0l0,-1l1,-0Zm-2,-0l0,1l-1,-0l0,-1l1,-0Zm-2,-0l0,1l-1,-0l0,-1l1,-0Z" fill="#6a6bd3"/><path d="M419.002,196c0,-0 0.332,-0.637 0.613,-1l0.387,-0l0,0.011c0,-0.004 0,-0.007 0,-0.011l1,-0l0,1l-2,-0Zm0,1l1,0l0,1l-1,-0l0,-1Zm0,2l1,-0l0,1l-1,-0l0,-1Zm0,2l1,-0l0,1l-1,-0l0,-1Zm0,2l1,-0l0,1l-1,-0l0,-1Zm0,2l1,-0l0,1l-1,-0l0,-1Zm0,2l1,-0l0,1l-1,-0l0,-1Zm0,2l1,-0l0,1l-1,-0l0,-1Zm0,2l1,-0l0,1l-1,-0l0,-1Zm0,2l1,-0l0,2l-1,-0l0,-1l0.011,-0c-0.004,-0 -0.007,0 -0.011,0l0,-1Zm2,2l0,-1l1,-0l0,1l-1,-0Zm2,-0l0,-1l1,-0l0,1l-1,-0Zm2,-0l0,-1l1,-0l0,1l-1,-0Zm2,-0l0,-1l1,-0l0,1l-1,-0Zm2,-0l0,-1l1,-0l0,1l-1,-0Zm2,-0l0,-1l1,-0l0,1l-1,-0Zm2,-0l0,-1l1,-0l0,1l-1,-0Zm2,-0l0,-1l1,-0l0,1l-1,-0Zm2,-0l0,-1l2,-0l0,1l-1,-0l0,-0.011c0,0.004 0,0.007 0,0.011l-1,-0Zm2,-2l-1,-0l0,-1l1,-0l0,1Zm0,-2l-1,0l0,-1l1,0l0,1Zm0,-2l-1,0l0,-1l1,0l0,1Zm0,-2l-1,0l0,-1l1,0l0,1Zm0,-2l-1,0l0,-1l1,0l0,1Zm0,-2l-1,0l0,-1l1,0l0,1Zm0,-2l-1,-0l0,-1l1,0l0,1Zm0,-2l-1,0l0,-1l1,0l0,1Zm0,-2l-1,0l0,-2c0,0.943 1,1 1,1l0,1Zm-2,-2l0,1l-1,-0l0,-1l1,-0Zm-2,-0l0,1l-1,-0l0,-1l1,-0Zm-2,-0l0,1l-1,-0l0,-1l1,-0Zm-2,-0l0,1l-1,-0l0,-1l1,-0Zm-2,-0l0,1l-1,-0l0,-1l1,-0Zm-2,-0l0,1l-1,-0l0,-1l1,-0Zm-2,-0l0,1l-1,-0l0,-1l1,-0Zm-2,-0l0,1l-1,-0l0,-1l1,-0Z" fill="#6a6bd3"/><path d="M439.002,196c0,-0 0.332,-0.637 0.613,-1l0.387,-0l0,0.011c0,-0.004 0,-0.007 0,-0.011l1,-0l0,1l-2,-0Zm0,1l1,0l0,1l-1,-0l0,-1Zm0,2l1,-0l0,1l-1,-0l0,-1Zm0,2l1,-0l0,1l-1,-0l0,-1Zm0,2l1,-0l0,1l-1,-0l0,-1Zm0,2l1,-0l0,1l-1,-0l0,-1Zm0,2l1,-0l0,1l-1,-0l0,-1Zm0,2l1,-0l0,1l-1,-0l0,-1Zm0,2l1,-0l0,1l-1,-0l0,-1Zm0,2l1,-0l0,2l-1,-0l0,-1l0.011,-0c-0.004,-0 -0.007,0 -0.011,0l0,-1Zm2,2l0,-1l1,-0l0,1l-1,-0Zm2,-0l0,-1l1,-0l0,1l-1,-0Zm2,-0l0,-1l1,-0l0,1l-1,-0Zm2,-0l0,-1l1,-0l0,1l-1,-0Zm2,-0l0,-1l1,-0l0,1l-1,-0Zm2,-0l0,-1l1,-0l0,1l-1,-0Zm2,-0l0,-1l1,-0l0,1l-1,-0Zm2,-0l0,-1l1,-0l0,1l-1,-0Zm2,-0l0,-1l2,-0l0,1l-1,-0l0,-0.011c0,0.004 0,0.007 0,0.011l-1,-0Zm2,-2l-1,-0l0,-1l1,-0l0,1Zm0,-2l-1,0l0,-1l1,0l0,1Zm0,-2l-1,0l0,-1l1,0l0,1Zm0,-2l-1,0l0,-1l1,0l0,1Zm0,-2l-1,0l0,-1l1,0l0,1Zm0,-2l-1,0l0,-1l1,0l0,1Zm0,-2l-1,-0l0,-1l1,0l0,1Zm0,-2l-1,0l0,-1l1,0l0,1Zm0,-2l-1,0l0,-2c0,0.943 1,1 1,1l0,1Zm-2,-2l0,1l-1,-0l0,-1l1,-0Zm-2,-0l0,1l-1,-0l0,-1l1,-0Zm-2,-0l0,1l-1,-0l0,-1l1,-0Zm-2,-0l0,1l-1,-0l0,-1l1,-0Zm-2,-0l0,1l-1,-0l0,-1l1,-0Zm-2,-0l0,1l-1,-0l0,-1l1,-0Zm-2,-0l0,1l-1,-0l0,-1l1,-0Zm-2,-0l0,1l-1,-0l0,-1l1,-0Z" fill="#6a6bd3"/><path d="M459.002,196c0,-0 0.332,-0.637 0.613,-1l0.387,-0l0,0.011c0,-0.004 0,-0.007 0,-0.011l1,-0l0,1l-2,-0Zm0,1l1,0l0,1l-1,-0l0,-1Zm0,2l1,-0l0,1l-1,-0l0,-1Zm0,2l1,-0l0,1l-1,-0l0,-1Zm0,2l1,-0l0,1l-1,-0l0,-1Zm0,2l1,-0l0,1l-1,-0l0,-1Zm0,2l1,-0l0,1l-1,-0l0,-1Zm0,2l1,-0l0,1l-1,-0l0,-1Zm0,2l1,-0l0,1l-1,-0l0,-1Zm0,2l1,-0l0,2l-1,-0l0,-1l0.011,-0c-0.004,-0 -0.007,0 -0.011,0l0,-1Zm2,2l0,-1l1,-0l0,1l-1,-0Zm2,-0l0,-1l1,-0l0,1l-1,-0Zm2,-0l0,-1l1,-0l0,1l-1,-0Zm2,-0l0,-1l1,-0l0,1l-1,-0Zm2,-0l0,-1l1,-0l0,1l-1,-0Zm2,-0l0,-1l1,-0l0,1l-1,-0Zm2,-0l0,-1l1,-0l0,1l-1,-0Zm2,-0l0,-1l1,-0l0,1l-1,-0Zm2,-0l0,-1l2,-0l0,1l-0.989,-0l-0.011,-0.011l0,0.011l-1,-0Zm2,-2l-1,-0l0,-1l1,-0l0,1Zm0,-2l-1,0l0,-1l1,0l0,1Zm0,-2l-1,0l0,-1l1,0l0,1Zm0,-2l-1,0l0,-1l1,0l0,1Zm0,-2l-1,0l0,-1l1,0l0,1Zm0,-2l-1,0l0,-1l1,0l0,1Zm0,-2l-1,-0l0,-1l1,0l0,1Zm0,-2l-1,0l0,-1l1,0l0,1Zm0,-2l-1,0l0,-2c0,0.943 1,1 1,1l0,1Zm-2,-2l0,1l-1,-0l0,-1l1,-0Zm-2,-0l0,1l-1,-0l0,-1l1,-0Zm-2,-0l0,1l-1,-0l0,-1l1,-0Zm-2,-0l0,1l-1,-0l0,-1l1,-0Zm-2,-0l0,1l-1,-0l0,-1l1,-0Zm-2,-0l0,1l-1,-0l0,-1l1,-0Zm-2,-0l0,1l-1,-0l0,-1l1,-0Zm-2,-0l0,1l-1,-0l0,-1l1,-0Z" fill="#6a6bd3"/><path d="M472.002,203c0,1.646 -1.354,3 -3,3c-1.646,-0 -3,-1.354 -3,-3c0,-1.646 1.354,-3 3,-3c1.646,-0 3,1.354 3,3Z" fill-rule="nonzero"/><path d="M461.002,205c0,-4.389 3.611,-8 8,-8c4.389,-0 8,3.611 8,8c0,4.389 -3.611,8 -8,8c-4.389,-0 -8,-3.611 -8,-8Zm8,-7c-3.84,0 -7,3.16 -7,7c0,1.588 0.541,3.13 1.532,4.37c0.71,-1.144 2.273,-2.37 5.468,-2.37c3.195,-0 4.757,1.225 5.468,2.37c0.991,-1.24 1.532,-2.782 1.532,-4.37c-0,-3.84 -3.16,-7 -7,-7Z"/><path d="M450.537,198.016c0.132,-0.001 0.26,0.052 0.354,0.146l4.95,4.95c0.194,0.194 0.194,0.513 -0,0.707c-0.48,0.48 -1.072,0.588 -1.503,0.588c-0.177,-0 -0.335,-0.018 -0.46,-0.039l-3.134,3.134c0.082,0.332 0.136,0.671 0.16,1.013c0.046,0.702 -0.032,1.687 -0.72,2.375c-0.194,0.194 -0.513,0.194 -0.707,-0l-2.829,-2.828l-3.182,3.182c-0.195,0.195 -1.219,0.902 -1.414,0.707c-0.195,-0.195 0.512,-1.22 0.707,-1.414l3.182,-3.182l-2.828,-2.829c-0.194,-0.194 -0.194,-0.513 -0,-0.707c0.688,-0.688 1.673,-0.767 2.375,-0.72c0.341,0.024 0.68,0.077 1.013,0.16l3.134,-3.133c-0.026,-0.153 -0.04,-0.307 -0.04,-0.461c-0,-0.43 0.108,-1.022 0.589,-1.503c0.093,-0.094 0.22,-0.146 0.353,-0.146Z" fill-rule="nonzero"/><path d="M421.052,200.555c0.207,-0.907 1.02,-1.555 1.95,-1.555l12,-0c0.93,-0 1.743,0.648 1.95,1.555l-7.95,4.859l-7.95,-4.859Zm-0.05,1.142l0,7.104l5.803,-3.558l-5.803,-3.546Zm6.761,4.133l-6.57,4.026c0.331,0.698 1.037,1.145 1.809,1.144l6.256,-0c-0.17,-0.482 -0.256,-0.989 -0.256,-1.5c-0.001,-1.329 0.587,-2.592 1.606,-3.446l-0.367,-0.225l-1.239,0.757l-1.239,-0.757l0,0.001Zm9.239,-4.133l0,4.974c-0.853,-1.057 -2.141,-1.672 -3.5,-1.671c-0.681,-0.001 -1.352,0.153 -1.965,0.45l-0.338,-0.207l5.803,-3.546Z" fill-rule="nonzero"/><path d="M437.002,209.5c0,1.92 -1.58,3.5 -3.5,3.5c-1.92,-0 -3.5,-1.58 -3.5,-3.5c0,-1.92 1.58,-3.5 3.5,-3.5c1.92,-0 3.5,1.58 3.5,3.5Zm-3.5,-2c-0.274,-0 -0.5,0.226 -0.5,0.5l0,1l-1,-0c-0.274,-0 -0.5,0.226 -0.5,0.5c0,0.274 0.226,0.5 0.5,0.5l1,-0l0,1c0,0.274 0.226,0.5 0.5,0.5c0.274,-0 0.5,-0.226 0.5,-0.5l0,-1l1,-0c0.274,-0 0.5,-0.226 0.5,-0.5c0,-0.274 -0.226,-0.5 -0.5,-0.5l-1,-0l0,-1c0,-0.274 -0.226,-0.5 -0.5,-0.5Z" fill-rule="nonzero"/><path d="M409.709,198.395c-0.388,-0.387 -1.026,-0.387 -1.414,0l-6.647,6.646c-0.094,0.094 -0.147,0.222 -0.147,0.354c0,0.275 0.226,0.501 0.501,0.501c0.133,0 0.26,-0.053 0.354,-0.147l6.646,-6.647l6.646,6.647c0.094,0.094 0.221,0.147 0.354,0.147c0.275,0 0.501,-0.226 0.501,-0.501c-0,-0.132 -0.053,-0.26 -0.147,-0.354l-2.354,-2.353l0,-3.293c0,-0.274 -0.226,-0.5 -0.5,-0.5l-1,0c-0.274,0 -0.5,0.226 -0.5,0.5l0,1.293l-2.293,-2.293Z" fill-rule="nonzero"/><path d="M409.002,200.188l6,6l0,4.207c0,0.823 -0.677,1.5 -1.5,1.5l-9,0c-0.823,0 -1.5,-0.677 -1.5,-1.5l0,-4.207l6,-6Z" fill-rule="nonzero"/><path d="M389.002,197c4.389,-0 8,3.611 8,8c0,4.389 -3.611,8 -8,8c-4.389,-0 -8,-3.611 -8,-8c0,-4.389 3.611,-8 8,-8Zm-3.5,7.5c-0.274,-0 -0.5,0.226 -0.5,0.5c0,0.274 0.226,0.5 0.5,0.5l5.793,-0l-2.147,2.146c-0.094,0.094 -0.147,0.221 -0.147,0.354c0,0.275 0.226,0.501 0.501,0.501c0.133,-0 0.26,-0.053 0.354,-0.147l3,-3c0.094,-0.094 0.147,-0.221 0.147,-0.354c0,-0.133 -0.053,-0.26 -0.147,-0.354l-3,-3c-0.094,-0.094 -0.221,-0.147 -0.354,-0.147c-0.275,0 -0.501,0.226 -0.501,0.501c0,0.133 0.053,0.26 0.147,0.354l2.147,2.146l-5.793,-0Z" fill-rule="nonzero"/><path d="M369.002,197c-4.389,-0 -8,3.611 -8,8c0,4.389 3.611,8 8,8c4.389,-0 8,-3.611 8,-8c0,-4.389 -3.611,-8 -8,-8Zm3.5,7.5c0.274,-0 0.5,0.226 0.5,0.5c0,0.274 -0.226,0.5 -0.5,0.5l-5.793,-0l2.147,2.146c0.094,0.094 0.147,0.221 0.147,0.354c-0,0.275 -0.226,0.501 -0.501,0.501c-0.133,-0 -0.26,-0.053 -0.354,-0.147l-3,-3c-0.094,-0.094 -0.147,-0.221 -0.147,-0.354c0,-0.133 0.053,-0.26 0.147,-0.354l3,-3c0.094,-0.094 0.221,-0.147 0.354,-0.147c0.275,0 0.501,0.226 0.501,0.501c-0,0.133 -0.053,0.26 -0.147,0.354l-2.147,2.146l5.793,-0Z" fill-rule="nonzero"/><path d="M357.502,220.5l0,8" fill="none" stroke="#000" stroke-width="1px" stroke-miterlimit="10"/><path d="M380.502,220.5l0,8" fill="none" stroke="#000" stroke-width="1px" stroke-miterlimit="10"/><path d="M357.502,224.5l23,-0" fill="none" stroke="#000" stroke-width="1px"/><path d="M358.392,234.432c-0.036,-1.021 0.468,-2.113 1.657,-2.113c0.9,0 1.645,0.612 1.645,1.536c-0,1.177 -0.733,1.705 -2.173,2.593c-1.201,0.744 -2.219,1.464 -2.387,3.479l5.554,0l0,-0.898l-4.368,-0c0.204,-1.057 1.321,-1.597 2.389,-2.245c1.056,-0.66 2.063,-1.416 2.063,-2.917c0,-1.584 -1.175,-2.446 -2.663,-2.446c-1.801,-0 -2.819,1.282 -2.735,3.011l1.018,-0Z" fill-rule="nonzero"/><path d="M368.544,231.421l-0.815,-0l-3.875,5.532l-0,0.982l3.732,0l-0,1.992l0.958,0l0,-1.992l1.152,0l0,-0.898l-1.152,-0l0,-5.616Zm-3.814,5.616l2.832,-4.164l0.024,-0l-0,4.164l-2.856,-0Z" fill-rule="nonzero"/><path d="M375.794,236.772c-0,1.212 -0.469,2.401 -1.861,2.401c-1.405,-0 -1.957,-1.129 -1.957,-2.353c0,-1.164 0.528,-2.341 1.897,-2.341c1.32,0 1.921,1.128 1.921,2.293Zm-4.8,5.531l1.018,0l0,-3.202l0.024,-0c0.456,0.731 1.369,0.97 2.005,0.97c1.896,0 2.831,-1.475 2.831,-3.227c0,-1.753 -0.947,-3.263 -2.855,-3.263c-0.853,-0 -1.645,0.299 -1.981,0.982l-0.024,0l0,-0.838l-1.018,-0l-0,8.578Z" fill-rule="nonzero"/><path d="M377.414,239.927l1.235,0l1.728,-2.577l1.727,2.577l1.308,0l-2.399,-3.36l2.135,-2.842l-1.224,-0l-1.547,2.161l-1.488,-2.161l-1.308,-0l2.16,2.938l-2.327,3.264Z" fill-rule="nonzero"/><path d="M392.892,235.716c-0.144,-1.476 -1.272,-2.135 -2.676,-2.135c-1.968,-0 -2.926,1.462 -2.926,3.323c-0,1.849 1.006,3.167 2.902,3.167c1.56,0 2.508,-0.898 2.736,-2.411l-1.044,0c-0.132,0.936 -0.72,1.513 -1.704,1.513c-1.296,-0 -1.812,-1.129 -1.812,-2.269c0,-1.26 0.456,-2.425 1.932,-2.425c0.84,0 1.38,0.456 1.536,1.237l1.056,-0Z" fill-rule="nonzero"/><path d="M394.13,239.927l1.018,0l0,-6.202l-1.018,-0l-0,6.202Zm1.018,-8.566l-1.018,-0l-0,1.246l1.018,0l0,-1.246Z" fill-rule="nonzero"/><path d="M396.698,239.927l1.018,0l0,-2.76c0,-1.572 0.6,-2.508 2.244,-2.508l0,-1.078c-1.104,-0.036 -1.788,0.455 -2.28,1.45l-0.024,0l0,-1.306l-0.958,-0l-0,6.202Z" fill-rule="nonzero"/><path d="M405.78,235.716c-0.144,-1.476 -1.272,-2.135 -2.676,-2.135c-1.968,-0 -2.926,1.462 -2.926,3.323c-0,1.849 1.006,3.167 2.902,3.167c1.56,0 2.508,-0.898 2.736,-2.411l-1.044,0c-0.132,0.936 -0.72,1.513 -1.704,1.513c-1.296,-0 -1.812,-1.129 -1.812,-2.269c0,-1.26 0.456,-2.425 1.932,-2.425c0.84,0 1.38,0.456 1.536,1.237l1.056,-0Z" fill-rule="nonzero"/><rect x="407.018" y="231.361" width="1.018" height="8.567" fill-rule="nonzero"/><path d="M413.906,237.96c-0.181,0.804 -0.769,1.213 -1.609,1.213c-1.357,-0 -1.969,-0.961 -1.933,-2.042l4.644,0c0.06,-1.499 -0.611,-3.55 -2.807,-3.55c-1.693,-0 -2.915,1.367 -2.915,3.227c0.059,1.896 0.994,3.263 2.975,3.263c1.392,0 2.376,-0.743 2.651,-2.111l-1.006,-0Zm-3.542,-1.727c0.072,-0.949 0.708,-1.754 1.777,-1.754c1.008,0 1.741,0.781 1.789,1.754l-3.566,-0Z" fill-rule="nonzero"/><path d="M415.67,237.972c0.059,1.536 1.234,2.099 2.627,2.099c1.26,0 2.639,-0.479 2.639,-1.955c0,-1.2 -1.007,-1.536 -2.027,-1.764c-0.948,-0.228 -2.029,-0.348 -2.029,-1.081c0,-0.624 0.708,-0.792 1.321,-0.792c0.672,0 1.368,0.252 1.441,1.044l1.018,0c-0.084,-1.511 -1.175,-1.942 -2.543,-1.942c-1.081,-0 -2.315,0.515 -2.315,1.762c-0,1.189 1.018,1.525 2.027,1.753c1.02,0.228 2.029,0.36 2.029,1.152c-0,0.781 -0.865,0.925 -1.501,0.925c-0.841,-0 -1.633,-0.288 -1.669,-1.201l-1.018,0Z" fill-rule="nonzero"/><path d="M425.066,236.832c-0,1.812 1.042,3.239 3.011,3.239c1.968,0 3.011,-1.427 3.011,-3.239c0,-1.825 -1.043,-3.251 -3.011,-3.251c-1.969,-0 -3.011,1.426 -3.011,3.251Zm1.078,-0c0,-1.513 0.864,-2.353 1.933,-2.353c1.068,0 1.933,0.84 1.933,2.353c-0,1.5 -0.865,2.341 -1.933,2.341c-1.069,-0 -1.933,-0.841 -1.933,-2.341Z" fill-rule="nonzero"/><path d="M437.352,233.725l-1.068,-0l-1.691,5.172l-0.024,-0l-1.74,-5.172l-1.139,-0l2.303,6.202l1.092,0l2.267,-6.202Z" fill-rule="nonzero"/><path d="M442.574,237.96c-0.181,0.804 -0.769,1.213 -1.609,1.213c-1.357,-0 -1.969,-0.961 -1.933,-2.042l4.644,0c0.06,-1.499 -0.611,-3.55 -2.807,-3.55c-1.693,-0 -2.915,1.367 -2.915,3.227c0.059,1.896 0.994,3.263 2.975,3.263c1.392,0 2.376,-0.743 2.651,-2.111l-1.006,-0Zm-3.542,-1.727c0.072,-0.949 0.708,-1.754 1.777,-1.754c1.008,0 1.741,0.781 1.789,1.754l-3.566,-0Z" fill-rule="nonzero"/><path d="M444.698,239.927l1.018,0l0,-2.76c0,-1.572 0.6,-2.508 2.244,-2.508l0,-1.078c-1.104,-0.036 -1.788,0.455 -2.28,1.45l-0.024,0l0,-1.306l-0.958,-0l-0,6.202Z" fill-rule="nonzero"/><rect x="448.79" y="231.361" width="1.018" height="8.567" fill-rule="nonzero"/><path d="M455.234,237.768c-0,0.564 -0.553,1.405 -1.897,1.405c-0.625,-0 -1.201,-0.24 -1.201,-0.913c0,-0.756 0.576,-0.996 1.249,-1.116c0.684,-0.12 1.452,-0.132 1.849,-0.42l-0,1.044Zm1.654,1.345c-0.132,0.048 -0.228,0.06 -0.312,0.06c-0.324,-0 -0.324,-0.216 -0.324,-0.697l0,-3.193c0,-1.451 -1.211,-1.702 -2.327,-1.702c-1.381,-0 -2.568,0.539 -2.627,2.075l1.018,-0c0.048,-0.913 0.684,-1.177 1.549,-1.177c0.648,0 1.381,0.144 1.381,1.032c-0,0.769 -0.961,0.697 -2.09,0.913c-1.056,0.204 -2.098,0.504 -2.098,1.908c-0,1.236 0.922,1.739 2.05,1.739c0.865,0 1.621,-0.299 2.185,-0.958c0,0.671 0.336,0.958 0.863,0.958c0.324,0 0.552,-0.06 0.732,-0.168l0,-0.79Z" fill-rule="nonzero"/><path d="M462.674,236.772c-0,1.212 -0.469,2.401 -1.861,2.401c-1.405,-0 -1.957,-1.129 -1.957,-2.353c0,-1.164 0.528,-2.341 1.897,-2.341c1.32,0 1.921,1.128 1.921,2.293Zm-4.8,5.531l1.018,0l0,-3.202l0.024,-0c0.456,0.731 1.369,0.97 2.005,0.97c1.896,0 2.831,-1.475 2.831,-3.227c0,-1.753 -0.947,-3.263 -2.855,-3.263c-0.853,-0 -1.645,0.299 -1.981,0.982l-0.024,0l0,-0.838l-1.018,-0l-0,8.578Z" fill-rule="nonzero"/><circle cx="369.002" cy="205" r="12" fill="#ca2626" fill-opacity=".2"/><path d="M369.002,193c6.623,-0 12,5.377 12,12c0,6.623 -5.377,12 -12,12c-6.623,-0 -12,-5.377 -12,-12c0,-6.623 5.377,-12 12,-12Zm0,1c-6.071,-0 -11,4.929 -11,11c0,6.071 4.929,11 11,11c6.071,-0 11,-4.929 11,-11c0,-6.071 -4.929,-11 -11,-11Z" fill="#ca2626"/><circle cx="389.002" cy="205" r="12" fill="#ca2626" fill-opacity=".2"/><path d="M389.002,193c6.623,-0 12,5.377 12,12c0,6.623 -5.377,12 -12,12c-6.623,-0 -12,-5.377 -12,-12c0,-6.623 5.377,-12 12,-12Zm0,1c-6.071,-0 -11,4.929 -11,11c0,6.071 4.929,11 11,11c6.071,-0 11,-4.929 11,-11c0,-6.071 -4.929,-11 -11,-11Z" fill="#ca2626"/><circle cx="409.035" cy="205" r="12" fill="#ca2626" fill-opacity=".2"/><path d="M409.035,193c6.623,-0 12,5.377 12,12c0,6.623 -5.377,12 -12,12c-6.623,-0 -12,-5.377 -12,-12c0,-6.623 5.377,-12 12,-12Zm0,1c-6.071,-0 -11,4.929 -11,11c0,6.071 4.929,11 11,11c6.072,-0 11,-4.929 11,-11c0,-6.071 -4.928,-11 -11,-11Z" fill="#ca2626"/><circle cx="429.035" cy="205" r="12" fill="#ca2626" fill-opacity=".2"/><path d="M429.035,193c6.623,-0 12,5.377 12,12c0,6.623 -5.377,12 -12,12c-6.623,-0 -12,-5.377 -12,-12c0,-6.623 5.377,-12 12,-12Zm0,1c-6.071,-0 -11,4.929 -11,11c0,6.071 4.929,11 11,11c6.072,-0 11,-4.929 11,-11c0,-6.071 -4.928,-11 -11,-11Z" fill="#ca2626"/><circle cx="449.002" cy="205" r="12" fill="#ca2626" fill-opacity=".2"/><path d="M449.002,193c6.623,-0 12,5.377 12,12c0,6.623 -5.377,12 -12,12c-6.623,-0 -12,-5.377 -12,-12c0,-6.623 5.377,-12 12,-12Zm0,1c-6.071,-0 -11,4.929 -11,11c0,6.071 4.929,11 11,11c6.071,-0 11,-4.929 11,-11c0,-6.071 -4.929,-11 -11,-11Z" fill="#ca2626"/><circle cx="469.002" cy="205" r="12" fill="#ca2626" fill-opacity=".2"/><path d="M469.002,193c6.623,-0 12,5.377 12,12c0,6.623 -5.377,12 -12,12c-6.623,-0 -12,-5.377 -12,-12c0,-6.623 5.377,-12 12,-12Zm0,1c-6.071,-0 -11,4.929 -11,11c0,6.071 4.929,11 11,11c6.071,-0 11,-4.929 11,-11c0,-6.071 -4.929,-11 -11,-11Z" fill="#ca2626"/></g></svg>