<svg viewBox="0 0 560 265" xmlns="http://www.w3.org/2000/svg" xml:space="preserve" fill-rule="evenodd" clip-rule="evenodd" stroke-miterlimit="1"><rect width="560" height="265" fill="none"/><clipPath id="a"><rect width="560" height="265"/></clipPath><g clip-path="url(#a)"><rect x="-0" width="560" height="265" fill="#fff"/><path d="M10,87.5l540,-0" fill="none" stroke="#ddd" stroke-width="1px"/><path d="M10,172.5l540,-0" fill="none" stroke="#ddd" stroke-width="1px"/><path d="M59.002,26c0,-0 0.332,-0.637 0.613,-1l0.387,0l0,0.011c0,-0.004 0,-0.007 0,-0.011l1,0l0,1l-2,-0Zm0,1l1,-0l0,1l-1,-0l0,-1Zm0,2l1,0l0,1l-1,0l0,-1Zm0,2l1,0l0,1l-1,0l0,-1Zm0,2l1,0l0,1l-1,0l0,-1Zm0,2l1,-0l0,1l-1,-0l0,-1Zm0,2l1,-0l0,1l-1,0l0,-1Zm0,2l1,0l0,1l-1,-0l0,-1Zm0,2l1,0l0,1l-1,0l0,-1Zm0,2l1,-0l0,1l-1,0l0,-1Zm0,2l1,-0l0,1l-1,-0l0,-1Zm0,2l1,-0l0,2l-1,-0l0,-1l0.011,-0c-0.004,-0 -0.007,0 -0.011,0l0,-1Zm2,2l0,-1l1,-0l0,1l-1,-0Zm2,-0l0,-1l1,0l0,1l-1,-0Zm2,-0l0,-1l1,-0l0,1l-1,-0Zm2,-0l0,-1l1,-0l0,1l-1,-0Zm2,-0l0,-1l1,-0l0,1l-1,-0Zm2,-0l0,-1l1,-0l0,1l-1,-0Zm2,-0l0,-1l1,-0l0,1l-1,-0Zm2,-0l0,-1l1,0l0,1l-1,-0Zm2,-0l0,-1l1,0l0,1l-1,-0Zm2,-0l0,-1l1,-0l0,1l-1,-0Zm2,-0l0,-1l2,0l0,1l-1,-0l0,-0.011c0,0.004 0,0.007 0,0.011l-1,-0Zm2,-2l-1,0l0,-1l1,0l0,1Zm0,-2l-1,-0l0,-1l1,-0l0,1Zm0,-2l-1,-0l0,-1l1,-0l0,1Zm0,-2l-1,-0l0,-1l1,-0l0,1Zm0,-2l-1,0l0,-1l1,0l0,1Zm0,-2l-1,0l0,-1l1,-0l0,1Zm0,-2l-1,-0l0,-1l1,0l0,1Zm0,-2l-1,-0l0,-1l1,-0l0,1Zm0,-2l-1,0l0,-1l1,-0l0,1Zm0,-2l-1,0l0,-1l1,0l0,1Zm0,-2l-1,0l0,-2c0,0.943 1,1 1,1l0,1Zm-2,-2l0,1l-1,-0l0,-1l1,0Zm-2,0l0,1l-1,-0l0,-1l1,0Zm-2,0l0,1l-1,-0l0,-1l1,0Zm-2,0l0,1l-1,-0l0,-1l1,0Zm-2,0l0,1l-1,-0l0,-1l1,0Zm-2,0l0,1l-1,-0l0,-1l1,0Zm-2,0l0,1l-1,-0l0,-1l1,0Zm-2,0l0,1l-1,-0l0,-1l1,0Zm-2,0l0,1l-1,0l0,-1l1,0Zm-2,0l0,1l-1,-0l0,-1l1,0Z" fill="#6a6bd3"/><path d="M83.002,26c0,-0 0.332,-0.637 0.613,-1l0.387,0l0,0.011c0,-0.004 0,-0.007 0,-0.011l1,0l0,1l-2,-0Zm0,1l1,-0l0,1l-1,-0l0,-1Zm0,2l1,0l0,1l-1,0l0,-1Zm0,2l1,0l0,1l-1,0l0,-1Zm0,2l1,0l0,1l-1,0l0,-1Zm0,2l1,-0l0,1l-1,-0l0,-1Zm0,2l1,-0l0,1l-1,0l0,-1Zm0,2l1,0l0,1l-1,-0l0,-1Zm0,2l1,0l0,1l-1,0l0,-1Zm0,2l1,-0l0,1l-1,0l0,-1Zm0,2l1,-0l0,1l-1,-0l0,-1Zm0,2l1,-0l0,2l-1,-0l0,-1l0.011,-0c-0.004,-0 -0.007,0 -0.011,0l0,-1Zm2,2l0,-1l1,-0l0,1l-1,-0Zm2,-0l0,-1l1,0l0,1l-1,-0Zm2,-0l0,-1l1,-0l0,1l-1,-0Zm2,-0l0,-1l1,-0l0,1l-1,-0Zm2,-0l0,-1l1,-0l0,1l-1,-0Zm2,-0l0,-1l1,-0l0,1l-1,-0Zm2,-0l0,-1l1,-0l0,1l-1,-0Zm2,-0l0,-1l1,0l0,1l-1,-0Zm2,-0l0,-1l1,0l0,1l-1,-0Zm2,-0l0,-1l1,-0l0,1l-1,-0Zm2,-0l0,-1l2,0l0,1l-1,-0l0,-0.011c0,0.004 0,0.007 0,0.011l-1,-0Zm2,-2l-1,0l0,-1l1,0l0,1Zm0,-2l-1,-0l0,-1l1,-0l0,1Zm0,-2l-1,-0l0,-1l1,-0l0,1Zm0,-2l-1,-0l0,-1l1,-0l0,1Zm0,-2l-1,0l0,-1l1,0l0,1Zm0,-2l-1,0l0,-1l1,-0l0,1Zm0,-2l-1,-0l0,-1l1,0l0,1Zm0,-2l-1,-0l0,-1l1,-0l0,1Zm0,-2l-1,0l0,-1l1,-0l0,1Zm0,-2l-1,0l0,-1l1,0l0,1Zm0,-2l-1,0l0,-2c0,0.943 1,1 1,1l0,1Zm-2,-2l0,1l-1,-0l0,-1l1,0Zm-2,0l0,1l-1,-0l0,-1l1,0Zm-2,0l0,1l-1,-0l0,-1l1,0Zm-2,0l0,1l-1,-0l0,-1l1,0Zm-2,0l0,1l-1,-0l0,-1l1,0Zm-2,0l0,1l-1,-0l0,-1l1,0Zm-2,0l0,1l-1,-0l0,-1l1,0Zm-2,0l0,1l-1,-0l0,-1l1,0Zm-2,0l0,1l-1,0l0,-1l1,0Zm-2,0l0,1l-1,-0l0,-1l1,0Z" fill="#6a6bd3"/><path d="M107.002,26c0,-0 0.332,-0.637 0.613,-1l0.387,0l0,0.011c0,-0.004 0,-0.007 0,-0.011l1,0l0,1l-2,-0Zm0,1l1,-0l0,1l-1,-0l0,-1Zm0,2l1,0l0,1l-1,0l0,-1Zm0,2l1,0l0,1l-1,0l0,-1Zm0,2l1,0l0,1l-1,0l0,-1Zm0,2l1,-0l0,1l-1,-0l0,-1Zm0,2l1,-0l0,1l-1,0l0,-1Zm0,2l1,0l0,1l-1,-0l0,-1Zm0,2l1,0l0,1l-1,0l0,-1Zm0,2l1,-0l0,1l-1,0l0,-1Zm0,2l1,-0l0,1l-1,-0l0,-1Zm0,2l1,-0l0,2l-1,-0l0,-1l0.011,-0c-0.004,-0 -0.007,0 -0.011,0l0,-1Zm2,2l0,-1l1,-0l0,1l-1,-0Zm2,-0l0,-1l1,0l0,1l-1,-0Zm2,-0l0,-1l1,-0l0,1l-1,-0Zm2,-0l0,-1l1,-0l0,1l-1,-0Zm2,-0l0,-1l1,-0l0,1l-1,-0Zm2,-0l0,-1l1,-0l0,1l-1,-0Zm2,-0l0,-1l1,-0l0,1l-1,-0Zm2,-0l0,-1l1,0l0,1l-1,-0Zm2,-0l0,-1l1,0l0,1l-1,-0Zm2,-0l0,-1l1,-0l0,1l-1,-0Zm2,-0l0,-1l2,0l0,1l-1,-0l0,-0.011c0,0.004 0,0.007 0,0.011l-1,-0Zm2,-2l-1,0l0,-1l1,0l0,1Zm0,-2l-1,-0l0,-1l1,-0l0,1Zm0,-2l-1,-0l0,-1l1,-0l0,1Zm0,-2l-1,-0l0,-1l1,-0l0,1Zm0,-2l-1,0l0,-1l1,0l0,1Zm0,-2l-1,0l0,-1l1,-0l0,1Zm0,-2l-1,-0l0,-1l1,0l0,1Zm0,-2l-1,-0l0,-1l1,-0l0,1Zm0,-2l-1,0l0,-1l1,-0l0,1Zm0,-2l-1,0l0,-1l1,0l0,1Zm0,-2l-1,0l0,-2c0,0.943 1,1 1,1l0,1Zm-2,-2l0,1l-1,-0l0,-1l1,0Zm-2,0l0,1l-1,-0l0,-1l1,0Zm-2,0l0,1l-1,-0l0,-1l1,0Zm-2,0l0,1l-1,-0l0,-1l1,0Zm-2,0l0,1l-1,-0l0,-1l1,0Zm-2,0l0,1l-1,-0l0,-1l1,0Zm-2,0l0,1l-1,-0l0,-1l1,0Zm-2,0l0,1l-1,-0l0,-1l1,0Zm-2,0l0,1l-1,0l0,-1l1,0Zm-2,0l0,1l-1,-0l0,-1l1,0Z" fill="#6a6bd3"/><path d="M131.002,26c0,-0 0.332,-0.637 0.613,-1l0.387,0l0,0.011c0,-0.004 0,-0.007 0,-0.011l1,0l0,1l-2,-0Zm0,1l1,-0l0,1l-1,-0l0,-1Zm0,2l1,0l0,1l-1,0l0,-1Zm0,2l1,0l0,1l-1,0l0,-1Zm0,2l1,0l0,1l-1,0l0,-1Zm0,2l1,-0l0,1l-1,-0l0,-1Zm0,2l1,-0l0,1l-1,0l0,-1Zm0,2l1,0l0,1l-1,-0l0,-1Zm0,2l1,0l0,1l-1,0l0,-1Zm0,2l1,-0l0,1l-1,0l0,-1Zm0,2l1,-0l0,1l-1,-0l0,-1Zm0,2l1,-0l0,2l-1,-0l0,-1l0.011,-0c-0.004,-0 -0.007,0 -0.011,0l0,-1Zm2,2l0,-1l1,-0l0,1l-1,-0Zm2,-0l0,-1l1,0l0,1l-1,-0Zm2,-0l0,-1l1,-0l0,1l-1,-0Zm2,-0l0,-1l1,-0l0,1l-1,-0Zm2,-0l0,-1l1,-0l0,1l-1,-0Zm2,-0l0,-1l1,-0l0,1l-1,-0Zm2,-0l0,-1l1,-0l0,1l-1,-0Zm2,-0l0,-1l1,0l0,1l-1,-0Zm2,-0l0,-1l1,0l0,1l-1,-0Zm2,-0l0,-1l1,-0l0,1l-1,-0Zm2,-0l0,-1l2,0l0,1l-1,-0l0,-0.011c0,0.004 0,0.007 0,0.011l-1,-0Zm2,-2l-1,0l0,-1l1,0l0,1Zm0,-2l-1,-0l0,-1l1,-0l0,1Zm0,-2l-1,-0l0,-1l1,-0l0,1Zm0,-2l-1,-0l0,-1l1,-0l0,1Zm0,-2l-1,0l0,-1l1,0l0,1Zm0,-2l-1,0l0,-1l1,-0l0,1Zm0,-2l-1,-0l0,-1l1,0l0,1Zm0,-2l-1,-0l0,-1l1,-0l0,1Zm0,-2l-1,0l0,-1l1,-0l0,1Zm0,-2l-1,0l0,-1l1,0l0,1Zm0,-2l-1,0l0,-2c0,0.943 1,1 1,1l0,1Zm-2,-2l0,1l-1,-0l0,-1l1,0Zm-2,0l0,1l-1,-0l0,-1l1,0Zm-2,0l0,1l-1,-0l0,-1l1,0Zm-2,0l0,1l-1,-0l0,-1l1,0Zm-2,0l0,1l-1,-0l0,-1l1,0Zm-2,0l0,1l-1,-0l0,-1l1,0Zm-2,0l0,1l-1,-0l0,-1l1,0Zm-2,0l0,1l-1,-0l0,-1l1,0Zm-2,0l0,1l-1,0l0,-1l1,0Zm-2,0l0,1l-1,-0l0,-1l1,0Z" fill="#6a6bd3"/><path d="M155.002,26c0,-0 0.332,-0.637 0.613,-1l0.387,0l0,0.011c0,-0.004 0,-0.007 0,-0.011l1,0l0,1l-2,-0Zm0,1l1,-0l0,1l-1,-0l0,-1Zm0,2l1,0l0,1l-1,0l0,-1Zm0,2l1,0l0,1l-1,0l0,-1Zm0,2l1,0l0,1l-1,0l0,-1Zm0,2l1,-0l0,1l-1,-0l0,-1Zm0,2l1,-0l0,1l-1,0l0,-1Zm0,2l1,0l0,1l-1,-0l0,-1Zm0,2l1,0l0,1l-1,0l0,-1Zm0,2l1,-0l0,1l-1,0l0,-1Zm0,2l1,-0l0,1l-1,-0l0,-1Zm0,2l1,-0l0,2l-1,-0l0,-1l0.011,-0c-0.004,-0 -0.007,0 -0.011,0l0,-1Zm2,2l0,-1l1,-0l0,1l-1,-0Zm2,-0l0,-1l1,0l0,1l-1,-0Zm2,-0l0,-1l1,-0l0,1l-1,-0Zm2,-0l0,-1l1,-0l0,1l-1,-0Zm2,-0l0,-1l1,-0l0,1l-1,-0Zm2,-0l0,-1l1,-0l0,1l-1,-0Zm2,-0l0,-1l1,-0l0,1l-1,-0Zm2,-0l0,-1l1,0l0,1l-1,-0Zm2,-0l0,-1l1,0l0,1l-1,-0Zm2,-0l0,-1l1,-0l0,1l-1,-0Zm2,-0l0,-1l2,0l0,1l-0.989,-0l-0.011,-0.011l0,0.011l-1,-0Zm2,-2l-1,0l0,-1l1,0l0,1Zm0,-2l-1,-0l0,-1l1,-0l0,1Zm0,-2l-1,-0l0,-1l1,-0l0,1Zm0,-2l-1,-0l0,-1l1,-0l0,1Zm0,-2l-1,0l0,-1l1,0l0,1Zm0,-2l-1,0l0,-1l1,-0l0,1Zm0,-2l-1,-0l0,-1l1,0l0,1Zm0,-2l-1,-0l0,-1l1,-0l0,1Zm0,-2l-1,0l0,-1l1,-0l0,1Zm0,-2l-1,0l0,-1l1,0l0,1Zm0,-2l-1,0l0,-2c0,0.943 1,1 1,1l0,1Zm-2,-2l0,1l-1,-0l0,-1l1,0Zm-2,0l0,1l-1,-0l0,-1l1,0Zm-2,0l0,1l-1,-0l0,-1l1,0Zm-2,0l0,1l-1,-0l0,-1l1,0Zm-2,0l0,1l-1,-0l0,-1l1,0Zm-2,0l0,1l-1,-0l0,-1l1,0Zm-2,0l0,1l-1,-0l0,-1l1,0Zm-2,0l0,1l-1,-0l0,-1l1,0Zm-2,0l0,1l-1,0l0,-1l1,0Zm-2,0l0,1l-1,-0l0,-1l1,0Z" fill="#6a6bd3"/><path d="M179.002,26c0,-0 0.332,-0.637 0.613,-1l0.387,0l0,0.011c0,-0.004 0,-0.007 0,-0.011l1,0l0,1l-2,-0Zm0,1l1,-0l0,1l-1,-0l0,-1Zm0,2l1,0l0,1l-1,0l0,-1Zm0,2l1,0l0,1l-1,0l0,-1Zm0,2l1,0l0,1l-1,0l0,-1Zm0,2l1,-0l0,1l-1,-0l0,-1Zm0,2l1,-0l0,1l-1,0l0,-1Zm0,2l1,0l0,1l-1,-0l0,-1Zm0,2l1,0l0,1l-1,0l0,-1Zm0,2l1,-0l0,1l-1,0l0,-1Zm0,2l1,-0l0,1l-1,-0l0,-1Zm0,2l1,-0l0,2l-1,-0l0,-1l0.011,-0c-0.004,-0 -0.007,0 -0.011,0l0,-1Zm2,2l0,-1l1,-0l0,1l-1,-0Zm2,-0l0,-1l1,0l0,1l-1,-0Zm2,-0l0,-1l1,-0l0,1l-1,-0Zm2,-0l0,-1l1,-0l0,1l-1,-0Zm2,-0l0,-1l1,-0l0,1l-1,-0Zm2,-0l0,-1l1,-0l0,1l-1,-0Zm2,-0l0,-1l1,-0l0,1l-1,-0Zm2,-0l0,-1l1,0l0,1l-1,-0Zm2,-0l0,-1l1,0l0,1l-1,-0Zm2,-0l0,-1l1,-0l0,1l-1,-0Zm2,-0l0,-1l2,0l0,1l-1,-0l0,-0.011c0,0.004 0,0.007 0,0.011l-1,-0Zm2,-2l-1,0l0,-1l1,0l0,1Zm0,-2l-1,-0l0,-1l1,-0l0,1Zm0,-2l-1,-0l0,-1l1,-0l0,1Zm0,-2l-1,-0l0,-1l1,-0l0,1Zm0,-2l-1,0l0,-1l1,0l0,1Zm0,-2l-1,0l0,-1l1,-0l0,1Zm0,-2l-1,-0l0,-1l1,0l0,1Zm0,-2l-1,-0l0,-1l1,-0l0,1Zm0,-2l-1,0l0,-1l1,-0l0,1Zm0,-2l-1,0l0,-1l1,0l0,1Zm0,-2l-1,0l0,-2c0,0.943 1,1 1,1l0,1Zm-2,-2l0,1l-1,-0l0,-1l1,0Zm-2,0l0,1l-1,-0l0,-1l1,0Zm-2,0l0,1l-1,-0l0,-1l1,0Zm-2,0l0,1l-1,-0l0,-1l1,0Zm-2,0l0,1l-1,-0l0,-1l1,0Zm-2,0l0,1l-1,-0l0,-1l1,0Zm-2,0l0,1l-1,-0l0,-1l1,0Zm-2,0l0,1l-1,-0l0,-1l1,0Zm-2,0l0,1l-1,0l0,-1l1,0Zm-2,0l0,1l-1,-0l0,-1l1,0Z" fill="#6a6bd3"/><path d="M194.002,35c0,1.646 -1.354,3 -3,3c-1.646,-0 -3,-1.354 -3,-3c0,-1.646 1.354,-3 3,-3c1.646,-0 3,1.354 3,3Z" fill-rule="nonzero"/><path d="M183.002,37c0,-4.389 3.611,-8 8,-8c4.389,-0 8,3.611 8,8c0,4.389 -3.611,8 -8,8c-4.389,-0 -8,-3.611 -8,-8Zm8,-7c-3.84,0 -7,3.16 -7,7c0,1.588 0.541,3.13 1.532,4.37c0.71,-1.144 2.273,-2.37 5.468,-2.37c3.195,-0 4.757,1.225 5.468,2.37c0.991,-1.24 1.532,-2.782 1.532,-4.37c-0,-3.84 -3.16,-7 -7,-7Z"/><path d="M168.537,30.016c0.132,-0.001 0.26,0.052 0.354,0.146l4.95,4.95c0.194,0.194 0.194,0.513 -0,0.707c-0.48,0.48 -1.072,0.588 -1.503,0.588c-0.177,-0 -0.335,-0.018 -0.46,-0.039l-3.134,3.134c0.082,0.332 0.136,0.671 0.16,1.013c0.046,0.702 -0.032,1.687 -0.72,2.375c-0.194,0.194 -0.513,0.194 -0.707,-0l-2.829,-2.828l-3.182,3.182c-0.195,0.195 -1.219,0.902 -1.414,0.707c-0.195,-0.195 0.512,-1.22 0.707,-1.414l3.182,-3.182l-2.828,-2.829c-0.194,-0.194 -0.194,-0.513 -0,-0.707c0.688,-0.688 1.673,-0.767 2.375,-0.72c0.341,0.024 0.68,0.077 1.013,0.16l3.134,-3.133c-0.026,-0.153 -0.04,-0.307 -0.04,-0.461c-0,-0.43 0.108,-1.022 0.589,-1.503c0.093,-0.094 0.22,-0.146 0.353,-0.146Z" fill-rule="nonzero"/><path d="M135.052,32.555c0.207,-0.907 1.02,-1.555 1.95,-1.555l12,0c0.93,-0 1.743,0.648 1.95,1.555l-7.95,4.859l-7.95,-4.859Zm-0.05,1.142l0,7.104l5.803,-3.558l-5.803,-3.546Zm6.761,4.133l-6.57,4.026c0.331,0.698 1.037,1.145 1.809,1.144l6.256,0c-0.17,-0.482 -0.256,-0.989 -0.256,-1.5c-0.001,-1.329 0.587,-2.592 1.606,-3.446l-0.367,-0.225l-1.239,0.757l-1.239,-0.757l0,0.001Zm9.239,-4.133l0,4.974c-0.853,-1.057 -2.141,-1.672 -3.5,-1.671c-0.681,-0.001 -1.352,0.153 -1.965,0.45l-0.338,-0.207l5.803,-3.546Z" fill-rule="nonzero"/><path d="M151.002,41.5c0,1.92 -1.58,3.5 -3.5,3.5c-1.92,0 -3.5,-1.58 -3.5,-3.5c0,-1.92 1.58,-3.5 3.5,-3.5c1.92,0 3.5,1.58 3.5,3.5Zm-3.5,-2c-0.274,0 -0.5,0.226 -0.5,0.5l0,1l-1,0c-0.274,0 -0.5,0.226 -0.5,0.5c0,0.274 0.226,0.5 0.5,0.5l1,0l0,1c0,0.274 0.226,0.5 0.5,0.5c0.274,0 0.5,-0.226 0.5,-0.5l0,-1l1,0c0.274,0 0.5,-0.226 0.5,-0.5c0,-0.274 -0.226,-0.5 -0.5,-0.5l-1,0l0,-1c0,-0.274 -0.226,-0.5 -0.5,-0.5Z" fill-rule="nonzero"/><path d="M119.709,30.395c-0.388,-0.387 -1.026,-0.387 -1.414,0l-6.647,6.646c-0.094,0.094 -0.147,0.222 -0.147,0.354c0,0.275 0.226,0.501 0.501,0.501c0.133,0 0.26,-0.053 0.354,-0.147l6.646,-6.647l6.646,6.647c0.094,0.094 0.221,0.147 0.354,0.147c0.275,0 0.501,-0.226 0.501,-0.501c-0,-0.132 -0.053,-0.26 -0.147,-0.354l-2.354,-2.353l0,-3.293c0,-0.274 -0.226,-0.5 -0.5,-0.5l-1,0c-0.274,0 -0.5,0.226 -0.5,0.5l0,1.293l-2.293,-2.293Z" fill-rule="nonzero"/><path d="M119.002,32.188l6,6l0,4.207c0,0.823 -0.677,1.5 -1.5,1.5l-9,0c-0.823,0 -1.5,-0.677 -1.5,-1.5l0,-4.207l6,-6Z" fill-rule="nonzero"/><path d="M95.002,29c4.389,-0 8,3.611 8,8c0,4.389 -3.611,8 -8,8c-4.389,0 -8,-3.611 -8,-8c0,-4.389 3.611,-8 8,-8Zm-3.5,7.5c-0.274,0 -0.5,0.226 -0.5,0.5c0,0.274 0.226,0.5 0.5,0.5l5.793,0l-2.147,2.146c-0.094,0.094 -0.147,0.221 -0.147,0.354c0,0.275 0.226,0.501 0.501,0.501c0.133,-0 0.26,-0.053 0.354,-0.147l3,-3c0.094,-0.094 0.147,-0.221 0.147,-0.354c0,-0.133 -0.053,-0.26 -0.147,-0.354l-3,-3c-0.094,-0.094 -0.221,-0.147 -0.354,-0.147c-0.275,0 -0.501,0.226 -0.501,0.501c0,0.133 0.053,0.26 0.147,0.354l2.147,2.146l-5.793,0Z" fill-rule="nonzero"/><path d="M71.002,29c-4.389,-0 -8,3.611 -8,8c0,4.389 3.611,8 8,8c4.389,0 8,-3.611 8,-8c0,-4.389 -3.611,-8 -8,-8Zm3.5,7.5c0.274,0 0.5,0.226 0.5,0.5c0,0.274 -0.226,0.5 -0.5,0.5l-5.793,0l2.147,2.146c0.094,0.094 0.147,0.221 0.147,0.354c-0,0.275 -0.226,0.501 -0.501,0.501c-0.133,-0 -0.26,-0.053 -0.354,-0.147l-3,-3c-0.094,-0.094 -0.147,-0.221 -0.147,-0.354c0,-0.133 0.053,-0.26 0.147,-0.354l3,-3c0.094,-0.094 0.221,-0.147 0.354,-0.147c0.275,0 0.501,0.226 0.501,0.501c-0,0.133 -0.053,0.26 -0.147,0.354l-2.147,2.146l5.793,0Z" fill-rule="nonzero"/><path d="M53.502,25.5l-8,-0" fill="none" stroke="#000" stroke-width="1px" stroke-miterlimit="10"/><path d="M53.502,48.5l-8,0" fill="none" stroke="#000" stroke-width="1px" stroke-miterlimit="10"/><path d="M49.502,25.5l0,23" fill="none" stroke="#000" stroke-width="1px"/><path d="M59.502,54.5l0,8" fill="none" stroke="#000" stroke-width="1px" stroke-miterlimit="10"/><path d="M82.502,54.5l0,8" fill="none" stroke="#000" stroke-width="1px" stroke-miterlimit="10"/><path d="M59.502,58.5l23,0" fill="none" stroke="#000" stroke-width="1px"/><g transform="matrix(1,0,0,1,-139.535,-173.468)"><path d="M0.129,-0.458c-0.003,-0.085 0.039,-0.176 0.138,-0.176c0.075,-0 0.137,0.051 0.137,0.128c0,0.098 -0.061,0.142 -0.181,0.216c-0.1,0.062 -0.185,0.122 -0.199,0.29l0.463,-0l-0,-0.075l-0.364,0c0.017,-0.088 0.11,-0.133 0.199,-0.187c0.088,-0.055 0.172,-0.118 0.172,-0.243c-0,-0.132 -0.098,-0.204 -0.222,-0.204c-0.15,0 -0.235,0.107 -0.228,0.251l0.085,-0Z" fill="#196721" fill-rule="nonzero" transform="matrix(12,0,0,12,154.861,213.245)"/><path d="M0.419,-0.709l-0.068,0l-0.323,0.461l0,0.082l0.311,-0l0,0.166l0.08,-0l-0,-0.166l0.096,-0l-0,-0.075l-0.096,0l-0,-0.468Zm-0.318,0.468l0.236,-0.347l0.002,0l0,0.347l-0.238,0Z" fill="#196721" fill-rule="nonzero" transform="matrix(12,0,0,12,161.533,213.245)"/><path d="M0.467,-0.263c0,0.101 -0.039,0.2 -0.155,0.2c-0.117,0 -0.163,-0.094 -0.163,-0.196c-0,-0.097 0.044,-0.195 0.158,-0.195c0.11,-0 0.16,0.094 0.16,0.191Zm-0.4,0.461l0.085,-0l-0,-0.267l0.002,0c0.038,0.061 0.114,0.081 0.167,0.081c0.158,-0 0.236,-0.123 0.236,-0.269c-0,-0.146 -0.079,-0.272 -0.238,-0.272c-0.071,0 -0.137,0.025 -0.165,0.082l-0.002,-0l-0,-0.07l-0.085,0l0,0.715Z" fill="#196721" fill-rule="nonzero" transform="matrix(12,0,0,12,168.205,213.245)"/><path d="M0.009,-0l0.103,-0l0.144,-0.215l0.144,0.215l0.109,-0l-0.2,-0.28l0.178,-0.237l-0.102,0l-0.129,0.18l-0.124,-0.18l-0.109,0l0.18,0.245l-0.194,0.272Z" fill="#196721" fill-rule="nonzero" transform="matrix(12,0,0,12,175.321,213.245)"/><rect x="154.861" y="214.145" width="26.676" height="0.6" fill="#196721"/></g><g transform="matrix(1,0,0,1,-97.2245,-139.677)"><path d="M0.129,-0.458c-0.003,-0.085 0.039,-0.176 0.138,-0.176c0.075,-0 0.137,0.051 0.137,0.128c0,0.098 -0.061,0.142 -0.181,0.216c-0.1,0.062 -0.185,0.122 -0.199,0.29l0.463,-0l-0,-0.075l-0.364,0c0.017,-0.088 0.11,-0.133 0.199,-0.187c0.088,-0.055 0.172,-0.118 0.172,-0.243c-0,-0.132 -0.098,-0.204 -0.222,-0.204c-0.15,0 -0.235,0.107 -0.228,0.251l0.085,-0Z" fill="#196721" fill-rule="nonzero" transform="matrix(12,0,0,12,155.078,213.245)"/><path d="M0.419,-0.709l-0.068,0l-0.323,0.461l0,0.082l0.311,-0l0,0.166l0.08,-0l-0,-0.166l0.096,-0l-0,-0.075l-0.096,0l-0,-0.468Zm-0.318,0.468l0.236,-0.347l0.002,0l0,0.347l-0.238,0Z" fill="#196721" fill-rule="nonzero" transform="matrix(12,0,0,12,161.75,213.245)"/><path d="M0.467,-0.263c0,0.101 -0.039,0.2 -0.155,0.2c-0.117,0 -0.163,-0.094 -0.163,-0.196c-0,-0.097 0.044,-0.195 0.158,-0.195c0.11,-0 0.16,0.094 0.16,0.191Zm-0.4,0.461l0.085,-0l-0,-0.267l0.002,0c0.038,0.061 0.114,0.081 0.167,0.081c0.158,-0 0.236,-0.123 0.236,-0.269c-0,-0.146 -0.079,-0.272 -0.238,-0.272c-0.071,0 -0.137,0.025 -0.165,0.082l-0.002,-0l-0,-0.07l-0.085,0l0,0.715Z" fill="#196721" fill-rule="nonzero" transform="matrix(12,0,0,12,168.422,213.245)"/><path d="M0.009,-0l0.103,-0l0.144,-0.215l0.144,0.215l0.109,-0l-0.2,-0.28l0.178,-0.237l-0.102,0l-0.129,0.18l-0.124,-0.18l-0.109,0l0.18,0.245l-0.194,0.272Z" fill="#196721" fill-rule="nonzero" transform="matrix(12,0,0,12,175.538,213.245)"/><rect x="155.078" y="214.145" width="26.676" height="0.6" fill="#196721"/></g><path d="M254.141,43.779l4.398,-0l-0,-4.32l2.601,-0c3.28,-0 5.599,-1.619 5.599,-5.079c-0,-2.041 -1.359,-4.879 -5.238,-4.879l-7.36,0l0,14.278Zm4.398,-10.62l1.961,-0c1.081,-0 2.081,0.08 2.081,1.381c0,1.441 -1.2,1.521 -2.341,1.521l-1.701,0l-0,-2.902Z" fill="#196721" fill-rule="nonzero"/><path d="M271.46,38.681l1.38,-4.4l0.04,0l1.28,4.4l-2.7,0Zm-6.019,5.098l4.42,-0l0.639,-2.04l4.54,-0l0.6,2.04l4.559,-0l-5.199,-14.278l-4.3,0l-5.259,14.278Z" fill="#196721" fill-rule="nonzero"/><path d="M280.281,38.981c0.04,4.558 4.658,5.138 6.279,5.138c3.181,-0 6.599,-1.199 6.599,-4.918c-0,-2.621 -1.999,-3.562 -4.018,-4.122c-2.021,-0.56 -4.062,-0.78 -4.142,-1.8c-0,-0.8 0.98,-0.96 1.581,-0.96c0.44,-0 0.941,0.1 1.301,0.36c0.36,0.24 0.6,0.6 0.52,1.14l4.158,-0c-0.12,-3.478 -2.859,-4.658 -5.959,-4.658c-2.94,0 -5.759,1.419 -5.759,4.718c0,2.881 2.579,3.501 4.838,4.141c2.462,0.7 3.082,0.901 3.082,1.641c0,1.06 -1.1,1.3 -1.821,1.3c-0.82,0 -1.781,-0.18 -2.101,-1.04c-0.1,-0.26 -0.16,-0.58 -0.16,-0.94l-4.398,-0Z" fill="#196721" fill-rule="nonzero"/><path d="M293.621,38.981c0.04,4.558 4.658,5.138 6.279,5.138c3.181,-0 6.599,-1.199 6.599,-4.918c-0,-2.621 -1.999,-3.562 -4.018,-4.122c-2.021,-0.56 -4.062,-0.78 -4.142,-1.8c-0,-0.8 0.98,-0.96 1.581,-0.96c0.44,-0 0.941,0.1 1.301,0.36c0.36,0.24 0.6,0.6 0.52,1.14l4.158,-0c-0.12,-3.478 -2.859,-4.658 -5.959,-4.658c-2.94,0 -5.759,1.419 -5.759,4.718c0,2.881 2.579,3.501 4.838,4.141c2.462,0.7 3.082,0.901 3.082,1.641c0,1.06 -1.1,1.3 -1.821,1.3c-0.82,0 -1.781,-0.18 -2.101,-1.04c-0.1,-0.26 -0.16,-0.58 -0.16,-0.94l-4.398,-0Z" fill="#196721" fill-rule="nonzero"/><path d="M59,111c0,-0 0.332,-0.638 0.613,-1l0.387,-0l0,0.011c0,-0.004 -0,-0.008 -0,-0.011l1,-0l0,1l-2,-0Zm0,1l1,-0l0,1l-1,-0l0,-1Zm0,2l1,-0l0,1l-1,-0l0,-1Zm0,2l1,-0l0,1l-1,-0l0,-1Zm0,2l1,-0l0,1l-1,-0l0,-1Zm0,2l1,-0l0,1l-1,-0l0,-1Zm0,2l1,-0l0,1l-1,-0l0,-1Zm0,2l1,-0l0,1l-1,-0l0,-1Zm0,2l1,-0l0,1l-1,-0l0,-1Zm0,2l1,-0l-0,2l-1,-0l0,-1l0.011,-0c-0.004,-0 -0.007,-0 -0.011,-0l0,-1Zm2,2l0,-1l1,-0l0,1l-1,-0Zm2,-0l-0,-1l1,-0l-0,1l-1,-0Zm2,-0l-0,-1l1,-0l-0,1l-1,-0Zm2,-0l-0,-1l1,-0l-0,1l-1,-0Zm2,-0l-0,-1l1,-0l-0,1l-1,-0Zm2,-0l-0,-1l1,-0l-0,1l-1,-0Zm2,-0l0,-1l1,-0l-0,1l-1,-0Zm2,-0l-0,-1l1,-0l-0,1l-1,-0Zm2,-0l-0,-1l2,-0l0,1l-1,-0l-0,-0.011c-0,0.003 0,0.007 0,0.011l-1,-0Zm2,-2l-1,-0l0,-1l1,-0l0,1Zm0,-2l-1,-0l0,-1l1,-0l0,1Zm0,-2l-1,-0l0,-1l1,-0l0,1Zm0,-2l-1,-0l0,-1l1,-0l0,1Zm0,-2l-1,-0l0,-1l1,-0l0,1Zm0,-2l-1,-0l0,-1l1,-0l0,1Zm0,-2l-1,-0l0,-1l1,-0l0,1Zm0,-2l-1,-0l0,-1l1,-0l0,1Zm0,-2l-1,-0l0,-2c0,0.942 1,1 1,1l0,1Zm-2,-2l-0,1l-1,-0l-0,-1l1,-0Zm-2,-0l0,1l-1,-0l0,-1l1,-0Zm-2,-0l0,1l-1,-0l0,-1l1,-0Zm-2,-0l0,1l-1,-0l0,-1l1,-0Zm-2,-0l0,1l-1,-0l0,-1l1,-0Zm-2,-0l0,1l-1,-0l0,-1l1,-0Zm-2,-0l-0,1l-1,-0l0,-1l1,-0Zm-2,-0l0,1l-1,-0l0,-1l1,-0Z" fill="#6a6bd3"/><path d="M83,111c0,-0 0.332,-0.638 0.613,-1l0.387,-0l0,0.011c0,-0.004 -0,-0.008 -0,-0.011l1,-0l0,1l-2,-0Zm0,1l1,-0l0,1l-1,-0l0,-1Zm0,2l1,-0l0,1l-1,-0l0,-1Zm0,2l1,-0l0,1l-1,-0l0,-1Zm0,2l1,-0l0,1l-1,-0l0,-1Zm0,2l1,-0l0,1l-1,-0l0,-1Zm0,2l1,-0l0,1l-1,-0l0,-1Zm0,2l1,-0l0,1l-1,-0l0,-1Zm0,2l1,-0l0,1l-1,-0l0,-1Zm0,2l1,-0l-0,2l-1,-0l0,-1l0.011,-0c-0.004,-0 -0.007,-0 -0.011,-0l0,-1Zm2,2l0,-1l1,-0l0,1l-1,-0Zm2,-0l-0,-1l1,-0l-0,1l-1,-0Zm2,-0l-0,-1l1,-0l-0,1l-1,-0Zm2,-0l-0,-1l1,-0l-0,1l-1,-0Zm2,-0l-0,-1l1,-0l-0,1l-1,-0Zm2,-0l-0,-1l1,-0l-0,1l-1,-0Zm2,-0l0,-1l1,-0l-0,1l-1,-0Zm2,-0l-0,-1l1,-0l-0,1l-1,-0Zm2,-0l-0,-1l2,-0l0,1l-1,-0l-0,-0.011c-0,0.003 0,0.007 0,0.011l-1,-0Zm2,-2l-1,-0l0,-1l1,-0l0,1Zm0,-2l-1,-0l0,-1l1,-0l0,1Zm0,-2l-1,-0l0,-1l1,-0l0,1Zm0,-2l-1,-0l0,-1l1,-0l0,1Zm0,-2l-1,-0l0,-1l1,-0l0,1Zm0,-2l-1,-0l0,-1l1,-0l0,1Zm0,-2l-1,-0l0,-1l1,-0l0,1Zm0,-2l-1,-0l0,-1l1,-0l0,1Zm0,-2l-1,-0l0,-2c0,0.942 1,1 1,1l0,1Zm-2,-2l-0,1l-1,-0l-0,-1l1,-0Zm-2,-0l0,1l-1,-0l0,-1l1,-0Zm-2,-0l0,1l-1,-0l0,-1l1,-0Zm-2,-0l0,1l-1,-0l0,-1l1,-0Zm-2,-0l0,1l-1,-0l0,-1l1,-0Zm-2,-0l0,1l-1,-0l0,-1l1,-0Zm-2,-0l-0,1l-1,-0l0,-1l1,-0Zm-2,-0l0,1l-1,-0l0,-1l1,-0Z" fill="#6a6bd3"/><path d="M107,111c0,-0 0.332,-0.638 0.613,-1l0.387,-0l0,0.011c0,-0.004 -0,-0.008 -0,-0.011l1,-0l0,1l-2,-0Zm0,1l1,-0l0,1l-1,-0l0,-1Zm0,2l1,-0l0,1l-1,-0l0,-1Zm0,2l1,-0l0,1l-1,-0l0,-1Zm0,2l1,-0l0,1l-1,-0l0,-1Zm0,2l1,-0l0,1l-1,-0l0,-1Zm0,2l1,-0l0,1l-1,-0l0,-1Zm0,2l1,-0l0,1l-1,-0l0,-1Zm0,2l1,-0l0,1l-1,-0l0,-1Zm0,2l1,-0l-0,2l-1,-0l0,-1l0.011,-0c-0.004,-0 -0.007,-0 -0.011,-0l0,-1Zm2,2l0,-1l1,-0l0,1l-1,-0Zm2,-0l-0,-1l1,-0l-0,1l-1,-0Zm2,-0l-0,-1l1,-0l-0,1l-1,-0Zm2,-0l-0,-1l1,-0l-0,1l-1,-0Zm2,-0l-0,-1l1,-0l-0,1l-1,-0Zm2,-0l-0,-1l1,-0l-0,1l-1,-0Zm2,-0l0,-1l1,-0l-0,1l-1,-0Zm2,-0l-0,-1l1,-0l-0,1l-1,-0Zm2,-0l-0,-1l2,-0l0,1l-1,-0l-0,-0.011c-0,0.003 0,0.007 0,0.011l-1,-0Zm2,-2l-1,-0l0,-1l1,-0l0,1Zm0,-2l-1,-0l0,-1l1,-0l0,1Zm0,-2l-1,-0l0,-1l1,-0l0,1Zm0,-2l-1,-0l0,-1l1,-0l0,1Zm0,-2l-1,-0l0,-1l1,-0l0,1Zm0,-2l-1,-0l0,-1l1,-0l0,1Zm0,-2l-1,-0l0,-1l1,-0l0,1Zm0,-2l-1,-0l0,-1l1,-0l0,1Zm0,-2l-1,-0l0,-2c0,0.942 1,1 1,1l0,1Zm-2,-2l-0,1l-1,-0l-0,-1l1,-0Zm-2,-0l0,1l-1,-0l0,-1l1,-0Zm-2,-0l0,1l-1,-0l0,-1l1,-0Zm-2,-0l0,1l-1,-0l0,-1l1,-0Zm-2,-0l0,1l-1,-0l0,-1l1,-0Zm-2,-0l0,1l-1,-0l0,-1l1,-0Zm-2,-0l-0,1l-1,-0l0,-1l1,-0Zm-2,-0l0,1l-1,-0l0,-1l1,-0Z" fill="#6a6bd3"/><path d="M131,111c0,-0 0.332,-0.638 0.613,-1l0.387,-0l0,0.011c0,-0.004 -0,-0.008 -0,-0.011l1,-0l0,1l-2,-0Zm0,1l1,-0l0,1l-1,-0l0,-1Zm0,2l1,-0l0,1l-1,-0l0,-1Zm0,2l1,-0l0,1l-1,-0l0,-1Zm0,2l1,-0l0,1l-1,-0l0,-1Zm0,2l1,-0l0,1l-1,-0l0,-1Zm0,2l1,-0l0,1l-1,-0l0,-1Zm0,2l1,-0l0,1l-1,-0l0,-1Zm0,2l1,-0l0,1l-1,-0l0,-1Zm0,2l1,-0l-0,2l-1,-0l0,-1l0.011,-0c-0.004,-0 -0.007,-0 -0.011,-0l0,-1Zm2,2l0,-1l1,-0l0,1l-1,-0Zm2,-0l-0,-1l1,-0l-0,1l-1,-0Zm2,-0l-0,-1l1,-0l-0,1l-1,-0Zm2,-0l-0,-1l1,-0l-0,1l-1,-0Zm2,-0l-0,-1l1,-0l-0,1l-1,-0Zm2,-0l-0,-1l1,-0l-0,1l-1,-0Zm2,-0l0,-1l1,-0l-0,1l-1,-0Zm2,-0l-0,-1l1,-0l-0,1l-1,-0Zm2,-0l-0,-1l2,-0l0,1l-1,-0l-0,-0.011c-0,0.003 0,0.007 0,0.011l-1,-0Zm2,-2l-1,-0l0,-1l1,-0l0,1Zm0,-2l-1,-0l0,-1l1,-0l0,1Zm0,-2l-1,-0l0,-1l1,-0l0,1Zm0,-2l-1,-0l0,-1l1,-0l0,1Zm0,-2l-1,-0l0,-1l1,-0l0,1Zm0,-2l-1,-0l0,-1l1,-0l0,1Zm0,-2l-1,-0l0,-1l1,-0l0,1Zm0,-2l-1,-0l0,-1l1,-0l0,1Zm0,-2l-1,-0l0,-2c0,0.942 1,1 1,1l0,1Zm-2,-2l-0,1l-1,-0l-0,-1l1,-0Zm-2,-0l0,1l-1,-0l0,-1l1,-0Zm-2,-0l0,1l-1,-0l0,-1l1,-0Zm-2,-0l0,1l-1,-0l0,-1l1,-0Zm-2,-0l0,1l-1,-0l0,-1l1,-0Zm-2,-0l0,1l-1,-0l0,-1l1,-0Zm-2,-0l-0,1l-1,-0l0,-1l1,-0Zm-2,-0l0,1l-1,-0l0,-1l1,-0Z" fill="#6a6bd3"/><path d="M155,111c0,-0 0.332,-0.638 0.613,-1l0.387,-0l0,0.011c0,-0.004 -0,-0.008 -0,-0.011l1,-0l0,1l-2,-0Zm0,1l1,-0l0,1l-1,-0l0,-1Zm0,2l1,-0l0,1l-1,-0l0,-1Zm0,2l1,-0l0,1l-1,-0l0,-1Zm0,2l1,-0l-0,1l-1,-0l0,-1Zm0,2l1,-0l0,1l-1,-0l0,-1Zm0,2l1,-0l0,1l-1,-0l0,-1Zm0,2l1,-0l0,1l-1,-0l0,-1Zm0,2l1,-0l0,1l-1,-0l0,-1Zm0,2l1,-0l-0,2l-1,-0l0,-1l0.011,-0c-0.004,-0 -0.007,-0 -0.011,-0l0,-1Zm2,2l0,-1l1,-0l0,1l-1,-0Zm2,-0l-0,-1l1,-0l-0,1l-1,-0Zm2,-0l-0,-1l1,-0l-0,1l-1,-0Zm2,-0l-0,-1l1,-0l-0,1l-1,-0Zm2,-0l-0,-1l1,-0l-0,1l-1,-0Zm2,-0l-0,-1l1,-0l-0,1l-1,-0Zm2,-0l0,-1l1,-0l-0,1l-1,-0Zm2,-0l-0,-1l1,-0l-0,1l-1,-0Zm2,-0l-0,-1l2,-0l-0,1l-1,-0l-0,-0.011c-0,0.003 0,0.007 0,0.011l-1,-0Zm2,-2l-1,-0l-0,-1l1,-0l-0,1Zm-0,-2l-1,-0l-0,-1l1,-0l-0,1Zm-0,-2l-1,-0l-0,-1l1,-0l-0,1Zm-0,-2l-1,-0l-0,-1l1,-0l-0,1Zm-0,-2l-1,-0l0,-1l1,-0l-0,1Zm-0,-2l-1,-0l0,-1l1,-0l-0,1Zm-0,-2l-1,-0l-0,-1l1,-0l-0,1Zm-0,-2l-1,-0l0,-1l1,-0l-0,1Zm-0,-2l-1,-0l0,-2c0,0.942 1,1 1,1l-0,1Zm-2,-2l-0,1l-1,-0l-0,-1l1,-0Zm-2,-0l0,1l-1,-0l0,-1l1,-0Zm-2,-0l0,1l-1,-0l0,-1l1,-0Zm-2,-0l0,1l-1,-0l0,-1l1,-0Zm-2,-0l0,1l-1,-0l0,-1l1,-0Zm-2,-0l0,1l-1,-0l0,-1l1,-0Zm-2,-0l-0,1l-1,-0l0,-1l1,-0Zm-2,-0l0,1l-1,-0l0,-1l1,-0Z" fill="#6a6bd3"/><path d="M179,111c0,-0 0.332,-0.638 0.613,-1l0.387,-0l0,0.011c0,-0.004 -0,-0.008 -0,-0.011l1,-0l0,1l-2,-0Zm0,1l1,-0l0,1l-1,-0l0,-1Zm0,2l1,-0l0,1l-1,-0l0,-1Zm0,2l1,-0l0,1l-1,-0l0,-1Zm0,2l1,-0l0,1l-1,-0l0,-1Zm0,2l1,-0l0,1l-1,-0l0,-1Zm0,2l1,-0l0,1l-1,-0l0,-1Zm0,2l1,-0l0,1l-1,-0l0,-1Zm0,2l1,-0l0,1l-1,-0l0,-1Zm0,2l1,-0l-0,2l-1,-0l0,-1l0.011,-0c-0.004,-0 -0.007,-0 -0.011,-0l0,-1Zm2,2l0,-1l1,-0l0,1l-1,-0Zm2,-0l-0,-1l1,-0l-0,1l-1,-0Zm2,-0l-0,-1l1,-0l-0,1l-1,-0Zm2,-0l-0,-1l1,-0l-0,1l-1,-0Zm2,-0l-0,-1l1,-0l-0,1l-1,-0Zm2,-0l-0,-1l1,-0l-0,1l-1,-0Zm2,-0l0,-1l1,-0l-0,1l-1,-0Zm2,-0l-0,-1l1,-0l-0,1l-1,-0Zm2,-0l-0,-1l2,-0l-0,1l-1,-0l-0,-0.011c-0,0.003 0,0.007 0,0.011l-1,-0Zm2,-2l-1,-0l0,-1l1,-0l-0,1Zm-0,-2l-1,-0l-0,-1l1,-0l-0,1Zm-0,-2l-1,-0l-0,-1l1,-0l-0,1Zm-0,-2l-1,-0l-0,-1l1,-0l-0,1Zm-0,-2l-1,-0l0,-1l1,-0l-0,1Zm-0,-2l-1,-0l0,-1l1,-0l-0,1Zm-0,-2l-1,-0l0,-1l1,-0l-0,1Zm-0,-2l-1,-0l0,-1l1,-0l-0,1Zm-0,-2l-1,-0l0,-2c0,0.942 1,1 1,1l-0,1Zm-2,-2l-0,1l-1,-0l-0,-1l1,-0Zm-2,-0l0,1l-1,-0l0,-1l1,-0Zm-2,-0l0,1l-1,-0l0,-1l1,-0Zm-2,-0l0,1l-1,-0l0,-1l1,-0Zm-2,-0l0,1l-1,-0l0,-1l1,-0Zm-2,-0l0,1l-1,-0l0,-1l1,-0Zm-2,-0l-0,1l-1,-0l0,-1l1,-0Zm-2,-0l0,1l-1,-0l0,-1l1,-0Z" fill="#6a6bd3"/><path d="M192,118c-0,1.645 -1.354,3 -3,3c-1.646,-0 -3,-1.355 -3,-3c-0,-1.646 1.354,-3 3,-3c1.646,-0 3,1.354 3,3Z" fill-rule="nonzero"/><path d="M181,120c-0,-4.389 3.611,-8 8,-8c4.389,-0 8,3.611 8,8c-0,4.388 -3.611,8 -8,8c-4.389,-0 -8,-3.612 -8,-8Zm8,-7c-3.84,-0 -7,3.16 -7,7c0,1.588 0.541,3.129 1.532,4.37c0.71,-1.144 2.273,-2.37 5.468,-2.37c3.195,-0 4.757,1.225 5.468,2.37c0.991,-1.241 1.532,-2.782 1.532,-4.37c-0,-3.84 -3.16,-7 -7,-7Z"/><path d="M166.535,113.015c0.132,0 0.26,0.053 0.354,0.146l4.95,4.95c0.194,0.194 0.194,0.513 -0,0.707c-0.48,0.48 -1.072,0.588 -1.503,0.588c-0.177,0 -0.335,-0.018 -0.46,-0.039l-3.134,3.134c0.082,0.333 0.136,0.672 0.16,1.013c0.046,0.702 -0.032,1.687 -0.72,2.375c-0.194,0.194 -0.513,0.194 -0.707,0l-2.829,-2.828l-3.182,3.182c-0.195,0.195 -1.219,0.902 -1.414,0.707c-0.195,-0.195 0.512,-1.22 0.707,-1.414l3.182,-3.182l-2.828,-2.829c-0.194,-0.194 -0.194,-0.513 -0,-0.707c0.688,-0.688 1.673,-0.767 2.375,-0.72c0.341,0.024 0.68,0.078 1.013,0.16l3.134,-3.133c-0.027,-0.152 -0.04,-0.306 -0.04,-0.461c-0,-0.43 0.108,-1.022 0.589,-1.503c0.093,-0.093 0.22,-0.146 0.353,-0.146Z" fill-rule="nonzero"/><path d="M133.05,115.555c0.207,-0.907 1.02,-1.555 1.95,-1.555l12,-0c0.93,-0 1.743,0.648 1.95,1.555l-7.95,4.859l-7.95,-4.859Zm-0.05,1.142l-0,7.104l5.803,-3.558l-5.803,-3.546Zm6.761,4.133l-6.57,4.026c0.33,0.697 1.037,1.144 1.809,1.144l6.256,-0c-0.17,-0.482 -0.257,-0.989 -0.256,-1.5c-0.001,-1.329 0.587,-2.593 1.606,-3.446l-0.367,-0.225l-1.239,0.757l-1.239,-0.757l-0,0.001Zm9.239,-4.133l-0,4.974c-0.853,-1.058 -2.141,-1.673 -3.5,-1.671c-0.681,-0.001 -1.353,0.153 -1.965,0.45l-0.338,-0.207l5.803,-3.546Z" fill-rule="nonzero"/><path d="M149,124.5c-0,1.92 -1.58,3.5 -3.5,3.5c-1.92,-0 -3.5,-1.58 -3.5,-3.5c-0,-1.92 1.58,-3.5 3.5,-3.5c1.92,-0 3.5,1.58 3.5,3.5Zm-3.5,-2c-0.274,-0 -0.5,0.225 -0.5,0.5l-0,1l-1,-0c-0.274,-0 -0.5,0.225 -0.5,0.5c-0,0.274 0.226,0.5 0.5,0.5l1,-0l-0,1c-0,0.274 0.226,0.5 0.5,0.5c0.274,-0 0.5,-0.226 0.5,-0.5l-0,-1l1,-0c0.274,-0 0.5,-0.226 0.5,-0.5c-0,-0.275 -0.226,-0.5 -0.5,-0.5l-1,-0l-0,-1c-0,-0.275 -0.226,-0.5 -0.5,-0.5Z" fill-rule="nonzero"/><path d="M117.707,113.395c-0.388,-0.388 -1.026,-0.388 -1.414,0l-6.647,6.646c-0.094,0.094 -0.147,0.221 -0.147,0.354c0,0.275 0.226,0.501 0.501,0.501c0.133,-0 0.26,-0.053 0.354,-0.147l6.646,-6.647l6.646,6.647c0.094,0.094 0.221,0.147 0.354,0.147c0.275,-0 0.501,-0.226 0.501,-0.501c-0,-0.133 -0.053,-0.26 -0.147,-0.354l-2.354,-2.353l-0,-3.293c-0,-0.274 -0.226,-0.5 -0.5,-0.5l-1,0c-0.274,0 -0.5,0.226 -0.5,0.5l-0,1.293l-2.293,-2.293Z" fill-rule="nonzero"/><path d="M117,115.188l6,6l-0,4.207c-0,0.823 -0.677,1.5 -1.5,1.5l-9,0c-0.823,0 -1.5,-0.677 -1.5,-1.5l-0,-4.207l6,-6Z" fill-rule="nonzero"/><path d="M93,112c4.389,-0 8,3.611 8,8c0,4.388 -3.611,8 -8,8c-4.389,-0 -8,-3.612 -8,-8c0,-4.389 3.611,-8 8,-8Zm-3.5,7.5c-0.274,-0 -0.5,0.225 -0.5,0.5c0,0.274 0.226,0.5 0.5,0.5l5.793,-0l-2.147,2.146c-0.094,0.093 -0.147,0.221 -0.147,0.354c0,0.274 0.226,0.5 0.501,0.5c0.133,0 0.26,-0.053 0.354,-0.146l3,-3c0.094,-0.094 0.147,-0.222 0.147,-0.354c-0,-0.133 -0.053,-0.261 -0.147,-0.354l-3,-3c-0.094,-0.094 -0.221,-0.147 -0.354,-0.147c-0.275,-0 -0.501,0.226 -0.501,0.501c0,0.132 0.053,0.26 0.147,0.354l2.147,2.146l-5.793,-0Z" fill-rule="nonzero"/><path d="M69,112c-4.389,-0 -8,3.611 -8,8c0,4.388 3.611,8 8,8c4.389,-0 8,-3.612 8,-8c0,-4.389 -3.611,-8 -8,-8Zm3.5,7.5c0.274,-0 0.5,0.225 0.5,0.5c0,0.274 -0.226,0.5 -0.5,0.5l-5.793,-0l2.147,2.146c0.094,0.093 0.147,0.221 0.147,0.354c-0,0.274 -0.226,0.5 -0.501,0.5c-0.133,0 -0.26,-0.053 -0.354,-0.146l-3,-3c-0.094,-0.094 -0.147,-0.222 -0.147,-0.354c0,-0.133 0.053,-0.261 0.147,-0.354l3,-3c0.094,-0.094 0.221,-0.147 0.354,-0.147c0.275,-0 0.501,0.226 0.501,0.501c-0,0.132 -0.053,0.26 -0.147,0.354l-2.147,2.146l5.793,-0Z" fill-rule="nonzero"/><path d="M53.5,110.5l-8,-0" fill="none" stroke="#000" stroke-width="1px" stroke-miterlimit="10"/><path d="M53.5,129.5l-8,-0" fill="none" stroke="#000" stroke-width="1px" stroke-miterlimit="10"/><path d="M49.5,110.5l0,19" fill="none" stroke="#000" stroke-width="1px"/><path d="M59.5,135.5l0,8" fill="none" stroke="#000" stroke-width="1px" stroke-miterlimit="10"/><path d="M78.5,135.5l0,8" fill="none" stroke="#000" stroke-width="1px" stroke-miterlimit="10"/><path d="M59.5,139.5l19,-0" fill="none" stroke="#000" stroke-width="1px"/><path d="M16.871,117.28c-0.036,-1.02 0.468,-2.112 1.657,-2.112c0.9,-0 1.645,0.612 1.645,1.536c-0,1.176 -0.733,1.704 -2.173,2.592c-1.201,0.745 -2.219,1.465 -2.387,3.48l5.554,-0l0,-0.899l-4.368,0c0.204,-1.056 1.321,-1.596 2.389,-2.244c1.057,-0.661 2.063,-1.417 2.063,-2.917c0,-1.584 -1.174,-2.447 -2.663,-2.447c-1.801,0 -2.819,1.283 -2.735,3.011l1.018,0Z" fill-rule="nonzero"/><path d="M22.501,118.6c-0,1.873 0.168,4.32 2.831,4.32c2.663,-0 2.831,-2.447 2.831,-4.32c0,-1.884 -0.168,-4.331 -2.831,-4.331c-2.663,0 -2.831,2.447 -2.831,4.331Zm1.078,-0.012c0,-1.26 0.012,-3.42 1.753,-3.42c1.741,-0 1.753,2.16 1.753,3.42c-0,1.273 -0.012,3.433 -1.753,3.433c-1.741,0 -1.753,-2.16 -1.753,-3.433Z" fill-rule="nonzero"/><path d="M34.273,119.62c-0,1.213 -0.468,2.401 -1.861,2.401c-1.405,0 -1.957,-1.128 -1.957,-2.353c0,-1.164 0.528,-2.34 1.897,-2.34c1.321,-0 1.921,1.128 1.921,2.292Zm-4.8,5.532l1.018,-0l0,-3.203l0.024,0c0.456,0.731 1.369,0.971 2.005,0.971c1.897,-0 2.831,-1.475 2.831,-3.228c0,-1.752 -0.946,-3.263 -2.855,-3.263c-0.852,0 -1.645,0.3 -1.981,0.983l-0.024,-0l0,-0.839l-1.018,0l-0,8.579Z" fill-rule="nonzero"/><path d="M35.893,122.776l1.235,-0l1.728,-2.578l1.728,2.578l1.307,-0l-2.399,-3.36l2.135,-2.843l-1.223,0l-1.548,2.162l-1.488,-2.162l-1.307,0l2.159,2.939l-2.327,3.264Z" fill-rule="nonzero"/><path d="M57.277,149.072c-0.036,-1.021 0.469,-2.113 1.657,-2.113c0.901,0 1.645,0.612 1.645,1.537c-0,1.176 -0.732,1.704 -2.173,2.592c-1.201,0.744 -2.219,1.464 -2.387,3.479l5.554,0l0,-0.898l-4.368,-0c0.204,-1.056 1.321,-1.597 2.389,-2.245c1.057,-0.66 2.063,-1.416 2.063,-2.916c0,-1.585 -1.174,-2.447 -2.663,-2.447c-1.801,-0 -2.819,1.282 -2.735,3.011l1.018,-0Z" fill-rule="nonzero"/><path d="M62.907,150.392c-0,1.872 0.168,4.319 2.831,4.319c2.664,0 2.831,-2.447 2.831,-4.319c0,-1.884 -0.167,-4.331 -2.831,-4.331c-2.663,-0 -2.831,2.447 -2.831,4.331Zm1.078,-0.012c0,-1.26 0.012,-3.421 1.753,-3.421c1.741,0 1.753,2.161 1.753,3.421c-0,1.272 -0.012,3.433 -1.753,3.433c-1.741,-0 -1.753,-2.161 -1.753,-3.433Z" fill-rule="nonzero"/><path d="M74.679,151.412c-0,1.212 -0.468,2.401 -1.861,2.401c-1.404,-0 -1.957,-1.129 -1.957,-2.353c0,-1.164 0.529,-2.341 1.897,-2.341c1.321,0 1.921,1.129 1.921,2.293Zm-4.8,5.531l1.018,0l0,-3.202l0.024,-0c0.457,0.731 1.369,0.97 2.005,0.97c1.897,0 2.831,-1.474 2.831,-3.227c0,-1.753 -0.946,-3.263 -2.855,-3.263c-0.852,-0 -1.645,0.299 -1.981,0.982l-0.024,0l0,-0.838l-1.018,-0l-0,8.578Z" fill-rule="nonzero"/><path d="M76.299,154.567l1.236,0l1.727,-2.577l1.728,2.577l1.307,0l-2.399,-3.36l2.135,-2.842l-1.223,-0l-1.548,2.161l-1.488,-2.161l-1.307,-0l2.159,2.938l-2.327,3.264Z" fill-rule="nonzero"/><path d="M78.081,98.561l-0.814,-0l-3.876,5.532l-0,0.982l3.732,0l-0,1.992l0.958,0l0,-1.992l1.152,0l0,-0.898l-1.152,-0l0,-5.616Zm-3.814,5.616l2.832,-4.164l0.024,-0l-0,4.164l-2.856,-0Z" fill-rule="nonzero"/><path d="M85.331,103.912c-0,1.212 -0.468,2.401 -1.861,2.401c-1.404,-0 -1.957,-1.129 -1.957,-2.353c0,-1.164 0.529,-2.341 1.897,-2.341c1.321,0 1.921,1.129 1.921,2.293Zm-4.8,5.531l1.018,0l0,-3.202l0.024,-0c0.457,0.731 1.369,0.97 2.005,0.97c1.897,0 2.831,-1.474 2.831,-3.227c0,-1.753 -0.946,-3.263 -2.855,-3.263c-0.852,-0 -1.644,0.299 -1.981,0.982l-0.024,0l0,-0.838l-1.018,-0l-0,8.578Z" fill-rule="nonzero"/><path d="M86.951,107.067l1.236,0l1.727,-2.577l1.728,2.577l1.307,0l-2.399,-3.36l2.136,-2.842l-1.224,-0l-1.548,2.161l-1.487,-2.161l-1.308,-0l2.159,2.938l-2.327,3.264Z" fill-rule="nonzero"/><path d="M254.141,126.779l4.398,-0l-0,-4.32l2.601,-0c3.28,-0 5.599,-1.619 5.599,-5.079c-0,-2.041 -1.359,-4.879 -5.238,-4.879l-7.36,0l0,14.278Zm4.398,-10.62l1.961,-0c1.081,-0 2.081,0.08 2.081,1.381c0,1.441 -1.2,1.521 -2.341,1.521l-1.701,0l-0,-2.902Z" fill="#196721" fill-rule="nonzero"/><path d="M271.46,121.681l1.38,-4.4l0.04,0l1.28,4.4l-2.7,0Zm-6.019,5.098l4.42,-0l0.639,-2.04l4.54,-0l0.6,2.04l4.559,-0l-5.199,-14.278l-4.3,0l-5.259,14.278Z" fill="#196721" fill-rule="nonzero"/><path d="M280.281,121.981c0.04,4.558 4.658,5.138 6.279,5.138c3.181,-0 6.599,-1.199 6.599,-4.918c-0,-2.621 -1.999,-3.562 -4.018,-4.122c-2.021,-0.56 -4.062,-0.78 -4.142,-1.8c-0,-0.8 0.98,-0.96 1.581,-0.96c0.44,-0 0.941,0.1 1.301,0.36c0.36,0.24 0.6,0.6 0.52,1.14l4.158,-0c-0.12,-3.478 -2.859,-4.658 -5.959,-4.658c-2.94,0 -5.759,1.419 -5.759,4.718c0,2.881 2.579,3.501 4.838,4.141c2.462,0.7 3.082,0.901 3.082,1.641c0,1.06 -1.1,1.3 -1.821,1.3c-0.82,0 -1.781,-0.18 -2.101,-1.04c-0.1,-0.26 -0.16,-0.58 -0.16,-0.94l-4.398,-0Z" fill="#196721" fill-rule="nonzero"/><path d="M293.621,121.981c0.04,4.558 4.658,5.138 6.279,5.138c3.181,-0 6.599,-1.199 6.599,-4.918c-0,-2.621 -1.999,-3.562 -4.018,-4.122c-2.021,-0.56 -4.062,-0.78 -4.142,-1.8c-0,-0.8 0.98,-0.96 1.581,-0.96c0.44,-0 0.941,0.1 1.301,0.36c0.36,0.24 0.6,0.6 0.52,1.14l4.158,-0c-0.12,-3.478 -2.859,-4.658 -5.959,-4.658c-2.94,0 -5.759,1.419 -5.759,4.718c0,2.881 2.579,3.501 4.838,4.141c2.462,0.7 3.082,0.901 3.082,1.641c0,1.06 -1.1,1.3 -1.821,1.3c-0.82,0 -1.781,-0.18 -2.101,-1.04c-0.1,-0.26 -0.16,-0.58 -0.16,-0.94l-4.398,-0Z" fill="#196721" fill-rule="nonzero"/><path d="M358.999,111c-0,-0 0.331,-0.638 0.612,-1l0.388,-0l-0,0.011c-0,-0.004 -0,-0.008 -0,-0.011l1,-0l-0,1l-2,-0Zm-0,1l1,-0l-0,1l-1,-0l-0,-1Zm-0,2l1,-0l-0,1l-1,-0l-0,-1Zm-0,2l1,-0l-0,1l-1,-0l-0,-1Zm-0,2l1,-0l-0,1l-1,-0l-0,-1Zm-0,2l1,-0l-0,1l-1,-0l-0,-1Zm-0,2l1,-0l-0,1l-1,-0l-0,-1Zm-0,2l1,-0l-0,1l-1,-0l-0,-1Zm-0,2l1,-0l-0,1l-1,-0l-0,-1Zm-0,2l1,-0l-0,2l-1,-0l-0,-1l0.01,-0c-0.003,-0 -0.007,-0 -0.01,-0l-0,-1Zm2,2l-0,-1l1,-0l-0,1l-1,-0Zm2,-0l-0,-1l1,-0l-0,1l-1,-0Zm2,-0l-0,-1l1,-0l-0,1l-1,-0Zm2,-0l-0,-1l1,-0l-0,1l-1,-0Zm2,-0l-0,-1l1,-0l-0,1l-1,-0Zm2,-0l-0,-1l1,-0l-0,1l-1,-0Zm2,-0l-0,-1l1,-0l-0,1l-1,-0Zm2,-0l-0,-1l1,-0l-0,1l-1,-0Zm2,-0l-0,-1l2,-0l-0,1l-0.99,-0l-0.01,-0.011l-0,0.011l-1,-0Zm2,-2l-1,-0l-0,-1l1,-0l-0,1Zm-0,-2l-1,-0l-0,-1l1,-0l-0,1Zm-0,-2l-1,-0l-0,-1l1,-0l-0,1Zm-0,-2l-1,-0l-0,-1l1,-0l-0,1Zm-0,-2l-1,-0l-0,-1l1,-0l-0,1Zm-0,-2l-1,-0l-0,-1l1,-0l-0,1Zm-0,-2l-1,-0l-0,-1l1,-0l-0,1Zm-0,-2l-1,-0l-0,-1l1,-0l-0,1Zm-0,-2l-1,-0l-0,-2c-0,0.942 1,1 1,1l-0,1Zm-2,-2l-0,1l-1,-0l-0,-1l1,-0Zm-2,-0l-0,1l-1,-0l-0,-1l1,-0Zm-2,-0l-0,1l-1,-0l-0,-1l1,-0Zm-2,-0l-0,1l-1,-0l-0,-1l1,-0Zm-2,-0l-0,1l-1,-0l-0,-1l1,-0Zm-2,-0l-0,1l-1,-0l-0,-1l1,-0Zm-2,-0l-0,1l-1,-0l-0,-1l1,-0Zm-2,-0l-0,1l-1,-0l-0,-1l1,-0Z" fill="#6a6bd3"/><path d="M382.999,111c-0,-0 0.331,-0.638 0.612,-1l0.388,-0l-0,0.011c-0,-0.004 -0,-0.008 -0,-0.011l1,-0l-0,1l-2,-0Zm-0,1l1,-0l-0,1l-1,-0l-0,-1Zm-0,2l1,-0l-0,1l-1,-0l-0,-1Zm-0,2l1,-0l-0,1l-1,-0l-0,-1Zm-0,2l1,-0l-0,1l-1,-0l-0,-1Zm-0,2l1,-0l-0,1l-1,-0l-0,-1Zm-0,2l1,-0l-0,1l-1,-0l-0,-1Zm-0,2l1,-0l-0,1l-1,-0l-0,-1Zm-0,2l1,-0l-0,1l-1,-0l-0,-1Zm-0,2l1,-0l-0,2l-1,-0l-0,-1l0.01,-0c-0.003,-0 -0.007,-0 -0.01,-0l-0,-1Zm2,2l-0,-1l1,-0l-0,1l-1,-0Zm2,-0l-0,-1l1,-0l-0,1l-1,-0Zm2,-0l-0,-1l1,-0l-0,1l-1,-0Zm2,-0l-0,-1l1,-0l-0,1l-1,-0Zm2,-0l-0,-1l1,-0l-0,1l-1,-0Zm2,-0l-0,-1l1,-0l-0,1l-1,-0Zm2,-0l-0,-1l1,-0l-0,1l-1,-0Zm2,-0l-0,-1l1,-0l-0,1l-1,-0Zm2,-0l-0,-1l2,-0l-0,1l-1,-0l-0,-0.011c-0,0.003 -0,0.007 -0,0.011l-1,-0Zm2,-2l-1,-0l-0,-1l1,-0l-0,1Zm-0,-2l-1,-0l-0,-1l1,-0l-0,1Zm-0,-2l-1,-0l-0,-1l1,-0l-0,1Zm-0,-2l-1,-0l-0,-1l1,-0l-0,1Zm-0,-2l-1,-0l-0,-1l1,-0l-0,1Zm-0,-2l-1,-0l-0,-1l1,-0l-0,1Zm-0,-2l-1,-0l-0,-1l1,-0l-0,1Zm-0,-2l-1,-0l-0,-1l1,-0l-0,1Zm-0,-2l-1,-0l-0,-2c-0,0.942 1,1 1,1l-0,1Zm-2,-2l-0,1l-1,-0l-0,-1l1,-0Zm-2,-0l-0,1l-1,-0l-0,-1l1,-0Zm-2,-0l-0,1l-1,-0l-0,-1l1,-0Zm-2,-0l-0,1l-1,-0l-0,-1l1,-0Zm-2,-0l-0,1l-1,-0l-0,-1l1,-0Zm-2,-0l-0,1l-1,-0l-0,-1l1,-0Zm-2,-0l-0,1l-1,-0l-0,-1l1,-0Zm-2,-0l-0,1l-1,-0l-0,-1l1,-0Z" fill="#6a6bd3"/><path d="M406.999,111c-0,-0 0.331,-0.638 0.612,-1l0.388,-0l-0,0.011c-0,-0.004 -0,-0.008 -0,-0.011l1,-0l-0,1l-2,-0Zm-0,1l1,-0l-0,1l-1,-0l-0,-1Zm-0,2l1,-0l-0,1l-1,-0l-0,-1Zm-0,2l1,-0l-0,1l-1,-0l-0,-1Zm-0,2l1,-0l-0,1l-1,-0l-0,-1Zm-0,2l1,-0l-0,1l-1,-0l-0,-1Zm-0,2l1,-0l-0,1l-1,-0l-0,-1Zm-0,2l1,-0l-0,1l-1,-0l-0,-1Zm-0,2l1,-0l-0,1l-1,-0l-0,-1Zm-0,2l1,-0l-0,2l-1,-0l-0,-1l0.01,-0c-0.003,-0 -0.007,-0 -0.01,-0l-0,-1Zm2,2l-0,-1l1,-0l-0,1l-1,-0Zm2,-0l-0,-1l1,-0l-0,1l-1,-0Zm2,-0l-0,-1l1,-0l-0,1l-1,-0Zm2,-0l-0,-1l1,-0l-0,1l-1,-0Zm2,-0l-0,-1l1,-0l-0,1l-1,-0Zm2,-0l-0,-1l1,-0l-0,1l-1,-0Zm2,-0l-0,-1l1,-0l-0,1l-1,-0Zm2,-0l-0,-1l1,-0l-0,1l-1,-0Zm2,-0l-0,-1l2,-0l-0,1l-0.99,-0l-0.01,-0.011l-0,0.011l-1,-0Zm2,-2l-1,-0l-0,-1l1,-0l-0,1Zm-0,-2l-1,-0l-0,-1l1,-0l-0,1Zm-0,-2l-1,-0l-0,-1l1,-0l-0,1Zm-0,-2l-1,-0l-0,-1l1,-0l-0,1Zm-0,-2l-1,-0l-0,-1l1,-0l-0,1Zm-0,-2l-1,-0l-0,-1l1,-0l-0,1Zm-0,-2l-1,-0l-0,-1l1,-0l-0,1Zm-0,-2l-1,-0l-0,-1l1,-0l-0,1Zm-0,-2l-1,-0l-0,-2c-0,0.942 1,1 1,1l-0,1Zm-2,-2l-0,1l-1,-0l-0,-1l1,-0Zm-2,-0l-0,1l-1,-0l-0,-1l1,-0Zm-2,-0l-0,1l-1,-0l-0,-1l1,-0Zm-2,-0l-0,1l-1,-0l-0,-1l1,-0Zm-2,-0l-0,1l-1,-0l-0,-1l1,-0Zm-2,-0l-0,1l-1,-0l-0,-1l1,-0Zm-2,-0l-0,1l-1,-0l-0,-1l1,-0Zm-2,-0l-0,1l-1,-0l-0,-1l1,-0Z" fill="#6a6bd3"/><path d="M430.999,111c-0,-0 0.331,-0.638 0.612,-1l0.388,-0l-0,0.011c-0,-0.004 -0,-0.008 -0,-0.011l1,-0l-0,1l-2,-0Zm-0,1l1,-0l-0,1l-1,-0l-0,-1Zm-0,2l1,-0l-0,1l-1,-0l-0,-1Zm-0,2l1,-0l-0,1l-1,-0l-0,-1Zm-0,2l1,-0l-0,1l-1,-0l-0,-1Zm-0,2l1,-0l-0,1l-1,-0l-0,-1Zm-0,2l1,-0l-0,1l-1,-0l-0,-1Zm-0,2l1,-0l-0,1l-1,-0l-0,-1Zm-0,2l1,-0l-0,1l-1,-0l-0,-1Zm-0,2l1,-0l-0,2l-1,-0l-0,-1l0.01,-0c-0.003,-0 -0.007,-0 -0.01,-0l-0,-1Zm2,2l-0,-1l1,-0l-0,1l-1,-0Zm2,-0l-0,-1l1,-0l-0,1l-1,-0Zm2,-0l-0,-1l1,-0l-0,1l-1,-0Zm2,-0l-0,-1l1,-0l-0,1l-1,-0Zm2,-0l-0,-1l1,-0l-0,1l-1,-0Zm2,-0l-0,-1l1,-0l-0,1l-1,-0Zm2,-0l-0,-1l1,-0l-0,1l-1,-0Zm2,-0l-0,-1l1,-0l-0,1l-1,-0Zm2,-0l-0,-1l2,-0l-0,1l-0.99,-0l-0.01,-0.011l-0,0.011l-1,-0Zm2,-2l-1,-0l-0,-1l1,-0l-0,1Zm-0,-2l-1,-0l-0,-1l1,-0l-0,1Zm-0,-2l-1,-0l-0,-1l1,-0l-0,1Zm-0,-2l-1,-0l-0,-1l1,-0l-0,1Zm-0,-2l-1,-0l-0,-1l1,-0l-0,1Zm-0,-2l-1,-0l-0,-1l1,-0l-0,1Zm-0,-2l-1,-0l-0,-1l1,-0l-0,1Zm-0,-2l-1,-0l-0,-1l1,-0l-0,1Zm-0,-2l-1,-0l-0,-2c-0,0.942 1,1 1,1l-0,1Zm-2,-2l-0,1l-1,-0l-0,-1l1,-0Zm-2,-0l-0,1l-1,-0l-0,-1l1,-0Zm-2,-0l-0,1l-1,-0l-0,-1l1,-0Zm-2,-0l-0,1l-1,-0l-0,-1l1,-0Zm-2,-0l-0,1l-1,-0l-0,-1l1,-0Zm-2,-0l-0,1l-1,-0l-0,-1l1,-0Zm-2,-0l-0,1l-1,-0l-0,-1l1,-0Zm-2,-0l-0,1l-1,-0l-0,-1l1,-0Z" fill="#6a6bd3"/><path d="M454.999,111c-0,-0 0.331,-0.638 0.612,-1l0.388,-0l-0,0.011c-0,-0.004 -0,-0.008 -0,-0.011l1,-0l-0,1l-2,-0Zm-0,1l1,-0l-0,1l-1,-0l-0,-1Zm-0,2l1,-0l-0,1l-1,-0l-0,-1Zm-0,2l1,-0l-0,1l-1,-0l-0,-1Zm-0,2l1,-0l-0,1l-1,-0l-0,-1Zm-0,2l1,-0l-0,1l-1,-0l-0,-1Zm-0,2l1,-0l-0,1l-1,-0l-0,-1Zm-0,2l1,-0l-0,1l-1,-0l-0,-1Zm-0,2l1,-0l-0,1l-1,-0l-0,-1Zm-0,2l1,-0l-0,2l-1,-0l-0,-1l0.01,-0c-0.003,-0 -0.007,-0 -0.01,-0l-0,-1Zm2,2l-0,-1l1,-0l-0,1l-1,-0Zm2,-0l-0,-1l1,-0l-0,1l-1,-0Zm2,-0l-0,-1l1,-0l-0,1l-1,-0Zm2,-0l-0,-1l1,-0l-0,1l-1,-0Zm2,-0l-0,-1l1,-0l-0,1l-1,-0Zm2,-0l-0,-1l1,-0l-0,1l-1,-0Zm2,-0l-0,-1l1,-0l-0,1l-1,-0Zm2,-0l-0,-1l1,-0l-0,1l-1,-0Zm2,-0l-0,-1l2,-0l-0,1l-1,-0l-0,-0.011c-0,0.003 -0,0.007 -0,0.011l-1,-0Zm2,-2l-1,-0l-0,-1l1,-0l-0,1Zm-0,-2l-1,-0l-0,-1l1,-0l-0,1Zm-0,-2l-1,-0l-0,-1l1,-0l-0,1Zm-0,-2l-1,-0l-0,-1l1,-0l-0,1Zm-0,-2l-1,-0l-0,-1l1,-0l-0,1Zm-0,-2l-1,-0l-0,-1l1,-0l-0,1Zm-0,-2l-1,-0l-0,-1l1,-0l-0,1Zm-0,-2l-1,-0l-0,-1l1,-0l-0,1Zm-0,-2l-1,-0l-0,-2c-0,0.942 1,1 1,1l-0,1Zm-2,-2l-0,1l-1,-0l-0,-1l1,-0Zm-2,-0l-0,1l-1,-0l-0,-1l1,-0Zm-2,-0l-0,1l-1,-0l-0,-1l1,-0Zm-2,-0l-0,1l-1,-0l-0,-1l1,-0Zm-2,-0l-0,1l-1,-0l-0,-1l1,-0Zm-2,-0l-0,1l-1,-0l-0,-1l1,-0Zm-2,-0l-0,1l-1,-0l-0,-1l1,-0Zm-2,-0l-0,1l-1,-0l-0,-1l1,-0Z" fill="#6a6bd3"/><path d="M478.999,111c-0,-0 0.331,-0.638 0.612,-1l0.388,-0l-0,0.011c-0,-0.004 -0,-0.008 -0,-0.011l1,-0l-0,1l-2,-0Zm-0,1l1,-0l-0,1l-1,-0l-0,-1Zm-0,2l1,-0l-0,1l-1,-0l-0,-1Zm-0,2l1,-0l-0,1l-1,-0l-0,-1Zm-0,2l1,-0l-0,1l-1,-0l-0,-1Zm-0,2l1,-0l-0,1l-1,-0l-0,-1Zm-0,2l1,-0l-0,1l-1,-0l-0,-1Zm-0,2l1,-0l-0,1l-1,-0l-0,-1Zm-0,2l1,-0l-0,1l-1,-0l-0,-1Zm-0,2l1,-0l-0,2l-1,-0l-0,-1l0.01,-0c-0.003,-0 -0.007,-0 -0.01,-0l-0,-1Zm2,2l-0,-1l1,-0l-0,1l-1,-0Zm2,-0l-0,-1l1,-0l-0,1l-1,-0Zm2,-0l-0,-1l1,-0l-0,1l-1,-0Zm2,-0l-0,-1l1,-0l-0,1l-1,-0Zm2,-0l-0,-1l1,-0l-0,1l-1,-0Zm2,-0l-0,-1l1,-0l-0,1l-1,-0Zm2,-0l-0,-1l1,-0l-0,1l-1,-0Zm2,-0l-0,-1l1,-0l-0,1l-1,-0Zm2,-0l-0,-1l2,-0l-0,1l-0.99,-0l-0.01,-0.011l-0,0.011l-1,-0Zm2,-2l-1,-0l-0,-1l1,-0l-0,1Zm-0,-2l-1,-0l-0,-1l1,-0l-0,1Zm-0,-2l-1,-0l-0,-1l1,-0l-0,1Zm-0,-2l-1,-0l-0,-1l1,-0l-0,1Zm-0,-2l-1,-0l-0,-1l1,-0l-0,1Zm-0,-2l-1,-0l-0,-1l1,-0l-0,1Zm-0,-2l-1,-0l-0,-1l1,-0l-0,1Zm-0,-2l-1,-0l-0,-1l1,-0l-0,1Zm-0,-2l-1,-0l-0,-2c-0,0.942 1,1 1,1l-0,1Zm-2,-2l-0,1l-1,-0l-0,-1l1,-0Zm-2,-0l-0,1l-1,-0l-0,-1l1,-0Zm-2,-0l-0,1l-1,-0l-0,-1l1,-0Zm-2,-0l-0,1l-1,-0l-0,-1l1,-0Zm-2,-0l-0,1l-1,-0l-0,-1l1,-0Zm-2,-0l-0,1l-1,-0l-0,-1l1,-0Zm-2,-0l-0,1l-1,-0l-0,-1l1,-0Zm-2,-0l-0,1l-1,-0l-0,-1l1,-0Z" fill="#6a6bd3"/><path d="M491.999,118c-0,1.645 -1.355,3 -3,3c-1.646,-0 -3,-1.355 -3,-3c-0,-1.646 1.354,-3 3,-3c1.645,-0 3,1.354 3,3Z" fill-rule="nonzero"/><path d="M480.999,120c-0,-4.389 3.611,-8 8,-8c4.388,-0 8,3.611 8,8c-0,4.388 -3.612,8 -8,8c-4.389,-0 -8,-3.612 -8,-8Zm8,-7c-3.84,-0 -7,3.16 -7,7c-0,1.588 0.54,3.129 1.532,4.37c0.71,-1.144 2.273,-2.37 5.468,-2.37c3.195,-0 4.757,1.225 5.468,2.37c0.991,-1.241 1.531,-2.782 1.531,-4.37c0,-3.84 -3.159,-7 -6.999,-7Z"/><path d="M466.533,113.015c0.133,0 0.26,0.053 0.354,0.146l4.95,4.95c0.194,0.194 0.194,0.513 0,0.707c-0.48,0.48 -1.072,0.588 -1.503,0.588c-0.177,0 -0.335,-0.018 -0.46,-0.039l-3.134,3.134c0.083,0.333 0.136,0.672 0.16,1.013c0.046,0.702 -0.032,1.687 -0.72,2.375c-0.194,0.194 -0.513,0.194 -0.707,0l-2.829,-2.828l-3.182,3.182c-0.195,0.195 -1.219,0.902 -1.414,0.707c-0.195,-0.195 0.512,-1.22 0.707,-1.414l3.182,-3.182l-2.828,-2.829c-0.194,-0.194 -0.194,-0.513 0,-0.707c0.688,-0.688 1.673,-0.767 2.375,-0.72c0.342,0.024 0.681,0.078 1.013,0.16l3.134,-3.133c-0.026,-0.152 -0.039,-0.306 -0.04,-0.461c0,-0.43 0.108,-1.022 0.589,-1.503c0.094,-0.093 0.221,-0.146 0.353,-0.146Z" fill-rule="nonzero"/><path d="M433.049,115.555c0.206,-0.907 1.02,-1.555 1.95,-1.555l12,-0c0.929,-0 1.743,0.648 1.95,1.555l-7.95,4.859l-7.95,-4.859Zm-0.05,1.142l-0,7.104l5.803,-3.558l-5.803,-3.546Zm6.761,4.133l-6.57,4.026c0.33,0.697 1.036,1.144 1.809,1.144l6.256,-0c-0.17,-0.482 -0.257,-0.989 -0.256,-1.5c-0.002,-1.329 0.587,-2.593 1.606,-3.446l-0.367,-0.225l-1.239,0.757l-1.239,-0.757l-0,0.001Zm9.239,-4.133l-0,4.974c-0.854,-1.058 -2.142,-1.673 -3.5,-1.671c-0.681,-0.001 -1.353,0.153 -1.965,0.45l-0.338,-0.207l5.803,-3.546Z" fill-rule="nonzero"/><path d="M448.999,124.5c-0,1.92 -1.58,3.5 -3.5,3.5c-1.92,-0 -3.5,-1.58 -3.5,-3.5c-0,-1.92 1.58,-3.5 3.5,-3.5c1.92,-0 3.5,1.58 3.5,3.5Zm-3.5,-2c-0.275,-0 -0.5,0.225 -0.5,0.5l-0,1l-1,-0c-0.275,-0 -0.5,0.225 -0.5,0.5c-0,0.274 0.225,0.5 0.5,0.5l1,-0l-0,1c-0,0.274 0.225,0.5 0.5,0.5c0.274,-0 0.5,-0.226 0.5,-0.5l-0,-1l1,-0c0.274,-0 0.5,-0.226 0.5,-0.5c-0,-0.275 -0.226,-0.5 -0.5,-0.5l-1,-0l-0,-1c-0,-0.275 -0.226,-0.5 -0.5,-0.5Z" fill-rule="nonzero"/><path d="M417.706,113.395c-0.388,-0.388 -1.027,-0.388 -1.414,0l-6.647,6.646c-0.094,0.094 -0.147,0.221 -0.147,0.354c-0,0.275 0.226,0.501 0.501,0.501c0.132,-0 0.26,-0.053 0.354,-0.147l6.646,-6.647l6.646,6.647c0.093,0.094 0.221,0.147 0.354,0.147c0.274,-0 0.5,-0.226 0.5,-0.501c0,-0.133 -0.053,-0.26 -0.146,-0.354l-2.354,-2.353l-0,-3.293c-0,-0.274 -0.226,-0.5 -0.5,-0.5l-1,0c-0.275,0 -0.5,0.226 -0.5,0.5l-0,1.293l-2.293,-2.293Z" fill-rule="nonzero"/><path d="M416.999,115.188l6,6l-0,4.207c-0,0.823 -0.678,1.5 -1.5,1.5l-9,0c-0.823,0 -1.5,-0.677 -1.5,-1.5l-0,-4.207l6,-6Z" fill-rule="nonzero"/><path d="M392.999,112c4.388,-0 8,3.611 8,8c-0,4.388 -3.612,8 -8,8c-4.389,-0 -8,-3.612 -8,-8c-0,-4.389 3.611,-8 8,-8Zm-3.5,7.5c-0.275,-0 -0.5,0.225 -0.5,0.5c-0,0.274 0.225,0.5 0.5,0.5l5.793,-0l-2.147,2.146c-0.094,0.093 -0.147,0.221 -0.147,0.354c-0,0.274 0.226,0.5 0.501,0.5c0.132,0 0.26,-0.053 0.354,-0.146l3,-3c0.094,-0.094 0.146,-0.222 0.146,-0.354c0,-0.133 -0.052,-0.261 -0.146,-0.354l-3,-3c-0.094,-0.094 -0.222,-0.147 -0.354,-0.147c-0.275,-0 -0.501,0.226 -0.501,0.501c-0,0.132 0.053,0.26 0.147,0.354l2.147,2.146l-5.793,-0Z" fill-rule="nonzero"/><path d="M368.999,112c-4.389,-0 -8,3.611 -8,8c-0,4.388 3.611,8 8,8c4.388,-0 8,-3.612 8,-8c-0,-4.389 -3.612,-8 -8,-8Zm3.5,7.5c0.274,-0 0.5,0.225 0.5,0.5c-0,0.274 -0.226,0.5 -0.5,0.5l-5.793,-0l2.147,2.146c0.093,0.093 0.146,0.221 0.146,0.354c0,0.274 -0.226,0.5 -0.5,0.5c-0.133,0 -0.261,-0.053 -0.354,-0.146l-3,-3c-0.094,-0.094 -0.147,-0.222 -0.147,-0.354c-0,-0.133 0.053,-0.261 0.147,-0.354l3,-3c0.093,-0.094 0.221,-0.147 0.354,-0.147c0.274,-0 0.5,0.226 0.5,0.501c0,0.132 -0.053,0.26 -0.146,0.354l-2.147,2.146l5.793,-0Z" fill-rule="nonzero"/><path d="M357.499,135.5l-0,8" fill="none" stroke="#000" stroke-width="1px" stroke-miterlimit="10"/><path d="M380.499,135.5l-0,8" fill="none" stroke="#000" stroke-width="1px" stroke-miterlimit="10"/><path d="M357.499,139.5l23,-0" fill="none" stroke="#000" stroke-width="1px"/><g transform="matrix(1,0,0,1,200.901,-58.6766)"><path d="M0.129,-0.458c-0.003,-0.085 0.039,-0.176 0.138,-0.176c0.075,-0 0.137,0.051 0.137,0.128c0,0.098 -0.061,0.142 -0.181,0.216c-0.1,0.062 -0.185,0.122 -0.199,0.29l0.463,-0l-0,-0.075l-0.364,0c0.017,-0.088 0.11,-0.133 0.199,-0.187c0.088,-0.055 0.172,-0.118 0.172,-0.243c-0,-0.132 -0.098,-0.204 -0.222,-0.204c-0.15,0 -0.235,0.107 -0.228,0.251l0.085,-0Z" fill="#196721" fill-rule="nonzero" transform="matrix(12,0,0,12,154.828,213.245)"/><path d="M0.419,-0.709l-0.068,0l-0.323,0.461l0,0.082l0.311,-0l0,0.166l0.08,-0l-0,-0.166l0.096,-0l-0,-0.075l-0.096,0l-0,-0.468Zm-0.318,0.468l0.236,-0.347l0.002,0l0,0.347l-0.238,0Z" fill="#196721" fill-rule="nonzero" transform="matrix(12,0,0,12,161.5,213.245)"/><path d="M0.467,-0.263c0,0.101 -0.039,0.2 -0.155,0.2c-0.117,0 -0.163,-0.094 -0.163,-0.196c-0,-0.097 0.044,-0.195 0.158,-0.195c0.11,-0 0.16,0.094 0.16,0.191Zm-0.4,0.461l0.085,-0l-0,-0.267l0.002,0c0.038,0.061 0.114,0.081 0.167,0.081c0.158,-0 0.236,-0.123 0.236,-0.269c-0,-0.146 -0.079,-0.272 -0.238,-0.272c-0.071,0 -0.137,0.025 -0.165,0.082l-0.002,-0l-0,-0.07l-0.085,0l0,0.715Z" fill="#196721" fill-rule="nonzero" transform="matrix(12,0,0,12,168.172,213.245)"/><path d="M0.009,-0l0.103,-0l0.144,-0.215l0.144,0.215l0.109,-0l-0.2,-0.28l0.178,-0.237l-0.102,0l-0.129,0.18l-0.124,-0.18l-0.109,0l0.18,0.245l-0.194,0.272Z" fill="#196721" fill-rule="nonzero" transform="matrix(12,0,0,12,175.288,213.245)"/><rect x="154.828" y="214.145" width="26.676" height="0.6" fill="#196721"/></g><circle cx="369.002" cy="120" r="12" fill="#00ff41" fill-opacity=".2"/><path d="M369.002,108c6.623,0 12,5.377 12,12c0,6.623 -5.377,12 -12,12c-6.623,-0 -12,-5.377 -12,-12c0,-6.623 5.377,-12 12,-12Zm0,1c-6.071,0 -11,4.929 -11,11c0,6.071 4.929,11 11,11c6.071,-0 11,-4.929 11,-11c0,-6.071 -4.929,-11 -11,-11Z" fill="#1b7024"/><circle cx="393.002" cy="120" r="12" fill="#00ff41" fill-opacity=".2"/><path d="M393.002,108c6.623,0 12,5.377 12,12c0,6.623 -5.377,12 -12,12c-6.623,-0 -12,-5.377 -12,-12c0,-6.623 5.377,-12 12,-12Zm0,1c-6.071,0 -11,4.929 -11,11c0,6.071 4.929,11 11,11c6.071,-0 11,-4.929 11,-11c0,-6.071 -4.929,-11 -11,-11Z" fill="#1b7024"/><circle cx="417.002" cy="120" r="12" fill="#00ff41" fill-opacity=".2"/><path d="M417.002,108c6.623,0 12,5.377 12,12c0,6.623 -5.377,12 -12,12c-6.623,-0 -12,-5.377 -12,-12c0,-6.623 5.377,-12 12,-12Zm0,1c-6.071,0 -11,4.929 -11,11c0,6.071 4.929,11 11,11c6.071,-0 11,-4.929 11,-11c0,-6.071 -4.929,-11 -11,-11Z" fill="#1b7024"/><circle cx="441.002" cy="120" r="12" fill="#00ff41" fill-opacity=".2"/><path d="M441.002,108c6.623,0 12,5.377 12,12c0,6.623 -5.377,12 -12,12c-6.623,-0 -12,-5.377 -12,-12c0,-6.623 5.377,-12 12,-12Zm0,1c-6.071,0 -11,4.929 -11,11c0,6.071 4.929,11 11,11c6.071,-0 11,-4.929 11,-11c0,-6.071 -4.929,-11 -11,-11Z" fill="#1b7024"/><circle cx="465.002" cy="120" r="12" fill="#00ff41" fill-opacity=".2"/><path d="M465.002,108c6.623,0 12,5.377 12,12c0,6.623 -5.377,12 -12,12c-6.623,-0 -12,-5.377 -12,-12c0,-6.623 5.377,-12 12,-12Zm0,1c-6.071,0 -11,4.929 -11,11c0,6.071 4.929,11 11,11c6.071,-0 11,-4.929 11,-11c0,-6.071 -4.929,-11 -11,-11Z" fill="#1b7024"/><circle cx="489.002" cy="120" r="12" fill="#00ff41" fill-opacity=".2"/><path d="M489.002,108c6.623,0 12,5.377 12,12c0,6.623 -5.377,12 -12,12c-6.623,-0 -12,-5.377 -12,-12c0,-6.623 5.377,-12 12,-12Zm0,1c-6.071,0 -11,4.929 -11,11c0,6.071 4.929,11 11,11c6.071,-0 11,-4.929 11,-11c0,-6.071 -4.929,-11 -11,-11Z" fill="#1b7024"/><path d="M59.002,196c0,-0 0.332,-0.637 0.613,-1l0.387,-0l0,0.011c0,-0.004 0,-0.007 0,-0.011l1,-0l0,1l-2,-0Zm0,1l1,0l0,1l-1,-0l0,-1Zm0,2l1,-0l0,1l-1,-0l0,-1Zm0,2l1,-0l0,1l-1,-0l0,-1Zm0,2l1,-0l0,1l-1,-0l0,-1Zm0,2l1,-0l0,1l-1,-0l0,-1Zm0,2l1,-0l0,1l-1,-0l0,-1Zm0,2l1,-0l0,1l-1,-0l0,-1Zm0,2l1,-0l0,1l-1,-0l0,-1Zm0,2l1,-0l0,2l-1,-0l0,-1l0.011,-0c-0.004,-0 -0.007,0 -0.011,0l0,-1Zm2,2l0,-1l1,-0l0,1l-1,-0Zm2,-0l0,-1l1,-0l0,1l-1,-0Zm2,-0l0,-1l1,-0l0,1l-1,-0Zm2,-0l0,-1l1,-0l0,1l-1,-0Zm2,-0l0,-1l1,-0l0,1l-1,-0Zm2,-0l0,-1l1,-0l0,1l-1,-0Zm2,-0l0,-1l1,-0l0,1l-1,-0Zm2,-0l0,-1l1,-0l0,1l-1,-0Zm2,-0l0,-1l2,-0l0,1l-1,-0l0,-0.011c0,0.004 0,0.007 0,0.011l-1,-0Zm2,-2l-1,-0l0,-1l1,-0l0,1Zm0,-2l-1,0l0,-1l1,0l0,1Zm0,-2l-1,0l0,-1l1,0l0,1Zm0,-2l-1,0l0,-1l1,0l0,1Zm0,-2l-1,0l0,-1l1,0l0,1Zm0,-2l-1,0l0,-1l1,0l0,1Zm0,-2l-1,-0l0,-1l1,0l0,1Zm0,-2l-1,0l0,-1l1,0l0,1Zm0,-2l-1,0l0,-2c0,0.943 1,1 1,1l0,1Zm-2,-2l0,1l-1,-0l0,-1l1,-0Zm-2,-0l0,1l-1,-0l0,-1l1,-0Zm-2,-0l0,1l-1,-0l0,-1l1,-0Zm-2,-0l0,1l-1,-0l0,-1l1,-0Zm-2,-0l0,1l-1,-0l0,-1l1,-0Zm-2,-0l0,1l-1,-0l0,-1l1,-0Zm-2,-0l0,1l-1,-0l0,-1l1,-0Zm-2,-0l0,1l-1,-0l0,-1l1,-0Z" fill="#6a6bd3"/><path d="M79.002,196c0,-0 0.332,-0.637 0.613,-1l0.387,-0l0,0.011c0,-0.004 0,-0.007 0,-0.011l1,-0l0,1l-2,-0Zm0,1l1,0l0,1l-1,-0l0,-1Zm0,2l1,-0l0,1l-1,-0l0,-1Zm0,2l1,-0l0,1l-1,-0l0,-1Zm0,2l1,-0l0,1l-1,-0l0,-1Zm0,2l1,-0l0,1l-1,-0l0,-1Zm0,2l1,-0l0,1l-1,-0l0,-1Zm0,2l1,-0l0,1l-1,-0l0,-1Zm0,2l1,-0l0,1l-1,-0l0,-1Zm0,2l1,-0l0,2l-1,-0l0,-1l0.011,-0c-0.004,-0 -0.007,0 -0.011,0l0,-1Zm2,2l0,-1l1,-0l0,1l-1,-0Zm2,-0l0,-1l1,-0l0,1l-1,-0Zm2,-0l0,-1l1,-0l0,1l-1,-0Zm2,-0l0,-1l1,-0l0,1l-1,-0Zm2,-0l0,-1l1,-0l0,1l-1,-0Zm2,-0l0,-1l1,-0l0,1l-1,-0Zm2,-0l0,-1l1,-0l0,1l-1,-0Zm2,-0l0,-1l1,-0l0,1l-1,-0Zm2,-0l0,-1l2,-0l0,1l-1,-0l0,-0.011c0,0.004 0,0.007 0,0.011l-1,-0Zm2,-2l-1,-0l0,-1l1,-0l0,1Zm0,-2l-1,0l0,-1l1,0l0,1Zm0,-2l-1,0l0,-1l1,0l0,1Zm0,-2l-1,0l0,-1l1,0l0,1Zm0,-2l-1,0l0,-1l1,0l0,1Zm0,-2l-1,0l0,-1l1,0l0,1Zm0,-2l-1,-0l0,-1l1,0l0,1Zm0,-2l-1,0l0,-1l1,0l0,1Zm0,-2l-1,0l0,-2c0,0.943 1,1 1,1l0,1Zm-2,-2l0,1l-1,-0l0,-1l1,-0Zm-2,-0l0,1l-1,-0l0,-1l1,-0Zm-2,-0l0,1l-1,-0l0,-1l1,-0Zm-2,-0l0,1l-1,-0l0,-1l1,-0Zm-2,-0l0,1l-1,-0l0,-1l1,-0Zm-2,-0l0,1l-1,-0l0,-1l1,-0Zm-2,-0l0,1l-1,-0l0,-1l1,-0Zm-2,-0l0,1l-1,-0l0,-1l1,-0Z" fill="#6a6bd3"/><path d="M99.002,196c0,-0 0.332,-0.637 0.613,-1l0.387,-0l0,0.011c0,-0.004 0,-0.007 0,-0.011l1,-0l0,1l-2,-0Zm0,1l1,0l0,1l-1,-0l0,-1Zm0,2l1,-0l0,1l-1,-0l0,-1Zm0,2l1,-0l0,1l-1,-0l0,-1Zm0,2l1,-0l0,1l-1,-0l0,-1Zm0,2l1,-0l0,1l-1,-0l0,-1Zm0,2l1,-0l0,1l-1,-0l0,-1Zm0,2l1,-0l0,1l-1,-0l0,-1Zm0,2l1,-0l0,1l-1,-0l0,-1Zm0,2l1,-0l0,2l-1,-0l0,-1l0.011,-0c-0.004,-0 -0.007,0 -0.011,0l0,-1Zm2,2l0,-1l1,-0l0,1l-1,-0Zm2,-0l0,-1l1,-0l0,1l-1,-0Zm2,-0l0,-1l1,-0l0,1l-1,-0Zm2,-0l0,-1l1,-0l0,1l-1,-0Zm2,-0l0,-1l1,-0l0,1l-1,-0Zm2,-0l0,-1l1,-0l0,1l-1,-0Zm2,-0l0,-1l1,-0l0,1l-1,-0Zm2,-0l0,-1l1,-0l0,1l-1,-0Zm2,-0l0,-1l2,-0l0,1l-1,-0l0,-0.011c0,0.004 0,0.007 0,0.011l-1,-0Zm2,-2l-1,-0l0,-1l1,-0l0,1Zm0,-2l-1,0l0,-1l1,0l0,1Zm0,-2l-1,0l0,-1l1,0l0,1Zm0,-2l-1,0l0,-1l1,0l0,1Zm0,-2l-1,0l0,-1l1,0l0,1Zm0,-2l-1,0l0,-1l1,0l0,1Zm0,-2l-1,-0l0,-1l1,0l0,1Zm0,-2l-1,0l0,-1l1,0l0,1Zm0,-2l-1,0l0,-2c0,0.943 1,1 1,1l0,1Zm-2,-2l0,1l-1,-0l0,-1l1,-0Zm-2,-0l0,1l-1,-0l0,-1l1,-0Zm-2,-0l0,1l-1,-0l0,-1l1,-0Zm-2,-0l0,1l-1,-0l0,-1l1,-0Zm-2,-0l0,1l-1,-0l0,-1l1,-0Zm-2,-0l0,1l-1,-0l0,-1l1,-0Zm-2,-0l0,1l-1,-0l0,-1l1,-0Zm-2,-0l0,1l-1,-0l0,-1l1,-0Z" fill="#6a6bd3"/><path d="M119.002,196c0,-0 0.332,-0.637 0.613,-1l0.387,-0l0,0.011c0,-0.004 0,-0.007 0,-0.011l1,-0l0,1l-2,-0Zm0,1l1,0l0,1l-1,-0l0,-1Zm0,2l1,-0l0,1l-1,-0l0,-1Zm0,2l1,-0l0,1l-1,-0l0,-1Zm0,2l1,-0l0,1l-1,-0l0,-1Zm0,2l1,-0l0,1l-1,-0l0,-1Zm0,2l1,-0l0,1l-1,-0l0,-1Zm0,2l1,-0l0,1l-1,-0l0,-1Zm0,2l1,-0l0,1l-1,-0l0,-1Zm0,2l1,-0l0,2l-1,-0l0,-1l0.011,-0c-0.004,-0 -0.007,0 -0.011,0l0,-1Zm2,2l0,-1l1,-0l0,1l-1,-0Zm2,-0l0,-1l1,-0l0,1l-1,-0Zm2,-0l0,-1l1,-0l0,1l-1,-0Zm2,-0l0,-1l1,-0l0,1l-1,-0Zm2,-0l0,-1l1,-0l0,1l-1,-0Zm2,-0l0,-1l1,-0l0,1l-1,-0Zm2,-0l0,-1l1,-0l0,1l-1,-0Zm2,-0l0,-1l1,-0l0,1l-1,-0Zm2,-0l0,-1l2,-0l0,1l-1,-0l0,-0.011c0,0.004 0,0.007 0,0.011l-1,-0Zm2,-2l-1,-0l0,-1l1,-0l0,1Zm0,-2l-1,0l0,-1l1,0l0,1Zm0,-2l-1,0l0,-1l1,0l0,1Zm0,-2l-1,0l0,-1l1,0l0,1Zm0,-2l-1,0l0,-1l1,0l0,1Zm0,-2l-1,0l0,-1l1,0l0,1Zm0,-2l-1,-0l0,-1l1,0l0,1Zm0,-2l-1,0l0,-1l1,0l0,1Zm0,-2l-1,0l0,-2c0,0.943 1,1 1,1l0,1Zm-2,-2l0,1l-1,-0l0,-1l1,-0Zm-2,-0l0,1l-1,-0l0,-1l1,-0Zm-2,-0l0,1l-1,-0l0,-1l1,-0Zm-2,-0l0,1l-1,-0l0,-1l1,-0Zm-2,-0l0,1l-1,-0l0,-1l1,-0Zm-2,-0l0,1l-1,-0l0,-1l1,-0Zm-2,-0l0,1l-1,-0l0,-1l1,-0Zm-2,-0l0,1l-1,-0l0,-1l1,-0Z" fill="#6a6bd3"/><path d="M139.002,196c0,-0 0.332,-0.637 0.613,-1l0.387,-0l0,0.011c0,-0.004 0,-0.007 0,-0.011l1,-0l0,1l-2,-0Zm0,1l1,0l0,1l-1,-0l0,-1Zm0,2l1,-0l0,1l-1,-0l0,-1Zm0,2l1,-0l0,1l-1,-0l0,-1Zm0,2l1,-0l0,1l-1,-0l0,-1Zm0,2l1,-0l0,1l-1,-0l0,-1Zm0,2l1,-0l0,1l-1,-0l0,-1Zm0,2l1,-0l0,1l-1,-0l0,-1Zm0,2l1,-0l0,1l-1,-0l0,-1Zm0,2l1,-0l0,2l-1,-0l0,-1l0.011,-0c-0.004,-0 -0.007,0 -0.011,0l0,-1Zm2,2l0,-1l1,-0l0,1l-1,-0Zm2,-0l0,-1l1,-0l0,1l-1,-0Zm2,-0l0,-1l1,-0l0,1l-1,-0Zm2,-0l0,-1l1,-0l0,1l-1,-0Zm2,-0l0,-1l1,-0l0,1l-1,-0Zm2,-0l0,-1l1,-0l0,1l-1,-0Zm2,-0l0,-1l1,-0l0,1l-1,-0Zm2,-0l0,-1l1,-0l0,1l-1,-0Zm2,-0l0,-1l2,-0l0,1l-1,-0l0,-0.011c0,0.004 0,0.007 0,0.011l-1,-0Zm2,-2l-1,-0l0,-1l1,-0l0,1Zm0,-2l-1,0l0,-1l1,0l0,1Zm0,-2l-1,0l0,-1l1,0l0,1Zm0,-2l-1,0l0,-1l1,0l0,1Zm0,-2l-1,0l0,-1l1,0l0,1Zm0,-2l-1,0l0,-1l1,0l0,1Zm0,-2l-1,-0l0,-1l1,0l0,1Zm0,-2l-1,0l0,-1l1,0l0,1Zm0,-2l-1,0l0,-2c0,0.943 1,1 1,1l0,1Zm-2,-2l0,1l-1,-0l0,-1l1,-0Zm-2,-0l0,1l-1,-0l0,-1l1,-0Zm-2,-0l0,1l-1,-0l0,-1l1,-0Zm-2,-0l0,1l-1,-0l0,-1l1,-0Zm-2,-0l0,1l-1,-0l0,-1l1,-0Zm-2,-0l0,1l-1,-0l0,-1l1,-0Zm-2,-0l0,1l-1,-0l0,-1l1,-0Zm-2,-0l0,1l-1,-0l0,-1l1,-0Z" fill="#6a6bd3"/><path d="M159.002,196c0,-0 0.332,-0.637 0.613,-1l0.387,-0l0,0.011c0,-0.004 0,-0.007 0,-0.011l1,-0l0,1l-2,-0Zm0,1l1,0l0,1l-1,-0l0,-1Zm0,2l1,-0l0,1l-1,-0l0,-1Zm0,2l1,-0l0,1l-1,-0l0,-1Zm0,2l1,-0l0,1l-1,-0l0,-1Zm0,2l1,-0l0,1l-1,-0l0,-1Zm0,2l1,-0l0,1l-1,-0l0,-1Zm0,2l1,-0l0,1l-1,-0l0,-1Zm0,2l1,-0l0,1l-1,-0l0,-1Zm0,2l1,-0l0,2l-1,-0l0,-1l0.011,-0c-0.004,-0 -0.007,0 -0.011,0l0,-1Zm2,2l0,-1l1,-0l0,1l-1,-0Zm2,-0l0,-1l1,-0l0,1l-1,-0Zm2,-0l0,-1l1,-0l0,1l-1,-0Zm2,-0l0,-1l1,-0l0,1l-1,-0Zm2,-0l0,-1l1,-0l0,1l-1,-0Zm2,-0l0,-1l1,-0l0,1l-1,-0Zm2,-0l0,-1l1,-0l0,1l-1,-0Zm2,-0l0,-1l1,-0l0,1l-1,-0Zm2,-0l0,-1l2,-0l0,1l-0.989,-0l-0.011,-0.011l0,0.011l-1,-0Zm2,-2l-1,-0l0,-1l1,-0l0,1Zm0,-2l-1,0l0,-1l1,0l0,1Zm0,-2l-1,0l0,-1l1,0l0,1Zm0,-2l-1,0l0,-1l1,0l0,1Zm0,-2l-1,0l0,-1l1,0l0,1Zm0,-2l-1,0l0,-1l1,0l0,1Zm0,-2l-1,-0l0,-1l1,0l0,1Zm0,-2l-1,0l0,-1l1,0l0,1Zm0,-2l-1,0l0,-2c0,0.943 1,1 1,1l0,1Zm-2,-2l0,1l-1,-0l0,-1l1,-0Zm-2,-0l0,1l-1,-0l0,-1l1,-0Zm-2,-0l0,1l-1,-0l0,-1l1,-0Zm-2,-0l0,1l-1,-0l0,-1l1,-0Zm-2,-0l0,1l-1,-0l0,-1l1,-0Zm-2,-0l0,1l-1,-0l0,-1l1,-0Zm-2,-0l0,1l-1,-0l0,-1l1,-0Zm-2,-0l0,1l-1,-0l0,-1l1,-0Z" fill="#6a6bd3"/><path d="M172.002,203c0,1.646 -1.354,3 -3,3c-1.646,-0 -3,-1.354 -3,-3c0,-1.646 1.354,-3 3,-3c1.646,-0 3,1.354 3,3Z" fill-rule="nonzero"/><path d="M161.002,205c0,-4.389 3.611,-8 8,-8c4.389,-0 8,3.611 8,8c0,4.389 -3.611,8 -8,8c-4.389,-0 -8,-3.611 -8,-8Zm8,-7c-3.84,0 -7,3.16 -7,7c0,1.588 0.541,3.13 1.532,4.37c0.71,-1.144 2.273,-2.37 5.468,-2.37c3.195,-0 4.757,1.225 5.468,2.37c0.991,-1.24 1.532,-2.782 1.532,-4.37c-0,-3.84 -3.16,-7 -7,-7Z"/><path d="M150.537,198.016c0.132,-0.001 0.26,0.052 0.354,0.146l4.95,4.95c0.194,0.194 0.194,0.513 -0,0.707c-0.48,0.48 -1.072,0.588 -1.503,0.588c-0.177,-0 -0.335,-0.018 -0.46,-0.039l-3.134,3.134c0.082,0.332 0.136,0.671 0.16,1.013c0.046,0.702 -0.032,1.687 -0.72,2.375c-0.194,0.194 -0.513,0.194 -0.707,-0l-2.829,-2.828l-3.182,3.182c-0.195,0.195 -1.219,0.902 -1.414,0.707c-0.195,-0.195 0.512,-1.22 0.707,-1.414l3.182,-3.182l-2.828,-2.829c-0.194,-0.194 -0.194,-0.513 -0,-0.707c0.688,-0.688 1.673,-0.767 2.375,-0.72c0.341,0.024 0.68,0.077 1.013,0.16l3.134,-3.133c-0.026,-0.153 -0.04,-0.307 -0.04,-0.461c-0,-0.43 0.108,-1.022 0.589,-1.503c0.093,-0.094 0.22,-0.146 0.353,-0.146Z" fill-rule="nonzero"/><path d="M121.052,200.555c0.207,-0.907 1.02,-1.555 1.95,-1.555l12,-0c0.93,-0 1.743,0.648 1.95,1.555l-7.95,4.859l-7.95,-4.859Zm-0.05,1.142l0,7.104l5.803,-3.558l-5.803,-3.546Zm6.761,4.133l-6.57,4.026c0.331,0.698 1.037,1.145 1.809,1.144l6.256,-0c-0.17,-0.482 -0.256,-0.989 -0.256,-1.5c-0.001,-1.329 0.587,-2.592 1.606,-3.446l-0.367,-0.225l-1.239,0.757l-1.239,-0.757l0,0.001Zm9.239,-4.133l0,4.974c-0.853,-1.057 -2.141,-1.672 -3.5,-1.671c-0.681,-0.001 -1.352,0.153 -1.965,0.45l-0.338,-0.207l5.803,-3.546Z" fill-rule="nonzero"/><path d="M137.002,209.5c0,1.92 -1.58,3.5 -3.5,3.5c-1.92,-0 -3.5,-1.58 -3.5,-3.5c0,-1.92 1.58,-3.5 3.5,-3.5c1.92,-0 3.5,1.58 3.5,3.5Zm-3.5,-2c-0.274,-0 -0.5,0.226 -0.5,0.5l0,1l-1,-0c-0.274,-0 -0.5,0.226 -0.5,0.5c0,0.274 0.226,0.5 0.5,0.5l1,-0l0,1c0,0.274 0.226,0.5 0.5,0.5c0.274,-0 0.5,-0.226 0.5,-0.5l0,-1l1,-0c0.274,-0 0.5,-0.226 0.5,-0.5c0,-0.274 -0.226,-0.5 -0.5,-0.5l-1,-0l0,-1c0,-0.274 -0.226,-0.5 -0.5,-0.5Z" fill-rule="nonzero"/><path d="M109.709,198.395c-0.388,-0.387 -1.026,-0.387 -1.414,0l-6.647,6.646c-0.094,0.094 -0.147,0.222 -0.147,0.354c0,0.275 0.226,0.501 0.501,0.501c0.133,0 0.26,-0.053 0.354,-0.147l6.646,-6.647l6.646,6.647c0.094,0.094 0.221,0.147 0.354,0.147c0.275,0 0.501,-0.226 0.501,-0.501c-0,-0.132 -0.053,-0.26 -0.147,-0.354l-2.354,-2.353l0,-3.293c0,-0.274 -0.226,-0.5 -0.5,-0.5l-1,0c-0.274,0 -0.5,0.226 -0.5,0.5l0,1.293l-2.293,-2.293Z" fill-rule="nonzero"/><path d="M109.002,200.188l6,6l0,4.207c0,0.823 -0.677,1.5 -1.5,1.5l-9,0c-0.823,0 -1.5,-0.677 -1.5,-1.5l0,-4.207l6,-6Z" fill-rule="nonzero"/><path d="M89.002,197c4.389,-0 8,3.611 8,8c0,4.389 -3.611,8 -8,8c-4.389,-0 -8,-3.611 -8,-8c0,-4.389 3.611,-8 8,-8Zm-3.5,7.5c-0.274,-0 -0.5,0.226 -0.5,0.5c0,0.274 0.226,0.5 0.5,0.5l5.793,-0l-2.147,2.146c-0.094,0.094 -0.147,0.221 -0.147,0.354c0,0.275 0.226,0.501 0.501,0.501c0.133,-0 0.26,-0.053 0.354,-0.147l3,-3c0.094,-0.094 0.147,-0.221 0.147,-0.354c0,-0.133 -0.053,-0.26 -0.147,-0.354l-3,-3c-0.094,-0.094 -0.221,-0.147 -0.354,-0.147c-0.275,0 -0.501,0.226 -0.501,0.501c0,0.133 0.053,0.26 0.147,0.354l2.147,2.146l-5.793,-0Z" fill-rule="nonzero"/><path d="M69.002,197c-4.389,-0 -8,3.611 -8,8c0,4.389 3.611,8 8,8c4.389,-0 8,-3.611 8,-8c0,-4.389 -3.611,-8 -8,-8Zm3.5,7.5c0.274,-0 0.5,0.226 0.5,0.5c0,0.274 -0.226,0.5 -0.5,0.5l-5.793,-0l2.147,2.146c0.094,0.094 0.147,0.221 0.147,0.354c-0,0.275 -0.226,0.501 -0.501,0.501c-0.133,-0 -0.26,-0.053 -0.354,-0.147l-3,-3c-0.094,-0.094 -0.147,-0.221 -0.147,-0.354c0,-0.133 0.053,-0.26 0.147,-0.354l3,-3c0.094,-0.094 0.221,-0.147 0.354,-0.147c0.275,0 0.501,0.226 0.501,0.501c-0,0.133 -0.053,0.26 -0.147,0.354l-2.147,2.146l5.793,-0Z" fill-rule="nonzero"/><path d="M53.502,195.5l-8,-0" fill="none" stroke="#000" stroke-width="1px" stroke-miterlimit="10"/><path d="M53.502,214.5l-8,-0" fill="none" stroke="#000" stroke-width="1px" stroke-miterlimit="10"/><path d="M49.502,195.5l0,19" fill="none" stroke="#000" stroke-width="1px"/><path d="M59.502,220.5l0,8" fill="none" stroke="#000" stroke-width="1px" stroke-miterlimit="10"/><path d="M78.502,220.5l0,8" fill="none" stroke="#000" stroke-width="1px" stroke-miterlimit="10"/><path d="M59.502,224.5l19,-0" fill="none" stroke="#000" stroke-width="1px"/><path d="M16.871,203.072c-0.036,-1.021 0.468,-2.113 1.657,-2.113c0.9,0 1.645,0.612 1.645,1.537c-0,1.176 -0.733,1.704 -2.173,2.592c-1.201,0.744 -2.219,1.464 -2.387,3.479l5.554,0l0,-0.898l-4.368,-0c0.204,-1.056 1.321,-1.597 2.389,-2.245c1.057,-0.66 2.063,-1.416 2.063,-2.916c0,-1.585 -1.174,-2.447 -2.663,-2.447c-1.801,-0 -2.819,1.282 -2.735,3.011l1.018,-0Z" fill-rule="nonzero"/><path d="M22.501,204.392c-0,1.872 0.168,4.319 2.831,4.319c2.663,0 2.831,-2.447 2.831,-4.319c0,-1.884 -0.168,-4.331 -2.831,-4.331c-2.663,-0 -2.831,2.447 -2.831,4.331Zm1.078,-0.012c0,-1.26 0.012,-3.421 1.753,-3.421c1.741,0 1.753,2.161 1.753,3.421c-0,1.272 -0.012,3.433 -1.753,3.433c-1.741,-0 -1.753,-2.161 -1.753,-3.433Z" fill-rule="nonzero"/><path d="M34.273,205.412c-0,1.212 -0.468,2.401 -1.861,2.401c-1.405,-0 -1.957,-1.129 -1.957,-2.353c0,-1.164 0.528,-2.341 1.897,-2.341c1.321,0 1.921,1.129 1.921,2.293Zm-4.8,5.531l1.018,0l0,-3.202l0.024,-0c0.456,0.731 1.369,0.97 2.005,0.97c1.897,0 2.831,-1.474 2.831,-3.227c0,-1.753 -0.946,-3.263 -2.855,-3.263c-0.852,-0 -1.645,0.299 -1.981,0.982l-0.024,0l0,-0.838l-1.018,-0l-0,8.578Z" fill-rule="nonzero"/><path d="M35.893,208.567l1.235,0l1.728,-2.577l1.728,2.577l1.307,0l-2.399,-3.36l2.135,-2.842l-1.223,-0l-1.548,2.161l-1.488,-2.161l-1.307,-0l2.159,2.938l-2.327,3.264Z" fill-rule="nonzero"/><path d="M57.556,234.432c-0.036,-1.021 0.468,-2.113 1.657,-2.113c0.9,0 1.645,0.612 1.645,1.536c-0,1.177 -0.733,1.705 -2.173,2.593c-1.201,0.744 -2.219,1.464 -2.387,3.479l5.554,0l0,-0.898l-4.368,-0c0.204,-1.057 1.321,-1.597 2.389,-2.245c1.056,-0.66 2.063,-1.416 2.063,-2.917c0,-1.584 -1.175,-2.446 -2.663,-2.446c-1.801,-0 -2.819,1.282 -2.735,3.011l1.018,-0Z" fill-rule="nonzero"/><path d="M63.186,235.752c-0,1.872 0.167,4.319 2.831,4.319c2.663,0 2.831,-2.447 2.831,-4.319c0,-1.884 -0.168,-4.331 -2.831,-4.331c-2.664,-0 -2.831,2.447 -2.831,4.331Zm1.078,-0.012c0,-1.26 0.012,-3.421 1.753,-3.421c1.741,0 1.753,2.161 1.753,3.421c-0,1.272 -0.012,3.433 -1.753,3.433c-1.741,-0 -1.753,-2.161 -1.753,-3.433Z" fill-rule="nonzero"/><path d="M74.958,236.772c-0,1.212 -0.469,2.401 -1.861,2.401c-1.405,-0 -1.957,-1.129 -1.957,-2.353c0,-1.164 0.528,-2.341 1.897,-2.341c1.32,0 1.921,1.128 1.921,2.293Zm-4.8,5.531l1.018,0l0,-3.202l0.024,-0c0.456,0.731 1.369,0.97 2.005,0.97c1.896,0 2.831,-1.475 2.831,-3.227c0,-1.753 -0.947,-3.263 -2.855,-3.263c-0.853,-0 -1.645,0.299 -1.981,0.982l-0.024,0l0,-0.838l-1.018,-0l-0,8.578Z" fill-rule="nonzero"/><path d="M76.578,239.927l1.235,0l1.728,-2.577l1.727,2.577l1.308,0l-2.399,-3.36l2.135,-2.842l-1.224,-0l-1.547,2.161l-1.488,-2.161l-1.308,-0l2.16,2.938l-2.327,3.264Z" fill-rule="nonzero"/><path d="M258.141,211.779l4.398,-0l-0,-5.44l5.7,-0l-0,-3.398l-5.7,0l-0,-1.782l6.64,-0l-0,-3.658l-11.038,0l0,14.278Z" fill="#ac2020" fill-rule="nonzero"/><path d="M274.36,206.681l1.38,-4.4l0.04,0l1.28,4.4l-2.7,0Zm-6.019,5.098l4.42,-0l0.639,-2.04l4.54,-0l0.6,2.04l4.559,-0l-5.199,-14.278l-4.3,0l-5.259,14.278Z" fill="#ac2020" fill-rule="nonzero"/><rect x="284.081" y="197.501" width="4.397" height="14.278" fill="#ac2020" fill-rule="nonzero"/><path d="M290.741,211.779l10.718,-0l-0,-3.658l-6.32,0l-0,-10.62l-4.398,0l0,14.278Z" fill="#ac2020" fill-rule="nonzero"/><path d="M359.002,196c0,-0 0.332,-0.637 0.613,-1l0.387,-0l0,0.011c0,-0.004 0,-0.007 0,-0.011l1,-0l0,1l-2,-0Zm0,1l1,0l0,1l-1,-0l0,-1Zm0,2l1,-0l0,1l-1,-0l0,-1Zm0,2l1,-0l0,1l-1,-0l0,-1Zm0,2l1,-0l0,1l-1,-0l0,-1Zm0,2l1,-0l0,1l-1,-0l0,-1Zm0,2l1,-0l0,1l-1,-0l0,-1Zm0,2l1,-0l0,1l-1,-0l0,-1Zm0,2l1,-0l0,1l-1,-0l0,-1Zm0,2l1,-0l0,2l-1,-0l0,-1l0.011,-0c-0.004,-0 -0.007,0 -0.011,0l0,-1Zm2,2l0,-1l1,-0l0,1l-1,-0Zm2,-0l0,-1l1,-0l0,1l-1,-0Zm2,-0l0,-1l1,-0l0,1l-1,-0Zm2,-0l0,-1l1,-0l0,1l-1,-0Zm2,-0l0,-1l1,-0l0,1l-1,-0Zm2,-0l0,-1l1,-0l0,1l-1,-0Zm2,-0l0,-1l1,-0l0,1l-1,-0Zm2,-0l0,-1l1,-0l0,1l-1,-0Zm2,-0l0,-1l2,-0l0,1l-1,-0l0,-0.011c0,0.004 0,0.007 0,0.011l-1,-0Zm2,-2l-1,-0l0,-1l1,-0l0,1Zm0,-2l-1,0l0,-1l1,0l0,1Zm0,-2l-1,0l0,-1l1,0l0,1Zm0,-2l-1,0l0,-1l1,0l0,1Zm0,-2l-1,0l0,-1l1,0l0,1Zm0,-2l-1,0l0,-1l1,0l0,1Zm0,-2l-1,-0l0,-1l1,0l0,1Zm0,-2l-1,0l0,-1l1,0l0,1Zm0,-2l-1,0l0,-2c0,0.943 1,1 1,1l0,1Zm-2,-2l0,1l-1,-0l0,-1l1,-0Zm-2,-0l0,1l-1,-0l0,-1l1,-0Zm-2,-0l0,1l-1,-0l0,-1l1,-0Zm-2,-0l0,1l-1,-0l0,-1l1,-0Zm-2,-0l0,1l-1,-0l0,-1l1,-0Zm-2,-0l0,1l-1,-0l0,-1l1,-0Zm-2,-0l0,1l-1,-0l0,-1l1,-0Zm-2,-0l0,1l-1,-0l0,-1l1,-0Z" fill="#6a6bd3"/><path d="M379.002,196c0,-0 0.332,-0.637 0.613,-1l0.387,-0l0,0.011c0,-0.004 0,-0.007 0,-0.011l1,-0l0,1l-2,-0Zm0,1l1,0l0,1l-1,-0l0,-1Zm0,2l1,-0l0,1l-1,-0l0,-1Zm0,2l1,-0l0,1l-1,-0l0,-1Zm0,2l1,-0l0,1l-1,-0l0,-1Zm0,2l1,-0l0,1l-1,-0l0,-1Zm0,2l1,-0l0,1l-1,-0l0,-1Zm0,2l1,-0l0,1l-1,-0l0,-1Zm0,2l1,-0l0,1l-1,-0l0,-1Zm0,2l1,-0l0,2l-1,-0l0,-1l0.011,-0c-0.004,-0 -0.007,0 -0.011,0l0,-1Zm2,2l0,-1l1,-0l0,1l-1,-0Zm2,-0l0,-1l1,-0l0,1l-1,-0Zm2,-0l0,-1l1,-0l0,1l-1,-0Zm2,-0l0,-1l1,-0l0,1l-1,-0Zm2,-0l0,-1l1,-0l0,1l-1,-0Zm2,-0l0,-1l1,-0l0,1l-1,-0Zm2,-0l0,-1l1,-0l0,1l-1,-0Zm2,-0l0,-1l1,-0l0,1l-1,-0Zm2,-0l0,-1l2,-0l0,1l-1,-0l0,-0.011c0,0.004 0,0.007 0,0.011l-1,-0Zm2,-2l-1,-0l0,-1l1,-0l0,1Zm0,-2l-1,0l0,-1l1,0l0,1Zm0,-2l-1,0l0,-1l1,0l0,1Zm0,-2l-1,0l0,-1l1,0l0,1Zm0,-2l-1,0l0,-1l1,0l0,1Zm0,-2l-1,0l0,-1l1,0l0,1Zm0,-2l-1,-0l0,-1l1,0l0,1Zm0,-2l-1,0l0,-1l1,0l0,1Zm0,-2l-1,0l0,-2c0,0.943 1,1 1,1l0,1Zm-2,-2l0,1l-1,-0l0,-1l1,-0Zm-2,-0l0,1l-1,-0l0,-1l1,-0Zm-2,-0l0,1l-1,-0l0,-1l1,-0Zm-2,-0l0,1l-1,-0l0,-1l1,-0Zm-2,-0l0,1l-1,-0l0,-1l1,-0Zm-2,-0l0,1l-1,-0l0,-1l1,-0Zm-2,-0l0,1l-1,-0l0,-1l1,-0Zm-2,-0l0,1l-1,-0l0,-1l1,-0Z" fill="#6a6bd3"/><path d="M399.002,196c0,-0 0.332,-0.637 0.613,-1l0.387,-0l0,0.011c0,-0.004 0,-0.007 0,-0.011l1,-0l0,1l-2,-0Zm0,1l1,0l0,1l-1,-0l0,-1Zm0,2l1,-0l0,1l-1,-0l0,-1Zm0,2l1,-0l0,1l-1,-0l0,-1Zm0,2l1,-0l0,1l-1,-0l0,-1Zm0,2l1,-0l0,1l-1,-0l0,-1Zm0,2l1,-0l0,1l-1,-0l0,-1Zm0,2l1,-0l0,1l-1,-0l0,-1Zm0,2l1,-0l0,1l-1,-0l0,-1Zm0,2l1,-0l0,2l-1,-0l0,-1l0.011,-0c-0.004,-0 -0.007,0 -0.011,0l0,-1Zm2,2l0,-1l1,-0l0,1l-1,-0Zm2,-0l0,-1l1,-0l0,1l-1,-0Zm2,-0l0,-1l1,-0l0,1l-1,-0Zm2,-0l0,-1l1,-0l0,1l-1,-0Zm2,-0l0,-1l1,-0l0,1l-1,-0Zm2,-0l0,-1l1,-0l0,1l-1,-0Zm2,-0l0,-1l1,-0l0,1l-1,-0Zm2,-0l0,-1l1,-0l0,1l-1,-0Zm2,-0l0,-1l2,-0l0,1l-0.989,-0l-0.011,-0.011l0,0.011l-1,-0Zm2,-2l-1,-0l0,-1l1,-0l0,1Zm0,-2l-1,0l0,-1l1,0l0,1Zm0,-2l-1,0l0,-1l1,0l0,1Zm0,-2l-1,0l0,-1l1,0l0,1Zm0,-2l-1,0l0,-1l1,0l0,1Zm0,-2l-1,0l0,-1l1,0l0,1Zm0,-2l-1,-0l0,-1l1,0l0,1Zm0,-2l-1,0l0,-1l1,0l0,1Zm0,-2l-1,0l0,-2c0,0.943 1,1 1,1l0,1Zm-2,-2l0,1l-1,-0l0,-1l1,-0Zm-2,-0l0,1l-1,-0l0,-1l1,-0Zm-2,-0l0,1l-1,-0l0,-1l1,-0Zm-2,-0l0,1l-1,-0l0,-1l1,-0Zm-2,-0l0,1l-1,-0l0,-1l1,-0Zm-2,-0l0,1l-1,-0l0,-1l1,-0Zm-2,-0l0,1l-1,-0l0,-1l1,-0Zm-2,-0l0,1l-1,-0l0,-1l1,-0Z" fill="#6a6bd3"/><path d="M419.002,196c0,-0 0.332,-0.637 0.613,-1l0.387,-0l0,0.011c0,-0.004 0,-0.007 0,-0.011l1,-0l0,1l-2,-0Zm0,1l1,0l0,1l-1,-0l0,-1Zm0,2l1,-0l0,1l-1,-0l0,-1Zm0,2l1,-0l0,1l-1,-0l0,-1Zm0,2l1,-0l0,1l-1,-0l0,-1Zm0,2l1,-0l0,1l-1,-0l0,-1Zm0,2l1,-0l0,1l-1,-0l0,-1Zm0,2l1,-0l0,1l-1,-0l0,-1Zm0,2l1,-0l0,1l-1,-0l0,-1Zm0,2l1,-0l0,2l-1,-0l0,-1l0.011,-0c-0.004,-0 -0.007,0 -0.011,0l0,-1Zm2,2l0,-1l1,-0l0,1l-1,-0Zm2,-0l0,-1l1,-0l0,1l-1,-0Zm2,-0l0,-1l1,-0l0,1l-1,-0Zm2,-0l0,-1l1,-0l0,1l-1,-0Zm2,-0l0,-1l1,-0l0,1l-1,-0Zm2,-0l0,-1l1,-0l0,1l-1,-0Zm2,-0l0,-1l1,-0l0,1l-1,-0Zm2,-0l0,-1l1,-0l0,1l-1,-0Zm2,-0l0,-1l2,-0l0,1l-1,-0l0,-0.011c0,0.004 0,0.007 0,0.011l-1,-0Zm2,-2l-1,-0l0,-1l1,-0l0,1Zm0,-2l-1,0l0,-1l1,0l0,1Zm0,-2l-1,0l0,-1l1,0l0,1Zm0,-2l-1,0l0,-1l1,0l0,1Zm0,-2l-1,0l0,-1l1,0l0,1Zm0,-2l-1,0l0,-1l1,0l0,1Zm0,-2l-1,-0l0,-1l1,0l0,1Zm0,-2l-1,0l0,-1l1,0l0,1Zm0,-2l-1,0l0,-2c0,0.943 1,1 1,1l0,1Zm-2,-2l0,1l-1,-0l0,-1l1,-0Zm-2,-0l0,1l-1,-0l0,-1l1,-0Zm-2,-0l0,1l-1,-0l0,-1l1,-0Zm-2,-0l0,1l-1,-0l0,-1l1,-0Zm-2,-0l0,1l-1,-0l0,-1l1,-0Zm-2,-0l0,1l-1,-0l0,-1l1,-0Zm-2,-0l0,1l-1,-0l0,-1l1,-0Zm-2,-0l0,1l-1,-0l0,-1l1,-0Z" fill="#6a6bd3"/><path d="M439.002,196c0,-0 0.332,-0.637 0.613,-1l0.387,-0l0,0.011c0,-0.004 0,-0.007 0,-0.011l1,-0l0,1l-2,-0Zm0,1l1,0l0,1l-1,-0l0,-1Zm0,2l1,-0l0,1l-1,-0l0,-1Zm0,2l1,-0l0,1l-1,-0l0,-1Zm0,2l1,-0l0,1l-1,-0l0,-1Zm0,2l1,-0l0,1l-1,-0l0,-1Zm0,2l1,-0l0,1l-1,-0l0,-1Zm0,2l1,-0l0,1l-1,-0l0,-1Zm0,2l1,-0l0,1l-1,-0l0,-1Zm0,2l1,-0l0,2l-1,-0l0,-1l0.011,-0c-0.004,-0 -0.007,0 -0.011,0l0,-1Zm2,2l0,-1l1,-0l0,1l-1,-0Zm2,-0l0,-1l1,-0l0,1l-1,-0Zm2,-0l0,-1l1,-0l0,1l-1,-0Zm2,-0l0,-1l1,-0l0,1l-1,-0Zm2,-0l0,-1l1,-0l0,1l-1,-0Zm2,-0l0,-1l1,-0l0,1l-1,-0Zm2,-0l0,-1l1,-0l0,1l-1,-0Zm2,-0l0,-1l1,-0l0,1l-1,-0Zm2,-0l0,-1l2,-0l0,1l-1,-0l0,-0.011c0,0.004 0,0.007 0,0.011l-1,-0Zm2,-2l-1,-0l0,-1l1,-0l0,1Zm0,-2l-1,0l0,-1l1,0l0,1Zm0,-2l-1,0l0,-1l1,0l0,1Zm0,-2l-1,0l0,-1l1,0l0,1Zm0,-2l-1,0l0,-1l1,0l0,1Zm0,-2l-1,0l0,-1l1,0l0,1Zm0,-2l-1,-0l0,-1l1,0l0,1Zm0,-2l-1,0l0,-1l1,0l0,1Zm0,-2l-1,0l0,-2c0,0.943 1,1 1,1l0,1Zm-2,-2l0,1l-1,-0l0,-1l1,-0Zm-2,-0l0,1l-1,-0l0,-1l1,-0Zm-2,-0l0,1l-1,-0l0,-1l1,-0Zm-2,-0l0,1l-1,-0l0,-1l1,-0Zm-2,-0l0,1l-1,-0l0,-1l1,-0Zm-2,-0l0,1l-1,-0l0,-1l1,-0Zm-2,-0l0,1l-1,-0l0,-1l1,-0Zm-2,-0l0,1l-1,-0l0,-1l1,-0Z" fill="#6a6bd3"/><path d="M459.002,196c0,-0 0.332,-0.637 0.613,-1l0.387,-0l0,0.011c0,-0.004 0,-0.007 0,-0.011l1,-0l0,1l-2,-0Zm0,1l1,0l0,1l-1,-0l0,-1Zm0,2l1,-0l0,1l-1,-0l0,-1Zm0,2l1,-0l0,1l-1,-0l0,-1Zm0,2l1,-0l0,1l-1,-0l0,-1Zm0,2l1,-0l0,1l-1,-0l0,-1Zm0,2l1,-0l0,1l-1,-0l0,-1Zm0,2l1,-0l0,1l-1,-0l0,-1Zm0,2l1,-0l0,1l-1,-0l0,-1Zm0,2l1,-0l0,2l-1,-0l0,-1l0.011,-0c-0.004,-0 -0.007,0 -0.011,0l0,-1Zm2,2l0,-1l1,-0l0,1l-1,-0Zm2,-0l0,-1l1,-0l0,1l-1,-0Zm2,-0l0,-1l1,-0l0,1l-1,-0Zm2,-0l0,-1l1,-0l0,1l-1,-0Zm2,-0l0,-1l1,-0l0,1l-1,-0Zm2,-0l0,-1l1,-0l0,1l-1,-0Zm2,-0l0,-1l1,-0l0,1l-1,-0Zm2,-0l0,-1l1,-0l0,1l-1,-0Zm2,-0l0,-1l2,-0l0,1l-0.989,-0l-0.011,-0.011l0,0.011l-1,-0Zm2,-2l-1,-0l0,-1l1,-0l0,1Zm0,-2l-1,0l0,-1l1,0l0,1Zm0,-2l-1,0l0,-1l1,0l0,1Zm0,-2l-1,0l0,-1l1,0l0,1Zm0,-2l-1,0l0,-1l1,0l0,1Zm0,-2l-1,0l0,-1l1,0l0,1Zm0,-2l-1,-0l0,-1l1,0l0,1Zm0,-2l-1,0l0,-1l1,0l0,1Zm0,-2l-1,0l0,-2c0,0.943 1,1 1,1l0,1Zm-2,-2l0,1l-1,-0l0,-1l1,-0Zm-2,-0l0,1l-1,-0l0,-1l1,-0Zm-2,-0l0,1l-1,-0l0,-1l1,-0Zm-2,-0l0,1l-1,-0l0,-1l1,-0Zm-2,-0l0,1l-1,-0l0,-1l1,-0Zm-2,-0l0,1l-1,-0l0,-1l1,-0Zm-2,-0l0,1l-1,-0l0,-1l1,-0Zm-2,-0l0,1l-1,-0l0,-1l1,-0Z" fill="#6a6bd3"/><path d="M472.002,203c0,1.646 -1.354,3 -3,3c-1.646,-0 -3,-1.354 -3,-3c0,-1.646 1.354,-3 3,-3c1.646,-0 3,1.354 3,3Z" fill-rule="nonzero"/><path d="M461.002,205c0,-4.389 3.611,-8 8,-8c4.389,-0 8,3.611 8,8c0,4.389 -3.611,8 -8,8c-4.389,-0 -8,-3.611 -8,-8Zm8,-7c-3.84,0 -7,3.16 -7,7c0,1.588 0.541,3.13 1.532,4.37c0.71,-1.144 2.273,-2.37 5.468,-2.37c3.195,-0 4.757,1.225 5.468,2.37c0.991,-1.24 1.532,-2.782 1.532,-4.37c-0,-3.84 -3.16,-7 -7,-7Z"/><path d="M450.537,198.016c0.132,-0.001 0.26,0.052 0.354,0.146l4.95,4.95c0.194,0.194 0.194,0.513 -0,0.707c-0.48,0.48 -1.072,0.588 -1.503,0.588c-0.177,-0 -0.335,-0.018 -0.46,-0.039l-3.134,3.134c0.082,0.332 0.136,0.671 0.16,1.013c0.046,0.702 -0.032,1.687 -0.72,2.375c-0.194,0.194 -0.513,0.194 -0.707,-0l-2.829,-2.828l-3.182,3.182c-0.195,0.195 -1.219,0.902 -1.414,0.707c-0.195,-0.195 0.512,-1.22 0.707,-1.414l3.182,-3.182l-2.828,-2.829c-0.194,-0.194 -0.194,-0.513 -0,-0.707c0.688,-0.688 1.673,-0.767 2.375,-0.72c0.341,0.024 0.68,0.077 1.013,0.16l3.134,-3.133c-0.026,-0.153 -0.04,-0.307 -0.04,-0.461c-0,-0.43 0.108,-1.022 0.589,-1.503c0.093,-0.094 0.22,-0.146 0.353,-0.146Z" fill-rule="nonzero"/><path d="M421.052,200.555c0.207,-0.907 1.02,-1.555 1.95,-1.555l12,-0c0.93,-0 1.743,0.648 1.95,1.555l-7.95,4.859l-7.95,-4.859Zm-0.05,1.142l0,7.104l5.803,-3.558l-5.803,-3.546Zm6.761,4.133l-6.57,4.026c0.331,0.698 1.037,1.145 1.809,1.144l6.256,-0c-0.17,-0.482 -0.256,-0.989 -0.256,-1.5c-0.001,-1.329 0.587,-2.592 1.606,-3.446l-0.367,-0.225l-1.239,0.757l-1.239,-0.757l0,0.001Zm9.239,-4.133l0,4.974c-0.853,-1.057 -2.141,-1.672 -3.5,-1.671c-0.681,-0.001 -1.352,0.153 -1.965,0.45l-0.338,-0.207l5.803,-3.546Z" fill-rule="nonzero"/><path d="M437.002,209.5c0,1.92 -1.58,3.5 -3.5,3.5c-1.92,-0 -3.5,-1.58 -3.5,-3.5c0,-1.92 1.58,-3.5 3.5,-3.5c1.92,-0 3.5,1.58 3.5,3.5Zm-3.5,-2c-0.274,-0 -0.5,0.226 -0.5,0.5l0,1l-1,-0c-0.274,-0 -0.5,0.226 -0.5,0.5c0,0.274 0.226,0.5 0.5,0.5l1,-0l0,1c0,0.274 0.226,0.5 0.5,0.5c0.274,-0 0.5,-0.226 0.5,-0.5l0,-1l1,-0c0.274,-0 0.5,-0.226 0.5,-0.5c0,-0.274 -0.226,-0.5 -0.5,-0.5l-1,-0l0,-1c0,-0.274 -0.226,-0.5 -0.5,-0.5Z" fill-rule="nonzero"/><path d="M409.709,198.395c-0.388,-0.387 -1.026,-0.387 -1.414,0l-6.647,6.646c-0.094,0.094 -0.147,0.222 -0.147,0.354c0,0.275 0.226,0.501 0.501,0.501c0.133,0 0.26,-0.053 0.354,-0.147l6.646,-6.647l6.646,6.647c0.094,0.094 0.221,0.147 0.354,0.147c0.275,0 0.501,-0.226 0.501,-0.501c-0,-0.132 -0.053,-0.26 -0.147,-0.354l-2.354,-2.353l0,-3.293c0,-0.274 -0.226,-0.5 -0.5,-0.5l-1,0c-0.274,0 -0.5,0.226 -0.5,0.5l0,1.293l-2.293,-2.293Z" fill-rule="nonzero"/><path d="M409.002,200.188l6,6l0,4.207c0,0.823 -0.677,1.5 -1.5,1.5l-9,0c-0.823,0 -1.5,-0.677 -1.5,-1.5l0,-4.207l6,-6Z" fill-rule="nonzero"/><path d="M389.002,197c4.389,-0 8,3.611 8,8c0,4.389 -3.611,8 -8,8c-4.389,-0 -8,-3.611 -8,-8c0,-4.389 3.611,-8 8,-8Zm-3.5,7.5c-0.274,-0 -0.5,0.226 -0.5,0.5c0,0.274 0.226,0.5 0.5,0.5l5.793,-0l-2.147,2.146c-0.094,0.094 -0.147,0.221 -0.147,0.354c0,0.275 0.226,0.501 0.501,0.501c0.133,-0 0.26,-0.053 0.354,-0.147l3,-3c0.094,-0.094 0.147,-0.221 0.147,-0.354c0,-0.133 -0.053,-0.26 -0.147,-0.354l-3,-3c-0.094,-0.094 -0.221,-0.147 -0.354,-0.147c-0.275,0 -0.501,0.226 -0.501,0.501c0,0.133 0.053,0.26 0.147,0.354l2.147,2.146l-5.793,-0Z" fill-rule="nonzero"/><path d="M369.002,197c-4.389,-0 -8,3.611 -8,8c0,4.389 3.611,8 8,8c4.389,-0 8,-3.611 8,-8c0,-4.389 -3.611,-8 -8,-8Zm3.5,7.5c0.274,-0 0.5,0.226 0.5,0.5c0,0.274 -0.226,0.5 -0.5,0.5l-5.793,-0l2.147,2.146c0.094,0.094 0.147,0.221 0.147,0.354c-0,0.275 -0.226,0.501 -0.501,0.501c-0.133,-0 -0.26,-0.053 -0.354,-0.147l-3,-3c-0.094,-0.094 -0.147,-0.221 -0.147,-0.354c0,-0.133 0.053,-0.26 0.147,-0.354l3,-3c0.094,-0.094 0.221,-0.147 0.354,-0.147c0.275,0 0.501,0.226 0.501,0.501c-0,0.133 -0.053,0.26 -0.147,0.354l-2.147,2.146l5.793,-0Z" fill-rule="nonzero"/><path d="M357.502,220.5l0,8" fill="none" stroke="#000" stroke-width="1px" stroke-miterlimit="10"/><path d="M380.502,220.5l0,8" fill="none" stroke="#000" stroke-width="1px" stroke-miterlimit="10"/><path d="M357.502,224.5l23,-0" fill="none" stroke="#000" stroke-width="1px"/><g transform="matrix(1,0,0,1,201.519,26.6833)"><path d="M0.129,-0.458c-0.003,-0.085 0.039,-0.176 0.138,-0.176c0.075,-0 0.137,0.051 0.137,0.128c0,0.098 -0.061,0.142 -0.181,0.216c-0.1,0.062 -0.185,0.122 -0.199,0.29l0.463,-0l-0,-0.075l-0.364,0c0.017,-0.088 0.11,-0.133 0.199,-0.187c0.088,-0.055 0.172,-0.118 0.172,-0.243c-0,-0.132 -0.098,-0.204 -0.222,-0.204c-0.15,0 -0.235,0.107 -0.228,0.251l0.085,-0Z" fill="#ac2020" fill-rule="nonzero" transform="matrix(12,0,0,12,154.654,213.245)"/><path d="M0.419,-0.709l-0.068,0l-0.323,0.461l0,0.082l0.311,-0l0,0.166l0.08,-0l-0,-0.166l0.096,-0l-0,-0.075l-0.096,0l-0,-0.468Zm-0.318,0.468l0.236,-0.347l0.002,0l0,0.347l-0.238,0Z" fill="#ac2020" fill-rule="nonzero" transform="matrix(12,0,0,12,161.326,213.245)"/><path d="M0.467,-0.263c0,0.101 -0.039,0.2 -0.155,0.2c-0.117,0 -0.163,-0.094 -0.163,-0.196c-0,-0.097 0.044,-0.195 0.158,-0.195c0.11,-0 0.16,0.094 0.16,0.191Zm-0.4,0.461l0.085,-0l-0,-0.267l0.002,0c0.038,0.061 0.114,0.081 0.167,0.081c0.158,-0 0.236,-0.123 0.236,-0.269c-0,-0.146 -0.079,-0.272 -0.238,-0.272c-0.071,0 -0.137,0.025 -0.165,0.082l-0.002,-0l-0,-0.07l-0.085,0l0,0.715Z" fill="#ac2020" fill-rule="nonzero" transform="matrix(12,0,0,12,167.998,213.245)"/><path d="M0.009,-0l0.103,-0l0.144,-0.215l0.144,0.215l0.109,-0l-0.2,-0.28l0.178,-0.237l-0.102,0l-0.129,0.18l-0.124,-0.18l-0.109,0l0.18,0.245l-0.194,0.272Z" fill="#ac2020" fill-rule="nonzero" transform="matrix(12,0,0,12,175.114,213.245)"/><path d="M0.503,-0.351c-0.012,-0.123 -0.106,-0.178 -0.223,-0.178c-0.164,0 -0.244,0.122 -0.244,0.277c0,0.154 0.084,0.264 0.242,0.264c0.13,-0 0.209,-0.075 0.228,-0.201l-0.087,0c-0.011,0.078 -0.06,0.126 -0.142,0.126c-0.108,0 -0.151,-0.094 -0.151,-0.189c-0,-0.105 0.038,-0.202 0.161,-0.202c0.07,-0 0.115,0.038 0.128,0.103l0.088,-0Z" fill="#ac2020" fill-rule="nonzero" transform="matrix(12,0,0,12,184.666,213.245)"/><path d="M0.069,-0l0.085,-0l-0,-0.517l-0.085,0l0,0.517Zm0.085,-0.714l-0.085,0l0,0.104l0.085,-0l-0,-0.104Z" fill="#ac2020" fill-rule="nonzero" transform="matrix(12,0,0,12,191.11,213.245)"/><path d="M0.061,-0l0.085,-0l-0,-0.23c-0,-0.131 0.05,-0.209 0.187,-0.209l-0,-0.09c-0.092,-0.003 -0.149,0.038 -0.19,0.121l-0.002,-0l-0,-0.109l-0.08,0l0,0.517Z" fill="#ac2020" fill-rule="nonzero" transform="matrix(12,0,0,12,193.774,213.245)"/><path d="M0.503,-0.351c-0.012,-0.123 -0.106,-0.178 -0.223,-0.178c-0.164,0 -0.244,0.122 -0.244,0.277c0,0.154 0.084,0.264 0.242,0.264c0.13,-0 0.209,-0.075 0.228,-0.201l-0.087,0c-0.011,0.078 -0.06,0.126 -0.142,0.126c-0.108,0 -0.151,-0.094 -0.151,-0.189c-0,-0.105 0.038,-0.202 0.161,-0.202c0.07,-0 0.115,0.038 0.128,0.103l0.088,-0Z" fill="#ac2020" fill-rule="nonzero" transform="matrix(12,0,0,12,197.554,213.245)"/><rect x="0.069" y="-0.714" width="0.085" height="0.714" fill="#ac2020" fill-rule="nonzero" transform="matrix(12,0,0,12,203.998,213.245)"/><path d="M0.421,-0.164c-0.015,0.067 -0.064,0.101 -0.134,0.101c-0.113,0 -0.164,-0.08 -0.161,-0.17l0.387,-0c0.005,-0.125 -0.051,-0.296 -0.234,-0.296c-0.141,0 -0.243,0.114 -0.243,0.269c0.005,0.158 0.083,0.272 0.248,0.272c0.116,-0 0.198,-0.062 0.221,-0.176l-0.084,-0Zm-0.295,-0.144c0.006,-0.079 0.059,-0.146 0.148,-0.146c0.084,-0 0.145,0.065 0.149,0.146l-0.297,0Z" fill="#ac2020" fill-rule="nonzero" transform="matrix(12,0,0,12,206.662,213.245)"/><path d="M0.031,-0.163c0.005,0.128 0.103,0.175 0.219,0.175c0.105,-0 0.22,-0.04 0.22,-0.163c-0,-0.1 -0.084,-0.128 -0.169,-0.147c-0.079,-0.019 -0.169,-0.029 -0.169,-0.09c-0,-0.052 0.059,-0.066 0.11,-0.066c0.056,-0 0.114,0.021 0.12,0.087l0.085,-0c-0.007,-0.126 -0.098,-0.162 -0.212,-0.162c-0.09,0 -0.193,0.043 -0.193,0.147c0,0.099 0.085,0.127 0.169,0.146c0.085,0.019 0.169,0.03 0.169,0.096c0,0.065 -0.072,0.077 -0.125,0.077c-0.07,0 -0.136,-0.024 -0.139,-0.1l-0.085,0Z" fill="#ac2020" fill-rule="nonzero" transform="matrix(12,0,0,12,213.106,213.245)"/><path d="M0.069,-0l0.085,-0l-0,-0.517l-0.085,0l0,0.517Zm0.085,-0.714l-0.085,0l0,0.104l0.085,-0l-0,-0.104Z" fill="#ac2020" fill-rule="nonzero" transform="matrix(12,0,0,12,222.442,213.245)"/><path d="M0.064,-0l0.085,-0l-0,-0.292c-0,-0.093 0.05,-0.162 0.153,-0.162c0.065,-0 0.105,0.041 0.105,0.104l0,0.35l0.085,-0l-0,-0.34c-0,-0.111 -0.042,-0.189 -0.178,-0.189c-0.074,0 -0.132,0.03 -0.168,0.094l-0.002,-0l-0,-0.082l-0.08,0l0,0.517Z" fill="#ac2020" fill-rule="nonzero" transform="matrix(12,0,0,12,225.106,213.245)"/><path d="M0.182,-0.672l-0.085,0l0,0.155l-0.088,0l0,0.075l0.088,-0l0,0.329c0,0.095 0.035,0.113 0.123,0.113l0.065,-0l-0,-0.075l-0.039,0c-0.053,0 -0.064,-0.007 -0.064,-0.046l-0,-0.321l0.103,-0l-0,-0.075l-0.103,0l-0,-0.155Z" fill="#ac2020" fill-rule="nonzero" transform="matrix(12,0,0,12,231.778,213.245)"/><path d="M0.421,-0.164c-0.015,0.067 -0.064,0.101 -0.134,0.101c-0.113,0 -0.164,-0.08 -0.161,-0.17l0.387,-0c0.005,-0.125 -0.051,-0.296 -0.234,-0.296c-0.141,0 -0.243,0.114 -0.243,0.269c0.005,0.158 0.083,0.272 0.248,0.272c0.116,-0 0.198,-0.062 0.221,-0.176l-0.084,-0Zm-0.295,-0.144c0.006,-0.079 0.059,-0.146 0.148,-0.146c0.084,-0 0.145,0.065 0.149,0.146l-0.297,0Z" fill="#ac2020" fill-rule="nonzero" transform="matrix(12,0,0,12,235.558,213.245)"/><path d="M0.061,-0l0.085,-0l-0,-0.23c-0,-0.131 0.05,-0.209 0.187,-0.209l-0,-0.09c-0.092,-0.003 -0.149,0.038 -0.19,0.121l-0.002,-0l-0,-0.109l-0.08,0l0,0.517Z" fill="#ac2020" fill-rule="nonzero" transform="matrix(12,0,0,12,242.002,213.245)"/><path d="M0.031,-0.163c0.005,0.128 0.103,0.175 0.219,0.175c0.105,-0 0.22,-0.04 0.22,-0.163c-0,-0.1 -0.084,-0.128 -0.169,-0.147c-0.079,-0.019 -0.169,-0.029 -0.169,-0.09c-0,-0.052 0.059,-0.066 0.11,-0.066c0.056,-0 0.114,0.021 0.12,0.087l0.085,-0c-0.007,-0.126 -0.098,-0.162 -0.212,-0.162c-0.09,0 -0.193,0.043 -0.193,0.147c0,0.099 0.085,0.127 0.169,0.146c0.085,0.019 0.169,0.03 0.169,0.096c0,0.065 -0.072,0.077 -0.125,0.077c-0.07,0 -0.136,-0.024 -0.139,-0.1l-0.085,0Z" fill="#ac2020" fill-rule="nonzero" transform="matrix(12,0,0,12,245.998,213.245)"/><path d="M0.421,-0.164c-0.015,0.067 -0.064,0.101 -0.134,0.101c-0.113,0 -0.164,-0.08 -0.161,-0.17l0.387,-0c0.005,-0.125 -0.051,-0.296 -0.234,-0.296c-0.141,0 -0.243,0.114 -0.243,0.269c0.005,0.158 0.083,0.272 0.248,0.272c0.116,-0 0.198,-0.062 0.221,-0.176l-0.084,-0Zm-0.295,-0.144c0.006,-0.079 0.059,-0.146 0.148,-0.146c0.084,-0 0.145,0.065 0.149,0.146l-0.297,0Z" fill="#ac2020" fill-rule="nonzero" transform="matrix(12,0,0,12,251.998,213.245)"/><path d="M0.503,-0.351c-0.012,-0.123 -0.106,-0.178 -0.223,-0.178c-0.164,0 -0.244,0.122 -0.244,0.277c0,0.154 0.084,0.264 0.242,0.264c0.13,-0 0.209,-0.075 0.228,-0.201l-0.087,0c-0.011,0.078 -0.06,0.126 -0.142,0.126c-0.108,0 -0.151,-0.094 -0.151,-0.189c-0,-0.105 0.038,-0.202 0.161,-0.202c0.07,-0 0.115,0.038 0.128,0.103l0.088,-0Z" fill="#ac2020" fill-rule="nonzero" transform="matrix(12,0,0,12,258.442,213.245)"/><path d="M0.182,-0.672l-0.085,0l0,0.155l-0.088,0l0,0.075l0.088,-0l0,0.329c0,0.095 0.035,0.113 0.123,0.113l0.065,-0l-0,-0.075l-0.039,0c-0.053,0 -0.064,-0.007 -0.064,-0.046l-0,-0.321l0.103,-0l-0,-0.075l-0.103,0l-0,-0.155Z" fill="#ac2020" fill-rule="nonzero" transform="matrix(12,0,0,12,264.886,213.245)"/><rect x="184.666" y="214.145" width="84" height="0.6" fill="#ac2020"/></g><circle cx="369.002" cy="205" r="12" fill="#ca2626" fill-opacity=".2"/><path d="M369.002,193c6.623,-0 12,5.377 12,12c0,6.623 -5.377,12 -12,12c-6.623,-0 -12,-5.377 -12,-12c0,-6.623 5.377,-12 12,-12Zm0,1c-6.071,-0 -11,4.929 -11,11c0,6.071 4.929,11 11,11c6.071,-0 11,-4.929 11,-11c0,-6.071 -4.929,-11 -11,-11Z" fill="#ca2626"/><circle cx="389.002" cy="205" r="12" fill="#ca2626" fill-opacity=".2"/><path d="M389.002,193c6.623,-0 12,5.377 12,12c0,6.623 -5.377,12 -12,12c-6.623,-0 -12,-5.377 -12,-12c0,-6.623 5.377,-12 12,-12Zm0,1c-6.071,-0 -11,4.929 -11,11c0,6.071 4.929,11 11,11c6.071,-0 11,-4.929 11,-11c0,-6.071 -4.929,-11 -11,-11Z" fill="#ca2626"/><circle cx="409.035" cy="205" r="12" fill="#ca2626" fill-opacity=".2"/><path d="M409.035,193c6.623,-0 12,5.377 12,12c0,6.623 -5.377,12 -12,12c-6.623,-0 -12,-5.377 -12,-12c0,-6.623 5.377,-12 12,-12Zm0,1c-6.071,-0 -11,4.929 -11,11c0,6.071 4.929,11 11,11c6.072,-0 11,-4.929 11,-11c0,-6.071 -4.928,-11 -11,-11Z" fill="#ca2626"/><circle cx="429.035" cy="205" r="12" fill="#ca2626" fill-opacity=".2"/><path d="M429.035,193c6.623,-0 12,5.377 12,12c0,6.623 -5.377,12 -12,12c-6.623,-0 -12,-5.377 -12,-12c0,-6.623 5.377,-12 12,-12Zm0,1c-6.071,-0 -11,4.929 -11,11c0,6.071 4.929,11 11,11c6.072,-0 11,-4.929 11,-11c0,-6.071 -4.928,-11 -11,-11Z" fill="#ca2626"/><circle cx="449.002" cy="205" r="12" fill="#ca2626" fill-opacity=".2"/><path d="M449.002,193c6.623,-0 12,5.377 12,12c0,6.623 -5.377,12 -12,12c-6.623,-0 -12,-5.377 -12,-12c0,-6.623 5.377,-12 12,-12Zm0,1c-6.071,-0 -11,4.929 -11,11c0,6.071 4.929,11 11,11c6.071,-0 11,-4.929 11,-11c0,-6.071 -4.929,-11 -11,-11Z" fill="#ca2626"/><circle cx="469.002" cy="205" r="12" fill="#ca2626" fill-opacity=".2"/><path d="M469.002,193c6.623,-0 12,5.377 12,12c0,6.623 -5.377,12 -12,12c-6.623,-0 -12,-5.377 -12,-12c0,-6.623 5.377,-12 12,-12Zm0,1c-6.071,-0 -11,4.929 -11,11c0,6.071 4.929,11 11,11c6.071,-0 11,-4.929 11,-11c0,-6.071 -4.929,-11 -11,-11Z" fill="#ca2626"/></g></svg>