<?xml version="1.0" encoding="UTF-8" standalone="no"?>
<!DOCTYPE svg PUBLIC "-//W3C//DTD SVG 1.1//EN" "http://www.w3.org/Graphics/SVG/1.1/DTD/svg11.dtd">
<svg width="100%" height="100%" viewBox="0 0 395 100" version="1.1" xmlns="http://www.w3.org/2000/svg" xmlns:xlink="http://www.w3.org/1999/xlink" xml:space="preserve" xmlns:serif="http://www.serif.com/" style="fill-rule:evenodd;clip-rule:evenodd;stroke-linecap:round;stroke-linejoin:round;stroke-miterlimit:1.5;">
    <rect id="bounding-boxes" serif:id="bounding boxes" x="0" y="0" width="395" height="100" style="fill:none;"/>
    <clipPath id="_clip1">
        <rect id="bounding-boxes1" serif:id="bounding boxes" x="0" y="0" width="395" height="100"/>
    </clipPath>
    <g clip-path="url(#_clip1)">
        <rect id="background" x="-0" y="0" width="395" height="100" style="fill:#fff;"/>
        <g id="square">
            <rect x="43" y="27" width="18" height="18" style="fill:#d8d8d8;stroke:#8c8c8c;stroke-width:1px;"/>
            <path d="M52,24c6.623,0 12,5.377 12,12c-0,6.623 -5.377,12 -12,12c-6.623,0 -12,-5.377 -12,-12c-0,-6.623 5.377,-12 12,-12Zm-0,1c-6.071,0 -11,4.929 -11,11c-0,6.071 4.929,11 11,11c6.071,0 11,-4.929 11,-11c-0,-6.071 -4.929,-11 -11,-11Z" style="fill:#6a6bd3;"/>
            <path d="M43.5,52.5l-0,8" style="fill:none;stroke:#000;stroke-width:1px;stroke-linecap:butt;stroke-linejoin:miter;stroke-miterlimit:10;"/>
            <path d="M60.5,52.5l-0,8" style="fill:none;stroke:#000;stroke-width:1px;stroke-linecap:butt;stroke-linejoin:miter;stroke-miterlimit:10;"/>
            <path d="M43.5,56.5l17,-0" style="fill:none;stroke:#000;stroke-width:1px;stroke-linecap:butt;stroke-linejoin:miter;stroke-miterlimit:1;"/>
            <path d="M43.123,63.061l-0.779,-0c-0.228,1.284 -1.284,1.596 -2.448,1.596l0,0.814l2.208,0l0,6.096l1.019,0l-0,-8.506Z" style="fill-rule:nonzero;"/>
            <path d="M47.083,69.168c-0,-0.984 0.792,-1.633 1.8,-1.633c0.961,0 1.753,0.697 1.753,1.621c0,0.948 -0.72,1.657 -1.741,1.657c-1.056,-0 -1.812,-0.625 -1.812,-1.645Zm-0.779,-3.937c0,0.768 0.479,1.476 1.187,1.764c-0.948,0.336 -1.487,1.117 -1.487,2.125c0,1.741 1.259,2.591 2.891,2.591c1.573,0 2.82,-0.946 2.82,-2.591c-0,-1.056 -0.492,-1.801 -1.511,-2.125c0.695,-0.312 1.175,-1.008 1.175,-1.764c-0,-1.08 -0.719,-2.17 -2.58,-2.17c-1.308,-0 -2.495,0.766 -2.495,2.17Zm1.079,0.037c-0,-0.853 0.672,-1.309 1.488,-1.309c0.829,0 1.429,0.456 1.429,1.309c0,0.864 -0.6,1.369 -1.405,1.369c-0.84,-0 -1.512,-0.432 -1.512,-1.369Z" style="fill-rule:nonzero;"/>
            <path d="M57.8,68.412c0,1.212 -0.468,2.401 -1.861,2.401c-1.404,-0 -1.956,-1.129 -1.956,-2.353c-0,-1.164 0.528,-2.341 1.896,-2.341c1.321,0 1.921,1.129 1.921,2.293Zm-4.8,5.531l1.019,0l-0,-3.202l0.024,-0c0.456,0.731 1.368,0.97 2.004,0.97c1.897,0 2.832,-1.474 2.832,-3.227c-0,-1.753 -0.947,-3.263 -2.856,-3.263c-0.852,-0 -1.644,0.299 -1.98,0.982l-0.024,0l-0,-0.838l-1.019,-0l0,8.578Z" style="fill-rule:nonzero;"/>
            <path d="M59.42,71.567l1.236,0l1.727,-2.577l1.728,2.577l1.308,0l-2.4,-3.36l2.136,-2.842l-1.224,-0l-1.548,2.161l-1.487,-2.161l-1.308,-0l2.16,2.938l-2.328,3.264Z" style="fill-rule:nonzero;"/>
            <path d="M78.5,24.5l-8,-0" style="fill:none;stroke:#3a3bc5;stroke-width:1px;stroke-linecap:butt;stroke-linejoin:miter;stroke-miterlimit:10;"/>
            <path d="M78.5,47.5l-8,-0" style="fill:none;stroke:#3a3bc5;stroke-width:1px;stroke-linecap:butt;stroke-linejoin:miter;stroke-miterlimit:10;"/>
            <path d="M74.5,24.5l-0,23" style="fill:none;stroke:#3a3bc5;stroke-width:1px;stroke-linecap:butt;stroke-linejoin:miter;stroke-miterlimit:1;"/>
            <path d="M79.509,34.28c-0.036,-1.02 0.468,-2.112 1.657,-2.112c0.9,-0 1.645,0.612 1.645,1.536c-0,1.176 -0.733,1.704 -2.173,2.592c-1.201,0.745 -2.219,1.465 -2.387,3.48l5.554,-0l0,-0.899l-4.368,0c0.204,-1.056 1.321,-1.596 2.389,-2.244c1.057,-0.661 2.063,-1.417 2.063,-2.917c0,-1.584 -1.174,-2.447 -2.663,-2.447c-1.801,0 -2.819,1.283 -2.735,3.011l1.018,0Z" style="fill:#3a3bc5;fill-rule:nonzero;"/>
            <path d="M89.661,31.269l-0.815,0l-3.875,5.532l-0,0.983l3.732,-0l-0,1.992l0.958,-0l0,-1.992l1.152,-0l0,-0.899l-1.152,0l0,-5.616Zm-3.814,5.616l2.832,-4.164l0.024,0l-0,4.164l-2.856,0Z" style="fill:#3a3bc5;fill-rule:nonzero;"/>
            <path d="M96.911,36.62c-0,1.213 -0.469,2.401 -1.861,2.401c-1.405,0 -1.957,-1.128 -1.957,-2.353c0,-1.164 0.528,-2.34 1.897,-2.34c1.32,-0 1.921,1.128 1.921,2.292Zm-4.8,5.532l1.018,-0l0,-3.203l0.024,0c0.456,0.731 1.369,0.971 2.005,0.971c1.896,-0 2.831,-1.475 2.831,-3.228c0,-1.752 -0.947,-3.263 -2.855,-3.263c-0.852,0 -1.645,0.3 -1.981,0.983l-0.024,-0l0,-0.839l-1.018,0l-0,8.579Z" style="fill:#3a3bc5;fill-rule:nonzero;"/>
            <path d="M98.531,39.776l1.235,-0l1.728,-2.578l1.727,2.578l1.308,-0l-2.399,-3.36l2.135,-2.843l-1.223,0l-1.548,2.162l-1.488,-2.162l-1.307,0l2.159,2.939l-2.327,3.264Z" style="fill:#3a3bc5;fill-rule:nonzero;"/>
            <g>
                <path d="M50,34l4,4" style="fill:none;stroke:#000;stroke-width:1px;"/>
                <path d="M50,38l4,-4" style="fill:none;stroke:#000;stroke-width:1px;"/>
            </g>
        </g>
        <g id="convex">
            <path d="M171,23l25,10.4l-9,10.4l-19,5.2l3,-26Z" style="fill:#dadada;stroke:#8c8c8c;stroke-width:1px;"/>
            <g transform="matrix(1,0,0,1,-28.2266,-147.677)">
                <g transform="matrix(12,0,0,12,173.078,213.245)">
                    <path d="M0.503,-0.351c-0.012,-0.123 -0.106,-0.178 -0.223,-0.178c-0.164,0 -0.244,0.122 -0.244,0.277c0,0.154 0.084,0.264 0.242,0.264c0.13,-0 0.209,-0.075 0.228,-0.201l-0.087,0c-0.011,0.078 -0.06,0.126 -0.142,0.126c-0.108,0 -0.151,-0.094 -0.151,-0.189c-0,-0.105 0.038,-0.202 0.161,-0.202c0.07,-0 0.115,0.038 0.128,0.103l0.088,-0Z" style="fill-rule:nonzero;"/>
                </g>
                <g transform="matrix(12,0,0,12,179.522,213.245)">
                    <path d="M0.036,-0.258c0,0.151 0.087,0.27 0.251,0.27c0.164,-0 0.251,-0.119 0.251,-0.27c-0,-0.152 -0.087,-0.271 -0.251,-0.271c-0.164,0 -0.251,0.119 -0.251,0.271Zm0.09,0c-0,-0.126 0.072,-0.196 0.161,-0.196c0.089,-0 0.161,0.07 0.161,0.196c0,0.125 -0.072,0.195 -0.161,0.195c-0.089,0 -0.161,-0.07 -0.161,-0.195Z" style="fill-rule:nonzero;"/>
                </g>
                <g transform="matrix(12,0,0,12,186.41,213.245)">
                    <path d="M0.064,-0l0.085,-0l-0,-0.292c-0,-0.093 0.05,-0.162 0.153,-0.162c0.065,-0 0.105,0.041 0.105,0.104l0,0.35l0.085,-0l-0,-0.34c-0,-0.111 -0.042,-0.189 -0.178,-0.189c-0.074,0 -0.132,0.03 -0.168,0.094l-0.002,-0l-0,-0.082l-0.08,0l0,0.517Z" style="fill-rule:nonzero;"/>
                </g>
                <g transform="matrix(12,0,0,12,193.082,213.245)">
                    <path d="M0.486,-0.517l-0.089,0l-0.141,0.431l-0.002,0l-0.145,-0.431l-0.095,0l0.192,0.517l0.091,-0l0.189,-0.517Z" style="fill-rule:nonzero;"/>
                </g>
                <g transform="matrix(12,0,0,12,199.082,213.245)">
                    <path d="M0.421,-0.164c-0.015,0.067 -0.064,0.101 -0.134,0.101c-0.113,0 -0.164,-0.08 -0.161,-0.17l0.387,-0c0.005,-0.125 -0.051,-0.296 -0.234,-0.296c-0.141,0 -0.243,0.114 -0.243,0.269c0.005,0.158 0.083,0.272 0.248,0.272c0.116,-0 0.198,-0.062 0.221,-0.176l-0.084,-0Zm-0.295,-0.144c0.006,-0.079 0.059,-0.146 0.148,-0.146c0.084,-0 0.145,0.065 0.149,0.146l-0.297,0Z" style="fill-rule:nonzero;"/>
                </g>
                <g transform="matrix(12,0,0,12,205.526,213.245)">
                    <path d="M0.009,-0l0.103,-0l0.144,-0.215l0.144,0.215l0.109,-0l-0.2,-0.28l0.178,-0.237l-0.102,0l-0.129,0.18l-0.124,-0.18l-0.109,0l0.18,0.245l-0.194,0.272Z" style="fill-rule:nonzero;"/>
                </g>
                <g transform="matrix(12,0,0,12,215.078,213.245)">
                    <path d="M0.031,-0.163c0.005,0.128 0.103,0.175 0.219,0.175c0.105,-0 0.22,-0.04 0.22,-0.163c-0,-0.1 -0.084,-0.128 -0.169,-0.147c-0.079,-0.019 -0.169,-0.029 -0.169,-0.09c-0,-0.052 0.059,-0.066 0.11,-0.066c0.056,-0 0.114,0.021 0.12,0.087l0.085,-0c-0.007,-0.126 -0.098,-0.162 -0.212,-0.162c-0.09,0 -0.193,0.043 -0.193,0.147c0,0.099 0.085,0.127 0.169,0.146c0.085,0.019 0.169,0.03 0.169,0.096c0,0.065 -0.072,0.077 -0.125,0.077c-0.07,0 -0.136,-0.024 -0.139,-0.1l-0.085,0Z" style="fill-rule:nonzero;"/>
                </g>
                <g transform="matrix(12,0,0,12,221.078,213.245)">
                    <path d="M0.064,-0l0.085,-0l-0,-0.292c-0,-0.093 0.05,-0.162 0.153,-0.162c0.065,-0 0.105,0.041 0.105,0.104l0,0.35l0.085,-0l-0,-0.34c-0,-0.111 -0.042,-0.189 -0.178,-0.189c-0.062,0 -0.135,0.026 -0.163,0.088l-0.002,-0l-0,-0.273l-0.085,0l0,0.714Z" style="fill-rule:nonzero;"/>
                </g>
                <g transform="matrix(12,0,0,12,227.75,213.245)">
                    <path d="M0.384,-0.18c0,0.047 -0.046,0.117 -0.158,0.117c-0.052,0 -0.1,-0.02 -0.1,-0.076c-0,-0.063 0.048,-0.083 0.104,-0.093c0.057,-0.01 0.121,-0.011 0.154,-0.035l0,0.087Zm0.138,0.112c-0.011,0.004 -0.019,0.005 -0.026,0.005c-0.027,0 -0.027,-0.018 -0.027,-0.058l-0,-0.266c-0,-0.121 -0.101,-0.142 -0.194,-0.142c-0.115,0 -0.214,0.045 -0.219,0.173l0.085,-0c0.004,-0.076 0.057,-0.098 0.129,-0.098c0.054,-0 0.115,0.012 0.115,0.086c0,0.064 -0.08,0.058 -0.174,0.076c-0.088,0.017 -0.175,0.042 -0.175,0.159c0,0.103 0.077,0.145 0.171,0.145c0.072,-0 0.135,-0.025 0.182,-0.08c0,0.056 0.028,0.08 0.072,0.08c0.027,-0 0.046,-0.005 0.061,-0.014l-0,-0.066Z" style="fill-rule:nonzero;"/>
                </g>
                <g transform="matrix(12,0,0,12,234.194,213.245)">
                    <path d="M0.467,-0.263c0,0.101 -0.039,0.2 -0.155,0.2c-0.117,0 -0.163,-0.094 -0.163,-0.196c-0,-0.097 0.044,-0.195 0.158,-0.195c0.11,-0 0.16,0.094 0.16,0.191Zm-0.4,0.461l0.085,-0l-0,-0.267l0.002,0c0.038,0.061 0.114,0.081 0.167,0.081c0.158,-0 0.236,-0.123 0.236,-0.269c-0,-0.146 -0.079,-0.272 -0.238,-0.272c-0.071,0 -0.137,0.025 -0.165,0.082l-0.002,-0l-0,-0.07l-0.085,0l0,0.715Z" style="fill-rule:nonzero;"/>
                </g>
                <g transform="matrix(12,0,0,12,241.31,213.245)">
                    <path d="M0.421,-0.164c-0.015,0.067 -0.064,0.101 -0.134,0.101c-0.113,0 -0.164,-0.08 -0.161,-0.17l0.387,-0c0.005,-0.125 -0.051,-0.296 -0.234,-0.296c-0.141,0 -0.243,0.114 -0.243,0.269c0.005,0.158 0.083,0.272 0.248,0.272c0.116,-0 0.198,-0.062 0.221,-0.176l-0.084,-0Zm-0.295,-0.144c0.006,-0.079 0.059,-0.146 0.148,-0.146c0.084,-0 0.145,0.065 0.149,0.146l-0.297,0Z" style="fill-rule:nonzero;"/>
                </g>
                <g transform="matrix(12,0,0,12,160.52,227.645)">
                    <path d="M0.741,-0.517l-0.088,0l-0.116,0.423l-0.002,0l-0.108,-0.423l-0.093,0l-0.104,0.423l-0.002,0l-0.117,-0.423l-0.094,0l0.166,0.517l0.092,-0l0.104,-0.411l0.002,-0l0.105,0.411l0.09,-0l0.165,-0.517Z" style="fill-rule:nonzero;"/>
                </g>
                <g transform="matrix(12,0,0,12,169.616,227.645)">
                    <path d="M0.069,-0l0.085,-0l-0,-0.517l-0.085,0l0,0.517Zm0.085,-0.714l-0.085,0l0,0.104l0.085,-0l-0,-0.104Z" style="fill-rule:nonzero;"/>
                </g>
                <g transform="matrix(12,0,0,12,172.28,227.645)">
                    <path d="M0.182,-0.672l-0.085,0l0,0.155l-0.088,0l0,0.075l0.088,-0l0,0.329c0,0.095 0.035,0.113 0.123,0.113l0.065,-0l-0,-0.075l-0.039,0c-0.053,0 -0.064,-0.007 -0.064,-0.046l-0,-0.321l0.103,-0l-0,-0.075l-0.103,0l-0,-0.155Z" style="fill-rule:nonzero;"/>
                </g>
                <g transform="matrix(12,0,0,12,176.06,227.645)">
                    <path d="M0.064,-0l0.085,-0l-0,-0.292c-0,-0.093 0.05,-0.162 0.153,-0.162c0.065,-0 0.105,0.041 0.105,0.104l0,0.35l0.085,-0l-0,-0.34c-0,-0.111 -0.042,-0.189 -0.178,-0.189c-0.062,0 -0.135,0.026 -0.163,0.088l-0.002,-0l-0,-0.273l-0.085,0l0,0.714Z" style="fill-rule:nonzero;"/>
                </g>
                <g transform="matrix(12,0,0,12,186.068,227.645)">
                    <path d="M0.467,-0.263c0,0.101 -0.039,0.2 -0.155,0.2c-0.117,0 -0.163,-0.094 -0.163,-0.196c-0,-0.097 0.044,-0.195 0.158,-0.195c0.11,-0 0.16,0.094 0.16,0.191Zm-0.4,0.263l0.085,-0l-0,-0.069l0.002,0c0.038,0.061 0.114,0.081 0.167,0.081c0.158,-0 0.236,-0.123 0.236,-0.269c-0,-0.146 -0.079,-0.272 -0.238,-0.272c-0.071,0 -0.137,0.025 -0.165,0.082l-0.002,-0l-0,-0.267l-0.085,0l0,0.714Z" style="fill-rule:nonzero;"/>
                </g>
                <g transform="matrix(12,0,0,12,193.184,227.645)">
                    <path d="M0.036,-0.258c0,0.151 0.087,0.27 0.251,0.27c0.164,-0 0.251,-0.119 0.251,-0.27c-0,-0.152 -0.087,-0.271 -0.251,-0.271c-0.164,0 -0.251,0.119 -0.251,0.271Zm0.09,0c-0,-0.126 0.072,-0.196 0.161,-0.196c0.089,-0 0.161,0.07 0.161,0.196c0,0.125 -0.072,0.195 -0.161,0.195c-0.089,0 -0.161,-0.07 -0.161,-0.195Z" style="fill-rule:nonzero;"/>
                </g>
                <g transform="matrix(12,0,0,12,200.072,227.645)">
                    <path d="M0.492,-0.517l-0.085,0l0,0.292c0,0.093 -0.05,0.162 -0.153,0.162c-0.065,0 -0.105,-0.041 -0.105,-0.104l-0,-0.35l-0.085,0l0,0.34c0,0.111 0.042,0.189 0.178,0.189c0.074,-0 0.132,-0.03 0.168,-0.094l0.002,0l0,0.082l0.08,-0l-0,-0.517Z" style="fill-rule:nonzero;"/>
                </g>
                <g transform="matrix(12,0,0,12,206.744,227.645)">
                    <path d="M0.064,-0l0.085,-0l-0,-0.292c-0,-0.093 0.05,-0.162 0.153,-0.162c0.065,-0 0.105,0.041 0.105,0.104l0,0.35l0.085,-0l-0,-0.34c-0,-0.111 -0.042,-0.189 -0.178,-0.189c-0.074,0 -0.132,0.03 -0.168,0.094l-0.002,-0l-0,-0.082l-0.08,0l0,0.517Z" style="fill-rule:nonzero;"/>
                </g>
                <g transform="matrix(12,0,0,12,213.416,227.645)">
                    <path d="M0.526,-0.714l-0.085,0l0,0.266l-0.002,-0c-0.038,-0.061 -0.114,-0.081 -0.167,-0.081c-0.158,0 -0.236,0.123 -0.236,0.269c0,0.146 0.079,0.272 0.238,0.272c0.071,-0 0.137,-0.025 0.165,-0.082l0.002,0l0,0.07l0.085,-0l-0,-0.714Zm-0.4,0.46c-0,-0.101 0.039,-0.2 0.155,-0.2c0.117,-0 0.163,0.094 0.163,0.196c0,0.097 -0.044,0.195 -0.158,0.195c-0.11,0 -0.16,-0.094 -0.16,-0.191Z" style="fill-rule:nonzero;"/>
                </g>
                <g transform="matrix(12,0,0,12,220.532,227.645)">
                    <path d="M0.069,-0l0.085,-0l-0,-0.517l-0.085,0l0,0.517Zm0.085,-0.714l-0.085,0l0,0.104l0.085,-0l-0,-0.104Z" style="fill-rule:nonzero;"/>
                </g>
                <g transform="matrix(12,0,0,12,223.196,227.645)">
                    <path d="M0.064,-0l0.085,-0l-0,-0.292c-0,-0.093 0.05,-0.162 0.153,-0.162c0.065,-0 0.105,0.041 0.105,0.104l0,0.35l0.085,-0l-0,-0.34c-0,-0.111 -0.042,-0.189 -0.178,-0.189c-0.074,0 -0.132,0.03 -0.168,0.094l-0.002,-0l-0,-0.082l-0.08,0l0,0.517Z" style="fill-rule:nonzero;"/>
                </g>
                <g transform="matrix(12,0,0,12,229.868,227.645)">
                    <path d="M0.272,-0.069c-0.112,0 -0.146,-0.104 -0.146,-0.197c-0,-0.099 0.044,-0.188 0.153,-0.188c0.107,-0 0.147,0.094 0.147,0.185c0,0.097 -0.042,0.2 -0.154,0.2Zm0.238,-0.448l-0.08,0l0,0.074l-0.001,-0c-0.031,-0.057 -0.089,-0.086 -0.154,-0.086c-0.179,0 -0.239,0.151 -0.239,0.273c0,0.141 0.077,0.262 0.231,0.262c0.065,-0 0.133,-0.031 0.161,-0.094l0.002,0l0,0.034c0,0.116 -0.044,0.196 -0.155,0.196c-0.056,0 -0.13,-0.022 -0.134,-0.084l-0.085,-0c0.005,0.113 0.117,0.152 0.214,0.152c0.163,-0 0.24,-0.086 0.24,-0.254l-0,-0.473Z" style="fill-rule:nonzero;"/>
                </g>
                <g transform="matrix(12,0,0,12,240.092,227.645)">
                    <path d="M0.467,-0.263c0,0.101 -0.039,0.2 -0.155,0.2c-0.117,0 -0.163,-0.094 -0.163,-0.196c-0,-0.097 0.044,-0.195 0.158,-0.195c0.11,-0 0.16,0.094 0.16,0.191Zm-0.4,0.263l0.085,-0l-0,-0.069l0.002,0c0.038,0.061 0.114,0.081 0.167,0.081c0.158,-0 0.236,-0.123 0.236,-0.269c-0,-0.146 -0.079,-0.272 -0.238,-0.272c-0.071,0 -0.137,0.025 -0.165,0.082l-0.002,-0l-0,-0.267l-0.085,0l0,0.714Z" style="fill-rule:nonzero;"/>
                </g>
                <g transform="matrix(12,0,0,12,247.208,227.645)">
                    <path d="M0.036,-0.258c0,0.151 0.087,0.27 0.251,0.27c0.164,-0 0.251,-0.119 0.251,-0.27c-0,-0.152 -0.087,-0.271 -0.251,-0.271c-0.164,0 -0.251,0.119 -0.251,0.271Zm0.09,0c-0,-0.126 0.072,-0.196 0.161,-0.196c0.089,-0 0.161,0.07 0.161,0.196c0,0.125 -0.072,0.195 -0.161,0.195c-0.089,0 -0.161,-0.07 -0.161,-0.195Z" style="fill-rule:nonzero;"/>
                </g>
                <g transform="matrix(12,0,0,12,254.096,227.645)">
                    <path d="M0.009,-0l0.103,-0l0.144,-0.215l0.144,0.215l0.109,-0l-0.2,-0.28l0.178,-0.237l-0.102,0l-0.129,0.18l-0.124,-0.18l-0.109,0l0.18,0.245l-0.194,0.272Z" style="fill-rule:nonzero;"/>
                </g>
            </g>
            <path d="M168,25l-1,-0l-0,-1l1,-0l0,1Zm0,-2l0,-1l1,0l0,1l-1,0Zm2,0l0,-1l1,0l0,1l-1,0Zm2,0l0,-1l1,0l0,1l-1,0Zm2,0l0,-1l1,0l0,1l-1,0Zm2,0l0,-1l1,0l0,1l-1,0Zm2,0l0,-1l1,0l0,1l-1,0Zm2,0l0,-1l1,0l0,1l-1,0Zm2,0l0,-1l1,0l0,1l-1,0Zm2,0l0,-1l1,0l0,1l-1,0Zm2,0l0,-1l1,0l0,1l-1,0Zm2,0l0,-1l1,0l-0,1l-1,0Zm2,0l0,-1l1,0l0,1l-1,0Zm2,0l0,-1l1,0l0,1l-1,0Zm2,0l0,-1l1,0l0,1l-1,0Zm2,0l1,0l-0,1l-1,0l-0,-1Zm-0,2l1,0l0,1l-1,0l-0,-1Zm-0,2l1,0l0,1l-1,0l-0,-1Zm-0,2l1,0l0,1l-1,0l-0,-1Zm-0,2l1,0l0,1l-1,0l-0,-1Zm-0,2l1,0l0,1l-1,0l-0,-1Zm-0,2l1,0l0,1l-1,0l-0,-1Zm-0,2l1,0l0,1l-1,0l-0,-1Zm-0,2l1,0l0,1l-1,0l-0,-1Zm-0,2l1,0l0,1l-1,0l-0,-1Zm-0,2l1,0l-0,1l-1,0l-0,-1Zm-0,2l1,0l-0,1l-1,0l-0,-1Zm-0,2l1,0l0,1l-1,0l-0,-1Zm-0,2l-0,1l-1,0l-0,-1l1,0Zm-2,-0l-0,1l-1,0l-0,-1l1,-0Zm-2,-0l-0,1l-1,0l-0,-1l1,-0Zm-2,-0l-0,1l-1,0l-0,-1l1,-0Zm-2,-0l-0,1l-1,-0l-0,-1l1,-0Zm-2,-0l-0,1l-1,0l-0,-1l1,-0Zm-2,-0l-0,1l-1,0l-0,-1l1,-0Zm-2,-0l-0,1l-1,-0l-0,-1l1,-0Zm-2,-0l-0,1l-1,0l-0,-1l1,-0Zm-2,-0l-0,1l-1,0l-0,-1l1,-0Zm-2,-0l-0,1l-1,0l0,-1l1,-0Zm-2,-0l-0,1l-1,0l-0,-1l1,-0Zm-2,-0l-0,1l-1,0l-0,-1l1,-0Zm-2,-0l-0,1l-1,0l-0,-1l1,-0Zm-2,-0l-1,-0l-0,-1l1,-0l-0,1Zm0,-2l-1,-0l-0,-1l1,-0l0,1Zm0,-2l-1,-0l-0,-1l1,-0l0,1Zm0,-2l-1,-0l-0,-1l1,-0l0,1Zm0,-2l-1,-0l-0,-1l1,-0l0,1Zm0,-2l-1,-0l-0,-1l1,-0l0,1Zm0,-2l-1,-0l-0,-1l1,-0l0,1Zm0,-2l-1,-0l-0,-1l1,-0l0,1Zm0,-2l-1,-0l-0,-1l1,-0l0,1Zm0,-2l-1,-0l-0,-1l1,-0l0,1Zm0,-2l-1,-0l-0,-1l1,-0l0,1Zm0,-2l-1,-0l-0,-1l1,-0l0,1Z" style="fill:#8c8c8c;"/>
            <path d="M182,24c6.623,0 12,5.377 12,12c-0,6.623 -5.377,12 -12,12c-6.623,0 -12,-5.377 -12,-12c-0,-6.623 5.377,-12 12,-12Zm-0,1c-6.071,0 -11,4.929 -11,11c-0,6.071 4.929,11 11,11c6.071,0 11,-4.929 11,-11c-0,-6.071 -4.929,-11 -11,-11Z" style="fill:#6a6bd3;"/>
            <path d="M208.5,24.5l-8,-0" style="fill:none;stroke:#3a3bc5;stroke-width:1px;stroke-linecap:butt;stroke-linejoin:miter;stroke-miterlimit:10;"/>
            <path d="M208.5,47.5l-8,-0" style="fill:none;stroke:#3a3bc5;stroke-width:1px;stroke-linecap:butt;stroke-linejoin:miter;stroke-miterlimit:10;"/>
            <path d="M204.5,24.5l-0,23" style="fill:none;stroke:#3a3bc5;stroke-width:1px;stroke-linecap:butt;stroke-linejoin:miter;stroke-miterlimit:1;"/>
            <path d="M209.509,34.28c-0.036,-1.02 0.468,-2.112 1.657,-2.112c0.9,-0 1.645,0.612 1.645,1.536c-0,1.176 -0.733,1.704 -2.173,2.592c-1.201,0.745 -2.219,1.465 -2.387,3.48l5.554,-0l0,-0.899l-4.368,0c0.204,-1.056 1.321,-1.596 2.389,-2.244c1.057,-0.661 2.063,-1.417 2.063,-2.917c0,-1.584 -1.174,-2.447 -2.663,-2.447c-1.801,0 -2.819,1.283 -2.735,3.011l1.018,0Z" style="fill:#3a3bc5;fill-rule:nonzero;"/>
            <path d="M219.661,31.269l-0.815,0l-3.875,5.532l-0,0.983l3.732,-0l-0,1.992l0.958,-0l0,-1.992l1.152,-0l0,-0.899l-1.152,0l0,-5.616Zm-3.814,5.616l2.832,-4.164l0.024,0l-0,4.164l-2.856,0Z" style="fill:#3a3bc5;fill-rule:nonzero;"/>
            <path d="M226.911,36.62c-0,1.213 -0.469,2.401 -1.861,2.401c-1.405,0 -1.957,-1.128 -1.957,-2.353c0,-1.164 0.528,-2.34 1.897,-2.34c1.32,-0 1.921,1.128 1.921,2.292Zm-4.8,5.532l1.018,-0l0,-3.203l0.024,0c0.456,0.731 1.369,0.971 2.005,0.971c1.896,-0 2.831,-1.475 2.831,-3.228c0,-1.752 -0.947,-3.263 -2.855,-3.263c-0.852,0 -1.645,0.3 -1.981,0.983l-0.024,-0l0,-0.839l-1.018,0l-0,8.579Z" style="fill:#3a3bc5;fill-rule:nonzero;"/>
            <path d="M228.531,39.776l1.235,-0l1.728,-2.578l1.727,2.578l1.308,-0l-2.399,-3.36l2.135,-2.843l-1.223,0l-1.548,2.162l-1.488,-2.162l-1.307,0l2.159,2.939l-2.327,3.264Z" style="fill:#3a3bc5;fill-rule:nonzero;"/>
            <g>
                <path d="M180,34l4,4" style="fill:none;stroke:#000;stroke-width:1px;"/>
                <path d="M180,38l4,-4" style="fill:none;stroke:#000;stroke-width:1px;"/>
            </g>
        </g>
        <g id="concave">
            <path d="M309,23l15.187,5.904l1.813,19.496l-27,-5.4l22.654,-5.416l-12.654,-14.584Z" style="fill:#dadada;stroke:#8c8c8c;stroke-width:1px;"/>
            <g transform="matrix(1,0,0,1,101.773,-147.677)">
                <g transform="matrix(12,0,0,12,169.742,213.245)">
                    <path d="M0.503,-0.351c-0.012,-0.123 -0.106,-0.178 -0.223,-0.178c-0.164,0 -0.244,0.122 -0.244,0.277c0,0.154 0.084,0.264 0.242,0.264c0.13,-0 0.209,-0.075 0.228,-0.201l-0.087,0c-0.011,0.078 -0.06,0.126 -0.142,0.126c-0.108,0 -0.151,-0.094 -0.151,-0.189c-0,-0.105 0.038,-0.202 0.161,-0.202c0.07,-0 0.115,0.038 0.128,0.103l0.088,-0Z" style="fill-rule:nonzero;"/>
                </g>
                <g transform="matrix(12,0,0,12,176.186,213.245)">
                    <path d="M0.036,-0.258c0,0.151 0.087,0.27 0.251,0.27c0.164,-0 0.251,-0.119 0.251,-0.27c-0,-0.152 -0.087,-0.271 -0.251,-0.271c-0.164,0 -0.251,0.119 -0.251,0.271Zm0.09,0c-0,-0.126 0.072,-0.196 0.161,-0.196c0.089,-0 0.161,0.07 0.161,0.196c0,0.125 -0.072,0.195 -0.161,0.195c-0.089,0 -0.161,-0.07 -0.161,-0.195Z" style="fill-rule:nonzero;"/>
                </g>
                <g transform="matrix(12,0,0,12,183.074,213.245)">
                    <path d="M0.064,-0l0.085,-0l-0,-0.292c-0,-0.093 0.05,-0.162 0.153,-0.162c0.065,-0 0.105,0.041 0.105,0.104l0,0.35l0.085,-0l-0,-0.34c-0,-0.111 -0.042,-0.189 -0.178,-0.189c-0.074,0 -0.132,0.03 -0.168,0.094l-0.002,-0l-0,-0.082l-0.08,0l0,0.517Z" style="fill-rule:nonzero;"/>
                </g>
                <g transform="matrix(12,0,0,12,189.746,213.245)">
                    <path d="M0.503,-0.351c-0.012,-0.123 -0.106,-0.178 -0.223,-0.178c-0.164,0 -0.244,0.122 -0.244,0.277c0,0.154 0.084,0.264 0.242,0.264c0.13,-0 0.209,-0.075 0.228,-0.201l-0.087,0c-0.011,0.078 -0.06,0.126 -0.142,0.126c-0.108,0 -0.151,-0.094 -0.151,-0.189c-0,-0.105 0.038,-0.202 0.161,-0.202c0.07,-0 0.115,0.038 0.128,0.103l0.088,-0Z" style="fill-rule:nonzero;"/>
                </g>
                <g transform="matrix(12,0,0,12,196.19,213.245)">
                    <path d="M0.384,-0.18c0,0.047 -0.046,0.117 -0.158,0.117c-0.052,0 -0.1,-0.02 -0.1,-0.076c-0,-0.063 0.048,-0.083 0.104,-0.093c0.057,-0.01 0.121,-0.011 0.154,-0.035l0,0.087Zm0.138,0.112c-0.011,0.004 -0.019,0.005 -0.026,0.005c-0.027,0 -0.027,-0.018 -0.027,-0.058l-0,-0.266c-0,-0.121 -0.101,-0.142 -0.194,-0.142c-0.115,0 -0.214,0.045 -0.219,0.173l0.085,-0c0.004,-0.076 0.057,-0.098 0.129,-0.098c0.054,-0 0.115,0.012 0.115,0.086c0,0.064 -0.08,0.058 -0.174,0.076c-0.088,0.017 -0.175,0.042 -0.175,0.159c0,0.103 0.077,0.145 0.171,0.145c0.072,-0 0.135,-0.025 0.182,-0.08c0,0.056 0.028,0.08 0.072,0.08c0.027,-0 0.046,-0.005 0.061,-0.014l-0,-0.066Z" style="fill-rule:nonzero;"/>
                </g>
                <g transform="matrix(12,0,0,12,202.634,213.245)">
                    <path d="M0.486,-0.517l-0.089,0l-0.141,0.431l-0.002,0l-0.145,-0.431l-0.095,0l0.192,0.517l0.091,-0l0.189,-0.517Z" style="fill-rule:nonzero;"/>
                </g>
                <g transform="matrix(12,0,0,12,208.634,213.245)">
                    <path d="M0.421,-0.164c-0.015,0.067 -0.064,0.101 -0.134,0.101c-0.113,0 -0.164,-0.08 -0.161,-0.17l0.387,-0c0.005,-0.125 -0.051,-0.296 -0.234,-0.296c-0.141,0 -0.243,0.114 -0.243,0.269c0.005,0.158 0.083,0.272 0.248,0.272c0.116,-0 0.198,-0.062 0.221,-0.176l-0.084,-0Zm-0.295,-0.144c0.006,-0.079 0.059,-0.146 0.148,-0.146c0.084,-0 0.145,0.065 0.149,0.146l-0.297,0Z" style="fill-rule:nonzero;"/>
                </g>
                <g transform="matrix(12,0,0,12,218.414,213.245)">
                    <path d="M0.031,-0.163c0.005,0.128 0.103,0.175 0.219,0.175c0.105,-0 0.22,-0.04 0.22,-0.163c-0,-0.1 -0.084,-0.128 -0.169,-0.147c-0.079,-0.019 -0.169,-0.029 -0.169,-0.09c-0,-0.052 0.059,-0.066 0.11,-0.066c0.056,-0 0.114,0.021 0.12,0.087l0.085,-0c-0.007,-0.126 -0.098,-0.162 -0.212,-0.162c-0.09,0 -0.193,0.043 -0.193,0.147c0,0.099 0.085,0.127 0.169,0.146c0.085,0.019 0.169,0.03 0.169,0.096c0,0.065 -0.072,0.077 -0.125,0.077c-0.07,0 -0.136,-0.024 -0.139,-0.1l-0.085,0Z" style="fill-rule:nonzero;"/>
                </g>
                <g transform="matrix(12,0,0,12,224.414,213.245)">
                    <path d="M0.064,-0l0.085,-0l-0,-0.292c-0,-0.093 0.05,-0.162 0.153,-0.162c0.065,-0 0.105,0.041 0.105,0.104l0,0.35l0.085,-0l-0,-0.34c-0,-0.111 -0.042,-0.189 -0.178,-0.189c-0.062,0 -0.135,0.026 -0.163,0.088l-0.002,-0l-0,-0.273l-0.085,0l0,0.714Z" style="fill-rule:nonzero;"/>
                </g>
                <g transform="matrix(12,0,0,12,231.086,213.245)">
                    <path d="M0.384,-0.18c0,0.047 -0.046,0.117 -0.158,0.117c-0.052,0 -0.1,-0.02 -0.1,-0.076c-0,-0.063 0.048,-0.083 0.104,-0.093c0.057,-0.01 0.121,-0.011 0.154,-0.035l0,0.087Zm0.138,0.112c-0.011,0.004 -0.019,0.005 -0.026,0.005c-0.027,0 -0.027,-0.018 -0.027,-0.058l-0,-0.266c-0,-0.121 -0.101,-0.142 -0.194,-0.142c-0.115,0 -0.214,0.045 -0.219,0.173l0.085,-0c0.004,-0.076 0.057,-0.098 0.129,-0.098c0.054,-0 0.115,0.012 0.115,0.086c0,0.064 -0.08,0.058 -0.174,0.076c-0.088,0.017 -0.175,0.042 -0.175,0.159c0,0.103 0.077,0.145 0.171,0.145c0.072,-0 0.135,-0.025 0.182,-0.08c0,0.056 0.028,0.08 0.072,0.08c0.027,-0 0.046,-0.005 0.061,-0.014l-0,-0.066Z" style="fill-rule:nonzero;"/>
                </g>
                <g transform="matrix(12,0,0,12,237.53,213.245)">
                    <path d="M0.467,-0.263c0,0.101 -0.039,0.2 -0.155,0.2c-0.117,0 -0.163,-0.094 -0.163,-0.196c-0,-0.097 0.044,-0.195 0.158,-0.195c0.11,-0 0.16,0.094 0.16,0.191Zm-0.4,0.461l0.085,-0l-0,-0.267l0.002,0c0.038,0.061 0.114,0.081 0.167,0.081c0.158,-0 0.236,-0.123 0.236,-0.269c-0,-0.146 -0.079,-0.272 -0.238,-0.272c-0.071,0 -0.137,0.025 -0.165,0.082l-0.002,-0l-0,-0.07l-0.085,0l0,0.715Z" style="fill-rule:nonzero;"/>
                </g>
                <g transform="matrix(12,0,0,12,244.646,213.245)">
                    <path d="M0.421,-0.164c-0.015,0.067 -0.064,0.101 -0.134,0.101c-0.113,0 -0.164,-0.08 -0.161,-0.17l0.387,-0c0.005,-0.125 -0.051,-0.296 -0.234,-0.296c-0.141,0 -0.243,0.114 -0.243,0.269c0.005,0.158 0.083,0.272 0.248,0.272c0.116,-0 0.198,-0.062 0.221,-0.176l-0.084,-0Zm-0.295,-0.144c0.006,-0.079 0.059,-0.146 0.148,-0.146c0.084,-0 0.145,0.065 0.149,0.146l-0.297,0Z" style="fill-rule:nonzero;"/>
                </g>
                <rect x="169.742" y="214.145" width="45.336" height="0.6"/>
                <g transform="matrix(12,0,0,12,160.52,227.645)">
                    <path d="M0.741,-0.517l-0.088,0l-0.116,0.423l-0.002,0l-0.108,-0.423l-0.093,0l-0.104,0.423l-0.002,0l-0.117,-0.423l-0.094,0l0.166,0.517l0.092,-0l0.104,-0.411l0.002,-0l0.105,0.411l0.09,-0l0.165,-0.517Z" style="fill-rule:nonzero;"/>
                </g>
                <g transform="matrix(12,0,0,12,169.616,227.645)">
                    <path d="M0.069,-0l0.085,-0l-0,-0.517l-0.085,0l0,0.517Zm0.085,-0.714l-0.085,0l0,0.104l0.085,-0l-0,-0.104Z" style="fill-rule:nonzero;"/>
                </g>
                <g transform="matrix(12,0,0,12,172.28,227.645)">
                    <path d="M0.182,-0.672l-0.085,0l0,0.155l-0.088,0l0,0.075l0.088,-0l0,0.329c0,0.095 0.035,0.113 0.123,0.113l0.065,-0l-0,-0.075l-0.039,0c-0.053,0 -0.064,-0.007 -0.064,-0.046l-0,-0.321l0.103,-0l-0,-0.075l-0.103,0l-0,-0.155Z" style="fill-rule:nonzero;"/>
                </g>
                <g transform="matrix(12,0,0,12,176.06,227.645)">
                    <path d="M0.064,-0l0.085,-0l-0,-0.292c-0,-0.093 0.05,-0.162 0.153,-0.162c0.065,-0 0.105,0.041 0.105,0.104l0,0.35l0.085,-0l-0,-0.34c-0,-0.111 -0.042,-0.189 -0.178,-0.189c-0.062,0 -0.135,0.026 -0.163,0.088l-0.002,-0l-0,-0.273l-0.085,0l0,0.714Z" style="fill-rule:nonzero;"/>
                </g>
                <g transform="matrix(12,0,0,12,186.068,227.645)">
                    <path d="M0.467,-0.263c0,0.101 -0.039,0.2 -0.155,0.2c-0.117,0 -0.163,-0.094 -0.163,-0.196c-0,-0.097 0.044,-0.195 0.158,-0.195c0.11,-0 0.16,0.094 0.16,0.191Zm-0.4,0.263l0.085,-0l-0,-0.069l0.002,0c0.038,0.061 0.114,0.081 0.167,0.081c0.158,-0 0.236,-0.123 0.236,-0.269c-0,-0.146 -0.079,-0.272 -0.238,-0.272c-0.071,0 -0.137,0.025 -0.165,0.082l-0.002,-0l-0,-0.267l-0.085,0l0,0.714Z" style="fill-rule:nonzero;"/>
                </g>
                <g transform="matrix(12,0,0,12,193.184,227.645)">
                    <path d="M0.036,-0.258c0,0.151 0.087,0.27 0.251,0.27c0.164,-0 0.251,-0.119 0.251,-0.27c-0,-0.152 -0.087,-0.271 -0.251,-0.271c-0.164,0 -0.251,0.119 -0.251,0.271Zm0.09,0c-0,-0.126 0.072,-0.196 0.161,-0.196c0.089,-0 0.161,0.07 0.161,0.196c0,0.125 -0.072,0.195 -0.161,0.195c-0.089,0 -0.161,-0.07 -0.161,-0.195Z" style="fill-rule:nonzero;"/>
                </g>
                <g transform="matrix(12,0,0,12,200.072,227.645)">
                    <path d="M0.492,-0.517l-0.085,0l0,0.292c0,0.093 -0.05,0.162 -0.153,0.162c-0.065,0 -0.105,-0.041 -0.105,-0.104l-0,-0.35l-0.085,0l0,0.34c0,0.111 0.042,0.189 0.178,0.189c0.074,-0 0.132,-0.03 0.168,-0.094l0.002,0l0,0.082l0.08,-0l-0,-0.517Z" style="fill-rule:nonzero;"/>
                </g>
                <g transform="matrix(12,0,0,12,206.744,227.645)">
                    <path d="M0.064,-0l0.085,-0l-0,-0.292c-0,-0.093 0.05,-0.162 0.153,-0.162c0.065,-0 0.105,0.041 0.105,0.104l0,0.35l0.085,-0l-0,-0.34c-0,-0.111 -0.042,-0.189 -0.178,-0.189c-0.074,0 -0.132,0.03 -0.168,0.094l-0.002,-0l-0,-0.082l-0.08,0l0,0.517Z" style="fill-rule:nonzero;"/>
                </g>
                <g transform="matrix(12,0,0,12,213.416,227.645)">
                    <path d="M0.526,-0.714l-0.085,0l0,0.266l-0.002,-0c-0.038,-0.061 -0.114,-0.081 -0.167,-0.081c-0.158,0 -0.236,0.123 -0.236,0.269c0,0.146 0.079,0.272 0.238,0.272c0.071,-0 0.137,-0.025 0.165,-0.082l0.002,0l0,0.07l0.085,-0l-0,-0.714Zm-0.4,0.46c-0,-0.101 0.039,-0.2 0.155,-0.2c0.117,-0 0.163,0.094 0.163,0.196c0,0.097 -0.044,0.195 -0.158,0.195c-0.11,0 -0.16,-0.094 -0.16,-0.191Z" style="fill-rule:nonzero;"/>
                </g>
                <g transform="matrix(12,0,0,12,220.532,227.645)">
                    <path d="M0.069,-0l0.085,-0l-0,-0.517l-0.085,0l0,0.517Zm0.085,-0.714l-0.085,0l0,0.104l0.085,-0l-0,-0.104Z" style="fill-rule:nonzero;"/>
                </g>
                <g transform="matrix(12,0,0,12,223.196,227.645)">
                    <path d="M0.064,-0l0.085,-0l-0,-0.292c-0,-0.093 0.05,-0.162 0.153,-0.162c0.065,-0 0.105,0.041 0.105,0.104l0,0.35l0.085,-0l-0,-0.34c-0,-0.111 -0.042,-0.189 -0.178,-0.189c-0.074,0 -0.132,0.03 -0.168,0.094l-0.002,-0l-0,-0.082l-0.08,0l0,0.517Z" style="fill-rule:nonzero;"/>
                </g>
                <g transform="matrix(12,0,0,12,229.868,227.645)">
                    <path d="M0.272,-0.069c-0.112,0 -0.146,-0.104 -0.146,-0.197c-0,-0.099 0.044,-0.188 0.153,-0.188c0.107,-0 0.147,0.094 0.147,0.185c0,0.097 -0.042,0.2 -0.154,0.2Zm0.238,-0.448l-0.08,0l0,0.074l-0.001,-0c-0.031,-0.057 -0.089,-0.086 -0.154,-0.086c-0.179,0 -0.239,0.151 -0.239,0.273c0,0.141 0.077,0.262 0.231,0.262c0.065,-0 0.133,-0.031 0.161,-0.094l0.002,0l0,0.034c0,0.116 -0.044,0.196 -0.155,0.196c-0.056,0 -0.13,-0.022 -0.134,-0.084l-0.085,-0c0.005,0.113 0.117,0.152 0.214,0.152c0.163,-0 0.24,-0.086 0.24,-0.254l-0,-0.473Z" style="fill-rule:nonzero;"/>
                </g>
                <g transform="matrix(12,0,0,12,240.092,227.645)">
                    <path d="M0.467,-0.263c0,0.101 -0.039,0.2 -0.155,0.2c-0.117,0 -0.163,-0.094 -0.163,-0.196c-0,-0.097 0.044,-0.195 0.158,-0.195c0.11,-0 0.16,0.094 0.16,0.191Zm-0.4,0.263l0.085,-0l-0,-0.069l0.002,0c0.038,0.061 0.114,0.081 0.167,0.081c0.158,-0 0.236,-0.123 0.236,-0.269c-0,-0.146 -0.079,-0.272 -0.238,-0.272c-0.071,0 -0.137,0.025 -0.165,0.082l-0.002,-0l-0,-0.267l-0.085,0l0,0.714Z" style="fill-rule:nonzero;"/>
                </g>
                <g transform="matrix(12,0,0,12,247.208,227.645)">
                    <path d="M0.036,-0.258c0,0.151 0.087,0.27 0.251,0.27c0.164,-0 0.251,-0.119 0.251,-0.27c-0,-0.152 -0.087,-0.271 -0.251,-0.271c-0.164,0 -0.251,0.119 -0.251,0.271Zm0.09,0c-0,-0.126 0.072,-0.196 0.161,-0.196c0.089,-0 0.161,0.07 0.161,0.196c0,0.125 -0.072,0.195 -0.161,0.195c-0.089,0 -0.161,-0.07 -0.161,-0.195Z" style="fill-rule:nonzero;"/>
                </g>
                <g transform="matrix(12,0,0,12,254.096,227.645)">
                    <path d="M0.009,-0l0.103,-0l0.144,-0.215l0.144,0.215l0.109,-0l-0.2,-0.28l0.178,-0.237l-0.102,0l-0.129,0.18l-0.124,-0.18l-0.109,0l0.18,0.245l-0.194,0.272Z" style="fill-rule:nonzero;"/>
                </g>
            </g>
            <path d="M298,25l-1,-0l0,-1l1,-0l0,1Zm0,-2l0,-1l1,0l0,1l-1,0Zm2,0l0,-1l1,0l0,1l-1,0Zm2,0l0,-1l1,0l0,1l-1,0Zm2,0l0,-1l1,0l0,1l-1,0Zm2,0l0,-1l1,0l0,1l-1,0Zm2,0l0,-1l1,0l0,1l-1,0Zm2,0l0,-1l1,0l0,1l-1,0Zm2,0l0,-1l1,0l0,1l-1,0Zm2,0l0,-1l1,0l0,1l-1,0Zm2,0l0,-1l1,0l0,1l-1,0Zm2,0l0,-1l1,0l-0,1l-1,0Zm2,0l0,-1l1,0l0,1l-1,0Zm2,0l0,-1l1,0l0,1l-1,0Zm2,0l0,-1l1,0l0,1l-1,0Zm2,0l1,0l0,1l-1,0l0,-1Zm-0,2l1,0l0,1l-1,0l-0,-1Zm-0,2l1,0l0,1l-1,0l-0,-1Zm-0,2l1,0l0,1l-1,0l-0,-1Zm-0,2l1,0l0,1l-1,0l-0,-1Zm-0,2l1,0l0,1l-1,0l-0,-1Zm-0,2l1,0l0,1l-1,0l-0,-1Zm-0,2l1,0l0,1l-1,0l-0,-1Zm-0,2l1,0l0,1l-1,0l-0,-1Zm-0,2l1,0l0,1l-1,0l-0,-1Zm-0,2l1,0l-0,1l-1,0l-0,-1Zm-0,2l1,0l0,1l-1,0l-0,-1Zm-0,2l1,0l0,1l-1,0l-0,-1Zm-0,2l-0,1l-1,0l-0,-1l1,0Zm-2,-0l-0,1l-1,0l-0,-1l1,-0Zm-2,-0l-0,1l-1,0l-0,-1l1,-0Zm-2,-0l-0,1l-1,0l-0,-1l1,-0Zm-2,-0l-0,1l-1,-0l-0,-1l1,-0Zm-2,-0l-0,1l-1,0l-0,-1l1,-0Zm-2,-0l-0,1l-1,0l-0,-1l1,-0Zm-2,-0l-0,1l-1,-0l-0,-1l1,-0Zm-2,-0l-0,1l-1,0l-0,-1l1,-0Zm-2,-0l-0,1l-1,0l-0,-1l1,-0Zm-2,-0l-0,1l-1,0l0,-1l1,-0Zm-2,-0l-0,1l-1,0l-0,-1l1,-0Zm-2,-0l-0,1l-1,0l-0,-1l1,-0Zm-2,-0l-0,1l-1,0l-0,-1l1,-0Zm-2,-0l-1,-0l0,-1l1,-0l0,1Zm0,-2l-1,-0l0,-1l1,-0l0,1Zm0,-2l-1,-0l0,-1l1,-0l0,1Zm0,-2l-1,-0l0,-1l1,-0l0,1Zm0,-2l-1,-0l0,-1l1,-0l0,1Zm0,-2l-1,-0l0,-1l1,-0l0,1Zm0,-2l-1,-0l0,-1l1,-0l0,1Zm0,-2l-1,-0l0,-1l1,-0l0,1Zm0,-2l-1,-0l0,-1l1,-0l0,1Zm0,-2l-1,-0l0,-1l1,-0l0,1Zm0,-2l-1,-0l0,-1l1,-0l0,1Zm0,-2l-1,-0l0,-1l1,-0l0,1Z" style="fill:#8c8c8c;"/>
            <path d="M312,24c6.623,0 12,5.377 12,12c-0,6.623 -5.377,12 -12,12c-6.623,0 -12,-5.377 -12,-12c-0,-6.623 5.377,-12 12,-12Zm-0,1c-6.071,0 -11,4.929 -11,11c-0,6.071 4.929,11 11,11c6.071,0 11,-4.929 11,-11c-0,-6.071 -4.929,-11 -11,-11Z" style="fill:#6a6bd3;"/>
            <path d="M338.5,24.5l-8,-0" style="fill:none;stroke:#3a3bc5;stroke-width:1px;stroke-linecap:butt;stroke-linejoin:miter;stroke-miterlimit:10;"/>
            <path d="M338.5,47.5l-8,-0" style="fill:none;stroke:#3a3bc5;stroke-width:1px;stroke-linecap:butt;stroke-linejoin:miter;stroke-miterlimit:10;"/>
            <path d="M334.5,24.5l-0,23" style="fill:none;stroke:#3a3bc5;stroke-width:1px;stroke-linecap:butt;stroke-linejoin:miter;stroke-miterlimit:1;"/>
            <path d="M339.509,34.28c-0.036,-1.02 0.468,-2.112 1.657,-2.112c0.9,-0 1.645,0.612 1.645,1.536c-0,1.176 -0.733,1.704 -2.173,2.592c-1.201,0.745 -2.219,1.465 -2.387,3.48l5.554,-0l0,-0.899l-4.368,0c0.204,-1.056 1.321,-1.596 2.389,-2.244c1.057,-0.661 2.063,-1.417 2.063,-2.917c0,-1.584 -1.174,-2.447 -2.663,-2.447c-1.801,0 -2.819,1.283 -2.735,3.011l1.018,0Z" style="fill:#3a3bc5;fill-rule:nonzero;"/>
            <path d="M349.661,31.269l-0.815,0l-3.875,5.532l-0,0.983l3.732,-0l-0,1.992l0.958,-0l0,-1.992l1.152,-0l0,-0.899l-1.152,0l0,-5.616Zm-3.814,5.616l2.832,-4.164l0.024,0l-0,4.164l-2.856,0Z" style="fill:#3a3bc5;fill-rule:nonzero;"/>
            <path d="M356.911,36.62c-0,1.213 -0.469,2.401 -1.861,2.401c-1.405,0 -1.957,-1.128 -1.957,-2.353c0,-1.164 0.528,-2.34 1.897,-2.34c1.32,-0 1.921,1.128 1.921,2.292Zm-4.8,5.532l1.018,-0l0,-3.203l0.024,0c0.456,0.731 1.369,0.971 2.005,0.971c1.896,-0 2.831,-1.475 2.831,-3.228c0,-1.752 -0.947,-3.263 -2.855,-3.263c-0.852,0 -1.645,0.3 -1.981,0.983l-0.024,-0l0,-0.839l-1.018,0l-0,8.579Z" style="fill:#3a3bc5;fill-rule:nonzero;"/>
            <path d="M358.531,39.776l1.235,-0l1.728,-2.578l1.727,2.578l1.308,-0l-2.399,-3.36l2.135,-2.843l-1.223,0l-1.548,2.162l-1.488,-2.162l-1.307,0l2.159,2.939l-2.327,3.264Z" style="fill:#3a3bc5;fill-rule:nonzero;"/>
            <g>
                <path d="M310,34l4,4" style="fill:none;stroke:#000;stroke-width:1px;"/>
                <path d="M310,38l4,-4" style="fill:none;stroke:#000;stroke-width:1px;"/>
            </g>
        </g>
    </g>
</svg>
