<svg viewBox="0 0 690 210" xmlns="http://www.w3.org/2000/svg" xml:space="preserve" fill-rule="evenodd" clip-rule="evenodd" stroke-miterlimit="10"><rect width="690" height="210" fill="none"/><clipPath id="a"><rect width="690" height="210"/></clipPath><g clip-path="url(#a)"><rect x="-0" width="690" height="210" fill="#fff"/><rect x="99" y="46" width="76" height="25" fill="#e7e7e7"/><path d="M139.141,31.779l4.398,-0l-0,-4.32l2.601,-0c3.28,-0 5.599,-1.619 5.599,-5.079c-0,-2.041 -1.359,-4.879 -5.238,-4.879l-7.36,0l0,14.278Zm4.398,-10.62l1.961,-0c1.081,-0 2.081,0.08 2.081,1.381c0,1.441 -1.2,1.521 -2.341,1.521l-1.701,0l-0,-2.902Z" fill="#196721" fill-rule="nonzero"/><path d="M156.46,26.681l1.38,-4.4l0.04,0l1.28,4.4l-2.7,0Zm-6.019,5.098l4.42,-0l0.639,-2.04l4.54,-0l0.6,2.04l4.559,-0l-5.199,-14.278l-4.3,0l-5.259,14.278Z" fill="#196721" fill-rule="nonzero"/><path d="M165.281,26.981c0.04,4.558 4.658,5.138 6.279,5.138c3.181,-0 6.599,-1.199 6.599,-4.918c-0,-2.621 -1.999,-3.562 -4.018,-4.122c-2.021,-0.56 -4.062,-0.78 -4.142,-1.8c-0,-0.8 0.98,-0.96 1.581,-0.96c0.44,-0 0.941,0.1 1.301,0.36c0.36,0.24 0.6,0.6 0.52,1.14l4.158,-0c-0.12,-3.478 -2.859,-4.658 -5.959,-4.658c-2.94,0 -5.759,1.419 -5.759,4.718c0,2.881 2.579,3.501 4.838,4.141c2.462,0.7 3.082,0.901 3.082,1.641c0,1.06 -1.1,1.3 -1.821,1.3c-0.82,0 -1.781,-0.18 -2.101,-1.04c-0.1,-0.26 -0.16,-0.58 -0.16,-0.94l-4.398,-0Z" fill="#196721" fill-rule="nonzero"/><path d="M178.621,26.981c0.04,4.558 4.658,5.138 6.279,5.138c3.181,-0 6.599,-1.199 6.599,-4.918c-0,-2.621 -1.999,-3.562 -4.018,-4.122c-2.021,-0.56 -4.062,-0.78 -4.142,-1.8c-0,-0.8 0.98,-0.96 1.581,-0.96c0.44,-0 0.941,0.1 1.301,0.36c0.36,0.24 0.6,0.6 0.52,1.14l4.158,-0c-0.12,-3.478 -2.859,-4.658 -5.959,-4.658c-2.94,0 -5.759,1.419 -5.759,4.718c0,2.881 2.579,3.501 4.838,4.141c2.462,0.7 3.082,0.901 3.082,1.641c0,1.06 -1.1,1.3 -1.821,1.3c-0.82,0 -1.781,-0.18 -2.101,-1.04c-0.1,-0.26 -0.16,-0.58 -0.16,-0.94l-4.398,-0Z" fill="#196721" fill-rule="nonzero"/><path d="M93.5,118.5l-8,-0" fill="none" stroke="#000" stroke-width="1px"/><path d="M93.5,141.5l-8,-0" fill="none" stroke="#000" stroke-width="1px"/><path d="M89.5,118.5l0,23" fill="none" stroke="#000" stroke-width="1px" stroke-miterlimit="1"/><g transform="matrix(1,0,0,1,-99.4993,-79.4682)"><path d="M0.129,-0.458c-0.003,-0.085 0.039,-0.176 0.138,-0.176c0.075,-0 0.137,0.051 0.137,0.128c0,0.098 -0.061,0.142 -0.181,0.216c-0.1,0.062 -0.185,0.122 -0.199,0.29l0.463,-0l-0,-0.075l-0.364,0c0.017,-0.088 0.11,-0.133 0.199,-0.187c0.088,-0.055 0.172,-0.118 0.172,-0.243c-0,-0.132 -0.098,-0.204 -0.222,-0.204c-0.15,0 -0.235,0.107 -0.228,0.251l0.085,-0Z" fill="#196722" fill-rule="nonzero" transform="matrix(12,0,0,12,154.823,213.245)"/><path d="M0.419,-0.709l-0.068,0l-0.323,0.461l0,0.082l0.311,-0l0,0.166l0.08,-0l-0,-0.166l0.096,-0l-0,-0.075l-0.096,0l-0,-0.468Zm-0.318,0.468l0.236,-0.347l0.002,0l0,0.347l-0.238,0Z" fill="#196722" fill-rule="nonzero" transform="matrix(12,0,0,12,161.495,213.245)"/><path d="M0.467,-0.263c0,0.101 -0.039,0.2 -0.155,0.2c-0.117,0 -0.163,-0.094 -0.163,-0.196c-0,-0.097 0.044,-0.195 0.158,-0.195c0.11,-0 0.16,0.094 0.16,0.191Zm-0.4,0.461l0.085,-0l-0,-0.267l0.002,0c0.038,0.061 0.114,0.081 0.167,0.081c0.158,-0 0.236,-0.123 0.236,-0.269c-0,-0.146 -0.079,-0.272 -0.238,-0.272c-0.071,0 -0.137,0.025 -0.165,0.082l-0.002,-0l-0,-0.07l-0.085,0l0,0.715Z" fill="#196722" fill-rule="nonzero" transform="matrix(12,0,0,12,168.167,213.245)"/><path d="M0.009,-0l0.103,-0l0.144,-0.215l0.144,0.215l0.109,-0l-0.2,-0.28l0.178,-0.237l-0.102,0l-0.129,0.18l-0.124,-0.18l-0.109,0l0.18,0.245l-0.194,0.272Z" fill="#196722" fill-rule="nonzero" transform="matrix(12,0,0,12,175.283,213.245)"/><rect x="154.823" y="214.145" width="26.676" height="0.6" fill="#196722"/></g><path d="M51.499,62.371l1.423,-0l0,-4.905l5.642,-0l0,4.905l1.423,-0l0,-10.709l-1.423,0l0,4.605l-5.642,0l0,-4.605l-1.423,0l0,10.709Z" fill-rule="nonzero"/><path d="M61.699,58.501c0,2.266 1.303,4.05 3.764,4.05c2.461,-0 3.764,-1.784 3.764,-4.05c0,-2.28 -1.303,-4.064 -3.764,-4.064c-2.461,0 -3.764,1.784 -3.764,4.064Zm1.348,0c0,-1.89 1.081,-2.94 2.416,-2.94c1.336,-0 2.416,1.05 2.416,2.94c0,1.876 -1.08,2.926 -2.416,2.926c-1.335,0 -2.416,-1.05 -2.416,-2.926Z" fill-rule="nonzero"/><path d="M70.729,62.371l1.273,-0l0,-4.83c0,-0.585 0.555,-1.98 2.071,-1.98c1.141,-0 1.456,0.72 1.456,1.725l0,5.085l1.273,-0l0,-4.83c0,-1.2 0.796,-1.98 2.026,-1.98c1.246,-0 1.501,0.765 1.501,1.725l0,5.085l1.273,-0l0,-5.685c0,-1.605 -1.033,-2.249 -2.579,-2.249c-0.99,0 -1.906,0.495 -2.43,1.319c-0.315,-0.944 -1.184,-1.319 -2.129,-1.319c-1.066,0 -1.937,0.45 -2.507,1.319l-0.03,-0l0,-1.139l-1.198,0l0,7.754Z" fill-rule="nonzero"/><path d="M88.879,59.911c-0.225,1.006 -0.96,1.516 -2.011,1.516c-1.696,0 -2.461,-1.2 -2.416,-2.551l5.805,-0c0.075,-1.874 -0.764,-4.439 -3.509,-4.439c-2.116,0 -3.644,1.709 -3.644,4.034c0.075,2.371 1.243,4.08 3.719,4.08c1.741,-0 2.97,-0.929 3.314,-2.64l-1.258,0Zm-4.427,-2.159c0.09,-1.186 0.886,-2.191 2.221,-2.191c1.261,-0 2.176,0.975 2.236,2.191l-4.457,0Z" fill-rule="nonzero"/><path d="M106.63,62.371l1.47,-0l1.2,-3.225l4.529,-0l1.17,3.225l1.574,-0l-4.184,-10.709l-1.574,0l-4.185,10.709Zm4.934,-9.42l0.03,-0l1.785,4.996l-3.629,0l1.814,-4.996Z" fill-rule="nonzero"/><path d="M123.46,58.426c0,1.516 -0.585,3.001 -2.326,3.001c-1.755,0 -2.445,-1.41 -2.445,-2.941c-0,-1.455 0.66,-2.925 2.37,-2.925c1.651,-0 2.401,1.41 2.401,2.865Zm-6,3.945l1.273,-0l0,-1.034l0.03,0c0.571,0.914 1.711,1.214 2.506,1.214c2.371,-0 3.539,-1.844 3.539,-4.035c0,-2.19 -1.183,-4.079 -3.569,-4.079c-1.065,0 -2.055,0.375 -2.476,1.229l-0.03,-0l0,-4.004l-1.273,0l0,10.709Z" fill-rule="nonzero"/><path d="M125.89,58.501c0,2.266 1.304,4.05 3.764,4.05c2.461,-0 3.764,-1.784 3.764,-4.05c0,-2.28 -1.303,-4.064 -3.764,-4.064c-2.46,0 -3.764,1.784 -3.764,4.064Zm1.348,0c0,-1.89 1.081,-2.94 2.416,-2.94c1.336,-0 2.416,1.05 2.416,2.94c0,1.876 -1.08,2.926 -2.416,2.926c-1.335,0 -2.416,-1.05 -2.416,-2.926Z" fill-rule="nonzero"/><path d="M141.338,54.617l-1.273,0l0,4.38c0,1.395 -0.75,2.43 -2.296,2.43c-0.975,0 -1.576,-0.615 -1.576,-1.56l0,-5.25l-1.273,0l0,5.1c0,1.665 0.629,2.834 2.669,2.834c1.111,-0 1.981,-0.45 2.521,-1.409l0.03,0l0,1.229l1.198,-0l0,-7.754Z" fill-rule="nonzero"/><path d="M145.028,52.292l-1.273,0l0,2.325l-1.32,0l0,1.124l1.32,-0l0,4.936c0,1.424 0.525,1.694 1.843,1.694l0.975,-0l0,-1.124l-0.585,0c-0.795,0 -0.96,-0.105 -0.96,-0.69l0,-4.816l1.545,-0l0,-1.124l-1.545,0l0,-2.325Z" fill-rule="nonzero"/><path d="M158.573,54.617l-1.273,0l0,4.38c0,1.395 -0.75,2.43 -2.296,2.43c-0.975,0 -1.576,-0.615 -1.576,-1.56l0,-5.25l-1.273,0l0,5.1c0,1.665 0.629,2.834 2.669,2.834c1.111,-0 1.981,-0.45 2.521,-1.409l0.03,0l0,1.229l1.198,-0l0,-7.754Z" fill-rule="nonzero"/><path d="M160,59.927c0.075,1.92 1.544,2.624 3.284,2.624c1.576,-0 3.299,-0.599 3.299,-2.444c0,-1.501 -1.258,-1.921 -2.533,-2.206c-1.186,-0.285 -2.537,-0.435 -2.537,-1.35c0,-0.78 0.886,-0.99 1.651,-0.99c0.841,-0 1.711,0.315 1.801,1.305l1.273,-0c-0.104,-1.89 -1.468,-2.429 -3.179,-2.429c-1.35,0 -2.894,0.644 -2.894,2.204c0,1.485 1.274,1.905 2.534,2.191c1.276,0.285 2.536,0.45 2.536,1.44c0,0.975 -1.08,1.155 -1.876,1.155c-1.05,0 -2.041,-0.36 -2.086,-1.5l-1.273,-0Z" fill-rule="nonzero"/><path d="M175,46l0,25l-76,0l-0,-25l76,0Zm-1,1l-74,-0l-0,23l74,0l-0,-23Z" fill="#6f6f6f"/><path d="M107.305,80.816c0,2.911 1.724,5.61 5.129,5.61c3.406,-0 5.129,-2.699 5.129,-5.61c0,-2.91 -1.723,-5.609 -5.129,-5.609c-3.405,0 -5.129,2.699 -5.129,5.609Zm1.423,0c0,-2.16 1.096,-4.41 3.706,-4.41c2.611,-0 3.706,2.25 3.706,4.41c0,2.161 -1.095,4.411 -3.706,4.411c-2.61,0 -3.706,-2.25 -3.706,-4.411Z" fill-rule="nonzero"/><path d="M125.513,78.417l-1.273,0l0,4.38c0,1.395 -0.75,2.43 -2.296,2.43c-0.975,0 -1.576,-0.615 -1.576,-1.56l0,-5.25l-1.273,0l0,5.1c0,1.665 0.629,2.834 2.669,2.834c1.111,-0 1.981,-0.45 2.521,-1.409l0.03,0l0,1.229l1.198,-0l0,-7.754Z" fill-rule="nonzero"/><path d="M127.39,86.171l1.273,-0l0,-3.45c0,-1.965 0.75,-3.135 2.805,-3.135l0,-1.349c-1.38,-0.045 -2.235,0.57 -2.849,1.814l-0.03,-0l-0,-1.634l-1.199,0l0,7.754Z" fill-rule="nonzero"/><path d="M136.6,86.171l1.273,-0l0,-4.83c0,-0.585 0.556,-1.98 2.072,-1.98c1.14,-0 1.455,0.72 1.455,1.725l0,5.085l1.273,-0l0,-4.83c0,-1.2 0.796,-1.98 2.027,-1.98c1.245,-0 1.5,0.765 1.5,1.725l0,5.085l1.273,-0l0,-5.685c0,-1.605 -1.033,-2.249 -2.578,-2.249c-0.991,0 -1.906,0.495 -2.431,1.319c-0.315,-0.944 -1.184,-1.319 -2.129,-1.319c-1.066,0 -1.936,0.45 -2.506,1.319l-0.03,-0l-0,-1.139l-1.199,0l0,7.754Z" fill-rule="nonzero"/><path d="M149.47,86.171l1.273,-0l0,-7.754l-1.273,0l0,7.754Zm1.273,-10.709l-1.273,0l0,1.559l1.273,-0l0,-1.559Z" fill-rule="nonzero"/><path d="M152.23,83.727c0.075,1.92 1.544,2.624 3.284,2.624c1.576,-0 3.299,-0.599 3.299,-2.444c0,-1.501 -1.258,-1.921 -2.533,-2.206c-1.186,-0.285 -2.537,-0.435 -2.537,-1.35c0,-0.78 0.886,-0.99 1.651,-0.99c0.841,-0 1.711,0.315 1.801,1.305l1.273,-0c-0.104,-1.89 -1.468,-2.429 -3.179,-2.429c-1.35,0 -2.894,0.644 -2.894,2.204c0,1.485 1.274,1.905 2.534,2.191c1.276,0.285 2.536,0.45 2.536,1.44c0,0.975 -1.08,1.155 -1.876,1.155c-1.05,0 -2.041,-0.36 -2.086,-1.5l-1.273,-0Z" fill-rule="nonzero"/><path d="M159.73,83.727c0.075,1.92 1.544,2.624 3.284,2.624c1.576,-0 3.299,-0.599 3.299,-2.444c0,-1.501 -1.258,-1.921 -2.533,-2.206c-1.186,-0.285 -2.537,-0.435 -2.537,-1.35c0,-0.78 0.886,-0.99 1.651,-0.99c0.841,-0 1.711,0.315 1.801,1.305l1.273,-0c-0.104,-1.89 -1.468,-2.429 -3.179,-2.429c-1.35,0 -2.894,0.644 -2.894,2.204c0,1.485 1.274,1.905 2.534,2.191c1.276,0.285 2.536,0.45 2.536,1.44c0,0.975 -1.08,1.155 -1.876,1.155c-1.05,0 -2.041,-0.36 -2.086,-1.5l-1.273,-0Z" fill-rule="nonzero"/><path d="M167.8,86.171l1.273,-0l0,-7.754l-1.273,0l0,7.754Zm1.273,-10.709l-1.273,0l0,1.559l1.273,-0l0,-1.559Z" fill-rule="nonzero"/><path d="M170.635,82.301c0,2.266 1.304,4.05 3.764,4.05c2.461,-0 3.764,-1.784 3.764,-4.05c0,-2.28 -1.303,-4.064 -3.764,-4.064c-2.46,0 -3.764,1.784 -3.764,4.064Zm1.348,0c0,-1.89 1.081,-2.94 2.416,-2.94c1.336,-0 2.416,1.05 2.416,2.94c0,1.876 -1.08,2.926 -2.416,2.926c-1.335,0 -2.416,-1.05 -2.416,-2.926Z" fill-rule="nonzero"/><path d="M179.665,86.171l1.273,-0l0,-4.38c0,-1.395 0.751,-2.43 2.297,-2.43c0.975,-0 1.575,0.615 1.575,1.56l0,5.25l1.273,-0l0,-5.1c0,-1.665 -0.629,-2.834 -2.668,-2.834c-1.111,0 -1.981,0.45 -2.521,1.409l-0.03,-0l-0,-1.229l-1.199,0l0,7.754Z" fill-rule="nonzero"/><path d="M99,93.5l133,-0" fill="none" stroke="#6f6f6f" stroke-width="1px" stroke-miterlimit="1"/><path d="M110.335,110.171l1.423,-0l0,-9.51l3.57,-0l0,-1.199l-8.563,0l0,1.199l3.57,-0l0,9.51Z" fill-rule="nonzero"/><path d="M116.305,110.171l1.273,-0l0,-4.38c0,-1.395 0.751,-2.43 2.297,-2.43c0.975,-0 1.575,0.615 1.575,1.56l0,5.25l1.273,-0l0,-5.1c0,-1.665 -0.629,-2.834 -2.668,-2.834c-0.931,0 -2.026,0.39 -2.447,1.319l-0.03,-0l0,-4.094l-1.273,0l0,10.709Z" fill-rule="nonzero"/><path d="M130,107.711c-0.225,1.006 -0.96,1.516 -2.011,1.516c-1.695,0 -2.46,-1.2 -2.416,-2.551l5.805,-0c0.075,-1.874 -0.763,-4.439 -3.509,-4.439c-2.115,0 -3.644,1.709 -3.644,4.034c0.075,2.371 1.244,4.08 3.719,4.08c1.741,-0 2.97,-0.929 3.315,-2.64l-1.259,0Zm-4.427,-2.159c0.09,-1.186 0.886,-2.191 2.221,-2.191c1.261,-0 2.176,0.975 2.236,2.191l-4.457,0Z" fill-rule="nonzero"/><path d="M138.638,100.092l-1.273,0l0,2.325l-1.32,0l0,1.124l1.32,-0l0,4.936c0,1.424 0.525,1.694 1.843,1.694l0.975,-0l0,-1.124l-0.585,0c-0.795,0 -0.96,-0.105 -0.96,-0.69l0,-4.816l1.545,-0l0,-1.124l-1.545,0l0,-2.325Z" fill-rule="nonzero"/><path d="M146.95,107.711c-0.225,1.006 -0.96,1.516 -2.011,1.516c-1.695,0 -2.46,-1.2 -2.416,-2.551l5.805,-0c0.075,-1.874 -0.763,-4.439 -3.509,-4.439c-2.115,0 -3.644,1.709 -3.644,4.034c0.075,2.371 1.244,4.08 3.719,4.08c1.741,-0 2.97,-0.929 3.315,-2.64l-1.259,0Zm-4.427,-2.159c0.09,-1.186 0.886,-2.191 2.221,-2.191c1.261,-0 2.176,0.975 2.236,2.191l-4.457,0Z" fill-rule="nonzero"/><path d="M154.45,107.472c0,0.705 -0.69,1.755 -2.371,1.755c-0.78,0 -1.501,-0.3 -1.501,-1.14c0,-0.945 0.721,-1.245 1.561,-1.395c0.856,-0.15 1.816,-0.165 2.311,-0.526l0,1.306Zm2.068,1.68c-0.165,0.06 -0.285,0.075 -0.39,0.075c-0.405,0 -0.405,-0.27 -0.405,-0.87l0,-3.991c0,-1.814 -1.513,-2.129 -2.908,-2.129c-1.726,0 -3.21,0.674 -3.285,2.594l1.273,-0c0.06,-1.14 0.856,-1.47 1.936,-1.47c0.811,-0 1.726,0.18 1.726,1.29c0,0.96 -1.2,0.87 -2.611,1.14c-1.32,0.255 -2.624,0.63 -2.624,2.386c0,1.545 1.154,2.174 2.564,2.174c1.081,-0 2.026,-0.375 2.731,-1.199c0,0.839 0.42,1.199 1.079,1.199c0.404,-0 0.689,-0.075 0.914,-0.21l0,-0.989Z" fill-rule="nonzero"/><path d="M157.705,110.171l1.273,-0l0,-4.83c0,-0.585 0.556,-1.98 2.072,-1.98c1.14,-0 1.455,0.72 1.455,1.725l0,5.085l1.273,-0l0,-4.83c0,-1.2 0.796,-1.98 2.027,-1.98c1.245,-0 1.5,0.765 1.5,1.725l0,5.085l1.273,-0l0,-5.685c0,-1.605 -1.033,-2.249 -2.578,-2.249c-0.991,0 -1.906,0.495 -2.431,1.319c-0.315,-0.944 -1.184,-1.319 -2.129,-1.319c-1.066,0 -1.936,0.45 -2.506,1.319l-0.03,-0l-0,-1.139l-1.199,0l0,7.754Z" fill-rule="nonzero"/><path d="M99,117.5l133,-0" fill="none" stroke="#6f6f6f" stroke-width="1px" stroke-miterlimit="1"/><rect x="99" y="118" width="133" height="24" fill="#949494"/><path d="M99,141.5l133,0" fill="none" stroke="#6f6f6f" stroke-width="1px" stroke-miterlimit="1"/><path d="M107.905,134.171l1.423,-0l0,-4.38l3.272,-0c2.13,0.015 3.283,-1.184 3.283,-3.165c0,-1.98 -1.153,-3.164 -3.283,-3.164l-4.695,0l0,10.709Zm1.423,-9.51l2.791,-0c1.606,-0 2.341,0.69 2.341,1.965c0,1.276 -0.735,1.981 -2.341,1.966l-2.791,0l0,-3.931Z" fill-rule="nonzero"/><path d="M117.37,134.171l1.273,-0l0,-3.45c0,-1.965 0.75,-3.135 2.805,-3.135l0,-1.349c-1.38,-0.045 -2.235,0.57 -2.849,1.814l-0.03,-0l-0,-1.634l-1.199,0l0,7.754Z" fill-rule="nonzero"/><path d="M127.495,131.711c-0.225,1.006 -0.96,1.516 -2.011,1.516c-1.695,0 -2.46,-1.2 -2.416,-2.551l5.805,-0c0.075,-1.874 -0.763,-4.439 -3.509,-4.439c-2.115,0 -3.644,1.709 -3.644,4.034c0.075,2.371 1.244,4.08 3.719,4.08c1.741,-0 2.97,-0.929 3.315,-2.64l-1.259,0Zm-4.427,-2.159c0.09,-1.186 0.886,-2.191 2.221,-2.191c1.261,-0 2.176,0.975 2.236,2.191l-4.457,0Z" fill-rule="nonzero"/><path d="M129.7,131.727c0.075,1.92 1.544,2.624 3.284,2.624c1.576,-0 3.299,-0.599 3.299,-2.444c0,-1.501 -1.258,-1.921 -2.533,-2.206c-1.186,-0.285 -2.537,-0.435 -2.537,-1.35c0,-0.78 0.886,-0.99 1.651,-0.99c0.841,-0 1.711,0.315 1.801,1.305l1.273,-0c-0.104,-1.89 -1.468,-2.429 -3.179,-2.429c-1.35,0 -2.894,0.644 -2.894,2.204c0,1.485 1.274,1.905 2.534,2.191c1.276,0.285 2.536,0.45 2.536,1.44c0,0.975 -1.08,1.155 -1.876,1.155c-1.05,0 -2.041,-0.36 -2.086,-1.5l-1.273,-0Z" fill-rule="nonzero"/><path d="M137.2,131.727c0.075,1.92 1.544,2.624 3.284,2.624c1.576,-0 3.299,-0.599 3.299,-2.444c0,-1.501 -1.258,-1.921 -2.533,-2.206c-1.186,-0.285 -2.537,-0.435 -2.537,-1.35c0,-0.78 0.886,-0.99 1.651,-0.99c0.841,-0 1.711,0.315 1.801,1.305l1.273,-0c-0.104,-1.89 -1.468,-2.429 -3.179,-2.429c-1.35,0 -2.894,0.644 -2.894,2.204c0,1.485 1.274,1.905 2.534,2.191c1.276,0.285 2.536,0.45 2.536,1.44c0,0.975 -1.08,1.155 -1.876,1.155c-1.05,0 -2.041,-0.36 -2.086,-1.5l-1.273,-0Z" fill-rule="nonzero"/><path d="M149.32,134.171l1.273,-0l0,-3.45c0,-1.965 0.75,-3.135 2.805,-3.135l0,-1.349c-1.38,-0.045 -2.235,0.57 -2.849,1.814l-0.03,-0l-0,-1.634l-1.199,0l0,7.754Z" fill-rule="nonzero"/><path d="M159.445,131.711c-0.225,1.006 -0.96,1.516 -2.011,1.516c-1.695,0 -2.46,-1.2 -2.416,-2.551l5.805,-0c0.075,-1.874 -0.763,-4.439 -3.509,-4.439c-2.115,0 -3.644,1.709 -3.644,4.034c0.075,2.371 1.244,4.08 3.719,4.08c1.741,-0 2.97,-0.929 3.315,-2.64l-1.259,0Zm-4.427,-2.159c0.09,-1.186 0.886,-2.191 2.221,-2.191c1.261,-0 2.176,0.975 2.236,2.191l-4.457,0Z" fill-rule="nonzero"/><rect x="162.22" y="123.462" width="1.273" height="10.708" fill-rule="nonzero"/><path d="M170.83,131.711c-0.225,1.006 -0.96,1.516 -2.011,1.516c-1.695,0 -2.46,-1.2 -2.416,-2.551l5.805,-0c0.075,-1.874 -0.763,-4.439 -3.509,-4.439c-2.115,0 -3.644,1.709 -3.644,4.034c0.075,2.371 1.244,4.08 3.719,4.08c1.741,-0 2.97,-0.929 3.315,-2.64l-1.259,0Zm-4.427,-2.159c0.09,-1.186 0.886,-2.191 2.221,-2.191c1.261,-0 2.176,0.975 2.236,2.191l-4.457,0Z" fill-rule="nonzero"/><path d="M178.33,131.472c0,0.705 -0.69,1.755 -2.371,1.755c-0.78,0 -1.501,-0.3 -1.501,-1.14c0,-0.945 0.721,-1.245 1.561,-1.395c0.856,-0.15 1.816,-0.165 2.311,-0.526l0,1.306Zm2.068,1.68c-0.165,0.06 -0.285,0.075 -0.39,0.075c-0.405,0 -0.405,-0.27 -0.405,-0.87l0,-3.991c0,-1.814 -1.513,-2.129 -2.908,-2.129c-1.726,0 -3.21,0.674 -3.285,2.594l1.273,-0c0.06,-1.14 0.856,-1.47 1.936,-1.47c0.811,-0 1.726,0.18 1.726,1.29c0,0.96 -1.2,0.87 -2.611,1.14c-1.32,0.255 -2.624,0.63 -2.624,2.386c0,1.545 1.154,2.174 2.564,2.174c1.081,-0 2.026,-0.375 2.731,-1.199c0,0.839 0.42,1.199 1.079,1.199c0.404,-0 0.689,-0.075 0.914,-0.21l0,-0.989Z" fill-rule="nonzero"/><path d="M181.09,131.727c0.075,1.92 1.544,2.624 3.284,2.624c1.576,-0 3.299,-0.599 3.299,-2.444c0,-1.501 -1.258,-1.921 -2.533,-2.206c-1.186,-0.285 -2.537,-0.435 -2.537,-1.35c0,-0.78 0.886,-0.99 1.651,-0.99c0.841,-0 1.711,0.315 1.801,1.305l1.273,-0c-0.104,-1.89 -1.468,-2.429 -3.179,-2.429c-1.35,0 -2.894,0.644 -2.894,2.204c0,1.485 1.274,1.905 2.534,2.191c1.276,0.285 2.536,0.45 2.536,1.44c0,0.975 -1.08,1.155 -1.876,1.155c-1.05,0 -2.041,-0.36 -2.086,-1.5l-1.273,-0Z" fill-rule="nonzero"/><path d="M194.44,131.711c-0.225,1.006 -0.96,1.516 -2.011,1.516c-1.695,0 -2.46,-1.2 -2.416,-2.551l5.805,-0c0.075,-1.874 -0.763,-4.439 -3.509,-4.439c-2.115,0 -3.644,1.709 -3.644,4.034c0.075,2.371 1.244,4.08 3.719,4.08c1.741,-0 2.97,-0.929 3.315,-2.64l-1.259,0Zm-4.427,-2.159c0.09,-1.186 0.886,-2.191 2.221,-2.191c1.261,-0 2.176,0.975 2.236,2.191l-4.457,0Z" fill-rule="nonzero"/><path d="M196.645,131.727c0.075,1.92 1.544,2.624 3.284,2.624c1.576,-0 3.299,-0.599 3.299,-2.444c0,-1.501 -1.258,-1.921 -2.533,-2.206c-1.186,-0.285 -2.537,-0.435 -2.537,-1.35c0,-0.78 0.886,-0.99 1.651,-0.99c0.841,-0 1.711,0.315 1.801,1.305l1.273,-0c-0.104,-1.89 -1.468,-2.429 -3.179,-2.429c-1.35,0 -2.894,0.644 -2.894,2.204c0,1.485 1.274,1.905 2.534,2.191c1.276,0.285 2.536,0.45 2.536,1.44c0,0.975 -1.08,1.155 -1.876,1.155c-1.05,0 -2.041,-0.36 -2.086,-1.5l-1.273,-0Z" fill-rule="nonzero"/><path d="M113.348,147.462l-1.423,0l0,7.83c0,1.185 -0.405,1.935 -1.711,1.935c-1.395,0 -1.726,-0.885 -1.726,-2.13l0,-0.45l-1.423,0l0,0.66c0,2.01 1.124,3.119 3.119,3.119c2.4,-0 3.164,-1.469 3.164,-2.924l0,-8.04Z" fill-rule="nonzero"/><path d="M115.06,154.301c0,2.266 1.304,4.05 3.764,4.05c2.461,-0 3.764,-1.784 3.764,-4.05c0,-2.28 -1.303,-4.064 -3.764,-4.064c-2.46,0 -3.764,1.784 -3.764,4.064Zm1.348,0c0,-1.89 1.081,-2.94 2.416,-2.94c1.336,-0 2.416,1.05 2.416,2.94c0,1.876 -1.08,2.926 -2.416,2.926c-1.335,0 -2.416,-1.05 -2.416,-2.926Z" fill-rule="nonzero"/><path d="M130.135,154.226c0,1.516 -0.585,3.001 -2.326,3.001c-1.755,0 -2.445,-1.41 -2.445,-2.941c-0,-1.455 0.66,-2.925 2.37,-2.925c1.651,-0 2.401,1.41 2.401,2.865Zm-6,3.945l1.273,-0l0,-1.034l0.03,0c0.571,0.914 1.711,1.214 2.506,1.214c2.371,-0 3.539,-1.844 3.539,-4.035c0,-2.19 -1.183,-4.079 -3.569,-4.079c-1.065,0 -2.055,0.375 -2.476,1.229l-0.03,-0l0,-4.004l-1.273,0l0,10.709Z" fill-rule="nonzero"/><path d="M136.735,154.301c0,2.266 1.304,4.05 3.764,4.05c2.461,-0 3.764,-1.784 3.764,-4.05c0,-2.28 -1.303,-4.064 -3.764,-4.064c-2.46,0 -3.764,1.784 -3.764,4.064Zm1.348,0c0,-1.89 1.081,-2.94 2.416,-2.94c1.336,-0 2.416,1.05 2.416,2.94c0,1.876 -1.08,2.926 -2.416,2.926c-1.335,0 -2.416,-1.05 -2.416,-2.926Z" fill-rule="nonzero"/><path d="M151.81,154.226c0,1.516 -0.585,3.001 -2.326,3.001c-1.755,0 -2.445,-1.41 -2.445,-2.941c-0,-1.455 0.66,-2.925 2.37,-2.925c1.651,-0 2.401,1.41 2.401,2.865Zm-6,6.915l1.273,-0l0,-4.004l0.03,0c0.571,0.914 1.711,1.214 2.506,1.214c2.371,-0 3.539,-1.844 3.539,-4.035c0,-2.19 -1.183,-4.079 -3.569,-4.079c-1.065,0 -2.055,0.375 -2.476,1.229l-0.03,-0l0,-1.049l-1.273,0l0,10.724Z" fill-rule="nonzero"/><path d="M160.705,154.226c0,1.516 -0.585,3.001 -2.326,3.001c-1.755,0 -2.445,-1.41 -2.445,-2.941c-0,-1.455 0.66,-2.925 2.37,-2.925c1.651,-0 2.401,1.41 2.401,2.865Zm-6,6.915l1.273,-0l0,-4.004l0.03,0c0.571,0.914 1.711,1.214 2.506,1.214c2.371,-0 3.539,-1.844 3.539,-4.035c0,-2.19 -1.183,-4.079 -3.569,-4.079c-1.065,0 -2.055,0.375 -2.476,1.229l-0.03,-0l0,-1.049l-1.273,0l0,10.724Z" fill-rule="nonzero"/><path d="M163.135,154.301c0,2.266 1.304,4.05 3.764,4.05c2.461,-0 3.764,-1.784 3.764,-4.05c0,-2.28 -1.303,-4.064 -3.764,-4.064c-2.46,0 -3.764,1.784 -3.764,4.064Zm1.348,0c0,-1.89 1.081,-2.94 2.416,-2.94c1.336,-0 2.416,1.05 2.416,2.94c0,1.876 -1.08,2.926 -2.416,2.926c-1.335,0 -2.416,-1.05 -2.416,-2.926Z" fill-rule="nonzero"/><path d="M172.12,158.171l1.273,-0l0,-3.45c0,-1.965 0.75,-3.135 2.805,-3.135l0,-1.349c-1.38,-0.045 -2.235,0.57 -2.849,1.814l-0.03,-0l-0,-1.634l-1.199,0l0,7.754Z" fill-rule="nonzero"/><path d="M178.928,148.092l-1.273,0l0,2.325l-1.32,0l0,1.124l1.32,-0l0,4.936c0,1.424 0.525,1.694 1.843,1.694l0.975,-0l0,-1.124l-0.585,0c-0.795,0 -0.96,-0.105 -0.96,-0.69l0,-4.816l1.545,-0l0,-1.124l-1.545,0l0,-2.325Z" fill-rule="nonzero"/><path d="M188.303,150.417l-1.273,0l0,4.38c0,1.395 -0.75,2.43 -2.296,2.43c-0.975,0 -1.576,-0.615 -1.576,-1.56l0,-5.25l-1.273,0l0,5.1c0,1.665 0.629,2.834 2.669,2.834c1.111,-0 1.981,-0.45 2.521,-1.409l0.03,0l0,1.229l1.198,-0l0,-7.754Z" fill-rule="nonzero"/><path d="M190.225,158.171l1.273,-0l0,-4.38c0,-1.395 0.751,-2.43 2.297,-2.43c0.975,-0 1.575,0.615 1.575,1.56l0,5.25l1.273,-0l0,-5.1c0,-1.665 -0.629,-2.834 -2.668,-2.834c-1.111,0 -1.981,0.45 -2.521,1.409l-0.03,-0l-0,-1.229l-1.199,0l0,7.754Z" fill-rule="nonzero"/><path d="M198.64,158.171l1.273,-0l0,-7.754l-1.273,0l0,7.754Zm1.273,-10.709l-1.273,0l0,1.559l1.273,-0l0,-1.559Z" fill-rule="nonzero"/><path d="M203.663,148.092l-1.273,0l0,2.325l-1.32,0l0,1.124l1.32,-0l0,4.936c0,1.424 0.525,1.694 1.843,1.694l0.975,-0l0,-1.124l-0.585,0c-0.795,0 -0.96,-0.105 -0.96,-0.69l0,-4.816l1.545,-0l0,-1.124l-1.545,0l0,-2.325Z" fill-rule="nonzero"/><path d="M206.695,158.171l1.273,-0l0,-7.754l-1.273,0l0,7.754Zm1.273,-10.709l-1.273,0l0,1.559l1.273,-0l0,-1.559Z" fill-rule="nonzero"/><path d="M215.305,155.711c-0.225,1.006 -0.96,1.516 -2.011,1.516c-1.695,0 -2.46,-1.2 -2.416,-2.551l5.805,-0c0.075,-1.874 -0.763,-4.439 -3.509,-4.439c-2.115,0 -3.644,1.709 -3.644,4.034c0.075,2.371 1.244,4.08 3.719,4.08c1.741,-0 2.97,-0.929 3.315,-2.64l-1.259,0Zm-4.427,-2.159c0.09,-1.186 0.886,-2.191 2.221,-2.191c1.261,-0 2.176,0.975 2.236,2.191l-4.457,0Z" fill-rule="nonzero"/><path d="M217.51,155.727c0.075,1.92 1.544,2.624 3.284,2.624c1.576,-0 3.299,-0.599 3.299,-2.444c0,-1.501 -1.258,-1.921 -2.533,-2.206c-1.186,-0.285 -2.537,-0.435 -2.537,-1.35c0,-0.78 0.886,-0.99 1.651,-0.99c0.841,-0 1.711,0.315 1.801,1.305l1.273,-0c-0.104,-1.89 -1.468,-2.429 -3.179,-2.429c-1.35,0 -2.894,0.644 -2.894,2.204c0,1.485 1.274,1.905 2.534,2.191c1.276,0.285 2.536,0.45 2.536,1.44c0,0.975 -1.08,1.155 -1.876,1.155c-1.05,0 -2.041,-0.36 -2.086,-1.5l-1.273,-0Z" fill-rule="nonzero"/><path d="M99,165.5l133,-0" fill="none" stroke="#6f6f6f" stroke-width="1px" stroke-miterlimit="1"/><path d="M116.859,175.141c-0.33,-2.28 -2.174,-3.478 -4.41,-3.478c-3.3,-0 -5.069,2.533 -5.069,5.639c0,3.12 1.618,5.579 4.949,5.579c2.701,-0 4.365,-1.618 4.634,-4.289l-1.423,-0c-0.135,1.77 -1.215,3.091 -3.091,3.091c-2.565,-0 -3.646,-2.041 -3.646,-4.486c0,-2.236 1.081,-4.336 3.631,-4.336c1.486,-0 2.701,0.765 3.001,2.28l1.424,0Z" fill-rule="nonzero"/><path d="M118.105,178.757c0,2.265 1.304,4.049 3.764,4.049c2.461,-0 3.764,-1.784 3.764,-4.049c0,-2.281 -1.303,-4.064 -3.764,-4.064c-2.46,-0 -3.764,1.783 -3.764,4.064Zm1.348,-0c0,-1.891 1.081,-2.941 2.416,-2.941c1.336,-0 2.416,1.05 2.416,2.941c0,1.875 -1.08,2.926 -2.416,2.926c-1.335,-0 -2.416,-1.051 -2.416,-2.926Z" fill-rule="nonzero"/><path d="M127.135,182.626l1.273,-0l0,-4.38c0,-1.395 0.751,-2.43 2.297,-2.43c0.975,-0 1.575,0.615 1.575,1.56l0,5.25l1.273,-0l0,-5.1c0,-1.665 -0.629,-2.833 -2.668,-2.833c-1.111,-0 -1.981,0.449 -2.521,1.408l-0.03,-0l-0,-1.228l-1.199,-0l0,7.753Z" fill-rule="nonzero"/><path d="M137.243,172.548l-1.273,-0l0,2.325l-1.32,-0l0,1.123l1.32,-0l0,4.936c0,1.424 0.525,1.694 1.843,1.694l0.975,-0l0,-1.123l-0.585,-0c-0.795,-0 -0.96,-0.105 -0.96,-0.691l0,-4.816l1.545,-0l0,-1.123l-1.545,-0l0,-2.325Z" fill-rule="nonzero"/><path d="M145,179.927c0,0.705 -0.69,1.756 -2.371,1.756c-0.78,-0 -1.501,-0.3 -1.501,-1.141c0,-0.945 0.721,-1.245 1.561,-1.395c0.856,-0.15 1.816,-0.165 2.311,-0.525l0,1.305Zm2.068,1.681c-0.165,0.06 -0.285,0.075 -0.39,0.075c-0.405,-0 -0.405,-0.27 -0.405,-0.871l0,-3.991c0,-1.814 -1.513,-2.128 -2.908,-2.128c-1.726,-0 -3.21,0.673 -3.285,2.593l1.273,0c0.06,-1.14 0.856,-1.47 1.936,-1.47c0.811,-0 1.726,0.18 1.726,1.29c0,0.96 -1.2,0.87 -2.611,1.141c-1.32,0.255 -2.624,0.63 -2.624,2.385c0,1.545 1.154,2.174 2.564,2.174c1.081,-0 2.026,-0.375 2.731,-1.198c0,0.838 0.42,1.198 1.079,1.198c0.404,-0 0.689,-0.075 0.914,-0.21l0,-0.988Z" fill-rule="nonzero"/><path d="M154.838,177.361c-0.18,-1.845 -1.59,-2.668 -3.345,-2.668c-2.459,-0 -3.658,1.828 -3.658,4.154c0,2.31 1.259,3.959 3.628,3.959c1.95,-0 3.135,-1.123 3.42,-3.014l-1.305,-0c-0.165,1.17 -0.9,1.891 -2.13,1.891c-1.62,-0 -2.265,-1.411 -2.265,-2.836c0,-1.576 0.57,-3.031 2.415,-3.031c1.05,-0 1.725,0.57 1.92,1.545l1.32,0Z" fill-rule="nonzero"/><path d="M158.078,172.548l-1.273,-0l0,2.325l-1.32,-0l0,1.123l1.32,-0l0,4.936c0,1.424 0.525,1.694 1.843,1.694l0.975,-0l0,-1.123l-0.585,-0c-0.795,-0 -0.96,-0.105 -0.96,-0.691l0,-4.816l1.545,-0l0,-1.123l-1.545,-0l0,-2.325Z" fill-rule="nonzero"/><path d="M232,70l0,120l-133,-0l0,-120l133,-0Zm-1,1l-131,0c0,0 0,118 0,118l131,-0l0,-118Z" fill="#6f6f6f"/><path d="M182.118,57.016c-0,2.911 1.723,5.61 5.129,5.61c3.406,-0 5.129,-2.699 5.129,-5.61c-0,-2.91 -1.723,-5.609 -5.129,-5.609c-3.406,0 -5.129,2.699 -5.129,5.609Zm1.423,0c-0,-2.16 1.095,-4.41 3.706,-4.41c2.611,-0 3.706,2.25 3.706,4.41c-0,2.161 -1.095,4.411 -3.706,4.411c-2.611,0 -3.706,-2.25 -3.706,-4.411Z" fill-rule="nonzero"/><path d="M200.326,54.617l-1.273,0l-0,4.38c-0,1.395 -0.751,2.43 -2.296,2.43c-0.976,0 -1.576,-0.615 -1.576,-1.56l-0,-5.25l-1.273,0l-0,5.1c-0,1.665 0.629,2.834 2.669,2.834c1.11,-0 1.981,-0.45 2.521,-1.409l0.03,0l-0,1.229l1.198,-0l-0,-7.754Z" fill-rule="nonzero"/><path d="M202.203,62.371l1.273,-0l-0,-3.45c-0,-1.965 0.75,-3.135 2.805,-3.135l-0,-1.349c-1.38,-0.045 -2.235,0.57 -2.85,1.814l-0.03,-0l0,-1.634l-1.198,0l-0,7.754Z" fill-rule="nonzero"/><path d="M217.458,58.426c-0,1.516 -0.585,3.001 -2.326,3.001c-1.756,0 -2.446,-1.41 -2.446,-2.941c0,-1.455 0.66,-2.925 2.371,-2.925c1.651,-0 2.401,1.41 2.401,2.865Zm-6,6.915l1.273,-0l-0,-4.004l0.03,0c0.57,0.914 1.711,1.214 2.506,1.214c2.371,-0 3.539,-1.844 3.539,-4.035c-0,-2.19 -1.183,-4.079 -3.569,-4.079c-1.065,0 -2.056,0.375 -2.476,1.229l-0.03,-0l-0,-1.049l-1.273,0l-0,10.724Z" fill-rule="nonzero"/><path d="M219.888,58.501c-0,2.266 1.303,4.05 3.764,4.05c2.461,-0 3.764,-1.784 3.764,-4.05c-0,-2.28 -1.303,-4.064 -3.764,-4.064c-2.461,0 -3.764,1.784 -3.764,4.064Zm1.348,0c-0,-1.89 1.08,-2.94 2.416,-2.94c1.335,-0 2.416,1.05 2.416,2.94c-0,1.876 -1.081,2.926 -2.416,2.926c-1.336,0 -2.416,-1.05 -2.416,-2.926Z" fill-rule="nonzero"/><path d="M228.873,62.371l1.273,-0l-0,-3.45c-0,-1.965 0.75,-3.135 2.805,-3.135l-0,-1.349c-1.38,-0.045 -2.235,0.57 -2.85,1.814l-0.03,-0l0,-1.634l-1.198,0l-0,7.754Z" fill-rule="nonzero"/><path d="M235.681,52.292l-1.273,0l-0,2.325l-1.32,0l-0,1.124l1.32,-0l-0,4.936c-0,1.424 0.524,1.694 1.843,1.694l0.975,-0l-0,-1.124l-0.585,0c-0.795,0 -0.96,-0.105 -0.96,-0.69l-0,-4.816l1.545,-0l-0,-1.124l-1.545,0l-0,-2.325Z" fill-rule="nonzero"/><path d="M239.163,62.371l1.273,-0l-0,-6.63l1.5,-0l-0,-1.124l-1.5,0l-0,-1.081c-0,-0.675 0.36,-0.87 0.975,-0.87c0.225,-0 0.495,0.03 0.72,0.105l-0,-1.109c-0.24,-0.075 -0.585,-0.12 -0.825,-0.12c-1.394,0 -2.143,0.659 -2.143,1.919l-0,1.156l-1.305,0l-0,1.124l1.305,-0l-0,6.63Z" fill-rule="nonzero"/><path d="M242.658,58.501c-0,2.266 1.303,4.05 3.764,4.05c2.461,-0 3.764,-1.784 3.764,-4.05c-0,-2.28 -1.303,-4.064 -3.764,-4.064c-2.461,0 -3.764,1.784 -3.764,4.064Zm1.348,0c-0,-1.89 1.08,-2.94 2.416,-2.94c1.335,-0 2.416,1.05 2.416,2.94c-0,1.876 -1.081,2.926 -2.416,2.926c-1.336,0 -2.416,-1.05 -2.416,-2.926Z" fill-rule="nonzero"/><rect x="251.763" y="51.662" width="1.273" height="10.708" fill-rule="nonzero"/><path d="M255.093,62.371l1.273,-0l-0,-7.754l-1.273,0l-0,7.754Zm1.273,-10.709l-1.273,0l-0,1.559l1.273,-0l-0,-1.559Z" fill-rule="nonzero"/><path d="M257.928,58.501c-0,2.266 1.303,4.05 3.764,4.05c2.461,-0 3.764,-1.784 3.764,-4.05c-0,-2.28 -1.303,-4.064 -3.764,-4.064c-2.461,0 -3.764,1.784 -3.764,4.064Zm1.348,0c-0,-1.89 1.08,-2.94 2.416,-2.94c1.335,-0 2.416,1.05 2.416,2.94c-0,1.876 -1.081,2.926 -2.416,2.926c-1.336,0 -2.416,-1.05 -2.416,-2.926Z" fill-rule="nonzero"/><rect x="389" y="46" width="76" height="25" fill="#e7e7e7"/><path d="M429.141,31.779l4.398,-0l-0,-5.44l5.7,-0l-0,-3.398l-5.7,0l-0,-1.782l6.64,-0l-0,-3.658l-11.038,0l0,14.278Z" fill="#ac2020" fill-rule="nonzero"/><path d="M445.36,26.681l1.38,-4.4l0.04,0l1.28,4.4l-2.7,0Zm-6.019,5.098l4.42,-0l0.639,-2.04l4.54,-0l0.6,2.04l4.559,-0l-5.199,-14.278l-4.3,0l-5.259,14.278Z" fill="#ac2020" fill-rule="nonzero"/><rect x="455.081" y="17.501" width="4.397" height="14.278" fill="#ac2020" fill-rule="nonzero"/><path d="M461.741,31.779l10.718,-0l-0,-3.658l-6.32,0l-0,-10.62l-4.398,0l0,14.278Z" fill="#ac2020" fill-rule="nonzero"/><g transform="matrix(1,0,0,1,190.501,-95.4682)"><path d="M0.356,-0.709l-0.065,0c-0.019,0.107 -0.107,0.133 -0.204,0.133l0,0.068l0.184,-0l0,0.508l0.085,-0l-0,-0.709Z" fill="#ac2020" fill-rule="nonzero" transform="matrix(12,0,0,12,154.823,213.245)"/><path d="M0.13,-0.2c-0,-0.082 0.066,-0.136 0.15,-0.136c0.08,-0 0.146,0.058 0.146,0.135c0,0.079 -0.06,0.138 -0.145,0.138c-0.088,0 -0.151,-0.052 -0.151,-0.137Zm-0.065,-0.328c0,0.064 0.04,0.123 0.099,0.147c-0.079,0.028 -0.124,0.093 -0.124,0.177c0,0.145 0.105,0.216 0.241,0.216c0.131,-0 0.235,-0.079 0.235,-0.216c-0,-0.088 -0.041,-0.15 -0.126,-0.177c0.058,-0.026 0.098,-0.084 0.098,-0.147c-0,-0.09 -0.06,-0.181 -0.215,-0.181c-0.109,0 -0.208,0.064 -0.208,0.181Zm0.09,0.003c-0,-0.071 0.056,-0.109 0.124,-0.109c0.069,-0 0.119,0.038 0.119,0.109c0,0.072 -0.05,0.114 -0.117,0.114c-0.07,0 -0.126,-0.036 -0.126,-0.114Z" fill="#ac2020" fill-rule="nonzero" transform="matrix(12,0,0,12,161.495,213.245)"/><path d="M0.467,-0.263c0,0.101 -0.039,0.2 -0.155,0.2c-0.117,0 -0.163,-0.094 -0.163,-0.196c-0,-0.097 0.044,-0.195 0.158,-0.195c0.11,-0 0.16,0.094 0.16,0.191Zm-0.4,0.461l0.085,-0l-0,-0.267l0.002,0c0.038,0.061 0.114,0.081 0.167,0.081c0.158,-0 0.236,-0.123 0.236,-0.269c-0,-0.146 -0.079,-0.272 -0.238,-0.272c-0.071,0 -0.137,0.025 -0.165,0.082l-0.002,-0l-0,-0.07l-0.085,0l0,0.715Z" fill="#ac2020" fill-rule="nonzero" transform="matrix(12,0,0,12,168.167,213.245)"/><path d="M0.009,-0l0.103,-0l0.144,-0.215l0.144,0.215l0.109,-0l-0.2,-0.28l0.178,-0.237l-0.102,0l-0.129,0.18l-0.124,-0.18l-0.109,0l0.18,0.245l-0.194,0.272Z" fill="#ac2020" fill-rule="nonzero" transform="matrix(12,0,0,12,175.283,213.245)"/><rect x="154.823" y="214.145" width="26.676" height="0.6" fill="#ac2020"/></g><path d="M383.5,106.5l-8,-0" fill="none" stroke="#000" stroke-width="1px"/><path d="M383.5,123.5l-8,-0" fill="none" stroke="#000" stroke-width="1px"/><path d="M379.5,106.5l-0,17" fill="none" stroke="#000" stroke-width="1px" stroke-miterlimit="1"/><path d="M341.499,62.371l1.423,-0l0,-4.905l5.642,-0l0,4.905l1.423,-0l0,-10.709l-1.423,0l0,4.605l-5.642,0l0,-4.605l-1.423,0l0,10.709Z" fill-rule="nonzero"/><path d="M351.699,58.501c0,2.266 1.303,4.05 3.764,4.05c2.461,-0 3.764,-1.784 3.764,-4.05c0,-2.28 -1.303,-4.064 -3.764,-4.064c-2.461,0 -3.764,1.784 -3.764,4.064Zm1.348,0c0,-1.89 1.081,-2.94 2.416,-2.94c1.336,-0 2.416,1.05 2.416,2.94c0,1.876 -1.08,2.926 -2.416,2.926c-1.335,0 -2.416,-1.05 -2.416,-2.926Z" fill-rule="nonzero"/><path d="M360.729,62.371l1.273,-0l0,-4.83c0,-0.585 0.555,-1.98 2.071,-1.98c1.141,-0 1.456,0.72 1.456,1.725l0,5.085l1.273,-0l0,-4.83c0,-1.2 0.796,-1.98 2.026,-1.98c1.246,-0 1.501,0.765 1.501,1.725l0,5.085l1.273,-0l0,-5.685c0,-1.605 -1.033,-2.249 -2.579,-2.249c-0.99,0 -1.906,0.495 -2.43,1.319c-0.315,-0.944 -1.184,-1.319 -2.13,-1.319c-1.065,0 -1.936,0.45 -2.506,1.319l-0.03,-0l0,-1.139l-1.198,0l0,7.754Z" fill-rule="nonzero"/><path d="M378.879,59.911c-0.225,1.006 -0.96,1.516 -2.011,1.516c-1.696,0 -2.461,-1.2 -2.416,-2.551l5.805,-0c0.075,-1.874 -0.764,-4.439 -3.509,-4.439c-2.116,0 -3.644,1.709 -3.644,4.034c0.075,2.371 1.243,4.08 3.719,4.08c1.741,-0 2.97,-0.929 3.314,-2.64l-1.258,0Zm-4.427,-2.159c0.09,-1.186 0.886,-2.191 2.221,-2.191c1.261,-0 2.176,0.975 2.236,2.191l-4.457,0Z" fill-rule="nonzero"/><path d="M396.63,62.371l1.47,-0l1.2,-3.225l4.529,-0l1.17,3.225l1.574,-0l-4.184,-10.709l-1.574,0l-4.185,10.709Zm4.934,-9.42l0.03,-0l1.785,4.996l-3.629,0l1.814,-4.996Z" fill-rule="nonzero"/><path d="M413.46,58.426c0,1.516 -0.585,3.001 -2.326,3.001c-1.755,0 -2.445,-1.41 -2.445,-2.941c-0,-1.455 0.66,-2.925 2.37,-2.925c1.651,-0 2.401,1.41 2.401,2.865Zm-6,3.945l1.273,-0l0,-1.034l0.03,0c0.571,0.914 1.711,1.214 2.506,1.214c2.371,-0 3.539,-1.844 3.539,-4.035c0,-2.19 -1.183,-4.079 -3.569,-4.079c-1.065,0 -2.055,0.375 -2.476,1.229l-0.03,-0l0,-4.004l-1.273,0l0,10.709Z" fill-rule="nonzero"/><path d="M415.89,58.501c0,2.266 1.303,4.05 3.764,4.05c2.461,-0 3.764,-1.784 3.764,-4.05c0,-2.28 -1.303,-4.064 -3.764,-4.064c-2.461,0 -3.764,1.784 -3.764,4.064Zm1.348,0c0,-1.89 1.081,-2.94 2.416,-2.94c1.336,-0 2.416,1.05 2.416,2.94c0,1.876 -1.08,2.926 -2.416,2.926c-1.335,0 -2.416,-1.05 -2.416,-2.926Z" fill-rule="nonzero"/><path d="M431.338,54.617l-1.273,0l0,4.38c0,1.395 -0.75,2.43 -2.296,2.43c-0.975,0 -1.576,-0.615 -1.576,-1.56l0,-5.25l-1.273,0l0,5.1c0,1.665 0.629,2.834 2.669,2.834c1.111,-0 1.981,-0.45 2.521,-1.409l0.03,0l0,1.229l1.198,-0l0,-7.754Z" fill-rule="nonzero"/><path d="M435.028,52.292l-1.273,0l0,2.325l-1.32,0l0,1.124l1.32,-0l0,4.936c0,1.424 0.525,1.694 1.843,1.694l0.975,-0l0,-1.124l-0.585,0c-0.795,0 -0.96,-0.105 -0.96,-0.69l0,-4.816l1.545,-0l0,-1.124l-1.545,0l0,-2.325Z" fill-rule="nonzero"/><path d="M448.573,54.617l-1.273,0l0,4.38c0,1.395 -0.75,2.43 -2.296,2.43c-0.975,0 -1.576,-0.615 -1.576,-1.56l0,-5.25l-1.273,0l0,5.1c0,1.665 0.629,2.834 2.669,2.834c1.111,-0 1.981,-0.45 2.521,-1.409l0.03,0l0,1.229l1.198,-0l0,-7.754Z" fill-rule="nonzero"/><path d="M450,59.927c0.075,1.92 1.544,2.624 3.284,2.624c1.576,-0 3.299,-0.599 3.299,-2.444c0,-1.501 -1.258,-1.921 -2.533,-2.206c-1.186,-0.285 -2.537,-0.435 -2.537,-1.35c0,-0.78 0.886,-0.99 1.651,-0.99c0.841,-0 1.711,0.315 1.801,1.305l1.273,-0c-0.104,-1.89 -1.468,-2.429 -3.179,-2.429c-1.35,0 -2.894,0.644 -2.894,2.204c0,1.485 1.274,1.905 2.534,2.191c1.276,0.285 2.536,0.45 2.536,1.44c0,0.975 -1.08,1.155 -1.876,1.155c-1.05,0 -2.041,-0.36 -2.086,-1.5l-1.273,-0Z" fill-rule="nonzero"/><path d="M397.305,78.816c0,2.911 1.724,5.61 5.129,5.61c3.406,-0 5.129,-2.699 5.129,-5.61c0,-2.91 -1.723,-5.609 -5.129,-5.609c-3.405,0 -5.129,2.699 -5.129,5.609Zm1.423,0c0,-2.16 1.096,-4.41 3.706,-4.41c2.611,-0 3.706,2.25 3.706,4.41c0,2.161 -1.095,4.411 -3.706,4.411c-2.61,0 -3.706,-2.25 -3.706,-4.411Z" fill-rule="nonzero"/><path d="M415.513,76.417l-1.273,0l0,4.38c0,1.395 -0.75,2.43 -2.296,2.43c-0.975,0 -1.576,-0.615 -1.576,-1.56l0,-5.25l-1.273,0l0,5.1c0,1.665 0.629,2.834 2.669,2.834c1.111,-0 1.981,-0.45 2.521,-1.409l0.03,0l0,1.229l1.198,-0l0,-7.754Z" fill-rule="nonzero"/><path d="M417.39,84.171l1.273,-0l0,-3.45c0,-1.965 0.75,-3.135 2.805,-3.135l0,-1.349c-1.38,-0.045 -2.235,0.57 -2.849,1.814l-0.03,-0l-0,-1.634l-1.199,0l0,7.754Z" fill-rule="nonzero"/><path d="M426.6,84.171l1.273,-0l0,-4.83c0,-0.585 0.556,-1.98 2.072,-1.98c1.14,-0 1.455,0.72 1.455,1.725l0,5.085l1.273,-0l0,-4.83c0,-1.2 0.796,-1.98 2.027,-1.98c1.245,-0 1.5,0.765 1.5,1.725l0,5.085l1.273,-0l0,-5.685c0,-1.605 -1.033,-2.249 -2.578,-2.249c-0.991,0 -1.906,0.495 -2.431,1.319c-0.315,-0.944 -1.184,-1.319 -2.129,-1.319c-1.066,0 -1.936,0.45 -2.506,1.319l-0.03,-0l-0,-1.139l-1.199,0l0,7.754Z" fill-rule="nonzero"/><path d="M439.47,84.171l1.273,-0l0,-7.754l-1.273,0l0,7.754Zm1.273,-10.709l-1.273,0l0,1.559l1.273,-0l0,-1.559Z" fill-rule="nonzero"/><path d="M442.23,81.727c0.075,1.92 1.544,2.624 3.284,2.624c1.576,-0 3.299,-0.599 3.299,-2.444c0,-1.501 -1.258,-1.921 -2.533,-2.206c-1.186,-0.285 -2.537,-0.435 -2.537,-1.35c0,-0.78 0.886,-0.99 1.651,-0.99c0.841,-0 1.711,0.315 1.801,1.305l1.273,-0c-0.104,-1.89 -1.468,-2.429 -3.179,-2.429c-1.35,0 -2.894,0.644 -2.894,2.204c0,1.485 1.274,1.905 2.534,2.191c1.276,0.285 2.536,0.45 2.536,1.44c0,0.975 -1.08,1.155 -1.876,1.155c-1.05,0 -2.041,-0.36 -2.086,-1.5l-1.273,-0Z" fill-rule="nonzero"/><path d="M449.73,81.727c0.075,1.92 1.544,2.624 3.284,2.624c1.576,-0 3.299,-0.599 3.299,-2.444c0,-1.501 -1.258,-1.921 -2.533,-2.206c-1.186,-0.285 -2.537,-0.435 -2.537,-1.35c0,-0.78 0.886,-0.99 1.651,-0.99c0.841,-0 1.711,0.315 1.801,1.305l1.273,-0c-0.104,-1.89 -1.468,-2.429 -3.179,-2.429c-1.35,0 -2.894,0.644 -2.894,2.204c0,1.485 1.274,1.905 2.534,2.191c1.276,0.285 2.536,0.45 2.536,1.44c0,0.975 -1.08,1.155 -1.876,1.155c-1.05,0 -2.041,-0.36 -2.086,-1.5l-1.273,-0Z" fill-rule="nonzero"/><path d="M457.8,84.171l1.273,-0l0,-7.754l-1.273,0l0,7.754Zm1.273,-10.709l-1.273,0l0,1.559l1.273,-0l0,-1.559Z" fill-rule="nonzero"/><path d="M460.635,80.301c0,2.266 1.303,4.05 3.764,4.05c2.461,-0 3.764,-1.784 3.764,-4.05c0,-2.28 -1.303,-4.064 -3.764,-4.064c-2.461,0 -3.764,1.784 -3.764,4.064Zm1.348,0c0,-1.89 1.081,-2.94 2.416,-2.94c1.336,-0 2.416,1.05 2.416,2.94c0,1.876 -1.08,2.926 -2.416,2.926c-1.335,0 -2.416,-1.05 -2.416,-2.926Z" fill-rule="nonzero"/><path d="M469.665,84.171l1.273,-0l0,-4.38c0,-1.395 0.751,-2.43 2.297,-2.43c0.975,-0 1.575,0.615 1.575,1.56l0,5.25l1.273,-0l0,-5.1c0,-1.665 -0.629,-2.834 -2.668,-2.834c-1.111,0 -1.981,0.45 -2.521,1.409l-0.03,-0l-0,-1.229l-1.199,0l0,7.754Z" fill-rule="nonzero"/><path d="M389,87.5l133,-0" fill="none" stroke="#6f6f6f" stroke-width="1px" stroke-miterlimit="1"/><path d="M465,46l-0,25l-76,-0l-0,-25l76,-0Zm-1,1l-74,-0l-0,23l74,0l-0,-23Z" fill="#6f6f6f"/><path d="M400.335,102.171l1.423,-0l0,-9.51l3.57,-0l0,-1.199l-8.563,0l0,1.199l3.57,-0l0,9.51Z" fill-rule="nonzero"/><path d="M406.305,102.171l1.273,-0l0,-4.38c0,-1.395 0.751,-2.43 2.297,-2.43c0.975,-0 1.575,0.615 1.575,1.56l0,5.25l1.273,-0l0,-5.1c0,-1.665 -0.629,-2.834 -2.668,-2.834c-0.931,0 -2.026,0.39 -2.447,1.319l-0.03,-0l0,-4.094l-1.273,0l0,10.709Z" fill-rule="nonzero"/><path d="M420,99.711c-0.225,1.006 -0.96,1.516 -2.011,1.516c-1.695,0 -2.461,-1.2 -2.416,-2.551l5.805,-0c0.075,-1.874 -0.764,-4.439 -3.509,-4.439c-2.115,0 -3.644,1.709 -3.644,4.034c0.075,2.371 1.244,4.08 3.719,4.08c1.741,-0 2.97,-0.929 3.315,-2.64l-1.259,0Zm-4.427,-2.159c0.09,-1.186 0.886,-2.191 2.221,-2.191c1.261,-0 2.176,0.975 2.236,2.191l-4.457,0Z" fill-rule="nonzero"/><path d="M428.638,92.092l-1.273,0l0,2.325l-1.32,0l0,1.124l1.32,-0l0,4.936c0,1.424 0.525,1.694 1.843,1.694l0.975,-0l0,-1.124l-0.585,0c-0.795,0 -0.96,-0.105 -0.96,-0.69l0,-4.816l1.545,-0l0,-1.124l-1.545,0l0,-2.325Z" fill-rule="nonzero"/><path d="M436.95,99.711c-0.225,1.006 -0.96,1.516 -2.011,1.516c-1.695,0 -2.461,-1.2 -2.416,-2.551l5.805,-0c0.075,-1.874 -0.764,-4.439 -3.509,-4.439c-2.115,0 -3.644,1.709 -3.644,4.034c0.075,2.371 1.244,4.08 3.719,4.08c1.741,-0 2.97,-0.929 3.315,-2.64l-1.259,0Zm-4.427,-2.159c0.09,-1.186 0.886,-2.191 2.221,-2.191c1.261,-0 2.176,0.975 2.236,2.191l-4.457,0Z" fill-rule="nonzero"/><path d="M444.45,99.472c0,0.705 -0.69,1.755 -2.371,1.755c-0.78,0 -1.501,-0.3 -1.501,-1.14c0,-0.945 0.721,-1.245 1.561,-1.395c0.856,-0.15 1.816,-0.165 2.311,-0.526l0,1.306Zm2.068,1.68c-0.165,0.06 -0.285,0.075 -0.39,0.075c-0.405,0 -0.405,-0.27 -0.405,-0.87l0,-3.991c0,-1.814 -1.513,-2.129 -2.908,-2.129c-1.726,0 -3.21,0.674 -3.285,2.594l1.273,-0c0.06,-1.14 0.856,-1.47 1.936,-1.47c0.811,-0 1.726,0.18 1.726,1.29c0,0.96 -1.2,0.87 -2.611,1.14c-1.321,0.255 -2.624,0.63 -2.624,2.386c0,1.545 1.154,2.174 2.564,2.174c1.081,-0 2.026,-0.375 2.731,-1.199c0,0.839 0.42,1.199 1.079,1.199c0.404,-0 0.689,-0.075 0.914,-0.21l0,-0.989Z" fill-rule="nonzero"/><path d="M447.705,102.171l1.273,-0l0,-4.83c0,-0.585 0.556,-1.98 2.072,-1.98c1.14,-0 1.455,0.72 1.455,1.725l0,5.085l1.273,-0l0,-4.83c0,-1.2 0.796,-1.98 2.027,-1.98c1.245,-0 1.5,0.765 1.5,1.725l0,5.085l1.273,-0l0,-5.685c0,-1.605 -1.033,-2.249 -2.578,-2.249c-0.991,0 -1.906,0.495 -2.431,1.319c-0.315,-0.944 -1.184,-1.319 -2.129,-1.319c-1.066,0 -1.936,0.45 -2.506,1.319l-0.03,-0l-0,-1.139l-1.199,0l0,7.754Z" fill-rule="nonzero"/><path d="M389,105.5l133,-0" fill="none" stroke="#6f6f6f" stroke-width="1px" stroke-miterlimit="1"/><rect x="389" y="106" width="133" height="18" fill="#949494"/><path d="M397.905,120.171l1.423,-0l0,-4.38l3.272,-0c2.13,0.015 3.283,-1.184 3.283,-3.165c0,-1.98 -1.153,-3.164 -3.283,-3.164l-4.695,0l0,10.709Zm1.423,-9.51l2.791,-0c1.606,-0 2.341,0.69 2.341,1.965c0,1.276 -0.735,1.981 -2.341,1.966l-2.791,0l0,-3.931Z" fill-rule="nonzero"/><path d="M407.37,120.171l1.273,-0l0,-3.45c0,-1.965 0.75,-3.135 2.805,-3.135l0,-1.349c-1.38,-0.045 -2.235,0.57 -2.849,1.814l-0.03,-0l-0,-1.634l-1.199,0l0,7.754Z" fill-rule="nonzero"/><path d="M417.495,117.711c-0.225,1.006 -0.96,1.516 -2.011,1.516c-1.695,0 -2.461,-1.2 -2.416,-2.551l5.805,-0c0.075,-1.874 -0.764,-4.439 -3.509,-4.439c-2.115,0 -3.644,1.709 -3.644,4.034c0.075,2.371 1.244,4.08 3.719,4.08c1.741,-0 2.97,-0.929 3.315,-2.64l-1.259,0Zm-4.427,-2.159c0.09,-1.186 0.886,-2.191 2.221,-2.191c1.261,-0 2.176,0.975 2.236,2.191l-4.457,0Z" fill-rule="nonzero"/><path d="M419.7,117.727c0.075,1.92 1.544,2.624 3.284,2.624c1.576,-0 3.299,-0.599 3.299,-2.444c0,-1.501 -1.258,-1.921 -2.533,-2.206c-1.186,-0.285 -2.537,-0.435 -2.537,-1.35c0,-0.78 0.886,-0.99 1.651,-0.99c0.841,-0 1.711,0.315 1.801,1.305l1.273,-0c-0.104,-1.89 -1.468,-2.429 -3.179,-2.429c-1.35,0 -2.894,0.644 -2.894,2.204c0,1.485 1.274,1.905 2.534,2.191c1.276,0.285 2.536,0.45 2.536,1.44c0,0.975 -1.08,1.155 -1.876,1.155c-1.05,0 -2.041,-0.36 -2.086,-1.5l-1.273,-0Z" fill-rule="nonzero"/><path d="M427.2,117.727c0.075,1.92 1.544,2.624 3.284,2.624c1.576,-0 3.299,-0.599 3.299,-2.444c0,-1.501 -1.258,-1.921 -2.533,-2.206c-1.186,-0.285 -2.537,-0.435 -2.537,-1.35c0,-0.78 0.886,-0.99 1.651,-0.99c0.841,-0 1.711,0.315 1.801,1.305l1.273,-0c-0.104,-1.89 -1.468,-2.429 -3.179,-2.429c-1.35,0 -2.894,0.644 -2.894,2.204c0,1.485 1.274,1.905 2.534,2.191c1.276,0.285 2.536,0.45 2.536,1.44c0,0.975 -1.08,1.155 -1.876,1.155c-1.05,0 -2.041,-0.36 -2.086,-1.5l-1.273,-0Z" fill-rule="nonzero"/><path d="M439.32,120.171l1.273,-0l0,-3.45c0,-1.965 0.75,-3.135 2.805,-3.135l0,-1.349c-1.38,-0.045 -2.235,0.57 -2.849,1.814l-0.03,-0l-0,-1.634l-1.199,0l0,7.754Z" fill-rule="nonzero"/><path d="M449.445,117.711c-0.225,1.006 -0.96,1.516 -2.011,1.516c-1.695,0 -2.461,-1.2 -2.416,-2.551l5.805,-0c0.075,-1.874 -0.764,-4.439 -3.509,-4.439c-2.115,0 -3.644,1.709 -3.644,4.034c0.075,2.371 1.244,4.08 3.719,4.08c1.741,-0 2.97,-0.929 3.315,-2.64l-1.259,0Zm-4.427,-2.159c0.09,-1.186 0.886,-2.191 2.221,-2.191c1.261,-0 2.176,0.975 2.236,2.191l-4.457,0Z" fill-rule="nonzero"/><rect x="452.22" y="109.462" width="1.273" height="10.708" fill-rule="nonzero"/><path d="M460.83,117.711c-0.225,1.006 -0.96,1.516 -2.011,1.516c-1.695,0 -2.461,-1.2 -2.416,-2.551l5.805,-0c0.075,-1.874 -0.764,-4.439 -3.509,-4.439c-2.115,0 -3.644,1.709 -3.644,4.034c0.075,2.371 1.244,4.08 3.719,4.08c1.741,-0 2.97,-0.929 3.315,-2.64l-1.259,0Zm-4.427,-2.159c0.09,-1.186 0.886,-2.191 2.221,-2.191c1.261,-0 2.176,0.975 2.236,2.191l-4.457,0Z" fill-rule="nonzero"/><path d="M468.33,117.472c0,0.705 -0.69,1.755 -2.371,1.755c-0.78,0 -1.501,-0.3 -1.501,-1.14c0,-0.945 0.721,-1.245 1.561,-1.395c0.856,-0.15 1.816,-0.165 2.311,-0.526l0,1.306Zm2.068,1.68c-0.165,0.06 -0.285,0.075 -0.39,0.075c-0.405,0 -0.405,-0.27 -0.405,-0.87l0,-3.991c0,-1.814 -1.513,-2.129 -2.908,-2.129c-1.726,0 -3.21,0.674 -3.285,2.594l1.273,-0c0.06,-1.14 0.856,-1.47 1.936,-1.47c0.811,-0 1.726,0.18 1.726,1.29c0,0.96 -1.2,0.87 -2.611,1.14c-1.321,0.255 -2.624,0.63 -2.624,2.386c0,1.545 1.154,2.174 2.564,2.174c1.081,-0 2.026,-0.375 2.731,-1.199c0,0.839 0.42,1.199 1.079,1.199c0.404,-0 0.689,-0.075 0.914,-0.21l0,-0.989Z" fill-rule="nonzero"/><path d="M471.09,117.727c0.075,1.92 1.544,2.624 3.284,2.624c1.576,-0 3.299,-0.599 3.299,-2.444c0,-1.501 -1.258,-1.921 -2.533,-2.206c-1.186,-0.285 -2.537,-0.435 -2.537,-1.35c0,-0.78 0.886,-0.99 1.651,-0.99c0.841,-0 1.711,0.315 1.801,1.305l1.273,-0c-0.104,-1.89 -1.468,-2.429 -3.179,-2.429c-1.35,0 -2.894,0.644 -2.894,2.204c0,1.485 1.274,1.905 2.534,2.191c1.276,0.285 2.536,0.45 2.536,1.44c0,0.975 -1.08,1.155 -1.876,1.155c-1.05,0 -2.041,-0.36 -2.086,-1.5l-1.273,-0Z" fill-rule="nonzero"/><path d="M484.44,117.711c-0.225,1.006 -0.96,1.516 -2.011,1.516c-1.695,0 -2.461,-1.2 -2.416,-2.551l5.805,-0c0.075,-1.874 -0.764,-4.439 -3.509,-4.439c-2.115,0 -3.644,1.709 -3.644,4.034c0.075,2.371 1.244,4.08 3.719,4.08c1.741,-0 2.97,-0.929 3.315,-2.64l-1.259,0Zm-4.427,-2.159c0.09,-1.186 0.886,-2.191 2.221,-2.191c1.261,-0 2.176,0.975 2.236,2.191l-4.457,0Z" fill-rule="nonzero"/><path d="M486.645,117.727c0.075,1.92 1.544,2.624 3.284,2.624c1.576,-0 3.299,-0.599 3.299,-2.444c0,-1.501 -1.258,-1.921 -2.533,-2.206c-1.186,-0.285 -2.537,-0.435 -2.537,-1.35c0,-0.78 0.886,-0.99 1.651,-0.99c0.841,-0 1.711,0.315 1.801,1.305l1.273,-0c-0.104,-1.89 -1.468,-2.429 -3.179,-2.429c-1.35,0 -2.894,0.644 -2.894,2.204c0,1.485 1.274,1.905 2.534,2.191c1.276,0.285 2.536,0.45 2.536,1.44c0,0.975 -1.08,1.155 -1.876,1.155c-1.05,0 -2.041,-0.36 -2.086,-1.5l-1.273,-0Z" fill-rule="nonzero"/><path d="M389,123.5l133,-0" fill="none" stroke="#6f6f6f" stroke-width="1px" stroke-miterlimit="1"/><path d="M403.348,126.462l-1.423,0l0,7.83c0,1.185 -0.405,1.935 -1.711,1.935c-1.395,0 -1.726,-0.885 -1.726,-2.13l0,-0.45l-1.423,0l0,0.66c0,2.01 1.124,3.119 3.119,3.119c2.4,-0 3.164,-1.469 3.164,-2.924l0,-8.04Z" fill-rule="nonzero"/><path d="M405.06,133.301c0,2.266 1.303,4.05 3.764,4.05c2.461,-0 3.764,-1.784 3.764,-4.05c0,-2.28 -1.303,-4.064 -3.764,-4.064c-2.461,0 -3.764,1.784 -3.764,4.064Zm1.348,0c0,-1.89 1.081,-2.94 2.416,-2.94c1.336,-0 2.416,1.05 2.416,2.94c0,1.876 -1.08,2.926 -2.416,2.926c-1.335,0 -2.416,-1.05 -2.416,-2.926Z" fill-rule="nonzero"/><path d="M420.135,133.226c0,1.516 -0.585,3.001 -2.326,3.001c-1.755,0 -2.445,-1.41 -2.445,-2.941c-0,-1.455 0.66,-2.925 2.37,-2.925c1.651,-0 2.401,1.41 2.401,2.865Zm-6,3.945l1.273,-0l0,-1.034l0.03,0c0.571,0.914 1.711,1.214 2.506,1.214c2.371,-0 3.539,-1.844 3.539,-4.035c0,-2.19 -1.183,-4.079 -3.569,-4.079c-1.065,0 -2.055,0.375 -2.476,1.229l-0.03,-0l0,-4.004l-1.273,0l0,10.709Z" fill-rule="nonzero"/><path d="M426.735,133.301c0,2.266 1.303,4.05 3.764,4.05c2.461,-0 3.764,-1.784 3.764,-4.05c0,-2.28 -1.303,-4.064 -3.764,-4.064c-2.461,0 -3.764,1.784 -3.764,4.064Zm1.348,0c0,-1.89 1.081,-2.94 2.416,-2.94c1.336,-0 2.416,1.05 2.416,2.94c0,1.876 -1.08,2.926 -2.416,2.926c-1.335,0 -2.416,-1.05 -2.416,-2.926Z" fill-rule="nonzero"/><path d="M441.81,133.226c0,1.516 -0.585,3.001 -2.326,3.001c-1.755,0 -2.445,-1.41 -2.445,-2.941c-0,-1.455 0.66,-2.925 2.37,-2.925c1.651,-0 2.401,1.41 2.401,2.865Zm-6,6.915l1.273,-0l0,-4.004l0.03,0c0.571,0.914 1.711,1.214 2.506,1.214c2.371,-0 3.539,-1.844 3.539,-4.035c0,-2.19 -1.183,-4.079 -3.569,-4.079c-1.065,0 -2.055,0.375 -2.476,1.229l-0.03,-0l0,-1.049l-1.273,0l0,10.724Z" fill-rule="nonzero"/><path d="M450.705,133.226c0,1.516 -0.585,3.001 -2.326,3.001c-1.755,0 -2.445,-1.41 -2.445,-2.941c-0,-1.455 0.66,-2.925 2.37,-2.925c1.651,-0 2.401,1.41 2.401,2.865Zm-6,6.915l1.273,-0l0,-4.004l0.03,0c0.571,0.914 1.711,1.214 2.506,1.214c2.371,-0 3.539,-1.844 3.539,-4.035c0,-2.19 -1.183,-4.079 -3.569,-4.079c-1.065,0 -2.055,0.375 -2.476,1.229l-0.03,-0l0,-1.049l-1.273,0l0,10.724Z" fill-rule="nonzero"/><path d="M453.135,133.301c0,2.266 1.303,4.05 3.764,4.05c2.461,-0 3.764,-1.784 3.764,-4.05c0,-2.28 -1.303,-4.064 -3.764,-4.064c-2.461,0 -3.764,1.784 -3.764,4.064Zm1.348,0c0,-1.89 1.081,-2.94 2.416,-2.94c1.336,-0 2.416,1.05 2.416,2.94c0,1.876 -1.08,2.926 -2.416,2.926c-1.335,0 -2.416,-1.05 -2.416,-2.926Z" fill-rule="nonzero"/><path d="M462.12,137.171l1.273,-0l0,-3.45c0,-1.965 0.75,-3.135 2.805,-3.135l0,-1.349c-1.38,-0.045 -2.235,0.57 -2.849,1.814l-0.03,-0l-0,-1.634l-1.199,0l0,7.754Z" fill-rule="nonzero"/><path d="M468.928,127.092l-1.273,0l0,2.325l-1.32,0l0,1.124l1.32,-0l0,4.936c0,1.424 0.525,1.694 1.843,1.694l0.975,-0l0,-1.124l-0.585,0c-0.795,0 -0.96,-0.105 -0.96,-0.69l0,-4.816l1.545,-0l0,-1.124l-1.545,0l0,-2.325Z" fill-rule="nonzero"/><path d="M478.303,129.417l-1.273,0l0,4.38c0,1.395 -0.75,2.43 -2.296,2.43c-0.975,0 -1.576,-0.615 -1.576,-1.56l0,-5.25l-1.273,0l0,5.1c0,1.665 0.629,2.834 2.669,2.834c1.111,-0 1.981,-0.45 2.521,-1.409l0.03,0l0,1.229l1.198,-0l0,-7.754Z" fill-rule="nonzero"/><path d="M480.225,137.171l1.273,-0l0,-4.38c0,-1.395 0.751,-2.43 2.297,-2.43c0.975,-0 1.575,0.615 1.575,1.56l0,5.25l1.273,-0l0,-5.1c0,-1.665 -0.629,-2.834 -2.668,-2.834c-1.111,0 -1.981,0.45 -2.521,1.409l-0.03,-0l-0,-1.229l-1.199,0l0,7.754Z" fill-rule="nonzero"/><path d="M488.64,137.171l1.273,-0l0,-7.754l-1.273,0l0,7.754Zm1.273,-10.709l-1.273,0l0,1.559l1.273,-0l0,-1.559Z" fill-rule="nonzero"/><path d="M493.663,127.092l-1.273,0l0,2.325l-1.32,0l0,1.124l1.32,-0l0,4.936c0,1.424 0.525,1.694 1.843,1.694l0.975,-0l0,-1.124l-0.585,0c-0.795,0 -0.96,-0.105 -0.96,-0.69l0,-4.816l1.545,-0l0,-1.124l-1.545,0l0,-2.325Z" fill-rule="nonzero"/><path d="M496.695,137.171l1.273,-0l0,-7.754l-1.273,0l0,7.754Zm1.273,-10.709l-1.273,0l0,1.559l1.273,-0l0,-1.559Z" fill-rule="nonzero"/><path d="M505.305,134.711c-0.225,1.006 -0.96,1.516 -2.011,1.516c-1.695,0 -2.461,-1.2 -2.416,-2.551l5.805,-0c0.075,-1.874 -0.764,-4.439 -3.509,-4.439c-2.115,0 -3.644,1.709 -3.644,4.034c0.075,2.371 1.244,4.08 3.719,4.08c1.741,-0 2.97,-0.929 3.315,-2.64l-1.259,0Zm-4.427,-2.159c0.09,-1.186 0.886,-2.191 2.221,-2.191c1.261,-0 2.176,0.975 2.236,2.191l-4.457,0Z" fill-rule="nonzero"/><path d="M507.51,134.727c0.075,1.92 1.544,2.624 3.284,2.624c1.576,-0 3.299,-0.599 3.299,-2.444c0,-1.501 -1.258,-1.921 -2.533,-2.206c-1.186,-0.285 -2.537,-0.435 -2.537,-1.35c0,-0.78 0.886,-0.99 1.651,-0.99c0.841,-0 1.711,0.315 1.801,1.305l1.273,-0c-0.104,-1.89 -1.468,-2.429 -3.179,-2.429c-1.35,0 -2.894,0.644 -2.894,2.204c0,1.485 1.274,1.905 2.534,2.191c1.276,0.285 2.536,0.45 2.536,1.44c0,0.975 -1.08,1.155 -1.876,1.155c-1.05,0 -2.041,-0.36 -2.086,-1.5l-1.273,-0Z" fill-rule="nonzero"/><path d="M389,141.5l133,0" fill="none" stroke="#6f6f6f" stroke-width="1px" stroke-miterlimit="1"/><path d="M406.859,148.141c-0.33,-2.28 -2.174,-3.478 -4.41,-3.478c-3.3,-0 -5.069,2.533 -5.069,5.639c0,3.12 1.618,5.579 4.949,5.579c2.701,-0 4.365,-1.618 4.634,-4.289l-1.423,-0c-0.135,1.77 -1.215,3.091 -3.091,3.091c-2.565,-0 -3.646,-2.041 -3.646,-4.486c0,-2.236 1.081,-4.336 3.631,-4.336c1.486,-0 2.701,0.765 3.001,2.28l1.424,0Z" fill-rule="nonzero"/><path d="M408.105,151.757c0,2.265 1.303,4.049 3.764,4.049c2.461,-0 3.764,-1.784 3.764,-4.049c0,-2.281 -1.303,-4.064 -3.764,-4.064c-2.461,-0 -3.764,1.783 -3.764,4.064Zm1.348,-0c0,-1.891 1.081,-2.941 2.416,-2.941c1.336,-0 2.416,1.05 2.416,2.941c0,1.875 -1.08,2.926 -2.416,2.926c-1.335,-0 -2.416,-1.051 -2.416,-2.926Z" fill-rule="nonzero"/><path d="M417.135,155.626l1.273,-0l0,-4.38c0,-1.395 0.751,-2.43 2.297,-2.43c0.975,-0 1.575,0.615 1.575,1.56l0,5.25l1.273,-0l0,-5.1c0,-1.665 -0.629,-2.833 -2.668,-2.833c-1.111,-0 -1.981,0.449 -2.521,1.408l-0.03,-0l-0,-1.228l-1.199,-0l0,7.753Z" fill-rule="nonzero"/><path d="M427.243,145.548l-1.273,-0l0,2.325l-1.32,-0l0,1.123l1.32,-0l0,4.936c0,1.424 0.525,1.694 1.843,1.694l0.975,-0l0,-1.123l-0.585,-0c-0.795,-0 -0.96,-0.105 -0.96,-0.691l0,-4.816l1.545,-0l0,-1.123l-1.545,-0l0,-2.325Z" fill-rule="nonzero"/><path d="M435,152.927c0,0.705 -0.69,1.756 -2.371,1.756c-0.78,-0 -1.501,-0.3 -1.501,-1.141c0,-0.945 0.721,-1.245 1.561,-1.395c0.856,-0.15 1.816,-0.165 2.311,-0.525l0,1.305Zm2.068,1.681c-0.165,0.06 -0.285,0.075 -0.39,0.075c-0.405,-0 -0.405,-0.27 -0.405,-0.871l0,-3.991c0,-1.814 -1.513,-2.128 -2.908,-2.128c-1.726,-0 -3.21,0.673 -3.285,2.593l1.273,0c0.06,-1.14 0.856,-1.47 1.936,-1.47c0.811,-0 1.726,0.18 1.726,1.29c0,0.96 -1.2,0.87 -2.611,1.141c-1.321,0.255 -2.624,0.63 -2.624,2.385c0,1.545 1.154,2.174 2.564,2.174c1.081,-0 2.026,-0.375 2.731,-1.198c0,0.838 0.42,1.198 1.079,1.198c0.404,-0 0.689,-0.075 0.914,-0.21l0,-0.988Z" fill-rule="nonzero"/><path d="M444.838,150.361c-0.18,-1.845 -1.59,-2.668 -3.345,-2.668c-2.459,-0 -3.658,1.828 -3.658,4.154c0,2.31 1.259,3.959 3.628,3.959c1.95,-0 3.135,-1.123 3.42,-3.014l-1.305,-0c-0.165,1.17 -0.9,1.891 -2.13,1.891c-1.62,-0 -2.265,-1.411 -2.265,-2.836c0,-1.576 0.57,-3.031 2.415,-3.031c1.05,-0 1.725,0.57 1.92,1.545l1.32,0Z" fill-rule="nonzero"/><path d="M448.078,145.548l-1.273,-0l0,2.325l-1.32,-0l0,1.123l1.32,-0l0,4.936c0,1.424 0.525,1.694 1.843,1.694l0.975,-0l0,-1.123l-0.585,-0c-0.795,-0 -0.96,-0.105 -0.96,-0.691l0,-4.816l1.545,-0l0,-1.123l-1.545,-0l0,-2.325Z" fill-rule="nonzero"/><path d="M522,70l-0,90l-133,0l-0,-90l133,0Zm-1,1l-131,-0c-0,-0 -0,88 0,88l131,0l0,-88Z" fill="#6f6f6f"/><path d="M472.118,57.016c-0,2.911 1.723,5.61 5.129,5.61c3.406,-0 5.129,-2.699 5.129,-5.61c-0,-2.91 -1.723,-5.609 -5.129,-5.609c-3.406,0 -5.129,2.699 -5.129,5.609Zm1.423,0c-0,-2.16 1.095,-4.41 3.706,-4.41c2.611,-0 3.706,2.25 3.706,4.41c-0,2.161 -1.095,4.411 -3.706,4.411c-2.611,0 -3.706,-2.25 -3.706,-4.411Z" fill-rule="nonzero"/><path d="M490.326,54.617l-1.273,0l-0,4.38c-0,1.395 -0.751,2.43 -2.296,2.43c-0.976,0 -1.576,-0.615 -1.576,-1.56l-0,-5.25l-1.273,0l-0,5.1c-0,1.665 0.629,2.834 2.669,2.834c1.11,-0 1.981,-0.45 2.521,-1.409l0.03,0l-0,1.229l1.198,-0l-0,-7.754Z" fill-rule="nonzero"/><path d="M492.203,62.371l1.273,-0l-0,-3.45c-0,-1.965 0.75,-3.135 2.805,-3.135l-0,-1.349c-1.38,-0.045 -2.235,0.57 -2.85,1.814l-0.03,-0l0,-1.634l-1.198,0l-0,7.754Z" fill-rule="nonzero"/><path d="M507.458,58.426c-0,1.516 -0.585,3.001 -2.326,3.001c-1.756,0 -2.446,-1.41 -2.446,-2.941c0,-1.455 0.66,-2.925 2.371,-2.925c1.651,-0 2.401,1.41 2.401,2.865Zm-6,6.915l1.273,-0l-0,-4.004l0.03,0c0.57,0.914 1.711,1.214 2.506,1.214c2.371,-0 3.539,-1.844 3.539,-4.035c-0,-2.19 -1.183,-4.079 -3.569,-4.079c-1.065,0 -2.056,0.375 -2.476,1.229l-0.03,-0l-0,-1.049l-1.273,0l-0,10.724Z" fill-rule="nonzero"/><path d="M509.888,58.501c-0,2.266 1.303,4.05 3.764,4.05c2.461,-0 3.764,-1.784 3.764,-4.05c-0,-2.28 -1.303,-4.064 -3.764,-4.064c-2.461,0 -3.764,1.784 -3.764,4.064Zm1.348,0c-0,-1.89 1.08,-2.94 2.416,-2.94c1.335,-0 2.416,1.05 2.416,2.94c-0,1.876 -1.081,2.926 -2.416,2.926c-1.336,0 -2.416,-1.05 -2.416,-2.926Z" fill-rule="nonzero"/><path d="M518.873,62.371l1.273,-0l-0,-3.45c-0,-1.965 0.75,-3.135 2.805,-3.135l-0,-1.349c-1.38,-0.045 -2.235,0.57 -2.85,1.814l-0.03,-0l0,-1.634l-1.198,0l-0,7.754Z" fill-rule="nonzero"/><path d="M525.681,52.292l-1.273,0l-0,2.325l-1.32,0l-0,1.124l1.32,-0l-0,4.936c-0,1.424 0.524,1.694 1.843,1.694l0.975,-0l-0,-1.124l-0.585,0c-0.795,0 -0.96,-0.105 -0.96,-0.69l-0,-4.816l1.545,-0l-0,-1.124l-1.545,0l-0,-2.325Z" fill-rule="nonzero"/><path d="M529.163,62.371l1.273,-0l-0,-6.63l1.5,-0l-0,-1.124l-1.5,0l-0,-1.081c-0,-0.675 0.36,-0.87 0.975,-0.87c0.225,-0 0.495,0.03 0.72,0.105l-0,-1.109c-0.24,-0.075 -0.585,-0.12 -0.825,-0.12c-1.394,0 -2.143,0.659 -2.143,1.919l-0,1.156l-1.305,0l-0,1.124l1.305,-0l-0,6.63Z" fill-rule="nonzero"/><path d="M532.658,58.501c-0,2.266 1.303,4.05 3.764,4.05c2.461,-0 3.764,-1.784 3.764,-4.05c-0,-2.28 -1.303,-4.064 -3.764,-4.064c-2.461,0 -3.764,1.784 -3.764,4.064Zm1.348,0c-0,-1.89 1.08,-2.94 2.416,-2.94c1.335,-0 2.416,1.05 2.416,2.94c-0,1.876 -1.081,2.926 -2.416,2.926c-1.336,0 -2.416,-1.05 -2.416,-2.926Z" fill-rule="nonzero"/><rect x="541.763" y="51.662" width="1.273" height="10.708" fill-rule="nonzero"/><path d="M545.093,62.371l1.273,-0l-0,-7.754l-1.273,0l-0,7.754Zm1.273,-10.709l-1.273,0l-0,1.559l1.273,-0l-0,-1.559Z" fill-rule="nonzero"/><path d="M547.928,58.501c-0,2.266 1.303,4.05 3.764,4.05c2.461,-0 3.764,-1.784 3.764,-4.05c-0,-2.28 -1.303,-4.064 -3.764,-4.064c-2.461,0 -3.764,1.784 -3.764,4.064Zm1.348,0c-0,-1.89 1.08,-2.94 2.416,-2.94c1.335,-0 2.416,1.05 2.416,2.94c-0,1.876 -1.081,2.926 -2.416,2.926c-1.336,0 -2.416,-1.05 -2.416,-2.926Z" fill-rule="nonzero"/><g transform="matrix(1,0,0,1,383.501,-95.4682)"><path d="M0.129,-0.458c-0.003,-0.085 0.039,-0.176 0.138,-0.176c0.075,-0 0.137,0.051 0.137,0.128c0,0.098 -0.061,0.142 -0.181,0.216c-0.1,0.062 -0.185,0.122 -0.199,0.29l0.463,-0l-0,-0.075l-0.364,0c0.017,-0.088 0.11,-0.133 0.199,-0.187c0.088,-0.055 0.172,-0.118 0.172,-0.243c-0,-0.132 -0.098,-0.204 -0.222,-0.204c-0.15,0 -0.235,0.107 -0.228,0.251l0.085,-0Z" fill-rule="nonzero" transform="matrix(12,0,0,12,154.499,213.245)"/><path d="M0.419,-0.709l-0.068,0l-0.323,0.461l0,0.082l0.311,-0l0,0.166l0.08,-0l-0,-0.166l0.096,-0l-0,-0.075l-0.096,0l-0,-0.468Zm-0.318,0.468l0.236,-0.347l0.002,0l0,0.347l-0.238,0Z" fill-rule="nonzero" transform="matrix(12,0,0,12,161.171,213.245)"/><path d="M0.467,-0.263c0,0.101 -0.039,0.2 -0.155,0.2c-0.117,0 -0.163,-0.094 -0.163,-0.196c-0,-0.097 0.044,-0.195 0.158,-0.195c0.11,-0 0.16,0.094 0.16,0.191Zm-0.4,0.461l0.085,-0l-0,-0.267l0.002,0c0.038,0.061 0.114,0.081 0.167,0.081c0.158,-0 0.236,-0.123 0.236,-0.269c-0,-0.146 -0.079,-0.272 -0.238,-0.272c-0.071,0 -0.137,0.025 -0.165,0.082l-0.002,-0l-0,-0.07l-0.085,0l0,0.715Z" fill-rule="nonzero" transform="matrix(12,0,0,12,167.843,213.245)"/><path d="M0.009,-0l0.103,-0l0.144,-0.215l0.144,0.215l0.109,-0l-0.2,-0.28l0.178,-0.237l-0.102,0l-0.129,0.18l-0.124,-0.18l-0.109,0l0.18,0.245l-0.194,0.272Z" fill-rule="nonzero" transform="matrix(12,0,0,12,174.959,213.245)"/><path d="M0.069,-0l0.085,-0l-0,-0.517l-0.085,0l0,0.517Zm0.085,-0.714l-0.085,0l0,0.104l0.085,-0l-0,-0.104Z" fill="#ac2020" fill-rule="nonzero" transform="matrix(12,0,0,12,184.511,213.245)"/><path d="M0.064,-0l0.085,-0l-0,-0.292c-0,-0.093 0.05,-0.162 0.153,-0.162c0.065,-0 0.105,0.041 0.105,0.104l0,0.35l0.085,-0l-0,-0.34c-0,-0.111 -0.042,-0.189 -0.178,-0.189c-0.074,0 -0.132,0.03 -0.168,0.094l-0.002,-0l-0,-0.082l-0.08,0l0,0.517Z" fill="#ac2020" fill-rule="nonzero" transform="matrix(12,0,0,12,187.175,213.245)"/><path d="M0.182,-0.672l-0.085,0l0,0.155l-0.088,0l0,0.075l0.088,-0l0,0.329c0,0.095 0.035,0.113 0.123,0.113l0.065,-0l-0,-0.075l-0.039,0c-0.053,0 -0.064,-0.007 -0.064,-0.046l-0,-0.321l0.103,-0l-0,-0.075l-0.103,0l-0,-0.155Z" fill="#ac2020" fill-rule="nonzero" transform="matrix(12,0,0,12,193.847,213.245)"/><path d="M0.421,-0.164c-0.015,0.067 -0.064,0.101 -0.134,0.101c-0.113,0 -0.164,-0.08 -0.161,-0.17l0.387,-0c0.005,-0.125 -0.051,-0.296 -0.234,-0.296c-0.141,0 -0.243,0.114 -0.243,0.269c0.005,0.158 0.083,0.272 0.248,0.272c0.116,-0 0.198,-0.062 0.221,-0.176l-0.084,-0Zm-0.295,-0.144c0.006,-0.079 0.059,-0.146 0.148,-0.146c0.084,-0 0.145,0.065 0.149,0.146l-0.297,0Z" fill="#ac2020" fill-rule="nonzero" transform="matrix(12,0,0,12,197.627,213.245)"/><path d="M0.061,-0l0.085,-0l-0,-0.23c-0,-0.131 0.05,-0.209 0.187,-0.209l-0,-0.09c-0.092,-0.003 -0.149,0.038 -0.19,0.121l-0.002,-0l-0,-0.109l-0.08,0l0,0.517Z" fill="#ac2020" fill-rule="nonzero" transform="matrix(12,0,0,12,204.071,213.245)"/><path d="M0.031,-0.163c0.005,0.128 0.103,0.175 0.219,0.175c0.105,-0 0.22,-0.04 0.22,-0.163c-0,-0.1 -0.084,-0.128 -0.169,-0.147c-0.079,-0.019 -0.169,-0.029 -0.169,-0.09c-0,-0.052 0.059,-0.066 0.11,-0.066c0.056,-0 0.114,0.021 0.12,0.087l0.085,-0c-0.007,-0.126 -0.098,-0.162 -0.212,-0.162c-0.09,0 -0.193,0.043 -0.193,0.147c0,0.099 0.085,0.127 0.169,0.146c0.085,0.019 0.169,0.03 0.169,0.096c0,0.065 -0.072,0.077 -0.125,0.077c-0.07,0 -0.136,-0.024 -0.139,-0.1l-0.085,0Z" fill="#ac2020" fill-rule="nonzero" transform="matrix(12,0,0,12,208.067,213.245)"/><path d="M0.421,-0.164c-0.015,0.067 -0.064,0.101 -0.134,0.101c-0.113,0 -0.164,-0.08 -0.161,-0.17l0.387,-0c0.005,-0.125 -0.051,-0.296 -0.234,-0.296c-0.141,0 -0.243,0.114 -0.243,0.269c0.005,0.158 0.083,0.272 0.248,0.272c0.116,-0 0.198,-0.062 0.221,-0.176l-0.084,-0Zm-0.295,-0.144c0.006,-0.079 0.059,-0.146 0.148,-0.146c0.084,-0 0.145,0.065 0.149,0.146l-0.297,0Z" fill="#ac2020" fill-rule="nonzero" transform="matrix(12,0,0,12,214.067,213.245)"/><path d="M0.503,-0.351c-0.012,-0.123 -0.106,-0.178 -0.223,-0.178c-0.164,0 -0.244,0.122 -0.244,0.277c0,0.154 0.084,0.264 0.242,0.264c0.13,-0 0.209,-0.075 0.228,-0.201l-0.087,0c-0.011,0.078 -0.06,0.126 -0.142,0.126c-0.108,0 -0.151,-0.094 -0.151,-0.189c-0,-0.105 0.038,-0.202 0.161,-0.202c0.07,-0 0.115,0.038 0.128,0.103l0.088,-0Z" fill="#ac2020" fill-rule="nonzero" transform="matrix(12,0,0,12,220.511,213.245)"/><path d="M0.182,-0.672l-0.085,0l0,0.155l-0.088,0l0,0.075l0.088,-0l0,0.329c0,0.095 0.035,0.113 0.123,0.113l0.065,-0l-0,-0.075l-0.039,0c-0.053,0 -0.064,-0.007 -0.064,-0.046l-0,-0.321l0.103,-0l-0,-0.075l-0.103,0l-0,-0.155Z" fill="#ac2020" fill-rule="nonzero" transform="matrix(12,0,0,12,226.955,213.245)"/><path d="M0.031,-0.163c0.005,0.128 0.103,0.175 0.219,0.175c0.105,-0 0.22,-0.04 0.22,-0.163c-0,-0.1 -0.084,-0.128 -0.169,-0.147c-0.079,-0.019 -0.169,-0.029 -0.169,-0.09c-0,-0.052 0.059,-0.066 0.11,-0.066c0.056,-0 0.114,0.021 0.12,0.087l0.085,-0c-0.007,-0.126 -0.098,-0.162 -0.212,-0.162c-0.09,0 -0.193,0.043 -0.193,0.147c0,0.099 0.085,0.127 0.169,0.146c0.085,0.019 0.169,0.03 0.169,0.096c0,0.065 -0.072,0.077 -0.125,0.077c-0.07,0 -0.136,-0.024 -0.139,-0.1l-0.085,0Z" fill="#ac2020" fill-rule="nonzero" transform="matrix(12,0,0,12,230.735,213.245)"/><path d="M0.182,-0.672l-0.085,0l0,0.155l-0.088,0l0,0.075l0.088,-0l0,0.329c0,0.095 0.035,0.113 0.123,0.113l0.065,-0l-0,-0.075l-0.039,0c-0.053,0 -0.064,-0.007 -0.064,-0.046l-0,-0.321l0.103,-0l-0,-0.075l-0.103,0l-0,-0.155Z" fill="#ac2020" fill-rule="nonzero" transform="matrix(12,0,0,12,240.071,213.245)"/><path d="M0.384,-0.18c0,0.047 -0.046,0.117 -0.158,0.117c-0.052,0 -0.1,-0.02 -0.1,-0.076c-0,-0.063 0.048,-0.083 0.104,-0.093c0.057,-0.01 0.121,-0.011 0.154,-0.035l0,0.087Zm0.138,0.112c-0.011,0.004 -0.019,0.005 -0.026,0.005c-0.027,0 -0.027,-0.018 -0.027,-0.058l-0,-0.266c-0,-0.121 -0.101,-0.142 -0.194,-0.142c-0.115,0 -0.214,0.045 -0.219,0.173l0.085,-0c0.004,-0.076 0.057,-0.098 0.129,-0.098c0.054,-0 0.115,0.012 0.115,0.086c0,0.064 -0.08,0.058 -0.174,0.076c-0.088,0.017 -0.175,0.042 -0.175,0.159c0,0.103 0.077,0.145 0.171,0.145c0.072,-0 0.135,-0.025 0.182,-0.08c0,0.056 0.028,0.08 0.072,0.08c0.027,-0 0.046,-0.005 0.061,-0.014l-0,-0.066Z" fill="#ac2020" fill-rule="nonzero" transform="matrix(12,0,0,12,243.851,213.245)"/><path d="M0.061,-0l0.085,-0l-0,-0.23c-0,-0.131 0.05,-0.209 0.187,-0.209l-0,-0.09c-0.092,-0.003 -0.149,0.038 -0.19,0.121l-0.002,-0l-0,-0.109l-0.08,0l0,0.517Z" fill="#ac2020" fill-rule="nonzero" transform="matrix(12,0,0,12,250.295,213.245)"/><path d="M0.272,-0.069c-0.112,0 -0.146,-0.104 -0.146,-0.197c-0,-0.099 0.044,-0.188 0.153,-0.188c0.107,-0 0.147,0.094 0.147,0.185c0,0.097 -0.042,0.2 -0.154,0.2Zm0.238,-0.448l-0.08,0l0,0.074l-0.001,-0c-0.031,-0.057 -0.089,-0.086 -0.154,-0.086c-0.179,0 -0.239,0.151 -0.239,0.273c0,0.141 0.077,0.262 0.231,0.262c0.065,-0 0.133,-0.031 0.161,-0.094l0.002,0l0,0.034c0,0.116 -0.044,0.196 -0.155,0.196c-0.056,0 -0.13,-0.022 -0.134,-0.084l-0.085,-0c0.005,0.113 0.117,0.152 0.214,0.152c0.163,-0 0.24,-0.086 0.24,-0.254l-0,-0.473Z" fill="#ac2020" fill-rule="nonzero" transform="matrix(12,0,0,12,253.955,213.245)"/><path d="M0.421,-0.164c-0.015,0.067 -0.064,0.101 -0.134,0.101c-0.113,0 -0.164,-0.08 -0.161,-0.17l0.387,-0c0.005,-0.125 -0.051,-0.296 -0.234,-0.296c-0.141,0 -0.243,0.114 -0.243,0.269c0.005,0.158 0.083,0.272 0.248,0.272c0.116,-0 0.198,-0.062 0.221,-0.176l-0.084,-0Zm-0.295,-0.144c0.006,-0.079 0.059,-0.146 0.148,-0.146c0.084,-0 0.145,0.065 0.149,0.146l-0.297,0Z" fill="#ac2020" fill-rule="nonzero" transform="matrix(12,0,0,12,260.843,213.245)"/><path d="M0.182,-0.672l-0.085,0l0,0.155l-0.088,0l0,0.075l0.088,-0l0,0.329c0,0.095 0.035,0.113 0.123,0.113l0.065,-0l-0,-0.075l-0.039,0c-0.053,0 -0.064,-0.007 -0.064,-0.046l-0,-0.321l0.103,-0l-0,-0.075l-0.103,0l-0,-0.155Z" fill="#ac2020" fill-rule="nonzero" transform="matrix(12,0,0,12,267.287,213.245)"/><path d="M0.031,-0.163c0.005,0.128 0.103,0.175 0.219,0.175c0.105,-0 0.22,-0.04 0.22,-0.163c-0,-0.1 -0.084,-0.128 -0.169,-0.147c-0.079,-0.019 -0.169,-0.029 -0.169,-0.09c-0,-0.052 0.059,-0.066 0.11,-0.066c0.056,-0 0.114,0.021 0.12,0.087l0.085,-0c-0.007,-0.126 -0.098,-0.162 -0.212,-0.162c-0.09,0 -0.193,0.043 -0.193,0.147c0,0.099 0.085,0.127 0.169,0.146c0.085,0.019 0.169,0.03 0.169,0.096c0,0.065 -0.072,0.077 -0.125,0.077c-0.07,0 -0.136,-0.024 -0.139,-0.1l-0.085,0Z" fill="#ac2020" fill-rule="nonzero" transform="matrix(12,0,0,12,271.067,213.245)"/><rect x="184.511" y="214.145" width="92.556" height="0.6" fill="#ac2020"/></g><path d="M535.5,103.5l-8,-0" fill="none" stroke="#000" stroke-width="1px"/><path d="M535.5,126.5l-8,-0" fill="none" stroke="#000" stroke-width="1px"/><path d="M531.5,103.5l-0,23" fill="none" stroke="#000" stroke-width="1px" stroke-miterlimit="1"/><circle cx="454.002" cy="115" r="12" fill="#ca2626" fill-opacity=".2"/><path d="M454.002,103c6.623,0 12,5.377 12,12c0,6.623 -5.377,12 -12,12c-6.623,0 -12,-5.377 -12,-12c0,-6.623 5.377,-12 12,-12Zm0,1c-6.071,0 -11,4.929 -11,11c0,6.071 4.929,11 11,11c6.071,0 11,-4.929 11,-11c0,-6.071 -4.929,-11 -11,-11Z" fill="#ca2626"/></g></svg>