<svg viewBox="0 0 460 320" xmlns="http://www.w3.org/2000/svg" xml:space="preserve" fill-rule="evenodd" clip-rule="evenodd" stroke-miterlimit="1"><rect width="460" height="320" fill="none"/><clipPath id="a"><rect width="460" height="320"/></clipPath><g clip-path="url(#a)"><rect x="-0" y="-0" width="460" height="320" fill="#fff"/><path d="M10,162.5l440,-0" fill="none" stroke="#ddd" stroke-width="1px"/><path d="M129.5,45.5l-8,-0" fill="none" stroke="#000" stroke-width="1px" stroke-miterlimit="10"/><path d="M129.5,68.5l-8,-0" fill="none" stroke="#000" stroke-width="1px" stroke-miterlimit="10"/><path d="M125.5,45.5l-0,23" fill="none" stroke="#000" stroke-width="1px"/><path d="M91.5,31.5l-0,8" fill="none" stroke="#000" stroke-width="1px" stroke-miterlimit="10"/><path d="M114.5,31.5l-0,8" fill="none" stroke="#000" stroke-width="1px" stroke-miterlimit="10"/><path d="M91.5,35.5l23,0" fill="none" stroke="#000" stroke-width="1px"/><g transform="matrix(1,0,0,1,-22.5375,-152.468)"><path d="M0.129,-0.458c-0.003,-0.085 0.039,-0.176 0.138,-0.176c0.075,-0 0.137,0.051 0.137,0.128c0,0.098 -0.061,0.142 -0.181,0.216c-0.1,0.062 -0.185,0.122 -0.199,0.29l0.463,-0l-0,-0.075l-0.364,0c0.017,-0.088 0.11,-0.133 0.199,-0.187c0.088,-0.055 0.172,-0.118 0.172,-0.243c-0,-0.132 -0.098,-0.204 -0.222,-0.204c-0.15,0 -0.235,0.107 -0.228,0.251l0.085,-0Z" fill="#196721" fill-rule="nonzero" transform="matrix(12,0,0,12,154.861,213.245)"/><path d="M0.419,-0.709l-0.068,0l-0.323,0.461l0,0.082l0.311,-0l0,0.166l0.08,-0l-0,-0.166l0.096,-0l-0,-0.075l-0.096,0l-0,-0.468Zm-0.318,0.468l0.236,-0.347l0.002,0l0,0.347l-0.238,0Z" fill="#196721" fill-rule="nonzero" transform="matrix(12,0,0,12,161.533,213.245)"/><path d="M0.467,-0.263c0,0.101 -0.039,0.2 -0.155,0.2c-0.117,0 -0.163,-0.094 -0.163,-0.196c-0,-0.097 0.044,-0.195 0.158,-0.195c0.11,-0 0.16,0.094 0.16,0.191Zm-0.4,0.461l0.085,-0l-0,-0.267l0.002,0c0.038,0.061 0.114,0.081 0.167,0.081c0.158,-0 0.236,-0.123 0.236,-0.269c-0,-0.146 -0.079,-0.272 -0.238,-0.272c-0.071,0 -0.137,0.025 -0.165,0.082l-0.002,-0l-0,-0.07l-0.085,0l0,0.715Z" fill="#196721" fill-rule="nonzero" transform="matrix(12,0,0,12,168.205,213.245)"/><path d="M0.009,-0l0.103,-0l0.144,-0.215l0.144,0.215l0.109,-0l-0.2,-0.28l0.178,-0.237l-0.102,0l-0.129,0.18l-0.124,-0.18l-0.109,0l0.18,0.245l-0.194,0.272Z" fill="#196721" fill-rule="nonzero" transform="matrix(12,0,0,12,175.321,213.245)"/><rect x="154.861" y="214.145" width="26.676" height="0.6" fill="#196721"/></g><g transform="matrix(1,0,0,1,-65.2266,-187.677)"><path d="M0.129,-0.458c-0.003,-0.085 0.039,-0.176 0.138,-0.176c0.075,-0 0.137,0.051 0.137,0.128c0,0.098 -0.061,0.142 -0.181,0.216c-0.1,0.062 -0.185,0.122 -0.199,0.29l0.463,-0l-0,-0.075l-0.364,0c0.017,-0.088 0.11,-0.133 0.199,-0.187c0.088,-0.055 0.172,-0.118 0.172,-0.243c-0,-0.132 -0.098,-0.204 -0.222,-0.204c-0.15,0 -0.235,0.107 -0.228,0.251l0.085,-0Z" fill="#196721" fill-rule="nonzero" transform="matrix(12,0,0,12,155.078,213.245)"/><path d="M0.419,-0.709l-0.068,0l-0.323,0.461l0,0.082l0.311,-0l0,0.166l0.08,-0l-0,-0.166l0.096,-0l-0,-0.075l-0.096,0l-0,-0.468Zm-0.318,0.468l0.236,-0.347l0.002,0l0,0.347l-0.238,0Z" fill="#196721" fill-rule="nonzero" transform="matrix(12,0,0,12,161.75,213.245)"/><path d="M0.467,-0.263c0,0.101 -0.039,0.2 -0.155,0.2c-0.117,0 -0.163,-0.094 -0.163,-0.196c-0,-0.097 0.044,-0.195 0.158,-0.195c0.11,-0 0.16,0.094 0.16,0.191Zm-0.4,0.461l0.085,-0l-0,-0.267l0.002,0c0.038,0.061 0.114,0.081 0.167,0.081c0.158,-0 0.236,-0.123 0.236,-0.269c-0,-0.146 -0.079,-0.272 -0.238,-0.272c-0.071,0 -0.137,0.025 -0.165,0.082l-0.002,-0l-0,-0.07l-0.085,0l0,0.715Z" fill="#196721" fill-rule="nonzero" transform="matrix(12,0,0,12,168.422,213.245)"/><path d="M0.009,-0l0.103,-0l0.144,-0.215l0.144,0.215l0.109,-0l-0.2,-0.28l0.178,-0.237l-0.102,0l-0.129,0.18l-0.124,-0.18l-0.109,0l0.18,0.245l-0.194,0.272Z" fill="#196721" fill-rule="nonzero" transform="matrix(12,0,0,12,175.538,213.245)"/><rect x="155.078" y="214.145" width="26.676" height="0.6" fill="#196721"/></g><path d="M156.141,95.779l4.398,-0l-0,-4.32l2.601,-0c3.28,-0 5.599,-1.619 5.599,-5.079c-0,-2.041 -1.359,-4.879 -5.238,-4.879l-7.36,0l0,14.278Zm4.398,-10.62l1.961,-0c1.081,-0 2.081,0.08 2.081,1.381c0,1.441 -1.2,1.521 -2.341,1.521l-1.701,0l-0,-2.902Z" fill="#196721" fill-rule="nonzero"/><path d="M173.46,90.681l1.38,-4.4l0.04,0l1.28,4.4l-2.7,0Zm-6.019,5.098l4.42,-0l0.639,-2.04l4.54,-0l0.6,2.04l4.559,-0l-5.199,-14.278l-4.3,0l-5.259,14.278Z" fill="#196721" fill-rule="nonzero"/><path d="M182.281,90.981c0.04,4.558 4.658,5.138 6.279,5.138c3.181,-0 6.599,-1.199 6.599,-4.918c-0,-2.621 -1.999,-3.562 -4.018,-4.122c-2.021,-0.56 -4.062,-0.78 -4.142,-1.8c-0,-0.8 0.98,-0.96 1.581,-0.96c0.44,-0 0.941,0.1 1.301,0.36c0.36,0.24 0.6,0.6 0.52,1.14l4.158,-0c-0.12,-3.478 -2.859,-4.658 -5.959,-4.658c-2.94,0 -5.759,1.419 -5.759,4.718c0,2.881 2.579,3.501 4.838,4.141c2.462,0.7 3.082,0.901 3.082,1.641c0,1.06 -1.1,1.3 -1.821,1.3c-0.82,0 -1.781,-0.18 -2.101,-1.04c-0.1,-0.26 -0.16,-0.58 -0.16,-0.94l-4.398,-0Z" fill="#196721" fill-rule="nonzero"/><path d="M195.621,90.981c0.04,4.558 4.658,5.138 6.279,5.138c3.181,-0 6.599,-1.199 6.599,-4.918c-0,-2.621 -1.999,-3.562 -4.018,-4.122c-2.021,-0.56 -4.062,-0.78 -4.142,-1.8c-0,-0.8 0.98,-0.96 1.581,-0.96c0.44,-0 0.941,0.1 1.301,0.36c0.36,0.24 0.6,0.6 0.52,1.14l4.158,-0c-0.12,-3.478 -2.859,-4.658 -5.959,-4.658c-2.94,0 -5.759,1.419 -5.759,4.718c0,2.881 2.579,3.501 4.838,4.141c2.462,0.7 3.082,0.901 3.082,1.641c0,1.06 -1.1,1.3 -1.821,1.3c-0.82,0 -1.781,-0.18 -2.101,-1.04c-0.1,-0.26 -0.16,-0.58 -0.16,-0.94l-4.398,-0Z" fill="#196721" fill-rule="nonzero"/><path d="M102.094,60.25c2.828,-0 5.156,-2.328 5.156,-5.156c0,-2.829 -2.328,-5.156 -5.156,-5.156c-2.829,-0 -5.157,2.327 -5.157,5.156c0,2.828 2.328,5.156 5.157,5.156Zm6.094,-5.156c-0,3.343 -2.751,6.093 -6.094,6.093c-3.343,0 -6.094,-2.75 -6.094,-6.093c-0,-3.343 2.751,-6.094 6.094,-6.094c3.343,0 6.094,2.751 6.094,6.094Z"/><path d="M105.698,60.008c0.028,0.038 0.058,0.073 0.091,0.108l3.61,3.609c0.176,0.176 0.414,0.275 0.663,0.275c0.515,0 0.938,-0.423 0.938,-0.938c-0,-0.248 -0.099,-0.487 -0.275,-0.662l-3.609,-3.61c-0.034,-0.034 -0.07,-0.065 -0.108,-0.093c-0.368,0.501 -0.81,0.944 -1.31,1.312l-0,-0.001Z" fill-rule="nonzero"/><path d="M102.094,51.813c0.257,-0 0.468,0.211 0.468,0.468l0,2.344l2.344,0c0.257,0 0.469,0.212 0.469,0.469c0,0.257 -0.212,0.469 -0.469,0.469l-2.344,-0l0,2.343c0,0.257 -0.211,0.469 -0.468,0.469c-0.257,-0 -0.469,-0.212 -0.469,-0.469l-0,-2.343l-2.344,-0c-0.257,-0 -0.469,-0.212 -0.469,-0.469c0,-0.257 0.212,-0.469 0.469,-0.469l2.344,0l-0,-2.344c-0,-0.257 0.212,-0.468 0.469,-0.468Z"/><path d="M61.004,90c-0,1.646 -1.354,3 -3,3c-1.646,-0 -3,-1.354 -3,-3c-0,-1.646 1.354,-3 3,-3c1.646,-0 3,1.354 3,3Z" fill="gray" fill-rule="nonzero"/><path d="M52,83c-1.646,-0 -3,1.354 -3,3l-0,18c-0,1.646 1.354,3 3,3l26,-0c1.646,-0 3,-1.354 3,-3l-0,-18c-0,-1.646 -1.354,-3 -3,-3l-26,-0Zm26,2c0.549,-0 1,0.451 1,1l-0,12l-7.55,-3.894c-0.384,-0.192 -0.85,-0.117 -1.154,0.186l-7.42,7.42l-5.32,-3.544c-0.395,-0.263 -0.924,-0.211 -1.26,0.124l-5.292,4.708l-0,1.08c-0.002,-0.027 -0.004,-0.053 -0.004,-0.08l-0,-18c-0,-0.549 0.451,-1 1,-1l26,-0Z" fill="gray" fill-rule="nonzero"/><path d="M15,45l2,0l-0,1l-1,0l-1,0l0,-1Zm100,100l-2,-0l0,-1l1,-0l1,-0l-0,1Zm-100,0l0,-2l1,0l0,1l0,1l-1,0Zm0,-98l1,0l0,1l-1,0l0,-1Zm0,2l1,0l0,1l-1,0l0,-1Zm0,2l1,0l0,1l-1,0l0,-1Zm0,2l1,0l0,1l-1,0l0,-1Zm0,2l1,-0l0,1l-1,0l0,-1Zm0,2l1,0l0,1l-1,0l0,-1Zm0,2l1,0l0,1l-1,-0l0,-1Zm0,2l1,-0l0,1l-1,-0l0,-1Zm0,2l1,-0l0,1l-1,0l0,-1Zm0,2l1,-0l0,1l-1,0l0,-1Zm0,2l1,0l0,1l-1,0l0,-1Zm0,2l1,0l0,1l-1,0l0,-1Zm0,2l1,0l0,1l-1,0l0,-1Zm0,2l1,0l0,1l-1,0l0,-1Zm0,2l1,0l0,1l-1,0l0,-1Zm0,2l1,0l0,1l-1,0l0,-1Zm0,2l1,0l0,1l-1,0l0,-1Zm0,2l1,0l0,1l-1,0l0,-1Zm0,2l1,0l0,1l-1,0l0,-1Zm0,2l1,0l0,1l-1,0l0,-1Zm0,2l1,0l0,1l-1,0l0,-1Zm0,2l1,0l0,1l-1,0l0,-1Zm0,2l1,0l0,1l-1,0l0,-1Zm0,2l1,0l0,1l-1,0l0,-1Zm0,2l1,0l0,1l-1,0l0,-1Zm0,2l1,0l0,1l-1,0l0,-1Zm0,2l1,0l0,1l-1,0l0,-1Zm0,2l1,0l0,1l-1,0l0,-1Zm0,2l1,0l0,1l-1,-0l0,-1Zm0,2l1,0l0,1l-1,0l0,-1Zm0,2l1,0l0,1l-1,0l0,-1Zm0,2l1,0l0,1l-1,0l0,-1Zm0,2l1,0l0,1l-1,0l0,-1Zm0,2l1,0l0,1l-1,0l0,-1Zm0,2l1,0l0,1l-1,0l0,-1Zm0,2l1,0l0,1l-1,0l0,-1Zm0,2l1,0l0,1l-1,0l0,-1Zm0,2l1,0l0,1l-1,0l0,-1Zm0,2l1,0l0,1l-1,0l0,-1Zm0,2l1,0l0,1l-1,0l0,-1Zm0,2l1,0l0,1l-1,0l0,-1Zm0,2l1,0l0,1l-1,0l0,-1Zm0,2l1,0l-0,1l-1,0l0,-1Zm0,2l1,0l0,1l-1,0l0,-1Zm0,2l1,0l0,1l-1,0l0,-1Zm0,2l1,0l0,1l-1,0l0,-1Zm0,2l1,0l0,1l-1,0l0,-1Zm0,2l1,0l0,1l-1,0l0,-1Zm2,4l0,-1l1,0l0,1l-1,-0Zm2,-0l0,-1l1,0l0,1l-1,-0Zm2,-0l0,-1l1,0l0,1l-1,-0Zm2,-0l0,-1l1,0l0,1l-1,-0Zm2,-0l0,-1l1,0l0,1l-1,-0Zm2,-0l0,-1l1,0l0,1l-1,-0Zm2,-0l0,-1l1,0l0,1l-1,-0Zm2,-0l0,-1l1,0l0,1l-1,-0Zm2,-0l0,-1l1,0l0,1l-1,-0Zm2,-0l0,-1l1,0l0,1l-1,-0Zm2,-0l0,-1l1,0l0,1l-1,-0Zm2,-0l0,-1l1,0l0,1l-1,-0Zm2,-0l0,-1l1,0l0,1l-1,-0Zm2,-0l0,-1l1,0l0,1l-1,-0Zm2,-0l0,-1l1,0l0,1l-1,-0Zm2,-0l0,-1l1,0l0,1l-1,-0Zm2.001,-0l-0,-1l0.999,0l0,1l-0.999,-0Zm1.999,-0l0,-1l1,0l0,1l-1,-0Zm2,-0l0,-1l1,0l0,1l-1,-0Zm2.001,-0l-0,-1l1,0l-0,1l-1,-0Zm2,-0l-0,-1l1,0l-0,1l-1,-0Zm1.999,-0l0,-1l1,0l0,1l-1,-0Zm2,-0l0,-1l1,0l0,1l-1,-0Zm2,-0l0,-1l1,0l0,1l-1,-0Zm2,-0l0,-1l1,0l0,1l-1,-0Zm2,-0l0,-1l1,0l0,1l-1,-0Zm2,-0l0,-1l1,0l0,1l-1,-0Zm2,-0l0,-1l1,0l0,1l-1,-0Zm2,-0l0,-1l1,0l0,1l-1,-0Zm2,-0l0,-1l1,0l0,1l-1,-0Zm2,-0l0,-1l1,0l0,1l-1,-0Zm2,-0l0,-1l1,0l0,1l-1,-0Zm2,-0l0,-1l1,0l0,1l-1,-0Zm2,-0l0,-1l1,0l0,1l-1,-0Zm2,-0l0,-1l1,0l0,1l-1,-0Zm2,-0l0,-1l1,0l0,1l-1,-0Zm2,-0l0,-1l1,0l0,1l-1,-0Zm2,-0l0,-1l1,0l0,1l-1,-0Zm2,-0l0,-1l1,0l0,1l-1,-0Zm2,-0l0,-1l1,0l0,1l-1,-0Zm2,-0l0,-1l1,0l0,1l-1,-0Zm2,-0l0,-1l1,0l0,1l-1,-0Zm2,-0l0,-1l1,0l0,1l-1,-0Zm2,-0l0,-1l1,0l0,1l-1,-0Zm2,-0l0,-1l1,0l0,1l-1,-0Zm2,-0l0,-1l1,0l0,1l-1,-0Zm2,-0l0,-1l1,0l0,1l-1,-0Zm2,-0l0,-1l1,0l0,1l-1,-0Zm4,-2l-1,-0l-0,-1l1,-0l-0,1Zm-0,-2l-1,-0l-0,-1l1,-0l-0,1Zm-0,-2l-1,-0l-0,-1l1,-0l-0,1Zm-0,-2l-1,-0l-0,-1l1,-0l-0,1Zm-0,-2l-1,-0l-0,-1l1,-0l-0,1Zm-0,-2l-1,-0l-0,-1l1,-0l-0,1Zm-0,-2l-1,-0l-0,-1l1,-0l-0,1Zm-0,-2l-1,-0l-0,-1l1,-0l-0,1Zm-0,-2l-1,-0l-0,-1l1,-0l-0,1Zm-0,-2l-1,-0l-0,-1l1,-0l-0,1Zm-0,-2l-1,-0l-0,-1l1,-0l-0,1Zm-0,-2l-1,-0l-0,-1l1,-0l-0,1Zm-0,-2l-1,-0l-0,-1.001l1,0l-0,1.001Zm-0,-2l-1,-0l-0,-1l1,-0l-0,1Zm-0,-2.001l-1,0l-0,-1l1,0l-0,1Zm-0,-2l-1,0l-0,-1l1,0l-0,1Zm-0,-2l-1,0l-0,-1l1,0l-0,1Zm-0,-2l-1,0l-0,-1l1,0l-0,1Zm-0,-2l-1,0l-0,-1l1,0l-0,1Zm-0,-2l-1,0l-0,-1l1,0l-0,1Zm-0,-2l-1,0l-0,-1l1,0l-0,1Zm-0,-2l-1,0l-0,-1l1,0l-0,1Zm-0,-1.999l-1,-0l-0,-1l1,-0l-0,1Zm-0,-2l-1,-0l-0,-1l1,-0l-0,1Zm-0,-2l-1,-0l-0,-1l1,-0l-0,1Zm-0,-2l-1,-0l-0,-1l1,-0l-0,1Zm-0,-2l-1,-0l-0,-1l1,-0l-0,1Zm-0,-2l-1,-0l-0,-1l1,-0l-0,1Zm-0,-2l-1,-0l-0,-1l1,-0l-0,1Zm-0,-2l-1,-0l-0,-1l1,-0l-0,1Zm-0,-2l-1,-0l-0,-1l1,-0l-0,1Zm-0,-2l-1,-0l-0,-1l1,-0l-0,1Zm-0,-2l-1,-0l-0,-1l1,-0l-0,1Zm-0,-2l-1,-0l-0,-1l1,-0l-0,1Zm-0,-2l-1,-0l-0,-1l1,-0l-0,1Zm-0,-2l-1,-0l-0,-1l1,-0l-0,1Zm-0,-2l-1,-0l-0,-1l1,-0l-0,1Zm-0,-2l-1,-0l-0,-1l1,-0l-0,1Zm-0,-2l-1,-0l-0,-1l1,-0l-0,1Zm-0,-2l-1,-0l-0,-1l1,-0l-0,1Zm-0,-2l-1,-0l-0,-1l1,-0l-0,1Zm-0,-2l-1,-0l-0,-1l1,-0l-0,1Zm-0,-2.001l-1,0l-0,-1l1,0l-0,1Zm-0,-2l-1,0l-0,-1l1,0l-0,1Zm-0,-2l-1,0l-0,-1l1,0l-0,1Zm-0,-2l-1,0l-0,-1l1,0l-0,1Zm-0,-2l-1,0l-0,-1l1,0l-0,1Zm-0,-2l-1,0l-0,-1l1,0l-0,1Zm-0,-2l-1,0l-0,-1.999l1,0l-0,1.999Zm-2,-1.999l-0,1l-1,0l0,-1l1,0Zm-2,0l-0,1l-1,0l-0,-1l1,0Zm-2,0l0,1l-1,0l0,-1l1,0Zm-2,0l-0,1l-1,0l0,-1l1,0Zm-2,0l0,1l-1,0l0,-1l1,0Zm-2,0l0,1l-1,0l-0,-1l1,0Zm-2,0l0,1l-1,0l0,-1l1,0Zm-2,0l0,1l-1,0l0,-1l1,0Zm-2,0l0,1l-1,0l0,-1l1,0Zm-2,0l0,1l-1,0l0,-1l1,0Zm-2,0l0,1l-1,0l-0,-1l1,0Zm-2,0l-0,1l-1,0l-0,-1l1,0Zm-2,0l-0,1l-1,0l-0,-1l1,0Zm-2,0l-0,1l-1,0l-0,-1l1,0Zm-2,0l-0,1l-1,0l-0,-1l1,0Zm-2,0l-0,1l-1,0l-0,-1l1,0Zm-2,0l-0,1l-1,0l-0,-1l1,0Zm-2,0l-0,1l-1,0l-0,-1l1,0Zm-2,0l-0,1l-1,0l-0,-1l1,0Zm-2,0l-0,1l-1,0l-0,-1l1,0Zm-2,0l-0,1l-1,0l-0,-1l1,0Zm-2,0l-0,1l-1,0l-0,-1l1,0Zm-2,0l-0,1l-1,0l-0,-1l1,0Zm-2,0l-0,1l-1,0l-0,-1l1,0Zm-2,0l-0,1l-1,0l-0,-1l1,0Zm-2,0l0,1l-1,0l-0,-1l1,0Zm-2,0l0,1l-1,0l0,-1l1,0Zm-2,0l0,1l-1,0l0,-1l1,0Zm-2,0l0,1l-1,0l0,-1l1,0Zm-2,0l0,1l-1,0l-0,-1l1,0Zm-2,0l-0,1l-1,0l0,-1l1,0Zm-2,0l-0,1l-1,0l-0,-1l1,0Zm-2,0l-0,1l-1,0l-0,-1l1,0Zm-2,0l-0,1l-1,0l-0,-1l1,0Zm-2,0l-0,1l-1,0l-0,-1l1,0Zm-2,0l-0,1l-1,0l-0,-1l1,0Zm-2,0l-0,1l-1,0l-0,-1l1,0Zm-2,0l-0,1l-1,0l-0,-1l1,0Zm-2,0l-0,1l-1,0l-0,-1l1,0Zm-2,0l-0,1l-1,0l-0,-1l1,0Zm-2,0l-0,1l-1,0l-0,-1l1,0Zm-2,0l-0,1l-1,0l-0,-1l1,0Zm-2,0l-0,1l-1,0l-0,-1l1,0Zm-2,0l-0,1l-1,0l-0,-1l1,0Zm-2,0l-0,1l-1,0l-0,-1l1,0Zm-2,0l-0,1l-1,0l-0,-1l1,0Zm-2,0l-0,1l-1,0l-0,-1l1,0Zm-2,0l-0,1l-1,0l-0,-1l1,0Z" fill="#6a6bd3"/><path d="M91,46c0,0 0.331,-0.637 0.613,-1l0.387,0l0,0.011c0,-0.004 -0,-0.007 -0,-0.011l1,0l0,1l-2,0Zm0,1l1,-0l-0,1l-1,-0l0,-1Zm0,2l1,0l-0,1l-1,0l0,-1Zm0,2l1,0l-0,1l-1,0l0,-1Zm0,2l1,0l-0,1l-1,0l0,-1Zm0,2l1,-0l-0,1l-1,-0l0,-1Zm0,2l1,-0l-0,1l-1,0l0,-1Zm0,2l1,0l-0,1l-1,-0l0,-1Zm0,2l1,0l-0,1l-1,0l0,-1Zm0,2l1,0l-0,1l-1,0l0,-1Zm0,2l1,-0l-0,1l-1,-0l0,-1Zm0,2l1,-0l-0,2l-1,0l0,-1l0.011,-0c-0.004,-0 -0.007,0 -0.011,0l0,-1Zm2,2l-0,-1l1,0l-0,1l-1,0Zm2,0l0,-1l1,0l0,1l-1,0Zm2,0l0,-1l1,0l0,1l-1,0Zm2,0l0,-1l1,0l0,1l-1,0Zm2,0l-0,-1l1,0l-0,1l-1,0Zm2,0l-0,-1l1,0l0,1l-1,0Zm2,0l0,-1l1,0l-0,1l-1,0Zm2,0l0,-1l1,0l0,1l-1,0Zm2,0l-0,-1l1,0l0,1l-1,0Zm2,0l-0,-1l1,0l-0,1l-1,0Zm2,0l-0,-1l2,0l-0,1l-1,0l-0,-0.011c-0,0.004 0,0.007 0,0.011l-1,0Zm2,-2l-1,0l-0,-1l1,0l-0,1Zm-0,-2l-1,0l-0,-1l1,-0l-0,1Zm-0,-2l-1,-0l-0,-1l1,-0l-0,1Zm-0,-2l-1,-0l-0,-1l1,-0l-0,1Zm-0,-2l-1,0l-0,-1l1,0l-0,1Zm-0,-2l-1,0l-0,-1l1,-0l-0,1Zm-0,-2l-1,-0l-0,-1l1,0l-0,1Zm-0,-2l-1,-0l-0,-1l1,-0l-0,1Zm-0,-2l-1,0l-0,-1l1,0l-0,1Zm-0,-2l-1,0l-0,-1l1,0l-0,1Zm-0,-2l-1,0l0,-2c0,0.943 1,1 1,1l-0,1Zm-2,-2l0,1l-1,0l0,-1l1,0Zm-2,0l-0,1l-1,0l-0,-1l1,0Zm-2,0l-0,1l-1,0l-0,-1l1,0Zm-2,0l-0,1l-1,0l-0,-1l1,0Zm-2,0l0,1l-1,0l0,-1l1,0Zm-2,0l0,1l-1,0l-0,-1l1,0Zm-2,0l-0,1l-1,0l0,-1l1,0Zm-2,0l-0,1l-1,0l-0,-1l1,0Zm-2,0l0,1l-1,0l-0,-1l1,0Zm-2,0l0,1l-1,0l0,-1l1,0Z" fill="#6a6bd3"/><path d="M129.5,200.5l-8,-0" fill="none" stroke="#000" stroke-width="1px" stroke-miterlimit="10"/><path d="M129.5,215.5l-8,-0" fill="none" stroke="#000" stroke-width="1px" stroke-miterlimit="10"/><path d="M125.5,200.5l-0,15" fill="none" stroke="#000" stroke-width="1px"/><path d="M99.5,186.5l-0,8" fill="none" stroke="#000" stroke-width="1px" stroke-miterlimit="10"/><path d="M114.5,186.5l-0,8" fill="none" stroke="#000" stroke-width="1px" stroke-miterlimit="10"/><path d="M99.5,190.5l15,-0" fill="none" stroke="#000" stroke-width="1px"/><path d="M136.595,203.269l-0.779,0c-0.227,1.284 -1.283,1.596 -2.447,1.596l-0,0.815l2.208,-0l-0,6.096l1.018,-0l0,-8.507Z" fill-rule="nonzero"/><path d="M142.428,207.204c1.165,-0 1.717,0.876 1.717,1.932c-0,1.009 -0.612,1.885 -1.717,1.885c-1.116,0 -1.765,-0.84 -1.765,-1.897c0,-1.068 0.625,-1.92 1.765,-1.92Zm2.555,-1.764c-0.12,-1.38 -0.994,-2.171 -2.399,-2.171c-2.424,0 -3.131,2.22 -3.131,4.559c-0,1.789 0.407,4.092 2.927,4.092c2.148,-0 2.843,-1.619 2.843,-2.856c0,-1.572 -0.97,-2.759 -2.603,-2.759c-0.924,0 -1.645,0.336 -2.125,1.115l-0.024,-0.024c0.048,-1.307 0.324,-3.228 2.065,-3.228c0.804,-0 1.333,0.504 1.429,1.272l1.018,0Z" fill-rule="nonzero"/><path d="M151.273,208.62c-0,1.213 -0.468,2.401 -1.861,2.401c-1.405,0 -1.957,-1.128 -1.957,-2.353c0,-1.164 0.528,-2.34 1.897,-2.34c1.321,-0 1.921,1.128 1.921,2.292Zm-4.8,5.532l1.018,-0l0,-3.203l0.024,0c0.456,0.731 1.369,0.971 2.005,0.971c1.897,-0 2.831,-1.475 2.831,-3.228c0,-1.752 -0.946,-3.263 -2.855,-3.263c-0.852,0 -1.645,0.3 -1.981,0.983l-0.024,-0l0,-0.839l-1.018,0l-0,8.579Z" fill-rule="nonzero"/><path d="M152.893,211.776l1.235,-0l1.728,-2.578l1.728,2.578l1.307,-0l-2.399,-3.36l2.135,-2.843l-1.223,0l-1.548,2.162l-1.488,-2.162l-1.307,0l2.159,2.939l-2.327,3.264Z" fill-rule="nonzero"/><path d="M97.123,174.061l-0.779,-0c-0.228,1.284 -1.284,1.596 -2.448,1.596l0,0.814l2.208,0l0,6.096l1.019,0l-0,-8.506Z" fill-rule="nonzero"/><path d="M102.955,177.995c1.165,0 1.717,0.877 1.717,1.933c0,1.008 -0.612,1.885 -1.717,1.885c-1.116,-0 -1.764,-0.841 -1.764,-1.897c-0,-1.068 0.624,-1.921 1.764,-1.921Zm2.556,-1.763c-0.12,-1.381 -0.995,-2.171 -2.399,-2.171c-2.425,-0 -3.132,2.219 -3.132,4.558c0,1.789 0.408,4.092 2.927,4.092c2.149,0 2.844,-1.619 2.844,-2.855c-0,-1.573 -0.971,-2.759 -2.603,-2.759c-0.925,-0 -1.645,0.335 -2.125,1.114l-0.024,-0.024c0.048,-1.306 0.324,-3.228 2.065,-3.228c0.804,0 1.332,0.505 1.428,1.273l1.019,0Z" fill-rule="nonzero"/><path d="M111.8,179.412c0,1.212 -0.468,2.401 -1.861,2.401c-1.404,-0 -1.956,-1.129 -1.956,-2.353c-0,-1.164 0.528,-2.341 1.896,-2.341c1.321,0 1.921,1.129 1.921,2.293Zm-4.8,5.531l1.019,0l-0,-3.202l0.024,-0c0.456,0.731 1.368,0.97 2.004,0.97c1.897,0 2.832,-1.474 2.832,-3.227c-0,-1.753 -0.947,-3.263 -2.856,-3.263c-0.852,-0 -1.644,0.299 -1.98,0.982l-0.024,0l-0,-0.838l-1.019,-0l0,8.578Z" fill-rule="nonzero"/><path d="M113.42,182.567l1.236,0l1.727,-2.577l1.728,2.577l1.308,0l-2.4,-3.36l2.136,-2.842l-1.224,-0l-1.548,2.161l-1.487,-2.161l-1.308,-0l2.16,2.938l-2.328,3.264Z" fill-rule="nonzero"/><path d="M159.141,250.779l4.398,-0l-0,-5.44l5.7,-0l-0,-3.398l-5.7,0l-0,-1.782l6.64,-0l-0,-3.658l-11.038,0l0,14.278Z" fill="#ac2020" fill-rule="nonzero"/><path d="M175.36,245.681l1.38,-4.4l0.04,0l1.28,4.4l-2.7,0Zm-6.019,5.098l4.42,-0l0.639,-2.04l4.54,-0l0.6,2.04l4.559,-0l-5.199,-14.278l-4.3,0l-5.259,14.278Z" fill="#ac2020" fill-rule="nonzero"/><rect x="185.081" y="236.501" width="4.397" height="14.278" fill="#ac2020" fill-rule="nonzero"/><path d="M191.741,250.779l10.718,-0l-0,-3.658l-6.32,0l-0,-10.62l-4.398,0l0,14.278Z" fill="#ac2020" fill-rule="nonzero"/><path d="M106.062,210.5c1.886,0 3.438,-1.552 3.438,-3.437c-0,-1.886 -1.552,-3.438 -3.438,-3.438c-1.885,0 -3.437,1.552 -3.437,3.438c-0,1.885 1.552,3.437 3.437,3.437Zm4.063,-3.437c0,2.228 -1.834,4.062 -4.063,4.062c-2.228,-0 -4.062,-1.834 -4.062,-4.062c-0,-2.229 1.834,-4.063 4.062,-4.063c2.229,0 4.063,1.834 4.063,4.063Z"/><path d="M108.465,210.339c0.019,0.025 0.039,0.049 0.061,0.072l2.407,2.406c0.117,0.117 0.276,0.183 0.442,0.183c0.343,0 0.625,-0.282 0.625,-0.625c-0,-0.166 -0.066,-0.325 -0.183,-0.442l-2.406,-2.406c-0.023,-0.023 -0.047,-0.044 -0.072,-0.063c-0.245,0.335 -0.54,0.63 -0.874,0.875l-0,-0Z" fill-rule="nonzero"/><path d="M106.062,204.875c0.172,0 0.313,0.141 0.313,0.313l-0,1.562l1.562,0c0.172,0 0.313,0.141 0.313,0.313c-0,0.171 -0.141,0.312 -0.313,0.312l-1.562,0l-0,1.563c-0,0.171 -0.141,0.312 -0.313,0.312c-0.171,0 -0.312,-0.141 -0.312,-0.312l-0,-1.563l-1.563,0c-0.171,0 -0.312,-0.141 -0.312,-0.312c-0,-0.172 0.141,-0.313 0.312,-0.313l1.563,0l-0,-1.562c-0,-0.172 0.141,-0.313 0.312,-0.313Z"/><path d="M61.004,245c-0,1.646 -1.354,3 -3,3c-1.646,-0 -3,-1.354 -3,-3c-0,-1.646 1.354,-3 3,-3c1.646,-0 3,1.354 3,3Z" fill="gray" fill-rule="nonzero"/><path d="M52,238c-1.646,-0 -3,1.354 -3,3l-0,18c-0,1.646 1.354,3 3,3l26,-0c1.646,-0 3,-1.354 3,-3l-0,-18c-0,-1.646 -1.354,-3 -3,-3l-26,-0Zm26,2c0.549,-0 1,0.451 1,1l-0,12l-7.55,-3.894c-0.384,-0.192 -0.85,-0.117 -1.154,0.186l-7.42,7.42l-5.32,-3.544c-0.395,-0.263 -0.924,-0.211 -1.26,0.124l-5.292,4.708l-0,1.08c-0.002,-0.027 -0.004,-0.053 -0.004,-0.08l-0,-18c-0,-0.549 0.451,-1 1,-1l26,-0Z" fill="gray" fill-rule="nonzero"/><path d="M15,200l2,0l-0,1l-1,0l-1,0l0,-1Zm100,100l-2,-0l0,-1l1,-0l1,-0l-0,1Zm-100,0l0,-2l1,0l0,1l0,1l-1,0Zm0,-98l1,0l0,1l-1,0l0,-1Zm0,2l1,0l0,1l-1,0l0,-1Zm0,2l1,0l0,1l-1,0l0,-1Zm0,2l1,0l0,1l-1,0l0,-1Zm0,2l1,-0l0,1l-1,0l0,-1Zm0,2l1,0l0,1l-1,0l0,-1Zm0,2l1,0l0,1l-1,-0l0,-1Zm0,2l1,-0l0,1l-1,-0l0,-1Zm0,2l1,-0l0,1l-1,0l0,-1Zm0,2l1,-0l0,1l-1,0l0,-1Zm0,2l1,0l0,1l-1,0l0,-1Zm0,2l1,0l0,1l-1,0l0,-1Zm0,2l1,0l0,1l-1,0l0,-1Zm0,2l1,0l0,1l-1,0l0,-1Zm0,2l1,0l0,1l-1,0l0,-1Zm0,2l1,0l0,1l-1,0l0,-1Zm0,2l1,0l0,1l-1,0l0,-1Zm0,2l1,0l0,1l-1,0l0,-1Zm0,2l1,0l0,1l-1,0l0,-1Zm0,2l1,0l0,1l-1,0l0,-1Zm0,2l1,0l0,1l-1,0l0,-1Zm0,2l1,0l0,1l-1,0l0,-1Zm0,2l1,0l0,1l-1,0l0,-1Zm0,2l1,0l0,1l-1,0l0,-1Zm0,2l1,0l0,1l-1,0l0,-1Zm0,2l1,0l0,1l-1,0l0,-1Zm0,2l1,0l0,1l-1,0l0,-1Zm0,2l1,0l0,1l-1,0l0,-1Zm0,2l1,0l0,1l-1,-0l0,-1Zm0,2l1,0l0,1l-1,0l0,-1Zm0,2l1,0l0,1l-1,0l0,-1Zm0,2l1,0l0,1l-1,0l0,-1Zm0,2l1,0l0,1l-1,0l0,-1Zm0,2l1,0l0,1l-1,0l0,-1Zm0,2l1,0l0,1l-1,0l0,-1Zm0,2l1,0l0,1l-1,0l0,-1Zm0,2l1,0l0,1l-1,0l0,-1Zm0,2l1,0l0,1l-1,0l0,-1Zm0,2l1,0l0,1l-1,0l0,-1Zm0,2l1,0l0,1l-1,0l0,-1Zm0,2l1,0l0,1l-1,0l0,-1Zm0,2l1,0l0,1l-1,0l0,-1Zm0,2l1,0l-0,1l-1,0l0,-1Zm0,2l1,0l0,1l-1,0l0,-1Zm0,2l1,0l0,1l-1,0l0,-1Zm0,2l1,0l0,1l-1,0l0,-1Zm0,2l1,0l0,1l-1,0l0,-1Zm0,2l1,0l0,1l-1,0l0,-1Zm2,4l0,-1l1,0l0,1l-1,-0Zm2,-0l0,-1l1,0l0,1l-1,-0Zm2,-0l0,-1l1,0l0,1l-1,-0Zm2,-0l0,-1l1,0l0,1l-1,-0Zm2,-0l0,-1l1,0l0,1l-1,-0Zm2,-0l0,-1l1,0l0,1l-1,-0Zm2,-0l0,-1l1,0l0,1l-1,-0Zm2,-0l0,-1l1,0l0,1l-1,-0Zm2,-0l0,-1l1,0l0,1l-1,-0Zm2,-0l0,-1l1,0l0,1l-1,-0Zm2,-0l0,-1l1,0l0,1l-1,-0Zm2,-0l0,-1l1,0l0,1l-1,-0Zm2,-0l0,-1l1,0l0,1l-1,-0Zm2,-0l0,-1l1,0l0,1l-1,-0Zm2,-0l0,-1l1,0l0,1l-1,-0Zm2,-0l0,-1l1,0l0,1l-1,-0Zm2.001,-0l-0,-1l0.999,0l0,1l-0.999,-0Zm1.999,-0l0,-1l1,0l0,1l-1,-0Zm2,-0l0,-1l1,0l0,1l-1,-0Zm2.001,-0l-0,-1l1,0l-0,1l-1,-0Zm2,-0l-0,-1l1,0l-0,1l-1,-0Zm1.999,-0l0,-1l1,0l0,1l-1,-0Zm2,-0l0,-1l1,0l0,1l-1,-0Zm2,-0l0,-1l1,0l0,1l-1,-0Zm2,-0l0,-1l1,0l0,1l-1,-0Zm2,-0l0,-1l1,0l0,1l-1,-0Zm2,-0l0,-1l1,0l0,1l-1,-0Zm2,-0l0,-1l1,0l0,1l-1,-0Zm2,-0l0,-1l1,0l0,1l-1,-0Zm2,-0l0,-1l1,0l0,1l-1,-0Zm2,-0l0,-1l1,0l0,1l-1,-0Zm2,-0l0,-1l1,0l0,1l-1,-0Zm2,-0l0,-1l1,0l0,1l-1,-0Zm2,-0l0,-1l1,0l0,1l-1,-0Zm2,-0l0,-1l1,0l0,1l-1,-0Zm2,-0l0,-1l1,0l0,1l-1,-0Zm2,-0l0,-1l1,0l0,1l-1,-0Zm2,-0l0,-1l1,0l0,1l-1,-0Zm2,-0l0,-1l1,0l0,1l-1,-0Zm2,-0l0,-1l1,0l0,1l-1,-0Zm2,-0l0,-1l1,0l0,1l-1,-0Zm2,-0l0,-1l1,0l0,1l-1,-0Zm2,-0l0,-1l1,0l0,1l-1,-0Zm2,-0l0,-1l1,0l0,1l-1,-0Zm2,-0l0,-1l1,0l0,1l-1,-0Zm2,-0l0,-1l1,0l0,1l-1,-0Zm2,-0l0,-1l1,0l0,1l-1,-0Zm2,-0l0,-1l1,0l0,1l-1,-0Zm4,-2l-1,-0l-0,-1l1,-0l-0,1Zm-0,-2l-1,-0l-0,-1l1,-0l-0,1Zm-0,-2l-1,-0l-0,-1l1,-0l-0,1Zm-0,-2l-1,-0l-0,-1l1,-0l-0,1Zm-0,-2l-1,-0l-0,-1l1,-0l-0,1Zm-0,-2l-1,-0l-0,-1l1,-0l-0,1Zm-0,-2l-1,-0l-0,-1l1,-0l-0,1Zm-0,-2l-1,-0l-0,-1l1,-0l-0,1Zm-0,-2l-1,-0l-0,-1l1,-0l-0,1Zm-0,-2l-1,-0l-0,-1l1,-0l-0,1Zm-0,-2l-1,-0l-0,-1l1,-0l-0,1Zm-0,-2l-1,-0l-0,-1l1,-0l-0,1Zm-0,-2l-1,-0l-0,-1.001l1,0l-0,1.001Zm-0,-2l-1,-0l-0,-1l1,-0l-0,1Zm-0,-2.001l-1,0l-0,-1l1,0l-0,1Zm-0,-2l-1,0l-0,-1l1,0l-0,1Zm-0,-2l-1,0l-0,-1l1,0l-0,1Zm-0,-2l-1,0l-0,-1l1,0l-0,1Zm-0,-2l-1,0l-0,-1l1,0l-0,1Zm-0,-2l-1,0l-0,-1l1,0l-0,1Zm-0,-2l-1,0l-0,-1l1,0l-0,1Zm-0,-2l-1,0l-0,-1l1,0l-0,1Zm-0,-1.999l-1,-0l-0,-1l1,-0l-0,1Zm-0,-2l-1,-0l-0,-1l1,-0l-0,1Zm-0,-2l-1,-0l-0,-1l1,-0l-0,1Zm-0,-2l-1,-0l-0,-1l1,-0l-0,1Zm-0,-2l-1,-0l-0,-1l1,-0l-0,1Zm-0,-2l-1,-0l-0,-1l1,-0l-0,1Zm-0,-2l-1,-0l-0,-1l1,-0l-0,1Zm-0,-2l-1,-0l-0,-1l1,-0l-0,1Zm-0,-2l-1,-0l-0,-1l1,-0l-0,1Zm-0,-2l-1,-0l-0,-1l1,-0l-0,1Zm-0,-2l-1,-0l-0,-1l1,-0l-0,1Zm-0,-2l-1,-0l-0,-1l1,-0l-0,1Zm-0,-2l-1,-0l-0,-1l1,-0l-0,1Zm-0,-2l-1,-0l-0,-1l1,-0l-0,1Zm-0,-2l-1,-0l-0,-1l1,-0l-0,1Zm-0,-2l-1,-0l-0,-1l1,-0l-0,1Zm-0,-2l-1,-0l-0,-1l1,-0l-0,1Zm-0,-2l-1,-0l-0,-1l1,-0l-0,1Zm-0,-2l-1,-0l-0,-1l1,-0l-0,1Zm-0,-2l-1,-0l-0,-1l1,-0l-0,1Zm-0,-2.001l-1,0l-0,-1l1,0l-0,1Zm-0,-2l-1,0l-0,-1l1,0l-0,1Zm-0,-2l-1,0l-0,-1l1,0l-0,1Zm-0,-2l-1,0l-0,-1l1,0l-0,1Zm-0,-2l-1,0l-0,-1l1,0l-0,1Zm-0,-2l-1,0l-0,-1l1,0l-0,1Zm-0,-2l-1,0l-0,-1.999l1,0l-0,1.999Zm-2,-1.999l-0,1l-1,0l0,-1l1,0Zm-2,0l-0,1l-1,0l-0,-1l1,0Zm-2,0l0,1l-1,0l0,-1l1,0Zm-2,0l-0,1l-1,0l0,-1l1,0Zm-2,0l0,1l-1,0l0,-1l1,0Zm-2,0l0,1l-1,0l-0,-1l1,0Zm-2,0l0,1l-1,0l0,-1l1,0Zm-2,0l0,1l-1,0l0,-1l1,0Zm-2,0l0,1l-1,0l0,-1l1,0Zm-2,0l0,1l-1,0l0,-1l1,0Zm-2,0l0,1l-1,0l-0,-1l1,0Zm-2,0l-0,1l-1,0l-0,-1l1,0Zm-2,0l-0,1l-1,0l-0,-1l1,0Zm-2,0l-0,1l-1,0l-0,-1l1,0Zm-2,0l-0,1l-1,0l-0,-1l1,0Zm-2,0l-0,1l-1,0l-0,-1l1,0Zm-2,0l-0,1l-1,0l-0,-1l1,0Zm-2,0l-0,1l-1,0l-0,-1l1,0Zm-2,0l-0,1l-1,0l-0,-1l1,0Zm-2,0l-0,1l-1,0l-0,-1l1,0Zm-2,0l-0,1l-1,0l-0,-1l1,0Zm-2,0l-0,1l-1,0l-0,-1l1,0Zm-2,0l-0,1l-1,0l-0,-1l1,0Zm-2,0l-0,1l-1,0l-0,-1l1,0Zm-2,0l-0,1l-1,0l-0,-1l1,0Zm-2,0l0,1l-1,0l-0,-1l1,0Zm-2,0l0,1l-1,0l0,-1l1,0Zm-2,0l0,1l-1,0l0,-1l1,0Zm-2,0l0,1l-1,0l0,-1l1,0Zm-2,0l0,1l-1,0l-0,-1l1,0Zm-2,0l-0,1l-1,0l0,-1l1,0Zm-2,0l-0,1l-1,0l-0,-1l1,0Zm-2,0l-0,1l-1,0l-0,-1l1,0Zm-2,0l-0,1l-1,0l-0,-1l1,0Zm-2,0l-0,1l-1,0l-0,-1l1,0Zm-2,0l-0,1l-1,0l-0,-1l1,0Zm-2,0l-0,1l-1,0l-0,-1l1,0Zm-2,0l-0,1l-1,0l-0,-1l1,0Zm-2,0l-0,1l-1,0l-0,-1l1,0Zm-2,0l-0,1l-1,0l-0,-1l1,0Zm-2,0l-0,1l-1,0l-0,-1l1,0Zm-2,0l-0,1l-1,0l-0,-1l1,0Zm-2,0l-0,1l-1,0l-0,-1l1,0Zm-2,0l-0,1l-1,0l-0,-1l1,0Zm-2,0l-0,1l-1,0l-0,-1l1,0Zm-2,0l-0,1l-1,0l-0,-1l1,0Zm-2,0l-0,1l-1,0l-0,-1l1,0Zm-2,0l-0,1l-1,0l-0,-1l1,0Z" fill="#6a6bd3"/><path d="M99,201c0,-0 0.332,-0.638 0.613,-1l0.387,0l0,0.011c0,-0.004 -0,-0.007 -0,-0.011l1,0l0,1l-1,-0l-1,-0Zm0,1l1,-0l-0,1l-1,-0l0,-1Zm0,2l1,-0l-0,1l-1,-0l0,-1Zm0,2l1,-0l-0,1l-1,-0l0,-1Zm0,2l1,-0l-0,1l-1,-0l0,-1Zm0,2l1,-0l-0,1l-1,-0l0,-1Zm0,2l1,-0l-0,1l-1,-0l0,-1Zm0,2l1,-0l-0,1l-0,1l-1,0l0,-1l0.011,-0c-0.004,-0 -0.007,0 -0.011,0l0,-1Zm2,2l-0,-1l1,0l-0,1l-1,-0Zm2,-0l-0,-1l1,0l-0,1l-1,-0Zm2,-0l-0,-1l1,0l-0,1l-1,-0Zm2,-0l-0,-1l1,0l-0,1l-1,-0Zm2,-0l-0,-1l1,0l-0,1l-1,-0Zm2,-0l-0,-1l1,0l-0,1l-1,-0Zm2,-0l-0,-1l1,0l1,0l-0,1l-1,-0l-0,-0.011c-0,0.004 -0,0.007 -0,0.011l-1,-0Zm2,-2l-1,0l-0,-1l1,0l-0,1Zm-0,-2l-1,0l-0,-1l1,0l-0,1Zm-0,-2l-1,0l-0,-1l1,0l-0,1Zm-0,-2l-1,0l-0,-1l1,0l-0,1Zm-0,-2l-1,0l-0,-1l1,0l-0,1Zm-0,-2l-1,0l-0,-1l1,0l-0,1Zm-0,-2l-1,0l-0,-1l-0,-1c-0,0.942 1,1 1,1l-0,1Zm-2,-2l-0,1l-1,0l-0,-1l1,0Zm-2,0l-0,1l-1,0l0,-1l1,0Zm-2,0l0,1l-1,0l0,-1l1,0Zm-2,0l0,1l-1,0l0,-1l1,0Zm-2,0l0,1l-1,0l0,-1l1,0Zm-2,0l0,1l-1,0l0,-1l1,0Z" fill="#6a6bd3"/><path d="M324.5,186.5l-0,8" fill="none" stroke="#000" stroke-width="1px" stroke-miterlimit="10"/><path d="M347.5,186.5l-0,8" fill="none" stroke="#000" stroke-width="1px" stroke-miterlimit="10"/><path d="M324.5,190.5l23,0" fill="none" stroke="#000" stroke-width="1px"/><g transform="matrix(1,0,0,1,166.773,-30.6766)"><path d="M0.129,-0.458c-0.003,-0.085 0.039,-0.176 0.138,-0.176c0.075,-0 0.137,0.051 0.137,0.128c0,0.098 -0.061,0.142 -0.181,0.216c-0.1,0.062 -0.185,0.122 -0.199,0.29l0.463,-0l-0,-0.075l-0.364,0c0.017,-0.088 0.11,-0.133 0.199,-0.187c0.088,-0.055 0.172,-0.118 0.172,-0.243c-0,-0.132 -0.098,-0.204 -0.222,-0.204c-0.15,0 -0.235,0.107 -0.228,0.251l0.085,-0Z" fill-rule="nonzero" transform="matrix(12,0,0,12,154.499,213.245)"/><path d="M0.419,-0.709l-0.068,0l-0.323,0.461l0,0.082l0.311,-0l0,0.166l0.08,-0l-0,-0.166l0.096,-0l-0,-0.075l-0.096,0l-0,-0.468Zm-0.318,0.468l0.236,-0.347l0.002,0l0,0.347l-0.238,0Z" fill-rule="nonzero" transform="matrix(12,0,0,12,161.171,213.245)"/><path d="M0.467,-0.263c0,0.101 -0.039,0.2 -0.155,0.2c-0.117,0 -0.163,-0.094 -0.163,-0.196c-0,-0.097 0.044,-0.195 0.158,-0.195c0.11,-0 0.16,0.094 0.16,0.191Zm-0.4,0.461l0.085,-0l-0,-0.267l0.002,0c0.038,0.061 0.114,0.081 0.167,0.081c0.158,-0 0.236,-0.123 0.236,-0.269c-0,-0.146 -0.079,-0.272 -0.238,-0.272c-0.071,0 -0.137,0.025 -0.165,0.082l-0.002,-0l-0,-0.07l-0.085,0l0,0.715Z" fill-rule="nonzero" transform="matrix(12,0,0,12,167.843,213.245)"/><path d="M0.009,-0l0.103,-0l0.144,-0.215l0.144,0.215l0.109,-0l-0.2,-0.28l0.178,-0.237l-0.102,0l-0.129,0.18l-0.124,-0.18l-0.109,0l0.18,0.245l-0.194,0.272Z" fill-rule="nonzero" transform="matrix(12,0,0,12,174.959,213.245)"/><path d="M0.069,-0l0.085,-0l-0,-0.517l-0.085,0l0,0.517Zm0.085,-0.714l-0.085,0l0,0.104l0.085,-0l-0,-0.104Z" fill="#ac2020" fill-rule="nonzero" transform="matrix(12,0,0,12,184.511,213.245)"/><path d="M0.064,-0l0.085,-0l-0,-0.292c-0,-0.093 0.05,-0.162 0.153,-0.162c0.065,-0 0.105,0.041 0.105,0.104l0,0.35l0.085,-0l-0,-0.34c-0,-0.111 -0.042,-0.189 -0.178,-0.189c-0.074,0 -0.132,0.03 -0.168,0.094l-0.002,-0l-0,-0.082l-0.08,0l0,0.517Z" fill="#ac2020" fill-rule="nonzero" transform="matrix(12,0,0,12,187.175,213.245)"/><path d="M0.182,-0.672l-0.085,0l0,0.155l-0.088,0l0,0.075l0.088,-0l0,0.329c0,0.095 0.035,0.113 0.123,0.113l0.065,-0l-0,-0.075l-0.039,0c-0.053,0 -0.064,-0.007 -0.064,-0.046l-0,-0.321l0.103,-0l-0,-0.075l-0.103,0l-0,-0.155Z" fill="#ac2020" fill-rule="nonzero" transform="matrix(12,0,0,12,193.847,213.245)"/><path d="M0.421,-0.164c-0.015,0.067 -0.064,0.101 -0.134,0.101c-0.113,0 -0.164,-0.08 -0.161,-0.17l0.387,-0c0.005,-0.125 -0.051,-0.296 -0.234,-0.296c-0.141,0 -0.243,0.114 -0.243,0.269c0.005,0.158 0.083,0.272 0.248,0.272c0.116,-0 0.198,-0.062 0.221,-0.176l-0.084,-0Zm-0.295,-0.144c0.006,-0.079 0.059,-0.146 0.148,-0.146c0.084,-0 0.145,0.065 0.149,0.146l-0.297,0Z" fill="#ac2020" fill-rule="nonzero" transform="matrix(12,0,0,12,197.627,213.245)"/><path d="M0.061,-0l0.085,-0l-0,-0.23c-0,-0.131 0.05,-0.209 0.187,-0.209l-0,-0.09c-0.092,-0.003 -0.149,0.038 -0.19,0.121l-0.002,-0l-0,-0.109l-0.08,0l0,0.517Z" fill="#ac2020" fill-rule="nonzero" transform="matrix(12,0,0,12,204.071,213.245)"/><path d="M0.031,-0.163c0.005,0.128 0.103,0.175 0.219,0.175c0.105,-0 0.22,-0.04 0.22,-0.163c-0,-0.1 -0.084,-0.128 -0.169,-0.147c-0.079,-0.019 -0.169,-0.029 -0.169,-0.09c-0,-0.052 0.059,-0.066 0.11,-0.066c0.056,-0 0.114,0.021 0.12,0.087l0.085,-0c-0.007,-0.126 -0.098,-0.162 -0.212,-0.162c-0.09,0 -0.193,0.043 -0.193,0.147c0,0.099 0.085,0.127 0.169,0.146c0.085,0.019 0.169,0.03 0.169,0.096c0,0.065 -0.072,0.077 -0.125,0.077c-0.07,0 -0.136,-0.024 -0.139,-0.1l-0.085,0Z" fill="#ac2020" fill-rule="nonzero" transform="matrix(12,0,0,12,208.067,213.245)"/><path d="M0.421,-0.164c-0.015,0.067 -0.064,0.101 -0.134,0.101c-0.113,0 -0.164,-0.08 -0.161,-0.17l0.387,-0c0.005,-0.125 -0.051,-0.296 -0.234,-0.296c-0.141,0 -0.243,0.114 -0.243,0.269c0.005,0.158 0.083,0.272 0.248,0.272c0.116,-0 0.198,-0.062 0.221,-0.176l-0.084,-0Zm-0.295,-0.144c0.006,-0.079 0.059,-0.146 0.148,-0.146c0.084,-0 0.145,0.065 0.149,0.146l-0.297,0Z" fill="#ac2020" fill-rule="nonzero" transform="matrix(12,0,0,12,214.067,213.245)"/><path d="M0.503,-0.351c-0.012,-0.123 -0.106,-0.178 -0.223,-0.178c-0.164,0 -0.244,0.122 -0.244,0.277c0,0.154 0.084,0.264 0.242,0.264c0.13,-0 0.209,-0.075 0.228,-0.201l-0.087,0c-0.011,0.078 -0.06,0.126 -0.142,0.126c-0.108,0 -0.151,-0.094 -0.151,-0.189c-0,-0.105 0.038,-0.202 0.161,-0.202c0.07,-0 0.115,0.038 0.128,0.103l0.088,-0Z" fill="#ac2020" fill-rule="nonzero" transform="matrix(12,0,0,12,220.511,213.245)"/><path d="M0.182,-0.672l-0.085,0l0,0.155l-0.088,0l0,0.075l0.088,-0l0,0.329c0,0.095 0.035,0.113 0.123,0.113l0.065,-0l-0,-0.075l-0.039,0c-0.053,0 -0.064,-0.007 -0.064,-0.046l-0,-0.321l0.103,-0l-0,-0.075l-0.103,0l-0,-0.155Z" fill="#ac2020" fill-rule="nonzero" transform="matrix(12,0,0,12,226.955,213.245)"/><path d="M0.031,-0.163c0.005,0.128 0.103,0.175 0.219,0.175c0.105,-0 0.22,-0.04 0.22,-0.163c-0,-0.1 -0.084,-0.128 -0.169,-0.147c-0.079,-0.019 -0.169,-0.029 -0.169,-0.09c-0,-0.052 0.059,-0.066 0.11,-0.066c0.056,-0 0.114,0.021 0.12,0.087l0.085,-0c-0.007,-0.126 -0.098,-0.162 -0.212,-0.162c-0.09,0 -0.193,0.043 -0.193,0.147c0,0.099 0.085,0.127 0.169,0.146c0.085,0.019 0.169,0.03 0.169,0.096c0,0.065 -0.072,0.077 -0.125,0.077c-0.07,0 -0.136,-0.024 -0.139,-0.1l-0.085,0Z" fill="#ac2020" fill-rule="nonzero" transform="matrix(12,0,0,12,230.735,213.245)"/><path d="M0.182,-0.672l-0.085,0l0,0.155l-0.088,0l0,0.075l0.088,-0l0,0.329c0,0.095 0.035,0.113 0.123,0.113l0.065,-0l-0,-0.075l-0.039,0c-0.053,0 -0.064,-0.007 -0.064,-0.046l-0,-0.321l0.103,-0l-0,-0.075l-0.103,0l-0,-0.155Z" fill="#ac2020" fill-rule="nonzero" transform="matrix(12,0,0,12,240.071,213.245)"/><path d="M0.384,-0.18c0,0.047 -0.046,0.117 -0.158,0.117c-0.052,0 -0.1,-0.02 -0.1,-0.076c-0,-0.063 0.048,-0.083 0.104,-0.093c0.057,-0.01 0.121,-0.011 0.154,-0.035l0,0.087Zm0.138,0.112c-0.011,0.004 -0.019,0.005 -0.026,0.005c-0.027,0 -0.027,-0.018 -0.027,-0.058l-0,-0.266c-0,-0.121 -0.101,-0.142 -0.194,-0.142c-0.115,0 -0.214,0.045 -0.219,0.173l0.085,-0c0.004,-0.076 0.057,-0.098 0.129,-0.098c0.054,-0 0.115,0.012 0.115,0.086c0,0.064 -0.08,0.058 -0.174,0.076c-0.088,0.017 -0.175,0.042 -0.175,0.159c0,0.103 0.077,0.145 0.171,0.145c0.072,-0 0.135,-0.025 0.182,-0.08c0,0.056 0.028,0.08 0.072,0.08c0.027,-0 0.046,-0.005 0.061,-0.014l-0,-0.066Z" fill="#ac2020" fill-rule="nonzero" transform="matrix(12,0,0,12,243.851,213.245)"/><path d="M0.061,-0l0.085,-0l-0,-0.23c-0,-0.131 0.05,-0.209 0.187,-0.209l-0,-0.09c-0.092,-0.003 -0.149,0.038 -0.19,0.121l-0.002,-0l-0,-0.109l-0.08,0l0,0.517Z" fill="#ac2020" fill-rule="nonzero" transform="matrix(12,0,0,12,250.295,213.245)"/><path d="M0.272,-0.069c-0.112,0 -0.146,-0.104 -0.146,-0.197c-0,-0.099 0.044,-0.188 0.153,-0.188c0.107,-0 0.147,0.094 0.147,0.185c0,0.097 -0.042,0.2 -0.154,0.2Zm0.238,-0.448l-0.08,0l0,0.074l-0.001,-0c-0.031,-0.057 -0.089,-0.086 -0.154,-0.086c-0.179,0 -0.239,0.151 -0.239,0.273c0,0.141 0.077,0.262 0.231,0.262c0.065,-0 0.133,-0.031 0.161,-0.094l0.002,0l0,0.034c0,0.116 -0.044,0.196 -0.155,0.196c-0.056,0 -0.13,-0.022 -0.134,-0.084l-0.085,-0c0.005,0.113 0.117,0.152 0.214,0.152c0.163,-0 0.24,-0.086 0.24,-0.254l-0,-0.473Z" fill="#ac2020" fill-rule="nonzero" transform="matrix(12,0,0,12,253.955,213.245)"/><path d="M0.421,-0.164c-0.015,0.067 -0.064,0.101 -0.134,0.101c-0.113,0 -0.164,-0.08 -0.161,-0.17l0.387,-0c0.005,-0.125 -0.051,-0.296 -0.234,-0.296c-0.141,0 -0.243,0.114 -0.243,0.269c0.005,0.158 0.083,0.272 0.248,0.272c0.116,-0 0.198,-0.062 0.221,-0.176l-0.084,-0Zm-0.295,-0.144c0.006,-0.079 0.059,-0.146 0.148,-0.146c0.084,-0 0.145,0.065 0.149,0.146l-0.297,0Z" fill="#ac2020" fill-rule="nonzero" transform="matrix(12,0,0,12,260.843,213.245)"/><path d="M0.182,-0.672l-0.085,0l0,0.155l-0.088,0l0,0.075l0.088,-0l0,0.329c0,0.095 0.035,0.113 0.123,0.113l0.065,-0l-0,-0.075l-0.039,0c-0.053,0 -0.064,-0.007 -0.064,-0.046l-0,-0.321l0.103,-0l-0,-0.075l-0.103,0l-0,-0.155Z" fill="#ac2020" fill-rule="nonzero" transform="matrix(12,0,0,12,267.287,213.245)"/><rect x="184.511" y="214.145" width="86.556" height="0.6" fill="#ac2020"/></g><path d="M335.062,210.5c1.886,0 3.438,-1.552 3.438,-3.437c-0,-1.886 -1.552,-3.438 -3.438,-3.438c-1.885,0 -3.437,1.552 -3.437,3.438c-0,1.885 1.552,3.437 3.437,3.437Zm4.063,-3.437c0,2.228 -1.834,4.062 -4.063,4.062c-2.228,-0 -4.062,-1.834 -4.062,-4.062c-0,-2.229 1.834,-4.063 4.062,-4.063c2.229,0 4.063,1.834 4.063,4.063Z"/><path d="M337.465,210.339c0.019,0.025 0.039,0.049 0.061,0.072l2.407,2.406c0.117,0.117 0.276,0.183 0.442,0.183c0.343,0 0.625,-0.282 0.625,-0.625c-0,-0.166 -0.066,-0.325 -0.183,-0.442l-2.406,-2.406c-0.023,-0.023 -0.047,-0.044 -0.072,-0.063c-0.245,0.335 -0.54,0.63 -0.874,0.875l-0,-0Z" fill-rule="nonzero"/><path d="M335.062,204.875c0.172,0 0.313,0.141 0.313,0.313l-0,1.562l1.562,0c0.172,0 0.313,0.141 0.313,0.313c-0,0.171 -0.141,0.312 -0.313,0.312l-1.562,0l-0,1.563c-0,0.171 -0.141,0.312 -0.313,0.312c-0.171,0 -0.312,-0.141 -0.312,-0.312l-0,-1.563l-1.563,0c-0.171,0 -0.312,-0.141 -0.312,-0.312c-0,-0.172 0.141,-0.313 0.312,-0.313l1.563,0l-0,-1.562c-0,-0.172 0.141,-0.313 0.312,-0.313Z"/><path d="M290.004,245c-0,1.646 -1.354,3 -3,3c-1.646,-0 -3,-1.354 -3,-3c-0,-1.646 1.354,-3 3,-3c1.646,-0 3,1.354 3,3Z" fill="gray" fill-rule="nonzero"/><path d="M281,238c-1.646,-0 -3,1.354 -3,3l-0,18c-0,1.646 1.354,3 3,3l26,-0c1.646,-0 3,-1.354 3,-3l-0,-18c-0,-1.646 -1.354,-3 -3,-3l-26,-0Zm26,2c0.549,-0 1,0.451 1,1l-0,12l-7.55,-3.894c-0.384,-0.192 -0.85,-0.117 -1.154,0.186l-7.42,7.42l-5.32,-3.544c-0.395,-0.263 -0.924,-0.211 -1.26,0.124l-5.292,4.708l-0,1.08c-0.002,-0.027 -0.004,-0.053 -0.004,-0.08l-0,-18c-0,-0.549 0.451,-1 1,-1l26,-0Z" fill="gray" fill-rule="nonzero"/><path d="M244,200l2,0l-0,1l-1,0l-1,0l-0,-1Zm100,100l-2,-0l0,-1l1,-0l1,-0l-0,1Zm-100,0l0,-2l1,0l0,1l0,1l-1,0Zm0,-98l1,0l-0,1l-1,0l0,-1Zm0,2l1,0l-0,1l-1,0l0,-1Zm0,2l1,0l-0,1l-1,0l0,-1Zm0,2l1,0l-0,1l-1,0l0,-1Zm0,2l1,-0l-0,1l-1,0l0,-1Zm0,2l1,0l-0,1l-1,0l0,-1Zm0,2l1,0l-0,1l-1,-0l0,-1Zm0,2l1,-0l-0,1l-1,-0l0,-1Zm0,2l1,-0l-0,1l-1,0l0,-1Zm0,2l1,-0l-0,1l-1,0l0,-1Zm0,2l1,0l-0,1l-1,0l0,-1Zm0,2l1,0l-0,1l-1,0l0,-1Zm0,2l1,0l-0,1l-1,0l0,-1Zm0,2l1,0l-0,1l-1,0l0,-1Zm0,2l1,0l-0,1l-1,0l0,-1Zm0,2l1,0l-0,1l-1,0l0,-1Zm0,2l1,0l-0,1l-1,0l0,-1Zm0,2l1,0l-0,1l-1,0l0,-1Zm0,2l1,0l-0,1l-1,0l0,-1Zm0,2l1,0l-0,1l-1,0l0,-1Zm0,2l1,0l-0,1l-1,0l0,-1Zm0,2l1,0l-0,1l-1,0l0,-1Zm0,2l1,0l-0,1l-1,0l0,-1Zm0,2l1,0l-0,1l-1,0l0,-1Zm0,2l1,0l-0,1l-1,0l0,-1Zm0,2l1,0l-0,1l-1,0l0,-1Zm0,2l1,0l-0,1l-1,0l0,-1Zm0,2l1,0l-0,1l-1,0l0,-1Zm0,2l1,0l-0,1l-1,-0l0,-1Zm0,2l1,0l-0,1l-1,0l0,-1Zm0,2l1,0l-0,1l-1,0l0,-1Zm0,2l1,0l-0,1l-1,0l0,-1Zm0,2l1,0l-0,1l-1,0l0,-1Zm0,2l1,0l-0,1l-1,0l0,-1Zm0,2l1,0l-0,1l-1,0l0,-1Zm0,2l1,0l-0,1l-1,0l0,-1Zm0,2l1,0l-0,1l-1,0l0,-1Zm0,2l1,0l-0,1l-1,0l0,-1Zm0,2l1,0l-0,1l-1,0l0,-1Zm0,2l1,0l-0,1l-1,0l0,-1Zm0,2l1,0l-0,1l-1,0l0,-1Zm0,2l1,0l-0,1l-1,0l0,-1Zm0,2l1,0l-0,1l-1,0l0,-1Zm0,2l1,0l-0,1l-1,0l0,-1Zm0,2l1,0l-0,1l-1,0l0,-1Zm0,2l1,0l-0,1l-1,0l0,-1Zm0,2l1,0l-0,1l-1,0l0,-1Zm0,2l1,0l-0,1l-1,0l0,-1Zm2,4l0,-1l1,0l0,1l-1,-0Zm2,-0l0,-1l1,0l0,1l-1,-0Zm2,-0l0,-1l1,0l0,1l-1,-0Zm2,-0l0,-1l1,0l0,1l-1,-0Zm2,-0l0,-1l1,0l0,1l-1,-0Zm2,-0l0,-1l1,0l0,1l-1,-0Zm2,-0l0,-1l1,0l0,1l-1,-0Zm2,-0l0,-1l1,0l0,1l-1,-0Zm2,-0l0,-1l1,0l0,1l-1,-0Zm2,-0l0,-1l1,0l0,1l-1,-0Zm2,-0l0,-1l1,0l0,1l-1,-0Zm2,-0l0,-1l1,0l0,1l-1,-0Zm2,-0l0,-1l1,0l0,1l-1,-0Zm2,-0l0,-1l1,0l0,1l-1,-0Zm2,-0l0,-1l1,0l0,1l-1,-0Zm2,-0l0,-1l1,0l0,1l-1,-0Zm2.001,-0l-0,-1l0.999,0l0,1l-0.999,-0Zm1.999,-0l0,-1l1,0l0,1l-1,-0Zm2,-0l0,-1l1,0l0,1l-1,-0Zm2.001,-0l-0,-1l1,0l-0,1l-1,-0Zm2,-0l-0,-1l1,0l-0,1l-1,-0Zm1.999,-0l0,-1l1,0l0,1l-1,-0Zm2,-0l0,-1l1,0l0,1l-1,-0Zm2,-0l0,-1l1,0l0,1l-1,-0Zm2,-0l0,-1l1,0l0,1l-1,-0Zm2,-0l0,-1l1,0l0,1l-1,-0Zm2,-0l0,-1l1,0l0,1l-1,-0Zm2,-0l0,-1l1,0l0,1l-1,-0Zm2,-0l0,-1l1,0l0,1l-1,-0Zm2,-0l0,-1l1,0l0,1l-1,-0Zm2,-0l0,-1l1,0l0,1l-1,-0Zm2,-0l0,-1l1,0l0,1l-1,-0Zm2,-0l0,-1l1,0l0,1l-1,-0Zm2,-0l0,-1l1,0l0,1l-1,-0Zm2,-0l0,-1l1,0l0,1l-1,-0Zm2,-0l0,-1l1,0l0,1l-1,-0Zm2,-0l0,-1l1,0l0,1l-1,-0Zm2,-0l0,-1l1,0l0,1l-1,-0Zm2,-0l0,-1l1,0l0,1l-1,-0Zm2,-0l0,-1l1,0l0,1l-1,-0Zm2,-0l0,-1l1,0l0,1l-1,-0Zm2,-0l0,-1l1,0l0,1l-1,-0Zm2,-0l0,-1l1,0l0,1l-1,-0Zm2,-0l0,-1l1,0l0,1l-1,-0Zm2,-0l0,-1l1,0l0,1l-1,-0Zm2,-0l0,-1l1,0l0,1l-1,-0Zm2,-0l0,-1l1,0l0,1l-1,-0Zm2,-0l0,-1l1,0l0,1l-1,-0Zm4,-2l-1,-0l-0,-1l1,-0l-0,1Zm-0,-2l-1,-0l-0,-1l1,-0l-0,1Zm-0,-2l-1,-0l-0,-1l1,-0l-0,1Zm-0,-2l-1,-0l-0,-1l1,-0l-0,1Zm-0,-2l-1,-0l-0,-1l1,-0l-0,1Zm-0,-2l-1,-0l-0,-1l1,-0l-0,1Zm-0,-2l-1,-0l-0,-1l1,-0l-0,1Zm-0,-2l-1,-0l-0,-1l1,-0l-0,1Zm-0,-2l-1,-0l-0,-1l1,-0l-0,1Zm-0,-2l-1,-0l-0,-1l1,-0l-0,1Zm-0,-2l-1,-0l-0,-1l1,-0l-0,1Zm-0,-2l-1,-0l-0,-1l1,-0l-0,1Zm-0,-2l-1,-0l-0,-1.001l1,0l-0,1.001Zm-0,-2l-1,-0l-0,-1l1,-0l-0,1Zm-0,-2.001l-1,0l-0,-1l1,0l-0,1Zm-0,-2l-1,0l-0,-1l1,0l-0,1Zm-0,-2l-1,0l-0,-1l1,0l-0,1Zm-0,-2l-1,0l-0,-1l1,0l-0,1Zm-0,-2l-1,0l-0,-1l1,0l-0,1Zm-0,-2l-1,0l-0,-1l1,0l-0,1Zm-0,-2l-1,0l-0,-1l1,0l-0,1Zm-0,-2l-1,0l-0,-1l1,0l-0,1Zm-0,-1.999l-1,-0l-0,-1l1,-0l-0,1Zm-0,-2l-1,-0l-0,-1l1,-0l-0,1Zm-0,-2l-1,-0l-0,-1l1,-0l-0,1Zm-0,-2l-1,-0l-0,-1l1,-0l-0,1Zm-0,-2l-1,-0l-0,-1l1,-0l-0,1Zm-0,-2l-1,-0l-0,-1l1,-0l-0,1Zm-0,-2l-1,-0l-0,-1l1,-0l-0,1Zm-0,-2l-1,-0l-0,-1l1,-0l-0,1Zm-0,-2l-1,-0l-0,-1l1,-0l-0,1Zm-0,-2l-1,-0l-0,-1l1,-0l-0,1Zm-0,-2l-1,-0l-0,-1l1,-0l-0,1Zm-0,-2l-1,-0l-0,-1l1,-0l-0,1Zm-0,-2l-1,-0l-0,-1l1,-0l-0,1Zm-0,-2l-1,-0l-0,-1l1,-0l-0,1Zm-0,-2l-1,-0l-0,-1l1,-0l-0,1Zm-0,-2l-1,-0l-0,-1l1,-0l-0,1Zm-0,-2l-1,-0l-0,-1l1,-0l-0,1Zm-0,-2l-1,-0l-0,-1l1,-0l-0,1Zm-0,-2l-1,-0l-0,-1l1,-0l-0,1Zm-0,-2l-1,-0l-0,-1l1,-0l-0,1Zm-0,-2.001l-1,0l-0,-1l1,0l-0,1Zm-0,-2l-1,0l-0,-1l1,0l-0,1Zm-0,-2l-1,0l-0,-1l1,0l-0,1Zm-0,-2l-1,0l-0,-1l1,0l-0,1Zm-0,-2l-1,0l-0,-1l1,0l-0,1Zm-0,-2l-1,0l-0,-1l1,0l-0,1Zm-0,-2l-1,0l-0,-1.999l1,0l-0,1.999Zm-2,-1.999l-0,1l-1,0l0,-1l1,0Zm-2,0l-0,1l-1,0l-0,-1l1,0Zm-2,0l0,1l-1,0l0,-1l1,0Zm-2,0l-0,1l-1,0l0,-1l1,0Zm-2,0l0,1l-1,0l0,-1l1,0Zm-2,0l0,1l-1,0l-0,-1l1,0Zm-2,0l0,1l-1,0l0,-1l1,0Zm-2,0l0,1l-1,0l0,-1l1,0Zm-2,0l0,1l-1,0l0,-1l1,0Zm-2,0l0,1l-1,0l0,-1l1,0Zm-2,0l0,1l-1,0l-0,-1l1,0Zm-2,0l-0,1l-1,0l-0,-1l1,0Zm-2,0l-0,1l-1,0l-0,-1l1,0Zm-2,0l-0,1l-1,0l-0,-1l1,0Zm-2,0l-0,1l-1,0l-0,-1l1,0Zm-2,0l-0,1l-1,0l-0,-1l1,0Zm-2,0l-0,1l-1,0l-0,-1l1,0Zm-2,0l-0,1l-1,0l-0,-1l1,0Zm-2,0l-0,1l-1,0l-0,-1l1,0Zm-2,0l-0,1l-1,0l-0,-1l1,0Zm-2,0l-0,1l-1,0l-0,-1l1,0Zm-2,0l-0,1l-1,0l-0,-1l1,0Zm-2,0l-0,1l-1,0l-0,-1l1,0Zm-2,0l-0,1l-1,0l-0,-1l1,0Zm-2,0l-0,1l-1,0l-0,-1l1,0Zm-2,0l0,1l-1,0l-0,-1l1,0Zm-2,0l0,1l-1,0l0,-1l1,0Zm-2,0l0,1l-1,0l0,-1l1,0Zm-2,0l0,1l-1,0l0,-1l1,0Zm-2,0l0,1l-1,0l-0,-1l1,0Zm-2,0l-0,1l-1,0l0,-1l1,0Zm-2,0l-0,1l-1,0l-0,-1l1,0Zm-2,0l-0,1l-1,0l-0,-1l1,0Zm-2,0l-0,1l-1,0l-0,-1l1,0Zm-2,0l-0,1l-1,0l-0,-1l1,0Zm-2,0l-0,1l-1,0l-0,-1l1,0Zm-2,0l-0,1l-1,0l-0,-1l1,0Zm-2,0l-0,1l-1,0l-0,-1l1,0Zm-2,0l-0,1l-1,0l-0,-1l1,0Zm-2,0l-0,1l-1,0l-0,-1l1,0Zm-2,0l-0,1l-1,0l-0,-1l1,0Zm-2,0l-0,1l-1,0l-0,-1l1,0Zm-2,0l-0,1l-1,0l-0,-1l1,0Zm-2,0l-0,1l-1,0l-0,-1l1,0Zm-2,0l-0,1l-1,0l-0,-1l1,0Zm-2,0l-0,1l-1,0l-0,-1l1,0Zm-2,0l-0,1l-1,0l-0,-1l1,0Zm-2,0l-0,1l-1,0l-0,-1l1,0Z" fill="#ac2020"/><path d="M328,201c0,-0 0.332,-0.638 0.613,-1l0.387,0l0,0.011c0,-0.004 -0,-0.007 -0,-0.011l1,0l0,1l-1,-0l-1,-0Zm0,1l1,-0l-0,1l-1,-0l0,-1Zm0,2l1,-0l-0,1l-1,-0l0,-1Zm0,2l1,-0l-0,1l-1,-0l0,-1Zm0,2l1,-0l-0,1l-1,-0l0,-1Zm0,2l1,-0l-0,1l-1,-0l0,-1Zm0,2l1,-0l-0,1l-1,-0l0,-1Zm0,2l1,-0l-0,1l-0,1l-1,0l0,-1l0.011,-0c-0.004,-0 -0.007,0 -0.011,0l0,-1Zm2,2l-0,-1l1,0l-0,1l-1,-0Zm2,-0l-0,-1l1,0l-0,1l-1,-0Zm2,-0l-0,-1l1,0l-0,1l-1,-0Zm2,-0l-0,-1l1,0l-0,1l-1,-0Zm2,-0l-0,-1l1,0l-0,1l-1,-0Zm2,-0l-0,-1l1,0l-0,1l-1,-0Zm2,-0l-0,-1l1,0l1,0l-0,1l-1,-0l-0,-0.011c-0,0.004 -0,0.007 -0,0.011l-1,-0Zm2,-2l-1,0l-0,-1l1,0l-0,1Zm-0,-2l-1,0l-0,-1l1,0l-0,1Zm-0,-2l-1,0l-0,-1l1,0l-0,1Zm-0,-2l-1,0l-0,-1l1,0l-0,1Zm-0,-2l-1,0l-0,-1l1,0l-0,1Zm-0,-2l-1,0l-0,-1l1,0l-0,1Zm-0,-2l-1,0l-0,-1l-0,-1c-0,0.942 1,1 1,1l-0,1Zm-2,-2l-0,1l-1,0l-0,-1l1,0Zm-2,0l-0,1l-1,0l0,-1l1,0Zm-2,0l0,1l-1,0l0,-1l1,0Zm-2,0l0,1l-1,0l0,-1l1,0Zm-2,0l0,1l-1,0l0,-1l1,0Zm-2,0l0,1l-1,0l0,-1l1,0Z" fill="#6a6bd3"/><circle cx="336" cy="208" r="12" fill="#ca2626" fill-opacity=".2"/><path d="M336,196c6.623,0 12,5.377 12,12c-0,6.623 -5.377,12 -12,12c-6.623,0 -12,-5.377 -12,-12c-0,-6.623 5.377,-12 12,-12Zm-0,1c-6.071,0 -11,4.929 -11,11c-0,6.071 4.929,11 11,11c6.071,0 11,-4.929 11,-11c-0,-6.071 -4.929,-11 -11,-11Z" fill="#ca2626"/></g></svg>