<?xml version="1.0" encoding="UTF-8" standalone="no"?>
<!DOCTYPE svg PUBLIC "-//W3C//DTD SVG 1.1//EN" "http://www.w3.org/Graphics/SVG/1.1/DTD/svg11.dtd">
<svg width="100%" height="100%" viewBox="0 0 785 105" version="1.1" xmlns="http://www.w3.org/2000/svg" xmlns:xlink="http://www.w3.org/1999/xlink" xml:space="preserve" xmlns:serif="http://www.serif.com/" style="fill-rule:evenodd;clip-rule:evenodd;stroke-miterlimit:10;">
    <rect id="target-text-buttons-two-rows" serif:id="target text buttons two rows" x="0" y="0" width="785" height="105" style="fill:none;"/>
    <clipPath id="_clip1">
        <rect id="target-text-buttons-two-rows1" serif:id="target text buttons two rows" x="0" y="0" width="785" height="105"/>
    </clipPath>
    <g clip-path="url(#_clip1)">
        <rect id="background" x="-0" y="0" width="785" height="105" style="fill:#fff;"/>
        <g id="buttons-with-measurements" serif:id="buttons with measurements">
            <path d="M49.5,42.5l-8,-0" style="fill:none;stroke:#000;stroke-width:1px;"/>
            <path d="M49.5,57.5l-8,-0" style="fill:none;stroke:#000;stroke-width:1px;"/>
            <path d="M45.5,42.5l-0,15" style="fill:none;stroke:#000;stroke-width:1px;stroke-miterlimit:1;"/>
            <path d="M49.5,59.5l-8,-0" style="fill:none;stroke:#000;stroke-width:1px;"/>
            <path d="M49.5,74.5l-8,-0" style="fill:none;stroke:#000;stroke-width:1px;"/>
            <path d="M45.5,59.5l-0,15" style="fill:none;stroke:#000;stroke-width:1px;stroke-miterlimit:1;"/>
            <path d="M15.595,45.269l-0.779,0c-0.227,1.284 -1.283,1.596 -2.447,1.596l-0,0.815l2.208,-0l-0,6.096l1.018,-0l0,-8.507Z" style="fill-rule:nonzero;"/>
            <path d="M21.428,49.204c1.165,-0 1.717,0.876 1.717,1.932c-0,1.009 -0.612,1.885 -1.717,1.885c-1.116,0 -1.765,-0.84 -1.765,-1.897c0,-1.068 0.625,-1.92 1.765,-1.92Zm2.555,-1.764c-0.12,-1.38 -0.994,-2.171 -2.399,-2.171c-2.424,0 -3.131,2.22 -3.131,4.559c-0,1.789 0.407,4.092 2.927,4.092c2.148,-0 2.843,-1.619 2.843,-2.856c0,-1.572 -0.97,-2.759 -2.603,-2.759c-0.924,0 -1.645,0.336 -2.125,1.115l-0.024,-0.024c0.048,-1.307 0.324,-3.228 2.065,-3.228c0.804,-0 1.333,0.504 1.429,1.272l1.018,0Z" style="fill-rule:nonzero;"/>
            <path d="M30.273,50.62c-0,1.213 -0.468,2.401 -1.861,2.401c-1.405,0 -1.957,-1.128 -1.957,-2.353c0,-1.164 0.528,-2.34 1.897,-2.34c1.321,-0 1.921,1.128 1.921,2.292Zm-4.8,5.532l1.018,-0l0,-3.203l0.024,0c0.456,0.731 1.369,0.971 2.005,0.971c1.897,-0 2.831,-1.475 2.831,-3.228c0,-1.752 -0.946,-3.263 -2.855,-3.263c-0.852,0 -1.645,0.3 -1.981,0.983l-0.024,-0l0,-0.839l-1.018,0l-0,8.579Z" style="fill-rule:nonzero;"/>
            <path d="M31.893,53.776l1.235,-0l1.728,-2.578l1.728,2.578l1.307,-0l-2.399,-3.36l2.135,-2.843l-1.223,0l-1.548,2.162l-1.488,-2.162l-1.307,0l2.159,2.939l-2.327,3.264Z" style="fill-rule:nonzero;"/>
            <path d="M15.595,62.269l-0.779,0c-0.227,1.284 -1.283,1.596 -2.447,1.596l-0,0.815l2.208,-0l-0,6.096l1.018,-0l0,-8.507Z" style="fill-rule:nonzero;"/>
            <path d="M21.428,66.204c1.165,-0 1.717,0.876 1.717,1.932c-0,1.009 -0.612,1.885 -1.717,1.885c-1.116,0 -1.765,-0.84 -1.765,-1.897c0,-1.068 0.625,-1.92 1.765,-1.92Zm2.555,-1.764c-0.12,-1.38 -0.994,-2.171 -2.399,-2.171c-2.424,0 -3.131,2.22 -3.131,4.559c-0,1.789 0.407,4.092 2.927,4.092c2.148,-0 2.843,-1.619 2.843,-2.856c0,-1.572 -0.97,-2.759 -2.603,-2.759c-0.924,0 -1.645,0.336 -2.125,1.115l-0.024,-0.024c0.048,-1.307 0.324,-3.228 2.065,-3.228c0.804,-0 1.333,0.504 1.429,1.272l1.018,0Z" style="fill-rule:nonzero;"/>
            <path d="M30.273,67.62c-0,1.213 -0.468,2.401 -1.861,2.401c-1.405,0 -1.957,-1.128 -1.957,-2.353c0,-1.164 0.528,-2.34 1.897,-2.34c1.321,-0 1.921,1.128 1.921,2.292Zm-4.8,5.532l1.018,-0l0,-3.203l0.024,0c0.456,0.731 1.369,0.971 2.005,0.971c1.897,-0 2.831,-1.475 2.831,-3.228c0,-1.752 -0.946,-3.263 -2.855,-3.263c-0.852,0 -1.645,0.3 -1.981,0.983l-0.024,-0l0,-0.839l-1.018,0l-0,8.579Z" style="fill-rule:nonzero;"/>
            <path d="M31.893,70.776l1.235,-0l1.728,-2.578l1.728,2.578l1.307,-0l-2.399,-3.36l2.135,-2.843l-1.223,0l-1.548,2.162l-1.488,-2.162l-1.307,0l2.159,2.939l-2.327,3.264Z" style="fill-rule:nonzero;"/>
            <g id="Close">
                <rect x="55" y="42" width="44" height="16" style="fill:#e0e0ea;"/>
                <path d="M99,42l-0,16l-44,0l-0,-16l44,-0Zm-1,1l-42,0l-0,14l42,-0l-0,-14Z" style="fill:#6a6bd3;"/>
                <path d="M69.769,47.58c-0.263,-1.825 -1.738,-2.783 -3.527,-2.783c-2.641,-0 -4.055,2.026 -4.055,4.511c-0,2.497 1.294,4.463 3.959,4.463c2.161,0 3.492,-1.294 3.707,-3.431l-1.138,0c-0.108,1.417 -0.973,2.473 -2.473,2.473c-2.053,-0 -2.917,-1.633 -2.917,-3.589c0,-1.788 0.864,-3.469 2.905,-3.469c1.188,0 2.161,0.612 2.401,1.825l1.138,-0Z" style="fill-rule:nonzero;"/>
                <rect x="71.163" y="45.001" width="1.019" height="8.567" style="fill-rule:nonzero;"/>
                <path d="M73.431,50.472c-0,1.813 1.042,3.239 3.011,3.239c1.969,0 3.011,-1.426 3.011,-3.239c0,-1.825 -1.042,-3.251 -3.011,-3.251c-1.969,-0 -3.011,1.426 -3.011,3.251Zm1.078,0c0,-1.512 0.865,-2.353 1.933,-2.353c1.068,0 1.933,0.841 1.933,2.353c-0,1.5 -0.865,2.341 -1.933,2.341c-1.068,-0 -1.933,-0.841 -1.933,-2.341Z" style="fill-rule:nonzero;"/>
                <path d="M80.259,51.612c0.06,1.536 1.234,2.099 2.627,2.099c1.261,0 2.639,-0.479 2.639,-1.955c0,-1.2 -1.006,-1.536 -2.027,-1.764c-0.948,-0.228 -2.029,-0.348 -2.029,-1.08c0,-0.625 0.709,-0.793 1.321,-0.793c0.672,0 1.369,0.252 1.441,1.045l1.018,-0c-0.084,-1.512 -1.174,-1.943 -2.543,-1.943c-1.081,-0 -2.315,0.515 -2.315,1.763c-0,1.188 1.018,1.524 2.027,1.752c1.02,0.228 2.029,0.36 2.029,1.152c-0,0.781 -0.865,0.925 -1.501,0.925c-0.84,-0 -1.633,-0.288 -1.669,-1.201l-1.018,0Z" style="fill-rule:nonzero;"/>
                <path d="M90.939,51.6c-0.18,0.804 -0.769,1.213 -1.609,1.213c-1.357,-0 -1.969,-0.961 -1.933,-2.042l4.644,0c0.06,-1.499 -0.611,-3.55 -2.807,-3.55c-1.693,-0 -2.915,1.367 -2.915,3.227c0.06,1.896 0.994,3.263 2.975,3.263c1.393,0 2.376,-0.743 2.651,-2.111l-1.006,-0Zm-3.542,-1.727c0.072,-0.949 0.709,-1.754 1.777,-1.754c1.008,0 1.741,0.781 1.789,1.754l-3.566,-0Z" style="fill-rule:nonzero;"/>
            </g>
            <g id="Save">
                <rect x="100" y="42" width="44" height="16" style="fill:#e0e0ea;"/>
                <path d="M144,42l0,16l-44,0l0,-16l44,-0Zm-1,1l-42,0l-0,14l42,-0l-0,-14Z" style="fill:#6a6bd3;"/>
                <path d="M115.639,47.508c-0.072,-1.885 -1.402,-2.711 -3.155,-2.711c-1.561,-0 -3.107,0.767 -3.107,2.507c-0,1.572 1.378,1.968 2.747,2.268c1.368,0.3 2.737,0.504 2.737,1.68c-0,1.237 -1.141,1.561 -2.173,1.561c-1.296,-0 -2.497,-0.624 -2.497,-2.065l-1.078,0c-0,2.089 1.618,3.023 3.539,3.023c1.561,0 3.347,-0.731 3.347,-2.555c0,-1.68 -1.366,-2.16 -2.735,-2.472c-1.38,-0.312 -2.749,-0.468 -2.749,-1.524c0,-1.117 0.961,-1.465 1.921,-1.465c1.176,0 1.993,0.528 2.125,1.753l1.078,-0Z" style="fill-rule:nonzero;"/>
                <path d="M121.053,51.408c-0,0.564 -0.553,1.405 -1.897,1.405c-0.624,-0 -1.201,-0.24 -1.201,-0.913c0,-0.756 0.577,-0.996 1.249,-1.116c0.684,-0.12 1.453,-0.132 1.849,-0.42l-0,1.044Zm1.654,1.345c-0.132,0.048 -0.228,0.06 -0.312,0.06c-0.324,-0 -0.324,-0.216 -0.324,-0.696l0,-3.193c0,-1.452 -1.21,-1.703 -2.327,-1.703c-1.381,-0 -2.567,0.539 -2.627,2.075l1.018,-0c0.048,-0.913 0.685,-1.177 1.549,-1.177c0.648,0 1.381,0.144 1.381,1.033c-0,0.768 -0.961,0.696 -2.089,0.912c-1.057,0.204 -2.099,0.504 -2.099,1.908c-0,1.236 0.922,1.739 2.051,1.739c0.864,0 1.621,-0.299 2.185,-0.958c-0,0.671 0.335,0.958 0.862,0.958c0.324,0 0.552,-0.06 0.732,-0.167l0,-0.791Z" style="fill-rule:nonzero;"/>
                <path d="M128.719,47.365l-1.067,-0l-1.692,5.172l-0.024,-0l-1.74,-5.172l-1.139,-0l2.303,6.202l1.092,0l2.267,-6.202Z" style="fill-rule:nonzero;"/>
                <path d="M133.941,51.6c-0.18,0.804 -0.769,1.213 -1.609,1.213c-1.357,-0 -1.969,-0.961 -1.933,-2.042l4.644,0c0.06,-1.499 -0.611,-3.55 -2.807,-3.55c-1.693,-0 -2.915,1.367 -2.915,3.227c0.06,1.896 0.994,3.263 2.975,3.263c1.393,0 2.376,-0.743 2.651,-2.111l-1.006,-0Zm-3.542,-1.727c0.072,-0.949 0.709,-1.754 1.777,-1.754c1.008,0 1.741,0.781 1.789,1.754l-3.566,-0Z" style="fill-rule:nonzero;"/>
            </g>
            <g id="Cancel">
                <rect x="145" y="42" width="58" height="16" style="fill:#e0e0ea;"/>
                <path d="M203,42l-0,16l-58,0l-0,-16l58,-0Zm-1,1l-56,0c-0,0 0,14 -0,14l56,-0l-0,-14Z" style="fill:#6a6bd3;"/>
                <path d="M164.433,47.58c-0.263,-1.825 -1.738,-2.783 -3.527,-2.783c-2.641,-0 -4.055,2.026 -4.055,4.511c-0,2.497 1.294,4.463 3.959,4.463c2.161,0 3.492,-1.294 3.707,-3.431l-1.138,0c-0.108,1.417 -0.973,2.473 -2.473,2.473c-2.053,-0 -2.917,-1.633 -2.917,-3.589c0,-1.788 0.864,-3.469 2.905,-3.469c1.188,0 2.161,0.612 2.401,1.825l1.138,-0Z" style="fill-rule:nonzero;"/>
                <path d="M169.607,51.408c-0,0.564 -0.553,1.405 -1.897,1.405c-0.624,-0 -1.201,-0.24 -1.201,-0.913c0,-0.756 0.577,-0.996 1.249,-1.116c0.684,-0.12 1.453,-0.132 1.849,-0.42l-0,1.044Zm1.654,1.345c-0.132,0.048 -0.228,0.06 -0.312,0.06c-0.324,-0 -0.324,-0.216 -0.324,-0.696l0,-3.193c0,-1.452 -1.21,-1.703 -2.327,-1.703c-1.381,-0 -2.567,0.539 -2.627,2.075l1.018,-0c0.048,-0.913 0.685,-1.177 1.549,-1.177c0.648,0 1.381,0.144 1.381,1.033c-0,0.768 -0.961,0.696 -2.089,0.912c-1.057,0.204 -2.099,0.504 -2.099,1.908c-0,1.236 0.922,1.739 2.051,1.739c0.864,0 1.621,-0.299 2.185,-0.958c-0,0.671 0.335,0.958 0.862,0.958c0.324,0 0.552,-0.06 0.732,-0.167l0,-0.791Z" style="fill-rule:nonzero;"/>
                <path d="M172.211,53.567l1.018,0l0,-3.504c0,-1.116 0.601,-1.944 1.837,-1.944c0.781,0 1.261,0.492 1.261,1.248l-0,4.2l1.018,0l0,-4.08c0,-1.332 -0.503,-2.266 -2.135,-2.266c-0.888,-0 -1.585,0.359 -2.017,1.126l-0.024,0l0,-0.982l-0.958,-0l-0,6.202Z" style="fill-rule:nonzero;"/>
                <path d="M184.149,49.356c-0.144,-1.476 -1.272,-2.135 -2.676,-2.135c-1.968,-0 -2.926,1.462 -2.926,3.323c-0,1.849 1.006,3.167 2.902,3.167c1.56,0 2.508,-0.898 2.736,-2.411l-1.044,0c-0.132,0.937 -0.72,1.513 -1.704,1.513c-1.296,-0 -1.812,-1.129 -1.812,-2.269c0,-1.26 0.456,-2.425 1.932,-2.425c0.84,0 1.38,0.456 1.536,1.237l1.056,-0Z" style="fill-rule:nonzero;"/>
                <path d="M189.611,51.6c-0.18,0.804 -0.769,1.213 -1.609,1.213c-1.357,-0 -1.969,-0.961 -1.933,-2.042l4.644,0c0.06,-1.499 -0.611,-3.55 -2.807,-3.55c-1.693,-0 -2.915,1.367 -2.915,3.227c0.06,1.896 0.994,3.263 2.975,3.263c1.393,0 2.376,-0.743 2.651,-2.111l-1.006,-0Zm-3.542,-1.727c0.072,-0.949 0.709,-1.754 1.777,-1.754c1.008,0 1.741,0.781 1.789,1.754l-3.566,-0Z" style="fill-rule:nonzero;"/>
                <rect x="191.831" y="45.001" width="1.018" height="8.567" style="fill-rule:nonzero;"/>
            </g>
            <g id="Export">
                <rect x="204" y="42" width="52" height="16" style="fill:#e0e0ea;"/>
                <path d="M256,42l-0,16l-52,0l-0,-16l52,-0Zm-1,1l-50,0c-0,0 -0,14 -0,14l50,-0l0,-14Z" style="fill:#6a6bd3;"/>
                <path d="M213.273,53.567l5.95,0l0,-0.958l-4.812,-0l0,-2.966l4.452,0l0,-0.958l-4.452,-0l0,-2.726l4.776,0l0,-0.958l-5.914,-0l-0,8.566Z" style="fill-rule:nonzero;"/>
                <path d="M219.777,53.567l1.235,0l1.728,-2.577l1.728,2.577l1.307,0l-2.399,-3.36l2.135,-2.842l-1.223,-0l-1.548,2.161l-1.488,-2.161l-1.307,-0l2.159,2.938l-2.327,3.264Z" style="fill-rule:nonzero;"/>
                <path d="M231.489,50.412c-0,1.212 -0.468,2.401 -1.861,2.401c-1.405,-0 -1.957,-1.129 -1.957,-2.353c0,-1.164 0.528,-2.341 1.897,-2.341c1.321,0 1.921,1.129 1.921,2.293Zm-4.8,5.531l1.018,0l0,-3.202l0.024,-0c0.456,0.731 1.369,0.97 2.005,0.97c1.897,0 2.831,-1.474 2.831,-3.227c0,-1.753 -0.946,-3.263 -2.855,-3.263c-0.852,-0 -1.645,0.299 -1.981,0.982l-0.024,0l0,-0.838l-1.018,-0l-0,8.578Z" style="fill-rule:nonzero;"/>
                <path d="M233.433,50.472c-0,1.813 1.042,3.239 3.011,3.239c1.969,0 3.011,-1.426 3.011,-3.239c0,-1.825 -1.042,-3.251 -3.011,-3.251c-1.969,-0 -3.011,1.426 -3.011,3.251Zm1.078,0c0,-1.512 0.865,-2.353 1.933,-2.353c1.068,0 1.933,0.841 1.933,2.353c-0,1.5 -0.865,2.341 -1.933,2.341c-1.068,-0 -1.933,-0.841 -1.933,-2.341Z" style="fill-rule:nonzero;"/>
                <path d="M240.621,53.567l1.018,0l0,-2.76c0,-1.572 0.6,-2.508 2.244,-2.508l0,-1.078c-1.104,-0.036 -1.788,0.455 -2.28,1.45l-0.024,0l0,-1.306l-0.958,-0l-0,6.202Z" style="fill-rule:nonzero;"/>
                <path d="M246.067,45.505l-1.018,-0l-0,1.86l-1.056,-0l-0,0.898l1.056,0l-0,3.95c-0,1.139 0.419,1.354 1.474,1.354l0.78,0l0,-0.898l-0.468,-0c-0.636,-0 -0.768,-0.084 -0.768,-0.552l0,-3.854l1.236,0l0,-0.898l-1.236,-0l0,-1.86Z" style="fill-rule:nonzero;"/>
            </g>
            <g id="Push">
                <rect x="257" y="42" width="38" height="16" style="fill:#e0e0ea;"/>
                <path d="M295,42l-0,16l-38,0l-0,-16l38,-0Zm-1,1l-36,0l0,14l36,-0l0,-14Z" style="fill:#6a6bd3;"/>
                <path d="M263.877,53.567l1.138,0l0,-3.504l2.617,0c1.704,0.012 2.627,-0.946 2.627,-2.531c0,-1.585 -0.923,-2.531 -2.627,-2.531l-3.755,-0l-0,8.566Zm1.138,-7.608l2.233,0c1.285,0 1.873,0.553 1.873,1.573c-0,1.02 -0.588,1.585 -1.873,1.573l-2.233,-0l0,-3.146Z" style="fill-rule:nonzero;"/>
                <path d="M276.619,47.365l-1.018,-0l-0,3.504c-0,1.116 -0.601,1.944 -1.837,1.944c-0.781,-0 -1.261,-0.492 -1.261,-1.248l0,-4.2l-1.018,-0l-0,4.08c-0,1.332 0.503,2.266 2.135,2.266c0.888,0 1.585,-0.359 2.017,-1.126l0.024,-0l-0,0.982l0.958,0l0,-6.202Z" style="fill-rule:nonzero;"/>
                <path d="M277.761,51.612c0.06,1.536 1.234,2.099 2.627,2.099c1.261,0 2.639,-0.479 2.639,-1.955c0,-1.2 -1.006,-1.536 -2.027,-1.764c-0.948,-0.228 -2.029,-0.348 -2.029,-1.08c0,-0.625 0.709,-0.793 1.321,-0.793c0.672,0 1.369,0.252 1.441,1.045l1.018,-0c-0.084,-1.512 -1.174,-1.943 -2.543,-1.943c-1.081,-0 -2.315,0.515 -2.315,1.763c-0,1.188 1.018,1.524 2.027,1.752c1.02,0.228 2.029,0.36 2.029,1.152c-0,0.781 -0.865,0.925 -1.501,0.925c-0.84,-0 -1.633,-0.288 -1.669,-1.201l-1.018,0Z" style="fill-rule:nonzero;"/>
                <path d="M284.157,53.567l1.018,0l0,-3.504c0,-1.116 0.601,-1.944 1.837,-1.944c0.781,0 1.261,0.492 1.261,1.248l-0,4.2l1.018,0l0,-4.08c0,-1.332 -0.503,-2.266 -2.135,-2.266c-0.744,-0 -1.621,0.311 -1.957,1.054l-0.024,0l0,-3.274l-1.018,-0l-0,8.566Z" style="fill-rule:nonzero;"/>
            </g>
            <g id="Convert">
                <rect x="55" y="59" width="58" height="16" style="fill:#e0e0ea;"/>
                <path d="M113,59l-0,16l-58,-0l-0,-16l58,-0Zm-1,1l-56,0c-0,0 -0,14 -0,14l56,-0l-0,-14Z" style="fill:#6a6bd3;"/>
                <path d="M71.877,64.58c-0.263,-1.825 -1.738,-2.783 -3.527,-2.783c-2.641,-0 -4.055,2.026 -4.055,4.511c-0,2.497 1.294,4.463 3.959,4.463c2.161,0 3.492,-1.294 3.707,-3.431l-1.138,0c-0.108,1.417 -0.973,2.473 -2.473,2.473c-2.053,-0 -2.917,-1.633 -2.917,-3.589c0,-1.788 0.864,-3.469 2.905,-3.469c1.188,0 2.161,0.612 2.401,1.825l1.138,-0Z" style="fill-rule:nonzero;"/>
                <path d="M72.875,67.472c-0,1.813 1.042,3.239 3.011,3.239c1.969,0 3.011,-1.426 3.011,-3.239c0,-1.825 -1.042,-3.251 -3.011,-3.251c-1.969,-0 -3.011,1.426 -3.011,3.251Zm1.078,0c0,-1.512 0.865,-2.353 1.933,-2.353c1.068,0 1.933,0.841 1.933,2.353c-0,1.5 -0.865,2.341 -1.933,2.341c-1.068,-0 -1.933,-0.841 -1.933,-2.341Z" style="fill-rule:nonzero;"/>
                <path d="M80.099,70.567l1.018,0l0,-3.504c0,-1.116 0.601,-1.944 1.837,-1.944c0.781,0 1.261,0.492 1.261,1.248l-0,4.2l1.018,0l0,-4.08c0,-1.332 -0.503,-2.266 -2.135,-2.266c-0.888,-0 -1.585,0.359 -2.017,1.126l-0.024,0l0,-0.982l-0.958,-0l-0,6.202Z" style="fill-rule:nonzero;"/>
                <path d="M91.833,64.365l-1.067,-0l-1.692,5.172l-0.024,-0l-1.74,-5.172l-1.139,-0l2.303,6.202l1.092,0l2.267,-6.202Z" style="fill-rule:nonzero;"/>
                <path d="M97.055,68.6c-0.18,0.804 -0.769,1.213 -1.609,1.213c-1.357,-0 -1.969,-0.961 -1.933,-2.042l4.644,0c0.06,-1.499 -0.611,-3.55 -2.807,-3.55c-1.693,-0 -2.915,1.367 -2.915,3.227c0.06,1.896 0.994,3.263 2.975,3.263c1.393,0 2.376,-0.743 2.651,-2.111l-1.006,-0Zm-3.542,-1.727c0.072,-0.949 0.709,-1.754 1.777,-1.754c1.008,0 1.741,0.781 1.789,1.754l-3.566,-0Z" style="fill-rule:nonzero;"/>
                <path d="M99.179,70.567l1.018,0l0,-2.76c0,-1.572 0.6,-2.508 2.244,-2.508l0,-1.078c-1.104,-0.036 -1.788,0.455 -2.28,1.45l-0.024,0l0,-1.306l-0.958,-0l-0,6.202Z" style="fill-rule:nonzero;"/>
                <path d="M104.625,62.505l-1.018,-0l-0,1.86l-1.056,-0l-0,0.898l1.056,0l-0,3.95c-0,1.139 0.419,1.354 1.474,1.354l0.78,0l0,-0.898l-0.468,-0c-0.636,-0 -0.768,-0.084 -0.768,-0.552l0,-3.854l1.236,0l0,-0.898l-1.236,-0l0,-1.86Z" style="fill-rule:nonzero;"/>
            </g>
            <g id="Open">
                <rect x="114" y="59" width="44" height="16" style="fill:#e0e0ea;"/>
                <path d="M158,59l0,16l-44,-0l0,-16l44,-0Zm-1,1l-42,0l-0,14l42,-0l-0,-14Z" style="fill:#6a6bd3;"/>
                <path d="M121.781,66.284c-0,2.328 1.378,4.487 4.103,4.487c2.725,0 4.103,-2.159 4.103,-4.487c0,-2.329 -1.378,-4.487 -4.103,-4.487c-2.725,-0 -4.103,2.158 -4.103,4.487Zm1.138,-0c0,-1.728 0.876,-3.529 2.965,-3.529c2.089,0 2.965,1.801 2.965,3.529c-0,1.728 -0.876,3.529 -2.965,3.529c-2.089,-0 -2.965,-1.801 -2.965,-3.529Z" style="fill-rule:nonzero;"/>
                <path d="M136.049,67.412c-0,1.212 -0.468,2.401 -1.861,2.401c-1.405,-0 -1.957,-1.129 -1.957,-2.353c0,-1.164 0.528,-2.341 1.897,-2.341c1.321,0 1.921,1.129 1.921,2.293Zm-4.8,5.531l1.018,0l0,-3.202l0.024,-0c0.456,0.731 1.369,0.97 2.005,0.97c1.897,0 2.831,-1.474 2.831,-3.227c0,-1.753 -0.946,-3.263 -2.855,-3.263c-0.852,-0 -1.645,0.299 -1.981,0.982l-0.024,0l0,-0.838l-1.018,-0l-0,8.578Z" style="fill-rule:nonzero;"/>
                <path d="M142.613,68.6c-0.18,0.804 -0.769,1.213 -1.609,1.213c-1.357,-0 -1.969,-0.961 -1.933,-2.042l4.644,0c0.06,-1.499 -0.611,-3.55 -2.807,-3.55c-1.693,-0 -2.915,1.367 -2.915,3.227c0.06,1.896 0.994,3.263 2.975,3.263c1.393,0 2.376,-0.743 2.651,-2.111l-1.006,-0Zm-3.542,-1.727c0.072,-0.949 0.709,-1.754 1.777,-1.754c1.008,0 1.741,0.781 1.789,1.754l-3.566,-0Z" style="fill-rule:nonzero;"/>
                <path d="M144.773,70.567l1.018,0l0,-3.504c0,-1.116 0.601,-1.944 1.837,-1.944c0.781,0 1.261,0.492 1.261,1.248l-0,4.2l1.018,0l0,-4.08c0,-1.332 -0.503,-2.266 -2.135,-2.266c-0.888,-0 -1.585,0.359 -2.017,1.126l-0.024,0l0,-0.982l-0.958,-0l-0,6.202Z" style="fill-rule:nonzero;"/>
            </g>
            <g id="Merge">
                <rect x="159" y="59" width="52" height="16" style="fill:#e0e0ea;"/>
                <path d="M211,59l-0,16l-52,-0l-0,-16l52,-0Zm-1,1l-50,0c-0,0 -0,14 -0,14l50,-0l0,-14Z" style="fill:#6a6bd3;"/>
                <path d="M169.017,70.567l1.078,0l0,-7.128l0.024,0l2.677,7.128l0.972,0l2.677,-7.128l0.024,0l-0,7.128l1.078,0l0,-8.566l-1.558,-0l-2.713,7.2l-2.701,-7.2l-1.558,-0l-0,8.566Z" style="fill-rule:nonzero;"/>
                <path d="M183.561,68.6c-0.18,0.804 -0.769,1.213 -1.609,1.213c-1.357,-0 -1.969,-0.961 -1.933,-2.042l4.644,0c0.06,-1.499 -0.611,-3.55 -2.807,-3.55c-1.693,-0 -2.915,1.367 -2.915,3.227c0.06,1.896 0.994,3.263 2.975,3.263c1.393,0 2.376,-0.743 2.651,-2.111l-1.006,-0Zm-3.542,-1.727c0.072,-0.949 0.709,-1.754 1.777,-1.754c1.008,0 1.741,0.781 1.789,1.754l-3.566,-0Z" style="fill-rule:nonzero;"/>
                <path d="M185.685,70.567l1.018,0l0,-2.76c0,-1.572 0.6,-2.508 2.244,-2.508l0,-1.078c-1.104,-0.036 -1.788,0.455 -2.28,1.45l-0.024,0l0,-1.306l-0.958,-0l-0,6.202Z" style="fill-rule:nonzero;"/>
                <path d="M191.876,69.741c-1.345,-0 -1.753,-1.249 -1.753,-2.365c0,-1.188 0.528,-2.257 1.837,-2.257c1.285,0 1.765,1.129 1.765,2.221c-0,1.164 -0.504,2.401 -1.849,2.401Zm2.855,-5.376l-0.958,-0l-0,0.886l-0.012,0c-0.372,-0.683 -1.069,-1.03 -1.849,-1.03c-2.148,-0 -2.867,1.811 -2.867,3.275c-0,1.693 0.922,3.143 2.771,3.143c0.78,0 1.597,-0.371 1.933,-1.126l0.024,-0l-0,0.407c-0,1.392 -0.528,2.353 -1.861,2.353c-0.672,-0 -1.561,-0.264 -1.609,-1.009l-1.018,-0c0.06,1.356 1.402,1.823 2.567,1.823c1.957,0 2.879,-1.03 2.879,-3.047l0,-5.675Z" style="fill-rule:nonzero;"/>
                <path d="M200.553,68.6c-0.18,0.804 -0.769,1.213 -1.609,1.213c-1.357,-0 -1.969,-0.961 -1.933,-2.042l4.644,0c0.06,-1.499 -0.611,-3.55 -2.807,-3.55c-1.693,-0 -2.915,1.367 -2.915,3.227c0.06,1.896 0.994,3.263 2.975,3.263c1.393,0 2.376,-0.743 2.651,-2.111l-1.006,-0Zm-3.542,-1.727c0.072,-0.949 0.709,-1.754 1.777,-1.754c1.008,0 1.741,0.781 1.789,1.754l-3.566,-0Z" style="fill-rule:nonzero;"/>
            </g>
            <g id="Edit">
                <rect x="212" y="59" width="38" height="16" style="fill:#e0e0ea;"/>
                <path d="M250,59l-0,16l-38,-0l-0,-16l38,-0Zm-1,1l-36,0l0,14l36,-0l0,-14Z" style="fill:#6a6bd3;"/>
                <path d="M221.991,70.567l5.95,0l0,-0.958l-4.812,-0l0,-2.966l4.452,0l0,-0.958l-4.452,-0l0,-2.726l4.776,0l0,-0.958l-5.914,-0l-0,8.566Z" style="fill-rule:nonzero;"/>
                <path d="M234.697,62.001l-1.018,-0l-0,3.19l-0.024,0c-0.456,-0.731 -1.369,-0.97 -2.005,-0.97c-1.897,-0 -2.831,1.474 -2.831,3.227c-0,1.753 0.946,3.263 2.855,3.263c0.852,0 1.645,-0.299 1.981,-0.982l0.024,-0l-0,0.838l1.018,0l0,-8.566Zm-4.8,5.519c0,-1.212 0.468,-2.401 1.861,-2.401c1.405,0 1.957,1.129 1.957,2.353c-0,1.164 -0.528,2.341 -1.897,2.341c-1.321,-0 -1.921,-1.129 -1.921,-2.293Z" style="fill-rule:nonzero;"/>
                <path d="M236.331,70.567l1.018,0l0,-6.202l-1.018,-0l-0,6.202Zm1.018,-8.566l-1.018,-0l-0,1.246l1.018,0l0,-1.246Z" style="fill-rule:nonzero;"/>
                <path d="M240.349,62.505l-1.018,-0l-0,1.86l-1.056,-0l-0,0.898l1.056,0l-0,3.95c-0,1.139 0.419,1.354 1.474,1.354l0.78,0l0,-0.898l-0.468,-0c-0.636,-0 -0.768,-0.084 -0.768,-0.552l0,-3.854l1.236,0l0,-0.898l-1.236,-0l0,-1.86Z" style="fill-rule:nonzero;"/>
            </g>
            <g id="Stash">
                <rect x="251" y="59" width="44" height="16" style="fill:#e0e0ea;"/>
                <path d="M295,59l0,16l-44,-0l0,-16l44,-0Zm-1,1l-42,0l-0,14l42,-0l-0,-14Z" style="fill:#6a6bd3;"/>
                <path d="M264.635,64.508c-0.072,-1.885 -1.402,-2.711 -3.155,-2.711c-1.561,-0 -3.107,0.767 -3.107,2.507c-0,1.572 1.378,1.968 2.747,2.268c1.368,0.3 2.737,0.504 2.737,1.68c-0,1.237 -1.141,1.561 -2.173,1.561c-1.296,-0 -2.497,-0.624 -2.497,-2.065l-1.078,0c-0,2.089 1.618,3.023 3.539,3.023c1.561,0 3.347,-0.731 3.347,-2.555c0,-1.68 -1.366,-2.16 -2.735,-2.472c-1.38,-0.312 -2.749,-0.468 -2.749,-1.524c0,-1.117 0.961,-1.465 1.921,-1.465c1.176,0 1.993,0.528 2.125,1.753l1.078,-0Z" style="fill-rule:nonzero;"/>
                <path d="M267.623,62.505l-1.018,-0l-0,1.86l-1.056,-0l-0,0.898l1.056,0l-0,3.95c-0,1.139 0.419,1.354 1.474,1.354l0.78,0l0,-0.898l-0.468,-0c-0.636,-0 -0.768,-0.084 -0.768,-0.552l0,-3.854l1.236,0l0,-0.898l-1.236,-0l0,-1.86Z" style="fill-rule:nonzero;"/>
                <path d="M273.829,68.408c-0,0.564 -0.553,1.405 -1.897,1.405c-0.624,-0 -1.201,-0.24 -1.201,-0.913c0,-0.756 0.577,-0.996 1.249,-1.116c0.684,-0.12 1.453,-0.132 1.849,-0.42l-0,1.044Zm1.654,1.345c-0.132,0.048 -0.228,0.06 -0.312,0.06c-0.324,-0 -0.324,-0.216 -0.324,-0.696l0,-3.193c0,-1.452 -1.21,-1.703 -2.327,-1.703c-1.381,-0 -2.567,0.539 -2.627,2.075l1.018,-0c0.048,-0.913 0.685,-1.177 1.549,-1.177c0.648,0 1.381,0.144 1.381,1.033c-0,0.768 -0.961,0.696 -2.089,0.912c-1.057,0.204 -2.099,0.504 -2.099,1.908c-0,1.236 0.922,1.739 2.051,1.739c0.864,0 1.621,-0.299 2.185,-0.958c-0,0.671 0.335,0.958 0.862,0.958c0.324,0 0.552,-0.06 0.732,-0.167l0,-0.791Z" style="fill-rule:nonzero;"/>
                <path d="M276.037,68.612c0.06,1.536 1.234,2.099 2.627,2.099c1.261,0 2.639,-0.479 2.639,-1.955c0,-1.2 -1.006,-1.536 -2.027,-1.764c-0.948,-0.228 -2.029,-0.348 -2.029,-1.08c0,-0.625 0.709,-0.793 1.321,-0.793c0.672,0 1.369,0.252 1.441,1.045l1.018,-0c-0.084,-1.512 -1.174,-1.943 -2.543,-1.943c-1.081,-0 -2.315,0.515 -2.315,1.763c-0,1.188 1.018,1.524 2.027,1.752c1.02,0.228 2.029,0.36 2.029,1.152c-0,0.781 -0.865,0.925 -1.501,0.925c-0.84,-0 -1.633,-0.288 -1.669,-1.201l-1.018,0Z" style="fill-rule:nonzero;"/>
                <path d="M282.433,70.567l1.018,0l0,-3.504c0,-1.116 0.601,-1.944 1.837,-1.944c0.781,0 1.261,0.492 1.261,1.248l-0,4.2l1.018,0l0,-4.08c0,-1.332 -0.503,-2.266 -2.135,-2.266c-0.744,-0 -1.621,0.311 -1.957,1.054l-0.024,0l0,-3.274l-1.018,-0l-0,8.566Z" style="fill-rule:nonzero;"/>
            </g>
        </g>
        <g id="buttons-with-circles" serif:id="buttons with circles">
            <g id="Close1" serif:id="Close">
                <rect x="490" y="42" width="44" height="16" style="fill:#e0e0ea;"/>
                <path d="M534,42l0,16l-44,-0l-0,-16l44,-0Zm-1,1l-42,0l-0,14l42,-0l-0,-14Z" style="fill:#6a6bd3;"/>
                <path d="M504.769,47.58c-0.263,-1.825 -1.738,-2.783 -3.527,-2.783c-2.641,-0 -4.055,2.026 -4.055,4.511c-0,2.497 1.294,4.463 3.959,4.463c2.161,0 3.492,-1.294 3.707,-3.431l-1.138,0c-0.108,1.417 -0.973,2.473 -2.473,2.473c-2.053,-0 -2.917,-1.633 -2.917,-3.589c0,-1.788 0.864,-3.469 2.905,-3.469c1.188,0 2.161,0.612 2.401,1.825l1.138,-0Z" style="fill-rule:nonzero;"/>
                <rect x="506.163" y="45.001" width="1.018" height="8.567" style="fill-rule:nonzero;"/>
                <path d="M508.431,50.472c-0,1.813 1.042,3.239 3.011,3.239c1.969,0 3.011,-1.426 3.011,-3.239c0,-1.825 -1.042,-3.251 -3.011,-3.251c-1.969,-0 -3.011,1.426 -3.011,3.251Zm1.078,0c0,-1.512 0.865,-2.353 1.933,-2.353c1.068,0 1.933,0.841 1.933,2.353c-0,1.5 -0.865,2.341 -1.933,2.341c-1.068,-0 -1.933,-0.841 -1.933,-2.341Z" style="fill-rule:nonzero;"/>
                <path d="M515.259,51.612c0.06,1.536 1.234,2.099 2.627,2.099c1.261,0 2.639,-0.479 2.639,-1.955c0,-1.2 -1.006,-1.536 -2.027,-1.764c-0.948,-0.228 -2.029,-0.348 -2.029,-1.08c0,-0.625 0.709,-0.793 1.321,-0.793c0.672,0 1.369,0.252 1.441,1.045l1.018,-0c-0.084,-1.512 -1.174,-1.943 -2.543,-1.943c-1.081,-0 -2.315,0.515 -2.315,1.763c-0,1.188 1.018,1.524 2.027,1.752c1.02,0.228 2.029,0.36 2.029,1.152c-0,0.781 -0.865,0.925 -1.501,0.925c-0.84,-0 -1.633,-0.288 -1.669,-1.201l-1.018,0Z" style="fill-rule:nonzero;"/>
                <path d="M525.939,51.6c-0.18,0.804 -0.769,1.213 -1.609,1.213c-1.357,-0 -1.969,-0.961 -1.933,-2.042l4.644,0c0.06,-1.499 -0.611,-3.55 -2.807,-3.55c-1.693,-0 -2.915,1.367 -2.915,3.227c0.06,1.896 0.994,3.263 2.975,3.263c1.393,0 2.376,-0.743 2.651,-2.111l-1.006,-0Zm-3.542,-1.727c0.072,-0.949 0.709,-1.754 1.777,-1.754c1.008,0 1.741,0.781 1.789,1.754l-3.566,-0Z" style="fill-rule:nonzero;"/>
            </g>
            <g id="Save1" serif:id="Save">
                <rect x="535" y="42" width="44" height="16" style="fill:#e0e0ea;"/>
                <path d="M579,42l0,16l-44,-0l0,-16l44,-0Zm-1,1l-42,0l-0,14l42,-0l-0,-14Z" style="fill:#6a6bd3;"/>
                <path d="M550.639,47.508c-0.072,-1.885 -1.402,-2.711 -3.155,-2.711c-1.561,-0 -3.107,0.767 -3.107,2.507c-0,1.572 1.378,1.968 2.747,2.268c1.368,0.3 2.737,0.504 2.737,1.68c-0,1.237 -1.141,1.561 -2.173,1.561c-1.296,-0 -2.497,-0.624 -2.497,-2.065l-1.078,0c-0,2.089 1.618,3.023 3.539,3.023c1.561,0 3.347,-0.731 3.347,-2.555c0,-1.68 -1.366,-2.16 -2.735,-2.472c-1.38,-0.312 -2.749,-0.468 -2.749,-1.524c0,-1.117 0.961,-1.465 1.921,-1.465c1.176,0 1.993,0.528 2.125,1.753l1.078,-0Z" style="fill-rule:nonzero;"/>
                <path d="M556.053,51.408c-0,0.564 -0.553,1.405 -1.897,1.405c-0.624,-0 -1.201,-0.24 -1.201,-0.913c0,-0.756 0.577,-0.996 1.249,-1.116c0.684,-0.12 1.453,-0.132 1.849,-0.42l-0,1.044Zm1.654,1.345c-0.132,0.048 -0.228,0.06 -0.312,0.06c-0.324,-0 -0.324,-0.216 -0.324,-0.696l0,-3.193c0,-1.452 -1.21,-1.703 -2.327,-1.703c-1.381,-0 -2.567,0.539 -2.627,2.075l1.018,-0c0.048,-0.913 0.685,-1.177 1.549,-1.177c0.648,0 1.381,0.144 1.381,1.033c-0,0.768 -0.961,0.696 -2.089,0.912c-1.057,0.204 -2.099,0.504 -2.099,1.908c-0,1.236 0.922,1.739 2.051,1.739c0.864,0 1.621,-0.299 2.185,-0.958c-0,0.671 0.335,0.958 0.862,0.958c0.324,0 0.552,-0.06 0.732,-0.167l0,-0.791Z" style="fill-rule:nonzero;"/>
                <path d="M563.719,47.365l-1.067,-0l-1.692,5.172l-0.024,-0l-1.74,-5.172l-1.139,-0l2.303,6.202l1.092,0l2.267,-6.202Z" style="fill-rule:nonzero;"/>
                <path d="M568.941,51.6c-0.18,0.804 -0.769,1.213 -1.609,1.213c-1.357,-0 -1.969,-0.961 -1.933,-2.042l4.644,0c0.06,-1.499 -0.611,-3.55 -2.807,-3.55c-1.693,-0 -2.915,1.367 -2.915,3.227c0.06,1.896 0.994,3.263 2.975,3.263c1.393,0 2.376,-0.743 2.651,-2.111l-1.006,-0Zm-3.542,-1.727c0.072,-0.949 0.709,-1.754 1.777,-1.754c1.008,0 1.741,0.781 1.789,1.754l-3.566,-0Z" style="fill-rule:nonzero;"/>
            </g>
            <g id="Cancel1" serif:id="Cancel">
                <rect x="580" y="42" width="58" height="16" style="fill:#e0e0ea;"/>
                <path d="M638,42l0,16l-58,-0l0,-16l58,-0Zm-1,1l-56,0c0,0 -0,14 -0,14l56,-0l-0,-14Z" style="fill:#6a6bd3;"/>
                <path d="M599.433,47.58c-0.263,-1.825 -1.738,-2.783 -3.527,-2.783c-2.641,-0 -4.055,2.026 -4.055,4.511c-0,2.497 1.294,4.463 3.959,4.463c2.161,0 3.492,-1.294 3.707,-3.431l-1.138,0c-0.108,1.417 -0.973,2.473 -2.473,2.473c-2.053,-0 -2.917,-1.633 -2.917,-3.589c0,-1.788 0.864,-3.469 2.905,-3.469c1.188,0 2.161,0.612 2.401,1.825l1.138,-0Z" style="fill-rule:nonzero;"/>
                <path d="M604.607,51.408c-0,0.564 -0.553,1.405 -1.897,1.405c-0.624,-0 -1.201,-0.24 -1.201,-0.913c0,-0.756 0.577,-0.996 1.249,-1.116c0.684,-0.12 1.453,-0.132 1.849,-0.42l-0,1.044Zm1.654,1.345c-0.132,0.048 -0.228,0.06 -0.312,0.06c-0.324,-0 -0.324,-0.216 -0.324,-0.696l0,-3.193c0,-1.452 -1.21,-1.703 -2.327,-1.703c-1.381,-0 -2.567,0.539 -2.627,2.075l1.018,-0c0.048,-0.913 0.685,-1.177 1.549,-1.177c0.648,0 1.381,0.144 1.381,1.033c-0,0.768 -0.961,0.696 -2.089,0.912c-1.057,0.204 -2.099,0.504 -2.099,1.908c-0,1.236 0.922,1.739 2.051,1.739c0.864,0 1.621,-0.299 2.185,-0.958c-0,0.671 0.335,0.958 0.862,0.958c0.324,0 0.552,-0.06 0.732,-0.167l0,-0.791Z" style="fill-rule:nonzero;"/>
                <path d="M607.211,53.567l1.018,0l0,-3.504c0,-1.116 0.601,-1.944 1.837,-1.944c0.781,0 1.261,0.492 1.261,1.248l-0,4.2l1.018,0l0,-4.08c0,-1.332 -0.503,-2.266 -2.135,-2.266c-0.888,-0 -1.585,0.359 -2.017,1.126l-0.024,0l0,-0.982l-0.958,-0l-0,6.202Z" style="fill-rule:nonzero;"/>
                <path d="M619.149,49.356c-0.144,-1.476 -1.272,-2.135 -2.676,-2.135c-1.968,-0 -2.926,1.462 -2.926,3.323c-0,1.849 1.006,3.167 2.902,3.167c1.56,0 2.508,-0.898 2.736,-2.411l-1.044,0c-0.132,0.937 -0.72,1.513 -1.704,1.513c-1.296,-0 -1.812,-1.129 -1.812,-2.269c0,-1.26 0.456,-2.425 1.932,-2.425c0.84,0 1.38,0.456 1.536,1.237l1.056,-0Z" style="fill-rule:nonzero;"/>
                <path d="M624.611,51.6c-0.18,0.804 -0.769,1.213 -1.609,1.213c-1.357,-0 -1.969,-0.961 -1.933,-2.042l4.644,0c0.06,-1.499 -0.611,-3.55 -2.807,-3.55c-1.693,-0 -2.915,1.367 -2.915,3.227c0.06,1.896 0.994,3.263 2.975,3.263c1.393,0 2.376,-0.743 2.651,-2.111l-1.006,-0Zm-3.542,-1.727c0.072,-0.949 0.709,-1.754 1.777,-1.754c1.008,0 1.741,0.781 1.789,1.754l-3.566,-0Z" style="fill-rule:nonzero;"/>
                <rect x="626.831" y="45.001" width="1.019" height="8.567" style="fill-rule:nonzero;"/>
            </g>
            <g id="Export1" serif:id="Export">
                <rect x="639" y="42" width="52" height="16" style="fill:#e0e0ea;"/>
                <path d="M691,42l0,16l-52,-0l0,-16l52,-0Zm-1,1l-50,0c0,0 0,14 -0,14l50,-0l0,-14Z" style="fill:#6a6bd3;"/>
                <path d="M648.273,53.567l5.95,0l0,-0.958l-4.812,-0l0,-2.966l4.452,0l0,-0.958l-4.452,-0l0,-2.726l4.776,0l0,-0.958l-5.914,-0l-0,8.566Z" style="fill-rule:nonzero;"/>
                <path d="M654.777,53.567l1.235,0l1.728,-2.577l1.728,2.577l1.307,0l-2.399,-3.36l2.135,-2.842l-1.223,-0l-1.548,2.161l-1.488,-2.161l-1.307,-0l2.159,2.938l-2.327,3.264Z" style="fill-rule:nonzero;"/>
                <path d="M666.489,50.412c-0,1.212 -0.468,2.401 -1.861,2.401c-1.405,-0 -1.957,-1.129 -1.957,-2.353c0,-1.164 0.528,-2.341 1.897,-2.341c1.321,0 1.921,1.129 1.921,2.293Zm-4.8,5.531l1.018,0l0,-3.202l0.024,-0c0.456,0.731 1.369,0.97 2.005,0.97c1.897,0 2.831,-1.474 2.831,-3.227c0,-1.753 -0.946,-3.263 -2.855,-3.263c-0.852,-0 -1.645,0.299 -1.981,0.982l-0.024,0l0,-0.838l-1.018,-0l-0,8.578Z" style="fill-rule:nonzero;"/>
                <path d="M668.433,50.472c-0,1.813 1.042,3.239 3.011,3.239c1.969,0 3.011,-1.426 3.011,-3.239c0,-1.825 -1.042,-3.251 -3.011,-3.251c-1.969,-0 -3.011,1.426 -3.011,3.251Zm1.078,0c0,-1.512 0.865,-2.353 1.933,-2.353c1.068,0 1.933,0.841 1.933,2.353c-0,1.5 -0.865,2.341 -1.933,2.341c-1.068,-0 -1.933,-0.841 -1.933,-2.341Z" style="fill-rule:nonzero;"/>
                <path d="M675.621,53.567l1.018,0l0,-2.76c0,-1.572 0.6,-2.508 2.244,-2.508l0,-1.078c-1.104,-0.036 -1.788,0.455 -2.28,1.45l-0.024,0l0,-1.306l-0.958,-0l-0,6.202Z" style="fill-rule:nonzero;"/>
                <path d="M681.067,45.505l-1.018,-0l-0,1.86l-1.056,-0l-0,0.898l1.056,0l-0,3.95c-0,1.139 0.419,1.354 1.474,1.354l0.78,0l0,-0.898l-0.468,-0c-0.636,-0 -0.768,-0.084 -0.768,-0.552l0,-3.854l1.236,0l0,-0.898l-1.236,-0l0,-1.86Z" style="fill-rule:nonzero;"/>
            </g>
            <g id="Push1" serif:id="Push">
                <rect x="692" y="42" width="38" height="16" style="fill:#e0e0ea;"/>
                <path d="M730,42l0,16l-38,-0l0,-16l38,-0Zm-1,1l-36,0l0,14l36,-0l0,-14Z" style="fill:#6a6bd3;"/>
                <path d="M698.877,53.567l1.138,0l0,-3.504l2.617,0c1.704,0.012 2.627,-0.946 2.627,-2.531c0,-1.585 -0.923,-2.531 -2.627,-2.531l-3.755,-0l-0,8.566Zm1.138,-7.608l2.233,0c1.285,0 1.873,0.553 1.873,1.573c-0,1.02 -0.588,1.585 -1.873,1.573l-2.233,-0l0,-3.146Z" style="fill-rule:nonzero;"/>
                <path d="M711.619,47.365l-1.018,-0l-0,3.504c-0,1.116 -0.601,1.944 -1.837,1.944c-0.781,-0 -1.261,-0.492 -1.261,-1.248l0,-4.2l-1.018,-0l-0,4.08c-0,1.332 0.503,2.266 2.135,2.266c0.888,0 1.585,-0.359 2.017,-1.126l0.024,-0l-0,0.982l0.958,0l0,-6.202Z" style="fill-rule:nonzero;"/>
                <path d="M712.761,51.612c0.06,1.536 1.234,2.099 2.627,2.099c1.261,0 2.639,-0.479 2.639,-1.955c0,-1.2 -1.006,-1.536 -2.027,-1.764c-0.948,-0.228 -2.029,-0.348 -2.029,-1.08c0,-0.625 0.709,-0.793 1.321,-0.793c0.672,0 1.369,0.252 1.441,1.045l1.018,-0c-0.084,-1.512 -1.174,-1.943 -2.543,-1.943c-1.081,-0 -2.315,0.515 -2.315,1.763c-0,1.188 1.018,1.524 2.027,1.752c1.02,0.228 2.029,0.36 2.029,1.152c-0,0.781 -0.865,0.925 -1.501,0.925c-0.84,-0 -1.633,-0.288 -1.669,-1.201l-1.018,0Z" style="fill-rule:nonzero;"/>
                <path d="M719.157,53.567l1.018,0l0,-3.504c0,-1.116 0.601,-1.944 1.837,-1.944c0.781,0 1.261,0.492 1.261,1.248l-0,4.2l1.018,0l0,-4.08c0,-1.332 -0.503,-2.266 -2.135,-2.266c-0.744,-0 -1.621,0.311 -1.957,1.054l-0.024,0l0,-3.274l-1.018,-0l-0,8.566Z" style="fill-rule:nonzero;"/>
            </g>
            <g id="Convert1" serif:id="Convert">
                <rect x="490" y="59" width="58" height="16" style="fill:#e0e0ea;"/>
                <path d="M548,59l0,16l-58,-0l-0,-16l58,-0Zm-1,1l-56,0c-0,0 -0,14 -0,14l56,-0l-0,-14Z" style="fill:#6a6bd3;"/>
                <path d="M506.877,64.58c-0.263,-1.825 -1.738,-2.783 -3.527,-2.783c-2.641,-0 -4.055,2.026 -4.055,4.511c-0,2.497 1.294,4.463 3.959,4.463c2.161,0 3.492,-1.294 3.707,-3.431l-1.138,0c-0.108,1.417 -0.973,2.473 -2.473,2.473c-2.053,-0 -2.917,-1.633 -2.917,-3.589c0,-1.788 0.864,-3.469 2.905,-3.469c1.188,0 2.161,0.612 2.401,1.825l1.138,-0Z" style="fill-rule:nonzero;"/>
                <path d="M507.875,67.472c-0,1.813 1.042,3.239 3.011,3.239c1.969,0 3.011,-1.426 3.011,-3.239c0,-1.825 -1.042,-3.251 -3.011,-3.251c-1.969,-0 -3.011,1.426 -3.011,3.251Zm1.078,0c0,-1.512 0.865,-2.353 1.933,-2.353c1.068,0 1.933,0.841 1.933,2.353c-0,1.5 -0.865,2.341 -1.933,2.341c-1.068,-0 -1.933,-0.841 -1.933,-2.341Z" style="fill-rule:nonzero;"/>
                <path d="M515.099,70.567l1.018,0l0,-3.504c0,-1.116 0.601,-1.944 1.837,-1.944c0.781,0 1.261,0.492 1.261,1.248l-0,4.2l1.018,0l0,-4.08c0,-1.332 -0.503,-2.266 -2.135,-2.266c-0.888,-0 -1.585,0.359 -2.017,1.126l-0.024,0l0,-0.982l-0.958,-0l-0,6.202Z" style="fill-rule:nonzero;"/>
                <path d="M526.833,64.365l-1.067,-0l-1.692,5.172l-0.024,-0l-1.74,-5.172l-1.139,-0l2.303,6.202l1.092,0l2.267,-6.202Z" style="fill-rule:nonzero;"/>
                <path d="M532.055,68.6c-0.18,0.804 -0.769,1.213 -1.609,1.213c-1.357,-0 -1.969,-0.961 -1.933,-2.042l4.644,0c0.06,-1.499 -0.611,-3.55 -2.807,-3.55c-1.693,-0 -2.915,1.367 -2.915,3.227c0.06,1.896 0.994,3.263 2.975,3.263c1.393,0 2.376,-0.743 2.651,-2.111l-1.006,-0Zm-3.542,-1.727c0.072,-0.949 0.709,-1.754 1.777,-1.754c1.008,0 1.741,0.781 1.789,1.754l-3.566,-0Z" style="fill-rule:nonzero;"/>
                <path d="M534.179,70.567l1.018,0l0,-2.76c0,-1.572 0.6,-2.508 2.244,-2.508l0,-1.078c-1.104,-0.036 -1.788,0.455 -2.28,1.45l-0.024,0l0,-1.306l-0.958,-0l-0,6.202Z" style="fill-rule:nonzero;"/>
                <path d="M539.625,62.505l-1.018,-0l-0,1.86l-1.056,-0l-0,0.898l1.056,0l-0,3.95c-0,1.139 0.419,1.354 1.474,1.354l0.78,0l0,-0.898l-0.468,-0c-0.636,-0 -0.768,-0.084 -0.768,-0.552l0,-3.854l1.236,0l0,-0.898l-1.236,-0l0,-1.86Z" style="fill-rule:nonzero;"/>
            </g>
            <g id="Open1" serif:id="Open">
                <rect x="549" y="59" width="44" height="16" style="fill:#e0e0ea;"/>
                <path d="M593,59l0,16l-44,-0l0,-16l44,-0Zm-1,1l-42,0l-0,14l42,-0l-0,-14Z" style="fill:#6a6bd3;"/>
                <path d="M556.781,66.284c-0,2.328 1.378,4.487 4.103,4.487c2.725,0 4.103,-2.159 4.103,-4.487c0,-2.329 -1.378,-4.487 -4.103,-4.487c-2.725,-0 -4.103,2.158 -4.103,4.487Zm1.138,-0c0,-1.728 0.876,-3.529 2.965,-3.529c2.089,0 2.965,1.801 2.965,3.529c-0,1.728 -0.876,3.529 -2.965,3.529c-2.089,-0 -2.965,-1.801 -2.965,-3.529Z" style="fill-rule:nonzero;"/>
                <path d="M571.049,67.412c-0,1.212 -0.468,2.401 -1.861,2.401c-1.405,-0 -1.957,-1.129 -1.957,-2.353c0,-1.164 0.528,-2.341 1.897,-2.341c1.321,0 1.921,1.129 1.921,2.293Zm-4.8,5.531l1.018,0l0,-3.202l0.024,-0c0.456,0.731 1.369,0.97 2.005,0.97c1.897,0 2.831,-1.474 2.831,-3.227c0,-1.753 -0.946,-3.263 -2.855,-3.263c-0.852,-0 -1.645,0.299 -1.981,0.982l-0.024,0l0,-0.838l-1.018,-0l-0,8.578Z" style="fill-rule:nonzero;"/>
                <path d="M577.613,68.6c-0.18,0.804 -0.769,1.213 -1.609,1.213c-1.357,-0 -1.969,-0.961 -1.933,-2.042l4.644,0c0.06,-1.499 -0.611,-3.55 -2.807,-3.55c-1.693,-0 -2.915,1.367 -2.915,3.227c0.06,1.896 0.994,3.263 2.975,3.263c1.393,0 2.376,-0.743 2.651,-2.111l-1.006,-0Zm-3.542,-1.727c0.072,-0.949 0.709,-1.754 1.777,-1.754c1.008,0 1.741,0.781 1.789,1.754l-3.566,-0Z" style="fill-rule:nonzero;"/>
                <path d="M579.773,70.567l1.018,0l0,-3.504c0,-1.116 0.601,-1.944 1.837,-1.944c0.781,0 1.261,0.492 1.261,1.248l-0,4.2l1.018,0l0,-4.08c0,-1.332 -0.503,-2.266 -2.135,-2.266c-0.888,-0 -1.585,0.359 -2.017,1.126l-0.024,0l0,-0.982l-0.958,-0l-0,6.202Z" style="fill-rule:nonzero;"/>
            </g>
            <g id="Merge1" serif:id="Merge">
                <rect x="594" y="59" width="52" height="16" style="fill:#e0e0ea;"/>
                <path d="M646,59l0,16l-52,-0l0,-16l52,-0Zm-1,1l-50,0c0,0 -0,14 -0,14l50,-0l0,-14Z" style="fill:#6a6bd3;"/>
                <path d="M604.017,70.567l1.078,0l0,-7.128l0.024,0l2.677,7.128l0.972,0l2.677,-7.128l0.024,0l-0,7.128l1.078,0l0,-8.566l-1.558,-0l-2.713,7.2l-2.701,-7.2l-1.558,-0l-0,8.566Z" style="fill-rule:nonzero;"/>
                <path d="M618.561,68.6c-0.18,0.804 -0.769,1.213 -1.609,1.213c-1.357,-0 -1.969,-0.961 -1.933,-2.042l4.644,0c0.06,-1.499 -0.611,-3.55 -2.807,-3.55c-1.693,-0 -2.915,1.367 -2.915,3.227c0.06,1.896 0.994,3.263 2.975,3.263c1.393,0 2.376,-0.743 2.651,-2.111l-1.006,-0Zm-3.542,-1.727c0.072,-0.949 0.709,-1.754 1.777,-1.754c1.008,0 1.741,0.781 1.789,1.754l-3.566,-0Z" style="fill-rule:nonzero;"/>
                <path d="M620.685,70.567l1.018,0l0,-2.76c0,-1.572 0.6,-2.508 2.244,-2.508l0,-1.078c-1.104,-0.036 -1.788,0.455 -2.28,1.45l-0.024,0l0,-1.306l-0.958,-0l-0,6.202Z" style="fill-rule:nonzero;"/>
                <path d="M626.876,69.741c-1.345,-0 -1.753,-1.249 -1.753,-2.365c0,-1.188 0.528,-2.257 1.837,-2.257c1.285,0 1.765,1.129 1.765,2.221c-0,1.164 -0.504,2.401 -1.849,2.401Zm2.855,-5.376l-0.958,-0l-0,0.886l-0.012,0c-0.372,-0.683 -1.069,-1.03 -1.849,-1.03c-2.148,-0 -2.867,1.811 -2.867,3.275c-0,1.693 0.922,3.143 2.771,3.143c0.78,0 1.597,-0.371 1.933,-1.126l0.024,-0l-0,0.407c-0,1.392 -0.528,2.353 -1.861,2.353c-0.672,-0 -1.561,-0.264 -1.609,-1.009l-1.018,-0c0.06,1.356 1.402,1.823 2.567,1.823c1.957,0 2.879,-1.03 2.879,-3.047l0,-5.675Z" style="fill-rule:nonzero;"/>
                <path d="M635.553,68.6c-0.18,0.804 -0.769,1.213 -1.609,1.213c-1.357,-0 -1.969,-0.961 -1.933,-2.042l4.644,0c0.06,-1.499 -0.611,-3.55 -2.807,-3.55c-1.693,-0 -2.915,1.367 -2.915,3.227c0.06,1.896 0.994,3.263 2.975,3.263c1.393,0 2.376,-0.743 2.651,-2.111l-1.006,-0Zm-3.542,-1.727c0.072,-0.949 0.709,-1.754 1.777,-1.754c1.008,0 1.741,0.781 1.789,1.754l-3.566,-0Z" style="fill-rule:nonzero;"/>
            </g>
            <g id="Edit1" serif:id="Edit">
                <rect x="647" y="59" width="38" height="16" style="fill:#e0e0ea;"/>
                <path d="M685,59l0,16l-38,-0l0,-16l38,-0Zm-1,1l-36,0l0,14l36,-0l0,-14Z" style="fill:#6a6bd3;"/>
                <path d="M656.991,70.567l5.95,0l0,-0.958l-4.812,-0l0,-2.966l4.452,0l0,-0.958l-4.452,-0l0,-2.726l4.776,0l0,-0.958l-5.914,-0l-0,8.566Z" style="fill-rule:nonzero;"/>
                <path d="M669.697,62.001l-1.018,-0l-0,3.19l-0.024,0c-0.456,-0.731 -1.369,-0.97 -2.005,-0.97c-1.897,-0 -2.831,1.474 -2.831,3.227c-0,1.753 0.946,3.263 2.855,3.263c0.852,0 1.645,-0.299 1.981,-0.982l0.024,-0l-0,0.838l1.018,0l0,-8.566Zm-4.8,5.519c0,-1.212 0.468,-2.401 1.861,-2.401c1.405,0 1.957,1.129 1.957,2.353c-0,1.164 -0.528,2.341 -1.897,2.341c-1.321,-0 -1.921,-1.129 -1.921,-2.293Z" style="fill-rule:nonzero;"/>
                <path d="M671.331,70.567l1.018,0l0,-6.202l-1.018,-0l-0,6.202Zm1.018,-8.566l-1.018,-0l-0,1.246l1.018,0l0,-1.246Z" style="fill-rule:nonzero;"/>
                <path d="M675.349,62.505l-1.018,-0l-0,1.86l-1.056,-0l-0,0.898l1.056,0l-0,3.95c-0,1.139 0.419,1.354 1.474,1.354l0.78,0l0,-0.898l-0.468,-0c-0.636,-0 -0.768,-0.084 -0.768,-0.552l0,-3.854l1.236,0l0,-0.898l-1.236,-0l0,-1.86Z" style="fill-rule:nonzero;"/>
            </g>
            <g id="Stash1" serif:id="Stash">
                <rect x="686" y="59" width="44" height="16" style="fill:#e0e0ea;"/>
                <path d="M730,59l-0,16l-44,-0l-0,-16l44,-0Zm-1,1l-42,0l-0,14l42,-0l-0,-14Z" style="fill:#6a6bd3;"/>
                <path d="M699.635,64.508c-0.072,-1.885 -1.402,-2.711 -3.155,-2.711c-1.561,-0 -3.107,0.767 -3.107,2.507c-0,1.572 1.378,1.968 2.747,2.268c1.368,0.3 2.737,0.504 2.737,1.68c-0,1.237 -1.141,1.561 -2.173,1.561c-1.296,-0 -2.497,-0.624 -2.497,-2.065l-1.078,0c-0,2.089 1.618,3.023 3.539,3.023c1.561,0 3.347,-0.731 3.347,-2.555c0,-1.68 -1.366,-2.16 -2.735,-2.472c-1.38,-0.312 -2.749,-0.468 -2.749,-1.524c0,-1.117 0.961,-1.465 1.921,-1.465c1.176,0 1.993,0.528 2.125,1.753l1.078,-0Z" style="fill-rule:nonzero;"/>
                <path d="M702.623,62.505l-1.018,-0l-0,1.86l-1.056,-0l-0,0.898l1.056,0l-0,3.95c-0,1.139 0.419,1.354 1.474,1.354l0.78,0l0,-0.898l-0.468,-0c-0.636,-0 -0.768,-0.084 -0.768,-0.552l0,-3.854l1.236,0l0,-0.898l-1.236,-0l0,-1.86Z" style="fill-rule:nonzero;"/>
                <path d="M708.829,68.408c-0,0.564 -0.553,1.405 -1.897,1.405c-0.624,-0 -1.201,-0.24 -1.201,-0.913c0,-0.756 0.577,-0.996 1.249,-1.116c0.684,-0.12 1.453,-0.132 1.849,-0.42l-0,1.044Zm1.654,1.345c-0.132,0.048 -0.228,0.06 -0.312,0.06c-0.324,-0 -0.324,-0.216 -0.324,-0.696l0,-3.193c0,-1.452 -1.21,-1.703 -2.327,-1.703c-1.381,-0 -2.567,0.539 -2.627,2.075l1.018,-0c0.048,-0.913 0.685,-1.177 1.549,-1.177c0.648,0 1.381,0.144 1.381,1.033c-0,0.768 -0.961,0.696 -2.089,0.912c-1.057,0.204 -2.099,0.504 -2.099,1.908c-0,1.236 0.922,1.739 2.051,1.739c0.864,0 1.621,-0.299 2.185,-0.958c-0,0.671 0.335,0.958 0.862,0.958c0.324,0 0.552,-0.06 0.732,-0.167l0,-0.791Z" style="fill-rule:nonzero;"/>
                <path d="M711.037,68.612c0.06,1.536 1.234,2.099 2.627,2.099c1.261,0 2.639,-0.479 2.639,-1.955c0,-1.2 -1.006,-1.536 -2.027,-1.764c-0.948,-0.228 -2.029,-0.348 -2.029,-1.08c0,-0.625 0.709,-0.793 1.321,-0.793c0.672,0 1.369,0.252 1.441,1.045l1.018,-0c-0.084,-1.512 -1.174,-1.943 -2.543,-1.943c-1.081,-0 -2.315,0.515 -2.315,1.763c-0,1.188 1.018,1.524 2.027,1.752c1.02,0.228 2.029,0.36 2.029,1.152c-0,0.781 -0.865,0.925 -1.501,0.925c-0.84,-0 -1.633,-0.288 -1.669,-1.201l-1.018,0Z" style="fill-rule:nonzero;"/>
                <path d="M717.433,70.567l1.018,0l0,-3.504c0,-1.116 0.601,-1.944 1.837,-1.944c0.781,0 1.261,0.492 1.261,1.248l-0,4.2l1.018,0l0,-4.08c0,-1.332 -0.503,-2.266 -2.135,-2.266c-0.744,-0 -1.621,0.311 -1.957,1.054l-0.024,0l0,-3.274l-1.018,-0l-0,8.566Z" style="fill-rule:nonzero;"/>
            </g>
            <path d="M484.5,38.5l-8,-0" style="fill:none;stroke:#000;stroke-width:1px;"/>
            <path d="M484.5,61.5l-8,-0" style="fill:none;stroke:#000;stroke-width:1px;"/>
            <path d="M480.5,38.5l0,23" style="fill:none;stroke:#000;stroke-width:1px;stroke-miterlimit:1;"/>
            <path d="M447.871,48.28c-0.036,-1.02 0.468,-2.112 1.657,-2.112c0.9,-0 1.645,0.612 1.645,1.536c-0,1.176 -0.733,1.704 -2.173,2.592c-1.201,0.745 -2.219,1.465 -2.387,3.48l5.554,-0l0,-0.899l-4.368,0c0.204,-1.056 1.321,-1.596 2.389,-2.244c1.057,-0.661 2.063,-1.417 2.063,-2.917c0,-1.584 -1.174,-2.447 -2.663,-2.447c-1.801,0 -2.819,1.283 -2.735,3.011l1.018,0Z" style="fill:#ac2020;fill-rule:nonzero;"/>
            <path d="M458.023,45.269l-0.814,0l-3.876,5.532l-0,0.983l3.732,-0l-0,1.992l0.958,-0l0,-1.992l1.152,-0l0,-0.899l-1.152,0l0,-5.616Zm-3.814,5.616l2.832,-4.164l0.024,0l-0,4.164l-2.856,0Z" style="fill:#ac2020;fill-rule:nonzero;"/>
            <path d="M465.273,50.62c-0,1.213 -0.468,2.401 -1.861,2.401c-1.405,0 -1.957,-1.128 -1.957,-2.353c0,-1.164 0.528,-2.34 1.897,-2.34c1.321,-0 1.921,1.128 1.921,2.292Zm-4.8,5.532l1.018,-0l0,-3.203l0.024,0c0.456,0.731 1.369,0.971 2.005,0.971c1.897,-0 2.831,-1.475 2.831,-3.228c0,-1.752 -0.946,-3.263 -2.855,-3.263c-0.852,0 -1.645,0.3 -1.981,0.983l-0.024,-0l0,-0.839l-1.018,0l-0,8.579Z" style="fill:#ac2020;fill-rule:nonzero;"/>
            <path d="M466.893,53.776l1.235,-0l1.728,-2.578l1.728,2.578l1.307,-0l-2.399,-3.36l2.135,-2.843l-1.223,0l-1.548,2.162l-1.488,-2.162l-1.307,0l2.159,2.939l-2.327,3.264Z" style="fill:#ac2020;fill-rule:nonzero;"/>
            <g id="Circles">
                <circle cx="512.002" cy="50" r="12" style="fill:#ca2626;fill-opacity:0.2;"/>
                <path d="M512.002,38c6.623,0 12,5.377 12,12c0,6.623 -5.377,12 -12,12c-6.623,0 -12,-5.377 -12,-12c0,-6.623 5.377,-12 12,-12Zm0,1c-6.071,0 -11,4.929 -11,11c0,6.071 4.929,11 11,11c6.071,0 11,-4.929 11,-11c0,-6.071 -4.929,-11 -11,-11Z" style="fill:#ca2626;"/>
                <circle cx="557.002" cy="50" r="12" style="fill:#ca2626;fill-opacity:0.2;"/>
                <path d="M557.002,38c6.623,0 12,5.377 12,12c0,6.623 -5.377,12 -12,12c-6.623,0 -12,-5.377 -12,-12c0,-6.623 5.377,-12 12,-12Zm0,1c-6.071,0 -11,4.929 -11,11c0,6.071 4.929,11 11,11c6.071,0 11,-4.929 11,-11c0,-6.071 -4.929,-11 -11,-11Z" style="fill:#ca2626;"/>
                <circle cx="609.002" cy="50" r="12" style="fill:#ca2626;fill-opacity:0.2;"/>
                <path d="M609.002,38c6.623,0 12,5.377 12,12c0,6.623 -5.377,12 -12,12c-6.623,0 -12,-5.377 -12,-12c0,-6.623 5.377,-12 12,-12Zm0,1c-6.071,0 -11,4.929 -11,11c0,6.071 4.929,11 11,11c6.071,0 11,-4.929 11,-11c0,-6.071 -4.929,-11 -11,-11Z" style="fill:#ca2626;"/>
                <circle cx="665.002" cy="50" r="12" style="fill:#ca2626;fill-opacity:0.2;"/>
                <path d="M665.002,38c6.623,0 12,5.377 12,12c0,6.623 -5.377,12 -12,12c-6.623,0 -12,-5.377 -12,-12c0,-6.623 5.377,-12 12,-12Zm0,1c-6.071,0 -11,4.929 -11,11c0,6.071 4.929,11 11,11c6.071,0 11,-4.929 11,-11c0,-6.071 -4.929,-11 -11,-11Z" style="fill:#ca2626;"/>
                <circle cx="711.002" cy="50" r="12" style="fill:#ca2626;fill-opacity:0.2;"/>
                <path d="M711.002,38c6.623,0 12,5.377 12,12c0,6.623 -5.377,12 -12,12c-6.623,0 -12,-5.377 -12,-12c0,-6.623 5.377,-12 12,-12Zm0,1c-6.071,0 -11,4.929 -11,11c0,6.071 4.929,11 11,11c6.071,0 11,-4.929 11,-11c0,-6.071 -4.929,-11 -11,-11Z" style="fill:#ca2626;"/>
                <circle cx="519" cy="67" r="12" style="fill:#ca2626;fill-opacity:0.2;"/>
                <path d="M519,55c6.623,0 12,5.377 12,12c0,6.623 -5.377,12 -12,12c-6.623,0 -12,-5.377 -12,-12c-0,-6.623 5.377,-12 12,-12Zm0,1c-6.071,0 -11,4.929 -11,11c0,6.071 4.929,11 11,11c6.071,0 11,-4.929 11,-11c0,-6.071 -4.929,-11 -11,-11Z" style="fill:#ca2626;"/>
                <circle cx="571" cy="67" r="12" style="fill:#ca2626;fill-opacity:0.2;"/>
                <path d="M571,55c6.623,0 12,5.377 12,12c-0,6.623 -5.377,12 -12,12c-6.623,0 -12,-5.377 -12,-12c-0,-6.623 5.377,-12 12,-12Zm-0,1c-6.071,0 -11,4.929 -11,11c-0,6.071 4.929,11 11,11c6.071,0 11,-4.929 11,-11c-0,-6.071 -4.929,-11 -11,-11Z" style="fill:#ca2626;"/>
                <circle cx="620.002" cy="67" r="12" style="fill:#ca2626;fill-opacity:0.2;"/>
                <path d="M620.002,55c6.623,0 12,5.377 12,12c0,6.623 -5.377,12 -12,12c-6.623,0 -12,-5.377 -12,-12c0,-6.623 5.377,-12 12,-12Zm0,1c-6.071,0 -11,4.929 -11,11c0,6.071 4.929,11 11,11c6.071,0 11,-4.929 11,-11c0,-6.071 -4.929,-11 -11,-11Z" style="fill:#ca2626;"/>
                <circle cx="666" cy="67" r="12" style="fill:#ca2626;fill-opacity:0.2;"/>
                <path d="M666,55c6.623,0 12,5.377 12,12c0,6.623 -5.377,12 -12,12c-6.623,0 -12,-5.377 -12,-12c0,-6.623 5.377,-12 12,-12Zm0,1c-6.071,0 -11,4.929 -11,11c0,6.071 4.929,11 11,11c6.071,0 11,-4.929 11,-11c0,-6.071 -4.929,-11 -11,-11Z" style="fill:#ca2626;"/>
                <circle cx="708.002" cy="67" r="12" style="fill:#ca2626;fill-opacity:0.2;"/>
                <path d="M708.002,55c6.623,0 12,5.377 12,12c0,6.623 -5.377,12 -12,12c-6.623,0 -12,-5.377 -12,-12c0,-6.623 5.377,-12 12,-12Zm0,1c-6.071,0 -11,4.929 -11,11c0,6.071 4.929,11 11,11c6.071,0 11,-4.929 11,-11c0,-6.071 -4.929,-11 -11,-11Z" style="fill:#ca2626;"/>
            </g>
            <g transform="matrix(1,0,0,1,336.501,-184.26)">
                <g transform="matrix(12,0,0,12,172.119,213.245)">
                    <path d="M0.503,-0.351c-0.012,-0.123 -0.106,-0.178 -0.223,-0.178c-0.164,0 -0.244,0.122 -0.244,0.277c0,0.154 0.084,0.264 0.242,0.264c0.13,-0 0.209,-0.075 0.228,-0.201l-0.087,0c-0.011,0.078 -0.06,0.126 -0.142,0.126c-0.108,0 -0.151,-0.094 -0.151,-0.189c-0,-0.105 0.038,-0.202 0.161,-0.202c0.07,-0 0.115,0.038 0.128,0.103l0.088,-0Z" style="fill:#ac2020;fill-rule:nonzero;"/>
                </g>
                <g transform="matrix(12,0,0,12,178.563,213.245)">
                    <path d="M0.069,-0l0.085,-0l-0,-0.517l-0.085,0l0,0.517Zm0.085,-0.714l-0.085,0l0,0.104l0.085,-0l-0,-0.104Z" style="fill:#ac2020;fill-rule:nonzero;"/>
                </g>
                <g transform="matrix(12,0,0,12,181.227,213.245)">
                    <path d="M0.061,-0l0.085,-0l-0,-0.23c-0,-0.131 0.05,-0.209 0.187,-0.209l-0,-0.09c-0.092,-0.003 -0.149,0.038 -0.19,0.121l-0.002,-0l-0,-0.109l-0.08,0l0,0.517Z" style="fill:#ac2020;fill-rule:nonzero;"/>
                </g>
                <g transform="matrix(12,0,0,12,185.007,213.245)">
                    <path d="M0.503,-0.351c-0.012,-0.123 -0.106,-0.178 -0.223,-0.178c-0.164,0 -0.244,0.122 -0.244,0.277c0,0.154 0.084,0.264 0.242,0.264c0.13,-0 0.209,-0.075 0.228,-0.201l-0.087,0c-0.011,0.078 -0.06,0.126 -0.142,0.126c-0.108,0 -0.151,-0.094 -0.151,-0.189c-0,-0.105 0.038,-0.202 0.161,-0.202c0.07,-0 0.115,0.038 0.128,0.103l0.088,-0Z" style="fill:#ac2020;fill-rule:nonzero;"/>
                </g>
                <g transform="matrix(12,0,0,12,191.451,213.245)">
                    <rect x="0.069" y="-0.714" width="0.085" height="0.714" style="fill:#ac2020;fill-rule:nonzero;"/>
                </g>
                <g transform="matrix(12,0,0,12,194.115,213.245)">
                    <path d="M0.421,-0.164c-0.015,0.067 -0.064,0.101 -0.134,0.101c-0.113,0 -0.164,-0.08 -0.161,-0.17l0.387,-0c0.005,-0.125 -0.051,-0.296 -0.234,-0.296c-0.141,0 -0.243,0.114 -0.243,0.269c0.005,0.158 0.083,0.272 0.248,0.272c0.116,-0 0.198,-0.062 0.221,-0.176l-0.084,-0Zm-0.295,-0.144c0.006,-0.079 0.059,-0.146 0.148,-0.146c0.084,-0 0.145,0.065 0.149,0.146l-0.297,0Z" style="fill:#ac2020;fill-rule:nonzero;"/>
                </g>
                <g transform="matrix(12,0,0,12,200.559,213.245)">
                    <path d="M0.031,-0.163c0.005,0.128 0.103,0.175 0.219,0.175c0.105,-0 0.22,-0.04 0.22,-0.163c-0,-0.1 -0.084,-0.128 -0.169,-0.147c-0.079,-0.019 -0.169,-0.029 -0.169,-0.09c-0,-0.052 0.059,-0.066 0.11,-0.066c0.056,-0 0.114,0.021 0.12,0.087l0.085,-0c-0.007,-0.126 -0.098,-0.162 -0.212,-0.162c-0.09,0 -0.193,0.043 -0.193,0.147c0,0.099 0.085,0.127 0.169,0.146c0.085,0.019 0.169,0.03 0.169,0.096c0,0.065 -0.072,0.077 -0.125,0.077c-0.07,0 -0.136,-0.024 -0.139,-0.1l-0.085,0Z" style="fill:#ac2020;fill-rule:nonzero;"/>
                </g>
                <g transform="matrix(12,0,0,12,209.895,213.245)">
                    <path d="M0.069,-0l0.085,-0l-0,-0.517l-0.085,0l0,0.517Zm0.085,-0.714l-0.085,0l0,0.104l0.085,-0l-0,-0.104Z" style="fill:#ac2020;fill-rule:nonzero;"/>
                </g>
                <g transform="matrix(12,0,0,12,212.559,213.245)">
                    <path d="M0.064,-0l0.085,-0l-0,-0.292c-0,-0.093 0.05,-0.162 0.153,-0.162c0.065,-0 0.105,0.041 0.105,0.104l0,0.35l0.085,-0l-0,-0.34c-0,-0.111 -0.042,-0.189 -0.178,-0.189c-0.074,0 -0.132,0.03 -0.168,0.094l-0.002,-0l-0,-0.082l-0.08,0l0,0.517Z" style="fill:#ac2020;fill-rule:nonzero;"/>
                </g>
                <g transform="matrix(12,0,0,12,219.231,213.245)">
                    <path d="M0.182,-0.672l-0.085,0l0,0.155l-0.088,0l0,0.075l0.088,-0l0,0.329c0,0.095 0.035,0.113 0.123,0.113l0.065,-0l-0,-0.075l-0.039,0c-0.053,0 -0.064,-0.007 -0.064,-0.046l-0,-0.321l0.103,-0l-0,-0.075l-0.103,0l-0,-0.155Z" style="fill:#ac2020;fill-rule:nonzero;"/>
                </g>
                <g transform="matrix(12,0,0,12,223.011,213.245)">
                    <path d="M0.421,-0.164c-0.015,0.067 -0.064,0.101 -0.134,0.101c-0.113,0 -0.164,-0.08 -0.161,-0.17l0.387,-0c0.005,-0.125 -0.051,-0.296 -0.234,-0.296c-0.141,0 -0.243,0.114 -0.243,0.269c0.005,0.158 0.083,0.272 0.248,0.272c0.116,-0 0.198,-0.062 0.221,-0.176l-0.084,-0Zm-0.295,-0.144c0.006,-0.079 0.059,-0.146 0.148,-0.146c0.084,-0 0.145,0.065 0.149,0.146l-0.297,0Z" style="fill:#ac2020;fill-rule:nonzero;"/>
                </g>
                <g transform="matrix(12,0,0,12,229.455,213.245)">
                    <path d="M0.061,-0l0.085,-0l-0,-0.23c-0,-0.131 0.05,-0.209 0.187,-0.209l-0,-0.09c-0.092,-0.003 -0.149,0.038 -0.19,0.121l-0.002,-0l-0,-0.109l-0.08,0l0,0.517Z" style="fill:#ac2020;fill-rule:nonzero;"/>
                </g>
                <g transform="matrix(12,0,0,12,233.451,213.245)">
                    <path d="M0.031,-0.163c0.005,0.128 0.103,0.175 0.219,0.175c0.105,-0 0.22,-0.04 0.22,-0.163c-0,-0.1 -0.084,-0.128 -0.169,-0.147c-0.079,-0.019 -0.169,-0.029 -0.169,-0.09c-0,-0.052 0.059,-0.066 0.11,-0.066c0.056,-0 0.114,0.021 0.12,0.087l0.085,-0c-0.007,-0.126 -0.098,-0.162 -0.212,-0.162c-0.09,0 -0.193,0.043 -0.193,0.147c0,0.099 0.085,0.127 0.169,0.146c0.085,0.019 0.169,0.03 0.169,0.096c0,0.065 -0.072,0.077 -0.125,0.077c-0.07,0 -0.136,-0.024 -0.139,-0.1l-0.085,0Z" style="fill:#ac2020;fill-rule:nonzero;"/>
                </g>
                <g transform="matrix(12,0,0,12,239.451,213.245)">
                    <path d="M0.421,-0.164c-0.015,0.067 -0.064,0.101 -0.134,0.101c-0.113,0 -0.164,-0.08 -0.161,-0.17l0.387,-0c0.005,-0.125 -0.051,-0.296 -0.234,-0.296c-0.141,0 -0.243,0.114 -0.243,0.269c0.005,0.158 0.083,0.272 0.248,0.272c0.116,-0 0.198,-0.062 0.221,-0.176l-0.084,-0Zm-0.295,-0.144c0.006,-0.079 0.059,-0.146 0.148,-0.146c0.084,-0 0.145,0.065 0.149,0.146l-0.297,0Z" style="fill:#ac2020;fill-rule:nonzero;"/>
                </g>
                <g transform="matrix(12,0,0,12,245.895,213.245)">
                    <path d="M0.503,-0.351c-0.012,-0.123 -0.106,-0.178 -0.223,-0.178c-0.164,0 -0.244,0.122 -0.244,0.277c0,0.154 0.084,0.264 0.242,0.264c0.13,-0 0.209,-0.075 0.228,-0.201l-0.087,0c-0.011,0.078 -0.06,0.126 -0.142,0.126c-0.108,0 -0.151,-0.094 -0.151,-0.189c-0,-0.105 0.038,-0.202 0.161,-0.202c0.07,-0 0.115,0.038 0.128,0.103l0.088,-0Z" style="fill:#ac2020;fill-rule:nonzero;"/>
                </g>
                <g transform="matrix(12,0,0,12,252.339,213.245)">
                    <path d="M0.182,-0.672l-0.085,0l0,0.155l-0.088,0l0,0.075l0.088,-0l0,0.329c0,0.095 0.035,0.113 0.123,0.113l0.065,-0l-0,-0.075l-0.039,0c-0.053,0 -0.064,-0.007 -0.064,-0.046l-0,-0.321l0.103,-0l-0,-0.075l-0.103,0l-0,-0.155Z" style="fill:#ac2020;fill-rule:nonzero;"/>
                </g>
                <g transform="matrix(12,0,0,12,259.455,213.245)">
                    <path d="M0.036,-0.258c0,0.151 0.087,0.27 0.251,0.27c0.164,-0 0.251,-0.119 0.251,-0.27c-0,-0.152 -0.087,-0.271 -0.251,-0.271c-0.164,0 -0.251,0.119 -0.251,0.271Zm0.09,0c-0,-0.126 0.072,-0.196 0.161,-0.196c0.089,-0 0.161,0.07 0.161,0.196c0,0.125 -0.072,0.195 -0.161,0.195c-0.089,0 -0.161,-0.07 -0.161,-0.195Z" style="fill:#ac2020;fill-rule:nonzero;"/>
                </g>
                <g transform="matrix(12,0,0,12,266.343,213.245)">
                    <path d="M0.182,-0.672l-0.085,0l0,0.155l-0.088,0l0,0.075l0.088,-0l0,0.329c0,0.095 0.035,0.113 0.123,0.113l0.065,-0l-0,-0.075l-0.039,0c-0.053,0 -0.064,-0.007 -0.064,-0.046l-0,-0.321l0.103,-0l-0,-0.075l-0.103,0l-0,-0.155Z" style="fill:#ac2020;fill-rule:nonzero;"/>
                </g>
                <g transform="matrix(12,0,0,12,270.123,213.245)">
                    <path d="M0.064,-0l0.085,-0l-0,-0.292c-0,-0.093 0.05,-0.162 0.153,-0.162c0.065,-0 0.105,0.041 0.105,0.104l0,0.35l0.085,-0l-0,-0.34c-0,-0.111 -0.042,-0.189 -0.178,-0.189c-0.062,0 -0.135,0.026 -0.163,0.088l-0.002,-0l-0,-0.273l-0.085,0l0,0.714Z" style="fill:#ac2020;fill-rule:nonzero;"/>
                </g>
                <g transform="matrix(12,0,0,12,276.795,213.245)">
                    <path d="M0.421,-0.164c-0.015,0.067 -0.064,0.101 -0.134,0.101c-0.113,0 -0.164,-0.08 -0.161,-0.17l0.387,-0c0.005,-0.125 -0.051,-0.296 -0.234,-0.296c-0.141,0 -0.243,0.114 -0.243,0.269c0.005,0.158 0.083,0.272 0.248,0.272c0.116,-0 0.198,-0.062 0.221,-0.176l-0.084,-0Zm-0.295,-0.144c0.006,-0.079 0.059,-0.146 0.148,-0.146c0.084,-0 0.145,0.065 0.149,0.146l-0.297,0Z" style="fill:#ac2020;fill-rule:nonzero;"/>
                </g>
                <g transform="matrix(12,0,0,12,283.239,213.245)">
                    <path d="M0.061,-0l0.085,-0l-0,-0.23c-0,-0.131 0.05,-0.209 0.187,-0.209l-0,-0.09c-0.092,-0.003 -0.149,0.038 -0.19,0.121l-0.002,-0l-0,-0.109l-0.08,0l0,0.517Z" style="fill:#ac2020;fill-rule:nonzero;"/>
                </g>
                <g transform="matrix(12,0,0,12,290.571,213.245)">
                    <path d="M0.182,-0.672l-0.085,0l0,0.155l-0.088,0l0,0.075l0.088,-0l0,0.329c0,0.095 0.035,0.113 0.123,0.113l0.065,-0l-0,-0.075l-0.039,0c-0.053,0 -0.064,-0.007 -0.064,-0.046l-0,-0.321l0.103,-0l-0,-0.075l-0.103,0l-0,-0.155Z" style="fill:#ac2020;fill-rule:nonzero;"/>
                </g>
                <g transform="matrix(12,0,0,12,294.351,213.245)">
                    <path d="M0.384,-0.18c0,0.047 -0.046,0.117 -0.158,0.117c-0.052,0 -0.1,-0.02 -0.1,-0.076c-0,-0.063 0.048,-0.083 0.104,-0.093c0.057,-0.01 0.121,-0.011 0.154,-0.035l0,0.087Zm0.138,0.112c-0.011,0.004 -0.019,0.005 -0.026,0.005c-0.027,0 -0.027,-0.018 -0.027,-0.058l-0,-0.266c-0,-0.121 -0.101,-0.142 -0.194,-0.142c-0.115,0 -0.214,0.045 -0.219,0.173l0.085,-0c0.004,-0.076 0.057,-0.098 0.129,-0.098c0.054,-0 0.115,0.012 0.115,0.086c0,0.064 -0.08,0.058 -0.174,0.076c-0.088,0.017 -0.175,0.042 -0.175,0.159c0,0.103 0.077,0.145 0.171,0.145c0.072,-0 0.135,-0.025 0.182,-0.08c0,0.056 0.028,0.08 0.072,0.08c0.027,-0 0.046,-0.005 0.061,-0.014l-0,-0.066Z" style="fill:#ac2020;fill-rule:nonzero;"/>
                </g>
                <g transform="matrix(12,0,0,12,300.795,213.245)">
                    <path d="M0.061,-0l0.085,-0l-0,-0.23c-0,-0.131 0.05,-0.209 0.187,-0.209l-0,-0.09c-0.092,-0.003 -0.149,0.038 -0.19,0.121l-0.002,-0l-0,-0.109l-0.08,0l0,0.517Z" style="fill:#ac2020;fill-rule:nonzero;"/>
                </g>
                <g transform="matrix(12,0,0,12,304.455,213.245)">
                    <path d="M0.272,-0.069c-0.112,0 -0.146,-0.104 -0.146,-0.197c-0,-0.099 0.044,-0.188 0.153,-0.188c0.107,-0 0.147,0.094 0.147,0.185c0,0.097 -0.042,0.2 -0.154,0.2Zm0.238,-0.448l-0.08,0l0,0.074l-0.001,-0c-0.031,-0.057 -0.089,-0.086 -0.154,-0.086c-0.179,0 -0.239,0.151 -0.239,0.273c0,0.141 0.077,0.262 0.231,0.262c0.065,-0 0.133,-0.031 0.161,-0.094l0.002,0l0,0.034c0,0.116 -0.044,0.196 -0.155,0.196c-0.056,0 -0.13,-0.022 -0.134,-0.084l-0.085,-0c0.005,0.113 0.117,0.152 0.214,0.152c0.163,-0 0.24,-0.086 0.24,-0.254l-0,-0.473Z" style="fill:#ac2020;fill-rule:nonzero;"/>
                </g>
                <g transform="matrix(12,0,0,12,311.343,213.245)">
                    <path d="M0.421,-0.164c-0.015,0.067 -0.064,0.101 -0.134,0.101c-0.113,0 -0.164,-0.08 -0.161,-0.17l0.387,-0c0.005,-0.125 -0.051,-0.296 -0.234,-0.296c-0.141,0 -0.243,0.114 -0.243,0.269c0.005,0.158 0.083,0.272 0.248,0.272c0.116,-0 0.198,-0.062 0.221,-0.176l-0.084,-0Zm-0.295,-0.144c0.006,-0.079 0.059,-0.146 0.148,-0.146c0.084,-0 0.145,0.065 0.149,0.146l-0.297,0Z" style="fill:#ac2020;fill-rule:nonzero;"/>
                </g>
                <g transform="matrix(12,0,0,12,317.787,213.245)">
                    <path d="M0.182,-0.672l-0.085,0l0,0.155l-0.088,0l0,0.075l0.088,-0l0,0.329c0,0.095 0.035,0.113 0.123,0.113l0.065,-0l-0,-0.075l-0.039,0c-0.053,0 -0.064,-0.007 -0.064,-0.046l-0,-0.321l0.103,-0l-0,-0.075l-0.103,0l-0,-0.155Z" style="fill:#ac2020;fill-rule:nonzero;"/>
                </g>
                <g transform="matrix(12,0,0,12,321.567,213.245)">
                    <path d="M0.031,-0.163c0.005,0.128 0.103,0.175 0.219,0.175c0.105,-0 0.22,-0.04 0.22,-0.163c-0,-0.1 -0.084,-0.128 -0.169,-0.147c-0.079,-0.019 -0.169,-0.029 -0.169,-0.09c-0,-0.052 0.059,-0.066 0.11,-0.066c0.056,-0 0.114,0.021 0.12,0.087l0.085,-0c-0.007,-0.126 -0.098,-0.162 -0.212,-0.162c-0.09,0 -0.193,0.043 -0.193,0.147c0,0.099 0.085,0.127 0.169,0.146c0.085,0.019 0.169,0.03 0.169,0.096c0,0.065 -0.072,0.077 -0.125,0.077c-0.07,0 -0.136,-0.024 -0.139,-0.1l-0.085,0Z" style="fill:#ac2020;fill-rule:nonzero;"/>
                </g>
                <g transform="matrix(12,0,0,12,330.903,213.245)">
                    <path d="M0.334,-0.506l-0.068,0l0,0.219l-0.218,0l0,0.068l0.218,-0l0,0.219l0.068,-0l-0,-0.219l0.218,-0l-0,-0.068l-0.218,0l-0,-0.219Z" style="fill:#ac2020;fill-rule:nonzero;"/>
                </g>
                <g transform="matrix(12,0,0,12,341.439,213.245)">
                    <path d="M0.503,-0.351c-0.012,-0.123 -0.106,-0.178 -0.223,-0.178c-0.164,0 -0.244,0.122 -0.244,0.277c0,0.154 0.084,0.264 0.242,0.264c0.13,-0 0.209,-0.075 0.228,-0.201l-0.087,0c-0.011,0.078 -0.06,0.126 -0.142,0.126c-0.108,0 -0.151,-0.094 -0.151,-0.189c-0,-0.105 0.038,-0.202 0.161,-0.202c0.07,-0 0.115,0.038 0.128,0.103l0.088,-0Z" style="fill:#ac2020;fill-rule:nonzero;"/>
                </g>
                <g transform="matrix(12,0,0,12,347.883,213.245)">
                    <path d="M0.069,-0l0.085,-0l-0,-0.517l-0.085,0l0,0.517Zm0.085,-0.714l-0.085,0l0,0.104l0.085,-0l-0,-0.104Z" style="fill:#ac2020;fill-rule:nonzero;"/>
                </g>
                <g transform="matrix(12,0,0,12,350.547,213.245)">
                    <path d="M0.061,-0l0.085,-0l-0,-0.23c-0,-0.131 0.05,-0.209 0.187,-0.209l-0,-0.09c-0.092,-0.003 -0.149,0.038 -0.19,0.121l-0.002,-0l-0,-0.109l-0.08,0l0,0.517Z" style="fill:#ac2020;fill-rule:nonzero;"/>
                </g>
                <g transform="matrix(12,0,0,12,354.327,213.245)">
                    <path d="M0.503,-0.351c-0.012,-0.123 -0.106,-0.178 -0.223,-0.178c-0.164,0 -0.244,0.122 -0.244,0.277c0,0.154 0.084,0.264 0.242,0.264c0.13,-0 0.209,-0.075 0.228,-0.201l-0.087,0c-0.011,0.078 -0.06,0.126 -0.142,0.126c-0.108,0 -0.151,-0.094 -0.151,-0.189c-0,-0.105 0.038,-0.202 0.161,-0.202c0.07,-0 0.115,0.038 0.128,0.103l0.088,-0Z" style="fill:#ac2020;fill-rule:nonzero;"/>
                </g>
                <g transform="matrix(12,0,0,12,360.771,213.245)">
                    <rect x="0.069" y="-0.714" width="0.085" height="0.714" style="fill:#ac2020;fill-rule:nonzero;"/>
                </g>
                <g transform="matrix(12,0,0,12,363.435,213.245)">
                    <path d="M0.421,-0.164c-0.015,0.067 -0.064,0.101 -0.134,0.101c-0.113,0 -0.164,-0.08 -0.161,-0.17l0.387,-0c0.005,-0.125 -0.051,-0.296 -0.234,-0.296c-0.141,0 -0.243,0.114 -0.243,0.269c0.005,0.158 0.083,0.272 0.248,0.272c0.116,-0 0.198,-0.062 0.221,-0.176l-0.084,-0Zm-0.295,-0.144c0.006,-0.079 0.059,-0.146 0.148,-0.146c0.084,-0 0.145,0.065 0.149,0.146l-0.297,0Z" style="fill:#ac2020;fill-rule:nonzero;"/>
                </g>
                <g transform="matrix(12,0,0,12,369.879,213.245)">
                    <path d="M0.031,-0.163c0.005,0.128 0.103,0.175 0.219,0.175c0.105,-0 0.22,-0.04 0.22,-0.163c-0,-0.1 -0.084,-0.128 -0.169,-0.147c-0.079,-0.019 -0.169,-0.029 -0.169,-0.09c-0,-0.052 0.059,-0.066 0.11,-0.066c0.056,-0 0.114,0.021 0.12,0.087l0.085,-0c-0.007,-0.126 -0.098,-0.162 -0.212,-0.162c-0.09,0 -0.193,0.043 -0.193,0.147c0,0.099 0.085,0.127 0.169,0.146c0.085,0.019 0.169,0.03 0.169,0.096c0,0.065 -0.072,0.077 -0.125,0.077c-0.07,0 -0.136,-0.024 -0.139,-0.1l-0.085,0Z" style="fill:#ac2020;fill-rule:nonzero;"/>
                </g>
                <rect x="172.119" y="214.145" width="203.76" height="0.6" style="fill:#ac2020;"/>
            </g>
        </g>
        <path d="M361.541,56.779l4.398,-0l-0,-5.44l5.7,-0l-0,-3.398l-5.7,0l-0,-1.782l6.64,-0l-0,-3.658l-11.038,0l0,14.278Z" style="fill:#ac2020;fill-rule:nonzero;"/>
        <path d="M377.76,51.681l1.38,-4.4l0.04,0l1.28,4.4l-2.7,0Zm-6.019,5.098l4.42,-0l0.639,-2.04l4.54,-0l0.6,2.04l4.559,-0l-5.199,-14.278l-4.3,0l-5.259,14.278Z" style="fill:#ac2020;fill-rule:nonzero;"/>
        <rect x="387.481" y="42.501" width="4.397" height="14.278" style="fill:#ac2020;fill-rule:nonzero;"/>
        <path d="M394.141,56.779l10.718,-0l-0,-3.658l-6.32,0l-0,-10.62l-4.398,0l0,14.278Z" style="fill:#ac2020;fill-rule:nonzero;"/>
    </g>
</svg>
