<svg viewBox="0 0 410 355" xmlns="http://www.w3.org/2000/svg" xml:space="preserve" fill-rule="evenodd" clip-rule="evenodd" stroke-miterlimit="10"><rect width="410" height="355" fill="#fff"/><rect width="410" height="355" fill="none"/><path d="M60,266c0,-0 0.331,-0.637 0.613,-1l0.387,-0l0,0.011c0,-0.004 -0,-0.007 -0,-0.011l1,-0l0,1l-2,-0Zm0,1l1,-0l-0,1l-1,-0l0,-1Zm0,2l1,-0l-0,1l-1,0l0,-1Zm0,2l1,0l-0,1l-1,0l0,-1Zm0,2l1,0l0,1l-1,0l0,-1Zm0,2l1,-0l0,1l-1,-0l0,-1Zm0,2l1,-0l0,1l-1,0l0,-1Zm0,2l1,0l0,1l-1,-0l0,-1Zm0,2l1,-0l0,1l-1,0l0,-1Zm0,2l1,-0l0,1l-1,-0l0,-1Zm0,2l1,-0l-0,1l-1,-0l0,-1Zm0,2l1,-0l-0,2l-1,-0l0,-1l0.011,-0c-0.004,-0 -0.007,0 -0.011,0l0,-1Zm2,2l-0,-1l1,-0l-0,1l-1,-0Zm2,-0l0,-1l1,-0l0,1l-1,-0Zm2,-0l0,-1l1,-0l0,1l-1,-0Zm2,-0l0,-1l1,-0l0,1l-1,-0Zm2,-0l-0,-1l1,-0l-0,1l-1,-0Zm2,-0l-0,-1l1,-0l0,1l-1,-0Zm2,-0l0,-1l1,-0l-0,1l-1,-0Zm2,-0l0,-1l1,-0l0,1l-1,-0Zm2,-0l-0,-1l1,-0l0,1l-1,-0Zm2,-0l-0,-1l1,-0l-0,1l-1,-0Zm2,-0l-0,-1l2,-0l0,1l-1,-0l-0,-0.011c-0,0.004 0,0.007 0,0.011l-1,-0Zm2,-2l-1,-0l0,-1l1,0l0,1Zm0,-2l-1,-0l0,-1l1,-0l0,1Zm0,-2l-1,-0l0,-1l1,-0l0,1Zm0,-2l-1,-0l0,-1l1,-0l0,1Zm0,-2l-1,0l0,-1l1,0l0,1Zm0,-2l-1,0l-0,-1l1,-0l0,1Zm0,-2l-1,-0l-0,-1l1,0l0,1Zm0,-2l-1,-0l0,-1l1,-0l0,1Zm0,-2l-1,-0l-0,-1l1,-0l0,1Zm0,-2l-1,0l0,-1l1,0l0,1Zm0,-2l-1,0l0,-2c0,0.943 1,1 1,1l0,1Zm-2,-2l0,1l-1,-0l0,-1l1,-0Zm-2,-0l-0,1l-1,-0l-0,-1l1,-0Zm-2,-0l-0,1l-1,-0l-0,-1l1,-0Zm-2,-0l-0,1l-1,-0l-0,-1l1,-0Zm-2,-0l0,1l-1,-0l0,-1l1,-0Zm-2,-0l0,1l-1,-0l-0,-1l1,-0Zm-2,-0l-0,1l-1,-0l0,-1l1,-0Zm-2,-0l-0,1l-1,-0l-0,-1l1,-0Zm-2,-0l0,1l-1,-0l-0,-1l1,-0Zm-2,-0l0,1l-1,-0l0,-1l1,-0Z" fill="#6a6bd3"/><path d="M84,266c0,-0 0.331,-0.637 0.613,-1l0.387,-0l0,0.011c0,-0.004 -0,-0.007 -0,-0.011l1,-0l0,1l-2,-0Zm0,1l1,-0l0,1l-1,-0l0,-1Zm0,2l1,-0l0,1l-1,0l0,-1Zm0,2l1,0l0,1l-1,0l0,-1Zm0,2l1,0l0,1l-1,0l0,-1Zm0,2l1,-0l0,1l-1,-0l0,-1Zm0,2l1,-0l-0,1l-1,0l0,-1Zm0,2l1,0l-0,1l-1,-0l0,-1Zm0,2l1,-0l0,1l-1,0l0,-1Zm0,2l1,-0l-0,1l-1,-0l0,-1Zm0,2l1,-0l0,1l-1,-0l0,-1Zm0,2l1,-0l-0,2l-1,-0l0,-1l0.011,-0c-0.004,-0 -0.007,0 -0.011,0l0,-1Zm2,2l-0,-1l1,-0l-0,1l-1,-0Zm2,-0l0,-1l1,-0l0,1l-1,-0Zm2,-0l0,-1l1,-0l0,1l-1,-0Zm2,-0l0,-1l1,-0l0,1l-1,-0Zm2,-0l-0,-1l1,-0l-0,1l-1,-0Zm2,-0l-0,-1l1,-0l0,1l-1,-0Zm2,-0l0,-1l1,-0l-0,1l-1,-0Zm2,-0l0,-1l1,-0l0,1l-1,-0Zm2,-0l-0,-1l1,-0l0,1l-1,-0Zm2,-0l-0,-1l1,-0l-0,1l-1,-0Zm2,-0l-0,-1l2,-0l0,1l-1,-0l-0,-0.011c-0,0.004 0,0.007 0,0.011l-1,-0Zm2,-2l-1,-0l-0,-1l1,0l0,1Zm0,-2l-1,-0l0,-1l1,-0l0,1Zm0,-2l-1,-0l0,-1l1,-0l0,1Zm0,-2l-1,-0l0,-1l1,-0l0,1Zm0,-2l-1,0l0,-1l1,0l0,1Zm0,-2l-1,0l0,-1l1,-0l0,1Zm0,-2l-1,-0l0,-1l1,0l0,1Zm0,-2l-1,-0l0,-1l1,-0l0,1Zm0,-2l-1,-0l-0,-1l1,-0l0,1Zm0,-2l-1,0l0,-1l1,0l0,1Zm0,-2l-1,0l0,-2c0,0.943 1,1 1,1l0,1Zm-2,-2l0,1l-1,-0l0,-1l1,-0Zm-2,-0l-0,1l-1,-0l-0,-1l1,-0Zm-2,-0l-0,1l-1,-0l-0,-1l1,-0Zm-2,-0l-0,1l-1,-0l-0,-1l1,-0Zm-2,-0l0,1l-1,-0l0,-1l1,-0Zm-2,-0l0,1l-1,-0l-0,-1l1,-0Zm-2,-0l-0,1l-1,-0l0,-1l1,-0Zm-2,-0l-0,1l-1,-0l-0,-1l1,-0Zm-2,-0l0,1l-1,-0l-0,-1l1,-0Zm-2,-0l0,1l-1,-0l0,-1l1,-0Z" fill="#6a6bd3"/><path d="M108,266c0,-0 0.331,-0.637 0.613,-1l0.387,-0l0,0.011c0,-0.004 -0,-0.007 -0,-0.011l1,-0l0,1l-2,-0Zm0,1l1,-0l-0,1l-1,-0l0,-1Zm0,2l1,-0l0,1l-1,0l0,-1Zm0,2l1,0l0,1l-1,0l0,-1Zm0,2l1,0l0,1l-1,0l0,-1Zm0,2l1,-0l0,1l-1,-0l0,-1Zm0,2l1,-0l0,1l-1,0l0,-1Zm0,2l1,0l0,1l-1,-0l0,-1Zm0,2l1,-0l0,1l-1,0l0,-1Zm0,2l1,-0l-0,1l-1,-0l0,-1Zm0,2l1,-0l0,1l-1,-0l0,-1Zm0,2l1,-0l-0,2l-1,-0l0,-1l0.011,-0c-0.004,-0 -0.007,0 -0.011,0l0,-1Zm2,2l-0,-1l1,-0l-0,1l-1,-0Zm2,-0l0,-1l1,-0l0,1l-1,-0Zm2,-0l0,-1l1,-0l0,1l-1,-0Zm2,-0l0,-1l1,-0l0,1l-1,-0Zm2,-0l-0,-1l1,-0l-0,1l-1,-0Zm2,-0l-0,-1l1,-0l0,1l-1,-0Zm2,-0l0,-1l1,-0l-0,1l-1,-0Zm2,-0l0,-1l1,-0l0,1l-1,-0Zm2,-0l-0,-1l1,-0l0,1l-1,-0Zm2,-0l-0,-1l1,-0l-0,1l-1,-0Zm2,-0l-0,-1l2,-0l0,1l-1,-0l-0,-0.011c-0,0.004 0,0.007 0,0.011l-1,-0Zm2,-2l-1,-0l0,-1l1,0l0,1Zm0,-2l-1,-0l0,-1l1,-0l0,1Zm0,-2l-1,-0l0,-1l1,-0l0,1Zm0,-2l-1,-0l0,-1l1,-0l0,1Zm0,-2l-1,0l0,-1l1,0l0,1Zm0,-2l-1,0l0,-1l1,-0l0,1Zm0,-2l-1,-0l-0,-1l1,0l0,1Zm0,-2l-1,-0l-0,-1l1,-0l0,1Zm0,-2l-1,-0l0,-1l1,-0l0,1Zm0,-2l-1,0l0,-1l1,0l0,1Zm0,-2l-1,0l0,-2c0,0.943 1,1 1,1l0,1Zm-2,-2l0,1l-1,-0l0,-1l1,-0Zm-2,-0l-0,1l-1,-0l-0,-1l1,-0Zm-2,-0l-0,1l-1,-0l-0,-1l1,-0Zm-2,-0l-0,1l-1,-0l-0,-1l1,-0Zm-2,-0l0,1l-1,-0l0,-1l1,-0Zm-2,-0l0,1l-1,-0l-0,-1l1,-0Zm-2,-0l-0,1l-1,-0l0,-1l1,-0Zm-2,-0l-0,1l-1,-0l-0,-1l1,-0Zm-2,-0l0,1l-1,-0l-0,-1l1,-0Zm-2,-0l0,1l-1,-0l0,-1l1,-0Z" fill="#6a6bd3"/><path d="M138,268l2,0l-0,1l-1,0l-1,0l0,-1Zm18,18l-2,-0l0,-1l1,-0l1,-0l0,1Zm-18,-0l0,-2l1,0l0,1l0,1l-1,-0Zm0,-16l1,-0l0,1l-1,-0l0,-1Zm0,2l1,0l0,1l-1,0l0,-1Zm0,2l1,0l0,1l-1,0l0,-1Zm0,2l1,0l0,1l-1,0l0,-1Zm0,2l1,0l0,1l-1,-0l0,-1Zm0,2l1,0l-0,1l-1,0l0,-1Zm0,2l1,0l0,1l-1,0l0,-1Zm2,4l0,-1l1,-0l0,1l-1,-0Zm2,-0l0,-1l1,-0l0,1l-1,-0Zm2,-0l0,-1l1,-0l0,1l-1,-0Zm2,-0l0,-1l1,-0l0,1l-1,-0Zm2,-0l0,-1l1,-0l0,1l-1,-0Zm2,-0l0,-1l1,-0l0,1l-1,-0Zm2,-0l0,-1l1,-0l0,1l-1,-0Zm4,-2l-1,-0l0,-1l1,-0l0,1Zm0,-2l-1,-0l0,-1l1,-0l0,1Zm0,-2l-1,-0l0,-1l1,-0l0,1Zm0,-2l-1,-0l0,-1l1,-0l0,1Zm0,-2l-1,-0l0,-1l1,-0l0,1Zm0,-2l-1,-0l-0,-1l1,-0l0,1Zm0,-2l-1,-0l0,-1l1,-0l0,1Zm0,-2l-1,-0l0,-2l1,-0l0,2Zm-2,-2l-0,1l-1,-0l0,-1l1,-0Zm-2,-0l-0,1l-1,-0l-0,-1l1,-0Zm-2,-0l-0,1l-1,-0l-0,-1l1,-0Zm-2,0l-0,1l-1,-0l-0,-1l1,0Zm-2,0l-0,1l-1,-0l-0,-1l1,0Zm-2,0l-0,1l-1,-0l-0,-1l1,0Zm-2,0l-0,1l-1,-0l-0,-1l1,0Z" fill="#6a6bd3"/><path d="M162,266c0,-0 0.331,-0.637 0.613,-1l0.387,-0l0,0.011c0,-0.004 -0,-0.007 -0,-0.011l1,-0l0,1l-2,-0Zm0,1l1,-0l0,1l-1,-0l0,-1Zm0,2l1,-0l0,1l-1,0l0,-1Zm0,2l1,0l0,1l-1,0l0,-1Zm0,2l1,0l0,1l-1,0l0,-1Zm0,2l1,-0l0,1l-1,-0l0,-1Zm0,2l1,-0l0,1l-1,0l0,-1Zm0,2l1,0l0,1l-1,-0l0,-1Zm0,2l1,-0l0,1l-1,0l0,-1Zm0,2l1,-0l0,1l-1,-0l0,-1Zm0,2l1,-0l0,1l-1,-0l0,-1Zm0,2l1,-0l-0,2l-1,-0l0,-1l0.011,-0c-0.004,-0 -0.007,0 -0.011,0l0,-1Zm2,2l-0,-1l1,-0l-0,1l-1,-0Zm2,-0l0,-1l1,-0l0,1l-1,-0Zm2,-0l0,-1l1,-0l0,1l-1,-0Zm2,-0l0,-1l1,-0l0,1l-1,-0Zm2,-0l-0,-1l1,-0l-0,1l-1,-0Zm2,-0l-0,-1l1,-0l0,1l-1,-0Zm2,-0l0,-1l1,-0l-0,1l-1,-0Zm2,-0l0,-1l1,-0l0,1l-1,-0Zm2,-0l-0,-1l1,-0l0,1l-1,-0Zm2,-0l-0,-1l1,-0l-0,1l-1,-0Zm2,-0l-0,-1l2,-0l0,1l-1,-0l-0,-0.011c-0,0.004 0,0.007 0,0.011l-1,-0Zm2,-2l-1,-0l-0,-1l1,0l0,1Zm0,-2l-1,-0l-0,-1l1,-0l0,1Zm0,-2l-1,-0l-0,-1l1,-0l0,1Zm0,-2l-1,-0l-0,-1l1,-0l0,1Zm0,-2l-1,0l-0,-1l1,0l0,1Zm0,-2l-1,0l-0,-1l1,-0l0,1Zm0,-2l-1,-0l-0,-1l1,0l0,1Zm0,-2l-1,-0l0,-1l1,-0l0,1Zm0,-2l-1,-0l0,-1l1,-0l0,1Zm0,-2l-1,0l0,-1l1,0l0,1Zm0,-2l-1,0l0,-2c0,0.943 1,1 1,1l0,1Zm-2,-2l0,1l-1,-0l0,-1l1,-0Zm-2,-0l-0,1l-1,-0l-0,-1l1,-0Zm-2,-0l-0,1l-1,-0l-0,-1l1,-0Zm-2,-0l-0,1l-1,-0l-0,-1l1,-0Zm-2,-0l0,1l-1,-0l0,-1l1,-0Zm-2,-0l0,1l-1,-0l-0,-1l1,-0Zm-2,-0l-0,1l-1,-0l0,-1l1,-0Zm-2,-0l-0,1l-1,-0l-0,-1l1,-0Zm-2,-0l0,1l-1,-0l-0,-1l1,-0Zm-2,-0l0,1l-1,-0l0,-1l1,-0Z" fill="#6a6bd3"/><path d="M186,266c0,-0 0.331,-0.637 0.613,-1l0.387,-0l0,0.011c0,-0.004 -0,-0.007 -0,-0.011l1,-0l0,1l-2,-0Zm0,1l1,-0l0,1l-1,-0l0,-1Zm0,2l1,-0l0,1l-1,0l0,-1Zm0,2l1,0l0,1l-1,0l0,-1Zm0,2l1,0l0,1l-1,0l0,-1Zm0,2l1,-0l-0,1l-1,-0l0,-1Zm0,2l1,-0l0,1l-1,0l0,-1Zm0,2l1,0l0,1l-1,-0l0,-1Zm0,2l1,-0l0,1l-1,0l0,-1Zm0,2l1,-0l0,1l-1,-0l0,-1Zm0,2l1,-0l0,1l-1,-0l0,-1Zm0,2l1,-0l-0,2l-1,-0l0,-1l0.011,-0c-0.004,-0 -0.007,0 -0.011,0l0,-1Zm2,2l-0,-1l1,-0l-0,1l-1,-0Zm2,-0l0,-1l1,-0l0,1l-1,-0Zm2,-0l0,-1l1,-0l0,1l-1,-0Zm2,-0l0,-1l1,-0l0,1l-1,-0Zm2,-0l-0,-1l1,-0l-0,1l-1,-0Zm2,-0l-0,-1l1,-0l0,1l-1,-0Zm2,-0l0,-1l1,-0l-0,1l-1,-0Zm2,-0l0,-1l1,-0l0,1l-1,-0Zm2,-0l-0,-1l1,-0l0,1l-1,-0Zm2,-0l-0,-1l1,-0l-0,1l-1,-0Zm2,-0l-0,-1l2,-0l0,1l-0.989,-0l-0.011,-0.011l-0,0.011l-1,-0Zm2,-2l-1,-0l-0,-1l1,0l0,1Zm0,-2l-1,-0l-0,-1l1,-0l0,1Zm0,-2l-1,-0l-0,-1l1,-0l0,1Zm0,-2l-1,-0l-0,-1l1,-0l0,1Zm0,-2l-1,0l-0,-1l1,0l0,1Zm0,-2l-1,0l-0,-1l1,-0l0,1Zm0,-2l-1,-0l-0,-1l1,0l0,1Zm0,-2l-1,-0l0,-1l1,-0l0,1Zm0,-2l-1,-0l0,-1l1,-0l0,1Zm0,-2l-1,0l0,-1l1,0l0,1Zm0,-2l-1,0l0,-2c0,0.943 1,1 1,1l0,1Zm-2,-2l0,1l-1,-0l0,-1l1,-0Zm-2,-0l-0,1l-1,-0l-0,-1l1,-0Zm-2,-0l-0,1l-1,-0l-0,-1l1,-0Zm-2,-0l-0,1l-1,-0l-0,-1l1,-0Zm-2,-0l0,1l-1,-0l0,-1l1,-0Zm-2,-0l0,1l-1,-0l-0,-1l1,-0Zm-2,-0l-0,1l-1,-0l0,-1l1,-0Zm-2,-0l-0,1l-1,-0l-0,-1l1,-0Zm-2,-0l0,1l-1,-0l-0,-1l1,-0Zm-2,-0l0,1l-1,-0l0,-1l1,-0Z" fill="#6a6bd3"/><path d="M201,275c0,1.646 -1.354,3 -3,3c-1.646,-0 -3,-1.354 -3,-3c0,-1.646 1.354,-3 3,-3c1.646,-0 3,1.354 3,3Z" fill-rule="nonzero"/><path d="M190,277c0,-4.389 3.611,-8 8,-8c4.389,-0 8,3.611 8,8c0,4.389 -3.611,8 -8,8c-4.389,-0 -8,-3.611 -8,-8Zm8,-7c-3.84,0 -7,3.16 -7,7c0,1.588 0.541,3.13 1.532,4.37c0.71,-1.144 2.273,-2.37 5.468,-2.37c3.195,-0 4.757,1.225 5.468,2.37c0.991,-1.24 1.532,-2.782 1.532,-4.37c-0,-3.84 -3.16,-7 -7,-7Z"/><path d="M175.535,270.016c0.132,-0.001 0.26,0.052 0.354,0.146l4.95,4.95c0.194,0.194 0.194,0.513 -0,0.707c-0.48,0.48 -1.072,0.588 -1.503,0.588c-0.177,-0 -0.335,-0.018 -0.46,-0.039l-3.134,3.134c0.082,0.332 0.136,0.671 0.16,1.013c0.046,0.702 -0.032,1.687 -0.72,2.375c-0.194,0.194 -0.513,0.194 -0.707,-0l-2.829,-2.828l-3.182,3.182c-0.195,0.195 -1.219,0.902 -1.414,0.707c-0.195,-0.195 0.512,-1.22 0.707,-1.414l3.182,-3.182l-2.828,-2.829c-0.194,-0.194 -0.194,-0.513 -0,-0.707c0.688,-0.688 1.673,-0.767 2.375,-0.72c0.341,0.024 0.68,0.077 1.013,0.16l3.134,-3.133c-0.027,-0.153 -0.04,-0.307 -0.04,-0.461c-0,-0.43 0.108,-1.022 0.589,-1.503c0.093,-0.094 0.22,-0.146 0.353,-0.146Z" fill-rule="nonzero"/><path d="M139.05,272.555c0.207,-0.907 1.02,-1.555 1.95,-1.555l12,-0c0.93,-0 1.743,0.648 1.95,1.555l-7.95,4.859l-7.95,-4.859Zm-0.05,1.142l0,7.104l5.803,-3.558l-5.803,-3.546Zm6.761,4.133l-6.57,4.026c0.33,0.698 1.037,1.145 1.809,1.144l6.256,-0c-0.17,-0.482 -0.257,-0.989 -0.256,-1.5c-0.001,-1.329 0.587,-2.592 1.606,-3.446l-0.367,-0.225l-1.239,0.757l-1.239,-0.757l0,0.001Zm9.239,-4.133l0,4.974c-0.853,-1.057 -2.141,-1.672 -3.5,-1.671c-0.681,-0.001 -1.353,0.153 -1.965,0.45l-0.338,-0.207l5.803,-3.546Z" fill-rule="nonzero"/><path d="M155,281.5c0,1.92 -1.58,3.5 -3.5,3.5c-1.92,-0 -3.5,-1.58 -3.5,-3.5c0,-1.92 1.58,-3.5 3.5,-3.5c1.92,-0 3.5,1.58 3.5,3.5Zm-3.5,-2c-0.274,-0 -0.5,0.226 -0.5,0.5l0,1l-1,-0c-0.274,-0 -0.5,0.226 -0.5,0.5c0,0.274 0.226,0.5 0.5,0.5l1,-0l0,1c0,0.274 0.226,0.5 0.5,0.5c0.274,-0 0.5,-0.226 0.5,-0.5l0,-1l1,-0c0.274,-0 0.5,-0.226 0.5,-0.5c0,-0.274 -0.226,-0.5 -0.5,-0.5l-1,-0l0,-1c0,-0.274 -0.226,-0.5 -0.5,-0.5Z" fill-rule="nonzero"/><path d="M120.707,270.395c-0.388,-0.387 -1.026,-0.387 -1.414,0l-6.647,6.646c-0.094,0.094 -0.147,0.222 -0.147,0.354c0,0.275 0.226,0.501 0.501,0.501c0.133,0 0.26,-0.053 0.354,-0.147l6.646,-6.647l6.646,6.647c0.094,0.094 0.221,0.147 0.354,0.147c0.275,0 0.501,-0.226 0.501,-0.501c-0,-0.132 -0.053,-0.26 -0.147,-0.354l-2.354,-2.353l-0,-3.293c-0,-0.274 -0.226,-0.5 -0.5,-0.5l-1,0c-0.274,0 -0.5,0.226 -0.5,0.5l-0,1.293l-2.293,-2.293Z" fill-rule="nonzero"/><path d="M120,272.188l6,6l-0,4.207c-0,0.823 -0.677,1.5 -1.5,1.5l-9,0c-0.823,0 -1.5,-0.677 -1.5,-1.5l-0,-4.207l6,-6Z" fill-rule="nonzero"/><path d="M96,269c4.389,-0 8,3.611 8,8c0,4.389 -3.611,8 -8,8c-4.389,-0 -8,-3.611 -8,-8c0,-4.389 3.611,-8 8,-8Zm-3.5,7.5c-0.274,-0 -0.5,0.226 -0.5,0.5c0,0.274 0.226,0.5 0.5,0.5l5.793,-0l-2.147,2.146c-0.094,0.094 -0.147,0.221 -0.147,0.354c0,0.275 0.226,0.501 0.501,0.501c0.133,-0 0.26,-0.053 0.354,-0.147l3,-3c0.094,-0.094 0.147,-0.221 0.147,-0.354c-0,-0.133 -0.053,-0.26 -0.147,-0.354l-3,-3c-0.094,-0.094 -0.221,-0.147 -0.354,-0.147c-0.275,0 -0.501,0.226 -0.501,0.501c0,0.133 0.053,0.26 0.147,0.354l2.147,2.146l-5.793,-0Z" fill-rule="nonzero"/><path d="M72,269c-4.389,-0 -8,3.611 -8,8c0,4.389 3.611,8 8,8c4.389,-0 8,-3.611 8,-8c0,-4.389 -3.611,-8 -8,-8Zm3.5,7.5c0.274,-0 0.5,0.226 0.5,0.5c0,0.274 -0.226,0.5 -0.5,0.5l-5.793,-0l2.147,2.146c0.094,0.094 0.147,0.221 0.147,0.354c-0,0.275 -0.226,0.501 -0.501,0.501c-0.133,-0 -0.26,-0.053 -0.354,-0.147l-3,-3c-0.094,-0.094 -0.147,-0.221 -0.147,-0.354c0,-0.133 0.053,-0.26 0.147,-0.354l3,-3c0.094,-0.094 0.221,-0.147 0.354,-0.147c0.275,0 0.501,0.226 0.501,0.501c-0,0.133 -0.053,0.26 -0.147,0.354l-2.147,2.146l5.793,-0Z" fill-rule="nonzero"/><path d="M54.5,265.5l-8,-0" fill="none" stroke="#000" stroke-width="1px"/><path d="M54.5,288.5l-8,-0" fill="none" stroke="#000" stroke-width="1px"/><path d="M50.5,265.5l-0,23" fill="none" stroke="#000" stroke-width="1px" stroke-miterlimit="1"/><path d="M138.41,253.25l-0,8" fill="none" stroke="#000" stroke-width="1px"/><path d="M155.41,253.25l-0,8" fill="none" stroke="#000" stroke-width="1px"/><path d="M138.41,257.25l17,-0" fill="none" stroke="#000" stroke-width="1px" stroke-miterlimit="1"/><path d="M132.41,294.208l-0,8" fill="none" stroke="#000" stroke-width="1px"/><path d="M161.41,294.208l-0,8" fill="none" stroke="#000" stroke-width="1px"/><path d="M132.41,298.208l29,0" fill="none" stroke="#000" stroke-width="1px" stroke-miterlimit="1"/><path d="M60.5,294.5l0,8" fill="none" stroke="#000" stroke-width="1px"/><path d="M83.5,294.5l0,8" fill="none" stroke="#000" stroke-width="1px"/><path d="M60.5,298.5l23,0" fill="none" stroke="#000" stroke-width="1px" stroke-miterlimit="1"/><path d="M17.871,274.28c-0.036,-1.02 0.468,-2.112 1.657,-2.112c0.9,-0 1.645,0.612 1.645,1.536c-0,1.176 -0.733,1.704 -2.173,2.592c-1.201,0.745 -2.219,1.465 -2.387,3.48l5.554,-0l0,-0.899l-4.368,0c0.204,-1.056 1.321,-1.596 2.389,-2.244c1.057,-0.661 2.063,-1.417 2.063,-2.917c0,-1.584 -1.174,-2.447 -2.663,-2.447c-1.801,0 -2.819,1.283 -2.735,3.011l1.018,0Z" fill-rule="nonzero"/><path d="M28.023,271.269l-0.814,0l-3.876,5.532l-0,0.983l3.732,-0l-0,1.992l0.958,-0l0,-1.992l1.152,-0l0,-0.899l-1.152,0l0,-5.616Zm-3.814,5.616l2.832,-4.164l0.024,0l-0,4.164l-2.856,0Z" fill-rule="nonzero"/><path d="M35.273,276.62c-0,1.213 -0.468,2.401 -1.861,2.401c-1.405,0 -1.957,-1.128 -1.957,-2.353c0,-1.164 0.528,-2.34 1.897,-2.34c1.321,-0 1.921,1.128 1.921,2.292Zm-4.8,5.532l1.018,-0l0,-3.203l0.024,0c0.456,0.731 1.369,0.971 2.005,0.971c1.897,-0 2.831,-1.475 2.831,-3.228c0,-1.752 -0.946,-3.263 -2.855,-3.263c-0.852,0 -1.645,0.3 -1.981,0.983l-0.024,-0l0,-0.839l-1.018,0l-0,8.579Z" fill-rule="nonzero"/><path d="M36.893,279.776l1.235,-0l1.728,-2.578l1.728,2.578l1.307,-0l-2.399,-3.36l2.135,-2.843l-1.223,0l-1.548,2.162l-1.488,-2.162l-1.307,0l2.159,2.939l-2.327,3.264Z" fill-rule="nonzero"/><path d="M137.033,242.311l-0.779,-0c-0.228,1.284 -1.284,1.596 -2.448,1.596l0,0.814l2.208,0l0,6.096l1.019,0l-0,-8.506Z" fill-rule="nonzero"/><path d="M140.993,248.418c-0,-0.984 0.792,-1.633 1.8,-1.633c0.961,0 1.753,0.697 1.753,1.621c0,0.948 -0.72,1.657 -1.741,1.657c-1.056,-0 -1.812,-0.625 -1.812,-1.645Zm-0.779,-3.937c0,0.768 0.479,1.476 1.187,1.764c-0.948,0.336 -1.487,1.117 -1.487,2.125c0,1.741 1.259,2.591 2.891,2.591c1.573,0 2.82,-0.946 2.82,-2.591c-0,-1.056 -0.492,-1.801 -1.511,-2.125c0.695,-0.312 1.175,-1.008 1.175,-1.764c-0,-1.08 -0.719,-2.17 -2.58,-2.17c-1.308,-0 -2.495,0.766 -2.495,2.17Zm1.079,0.037c-0,-0.853 0.672,-1.309 1.488,-1.309c0.829,0 1.429,0.456 1.429,1.309c0,0.864 -0.6,1.369 -1.405,1.369c-0.84,-0 -1.512,-0.432 -1.512,-1.369Z" fill-rule="nonzero"/><path d="M151.71,247.662c0,1.212 -0.468,2.401 -1.861,2.401c-1.404,-0 -1.956,-1.129 -1.956,-2.353c-0,-1.164 0.528,-2.341 1.896,-2.341c1.321,0 1.921,1.129 1.921,2.293Zm-4.8,5.531l1.019,0l-0,-3.202l0.024,-0c0.456,0.731 1.368,0.97 2.004,0.97c1.897,0 2.832,-1.474 2.832,-3.227c-0,-1.753 -0.947,-3.263 -2.856,-3.263c-0.852,-0 -1.644,0.299 -1.98,0.982l-0.024,0l-0,-0.838l-1.019,-0l0,8.578Z" fill-rule="nonzero"/><path d="M153.33,250.817l1.236,0l1.727,-2.577l1.728,2.577l1.308,0l-2.4,-3.36l2.136,-2.842l-1.224,-0l-1.548,2.161l-1.487,-2.161l-1.308,-0l2.159,2.938l-2.327,3.264Z" fill-rule="nonzero"/><path d="M136.377,309.28c0.192,-0.024 0.408,-0.036 0.612,-0.036c1.009,-0 1.813,0.564 1.813,1.632c0,1.033 -0.852,1.645 -1.849,1.645c-1.164,0 -1.776,-0.768 -1.812,-1.873l-1.019,0c-0.036,1.753 1.103,2.772 2.831,2.772c1.597,-0 2.928,-0.887 2.928,-2.592c-0,-1.02 -0.504,-1.836 -1.535,-2.064l-0,-0.023c0.647,-0.3 1.175,-0.948 1.175,-1.693c-0,-1.572 -1.115,-2.279 -2.592,-2.279c-1.704,0 -2.567,1.127 -2.627,2.748l1.019,-0c0.012,-0.997 0.492,-1.849 1.608,-1.849c0.865,-0 1.513,0.48 1.513,1.368c0,0.925 -0.756,1.393 -1.621,1.393c-0.144,0 -0.288,0 -0.444,-0.012l0,0.863Z" fill-rule="nonzero"/><path d="M140.938,309.1c0,1.873 0.168,4.32 2.831,4.32c2.664,-0 2.832,-2.447 2.832,-4.32c-0,-1.884 -0.168,-4.331 -2.832,-4.331c-2.663,0 -2.831,2.447 -2.831,4.331Zm1.079,-0.012c-0,-1.26 0.012,-3.42 1.752,-3.42c1.741,-0 1.753,2.16 1.753,3.42c0,1.273 -0.012,3.433 -1.753,3.433c-1.74,0 -1.752,-2.16 -1.752,-3.433Z" fill-rule="nonzero"/><path d="M152.71,310.12c0,1.213 -0.468,2.401 -1.861,2.401c-1.404,0 -1.956,-1.128 -1.956,-2.353c-0,-1.164 0.528,-2.34 1.896,-2.34c1.321,-0 1.921,1.128 1.921,2.292Zm-4.8,5.532l1.019,-0l-0,-3.203l0.024,0c0.456,0.731 1.368,0.971 2.004,0.971c1.897,-0 2.832,-1.475 2.832,-3.228c-0,-1.752 -0.947,-3.263 -2.856,-3.263c-0.852,0 -1.644,0.3 -1.98,0.983l-0.024,-0l-0,-0.839l-1.019,0l0,8.579Z" fill-rule="nonzero"/><path d="M154.33,313.276l1.236,-0l1.727,-2.578l1.728,2.578l1.308,-0l-2.4,-3.36l2.136,-2.843l-1.224,0l-1.548,2.162l-1.487,-2.162l-1.308,0l2.159,2.939l-2.327,3.264Z" fill-rule="nonzero"/><path d="M60.399,308.072c-0.036,-1.021 0.468,-2.113 1.656,-2.113c0.901,0 1.645,0.612 1.645,1.537c0,1.176 -0.732,1.704 -2.173,2.592c-1.2,0.744 -2.219,1.464 -2.387,3.479l5.555,0l-0,-0.898l-4.368,-0c0.204,-1.056 1.32,-1.597 2.389,-2.245c1.056,-0.66 2.063,-1.416 2.063,-2.916c-0,-1.585 -1.175,-2.447 -2.664,-2.447c-1.8,-0 -2.819,1.282 -2.735,3.011l1.019,-0Z" fill-rule="nonzero"/><path d="M70.551,305.061l-0.815,-0l-3.876,5.532l0,0.982l3.732,0l0,1.992l0.959,0l-0,-1.992l1.152,0l-0,-0.898l-1.152,-0l-0,-5.616Zm-3.815,5.616l2.832,-4.164l0.024,-0l0,4.164l-2.856,-0Z" fill-rule="nonzero"/><path d="M77.8,310.412c0,1.212 -0.468,2.401 -1.861,2.401c-1.404,-0 -1.956,-1.129 -1.956,-2.353c-0,-1.164 0.528,-2.341 1.896,-2.341c1.321,0 1.921,1.129 1.921,2.293Zm-4.8,5.531l1.019,0l-0,-3.202l0.024,-0c0.456,0.731 1.368,0.97 2.004,0.97c1.897,0 2.832,-1.474 2.832,-3.227c-0,-1.753 -0.947,-3.263 -2.856,-3.263c-0.852,-0 -1.644,0.299 -1.98,0.982l-0.024,0l-0,-0.838l-1.019,-0l0,8.578Z" fill-rule="nonzero"/><path d="M79.42,313.567l1.236,0l1.727,-2.577l1.728,2.577l1.308,0l-2.4,-3.36l2.136,-2.842l-1.224,-0l-1.548,2.161l-1.487,-2.161l-1.308,-0l2.16,2.938l-2.328,3.264Z" fill-rule="nonzero"/><path d="M60,146c0,-0 0.331,-0.637 0.613,-1l0.387,-0l0,0.011c0,-0.004 -0,-0.007 -0,-0.011l1,-0l0,1l-2,-0Zm0,1l1,-0l-0,1l-1,-0l0,-1Zm0,2l1,-0l-0,1l-1,0l0,-1Zm0,2l1,0l-0,1l-1,0l0,-1Zm0,2l1,0l0,1l-1,0l0,-1Zm0,2l1,-0l0,1l-1,-0l0,-1Zm0,2l1,-0l0,1l-1,0l0,-1Zm0,2l1,0l0,1l-1,-0l0,-1Zm0,2l1,-0l0,1l-1,0l0,-1Zm0,2l1,-0l0,1l-1,-0l0,-1Zm0,2l1,-0l-0,1l-1,-0l0,-1Zm0,2l1,-0l-0,2l-1,-0l0,-1l0.011,-0c-0.004,-0 -0.007,0 -0.011,0l0,-1Zm2,2l-0,-1l1,-0l-0,1l-1,-0Zm2,-0l0,-1l1,-0l0,1l-1,-0Zm2,-0l0,-1l1,-0l0,1l-1,-0Zm2,-0l0,-1l1,-0l0,1l-1,-0Zm2,-0l-0,-1l1,-0l-0,1l-1,-0Zm2,-0l-0,-1l1,-0l0,1l-1,-0Zm2,-0l0,-1l1,-0l-0,1l-1,-0Zm2,-0l0,-1l1,-0l0,1l-1,-0Zm2,-0l-0,-1l1,-0l0,1l-1,-0Zm2,-0l-0,-1l1,-0l-0,1l-1,-0Zm2,-0l-0,-1l2,-0l0,1l-1,-0l-0,-0.011c-0,0.004 0,0.007 0,0.011l-1,-0Zm2,-2l-1,-0l0,-1l1,0l0,1Zm0,-2l-1,-0l0,-1l1,-0l0,1Zm0,-2l-1,-0l0,-1l1,-0l0,1Zm0,-2l-1,-0l0,-1l1,-0l0,1Zm0,-2l-1,0l0,-1l1,0l0,1Zm0,-2l-1,0l-0,-1l1,-0l0,1Zm0,-2l-1,-0l-0,-1l1,0l0,1Zm0,-2l-1,-0l0,-1l1,-0l0,1Zm0,-2l-1,-0l-0,-1l1,-0l0,1Zm0,-2l-1,0l0,-1l1,0l0,1Zm0,-2l-1,0l0,-2c0,0.943 1,1 1,1l0,1Zm-2,-2l0,1l-1,-0l0,-1l1,-0Zm-2,-0l-0,1l-1,-0l-0,-1l1,-0Zm-2,-0l-0,1l-1,-0l-0,-1l1,-0Zm-2,-0l-0,1l-1,-0l-0,-1l1,-0Zm-2,-0l0,1l-1,-0l0,-1l1,-0Zm-2,-0l0,1l-1,-0l-0,-1l1,-0Zm-2,-0l-0,1l-1,-0l0,-1l1,-0Zm-2,-0l-0,1l-1,-0l-0,-1l1,-0Zm-2,-0l0,1l-1,-0l-0,-1l1,-0Zm-2,-0l0,1l-1,-0l0,-1l1,-0Z" fill="#6a6bd3"/><path d="M84,146c0,-0 0.331,-0.637 0.613,-1l0.387,-0l0,0.011c0,-0.004 -0,-0.007 -0,-0.011l1,-0l0,1l-2,-0Zm0,1l1,-0l0,1l-1,-0l0,-1Zm0,2l1,-0l0,1l-1,0l0,-1Zm0,2l1,0l0,1l-1,0l0,-1Zm0,2l1,0l0,1l-1,0l0,-1Zm0,2l1,-0l0,1l-1,-0l0,-1Zm0,2l1,-0l-0,1l-1,0l0,-1Zm0,2l1,0l-0,1l-1,-0l0,-1Zm0,2l1,-0l0,1l-1,0l0,-1Zm0,2l1,-0l-0,1l-1,-0l0,-1Zm0,2l1,-0l0,1l-1,-0l0,-1Zm0,2l1,-0l-0,2l-1,-0l0,-1l0.011,-0c-0.004,-0 -0.007,0 -0.011,0l0,-1Zm2,2l-0,-1l1,-0l-0,1l-1,-0Zm2,-0l0,-1l1,-0l0,1l-1,-0Zm2,-0l0,-1l1,-0l0,1l-1,-0Zm2,-0l0,-1l1,-0l0,1l-1,-0Zm2,-0l-0,-1l1,-0l-0,1l-1,-0Zm2,-0l-0,-1l1,-0l0,1l-1,-0Zm2,-0l0,-1l1,-0l-0,1l-1,-0Zm2,-0l0,-1l1,-0l0,1l-1,-0Zm2,-0l-0,-1l1,-0l0,1l-1,-0Zm2,-0l-0,-1l1,-0l-0,1l-1,-0Zm2,-0l-0,-1l2,-0l0,1l-1,-0l-0,-0.011c-0,0.004 0,0.007 0,0.011l-1,-0Zm2,-2l-1,-0l-0,-1l1,0l0,1Zm0,-2l-1,-0l0,-1l1,-0l0,1Zm0,-2l-1,-0l0,-1l1,-0l0,1Zm0,-2l-1,-0l0,-1l1,-0l0,1Zm0,-2l-1,0l0,-1l1,0l0,1Zm0,-2l-1,0l0,-1l1,-0l0,1Zm0,-2l-1,-0l0,-1l1,0l0,1Zm0,-2l-1,-0l0,-1l1,-0l0,1Zm0,-2l-1,-0l-0,-1l1,-0l0,1Zm0,-2l-1,0l0,-1l1,0l0,1Zm0,-2l-1,0l0,-2c0,0.943 1,1 1,1l0,1Zm-2,-2l0,1l-1,-0l0,-1l1,-0Zm-2,-0l-0,1l-1,-0l-0,-1l1,-0Zm-2,-0l-0,1l-1,-0l-0,-1l1,-0Zm-2,-0l-0,1l-1,-0l-0,-1l1,-0Zm-2,-0l0,1l-1,-0l0,-1l1,-0Zm-2,-0l0,1l-1,-0l-0,-1l1,-0Zm-2,-0l-0,1l-1,-0l0,-1l1,-0Zm-2,-0l-0,1l-1,-0l-0,-1l1,-0Zm-2,-0l0,1l-1,-0l-0,-1l1,-0Zm-2,-0l0,1l-1,-0l0,-1l1,-0Z" fill="#6a6bd3"/><path d="M108,146c0,-0 0.331,-0.637 0.613,-1l0.387,-0l0,0.011c0,-0.004 -0,-0.007 -0,-0.011l1,-0l0,1l-2,-0Zm0,1l1,-0l-0,1l-1,-0l0,-1Zm0,2l1,-0l0,1l-1,0l0,-1Zm0,2l1,0l0,1l-1,0l0,-1Zm0,2l1,0l0,1l-1,0l0,-1Zm0,2l1,-0l0,1l-1,-0l0,-1Zm0,2l1,-0l0,1l-1,0l0,-1Zm0,2l1,0l0,1l-1,-0l0,-1Zm0,2l1,-0l0,1l-1,0l0,-1Zm0,2l1,-0l-0,1l-1,-0l0,-1Zm0,2l1,-0l0,1l-1,-0l0,-1Zm0,2l1,-0l-0,2l-1,-0l0,-1l0.011,-0c-0.004,-0 -0.007,0 -0.011,0l0,-1Zm2,2l-0,-1l1,-0l-0,1l-1,-0Zm2,-0l0,-1l1,-0l0,1l-1,-0Zm2,-0l0,-1l1,-0l0,1l-1,-0Zm2,-0l0,-1l1,-0l0,1l-1,-0Zm2,-0l-0,-1l1,-0l-0,1l-1,-0Zm2,-0l-0,-1l1,-0l0,1l-1,-0Zm2,-0l0,-1l1,-0l-0,1l-1,-0Zm2,-0l0,-1l1,-0l0,1l-1,-0Zm2,-0l-0,-1l1,-0l0,1l-1,-0Zm2,-0l-0,-1l1,-0l-0,1l-1,-0Zm2,-0l-0,-1l2,-0l0,1l-1,-0l-0,-0.011c-0,0.004 0,0.007 0,0.011l-1,-0Zm2,-2l-1,-0l0,-1l1,0l0,1Zm0,-2l-1,-0l0,-1l1,-0l0,1Zm0,-2l-1,-0l0,-1l1,-0l0,1Zm0,-2l-1,-0l0,-1l1,-0l0,1Zm0,-2l-1,0l0,-1l1,0l0,1Zm0,-2l-1,0l0,-1l1,-0l0,1Zm0,-2l-1,-0l-0,-1l1,0l0,1Zm0,-2l-1,-0l-0,-1l1,-0l0,1Zm0,-2l-1,-0l0,-1l1,-0l0,1Zm0,-2l-1,0l0,-1l1,0l0,1Zm0,-2l-1,0l0,-2c0,0.943 1,1 1,1l0,1Zm-2,-2l0,1l-1,-0l0,-1l1,-0Zm-2,-0l-0,1l-1,-0l-0,-1l1,-0Zm-2,-0l-0,1l-1,-0l-0,-1l1,-0Zm-2,-0l-0,1l-1,-0l-0,-1l1,-0Zm-2,-0l0,1l-1,-0l0,-1l1,-0Zm-2,-0l0,1l-1,-0l-0,-1l1,-0Zm-2,-0l-0,1l-1,-0l0,-1l1,-0Zm-2,-0l-0,1l-1,-0l-0,-1l1,-0Zm-2,-0l0,1l-1,-0l-0,-1l1,-0Zm-2,-0l0,1l-1,-0l0,-1l1,-0Z" fill="#6a6bd3"/><path d="M135,148l2,0l-0,1l-1,0l-1,0l0,-1Zm18,18l-2,-0l0,-1l1,-0l1,-0l0,1Zm-18,-0l0,-2l1,0l0,1l0,1l-1,-0Zm0,-16l1,-0l0,1l-1,-0l0,-1Zm0,2l1,0l0,1l-1,0l0,-1Zm0,2l1,0l0,1l-1,0l0,-1Zm0,2l1,0l0,1l-1,0l0,-1Zm0,2l1,0l0,1l-1,-0l0,-1Zm0,2l1,0l0,1l-1,0l0,-1Zm0,2l1,0l0,1l-1,0l0,-1Zm2,4l0,-1l1,-0l0,1l-1,-0Zm2,-0l0,-1l1,-0l0,1l-1,-0Zm2,-0l0,-1l1,-0l0,1l-1,-0Zm2,-0l0,-1l1,-0l0,1l-1,-0Zm2,-0l0,-1l1,-0l0,1l-1,-0Zm2,-0l0,-1l1,-0l0,1l-1,-0Zm2,-0l0,-1l1,-0l0,1l-1,-0Zm4,-2l-1,-0l0,-1l1,-0l0,1Zm0,-2l-1,-0l0,-1l1,-0l0,1Zm0,-2l-1,-0l0,-1l1,-0l0,1Zm0,-2l-1,-0l0,-1l1,-0l0,1Zm0,-2l-1,-0l0,-1l1,-0l0,1Zm0,-2l-1,-0l0,-1l1,-0l0,1Zm0,-2l-1,-0l0,-1l1,-0l0,1Zm0,-2l-1,-0l0,-2l1,-0l0,2Zm-2,-2l-0,1l-1,-0l0,-1l1,-0Zm-2,-0l-0,1l-1,-0l-0,-1l1,-0Zm-2,-0l-0,1l-1,-0l-0,-1l1,-0Zm-2,0l-0,1l-1,-0l-0,-1l1,0Zm-2,0l-0,1l-1,-0l-0,-1l1,0Zm-2,0l-0,1l-1,-0l-0,-1l1,0Zm-2,0l-0,1l-1,-0l-0,-1l1,0Z" fill="#6a6bd3"/><path d="M156,146c0,-0 0.331,-0.637 0.613,-1l0.387,-0l0,0.011c0,-0.004 -0,-0.007 -0,-0.011l1,-0l0,1l-2,-0Zm0,1l1,-0l0,1l-1,-0l0,-1Zm0,2l1,-0l0,1l-1,0l0,-1Zm0,2l1,0l0,1l-1,0l0,-1Zm0,2l1,0l0,1l-1,0l0,-1Zm0,2l1,-0l0,1l-1,-0l0,-1Zm0,2l1,-0l0,1l-1,0l0,-1Zm0,2l1,0l0,1l-1,-0l0,-1Zm0,2l1,-0l0,1l-1,0l0,-1Zm0,2l1,-0l0,1l-1,-0l0,-1Zm0,2l1,-0l0,1l-1,-0l0,-1Zm0,2l1,-0l-0,2l-1,-0l0,-1l0.011,-0c-0.004,-0 -0.007,0 -0.011,0l0,-1Zm2,2l-0,-1l1,-0l-0,1l-1,-0Zm2,-0l0,-1l1,-0l0,1l-1,-0Zm2,-0l0,-1l1,-0l0,1l-1,-0Zm2,-0l0,-1l1,-0l0,1l-1,-0Zm2,-0l-0,-1l1,-0l-0,1l-1,-0Zm2,-0l-0,-1l1,-0l0,1l-1,-0Zm2,-0l0,-1l1,-0l-0,1l-1,-0Zm2,-0l0,-1l1,-0l0,1l-1,-0Zm2,-0l-0,-1l1,-0l0,1l-1,-0Zm2,-0l-0,-1l1,-0l-0,1l-1,-0Zm2,-0l-0,-1l2,-0l0,1l-0.989,-0l-0.011,-0.011l-0,0.011l-1,-0Zm2,-2l-1,-0l0,-1l1,0l0,1Zm0,-2l-1,-0l0,-1l1,-0l0,1Zm0,-2l-1,-0l0,-1l1,-0l0,1Zm0,-2l-1,-0l0,-1l1,-0l0,1Zm0,-2l-1,0l0,-1l1,0l0,1Zm0,-2l-1,0l0,-1l1,-0l0,1Zm0,-2l-1,-0l0,-1l1,0l0,1Zm0,-2l-1,-0l-0,-1l1,-0l0,1Zm0,-2l-1,-0l-0,-1l1,-0l0,1Zm0,-2l-1,0l0,-1l1,0l0,1Zm0,-2l-1,0l0,-2c0,0.943 1,1 1,1l0,1Zm-2,-2l0,1l-1,-0l0,-1l1,-0Zm-2,-0l-0,1l-1,-0l-0,-1l1,-0Zm-2,-0l-0,1l-1,-0l-0,-1l1,-0Zm-2,-0l-0,1l-1,-0l-0,-1l1,-0Zm-2,-0l0,1l-1,-0l0,-1l1,-0Zm-2,-0l0,1l-1,-0l-0,-1l1,-0Zm-2,-0l-0,1l-1,-0l0,-1l1,-0Zm-2,-0l-0,1l-1,-0l-0,-1l1,-0Zm-2,-0l0,1l-1,-0l-0,-1l1,-0Zm-2,-0l0,1l-1,-0l0,-1l1,-0Z" fill="#6a6bd3"/><path d="M180,146c0,-0 0.331,-0.637 0.613,-1l0.387,-0l0,0.011c0,-0.004 -0,-0.007 -0,-0.011l1,-0l0,1l-2,-0Zm0,1l1,-0l0,1l-1,-0l0,-1Zm0,2l1,-0l0,1l-1,0l0,-1Zm0,2l1,0l0,1l-1,0l0,-1Zm0,2l1,0l0,1l-1,0l0,-1Zm0,2l1,-0l0,1l-1,-0l0,-1Zm0,2l1,-0l0,1l-1,0l0,-1Zm0,2l1,0l0,1l-1,-0l0,-1Zm0,2l1,-0l0,1l-1,0l0,-1Zm0,2l1,-0l0,1l-1,-0l0,-1Zm0,2l1,-0l0,1l-1,-0l0,-1Zm0,2l1,-0l-0,2l-1,-0l0,-1l0.011,-0c-0.004,-0 -0.007,0 -0.011,0l0,-1Zm2,2l-0,-1l1,-0l-0,1l-1,-0Zm2,-0l0,-1l1,-0l0,1l-1,-0Zm2,-0l0,-1l1,-0l0,1l-1,-0Zm2,-0l0,-1l1,-0l0,1l-1,-0Zm2,-0l-0,-1l1,-0l-0,1l-1,-0Zm2,-0l-0,-1l1,-0l0,1l-1,-0Zm2,-0l0,-1l1,-0l-0,1l-1,-0Zm2,-0l0,-1l1,-0l0,1l-1,-0Zm2,-0l-0,-1l1,-0l0,1l-1,-0Zm2,-0l-0,-1l1,-0l-0,1l-1,-0Zm2,-0l-0,-1l2,-0l0,1l-1,-0l-0,-0.011c-0,0.004 0,0.007 0,0.011l-1,-0Zm2,-2l-1,-0l0,-1l1,0l0,1Zm0,-2l-1,-0l0,-1l1,-0l0,1Zm0,-2l-1,-0l-0,-1l1,-0l0,1Zm0,-2l-1,-0l-0,-1l1,-0l0,1Zm0,-2l-1,0l-0,-1l1,0l0,1Zm0,-2l-1,0l-0,-1l1,-0l0,1Zm0,-2l-1,-0l-0,-1l1,0l0,1Zm0,-2l-1,-0l-0,-1l1,-0l0,1Zm0,-2l-1,-0l0,-1l1,-0l0,1Zm0,-2l-1,0l0,-1l1,0l0,1Zm0,-2l-1,0l0,-2c0,0.943 1,1 1,1l0,1Zm-2,-2l0,1l-1,-0l0,-1l1,-0Zm-2,-0l-0,1l-1,-0l-0,-1l1,-0Zm-2,-0l-0,1l-1,-0l-0,-1l1,-0Zm-2,-0l-0,1l-1,-0l-0,-1l1,-0Zm-2,-0l0,1l-1,-0l0,-1l1,-0Zm-2,-0l0,1l-1,-0l-0,-1l1,-0Zm-2,-0l-0,1l-1,-0l0,-1l1,-0Zm-2,-0l-0,1l-1,-0l-0,-1l1,-0Zm-2,-0l0,1l-1,-0l-0,-1l1,-0Zm-2,-0l0,1l-1,-0l0,-1l1,-0Z" fill="#6a6bd3"/><path d="M195,155c0,1.646 -1.354,3 -3,3c-1.646,-0 -3,-1.354 -3,-3c0,-1.646 1.354,-3 3,-3c1.646,-0 3,1.354 3,3Z" fill-rule="nonzero"/><path d="M184,157c0,-4.389 3.611,-8 8,-8c4.389,-0 8,3.611 8,8c0,4.389 -3.611,8 -8,8c-4.389,-0 -8,-3.611 -8,-8Zm8,-7c-3.84,0 -7,3.16 -7,7c0,1.588 0.541,3.13 1.532,4.37c0.71,-1.144 2.273,-2.37 5.468,-2.37c3.195,-0 4.757,1.225 5.468,2.37c0.991,-1.24 1.532,-2.782 1.532,-4.37c-0,-3.84 -3.16,-7 -7,-7Z"/><path d="M169.535,150.016c0.132,-0.001 0.26,0.052 0.354,0.146l4.95,4.95c0.194,0.194 0.194,0.513 -0,0.707c-0.48,0.48 -1.072,0.588 -1.503,0.588c-0.177,-0 -0.335,-0.018 -0.46,-0.039l-3.134,3.134c0.082,0.332 0.136,0.671 0.16,1.013c0.046,0.702 -0.032,1.687 -0.72,2.375c-0.194,0.194 -0.513,0.194 -0.707,-0l-2.829,-2.828l-3.182,3.182c-0.195,0.195 -1.219,0.902 -1.414,0.707c-0.195,-0.195 0.512,-1.22 0.707,-1.414l3.182,-3.182l-2.828,-2.829c-0.194,-0.194 -0.194,-0.513 -0,-0.707c0.688,-0.688 1.673,-0.767 2.375,-0.72c0.341,0.024 0.68,0.077 1.013,0.16l3.134,-3.133c-0.027,-0.153 -0.04,-0.307 -0.04,-0.461c-0,-0.43 0.108,-1.022 0.589,-1.503c0.093,-0.094 0.22,-0.146 0.353,-0.146Z" fill-rule="nonzero"/><path d="M136.05,152.555c0.207,-0.907 1.02,-1.555 1.95,-1.555l12,-0c0.93,-0 1.743,0.648 1.95,1.555l-7.95,4.859l-7.95,-4.859Zm-0.05,1.142l0,7.104l5.803,-3.558l-5.803,-3.546Zm6.761,4.133l-6.57,4.026c0.33,0.698 1.037,1.145 1.809,1.144l6.256,-0c-0.17,-0.482 -0.257,-0.989 -0.256,-1.5c-0.001,-1.329 0.587,-2.592 1.606,-3.446l-0.367,-0.225l-1.239,0.757l-1.239,-0.757l0,0.001Zm9.239,-4.133l0,4.974c-0.853,-1.057 -2.141,-1.672 -3.5,-1.671c-0.681,-0.001 -1.353,0.153 -1.965,0.45l-0.338,-0.207l5.803,-3.546Z" fill-rule="nonzero"/><path d="M152,161.5c0,1.92 -1.58,3.5 -3.5,3.5c-1.92,-0 -3.5,-1.58 -3.5,-3.5c0,-1.92 1.58,-3.5 3.5,-3.5c1.92,-0 3.5,1.58 3.5,3.5Zm-3.5,-2c-0.274,-0 -0.5,0.226 -0.5,0.5l0,1l-1,-0c-0.274,-0 -0.5,0.226 -0.5,0.5c0,0.274 0.226,0.5 0.5,0.5l1,-0l0,1c0,0.274 0.226,0.5 0.5,0.5c0.274,-0 0.5,-0.226 0.5,-0.5l0,-1l1,-0c0.274,-0 0.5,-0.226 0.5,-0.5c0,-0.274 -0.226,-0.5 -0.5,-0.5l-1,-0l0,-1c0,-0.274 -0.226,-0.5 -0.5,-0.5Z" fill-rule="nonzero"/><path d="M120.707,150.395c-0.388,-0.387 -1.026,-0.387 -1.414,0l-6.647,6.646c-0.094,0.094 -0.147,0.222 -0.147,0.354c0,0.275 0.226,0.501 0.501,0.501c0.133,0 0.26,-0.053 0.354,-0.147l6.646,-6.647l6.646,6.647c0.094,0.094 0.221,0.147 0.354,0.147c0.275,0 0.501,-0.226 0.501,-0.501c-0,-0.132 -0.053,-0.26 -0.147,-0.354l-2.354,-2.353l-0,-3.293c-0,-0.274 -0.226,-0.5 -0.5,-0.5l-1,0c-0.274,0 -0.5,0.226 -0.5,0.5l-0,1.293l-2.293,-2.293Z" fill-rule="nonzero"/><path d="M120,152.188l6,6l-0,4.207c-0,0.823 -0.677,1.5 -1.5,1.5l-9,0c-0.823,0 -1.5,-0.677 -1.5,-1.5l-0,-4.207l6,-6Z" fill-rule="nonzero"/><path d="M96,149c4.389,-0 8,3.611 8,8c0,4.389 -3.611,8 -8,8c-4.389,-0 -8,-3.611 -8,-8c0,-4.389 3.611,-8 8,-8Zm-3.5,7.5c-0.274,-0 -0.5,0.226 -0.5,0.5c0,0.274 0.226,0.5 0.5,0.5l5.793,-0l-2.147,2.146c-0.094,0.094 -0.147,0.221 -0.147,0.354c0,0.275 0.226,0.501 0.501,0.501c0.133,-0 0.26,-0.053 0.354,-0.147l3,-3c0.094,-0.094 0.147,-0.221 0.147,-0.354c-0,-0.133 -0.053,-0.26 -0.147,-0.354l-3,-3c-0.094,-0.094 -0.221,-0.147 -0.354,-0.147c-0.275,0 -0.501,0.226 -0.501,0.501c0,0.133 0.053,0.26 0.147,0.354l2.147,2.146l-5.793,-0Z" fill-rule="nonzero"/><path d="M72,149c-4.389,-0 -8,3.611 -8,8c0,4.389 3.611,8 8,8c4.389,-0 8,-3.611 8,-8c0,-4.389 -3.611,-8 -8,-8Zm3.5,7.5c0.274,-0 0.5,0.226 0.5,0.5c0,0.274 -0.226,0.5 -0.5,0.5l-5.793,-0l2.147,2.146c0.094,0.094 0.147,0.221 0.147,0.354c-0,0.275 -0.226,0.501 -0.501,0.501c-0.133,-0 -0.26,-0.053 -0.354,-0.147l-3,-3c-0.094,-0.094 -0.147,-0.221 -0.147,-0.354c0,-0.133 0.053,-0.26 0.147,-0.354l3,-3c0.094,-0.094 0.221,-0.147 0.354,-0.147c0.275,0 0.501,0.226 0.501,0.501c-0,0.133 -0.053,0.26 -0.147,0.354l-2.147,2.146l5.793,-0Z" fill-rule="nonzero"/><path d="M54.5,145.5l-8,-0" fill="none" stroke="#000" stroke-width="1px"/><path d="M54.5,168.5l-8,-0" fill="none" stroke="#000" stroke-width="1px"/><path d="M50.5,145.5l-0,23" fill="none" stroke="#000" stroke-width="1px" stroke-miterlimit="1"/><path d="M60.5,174.5l0,8" fill="none" stroke="#000" stroke-width="1px"/><path d="M83.5,174.5l0,8" fill="none" stroke="#000" stroke-width="1px"/><path d="M60.5,178.5l23,0" fill="none" stroke="#000" stroke-width="1px" stroke-miterlimit="1"/><path d="M135.41,134.75l-0,8" fill="none" stroke="#000" stroke-width="1px"/><path d="M152.41,134.75l-0,8" fill="none" stroke="#000" stroke-width="1px"/><path d="M135.41,138.75l17,-0" fill="none" stroke="#000" stroke-width="1px" stroke-miterlimit="1"/><path d="M132.41,174.958l-0,8" fill="none" stroke="#000" stroke-width="1px"/><path d="M155.41,174.958l-0,8" fill="none" stroke="#000" stroke-width="1px"/><path d="M132.41,178.958l23,0" fill="none" stroke="#000" stroke-width="1px" stroke-miterlimit="1"/><path d="M17.871,154.28c-0.036,-1.02 0.468,-2.112 1.657,-2.112c0.9,-0 1.645,0.612 1.645,1.536c-0,1.176 -0.733,1.704 -2.173,2.592c-1.201,0.745 -2.219,1.465 -2.387,3.48l5.554,-0l0,-0.899l-4.368,0c0.204,-1.056 1.321,-1.596 2.389,-2.244c1.057,-0.661 2.063,-1.417 2.063,-2.917c0,-1.584 -1.174,-2.447 -2.663,-2.447c-1.801,0 -2.819,1.283 -2.735,3.011l1.018,0Z" fill-rule="nonzero"/><path d="M28.023,151.269l-0.814,0l-3.876,5.532l-0,0.983l3.732,-0l-0,1.992l0.958,-0l0,-1.992l1.152,-0l0,-0.899l-1.152,0l0,-5.616Zm-3.814,5.616l2.832,-4.164l0.024,0l-0,4.164l-2.856,0Z" fill-rule="nonzero"/><path d="M35.273,156.62c-0,1.213 -0.468,2.401 -1.861,2.401c-1.405,0 -1.957,-1.128 -1.957,-2.353c0,-1.164 0.528,-2.34 1.897,-2.34c1.321,-0 1.921,1.128 1.921,2.292Zm-4.8,5.532l1.018,-0l0,-3.203l0.024,0c0.456,0.731 1.369,0.971 2.005,0.971c1.897,-0 2.831,-1.475 2.831,-3.228c0,-1.752 -0.946,-3.263 -2.855,-3.263c-0.852,0 -1.645,0.3 -1.981,0.983l-0.024,-0l0,-0.839l-1.018,0l-0,8.579Z" fill-rule="nonzero"/><path d="M36.893,159.776l1.235,-0l1.728,-2.578l1.728,2.578l1.307,-0l-2.399,-3.36l2.135,-2.843l-1.223,0l-1.548,2.162l-1.488,-2.162l-1.307,0l2.159,2.939l-2.327,3.264Z" fill-rule="nonzero"/><path d="M60.399,188.072c-0.036,-1.021 0.468,-2.113 1.656,-2.113c0.901,0 1.645,0.612 1.645,1.537c0,1.176 -0.732,1.704 -2.173,2.592c-1.2,0.744 -2.219,1.464 -2.387,3.479l5.555,0l-0,-0.898l-4.368,-0c0.204,-1.056 1.32,-1.597 2.389,-2.245c1.056,-0.66 2.063,-1.416 2.063,-2.916c-0,-1.585 -1.175,-2.447 -2.664,-2.447c-1.8,-0 -2.819,1.282 -2.735,3.011l1.019,-0Z" fill-rule="nonzero"/><path d="M70.551,185.061l-0.815,-0l-3.876,5.532l0,0.982l3.732,0l0,1.992l0.959,0l-0,-1.992l1.152,0l-0,-0.898l-1.152,-0l-0,-5.616Zm-3.815,5.616l2.832,-4.164l0.024,-0l0,4.164l-2.856,-0Z" fill-rule="nonzero"/><path d="M77.8,190.412c0,1.212 -0.468,2.401 -1.861,2.401c-1.404,-0 -1.956,-1.129 -1.956,-2.353c-0,-1.164 0.528,-2.341 1.896,-2.341c1.321,0 1.921,1.129 1.921,2.293Zm-4.8,5.531l1.019,0l-0,-3.202l0.024,-0c0.456,0.731 1.368,0.97 2.004,0.97c1.897,0 2.832,-1.474 2.832,-3.227c-0,-1.753 -0.947,-3.263 -2.856,-3.263c-0.852,-0 -1.644,0.299 -1.98,0.982l-0.024,0l-0,-0.838l-1.019,-0l0,8.578Z" fill-rule="nonzero"/><path d="M79.42,193.567l1.236,0l1.727,-2.577l1.728,2.577l1.308,0l-2.4,-3.36l2.136,-2.842l-1.224,-0l-1.548,2.161l-1.487,-2.161l-1.308,-0l2.16,2.938l-2.328,3.264Z" fill-rule="nonzero"/><path d="M134.033,123.061l-0.779,-0c-0.228,1.284 -1.284,1.596 -2.448,1.596l0,0.814l2.208,0l0,6.096l1.019,0l-0,-8.506Z" fill-rule="nonzero"/><path d="M137.993,129.168c-0,-0.984 0.792,-1.633 1.8,-1.633c0.961,0 1.753,0.697 1.753,1.621c0,0.948 -0.72,1.657 -1.741,1.657c-1.056,-0 -1.812,-0.625 -1.812,-1.645Zm-0.779,-3.937c0,0.768 0.479,1.476 1.187,1.764c-0.948,0.336 -1.487,1.117 -1.487,2.125c0,1.741 1.259,2.591 2.891,2.591c1.573,0 2.82,-0.946 2.82,-2.591c-0,-1.056 -0.492,-1.801 -1.511,-2.125c0.695,-0.312 1.175,-1.008 1.175,-1.764c-0,-1.08 -0.719,-2.17 -2.58,-2.17c-1.308,-0 -2.495,0.766 -2.495,2.17Zm1.079,0.037c-0,-0.853 0.672,-1.309 1.488,-1.309c0.829,0 1.429,0.456 1.429,1.309c0,0.864 -0.6,1.369 -1.405,1.369c-0.84,-0 -1.512,-0.432 -1.512,-1.369Z" fill-rule="nonzero"/><path d="M148.71,128.412c0,1.212 -0.468,2.401 -1.861,2.401c-1.404,-0 -1.956,-1.129 -1.956,-2.353c-0,-1.164 0.528,-2.341 1.896,-2.341c1.321,0 1.921,1.129 1.921,2.293Zm-4.8,5.531l1.019,0l-0,-3.202l0.024,-0c0.456,0.731 1.368,0.97 2.004,0.97c1.897,0 2.832,-1.474 2.832,-3.227c-0,-1.753 -0.947,-3.263 -2.856,-3.263c-0.852,-0 -1.644,0.299 -1.98,0.982l-0.024,0l-0,-0.838l-1.019,-0l0,8.578Z" fill-rule="nonzero"/><path d="M150.33,131.567l1.236,0l1.727,-2.577l1.728,2.577l1.308,0l-2.4,-3.36l2.136,-2.842l-1.224,-0l-1.548,2.161l-1.487,-2.161l-1.308,-0l2.159,2.938l-2.327,3.264Z" fill-rule="nonzero"/><path d="M275.113,124.371c0.192,-0.024 0.408,-0.036 0.612,-0.036c1.009,0 1.813,0.565 1.813,1.633c0,1.032 -0.852,1.645 -1.849,1.645c-1.164,-0 -1.776,-0.769 -1.812,-1.873l-1.019,-0c-0.036,1.753 1.103,2.771 2.831,2.771c1.597,0 2.928,-0.886 2.928,-2.591c-0,-1.02 -0.504,-1.836 -1.535,-2.064l-0,-0.024c0.647,-0.299 1.175,-0.948 1.175,-1.692c-0,-1.572 -1.115,-2.279 -2.592,-2.279c-1.704,-0 -2.567,1.126 -2.627,2.747l1.019,0c0.012,-0.996 0.492,-1.849 1.608,-1.849c0.865,0 1.513,0.48 1.513,1.369c0,0.924 -0.756,1.393 -1.621,1.393c-0.144,-0 -0.288,-0 -0.444,-0.012l0,0.862Z" fill-rule="nonzero"/><path d="M284.774,125.212c0,1.212 -0.468,2.401 -1.861,2.401c-1.404,-0 -1.956,-1.129 -1.956,-2.353c-0,-1.164 0.528,-2.341 1.896,-2.341c1.321,0 1.921,1.129 1.921,2.293Zm-4.8,5.531l1.019,0l-0,-3.202l0.024,-0c0.456,0.731 1.368,0.97 2.004,0.97c1.897,0 2.832,-1.474 2.832,-3.227c-0,-1.753 -0.947,-3.263 -2.856,-3.263c-0.852,-0 -1.644,0.299 -1.98,0.982l-0.024,0l-0,-0.838l-1.019,-0l0,8.578Z" fill-rule="nonzero"/><path d="M286.394,128.367l1.236,0l1.727,-2.577l1.728,2.577l1.308,0l-2.4,-3.36l2.136,-2.842l-1.224,-0l-1.548,2.161l-1.487,-2.161l-1.308,-0l2.159,2.938l-2.327,3.264Z" fill-rule="nonzero"/><path d="M278.679,244.045c1.165,0 1.717,0.877 1.717,1.933c0,1.008 -0.612,1.885 -1.717,1.885c-1.116,-0 -1.764,-0.841 -1.764,-1.897c-0,-1.068 0.624,-1.921 1.764,-1.921Zm2.556,-1.763c-0.12,-1.381 -0.995,-2.171 -2.4,-2.171c-2.424,-0 -3.131,2.219 -3.131,4.558c0,1.789 0.407,4.092 2.927,4.092c2.149,0 2.844,-1.619 2.844,-2.855c-0,-1.573 -0.971,-2.759 -2.604,-2.759c-0.924,-0 -1.644,0.335 -2.124,1.114l-0.024,-0.024c0.048,-1.306 0.324,-3.228 2.064,-3.228c0.805,0 1.333,0.505 1.429,1.273l1.019,0Z" fill-rule="nonzero"/><path d="M287.524,245.462c0,1.212 -0.468,2.401 -1.861,2.401c-1.404,-0 -1.956,-1.129 -1.956,-2.353c-0,-1.164 0.528,-2.341 1.896,-2.341c1.321,0 1.921,1.129 1.921,2.293Zm-4.8,5.531l1.019,0l-0,-3.202l0.024,-0c0.456,0.731 1.368,0.97 2.004,0.97c1.897,0 2.832,-1.474 2.832,-3.227c-0,-1.753 -0.947,-3.263 -2.856,-3.263c-0.852,-0 -1.644,0.299 -1.98,0.982l-0.024,0l-0,-0.838l-1.019,-0l0,8.578Z" fill-rule="nonzero"/><path d="M289.144,248.617l1.236,0l1.727,-2.577l1.728,2.577l1.308,0l-2.4,-3.36l2.136,-2.842l-1.224,-0l-1.548,2.161l-1.487,-2.161l-1.308,-0l2.159,2.938l-2.327,3.264Z" fill-rule="nonzero"/><path d="M132.309,188.53c-0.036,-1.02 0.468,-2.112 1.656,-2.112c0.901,-0 1.645,0.612 1.645,1.536c0,1.176 -0.732,1.704 -2.173,2.592c-1.2,0.745 -2.219,1.465 -2.387,3.48l5.555,-0l-0,-0.899l-4.368,0c0.204,-1.056 1.32,-1.596 2.389,-2.244c1.056,-0.661 2.063,-1.417 2.063,-2.917c-0,-1.584 -1.175,-2.447 -2.664,-2.447c-1.8,0 -2.819,1.283 -2.735,3.011l1.019,0Z" fill-rule="nonzero"/><path d="M142.461,185.519l-0.815,0l-3.876,5.532l0,0.983l3.732,-0l0,1.992l0.959,-0l-0,-1.992l1.152,-0l-0,-0.899l-1.152,0l-0,-5.616Zm-3.815,5.616l2.832,-4.164l0.024,0l0,4.164l-2.856,0Z" fill-rule="nonzero"/><path d="M149.71,190.87c0,1.213 -0.468,2.401 -1.861,2.401c-1.404,0 -1.956,-1.128 -1.956,-2.353c-0,-1.164 0.528,-2.34 1.896,-2.34c1.321,-0 1.921,1.128 1.921,2.292Zm-4.8,5.532l1.019,-0l-0,-3.203l0.024,0c0.456,0.731 1.368,0.971 2.004,0.971c1.897,-0 2.832,-1.475 2.832,-3.228c-0,-1.752 -0.947,-3.263 -2.856,-3.263c-0.852,0 -1.644,0.3 -1.98,0.983l-0.024,-0l-0,-0.839l-1.019,0l0,8.579Z" fill-rule="nonzero"/><path d="M151.33,194.026l1.236,-0l1.727,-2.578l1.728,2.578l1.308,-0l-2.4,-3.36l2.136,-2.843l-1.224,0l-1.548,2.162l-1.487,-2.162l-1.308,0l2.159,2.939l-2.327,3.264Z" fill-rule="nonzero"/><path d="M230,133l2,0l-0,1l-1,0l-1,0l0,-1Zm48,48l-2,-0l0,-1l1,-0l1,-0l0,1Zm-48,-0l0,-2l1,0l0,1l0,1l-1,-0Zm0,-46l1,0l0,1l-1,0l0,-1Zm0,2l1,0l0,1l-1,0l0,-1Zm0,2l1,0l0,1l-1,0l0,-1Zm0,2l1,0l0,1l-1,0l0,-1Zm0,2l1,0l0,1l-1,0l0,-1Zm0,2l1,0l0,1l-1,0l0,-1Zm0,2l1,0l0,1l-1,0l0,-1Zm0,2l1,0l0,1l-1,0l0,-1Zm0,2l1,0l-0,1l-1,0l0,-1Zm0,2l1,0l-0,1l-1,0l0,-1Zm0,2l1,0l-0,1l-1,0l0,-1Zm0,2l1,0l-0,1l-1,0l0,-1Zm0,2l1,0l-0,1l-1,0l0,-1Zm0,2l1,0l-0,1l-1,0l0,-1Zm0,2l1,0l-0,1l-1,0l0,-1Zm0,2l1,0l-0,1l-1,0l0,-1Zm0,2l1,0l-0,1l-1,0l0,-1Zm0,2l1,0l-0,1l-1,0l0,-1Zm0,2l1,0l-0,1l-1,0l0,-1Zm0,2l1,0l-0,1l-1,0l0,-1Zm0,2l1,0l-0,1l-1,0l0,-1Zm0,2l1,0l-0,1l-1,0l0,-1Zm2,4l0,-1l1,0l0,1l-1,-0Zm2,-0l0,-1l1,0l0,1l-1,-0Zm2,-0l0,-1l1,0l0,1l-1,-0Zm2,-0l0,-1l1,0l0,1l-1,-0Zm2,-0l0,-1l1,0l0,1l-1,-0Zm2,-0l0,-1l1,0l0,1l-1,-0Zm2,-0l0,-1l1,0l0,1l-1,-0Zm2,-0l0,-1l1,0l0,1l-1,-0Zm2,-0l0,-1l1,0l0,1l-1,-0Zm2,-0l0,-1l1,-0l0,1l-1,-0Zm2,-0l0,-1l1,-0l0,1l-1,-0Zm2,-0l0,-1l1,-0l0,1l-1,-0Zm2,-0l0,-1l1,-0l0,1l-1,-0Zm2,-0l0,-1l1,-0l0,1l-1,-0Zm2,-0l0,-1l1,-0l0,1l-1,-0Zm2,-0l0,-1l1,-0l0,1l-1,-0Zm2,-0l0,-1l1,-0l0,1l-1,-0Zm2,-0l0,-1l1,-0l0,1l-1,-0Zm2,-0l0,-1l1,-0l0,1l-1,-0Zm2,-0l0,-1l1,0l0,1l-1,-0Zm2,-0l0,-1l1,0l0,1l-1,-0Zm2,-0l0,-1l1,0l0,1l-1,-0Zm4,-2l-1,-0l0,-1l1,-0l0,1Zm0,-2l-1,-0l-0,-1l1,-0l0,1Zm0,-2l-1,-0l-0,-1l1,-0l0,1Zm0,-2l-1,-0l-0,-1l1,-0l0,1Zm0,-2l-1,-0l-0,-1l1,-0l0,1Zm0,-2l-1,-0l-0,-1l1,-0l0,1Zm0,-2l-1,-0l-0,-1l1,-0l0,1Zm0,-2l-1,-0l-0,-1l1,-0l0,1Zm0,-2l-1,-0l-0,-1l1,-0l0,1Zm0,-2l-1,-0l-0,-1l1,-0l0,1Zm0,-2l-1,-0l-0,-1l1,-0l0,1Zm0,-2l-1,-0l-0,-1l1,-0l0,1Zm0,-2l-1,-0l-0,-1l1,-0l0,1Zm0,-2l-1,-0l-0,-1l1,-0l0,1Zm0,-2l-1,-0l-0,-1l1,-0l0,1Zm0,-2l-1,-0l-0,-1l1,-0l0,1Zm0,-2l-1,-0l-0,-1l1,-0l0,1Zm0,-2l-1,-0l-0,-1l1,-0l0,1Zm0,-2l-1,-0l-0,-1l1,-0l0,1Zm0,-2l-1,-0l-0,-1l1,-0l0,1Zm0,-2l-1,-0l-0,-1l1,-0l0,1Zm0,-2l-1,-0l-0,-1l1,-0l0,1Zm0,-2l-1,-0l0,-1l0,-1l1,0l0,2Zm-2,-2l0,1l-1,0l-0,-1l1,0Zm-2,0l-0,1l-1,0l-0,-1l1,0Zm-2,0l-0,1l-1,0l-0,-1l1,0Zm-2,0l-0,1l-1,0l-0,-1l1,0Zm-2,0l-0,1l-1,0l-0,-1l1,0Zm-2,0l-0,1l-1,0l-0,-1l1,0Zm-2,0l0,1l-1,0l0,-1l1,0Zm-2,0l0,1l-1,0l0,-1l1,0Zm-2,0l0,1l-1,-0l0,-1l1,0Zm-2,0l0,1l-1,-0l0,-1l1,0Zm-2,0l-0,1l-1,-0l-0,-1l1,0Zm-2,0l-0,1l-1,-0l-0,-1l1,0Zm-2,0l-0,1l-1,0l-0,-1l1,0Zm-2,0l-0,1l-1,0l-0,-1l1,0Zm-2,0l-0,1l-1,0l-0,-1l1,0Zm-2,0l-0,1l-1,0l-0,-1l1,0Zm-2,0l-0,1l-1,0l-0,-1l1,0Zm-2,0l-0,1l-1,0l-0,-1l1,0Zm-2,0l-0,1l-1,0l-0,-1l1,0Zm-2,0l-0,1l-1,0l-0,-1l1,0Zm-2,0l-0,1l-1,0l-0,-1l1,0Zm-2,0l-0,1l-1,0l-0,-1l1,0Z" fill="#6a6bd3"/><path d="M284,140c0,-0 0.331,-0.637 0.612,-1l0.388,0l0,0.011c0,-0.004 -0,-0.007 -0,-0.011l1,0l0,1l-1,-0l-1,-0Zm0,1l1,0l0,1l-1,0l0,-1Zm0,2l1,0l0,1l-1,0l0,-1Zm0,2l1,0l0,1l-1,0l0,-1Zm0,2l1,0l0,1l-1,0l0,-1Zm0,2l1,0l0,1l-1,-0l0,-1Zm0,2l1,0l0,1l-1,0l0,-1Zm0,2l1,-0l0,1l-1,-0l0,-1Zm0,2l1,0l0,1l-1,-0l0,-1Zm0,2l1,-0l0,1l-1,-0l0,-1Zm0,2l1,-0l0,1l-1,-0l0,-1Zm0,2l1,-0l0,1l-1,-0l0,-1Zm0,2l1,-0l0,1l-1,-0l0,-1Zm0,2l1,-0l0,1l-1,-0l0,-1Zm0,2l1,-0l0,1l-1,-0l0,-1Zm0,2l1,-0l0,1l-1,-0l0,-1Zm0,2l1,-0l0,1l-1,-0l0,-1Zm0,2l1,-0l-0,1l-0,1l-1,-0l0,-1l0.011,-0c-0.004,-0 -0.007,0 -0.011,0l0,-1Zm2,2l0,-1l1,-0l0,1l-1,-0Zm2,-0l0,-1l1,-0l0,1l-1,-0Zm2,-0l0,-1l1,-0l0,1l-1,-0Zm2,-0l0,-1l1,-0l0,1l-1,-0Zm2,-0l0,-1l1,-0l-0,1l-1,-0Zm2,-0l0,-1l1,-0l0,1l-1,-0Zm2,-0l-0,-1l1,-0l-0,1l-1,-0Zm2,-0l0,-1l1,-0l-0,1l-1,-0Zm2,-0l-0,-1l1,-0l-0,1l-1,-0Zm2,-0l-0,-1l1,-0l-0,1l-1,-0Zm2,-0l-0,-1l1,-0l-0,1l-1,-0Zm2,-0l-0,-1l1,0l-0,1l-1,-0Zm2,-0l-0,-1l1,0l-0,1l-1,-0Zm2,-0l-0,-1l1,-0l-0,1l-1,-0Zm2,-0l-0,-1l1,-0l-0,1l-1,-0Zm2,-0l-0,-1l1,-0l-0,1l-1,-0Zm2,-0l-0,-1l1,0l1,0l0,1l-1,-0l-0,-0.011c-0,0.004 0,0.007 0,0.011l-1,-0Zm2,-2l-1,-0l0,-1l1,-0l-0,1Zm-0,-2l-1,-0l0,-1l1,-0l-0,1Zm-0,-2l-1,-0l0,-1l1,-0l-0,1Zm-0,-2l-1,-0l0,-1l1,-0l-0,1Zm-0,-2l-1,-0l0,-1l1,0l-0,1Zm-0,-2l-1,-0l0,-1l1,-0l-0,1Zm-0,-2l-1,0l0,-1l1,0l-0,1Zm-0,-2l-1,-0l0,-1l1,0l-0,1Zm-0,-2l-1,0l0,-1l1,0l-0,1Zm-0,-2l-1,0l0,-1l1,0l-0,1Zm-0,-2l-1,0l0,-1l1,0l-0,1Zm-0,-2l-1,0l0,-1l1,0l-0,1Zm-0,-2l-1,0l0,-1l1,0l-0,1Zm-0,-2l-1,0l0,-1l1,0l-0,1Zm-0,-2l-1,0l0,-1l1,0l-0,1Zm-0,-2l-1,0l0,-1l1,0l-0,1Zm-0,-2l-1,0l0,-1l0,-1c0,0.943 1,1 1,1l-0,1Zm-2,-2l-0,1l-1,-0l-0,-1l1,0Zm-2,0l-0,1l-1,-0l-0,-1l1,0Zm-2,0l-0,1l-1,-0l-0,-1l1,0Zm-2,0l-0,1l-1,-0l-0,-1l1,0Zm-2,0l-0,1l-1,-0l0,-1l1,0Zm-2,0l-0,1l-1,-0l-0,-1l1,0Zm-2,0l0,1l-1,-0l0,-1l1,0Zm-2,0l-0,1l-1,-0l0,-1l1,0Zm-2,0l0,1l-1,-0l0,-1l1,0Zm-2,0l0,1l-1,-0l0,-1l1,0Zm-2,0l0,1l-1,-0l0,-1l1,0Zm-2,0l0,1l-1,-0l0,-1l1,0Zm-2,0l0,1l-1,-0l0,-1l1,0Zm-2,0l0,1l-1,-0l0,-1l1,0Zm-2,0l0,1l-1,0l0,-1l1,0Zm-2,0l0,1l-1,0l0,-1l1,0Z" fill="#6a6bd3"/><path d="M286.1,148.11c0.414,-1.813 2.04,-3.11 3.9,-3.11l24,0c1.86,-0 3.486,1.297 3.9,3.11l-15.9,9.718l-15.9,-9.718Zm-0.1,2.284l0,14.208l11.606,-7.116l-11.606,-7.092Zm13.522,8.266l-13.14,8.052c0.661,1.396 2.074,2.289 3.618,2.288l12.512,0c-0.34,-0.964 -0.513,-1.978 -0.512,-3c-0.003,-2.658 1.175,-5.185 3.212,-6.892l-0.734,-0.45l-2.478,1.514l-2.478,-1.514l0,0.002Zm18.478,-8.266l0,9.948c-1.706,-2.115 -4.283,-3.345 -7,-3.342c-1.361,-0.002 -2.705,0.306 -3.93,0.9l-0.676,-0.414l11.606,-7.092Z" fill-rule="nonzero"/><path d="M318,166c0,3.84 -3.16,7 -7,7c-3.84,0 -7,-3.16 -7,-7c0,-3.84 3.16,-7 7,-7c3.84,0 7,3.16 7,7Zm-7,-4c-0.549,0 -1,0.451 -1,1l0,2l-2,0c-0.549,0 -1,0.451 -1,1c0,0.549 0.451,1 1,1l2,0l0,2c0,0.549 0.451,1 1,1c0.549,0 1,-0.451 1,-1l0,-2l2,0c0.549,0 1,-0.451 1,-1c0,-0.549 -0.451,-1 -1,-1l-2,0l0,-2c0,-0.549 -0.451,-1 -1,-1Z" fill-rule="nonzero"/><path d="M255.414,143.791c-0.776,-0.776 -2.052,-0.776 -2.828,-0l-13.294,13.292c-0.188,0.188 -0.293,0.442 -0.293,0.708c-0,0.549 0.452,1.001 1.001,1.001c0.265,0 0.52,-0.105 0.708,-0.293l13.292,-13.294l13.292,13.294c0.188,0.188 0.443,0.293 0.708,0.293c0.549,0 1.001,-0.452 1.001,-1.001c0,-0.266 -0.105,-0.52 -0.293,-0.708l-4.708,-4.706l-0,-6.586c-0,-0.549 -0.451,-1 -1,-1l-2,-0c-0.549,-0 -1,0.451 -1,1l-0,2.586l-4.586,-4.586Z" fill-rule="nonzero"/><path d="M254,147.377l12,12l-0,8.414c-0,1.646 -1.354,3 -3,3l-18,-0c-1.646,-0 -3,-1.354 -3,-3l-0,-8.414l12,-12Z" fill-rule="nonzero"/><path d="M277.743,189.5l0,8" fill="none" stroke="#000" stroke-width="1px"/><path d="M318.743,189.5l0,8" fill="none" stroke="#000" stroke-width="1px"/><path d="M277.743,193.5l41,0" fill="none" stroke="#000" stroke-width="1px" stroke-miterlimit="1"/><path d="M278.5,152.5l0,8" fill="none" stroke="#000" stroke-width="1px"/><path d="M283.5,152.5l0,8" fill="none" stroke="#000" stroke-width="1px"/><path d="M278.5,156.5l5,-0" fill="none" stroke="#000" stroke-width="1px" stroke-miterlimit="1"/><path d="M278.5,273l-0,8" fill="none" stroke="#000" stroke-width="1px"/><path d="M289.5,273l-0,8" fill="none" stroke="#000" stroke-width="1px"/><path d="M278.5,277l11,-0" fill="none" stroke="#000" stroke-width="1px" stroke-miterlimit="1"/><path d="M277.743,310.833l0,8" fill="none" stroke="#000" stroke-width="1px"/><path d="M324.743,310.833l0,8" fill="none" stroke="#000" stroke-width="1px"/><path d="M277.743,314.833l47,0" fill="none" stroke="#000" stroke-width="1px" stroke-miterlimit="1"/><path d="M285.975,203.072c-0.036,-1.021 0.468,-2.113 1.657,-2.113c0.9,0 1.645,0.612 1.645,1.537c-0,1.176 -0.733,1.704 -2.173,2.592c-1.201,0.744 -2.219,1.464 -2.387,3.479l5.554,0l0,-0.898l-4.368,-0c0.204,-1.056 1.321,-1.597 2.389,-2.245c1.057,-0.66 2.063,-1.416 2.063,-2.916c0,-1.585 -1.174,-2.447 -2.663,-2.447c-1.801,-0 -2.819,1.282 -2.735,3.011l1.018,-0Z" fill="#ca2626" fill-rule="nonzero"/><path d="M295.371,200.061l-0.779,-0c-0.227,1.284 -1.283,1.596 -2.447,1.596l-0,0.814l2.208,0l-0,6.096l1.018,0l0,-8.506Z" fill="#ca2626" fill-rule="nonzero"/><path d="M303.377,205.412c-0,1.212 -0.468,2.401 -1.861,2.401c-1.405,-0 -1.957,-1.129 -1.957,-2.353c0,-1.164 0.528,-2.341 1.897,-2.341c1.32,0 1.921,1.129 1.921,2.293Zm-4.8,5.531l1.018,0l0,-3.202l0.024,-0c0.456,0.731 1.369,0.97 2.005,0.97c1.897,0 2.831,-1.474 2.831,-3.227c0,-1.753 -0.946,-3.263 -2.855,-3.263c-0.852,-0 -1.645,0.299 -1.981,0.982l-0.024,0l0,-0.838l-1.018,-0l-0,8.578Z" fill="#ca2626" fill-rule="nonzero"/><path d="M304.997,208.567l1.235,0l1.728,-2.577l1.728,2.577l1.307,0l-2.399,-3.36l2.135,-2.842l-1.223,-0l-1.548,2.161l-1.488,-2.161l-1.307,-0l2.159,2.938l-2.327,3.264Z" fill="#ca2626" fill-rule="nonzero"/><path d="M289.309,324.405c-0.036,-1.02 0.468,-2.112 1.656,-2.112c0.901,-0 1.645,0.612 1.645,1.536c0,1.176 -0.732,1.704 -2.173,2.592c-1.2,0.745 -2.219,1.465 -2.387,3.48l5.555,-0l-0,-0.899l-4.368,0c0.204,-1.056 1.32,-1.596 2.389,-2.244c1.056,-0.661 2.063,-1.417 2.063,-2.917c-0,-1.584 -1.175,-2.447 -2.664,-2.447c-1.8,0 -2.819,1.283 -2.735,3.011l1.019,0Z" fill="#1b7024" fill-rule="nonzero"/><path d="M299.461,321.394l-0.815,0l-3.876,5.532l0,0.983l3.732,-0l0,1.992l0.959,-0l-0,-1.992l1.152,-0l-0,-0.899l-1.152,0l-0,-5.616Zm-3.815,5.616l2.832,-4.164l0.024,0l0,4.164l-2.856,0Z" fill="#1b7024" fill-rule="nonzero"/><path d="M306.71,326.745c0,1.213 -0.468,2.401 -1.861,2.401c-1.404,0 -1.956,-1.128 -1.956,-2.353c-0,-1.164 0.528,-2.34 1.896,-2.34c1.321,-0 1.921,1.128 1.921,2.292Zm-4.8,5.532l1.019,-0l-0,-3.203l0.024,0c0.456,0.731 1.368,0.971 2.004,0.971c1.897,-0 2.832,-1.475 2.832,-3.228c-0,-1.752 -0.947,-3.263 -2.856,-3.263c-0.852,0 -1.644,0.3 -1.98,0.983l-0.024,-0l-0,-0.839l-1.019,0l0,8.579Z" fill="#1b7024" fill-rule="nonzero"/><path d="M308.33,329.901l1.236,-0l1.727,-2.578l1.728,2.578l1.308,-0l-2.4,-3.36l2.136,-2.843l-1.224,0l-1.548,2.162l-1.487,-2.162l-1.308,0l2.159,2.939l-2.327,3.264Z" fill="#1b7024" fill-rule="nonzero"/><path d="M341.141,164.279l4.398,-0l-0,-5.44l5.7,-0l-0,-3.398l-5.7,0l-0,-1.782l6.64,-0l-0,-3.658l-11.038,0l0,14.278Z" fill="#ca2626" fill-rule="nonzero"/><path d="M357.36,159.181l1.38,-4.4l0.04,0l1.28,4.4l-2.7,0Zm-6.019,5.098l4.42,-0l0.639,-2.04l4.54,-0l0.6,2.04l4.559,-0l-5.199,-14.278l-4.3,0l-5.259,14.278Z" fill="#ca2626" fill-rule="nonzero"/><rect x="367.081" y="150.001" width="4.397" height="14.278" fill="#ca2626" fill-rule="nonzero"/><path d="M373.741,164.279l10.718,-0l-0,-3.658l-6.32,0l-0,-10.62l-4.398,0l0,14.278Z" fill="#ca2626" fill-rule="nonzero"/><path d="M60,26c0,-0 0.331,-0.637 0.613,-1l0.387,-0l0,0.011c0,-0.004 -0,-0.007 -0,-0.011l1,-0l0,1l-2,-0Zm0,1l1,-0l-0,1l-1,-0l0,-1Zm0,2l1,-0l-0,1l-1,0l0,-1Zm0,2l1,0l-0,1l-1,0l0,-1Zm0,2l1,0l0,1l-1,0l0,-1Zm0,2l1,-0l0,1l-1,-0l0,-1Zm0,2l1,-0l0,1l-1,0l0,-1Zm0,2l1,0l0,1l-1,-0l0,-1Zm0,2l1,-0l0,1l-1,0l0,-1Zm0,2l1,-0l0,1l-1,-0l0,-1Zm0,2l1,-0l-0,1l-1,-0l0,-1Zm0,2l1,-0l-0,2l-1,-0l0,-1l0.011,-0c-0.004,-0 -0.007,0 -0.011,0l0,-1Zm2,2l-0,-1l1,-0l-0,1l-1,-0Zm2,-0l0,-1l1,-0l0,1l-1,-0Zm2,-0l0,-1l1,-0l0,1l-1,-0Zm2,-0l0,-1l1,-0l0,1l-1,-0Zm2,-0l-0,-1l1,-0l-0,1l-1,-0Zm2,-0l-0,-1l1,-0l0,1l-1,-0Zm2,-0l0,-1l1,-0l-0,1l-1,-0Zm2,-0l0,-1l1,-0l0,1l-1,-0Zm2,-0l-0,-1l1,-0l0,1l-1,-0Zm2,-0l-0,-1l1,-0l-0,1l-1,-0Zm2,-0l-0,-1l2,-0l0,1l-1,-0l-0,-0.011c-0,0.004 0,0.007 0,0.011l-1,-0Zm2,-2l-1,-0l0,-1l1,0l0,1Zm0,-2l-1,-0l0,-1l1,-0l0,1Zm0,-2l-1,-0l0,-1l1,-0l0,1Zm0,-2l-1,-0l0,-1l1,-0l0,1Zm0,-2l-1,0l0,-1l1,0l0,1Zm0,-2l-1,0l-0,-1l1,-0l0,1Zm0,-2l-1,-0l-0,-1l1,0l0,1Zm0,-2l-1,-0l0,-1l1,-0l0,1Zm0,-2l-1,-0l-0,-1l1,-0l0,1Zm0,-2l-1,0l0,-1l1,0l0,1Zm0,-2l-1,0l0,-2c0,0.943 1,1 1,1l0,1Zm-2,-2l0,1l-1,-0l0,-1l1,-0Zm-2,-0l-0,1l-1,-0l-0,-1l1,-0Zm-2,-0l-0,1l-1,-0l-0,-1l1,-0Zm-2,-0l-0,1l-1,-0l-0,-1l1,-0Zm-2,-0l0,1l-1,-0l0,-1l1,-0Zm-2,-0l0,1l-1,-0l-0,-1l1,-0Zm-2,-0l-0,1l-1,-0l0,-1l1,-0Zm-2,-0l-0,1l-1,-0l-0,-1l1,-0Zm-2,-0l0,1l-1,-0l-0,-1l1,-0Zm-2,-0l0,1l-1,-0l0,-1l1,-0Z" fill="#6a6bd3"/><path d="M84,26c0,-0 0.331,-0.637 0.613,-1l0.387,-0l0,0.011c0,-0.004 -0,-0.007 -0,-0.011l1,-0l0,1l-2,-0Zm0,1l1,-0l0,1l-1,-0l0,-1Zm0,2l1,-0l0,1l-1,0l0,-1Zm0,2l1,0l0,1l-1,0l0,-1Zm0,2l1,0l0,1l-1,0l0,-1Zm0,2l1,-0l0,1l-1,-0l0,-1Zm0,2l1,-0l-0,1l-1,0l0,-1Zm0,2l1,0l-0,1l-1,-0l0,-1Zm0,2l1,-0l0,1l-1,0l0,-1Zm0,2l1,-0l-0,1l-1,-0l0,-1Zm0,2l1,-0l0,1l-1,-0l0,-1Zm0,2l1,-0l-0,2l-1,-0l0,-1l0.011,-0c-0.004,-0 -0.007,0 -0.011,0l0,-1Zm2,2l-0,-1l1,-0l-0,1l-1,-0Zm2,-0l0,-1l1,-0l0,1l-1,-0Zm2,-0l0,-1l1,-0l0,1l-1,-0Zm2,-0l0,-1l1,-0l0,1l-1,-0Zm2,-0l-0,-1l1,-0l-0,1l-1,-0Zm2,-0l-0,-1l1,-0l0,1l-1,-0Zm2,-0l0,-1l1,-0l-0,1l-1,-0Zm2,-0l0,-1l1,-0l0,1l-1,-0Zm2,-0l-0,-1l1,-0l0,1l-1,-0Zm2,-0l-0,-1l1,-0l-0,1l-1,-0Zm2,-0l-0,-1l2,-0l0,1l-1,-0l-0,-0.011c-0,0.004 0,0.007 0,0.011l-1,-0Zm2,-2l-1,-0l-0,-1l1,0l0,1Zm0,-2l-1,-0l0,-1l1,-0l0,1Zm0,-2l-1,-0l0,-1l1,-0l0,1Zm0,-2l-1,-0l0,-1l1,-0l0,1Zm0,-2l-1,0l0,-1l1,0l0,1Zm0,-2l-1,0l0,-1l1,-0l0,1Zm0,-2l-1,-0l0,-1l1,0l0,1Zm0,-2l-1,-0l0,-1l1,-0l0,1Zm0,-2l-1,-0l-0,-1l1,-0l0,1Zm0,-2l-1,0l0,-1l1,0l0,1Zm0,-2l-1,0l0,-2c0,0.943 1,1 1,1l0,1Zm-2,-2l0,1l-1,-0l0,-1l1,-0Zm-2,-0l-0,1l-1,-0l-0,-1l1,-0Zm-2,-0l-0,1l-1,-0l-0,-1l1,-0Zm-2,-0l-0,1l-1,-0l-0,-1l1,-0Zm-2,-0l0,1l-1,-0l0,-1l1,-0Zm-2,-0l0,1l-1,-0l-0,-1l1,-0Zm-2,-0l-0,1l-1,-0l0,-1l1,-0Zm-2,-0l-0,1l-1,-0l-0,-1l1,-0Zm-2,-0l0,1l-1,-0l-0,-1l1,-0Zm-2,-0l0,1l-1,-0l0,-1l1,-0Z" fill="#6a6bd3"/><path d="M108,26c0,-0 0.331,-0.637 0.613,-1l0.387,-0l0,0.011c0,-0.004 -0,-0.007 -0,-0.011l1,-0l0,1l-2,-0Zm0,1l1,-0l-0,1l-1,-0l0,-1Zm0,2l1,-0l0,1l-1,0l0,-1Zm0,2l1,0l0,1l-1,0l0,-1Zm0,2l1,0l0,1l-1,0l0,-1Zm0,2l1,-0l0,1l-1,-0l0,-1Zm0,2l1,-0l0,1l-1,0l0,-1Zm0,2l1,0l0,1l-1,-0l0,-1Zm0,2l1,-0l0,1l-1,0l0,-1Zm0,2l1,-0l-0,1l-1,-0l0,-1Zm0,2l1,-0l0,1l-1,-0l0,-1Zm0,2l1,-0l-0,2l-1,-0l0,-1l0.011,-0c-0.004,-0 -0.007,0 -0.011,0l0,-1Zm2,2l-0,-1l1,-0l-0,1l-1,-0Zm2,-0l0,-1l1,-0l0,1l-1,-0Zm2,-0l0,-1l1,-0l0,1l-1,-0Zm2,-0l0,-1l1,-0l0,1l-1,-0Zm2,-0l-0,-1l1,-0l-0,1l-1,-0Zm2,-0l-0,-1l1,-0l0,1l-1,-0Zm2,-0l0,-1l1,-0l-0,1l-1,-0Zm2,-0l0,-1l1,-0l0,1l-1,-0Zm2,-0l-0,-1l1,-0l0,1l-1,-0Zm2,-0l-0,-1l1,-0l-0,1l-1,-0Zm2,-0l-0,-1l2,-0l0,1l-1,-0l-0,-0.011c-0,0.004 0,0.007 0,0.011l-1,-0Zm2,-2l-1,-0l0,-1l1,0l0,1Zm0,-2l-1,-0l0,-1l1,-0l0,1Zm0,-2l-1,-0l0,-1l1,-0l0,1Zm0,-2l-1,-0l0,-1l1,-0l0,1Zm0,-2l-1,0l0,-1l1,0l0,1Zm0,-2l-1,0l0,-1l1,-0l0,1Zm0,-2l-1,-0l-0,-1l1,0l0,1Zm0,-2l-1,-0l-0,-1l1,-0l0,1Zm0,-2l-1,-0l0,-1l1,-0l0,1Zm0,-2l-1,0l0,-1l1,0l0,1Zm0,-2l-1,0l0,-2c0,0.943 1,1 1,1l0,1Zm-2,-2l0,1l-1,-0l0,-1l1,-0Zm-2,-0l-0,1l-1,-0l-0,-1l1,-0Zm-2,-0l-0,1l-1,-0l-0,-1l1,-0Zm-2,-0l-0,1l-1,-0l-0,-1l1,-0Zm-2,-0l0,1l-1,-0l0,-1l1,-0Zm-2,-0l0,1l-1,-0l-0,-1l1,-0Zm-2,-0l-0,1l-1,-0l0,-1l1,-0Zm-2,-0l-0,1l-1,-0l-0,-1l1,-0Zm-2,-0l0,1l-1,-0l-0,-1l1,-0Zm-2,-0l0,1l-1,-0l0,-1l1,-0Z" fill="#6a6bd3"/><path d="M132,26c0,-0 0.331,-0.637 0.613,-1l0.387,-0l0,0.011c0,-0.004 -0,-0.007 -0,-0.011l1,-0l0,1l-2,-0Zm0,1l1,-0l0,1l-1,-0l0,-1Zm0,2l1,-0l0,1l-1,0l0,-1Zm0,2l1,0l0,1l-1,0l0,-1Zm0,2l1,0l0,1l-1,0l0,-1Zm0,2l1,-0l0,1l-1,-0l0,-1Zm0,2l1,-0l0,1l-1,0l0,-1Zm0,2l1,0l0,1l-1,-0l0,-1Zm0,2l1,-0l0,1l-1,0l0,-1Zm0,2l1,-0l0,1l-1,-0l0,-1Zm0,2l1,-0l0,1l-1,-0l0,-1Zm0,2l1,-0l-0,2l-1,-0l0,-1l0.011,-0c-0.004,-0 -0.007,0 -0.011,0l0,-1Zm2,2l-0,-1l1,-0l-0,1l-1,-0Zm2,-0l0,-1l1,-0l0,1l-1,-0Zm2,-0l0,-1l1,-0l0,1l-1,-0Zm2,-0l0,-1l1,-0l0,1l-1,-0Zm2,-0l-0,-1l1,-0l-0,1l-1,-0Zm2,-0l-0,-1l1,-0l0,1l-1,-0Zm2,-0l0,-1l1,-0l-0,1l-1,-0Zm2,-0l0,-1l1,-0l0,1l-1,-0Zm2,-0l-0,-1l1,-0l0,1l-1,-0Zm2,-0l-0,-1l1,-0l-0,1l-1,-0Zm2,-0l-0,-1l2,-0l0,1l-1,-0l-0,-0.011c-0,0.004 0,0.007 0,0.011l-1,-0Zm2,-2l-1,-0l-0,-1l1,0l0,1Zm0,-2l-1,-0l0,-1l1,-0l0,1Zm0,-2l-1,-0l0,-1l1,-0l0,1Zm0,-2l-1,-0l0,-1l1,-0l0,1Zm0,-2l-1,0l-0,-1l1,0l0,1Zm0,-2l-1,0l-0,-1l1,-0l0,1Zm0,-2l-1,-0l-0,-1l1,0l0,1Zm0,-2l-1,-0l-0,-1l1,-0l0,1Zm0,-2l-1,-0l-0,-1l1,-0l0,1Zm0,-2l-1,0l0,-1l1,0l0,1Zm0,-2l-1,0l0,-2c0,0.943 1,1 1,1l0,1Zm-2,-2l0,1l-1,-0l0,-1l1,-0Zm-2,-0l-0,1l-1,-0l-0,-1l1,-0Zm-2,-0l-0,1l-1,-0l-0,-1l1,-0Zm-2,-0l-0,1l-1,-0l-0,-1l1,-0Zm-2,-0l0,1l-1,-0l0,-1l1,-0Zm-2,-0l0,1l-1,-0l-0,-1l1,-0Zm-2,-0l-0,1l-1,-0l0,-1l1,-0Zm-2,-0l-0,1l-1,-0l-0,-1l1,-0Zm-2,-0l0,1l-1,-0l-0,-1l1,-0Zm-2,-0l0,1l-1,-0l0,-1l1,-0Z" fill="#6a6bd3"/><path d="M156,26c0,-0 0.331,-0.637 0.613,-1l0.387,-0l0,0.011c0,-0.004 -0,-0.007 -0,-0.011l1,-0l0,1l-2,-0Zm0,1l1,-0l0,1l-1,-0l0,-1Zm0,2l1,-0l0,1l-1,0l0,-1Zm0,2l1,0l0,1l-1,0l0,-1Zm0,2l1,0l0,1l-1,0l0,-1Zm0,2l1,-0l0,1l-1,-0l0,-1Zm0,2l1,-0l0,1l-1,0l0,-1Zm0,2l1,0l0,1l-1,-0l0,-1Zm0,2l1,-0l0,1l-1,0l0,-1Zm0,2l1,-0l0,1l-1,-0l0,-1Zm0,2l1,-0l0,1l-1,-0l0,-1Zm0,2l1,-0l-0,2l-1,-0l0,-1l0.011,-0c-0.004,-0 -0.007,0 -0.011,0l0,-1Zm2,2l-0,-1l1,-0l-0,1l-1,-0Zm2,-0l0,-1l1,-0l0,1l-1,-0Zm2,-0l0,-1l1,-0l0,1l-1,-0Zm2,-0l0,-1l1,-0l0,1l-1,-0Zm2,-0l-0,-1l1,-0l-0,1l-1,-0Zm2,-0l-0,-1l1,-0l0,1l-1,-0Zm2,-0l0,-1l1,-0l-0,1l-1,-0Zm2,-0l0,-1l1,-0l0,1l-1,-0Zm2,-0l-0,-1l1,-0l0,1l-1,-0Zm2,-0l-0,-1l1,-0l-0,1l-1,-0Zm2,-0l-0,-1l2,-0l0,1l-0.989,-0l-0.011,-0.011l-0,0.011l-1,-0Zm2,-2l-1,-0l0,-1l1,0l0,1Zm0,-2l-1,-0l0,-1l1,-0l0,1Zm0,-2l-1,-0l0,-1l1,-0l0,1Zm0,-2l-1,-0l0,-1l1,-0l0,1Zm0,-2l-1,0l0,-1l1,0l0,1Zm0,-2l-1,0l0,-1l1,-0l0,1Zm0,-2l-1,-0l0,-1l1,0l0,1Zm0,-2l-1,-0l-0,-1l1,-0l0,1Zm0,-2l-1,-0l-0,-1l1,-0l0,1Zm0,-2l-1,0l0,-1l1,0l0,1Zm0,-2l-1,0l0,-2c0,0.943 1,1 1,1l0,1Zm-2,-2l0,1l-1,-0l0,-1l1,-0Zm-2,-0l-0,1l-1,-0l-0,-1l1,-0Zm-2,-0l-0,1l-1,-0l-0,-1l1,-0Zm-2,-0l-0,1l-1,-0l-0,-1l1,-0Zm-2,-0l0,1l-1,-0l0,-1l1,-0Zm-2,-0l0,1l-1,-0l-0,-1l1,-0Zm-2,-0l-0,1l-1,-0l0,-1l1,-0Zm-2,-0l-0,1l-1,-0l-0,-1l1,-0Zm-2,-0l0,1l-1,-0l-0,-1l1,-0Zm-2,-0l0,1l-1,-0l0,-1l1,-0Z" fill="#6a6bd3"/><path d="M180,26c0,-0 0.331,-0.637 0.613,-1l0.387,-0l0,0.011c0,-0.004 -0,-0.007 -0,-0.011l1,-0l0,1l-2,-0Zm0,1l1,-0l0,1l-1,-0l0,-1Zm0,2l1,-0l0,1l-1,0l0,-1Zm0,2l1,0l0,1l-1,0l0,-1Zm0,2l1,0l0,1l-1,0l0,-1Zm0,2l1,-0l0,1l-1,-0l0,-1Zm0,2l1,-0l0,1l-1,0l0,-1Zm0,2l1,0l0,1l-1,-0l0,-1Zm0,2l1,-0l0,1l-1,0l0,-1Zm0,2l1,-0l0,1l-1,-0l0,-1Zm0,2l1,-0l0,1l-1,-0l0,-1Zm0,2l1,-0l-0,2l-1,-0l0,-1l0.011,-0c-0.004,-0 -0.007,0 -0.011,0l0,-1Zm2,2l-0,-1l1,-0l-0,1l-1,-0Zm2,-0l0,-1l1,-0l0,1l-1,-0Zm2,-0l0,-1l1,-0l0,1l-1,-0Zm2,-0l0,-1l1,-0l0,1l-1,-0Zm2,-0l-0,-1l1,-0l-0,1l-1,-0Zm2,-0l-0,-1l1,-0l0,1l-1,-0Zm2,-0l0,-1l1,-0l-0,1l-1,-0Zm2,-0l0,-1l1,-0l0,1l-1,-0Zm2,-0l-0,-1l1,-0l0,1l-1,-0Zm2,-0l-0,-1l1,-0l-0,1l-1,-0Zm2,-0l-0,-1l2,-0l0,1l-1,-0l-0,-0.011c-0,0.004 0,0.007 0,0.011l-1,-0Zm2,-2l-1,-0l0,-1l1,0l0,1Zm0,-2l-1,-0l0,-1l1,-0l0,1Zm0,-2l-1,-0l-0,-1l1,-0l0,1Zm0,-2l-1,-0l-0,-1l1,-0l0,1Zm0,-2l-1,0l-0,-1l1,0l0,1Zm0,-2l-1,0l-0,-1l1,-0l0,1Zm0,-2l-1,-0l-0,-1l1,0l0,1Zm0,-2l-1,-0l-0,-1l1,-0l0,1Zm0,-2l-1,-0l0,-1l1,-0l0,1Zm0,-2l-1,0l0,-1l1,0l0,1Zm0,-2l-1,0l0,-2c0,0.943 1,1 1,1l0,1Zm-2,-2l0,1l-1,-0l0,-1l1,-0Zm-2,-0l-0,1l-1,-0l-0,-1l1,-0Zm-2,-0l-0,1l-1,-0l-0,-1l1,-0Zm-2,-0l-0,1l-1,-0l-0,-1l1,-0Zm-2,-0l0,1l-1,-0l0,-1l1,-0Zm-2,-0l0,1l-1,-0l-0,-1l1,-0Zm-2,-0l-0,1l-1,-0l0,-1l1,-0Zm-2,-0l-0,1l-1,-0l-0,-1l1,-0Zm-2,-0l0,1l-1,-0l-0,-1l1,-0Zm-2,-0l0,1l-1,-0l0,-1l1,-0Z" fill="#6a6bd3"/><path d="M195,35c0,1.646 -1.354,3 -3,3c-1.646,-0 -3,-1.354 -3,-3c0,-1.646 1.354,-3 3,-3c1.646,-0 3,1.354 3,3Z" fill-rule="nonzero"/><path d="M184,37c0,-4.389 3.611,-8 8,-8c4.389,-0 8,3.611 8,8c0,4.389 -3.611,8 -8,8c-4.389,-0 -8,-3.611 -8,-8Zm8,-7c-3.84,0 -7,3.16 -7,7c0,1.588 0.541,3.13 1.532,4.37c0.71,-1.144 2.273,-2.37 5.468,-2.37c3.195,-0 4.757,1.225 5.468,2.37c0.991,-1.24 1.532,-2.782 1.532,-4.37c-0,-3.84 -3.16,-7 -7,-7Z"/><path d="M169.535,30.016c0.132,-0.001 0.26,0.052 0.354,0.146l4.95,4.95c0.194,0.194 0.194,0.513 -0,0.707c-0.48,0.48 -1.072,0.588 -1.503,0.588c-0.177,-0 -0.335,-0.018 -0.46,-0.039l-3.134,3.134c0.082,0.332 0.136,0.671 0.16,1.013c0.046,0.702 -0.032,1.687 -0.72,2.375c-0.194,0.194 -0.513,0.194 -0.707,-0l-2.829,-2.828l-3.182,3.182c-0.195,0.195 -1.219,0.902 -1.414,0.707c-0.195,-0.195 0.512,-1.22 0.707,-1.414l3.182,-3.182l-2.828,-2.829c-0.194,-0.194 -0.194,-0.513 -0,-0.707c0.688,-0.688 1.673,-0.767 2.375,-0.72c0.341,0.024 0.68,0.077 1.013,0.16l3.134,-3.133c-0.027,-0.153 -0.04,-0.307 -0.04,-0.461c-0,-0.43 0.108,-1.022 0.589,-1.503c0.093,-0.094 0.22,-0.146 0.353,-0.146Z" fill-rule="nonzero"/><path d="M136.05,32.555c0.207,-0.907 1.02,-1.555 1.95,-1.555l12,-0c0.93,-0 1.743,0.648 1.95,1.555l-7.95,4.859l-7.95,-4.859Zm-0.05,1.142l0,7.104l5.803,-3.558l-5.803,-3.546Zm6.761,4.133l-6.57,4.026c0.33,0.698 1.037,1.145 1.809,1.144l6.256,-0c-0.17,-0.482 -0.257,-0.989 -0.256,-1.5c-0.001,-1.329 0.587,-2.592 1.606,-3.446l-0.367,-0.225l-1.239,0.757l-1.239,-0.757l0,0.001Zm9.239,-4.133l0,4.974c-0.853,-1.057 -2.141,-1.672 -3.5,-1.671c-0.681,-0.001 -1.353,0.153 -1.965,0.45l-0.338,-0.207l5.803,-3.546Z" fill-rule="nonzero"/><path d="M152,41.5c0,1.92 -1.58,3.5 -3.5,3.5c-1.92,-0 -3.5,-1.58 -3.5,-3.5c0,-1.92 1.58,-3.5 3.5,-3.5c1.92,-0 3.5,1.58 3.5,3.5Zm-3.5,-2c-0.274,-0 -0.5,0.226 -0.5,0.5l0,1l-1,-0c-0.274,-0 -0.5,0.226 -0.5,0.5c0,0.274 0.226,0.5 0.5,0.5l1,-0l0,1c0,0.274 0.226,0.5 0.5,0.5c0.274,-0 0.5,-0.226 0.5,-0.5l0,-1l1,-0c0.274,-0 0.5,-0.226 0.5,-0.5c0,-0.274 -0.226,-0.5 -0.5,-0.5l-1,-0l0,-1c0,-0.274 -0.226,-0.5 -0.5,-0.5Z" fill-rule="nonzero"/><path d="M120.707,30.395c-0.388,-0.387 -1.026,-0.387 -1.414,0l-6.647,6.646c-0.094,0.094 -0.147,0.222 -0.147,0.354c0,0.275 0.226,0.501 0.501,0.501c0.133,0 0.26,-0.053 0.354,-0.147l6.646,-6.647l6.646,6.647c0.094,0.094 0.221,0.147 0.354,0.147c0.275,0 0.501,-0.226 0.501,-0.501c-0,-0.132 -0.053,-0.26 -0.147,-0.354l-2.354,-2.353l-0,-3.293c-0,-0.274 -0.226,-0.5 -0.5,-0.5l-1,0c-0.274,0 -0.5,0.226 -0.5,0.5l-0,1.293l-2.293,-2.293Z" fill-rule="nonzero"/><path d="M120,32.188l6,6l-0,4.207c-0,0.823 -0.677,1.5 -1.5,1.5l-9,0c-0.823,0 -1.5,-0.677 -1.5,-1.5l-0,-4.207l6,-6Z" fill-rule="nonzero"/><path d="M96,29c4.389,-0 8,3.611 8,8c0,4.389 -3.611,8 -8,8c-4.389,-0 -8,-3.611 -8,-8c0,-4.389 3.611,-8 8,-8Zm-3.5,7.5c-0.274,-0 -0.5,0.226 -0.5,0.5c0,0.274 0.226,0.5 0.5,0.5l5.793,-0l-2.147,2.146c-0.094,0.094 -0.147,0.221 -0.147,0.354c0,0.275 0.226,0.501 0.501,0.501c0.133,-0 0.26,-0.053 0.354,-0.147l3,-3c0.094,-0.094 0.147,-0.221 0.147,-0.354c-0,-0.133 -0.053,-0.26 -0.147,-0.354l-3,-3c-0.094,-0.094 -0.221,-0.147 -0.354,-0.147c-0.275,0 -0.501,0.226 -0.501,0.501c0,0.133 0.053,0.26 0.147,0.354l2.147,2.146l-5.793,-0Z" fill-rule="nonzero"/><path d="M72,29c-4.389,-0 -8,3.611 -8,8c0,4.389 3.611,8 8,8c4.389,-0 8,-3.611 8,-8c0,-4.389 -3.611,-8 -8,-8Zm3.5,7.5c0.274,-0 0.5,0.226 0.5,0.5c0,0.274 -0.226,0.5 -0.5,0.5l-5.793,-0l2.147,2.146c0.094,0.094 0.147,0.221 0.147,0.354c-0,0.275 -0.226,0.501 -0.501,0.501c-0.133,-0 -0.26,-0.053 -0.354,-0.147l-3,-3c-0.094,-0.094 -0.147,-0.221 -0.147,-0.354c0,-0.133 0.053,-0.26 0.147,-0.354l3,-3c0.094,-0.094 0.221,-0.147 0.354,-0.147c0.275,0 0.501,0.226 0.501,0.501c-0,0.133 -0.053,0.26 -0.147,0.354l-2.147,2.146l5.793,-0Z" fill-rule="nonzero"/><path d="M54.5,25.5l-8,-0" fill="none" stroke="#000" stroke-width="1px"/><path d="M54.5,48.5l-8,-0" fill="none" stroke="#000" stroke-width="1px"/><path d="M50.5,25.5l0,23" fill="none" stroke="#000" stroke-width="1px" stroke-miterlimit="1"/><path d="M60.5,54.5l0,8" fill="none" stroke="#000" stroke-width="1px"/><path d="M83.5,54.5l0,8" fill="none" stroke="#000" stroke-width="1px"/><path d="M60.5,58.5l23,-0" fill="none" stroke="#000" stroke-width="1px" stroke-miterlimit="1"/><path d="M17.871,34.28c-0.036,-1.02 0.468,-2.112 1.657,-2.112c0.9,-0 1.645,0.612 1.645,1.536c-0,1.176 -0.733,1.704 -2.173,2.592c-1.201,0.745 -2.219,1.465 -2.387,3.48l5.554,-0l0,-0.899l-4.368,0c0.204,-1.056 1.321,-1.596 2.389,-2.244c1.057,-0.661 2.063,-1.417 2.063,-2.917c0,-1.584 -1.174,-2.447 -2.663,-2.447c-1.801,0 -2.819,1.283 -2.735,3.011l1.018,0Z" fill-rule="nonzero"/><path d="M28.023,31.269l-0.814,0l-3.876,5.532l-0,0.983l3.732,-0l-0,1.992l0.958,-0l0,-1.992l1.152,-0l0,-0.899l-1.152,0l0,-5.616Zm-3.814,5.616l2.832,-4.164l0.024,0l-0,4.164l-2.856,0Z" fill-rule="nonzero"/><path d="M35.273,36.62c-0,1.213 -0.468,2.401 -1.861,2.401c-1.405,0 -1.957,-1.128 -1.957,-2.353c0,-1.164 0.528,-2.34 1.897,-2.34c1.321,-0 1.921,1.128 1.921,2.292Zm-4.8,5.532l1.018,-0l0,-3.203l0.024,0c0.456,0.731 1.369,0.971 2.005,0.971c1.897,-0 2.831,-1.475 2.831,-3.228c0,-1.752 -0.946,-3.263 -2.855,-3.263c-0.852,0 -1.645,0.3 -1.981,0.983l-0.024,-0l0,-0.839l-1.018,0l-0,8.579Z" fill-rule="nonzero"/><path d="M36.893,39.776l1.235,-0l1.728,-2.578l1.728,2.578l1.307,-0l-2.399,-3.36l2.135,-2.843l-1.223,0l-1.548,2.162l-1.488,-2.162l-1.307,0l2.159,2.939l-2.327,3.264Z" fill-rule="nonzero"/><path d="M60.399,68.072c-0.036,-1.021 0.468,-2.113 1.656,-2.113c0.901,0 1.645,0.612 1.645,1.537c0,1.176 -0.732,1.704 -2.173,2.592c-1.2,0.744 -2.219,1.464 -2.387,3.479l5.555,0l-0,-0.898l-4.368,-0c0.204,-1.056 1.32,-1.597 2.389,-2.245c1.056,-0.66 2.063,-1.416 2.063,-2.916c-0,-1.585 -1.175,-2.447 -2.664,-2.447c-1.8,-0 -2.819,1.282 -2.735,3.011l1.019,-0Z" fill-rule="nonzero"/><path d="M70.551,65.061l-0.815,-0l-3.876,5.532l0,0.982l3.732,0l0,1.992l0.959,0l-0,-1.992l1.152,0l-0,-0.898l-1.152,-0l-0,-5.616Zm-3.815,5.616l2.832,-4.164l0.024,-0l0,4.164l-2.856,-0Z" fill-rule="nonzero"/><path d="M77.8,70.412c0,1.212 -0.468,2.401 -1.861,2.401c-1.404,-0 -1.956,-1.129 -1.956,-2.353c-0,-1.164 0.528,-2.341 1.896,-2.341c1.321,0 1.921,1.129 1.921,2.293Zm-4.8,5.531l1.019,0l-0,-3.202l0.024,-0c0.456,0.731 1.368,0.97 2.004,0.97c1.897,0 2.832,-1.474 2.832,-3.227c-0,-1.753 -0.947,-3.263 -2.856,-3.263c-0.852,-0 -1.644,0.299 -1.98,0.982l-0.024,0l-0,-0.838l-1.019,-0l0,8.578Z" fill-rule="nonzero"/><path d="M79.42,73.567l1.236,0l1.727,-2.577l1.728,2.577l1.308,0l-2.4,-3.36l2.136,-2.842l-1.224,-0l-1.548,2.161l-1.487,-2.161l-1.308,-0l2.16,2.938l-2.328,3.264Z" fill-rule="nonzero"/><path d="M341.141,281.279l4.398,-0l-0,-4.32l2.601,-0c3.28,-0 5.599,-1.619 5.599,-5.079c-0,-2.041 -1.359,-4.879 -5.238,-4.879l-7.36,0l0,14.278Zm4.398,-10.62l1.961,-0c1.081,-0 2.081,0.08 2.081,1.381c0,1.441 -1.2,1.521 -2.341,1.521l-1.701,0l-0,-2.902Z" fill="#1b7024" fill-rule="nonzero"/><path d="M358.46,276.181l1.38,-4.4l0.04,0l1.28,4.4l-2.7,0Zm-6.019,5.098l4.42,-0l0.639,-2.04l4.54,-0l0.6,2.04l4.559,-0l-5.199,-14.278l-4.3,0l-5.259,14.278Z" fill="#1b7024" fill-rule="nonzero"/><path d="M367.281,276.481c0.04,4.558 4.658,5.138 6.279,5.138c3.181,-0 6.599,-1.199 6.599,-4.918c-0,-2.621 -1.999,-3.562 -4.018,-4.122c-2.021,-0.56 -4.062,-0.78 -4.142,-1.8c-0,-0.8 0.98,-0.96 1.581,-0.96c0.44,-0 0.941,0.1 1.301,0.36c0.36,0.24 0.6,0.6 0.52,1.14l4.158,-0c-0.12,-3.478 -2.859,-4.658 -5.959,-4.658c-2.94,0 -5.759,1.419 -5.759,4.718c0,2.881 2.579,3.501 4.838,4.141c2.462,0.7 3.082,0.901 3.082,1.641c0,1.06 -1.1,1.3 -1.821,1.3c-0.82,0 -1.781,-0.18 -2.101,-1.04c-0.1,-0.26 -0.16,-0.58 -0.16,-0.94l-4.398,-0Z" fill="#1b7024" fill-rule="nonzero"/><path d="M380.621,276.481c0.04,4.558 4.658,5.138 6.279,5.138c3.181,-0 6.599,-1.199 6.599,-4.918c-0,-2.621 -1.999,-3.562 -4.018,-4.122c-2.021,-0.56 -4.062,-0.78 -4.142,-1.8c-0,-0.8 0.98,-0.96 1.581,-0.96c0.44,-0 0.941,0.1 1.301,0.36c0.36,0.24 0.6,0.6 0.52,1.14l4.158,-0c-0.12,-3.478 -2.859,-4.658 -5.959,-4.658c-2.94,0 -5.759,1.419 -5.759,4.718c0,2.881 2.579,3.501 4.838,4.141c2.462,0.7 3.082,0.901 3.082,1.641c0,1.06 -1.1,1.3 -1.821,1.3c-0.82,0 -1.781,-0.18 -2.101,-1.04c-0.1,-0.26 -0.16,-0.58 -0.16,-0.94l-4.398,-0Z" fill="#1b7024" fill-rule="nonzero"/><path d="M230,252l2,0l-0,1l-1,0l-1,0l0,-1Zm48,48l-2,-0l0,-1l1,-0l1,-0l0,1Zm-48,0l0,-2l1,0l0,1l0,1l-1,0Zm0,-46l1,0l0,1l-1,0l0,-1Zm0,2l1,0l0,1l-1,0l0,-1Zm0,2l1,0l0,1l-1,0l0,-1Zm0,2l1,0l0,1l-1,0l0,-1Zm0,2l1,0l0,1l-1,0l0,-1Zm0,2l1,0l0,1l-1,0l0,-1Zm0,2l1,0l0,1l-1,0l0,-1Zm0,2l1,0l0,1l-1,0l0,-1Zm0,2l1,0l-0,1l-1,0l0,-1Zm0,2l1,0l-0,1l-1,0l0,-1Zm0,2l1,0l-0,1l-1,0l0,-1Zm0,2l1,0l-0,1l-1,0l0,-1Zm0,2l1,0l-0,1l-1,0l0,-1Zm0,2l1,0l-0,1l-1,0l0,-1Zm0,2l1,0l-0,1l-1,0l0,-1Zm0,2l1,0l-0,1l-1,0l0,-1Zm0,2l1,0l-0,1l-1,0l0,-1Zm0,2l1,0l-0,1l-1,0l0,-1Zm0,2l1,0l-0,1l-1,0l0,-1Zm0,2l1,0l-0,1l-1,0l0,-1Zm0,2l1,0l-0,1l-1,0l0,-1Zm0,2l1,0l-0,1l-1,0l0,-1Zm2,4l0,-1l1,0l0,1l-1,-0Zm2,-0l0,-1l1,0l0,1l-1,-0Zm2,-0l0,-1l1,0l0,1l-1,-0Zm2,-0l0,-1l1,0l0,1l-1,-0Zm2,-0l0,-1l1,0l0,1l-1,-0Zm2,-0l0,-1l1,0l0,1l-1,-0Zm2,-0l0,-1l1,0l0,1l-1,-0Zm2,-0l0,-1l1,0l0,1l-1,-0Zm2,-0l0,-1l1,0l0,1l-1,-0Zm2,-0l0,-1l1,-0l0,1l-1,-0Zm2,-0l0,-1l1,-0l0,1l-1,-0Zm2,-0l0,-1l1,-0l0,1l-1,-0Zm2,-0l0,-1l1,-0l0,1l-1,-0Zm2,-0l0,-1l1,-0l0,1l-1,-0Zm2,-0l0,-1l1,-0l0,1l-1,-0Zm2,-0l0,-1l1,-0l0,1l-1,-0Zm2,-0l0,-1l1,-0l0,1l-1,-0Zm2,-0l0,-1l1,-0l0,1l-1,-0Zm2,-0l0,-1l1,0l0,1l-1,-0Zm2,-0l0,-1l1,0l0,1l-1,-0Zm2,-0l0,-1l1,0l0,1l-1,-0Zm2,-0l0,-1l1,0l0,1l-1,-0Zm4,-2l-1,-0l0,-1l1,-0l0,1Zm0,-2l-1,-0l-0,-1l1,-0l0,1Zm0,-2l-1,-0l-0,-1l1,-0l0,1Zm0,-2l-1,-0l-0,-1l1,-0l0,1Zm0,-2l-1,-0l-0,-1l1,-0l0,1Zm0,-2l-1,-0l-0,-1l1,-0l0,1Zm0,-2l-1,-0l-0,-1l1,-0l0,1Zm0,-2l-1,-0l-0,-1l1,-0l0,1Zm0,-2l-1,-0l-0,-1l1,-0l0,1Zm0,-2l-1,-0l-0,-1l1,-0l0,1Zm0,-2l-1,-0l-0,-1l1,-0l0,1Zm0,-2l-1,-0l-0,-1l1,-0l0,1Zm0,-2l-1,-0l-0,-1l1,-0l0,1Zm0,-2l-1,-0l-0,-1l1,-0l0,1Zm0,-2l-1,-0l-0,-1l1,-0l0,1Zm0,-2l-1,-0l-0,-1l1,-0l0,1Zm0,-2l-1,-0l-0,-1l1,-0l0,1Zm0,-2l-1,-0l-0,-1l1,-0l0,1Zm0,-2l-1,-0l-0,-1l1,-0l0,1Zm0,-2l-1,-0l-0,-1l1,-0l0,1Zm0,-2l-1,-0l-0,-1l1,-0l0,1Zm0,-2l-1,-0l-0,-1l1,-0l0,1Zm0,-2l-1,-0l0,-1l0,-1l1,-0l0,2Zm-2,-2l0,1l-1,-0l-0,-1l1,0Zm-2,0l-0,1l-1,-0l-0,-1l1,0Zm-2,0l-0,1l-1,0l-0,-1l1,0Zm-2,0l-0,1l-1,0l-0,-1l1,0Zm-2,0l-0,1l-1,-0l-0,-1l1,0Zm-2,0l-0,1l-1,-0l-0,-1l1,0Zm-2,0l0,1l-1,-0l0,-1l1,0Zm-2,0l0,1l-1,0l0,-1l1,0Zm-2,0l0,1l-1,0l0,-1l1,0Zm-2,0l0,1l-1,-0l0,-1l1,0Zm-2,0l-0,1l-1,-0l-0,-1l1,0Zm-2,0l-0,1l-1,-0l-0,-1l1,0Zm-2,0l-0,1l-1,-0l-0,-1l1,0Zm-2,0l-0,1l-1,-0l-0,-1l1,0Zm-2,0l-0,1l-1,-0l-0,-1l1,0Zm-2,0l-0,1l-1,-0l-0,-1l1,0Zm-2,0l-0,1l-1,-0l-0,-1l1,0Zm-2,0l-0,1l-1,-0l-0,-1l1,0Zm-2,0l-0,1l-1,-0l-0,-1l1,0Zm-2,0l-0,1l-1,-0l-0,-1l1,0Zm-2,0l-0,1l-1,-0l-0,-1l1,0Zm-2,0l-0,1l-1,-0l-0,-1l1,0Z" fill="#6a6bd3"/><path d="M290,259c0,-0 0.331,-0.637 0.612,-1l0.388,0l0,0.011c0,-0.004 -0,-0.007 -0,-0.011l1,0l0,1l-1,-0l-1,-0Zm0,1l1,0l0,1l-1,0l0,-1Zm0,2l1,0l0,1l-1,0l0,-1Zm0,2l1,0l0,1l-1,0l0,-1Zm0,2l1,0l0,1l-1,0l0,-1Zm0,2l1,0l0,1l-1,-0l0,-1Zm0,2l1,0l0,1l-1,0l0,-1Zm0,2l1,-0l0,1l-1,-0l0,-1Zm0,2l1,0l0,1l-1,-0l0,-1Zm0,2l1,-0l0,1l-1,-0l0,-1Zm0,2l1,-0l0,1l-1,-0l0,-1Zm0,2l1,-0l0,1l-1,-0l0,-1Zm0,2l1,-0l0,1l-1,-0l0,-1Zm0,2l1,-0l0,1l-1,-0l0,-1Zm0,2l1,-0l0,1l-1,-0l0,-1Zm0,2l1,-0l0,1l-1,-0l0,-1Zm0,2l1,-0l0,1l-1,-0l0,-1Zm0,2l1,-0l-0,1l-0,1l-1,0l0,-1l0.011,-0c-0.004,-0 -0.007,0 -0.011,0l0,-1Zm2,2l0,-1l1,0l0,1l-1,-0Zm2,-0l0,-1l1,0l0,1l-1,-0Zm2,-0l0,-1l1,0l0,1l-1,-0Zm2,-0l0,-1l1,0l0,1l-1,-0Zm2,-0l0,-1l1,0l-0,1l-1,-0Zm2,-0l0,-1l1,0l0,1l-1,-0Zm2,-0l-0,-1l1,0l-0,1l-1,-0Zm2,-0l0,-1l1,0l-0,1l-1,-0Zm2,-0l-0,-1l1,0l-0,1l-1,-0Zm2,-0l-0,-1l1,0l-0,1l-1,-0Zm2,-0l-0,-1l1,0l-0,1l-1,-0Zm2,-0l-0,-1l1,0l-0,1l-1,-0Zm2,-0l-0,-1l1,0l-0,1l-1,-0Zm2,-0l-0,-1l1,0l-0,1l-1,-0Zm2,-0l-0,-1l1,0l-0,1l-1,-0Zm2,-0l-0,-1l1,0l-0,1l-1,-0Zm2,-0l-0,-1l1,0l1,0l0,1l-0.989,-0l-0.011,-0.011l-0,0.011l-1,-0Zm2,-2l-1,-0l0,-1l1,-0l-0,1Zm-0,-2l-1,-0l0,-1l1,-0l-0,1Zm-0,-2l-1,-0l0,-1l1,-0l-0,1Zm-0,-2l-1,-0l0,-1l1,-0l-0,1Zm-0,-2l-1,-0l0,-1l1,0l-0,1Zm-0,-2l-1,-0l0,-1l1,-0l-0,1Zm-0,-2l-1,0l0,-1l1,0l-0,1Zm-0,-2l-1,-0l0,-1l1,0l-0,1Zm-0,-2l-1,0l0,-1l1,0l-0,1Zm-0,-2l-1,0l0,-1l1,0l-0,1Zm-0,-2l-1,0l0,-1l1,0l-0,1Zm-0,-2l-1,0l0,-1l1,0l-0,1Zm-0,-2l-1,0l0,-1l1,0l-0,1Zm-0,-2l-1,0l0,-1l1,0l-0,1Zm-0,-2l-1,0l0,-1l1,0l-0,1Zm-0,-2l-1,0l0,-1l1,0l-0,1Zm-0,-2l-1,0l0,-1l0,-1c0,0.943 1,1 1,1l-0,1Zm-2,-2l-0,1l-1,-0l-0,-1l1,0Zm-2,0l-0,1l-1,-0l-0,-1l1,0Zm-2,0l-0,1l-1,-0l-0,-1l1,0Zm-2,0l-0,1l-1,-0l-0,-1l1,0Zm-2,0l-0,1l-1,0l0,-1l1,0Zm-2,0l-0,1l-1,0l-0,-1l1,0Zm-2,0l0,1l-1,0l0,-1l1,0Zm-2,0l-0,1l-1,0l0,-1l1,0Zm-2,0l0,1l-1,0l0,-1l1,0Zm-2,0l0,1l-1,0l0,-1l1,0Zm-2,0l0,1l-1,0l0,-1l1,0Zm-2,0l0,1l-1,-0l0,-1l1,0Zm-2,0l0,1l-1,-0l0,-1l1,0Zm-2,0l0,1l-1,-0l0,-1l1,0Zm-2,0l0,1l-1,-0l0,-1l1,0Zm-2,0l0,1l-1,-0l0,-1l1,0Z" fill="#6a6bd3"/><path d="M292.1,267.11c0.414,-1.813 2.04,-3.11 3.9,-3.11l24,0c1.86,-0 3.486,1.297 3.9,3.11l-15.9,9.718l-15.9,-9.718Zm-0.1,2.284l0,14.208l11.606,-7.116l-11.606,-7.092Zm13.522,8.266l-13.14,8.052c0.661,1.396 2.074,2.289 3.618,2.288l12.512,0c-0.34,-0.964 -0.513,-1.978 -0.512,-3c-0.003,-2.658 1.175,-5.185 3.212,-6.892l-0.734,-0.45l-2.478,1.514l-2.478,-1.514l0,0.002Zm18.478,-8.266l0,9.948c-1.706,-2.115 -4.283,-3.345 -7,-3.342c-1.361,-0.002 -2.705,0.306 -3.93,0.9l-0.676,-0.414l11.606,-7.092Z" fill-rule="nonzero"/><path d="M324,285c0,3.84 -3.16,7 -7,7c-3.84,0 -7,-3.16 -7,-7c0,-3.84 3.16,-7 7,-7c3.84,0 7,3.16 7,7Zm-7,-4c-0.549,0 -1,0.451 -1,1l0,2l-2,0c-0.549,0 -1,0.451 -1,1c0,0.549 0.451,1 1,1l2,0l0,2c0,0.549 0.451,1 1,1c0.549,0 1,-0.451 1,-1l0,-2l2,0c0.549,0 1,-0.451 1,-1c0,-0.549 -0.451,-1 -1,-1l-2,0l0,-2c0,-0.549 -0.451,-1 -1,-1Z" fill-rule="nonzero"/><path d="M255.414,262.791c-0.776,-0.776 -2.052,-0.776 -2.828,-0l-13.294,13.292c-0.188,0.188 -0.293,0.442 -0.293,0.708c-0,0.549 0.452,1.001 1.001,1.001c0.265,0 0.52,-0.105 0.708,-0.293l13.292,-13.294l13.292,13.294c0.188,0.188 0.443,0.293 0.708,0.293c0.549,0 1.001,-0.452 1.001,-1.001c0,-0.266 -0.105,-0.52 -0.293,-0.708l-4.708,-4.706l-0,-6.586c-0,-0.549 -0.451,-1 -1,-1l-2,-0c-0.549,-0 -1,0.451 -1,1l-0,2.586l-4.586,-4.586Z" fill-rule="nonzero"/><path d="M254,266.377l12,12l-0,8.414c-0,1.646 -1.354,3 -3,3l-18,-0c-1.646,-0 -3,-1.354 -3,-3l-0,-8.414l12,-12Z" fill-rule="nonzero"/></svg>