<svg xmlns="http://www.w3.org/2000/svg" xml:space="preserve" fill-rule="evenodd" clip-rule="evenodd" stroke-miterlimit="10" viewBox="0 0 410 355"><rect width="410" height="355" fill="#fff"/><rect width="410" height="355" fill="none"/><path d="M60,21c0,-0 0.331,-0.637 0.612,-1l0.388,0l0,0.011c0,-0.004 0,-0.008 0,-0.011l1,0l0,1l-1,-0l-1,-0Zm0,1l1,-0l0,1l-1,-0l0,-1Zm0,2l1,-0l0,1l-1,-0l0,-1Zm0,2l1,-0l0,1l-1,-0l0,-1Zm0,2l1,-0l0,1l-1,-0l0,-1Zm0,2l1,-0l-0,1l-1,-0l0,-1Zm0,2l1,-0l-0,1l-1,-0l0,-1Zm0,2l1,-0l-0,1l-1,-0l0,-1Zm0,2l1,-0l-0,1l-1,-0l0,-1Zm0,2l1,-0l-0,1l-1,-0l0,-1Zm0,2l1,-0l-0,1l-1,-0l0,-1Zm0,2l1,-0l-0,1l-1,-0l0,-1Zm0,2l1,-0l-0,1l-1,-0l0,-1Zm0,2l1,-0l-0,1l-1,-0l0,-1Zm0,2l1,-0l-0,1l-1,-0l0,-1Zm0,2l1,-0l-0,1l-1,-0l0,-1Zm0,2l1,-0l0,1l-1,-0l0,-1Zm0,2l1,-0l0,1l-1,-0l0,-1Zm0,2l1,-0l0,1l-1,-0l0,-1Zm0,2l1,-0l0,1l-1,-0l0,-1Zm0,2l1,-0l0,1l-1,-0l0,-1Zm0,2l1,-0l-0,1l-0,1l-1,-0l0,-1l0.011,-0c-0.004,-0 -0.007,-0 -0.011,-0l0,-1Zm2,2l-0,-1l1,-0l-0,1l-1,-0Zm2,-0l-0,-1l1,-0l-0,1l-1,-0Zm2,-0l-0,-1l1,-0l-0,1l-1,-0Zm2,-0l-0,-1l1,-0l-0,1l-1,-0Zm2,-0l-0,-1l1,-0l-0,1l-1,-0Zm2,-0l-0,-1l1,-0l-0,1l-1,-0Zm2,-0l-0,-1l1,-0l-0,1l-1,-0Zm2,-0l-0,-1l1,-0l-0,1l-1,-0Zm2,-0l-0,-1l1,-0l-0,1l-1,-0Zm2,-0l-0,-1l1,-0l-0,1l-1,-0Zm2,-0l-0,-1l1,-0l-0,1l-1,-0Zm2,-0l-0,-1l1,-0l-0,1l-1,-0Zm2,-0l-0,-1l1,-0l-0,1l-1,-0Zm2,-0l-0,-1l1,-0l-0,1l-1,-0Zm2,-0l-0,-1l1,-0l-0,1l-1,-0Zm2,-0l-0,-1l1,-0l-0,1l-1,-0Zm2,-0l-0,-1l1,-0l-0,1l-1,-0Zm2,-0l-0,-1l1,-0l-0,1l-1,-0Zm2,-0l-0,-1l1,-0l-0,1l-1,-0Zm2,-0l-0,-1l1,-0l-0,1l-1,-0Zm2,-0l-0,-1l1,0l1,0l0,1l-1,-0l-0,-0.011c-0,0.004 -0,0.007 -0,0.011l-1,-0Zm2,-2l-1,0l0,-1l1,0l-0,1Zm-0,-2l-1,0l0,-1l1,0l-0,1Zm-0,-2l-1,0l0,-1l1,0l-0,1Zm-0,-2l-1,0l0,-1l1,0l-0,1Zm-0,-2l-1,0l0,-1l1,0l-0,1Zm-0,-2l-1,0l0,-1l1,0l-0,1Zm-0,-2l-1,0l0,-1l1,0l-0,1Zm-0,-2l-1,0l0,-1l1,0l-0,1Zm-0,-2l-1,0l0,-1l1,0l-0,1Zm-0,-2l-1,0l0,-1l1,0l-0,1Zm-0,-2l-1,0l0,-1l1,0l-0,1Zm-0,-2l-1,0l0,-1l1,0l-0,1Zm-0,-2l-1,0l0,-1l1,0l-0,1Zm-0,-2l-1,0l0,-1l1,0l-0,1Zm-0,-2l-1,0l0,-1l1,0l-0,1Zm-0,-2l-1,0l0,-1l1,0l-0,1Zm-0,-2l-1,0l0,-1l1,0l-0,1Zm-0,-2l-1,0l0,-1l1,0l-0,1Zm-0,-2l-1,0l0,-1l1,0l-0,1Zm-0,-2l-1,0l0,-1l1,0l-0,1Zm-0,-2l-1,0l-0,-1l-0,-1c-0,0.942 1,1 1,1l-0,1Zm-2,-2l0,1l-1,-0l-0,-1l1,0Zm-2,0l-0,1l-1,-0l0,-1l1,0Zm-2,0l-0,1l-1,-0l-0,-1l1,0Zm-2,0l-0,1l-1,-0l-0,-1l1,0Zm-2,0l-0,1l-1,-0l-0,-1l1,0Zm-2,0l-0,1l-1,-0l-0,-1l1,0Zm-2,0l0,1l-1,-0l0,-1l1,0Zm-2,0l0,1l-1,-0l-0,-1l1,0Zm-2,0l-0,1l-1,-0l0,-1l1,0Zm-2,0l0,1l-1,-0l0,-1l1,0Zm-2,0l0,1l-1,-0l0,-1l1,0Zm-2,0l0,1l-1,-0l0,-1l1,0Zm-2,0l0,1l-1,-0l0,-1l1,0Zm-2,0l0,1l-1,-0l0,-1l1,0Zm-2,0l0,1l-1,-0l0,-1l1,0Zm-2,0l0,1l-1,-0l0,-1l1,0Zm-2,0l0,1l-1,-0l0,-1l1,0Zm-2,0l0,1l-1,-0l0,-1l1,0Zm-2,0l0,1l-1,-0l0,-1l1,0Zm-2,0l0,1l-1,-0l0,-1l1,0Z" fill="#6a6bd3"/><path d="M104,21c0,-0 0.331,-0.637 0.612,-1l0.388,0l0,0.011c0,-0.004 0,-0.008 0,-0.011l1,0l0,1l-1,-0l-1,-0Zm0,1l1,-0l0,1l-1,-0l0,-1Zm0,2l1,-0l0,1l-1,-0l0,-1Zm0,2l1,-0l0,1l-1,-0l0,-1Zm0,2l1,-0l0,1l-1,-0l0,-1Zm0,2l1,-0l0,1l-1,-0l0,-1Zm0,2l1,-0l0,1l-1,-0l0,-1Zm0,2l1,-0l0,1l-1,-0l0,-1Zm0,2l1,-0l0,1l-1,-0l0,-1Zm0,2l1,-0l0,1l-1,-0l0,-1Zm0,2l1,-0l0,1l-1,-0l0,-1Zm0,2l1,-0l0,1l-1,-0l0,-1Zm0,2l1,-0l0,1l-1,-0l0,-1Zm0,2l1,-0l0,1l-1,-0l0,-1Zm0,2l1,-0l-0,1l-1,-0l0,-1Zm0,2l1,-0l0,1l-1,-0l0,-1Zm0,2l1,-0l0,1l-1,-0l0,-1Zm0,2l1,-0l0,1l-1,-0l0,-1Zm0,2l1,-0l0,1l-1,-0l0,-1Zm0,2l1,-0l0,1l-1,-0l0,-1Zm0,2l1,-0l0,1l-1,-0l0,-1Zm0,2l1,-0l-0,1l-0,1l-1,-0l0,-1l0.011,-0c-0.004,-0 -0.007,-0 -0.011,-0l0,-1Zm2,2l-0,-1l1,-0l-0,1l-1,-0Zm2,-0l-0,-1l1,-0l-0,1l-1,-0Zm2,-0l-0,-1l1,-0l-0,1l-1,-0Zm2,-0l-0,-1l1,-0l-0,1l-1,-0Zm2,-0l-0,-1l1,-0l-0,1l-1,-0Zm2,-0l-0,-1l1,-0l-0,1l-1,-0Zm2,-0l-0,-1l1,-0l-0,1l-1,-0Zm2,-0l-0,-1l1,-0l-0,1l-1,-0Zm2,-0l-0,-1l1,-0l-0,1l-1,-0Zm2,-0l-0,-1l1,-0l-0,1l-1,-0Zm2,-0l-0,-1l1,-0l-0,1l-1,-0Zm2,-0l-0,-1l1,-0l-0,1l-1,-0Zm2,-0l-0,-1l1,-0l-0,1l-1,-0Zm2,-0l-0,-1l1,-0l-0,1l-1,-0Zm2,-0l-0,-1l1,-0l-0,1l-1,-0Zm2,-0l-0,-1l1,-0l-0,1l-1,-0Zm2,-0l-0,-1l1,-0l-0,1l-1,-0Zm2,-0l-0,-1l1,-0l-0,1l-1,-0Zm2,-0l-0,-1l1,-0l-0,1l-1,-0Zm2,-0l-0,-1l1,-0l-0,1l-1,-0Zm2,-0l-0,-1l1,0l1,0l0,1l-1,-0l-0,-0.011c-0,0.004 -0,0.007 -0,0.011l-1,-0Zm2,-2l-1,0l0,-1l1,0l-0,1Zm-0,-2l-1,0l0,-1l1,0l-0,1Zm-0,-2l-1,0l0,-1l1,0l-0,1Zm-0,-2l-1,0l0,-1l1,0l-0,1Zm-0,-2l-1,0l0,-1l1,0l-0,1Zm-0,-2l-1,0l-0,-1l1,0l-0,1Zm-0,-2l-1,0l-0,-1l1,0l-0,1Zm-0,-2l-1,0l0,-1l1,0l-0,1Zm-0,-2l-1,0l0,-1l1,0l-0,1Zm-0,-2l-1,0l0,-1l1,0l-0,1Zm-0,-2l-1,0l0,-1l1,0l-0,1Zm-0,-2l-1,0l0,-1l1,0l-0,1Zm-0,-2l-1,0l0,-1l1,0l-0,1Zm-0,-2l-1,0l0,-1l1,0l-0,1Zm-0,-2l-1,0l0,-1l1,0l-0,1Zm-0,-2l-1,0l0,-1l1,0l-0,1Zm-0,-2l-1,0l0,-1l1,0l-0,1Zm-0,-2l-1,0l0,-1l1,0l-0,1Zm-0,-2l-1,0l0,-1l1,0l-0,1Zm-0,-2l-1,0l-0,-1l1,0l-0,1Zm-0,-2l-1,0l-0,-1l-0,-1c-0,0.942 1,1 1,1l-0,1Zm-2,-2l0,1l-1,-0l-0,-1l1,0Zm-2,0l-0,1l-1,-0l0,-1l1,0Zm-2,0l-0,1l-1,-0l-0,-1l1,0Zm-2,0l-0,1l-1,-0l-0,-1l1,0Zm-2,0l-0,1l-1,-0l-0,-1l1,0Zm-2,0l-0,1l-1,-0l-0,-1l1,0Zm-2,0l0,1l-1,-0l0,-1l1,0Zm-2,0l0,1l-1,-0l-0,-1l1,0Zm-2,0l-0,1l-1,-0l0,-1l1,0Zm-2,0l0,1l-1,-0l0,-1l1,0Zm-2,0l0,1l-1,-0l0,-1l1,0Zm-2,0l0,1l-1,-0l0,-1l1,0Zm-2,0l0,1l-1,-0l0,-1l1,0Zm-2,0l0,1l-1,-0l0,-1l1,0Zm-2,0l0,1l-1,-0l0,-1l1,0Zm-2,0l0,1l-1,-0l0,-1l1,0Zm-2,0l0,1l-1,-0l0,-1l1,0Zm-2,0l0,1l-1,-0l0,-1l1,0Zm-2,0l0,1l-1,-0l0,-1l1,0Zm-2,0l0,1l-1,-0l0,-1l1,0Z" fill="#6a6bd3"/><path d="M148,21c0,-0 0.331,-0.637 0.612,-1l0.388,0l0,0.011c0,-0.004 0,-0.008 0,-0.011l1,0l0,1l-1,-0l-1,-0Zm0,1l1,-0l0,1l-1,-0l0,-1Zm0,2l1,-0l0,1l-1,-0l0,-1Zm0,2l1,-0l0,1l-1,-0l0,-1Zm0,2l1,-0l0,1l-1,-0l0,-1Zm0,2l1,-0l0,1l-1,-0l0,-1Zm0,2l1,-0l0,1l-1,-0l0,-1Zm0,2l1,-0l0,1l-1,-0l0,-1Zm0,2l1,-0l0,1l-1,-0l0,-1Zm0,2l1,-0l0,1l-1,-0l0,-1Zm0,2l1,-0l0,1l-1,-0l0,-1Zm0,2l1,-0l0,1l-1,-0l0,-1Zm0,2l1,-0l0,1l-1,-0l0,-1Zm0,2l1,-0l0,1l-1,-0l0,-1Zm0,2l1,-0l0,1l-1,-0l0,-1Zm0,2l1,-0l0,1l-1,-0l0,-1Zm0,2l1,-0l0,1l-1,-0l0,-1Zm0,2l1,-0l-0,1l-1,-0l0,-1Zm0,2l1,-0l-0,1l-1,-0l0,-1Zm0,2l1,-0l0,1l-1,-0l0,-1Zm0,2l1,-0l0,1l-1,-0l0,-1Zm0,2l1,-0l-0,1l-0,1l-1,-0l0,-1l0.011,-0c-0.004,-0 -0.007,-0 -0.011,-0l0,-1Zm2,2l-0,-1l1,-0l-0,1l-1,-0Zm2,-0l-0,-1l1,-0l-0,1l-1,-0Zm2,-0l-0,-1l1,-0l-0,1l-1,-0Zm2,-0l-0,-1l1,-0l-0,1l-1,-0Zm2,-0l-0,-1l1,-0l-0,1l-1,-0Zm2,-0l-0,-1l1,-0l-0,1l-1,-0Zm2,-0l-0,-1l1,-0l-0,1l-1,-0Zm2,-0l-0,-1l1,-0l-0,1l-1,-0Zm2,-0l-0,-1l1,-0l-0,1l-1,-0Zm2,-0l-0,-1l1,-0l-0,1l-1,-0Zm2,-0l-0,-1l1,-0l-0,1l-1,-0Zm2,-0l-0,-1l1,-0l-0,1l-1,-0Zm2,-0l-0,-1l1,-0l-0,1l-1,-0Zm2,-0l-0,-1l1,-0l-0,1l-1,-0Zm2,-0l-0,-1l1,-0l-0,1l-1,-0Zm2,-0l-0,-1l1,-0l-0,1l-1,-0Zm2,-0l-0,-1l1,-0l-0,1l-1,-0Zm2,-0l-0,-1l1,-0l-0,1l-1,-0Zm2,-0l-0,-1l1,-0l-0,1l-1,-0Zm2,-0l-0,-1l1,-0l-0,1l-1,-0Zm2,-0l-0,-1l1,0l1,0l-0,1l-1,-0l-0,-0.011c-0,0.004 -0,0.007 -0,0.011l-1,-0Zm2,-2l-1,0l0,-1l1,0l-0,1Zm-0,-2l-1,0l-0,-1l1,0l-0,1Zm-0,-2l-1,0l-0,-1l1,0l-0,1Zm-0,-2l-1,0l-0,-1l1,0l-0,1Zm-0,-2l-1,0l-0,-1l1,0l-0,1Zm-0,-2l-1,0l-0,-1l1,0l-0,1Zm-0,-2l-1,0l-0,-1l1,0l-0,1Zm-0,-2l-1,0l0,-1l1,0l-0,1Zm-0,-2l-1,0l0,-1l1,0l-0,1Zm-0,-2l-1,0l0,-1l1,0l-0,1Zm-0,-2l-1,0l0,-1l1,0l-0,1Zm-0,-2l-1,0l0,-1l1,0l-0,1Zm-0,-2l-1,0l0,-1l1,0l-0,1Zm-0,-2l-1,0l0,-1l1,0l-0,1Zm-0,-2l-1,0l-0,-1l1,0l-0,1Zm-0,-2l-1,0l-0,-1l1,0l-0,1Zm-0,-2l-1,0l-0,-1l1,0l-0,1Zm-0,-2l-1,0l0,-1l1,0l-0,1Zm-0,-2l-1,0l-0,-1l1,0l-0,1Zm-0,-2l-1,0l0,-1l1,0l-0,1Zm-0,-2l-1,0l-0,-1l-0,-1c-0,0.942 1,1 1,1l-0,1Zm-2,-2l0,1l-1,-0l-0,-1l1,0Zm-2,0l-0,1l-1,-0l0,-1l1,0Zm-2,0l-0,1l-1,-0l-0,-1l1,0Zm-2,0l-0,1l-1,-0l-0,-1l1,0Zm-2,0l-0,1l-1,-0l-0,-1l1,0Zm-2,0l-0,1l-1,-0l-0,-1l1,0Zm-2,0l0,1l-1,-0l0,-1l1,0Zm-2,0l0,1l-1,-0l-0,-1l1,0Zm-2,0l-0,1l-1,-0l0,-1l1,0Zm-2,0l0,1l-1,-0l0,-1l1,0Zm-2,0l0,1l-1,-0l0,-1l1,0Zm-2,0l0,1l-1,-0l0,-1l1,0Zm-2,0l0,1l-1,-0l0,-1l1,0Zm-2,0l0,1l-1,-0l0,-1l1,0Zm-2,0l0,1l-1,-0l0,-1l1,0Zm-2,0l0,1l-1,-0l0,-1l1,0Zm-2,0l0,1l-1,-0l0,-1l1,0Zm-2,0l0,1l-1,-0l0,-1l1,0Zm-2,0l0,1l-1,-0l0,-1l1,0Zm-2,0l0,1l-1,-0l0,-1l1,0Z" fill="#6a6bd3"/><path d="M192,21c0,-0 0.331,-0.637 0.612,-1l0.388,0l0,0.011c0,-0.004 0,-0.008 0,-0.011l1,0l0,1l-1,-0l-1,-0Zm0,1l1,-0l0,1l-1,-0l0,-1Zm0,2l1,-0l0,1l-1,-0l0,-1Zm0,2l1,-0l0,1l-1,-0l0,-1Zm0,2l1,-0l0,1l-1,-0l0,-1Zm0,2l1,-0l0,1l-1,-0l0,-1Zm0,2l1,-0l0,1l-1,-0l0,-1Zm0,2l1,-0l0,1l-1,-0l0,-1Zm0,2l1,-0l0,1l-1,-0l0,-1Zm0,2l1,-0l0,1l-1,-0l0,-1Zm0,2l1,-0l0,1l-1,-0l0,-1Zm0,2l1,-0l0,1l-1,-0l0,-1Zm0,2l1,-0l0,1l-1,-0l0,-1Zm0,2l1,-0l0,1l-1,-0l0,-1Zm0,2l1,-0l0,1l-1,-0l0,-1Zm0,2l1,-0l0,1l-1,-0l0,-1Zm0,2l1,-0l0,1l-1,-0l0,-1Zm0,2l1,-0l0,1l-1,-0l0,-1Zm0,2l1,-0l0,1l-1,-0l0,-1Zm0,2l1,-0l0,1l-1,-0l0,-1Zm0,2l1,-0l0,1l-1,-0l0,-1Zm0,2l1,-0l-0,1l-0,1l-1,-0l0,-1l0.011,-0c-0.004,-0 -0.007,-0 -0.011,-0l0,-1Zm2,2l-0,-1l1,-0l-0,1l-1,-0Zm2,-0l-0,-1l1,-0l-0,1l-1,-0Zm2,-0l-0,-1l1,-0l-0,1l-1,-0Zm2,-0l-0,-1l1,-0l-0,1l-1,-0Zm2,-0l-0,-1l1,-0l-0,1l-1,-0Zm2,-0l-0,-1l1,-0l-0,1l-1,-0Zm2,-0l-0,-1l1,-0l-0,1l-1,-0Zm2,-0l-0,-1l1,-0l-0,1l-1,-0Zm2,-0l-0,-1l1,-0l-0,1l-1,-0Zm2,-0l-0,-1l1,-0l-0,1l-1,-0Zm2,-0l-0,-1l1,-0l-0,1l-1,-0Zm2,-0l-0,-1l1,-0l-0,1l-1,-0Zm2,-0l-0,-1l1,-0l-0,1l-1,-0Zm2,-0l-0,-1l1,-0l-0,1l-1,-0Zm2,-0l-0,-1l1,-0l-0,1l-1,-0Zm2,-0l-0,-1l1,-0l-0,1l-1,-0Zm2,-0l-0,-1l1,-0l-0,1l-1,-0Zm2,-0l-0,-1l1,-0l-0,1l-1,-0Zm2,-0l-0,-1l1,-0l-0,1l-1,-0Zm2,-0l-0,-1l1,-0l-0,1l-1,-0Zm2,-0l-0,-1l1,0l1,0l0,1l-0.99,-0l-0.01,-0.011l-0,0.011l-1,-0Zm2,-2l-1,0l0,-1l1,0l-0,1Zm-0,-2l-1,0l0,-1l1,0l-0,1Zm-0,-2l-1,0l0,-1l1,0l-0,1Zm-0,-2l-1,0l0,-1l1,0l-0,1Zm-0,-2l-1,0l0,-1l1,0l-0,1Zm-0,-2l-1,0l0,-1l1,0l-0,1Zm-0,-2l-1,0l0,-1l1,0l-0,1Zm-0,-2l-1,0l0,-1l1,0l-0,1Zm-0,-2l-1,0l0,-1l1,0l-0,1Zm-0,-2l-1,0l0,-1l1,0l-0,1Zm-0,-2l-1,0l0,-1l1,0l-0,1Zm-0,-2l-1,0l0,-1l1,0l-0,1Zm-0,-2l-1,0l0,-1l1,0l-0,1Zm-0,-2l-1,0l0,-1l1,0l-0,1Zm-0,-2l-1,0l0,-1l1,0l-0,1Zm-0,-2l-1,0l0,-1l1,0l-0,1Zm-0,-2l-1,0l0,-1l1,0l-0,1Zm-0,-2l-1,0l0,-1l1,0l-0,1Zm-0,-2l-1,0l0,-1l1,0l-0,1Zm0,-2l-1,0l0,-1l1,0l0,1Zm0,-2l-1,0l0,-1l0,-1c0,0.942 1,1 1,1l0,1Zm-2,-2l0,1l-1,-0l0,-1l1,0Zm-2,0l0,1l-1,-0l0,-1l1,0Zm-2,0l-0,1l-1,-0l-0,-1l1,0Zm-2,0l-0,1l-1,-0l-0,-1l1,0Zm-2,0l-0,1l-1,-0l-0,-1l1,0Zm-2,0l-0,1l-1,-0l-0,-1l1,0Zm-2,0l0,1l-1,-0l0,-1l1,0Zm-2,0l0,1l-1,-0l-0,-1l1,0Zm-2,0l0,1l-1,-0l0,-1l1,0Zm-2,0l0,1l-1,-0l0,-1l1,0Zm-2,0l0,1l-1,-0l0,-1l1,0Zm-2,0l0,1l-1,-0l0,-1l1,0Zm-2,0l0,1l-1,-0l0,-1l1,0Zm-2,0l0,1l-1,-0l0,-1l1,0Zm-2,0l0,1l-1,-0l0,-1l1,0Zm-2,0l0,1l-1,-0l0,-1l1,0Zm-2,0l0,1l-1,-0l0,-1l1,0Zm-2,0l0,1l-1,-0l0,-1l1,0Zm-2,0l0,1l-1,-0l0,-1l1,0Zm-2,0l0,1l-1,-0l0,-1l1,0Z" fill="#6a6bd3"/><path d="M236,21c0,-0 0.331,-0.637 0.612,-1l0.388,0l0,0.011c0,-0.004 0,-0.008 0,-0.011l1,0l0,1l-1,-0l-1,-0Zm0,1l1,-0l0,1l-1,-0l0,-1Zm0,2l1,-0l0,1l-1,-0l0,-1Zm0,2l1,-0l0,1l-1,-0l0,-1Zm0,2l1,-0l0,1l-1,-0l0,-1Zm0,2l1,-0l0,1l-1,-0l0,-1Zm0,2l1,-0l0,1l-1,-0l0,-1Zm0,2l1,-0l0,1l-1,-0l0,-1Zm0,2l1,-0l0,1l-1,-0l0,-1Zm0,2l1,-0l0,1l-1,-0l0,-1Zm0,2l1,-0l0,1l-1,-0l0,-1Zm0,2l1,-0l0,1l-1,-0l0,-1Zm0,2l1,-0l0,1l-1,-0l0,-1Zm0,2l1,-0l0,1l-1,-0l0,-1Zm0,2l1,-0l0,1l-1,-0l0,-1Zm0,2l1,-0l0,1l-1,-0l0,-1Zm0,2l1,-0l0,1l-1,-0l0,-1Zm0,2l1,-0l0,1l-1,-0l0,-1Zm0,2l1,-0l0,1l-1,-0l0,-1Zm0,2l1,-0l0,1l-1,-0l0,-1Zm0,2l1,-0l0,1l-1,-0l0,-1Zm0,2l1,-0l-0,1l-0,1l-1,-0l0,-1l0.011,-0c-0.004,-0 -0.007,-0 -0.011,-0l0,-1Zm2,2l-0,-1l1,-0l-0,1l-1,-0Zm2,-0l-0,-1l1,-0l-0,1l-1,-0Zm2,-0l-0,-1l1,-0l-0,1l-1,-0Zm2,-0l-0,-1l1,-0l-0,1l-1,-0Zm2,-0l-0,-1l1,-0l-0,1l-1,-0Zm2,-0l-0,-1l1,-0l-0,1l-1,-0Zm2,-0l-0,-1l1,-0l-0,1l-1,-0Zm2,-0l-0,-1l1,-0l-0,1l-1,-0Zm2,-0l-0,-1l1,-0l-0,1l-1,-0Zm2,-0l-0,-1l1,-0l-0,1l-1,-0Zm2,-0l-0,-1l1,-0l-0,1l-1,-0Zm2,-0l-0,-1l1,-0l-0,1l-1,-0Zm2,-0l-0,-1l1,-0l-0,1l-1,-0Zm2,-0l-0,-1l1,-0l-0,1l-1,-0Zm2,-0l-0,-1l1,-0l-0,1l-1,-0Zm2,-0l-0,-1l1,-0l-0,1l-1,-0Zm2,-0l-0,-1l1,-0l-0,1l-1,-0Zm2,-0l-0,-1l1,-0l-0,1l-1,-0Zm2,-0l-0,-1l1,-0l-0,1l-1,-0Zm2,-0l-0,-1l1,-0l-0,1l-1,-0Zm2,-0l-0,-1l1,0l1,0l0,1l-1,-0l-0,-0.011c-0,0.004 -0,0.007 -0,0.011l-1,-0Zm2,-2l-1,0l0,-1l1,0l-0,1Zm-0,-2l-1,0l0,-1l1,0l-0,1Zm-0,-2l-1,0l0,-1l1,0l-0,1Zm-0,-2l-1,0l0,-1l1,0l-0,1Zm-0,-2l-1,0l0,-1l1,0l-0,1Zm-0,-2l-1,0l0,-1l1,0l-0,1Zm-0,-2l-1,0l0,-1l1,0l-0,1Zm-0,-2l-1,0l0,-1l1,0l-0,1Zm-0,-2l-1,0l0,-1l1,0l-0,1Zm-0,-2l-1,0l0,-1l1,0l-0,1Zm-0,-2l-1,0l0,-1l1,0l-0,1Zm-0,-2l-1,0l0,-1l1,0l-0,1Zm-0,-2l-1,0l0,-1l1,0l-0,1Zm-0,-2l-1,0l0,-1l1,0l-0,1Zm-0,-2l-1,0l0,-1l1,0l-0,1Zm-0,-2l-1,0l0,-1l1,0l-0,1Zm-0,-2l-1,0l0,-1l1,0l-0,1Zm-0,-2l-1,0l0,-1l1,0l-0,1Zm-0,-2l-1,0l0,-1l1,0l-0,1Zm0,-2l-1,0l0,-1l1,0l0,1Zm0,-2l-1,0l0,-1l0,-1c0,0.942 1,1 1,1l0,1Zm-2,-2l0,1l-1,-0l0,-1l1,0Zm-2,0l0,1l-1,-0l0,-1l1,0Zm-2,0l-0,1l-1,-0l-0,-1l1,0Zm-2,0l-0,1l-1,-0l-0,-1l1,0Zm-2,0l-0,1l-1,-0l-0,-1l1,0Zm-2,0l-0,1l-1,-0l-0,-1l1,0Zm-2,0l0,1l-1,-0l0,-1l1,0Zm-2,0l0,1l-1,-0l-0,-1l1,0Zm-2,0l0,1l-1,-0l0,-1l1,0Zm-2,0l0,1l-1,-0l0,-1l1,0Zm-2,0l0,1l-1,-0l0,-1l1,0Zm-2,0l0,1l-1,-0l0,-1l1,0Zm-2,0l0,1l-1,-0l0,-1l1,0Zm-2,0l0,1l-1,-0l0,-1l1,0Zm-2,0l0,1l-1,-0l0,-1l1,0Zm-2,0l0,1l-1,-0l0,-1l1,0Zm-2,0l0,1l-1,-0l0,-1l1,0Zm-2,0l0,1l-1,-0l0,-1l1,0Zm-2,0l0,1l-1,-0l0,-1l1,0Zm-2,0l0,1l-1,-0l0,-1l1,0Z" fill="#6a6bd3"/><path d="M280,21c0,-0 0.331,-0.637 0.612,-1l0.388,0l0,0.011c0,-0.004 0,-0.008 0,-0.011l1,0l0,1l-1,-0l-1,-0Zm0,1l1,-0l0,1l-1,-0l0,-1Zm0,2l1,-0l0,1l-1,-0l0,-1Zm0,2l1,-0l0,1l-1,-0l0,-1Zm0,2l1,-0l0,1l-1,-0l0,-1Zm0,2l1,-0l0,1l-1,-0l0,-1Zm0,2l1,-0l0,1l-1,-0l0,-1Zm0,2l1,-0l0,1l-1,-0l0,-1Zm0,2l1,-0l0,1l-1,-0l0,-1Zm0,2l1,-0l0,1l-1,-0l0,-1Zm0,2l1,-0l0,1l-1,-0l0,-1Zm0,2l1,-0l0,1l-1,-0l0,-1Zm0,2l1,-0l0,1l-1,-0l0,-1Zm0,2l1,-0l0,1l-1,-0l0,-1Zm0,2l1,-0l0,1l-1,-0l0,-1Zm0,2l1,-0l0,1l-1,-0l0,-1Zm0,2l1,-0l0,1l-1,-0l0,-1Zm0,2l1,-0l0,1l-1,-0l0,-1Zm0,2l1,-0l0,1l-1,-0l0,-1Zm0,2l1,-0l0,1l-1,-0l0,-1Zm0,2l1,-0l0,1l-1,-0l0,-1Zm0,2l1,-0l-0,1l-0,1l-1,-0l0,-1l0.011,-0c-0.004,-0 -0.007,-0 -0.011,-0l0,-1Zm2,2l-0,-1l1,-0l-0,1l-1,-0Zm2,-0l-0,-1l1,-0l-0,1l-1,-0Zm2,-0l-0,-1l1,-0l-0,1l-1,-0Zm2,-0l-0,-1l1,-0l-0,1l-1,-0Zm2,-0l-0,-1l1,-0l-0,1l-1,-0Zm2,-0l-0,-1l1,-0l-0,1l-1,-0Zm2,-0l-0,-1l1,-0l-0,1l-1,-0Zm2,-0l-0,-1l1,-0l-0,1l-1,-0Zm2,-0l-0,-1l1,-0l-0,1l-1,-0Zm2,-0l-0,-1l1,-0l-0,1l-1,-0Zm2,-0l-0,-1l1,-0l-0,1l-1,-0Zm2,-0l-0,-1l1,-0l-0,1l-1,-0Zm2,-0l-0,-1l1,-0l-0,1l-1,-0Zm2,-0l-0,-1l1,-0l-0,1l-1,-0Zm2,-0l-0,-1l1,-0l-0,1l-1,-0Zm2,-0l-0,-1l1,-0l-0,1l-1,-0Zm2,-0l-0,-1l1,-0l-0,1l-1,-0Zm2,-0l-0,-1l1,-0l-0,1l-1,-0Zm2,-0l-0,-1l1,-0l-0,1l-1,-0Zm2,-0l-0,-1l1,-0l-0,1l-1,-0Zm2,-0l-0,-1l1,0l1,0l0,1l-1,-0l-0,-0.011c-0,0.004 -0,0.007 -0,0.011l-1,-0Zm2,-2l-1,0l0,-1l1,0l-0,1Zm-0,-2l-1,0l0,-1l1,0l-0,1Zm-0,-2l-1,0l0,-1l1,0l-0,1Zm-0,-2l-1,0l0,-1l1,0l-0,1Zm-0,-2l-1,0l0,-1l1,0l-0,1Zm-0,-2l-1,0l0,-1l1,0l-0,1Zm-0,-2l-1,0l0,-1l1,0l-0,1Zm-0,-2l-1,0l0,-1l1,0l-0,1Zm-0,-2l-1,0l0,-1l1,0l-0,1Zm-0,-2l-1,0l0,-1l1,0l-0,1Zm-0,-2l-1,0l0,-1l1,0l-0,1Zm-0,-2l-1,0l0,-1l1,0l-0,1Zm-0,-2l-1,0l0,-1l1,0l-0,1Zm-0,-2l-1,0l0,-1l1,0l-0,1Zm-0,-2l-1,0l0,-1l1,0l-0,1Zm-0,-2l-1,0l0,-1l1,0l-0,1Zm-0,-2l-1,0l0,-1l1,0l-0,1Zm-0,-2l-1,0l0,-1l1,0l-0,1Zm-0,-2l-1,0l0,-1l1,0l-0,1Zm0,-2l-1,0l0,-1l1,0l0,1Zm0,-2l-1,0l0,-1l0,-1c0,0.942 1,1 1,1l0,1Zm-2,-2l0,1l-1,-0l0,-1l1,0Zm-2,0l0,1l-1,-0l0,-1l1,0Zm-2,0l-0,1l-1,-0l-0,-1l1,0Zm-2,0l-0,1l-1,-0l-0,-1l1,0Zm-2,0l-0,1l-1,-0l-0,-1l1,0Zm-2,0l-0,1l-1,-0l-0,-1l1,0Zm-2,0l0,1l-1,-0l0,-1l1,0Zm-2,0l0,1l-1,-0l-0,-1l1,0Zm-2,0l0,1l-1,-0l0,-1l1,0Zm-2,0l0,1l-1,-0l0,-1l1,0Zm-2,0l0,1l-1,-0l0,-1l1,0Zm-2,0l0,1l-1,-0l0,-1l1,0Zm-2,0l0,1l-1,-0l0,-1l1,0Zm-2,0l0,1l-1,-0l0,-1l1,0Zm-2,0l0,1l-1,-0l0,-1l1,0Zm-2,0l0,1l-1,-0l0,-1l1,0Zm-2,0l0,1l-1,-0l0,-1l1,0Zm-2,0l0,1l-1,-0l0,-1l1,0Zm-2,0l0,1l-1,-0l0,-1l1,0Zm-2,0l0,1l-1,-0l0,-1l1,0Z" fill="#6a6bd3"/><path d="M306.5,39c0,2.469 -2.031,4.5 -4.5,4.5c-2.469,-0 -4.5,-2.031 -4.5,-4.5c0,-2.469 2.031,-4.5 4.5,-4.5c2.469,-0 4.5,2.031 4.5,4.5Z" fill-rule="nonzero"/><path d="M290,42c0,-6.583 5.417,-12 12,-12c6.583,-0 12,5.417 12,12c0,6.583 -5.417,12 -12,12c-6.583,-0 -12,-5.417 -12,-12Zm12,-10.5c-5.76,0 -10.499,4.74 -10.499,10.5c-0,2.382 0.81,4.694 2.297,6.555c1.065,-1.716 3.409,-3.555 8.202,-3.555c4.793,-0 7.135,1.837 8.202,3.555c1.487,-1.861 2.297,-4.173 2.297,-6.555c0,-5.76 -4.739,-10.5 -10.499,-10.5Z"/><path d="M260.747,29.5c0.237,-0 0.465,0.094 0.633,0.261l8.86,8.859c0.347,0.348 0.347,0.919 -0,1.266c-0.859,0.859 -1.919,1.052 -2.69,1.052c-0.317,0 -0.6,-0.032 -0.824,-0.07l-5.609,5.609c0.148,0.595 0.244,1.202 0.287,1.813c0.082,1.257 -0.058,3.02 -1.289,4.251c-0.347,0.347 -0.918,0.347 -1.266,-0l-5.063,-5.061l-5.695,5.694c-0.349,0.349 -2.182,1.615 -2.531,1.266c-0.349,-0.349 0.917,-2.184 1.266,-2.531l5.695,-5.695l-5.062,-5.063c-0.347,-0.347 -0.347,-0.918 0,-1.265c1.232,-1.232 2.995,-1.373 4.251,-1.289c0.612,0.043 1.218,0.139 1.813,0.286l5.609,-5.607c-0.047,-0.272 -0.07,-0.548 -0.071,-0.825c-0,-0.769 0.193,-1.829 1.054,-2.69c0.168,-0.167 0.395,-0.261 0.632,-0.261Z" fill-rule="nonzero"/><path d="M202.075,34.444c0.31,-1.425 1.53,-2.444 2.925,-2.444l18,-0c1.395,-0 2.615,1.019 2.925,2.444l-11.925,7.635l-11.925,-7.635Zm-0.075,1.794l-0,11.164l8.704,-5.592l-8.704,-5.572Zm10.141,6.495l-9.855,6.326c0.496,1.097 1.556,1.799 2.714,1.798l9.384,0c-0.255,-0.757 -0.385,-1.554 -0.384,-2.357c-0.002,-2.088 0.881,-4.074 2.409,-5.415l-0.551,-0.354l-1.858,1.19l-1.859,-1.19l0,0.002Zm13.859,-6.495l-0,7.816c-1.28,-1.661 -3.212,-2.628 -5.25,-2.625c-1.021,-0.002 -2.029,0.24 -2.948,0.707l-0.507,-0.326l8.705,-5.572Z" fill-rule="nonzero"/><path d="M226,48.5c0,3.017 -2.37,5.5 -5.25,5.5c-2.88,-0 -5.25,-2.483 -5.25,-5.5c0,-3.017 2.37,-5.5 5.25,-5.5c2.88,-0 5.25,2.483 5.25,5.5Zm-5.25,-3.143c-0.411,0 -0.75,0.355 -0.75,0.786l0,1.571l-1.5,0c-0.411,0 -0.75,0.355 -0.75,0.786c0,0.431 0.339,0.786 0.75,0.786l1.5,-0l0,1.571c0,0.431 0.339,0.786 0.75,0.786c0.411,-0 0.75,-0.355 0.75,-0.786l0,-1.571l1.5,-0c0.411,-0 0.75,-0.355 0.75,-0.786c0,-0.431 -0.339,-0.786 -0.75,-0.786l-1.5,0l0,-1.571c0,-0.431 -0.339,-0.786 -0.75,-0.786Z" fill-rule="nonzero"/><path d="M171.131,30.506c-0.62,-0.675 -1.642,-0.675 -2.262,0l-10.634,11.566c-0.151,0.163 -0.235,0.385 -0.235,0.616c-0,0.478 0.362,0.871 0.801,0.871c0.212,0 0.416,-0.091 0.566,-0.255l10.633,-11.567l10.633,11.567c0.15,0.164 0.354,0.255 0.566,0.255c0.439,0 0.801,-0.393 0.801,-0.871c-0,-0.231 -0.084,-0.453 -0.235,-0.616l-3.766,-4.095l0,-5.731c0,-0.477 -0.361,-0.87 -0.8,-0.87l-1.599,0c-0.439,0 -0.8,0.393 -0.8,0.87l-0,2.251l-3.669,-3.991Z" fill-rule="nonzero"/><path d="M170,33.626l9.599,10.442l0,7.322c0,1.432 -1.083,2.61 -2.4,2.61l-14.398,-0c-1.317,-0 -2.4,-1.178 -2.4,-2.61l-0,-7.322l9.599,-10.442Z" fill-rule="nonzero"/><path d="M126,30c6.583,-0 12,5.417 12,12c0,6.583 -5.417,12 -12,12c-6.583,-0 -12,-5.417 -12,-12c0,-6.583 5.417,-12 12,-12Zm-5.25,11.25c-0.411,-0 -0.75,0.339 -0.75,0.75c0,0.411 0.339,0.75 0.75,0.75l8.69,-0l-3.221,3.219c-0.141,0.141 -0.22,0.332 -0.22,0.531c0,0.412 0.339,0.751 0.751,0.751c0.199,-0 0.39,-0.079 0.531,-0.22l4.5,-4.5c0.141,-0.141 0.22,-0.332 0.22,-0.531c0,-0.199 -0.079,-0.39 -0.22,-0.531l-4.5,-4.5c-0.141,-0.141 -0.332,-0.22 -0.531,-0.22c-0.412,0 -0.751,0.339 -0.751,0.751c0,0.199 0.079,0.39 0.22,0.531l3.221,3.219l-8.69,-0Z" fill-rule="nonzero"/><path d="M82,30c-6.583,-0 -12,5.417 -12,12c0,6.583 5.417,12 12,12c6.583,-0 12,-5.417 12,-12c0,-6.583 -5.417,-12 -12,-12Zm5.25,11.25c0.411,-0 0.75,0.339 0.75,0.75c0,0.411 -0.339,0.75 -0.75,0.75l-8.689,-0l3.22,3.219c0.141,0.141 0.22,0.332 0.22,0.531c-0,0.412 -0.339,0.751 -0.751,0.751c-0.199,-0 -0.39,-0.079 -0.531,-0.22l-4.5,-4.5c-0.141,-0.141 -0.22,-0.332 -0.22,-0.531c-0,-0.199 0.079,-0.39 0.22,-0.531l4.5,-4.5c0.141,-0.141 0.332,-0.22 0.531,-0.22c0.412,0 0.751,0.339 0.751,0.751c-0,0.199 -0.079,0.39 -0.22,0.531l-3.221,3.219l8.69,-0Z" fill-rule="nonzero"/><path d="M54.5,20.5l-8,-0" fill="none" stroke="#000" stroke-width="1px"/><path d="M54.5,63.5l-8,-0" fill="none" stroke="#000" stroke-width="1px"/><path d="M50.5,20.5l0,43" fill="none" stroke="#000" stroke-width="1px" stroke-miterlimit="1"/><path d="M60.5,69.5l0,8" fill="none" stroke="#000" stroke-width="1px"/><path d="M103.5,69.5l0,8" fill="none" stroke="#000" stroke-width="1px"/><path d="M60.5,73.5l43,0" fill="none" stroke="#000" stroke-width="1px" stroke-miterlimit="1"/><path d="M20.351,36.269l-0.814,0l-3.876,5.532l-0,0.983l3.732,-0l-0,1.992l0.958,-0l0,-1.992l1.152,-0l0,-0.899l-1.152,0l0,-5.616Zm-3.814,5.616l2.832,-4.164l0.024,0l-0,4.164l-2.856,0Z" fill-rule="nonzero"/><path d="M27.023,36.269l-0.814,0l-3.876,5.532l-0,0.983l3.732,-0l-0,1.992l0.958,-0l0,-1.992l1.152,-0l0,-0.899l-1.152,0l0,-5.616Zm-3.814,5.616l2.832,-4.164l0.024,0l-0,4.164l-2.856,0Z" fill-rule="nonzero"/><path d="M34.273,41.62c-0,1.213 -0.468,2.401 -1.861,2.401c-1.405,0 -1.957,-1.128 -1.957,-2.353c0,-1.164 0.528,-2.34 1.897,-2.34c1.321,-0 1.921,1.128 1.921,2.292Zm-4.8,5.532l1.018,-0l0,-3.203l0.024,0c0.456,0.731 1.369,0.971 2.005,0.971c1.897,-0 2.831,-1.475 2.831,-3.228c0,-1.752 -0.946,-3.263 -2.855,-3.263c-0.852,0 -1.645,0.3 -1.981,0.983l-0.024,-0l0,-0.839l-1.018,0l-0,8.579Z" fill-rule="nonzero"/><path d="M35.893,44.776l1.235,-0l1.728,-2.578l1.728,2.578l1.307,-0l-2.399,-3.36l2.135,-2.843l-1.223,0l-1.548,2.162l-1.488,-2.162l-1.307,0l2.159,2.939l-2.327,3.264Z" fill-rule="nonzero"/><path d="M73.689,80.061l-0.814,-0l-3.876,5.532l-0,0.982l3.732,0l-0,1.992l0.958,0l0,-1.992l1.152,0l0,-0.898l-1.152,-0l0,-5.616Zm-3.814,5.616l2.832,-4.164l0.024,-0l-0,4.164l-2.856,-0Z" fill-rule="nonzero"/><path d="M80.361,80.061l-0.814,-0l-3.876,5.532l-0,0.982l3.732,0l-0,1.992l0.958,0l0,-1.992l1.152,0l0,-0.898l-1.152,-0l0,-5.616Zm-3.814,5.616l2.832,-4.164l0.024,-0l-0,4.164l-2.856,-0Z" fill-rule="nonzero"/><path d="M87.611,85.412c-0,1.212 -0.468,2.401 -1.861,2.401c-1.405,-0 -1.957,-1.129 -1.957,-2.353c0,-1.164 0.528,-2.341 1.897,-2.341c1.321,0 1.921,1.129 1.921,2.293Zm-4.8,5.531l1.018,0l0,-3.202l0.024,-0c0.456,0.731 1.369,0.97 2.005,0.97c1.897,0 2.831,-1.474 2.831,-3.227c0,-1.753 -0.946,-3.263 -2.855,-3.263c-0.852,-0 -1.645,0.299 -1.981,0.982l-0.024,0l0,-0.838l-1.018,-0l-0,8.578Z" fill-rule="nonzero"/><path d="M89.231,88.567l1.235,0l1.728,-2.577l1.728,2.577l1.307,0l-2.399,-3.36l2.135,-2.842l-1.223,-0l-1.548,2.161l-1.488,-2.161l-1.307,-0l2.159,2.938l-2.327,3.264Z" fill-rule="nonzero"/><path d="M340.141,48.649l4.398,0l-0,-4.32l2.601,0c3.28,0 5.599,-1.618 5.599,-5.079c-0,-2.04 -1.359,-4.878 -5.238,-4.878l-7.36,-0l0,14.277Zm4.398,-10.62l1.961,0c1.081,0 2.081,0.08 2.081,1.382c0,1.441 -1.2,1.521 -2.341,1.521l-1.701,-0l-0,-2.903Z" fill="#1b7024" fill-rule="nonzero"/><path d="M357.46,43.552l1.38,-4.4l0.04,-0l1.28,4.4l-2.7,-0Zm-6.019,5.097l4.42,0l0.639,-2.04l4.54,0l0.6,2.04l4.559,0l-5.199,-14.277l-4.3,-0l-5.259,14.277Z" fill="#1b7024" fill-rule="nonzero"/><path d="M366.281,43.851c0.04,4.559 4.658,5.138 6.279,5.138c3.181,0 6.599,-1.199 6.599,-4.918c-0,-2.621 -1.999,-3.561 -4.018,-4.121c-2.021,-0.56 -4.062,-0.78 -4.142,-1.8c-0,-0.801 0.98,-0.961 1.581,-0.961c0.44,0 0.941,0.1 1.301,0.36c0.36,0.241 0.6,0.601 0.52,1.14l4.158,0c-0.12,-3.478 -2.859,-4.657 -5.959,-4.657c-2.94,-0 -5.759,1.419 -5.759,4.717c0,2.881 2.579,3.502 4.838,4.142c2.462,0.7 3.082,0.9 3.082,1.64c0,1.061 -1.1,1.301 -1.821,1.301c-0.82,-0 -1.781,-0.18 -2.101,-1.041c-0.1,-0.26 -0.16,-0.58 -0.16,-0.94l-4.398,0Z" fill="#1b7024" fill-rule="nonzero"/><path d="M379.621,43.851c0.04,4.559 4.658,5.138 6.279,5.138c3.181,0 6.599,-1.199 6.599,-4.918c-0,-2.621 -1.999,-3.561 -4.018,-4.121c-2.021,-0.56 -4.062,-0.78 -4.142,-1.8c-0,-0.801 0.98,-0.961 1.581,-0.961c0.44,0 0.941,0.1 1.301,0.36c0.36,0.241 0.6,0.601 0.52,1.14l4.158,0c-0.12,-3.478 -2.859,-4.657 -5.959,-4.657c-2.94,-0 -5.759,1.419 -5.759,4.717c0,2.881 2.579,3.502 4.838,4.142c2.462,0.7 3.082,0.9 3.082,1.64c0,1.061 -1.1,1.301 -1.821,1.301c-0.82,-0 -1.781,-0.18 -2.101,-1.041c-0.1,-0.26 -0.16,-0.58 -0.16,-0.94l-4.398,0Z" fill="#1b7024" fill-rule="nonzero"/><path d="M60,121c0,-0 0.331,-0.637 0.613,-1l0.387,-0l0,0.011c0,-0.004 -0,-0.007 -0,-0.011l1,-0l0,1l-2,-0Zm0,1l1,-0l-0,1l-1,-0l0,-1Zm0,2l1,-0l-0,1l-1,0l0,-1Zm0,2l1,0l-0,1l-1,0l0,-1Zm0,2l1,0l0,1l-1,0l0,-1Zm0,2l1,-0l0,1l-1,-0l0,-1Zm0,2l1,-0l0,1l-1,0l0,-1Zm0,2l1,0l0,1l-1,-0l0,-1Zm0,2l1,-0l0,1l-1,0l0,-1Zm0,2l1,-0l0,1l-1,-0l0,-1Zm0,2l1,-0l-0,1l-1,-0l0,-1Zm0,2l1,-0l-0,2l-1,-0l0,-1l0.011,-0c-0.004,-0 -0.007,0 -0.011,0l0,-1Zm2,2l-0,-1l1,-0l-0,1l-1,-0Zm2,-0l0,-1l1,-0l0,1l-1,-0Zm2,-0l0,-1l1,-0l0,1l-1,-0Zm2,-0l0,-1l1,-0l0,1l-1,-0Zm2,-0l-0,-1l1,-0l-0,1l-1,-0Zm2,-0l-0,-1l1,-0l0,1l-1,-0Zm2,-0l0,-1l1,-0l-0,1l-1,-0Zm2,-0l0,-1l1,-0l0,1l-1,-0Zm2,-0l-0,-1l1,-0l0,1l-1,-0Zm2,-0l-0,-1l1,-0l-0,1l-1,-0Zm2,-0l-0,-1l2,-0l0,1l-1,-0l-0,-0.011c-0,0.004 0,0.007 0,0.011l-1,-0Zm2,-2l-1,-0l0,-1l1,0l0,1Zm0,-2l-1,-0l0,-1l1,-0l0,1Zm0,-2l-1,-0l0,-1l1,-0l0,1Zm0,-2l-1,-0l0,-1l1,-0l0,1Zm0,-2l-1,0l0,-1l1,0l0,1Zm0,-2l-1,0l-0,-1l1,-0l0,1Zm0,-2l-1,-0l-0,-1l1,0l0,1Zm0,-2l-1,-0l0,-1l1,-0l0,1Zm0,-2l-1,-0l-0,-1l1,-0l0,1Zm0,-2l-1,0l0,-1l1,0l0,1Zm0,-2l-1,0l0,-2c0,0.943 1,1 1,1l0,1Zm-2,-2l0,1l-1,-0l0,-1l1,-0Zm-2,-0l-0,1l-1,-0l-0,-1l1,-0Zm-2,-0l-0,1l-1,-0l-0,-1l1,-0Zm-2,-0l-0,1l-1,-0l-0,-1l1,-0Zm-2,-0l0,1l-1,-0l0,-1l1,-0Zm-2,-0l0,1l-1,-0l-0,-1l1,-0Zm-2,-0l-0,1l-1,-0l0,-1l1,-0Zm-2,-0l-0,1l-1,-0l-0,-1l1,-0Zm-2,-0l0,1l-1,-0l-0,-1l1,-0Zm-2,-0l0,1l-1,-0l0,-1l1,-0Z" fill="#6a6bd3"/><path d="M84,121c0,-0 0.331,-0.637 0.613,-1l0.387,-0l0,0.011c0,-0.004 -0,-0.007 -0,-0.011l1,-0l0,1l-2,-0Zm0,1l1,-0l0,1l-1,-0l0,-1Zm0,2l1,-0l0,1l-1,0l0,-1Zm0,2l1,0l0,1l-1,0l0,-1Zm0,2l1,0l0,1l-1,0l0,-1Zm0,2l1,-0l0,1l-1,-0l0,-1Zm0,2l1,-0l-0,1l-1,0l0,-1Zm0,2l1,0l-0,1l-1,-0l0,-1Zm0,2l1,-0l0,1l-1,0l0,-1Zm0,2l1,-0l-0,1l-1,-0l0,-1Zm0,2l1,-0l0,1l-1,-0l0,-1Zm0,2l1,-0l-0,2l-1,-0l0,-1l0.011,-0c-0.004,-0 -0.007,0 -0.011,0l0,-1Zm2,2l-0,-1l1,-0l-0,1l-1,-0Zm2,-0l0,-1l1,-0l0,1l-1,-0Zm2,-0l0,-1l1,-0l0,1l-1,-0Zm2,-0l0,-1l1,-0l0,1l-1,-0Zm2,-0l-0,-1l1,-0l-0,1l-1,-0Zm2,-0l-0,-1l1,-0l0,1l-1,-0Zm2,-0l0,-1l1,-0l-0,1l-1,-0Zm2,-0l0,-1l1,-0l0,1l-1,-0Zm2,-0l-0,-1l1,-0l0,1l-1,-0Zm2,-0l-0,-1l1,-0l-0,1l-1,-0Zm2,-0l-0,-1l2,-0l0,1l-1,-0l-0,-0.011c-0,0.004 0,0.007 0,0.011l-1,-0Zm2,-2l-1,-0l-0,-1l1,0l0,1Zm0,-2l-1,-0l0,-1l1,-0l0,1Zm0,-2l-1,-0l0,-1l1,-0l0,1Zm0,-2l-1,-0l0,-1l1,-0l0,1Zm0,-2l-1,0l0,-1l1,0l0,1Zm0,-2l-1,0l0,-1l1,-0l0,1Zm0,-2l-1,-0l0,-1l1,0l0,1Zm0,-2l-1,-0l0,-1l1,-0l0,1Zm0,-2l-1,-0l-0,-1l1,-0l0,1Zm0,-2l-1,0l0,-1l1,0l0,1Zm0,-2l-1,0l0,-2c0,0.943 1,1 1,1l0,1Zm-2,-2l0,1l-1,-0l0,-1l1,-0Zm-2,-0l-0,1l-1,-0l-0,-1l1,-0Zm-2,-0l-0,1l-1,-0l-0,-1l1,-0Zm-2,-0l-0,1l-1,-0l-0,-1l1,-0Zm-2,-0l0,1l-1,-0l0,-1l1,-0Zm-2,-0l0,1l-1,-0l-0,-1l1,-0Zm-2,-0l-0,1l-1,-0l0,-1l1,-0Zm-2,-0l-0,1l-1,-0l-0,-1l1,-0Zm-2,-0l0,1l-1,-0l-0,-1l1,-0Zm-2,-0l0,1l-1,-0l0,-1l1,-0Z" fill="#6a6bd3"/><path d="M108,121c0,-0 0.331,-0.637 0.613,-1l0.387,-0l0,0.011c0,-0.004 -0,-0.007 -0,-0.011l1,-0l0,1l-2,-0Zm0,1l1,-0l-0,1l-1,-0l0,-1Zm0,2l1,-0l0,1l-1,0l0,-1Zm0,2l1,0l0,1l-1,0l0,-1Zm0,2l1,0l0,1l-1,0l0,-1Zm0,2l1,-0l0,1l-1,-0l0,-1Zm0,2l1,-0l0,1l-1,0l0,-1Zm0,2l1,0l0,1l-1,-0l0,-1Zm0,2l1,-0l0,1l-1,0l0,-1Zm0,2l1,-0l-0,1l-1,-0l0,-1Zm0,2l1,-0l0,1l-1,-0l0,-1Zm0,2l1,-0l-0,2l-1,-0l0,-1l0.011,-0c-0.004,-0 -0.007,0 -0.011,0l0,-1Zm2,2l-0,-1l1,-0l-0,1l-1,-0Zm2,-0l0,-1l1,-0l0,1l-1,-0Zm2,-0l0,-1l1,-0l0,1l-1,-0Zm2,-0l0,-1l1,-0l0,1l-1,-0Zm2,-0l-0,-1l1,-0l-0,1l-1,-0Zm2,-0l-0,-1l1,-0l0,1l-1,-0Zm2,-0l0,-1l1,-0l-0,1l-1,-0Zm2,-0l0,-1l1,-0l0,1l-1,-0Zm2,-0l-0,-1l1,-0l0,1l-1,-0Zm2,-0l-0,-1l1,-0l-0,1l-1,-0Zm2,-0l-0,-1l2,-0l0,1l-1,-0l-0,-0.011c-0,0.004 0,0.007 0,0.011l-1,-0Zm2,-2l-1,-0l0,-1l1,0l0,1Zm0,-2l-1,-0l0,-1l1,-0l0,1Zm0,-2l-1,-0l0,-1l1,-0l0,1Zm0,-2l-1,-0l0,-1l1,-0l0,1Zm0,-2l-1,0l0,-1l1,0l0,1Zm0,-2l-1,0l0,-1l1,-0l0,1Zm0,-2l-1,-0l-0,-1l1,0l0,1Zm0,-2l-1,-0l-0,-1l1,-0l0,1Zm0,-2l-1,-0l0,-1l1,-0l0,1Zm0,-2l-1,0l0,-1l1,0l0,1Zm0,-2l-1,0l0,-2c0,0.943 1,1 1,1l0,1Zm-2,-2l0,1l-1,-0l0,-1l1,-0Zm-2,-0l-0,1l-1,-0l-0,-1l1,-0Zm-2,-0l-0,1l-1,-0l-0,-1l1,-0Zm-2,-0l-0,1l-1,-0l-0,-1l1,-0Zm-2,-0l0,1l-1,-0l0,-1l1,-0Zm-2,-0l0,1l-1,-0l-0,-1l1,-0Zm-2,-0l-0,1l-1,-0l0,-1l1,-0Zm-2,-0l-0,1l-1,-0l-0,-1l1,-0Zm-2,-0l0,1l-1,-0l-0,-1l1,-0Zm-2,-0l0,1l-1,-0l0,-1l1,-0Z" fill="#6a6bd3"/><path d="M132,121c0,-0 0.331,-0.637 0.613,-1l0.387,-0l0,0.011c0,-0.004 -0,-0.007 -0,-0.011l1,-0l0,1l-2,-0Zm0,1l1,-0l0,1l-1,-0l0,-1Zm0,2l1,-0l0,1l-1,0l0,-1Zm0,2l1,0l0,1l-1,0l0,-1Zm0,2l1,0l0,1l-1,0l0,-1Zm0,2l1,-0l0,1l-1,-0l0,-1Zm0,2l1,-0l0,1l-1,0l0,-1Zm0,2l1,0l0,1l-1,-0l0,-1Zm0,2l1,-0l0,1l-1,0l0,-1Zm0,2l1,-0l0,1l-1,-0l0,-1Zm0,2l1,-0l0,1l-1,-0l0,-1Zm0,2l1,-0l-0,2l-1,-0l0,-1l0.011,-0c-0.004,-0 -0.007,0 -0.011,0l0,-1Zm2,2l-0,-1l1,-0l-0,1l-1,-0Zm2,-0l0,-1l1,-0l0,1l-1,-0Zm2,-0l0,-1l1,-0l0,1l-1,-0Zm2,-0l0,-1l1,-0l0,1l-1,-0Zm2,-0l-0,-1l1,-0l-0,1l-1,-0Zm2,-0l-0,-1l1,-0l0,1l-1,-0Zm2,-0l0,-1l1,-0l-0,1l-1,-0Zm2,-0l0,-1l1,-0l0,1l-1,-0Zm2,-0l-0,-1l1,-0l0,1l-1,-0Zm2,-0l-0,-1l1,-0l-0,1l-1,-0Zm2,-0l-0,-1l2,-0l0,1l-1,-0l-0,-0.011c-0,0.004 0,0.007 0,0.011l-1,-0Zm2,-2l-1,-0l-0,-1l1,0l0,1Zm0,-2l-1,-0l0,-1l1,-0l0,1Zm0,-2l-1,-0l0,-1l1,-0l0,1Zm0,-2l-1,-0l0,-1l1,-0l0,1Zm0,-2l-1,0l-0,-1l1,0l0,1Zm0,-2l-1,0l-0,-1l1,-0l0,1Zm0,-2l-1,-0l-0,-1l1,0l0,1Zm0,-2l-1,-0l-0,-1l1,-0l0,1Zm0,-2l-1,-0l-0,-1l1,-0l0,1Zm0,-2l-1,0l0,-1l1,0l0,1Zm0,-2l-1,0l0,-2c0,0.943 1,1 1,1l0,1Zm-2,-2l0,1l-1,-0l0,-1l1,-0Zm-2,-0l-0,1l-1,-0l-0,-1l1,-0Zm-2,-0l-0,1l-1,-0l-0,-1l1,-0Zm-2,-0l-0,1l-1,-0l-0,-1l1,-0Zm-2,-0l0,1l-1,-0l0,-1l1,-0Zm-2,-0l0,1l-1,-0l-0,-1l1,-0Zm-2,-0l-0,1l-1,-0l0,-1l1,-0Zm-2,-0l-0,1l-1,-0l-0,-1l1,-0Zm-2,-0l0,1l-1,-0l-0,-1l1,-0Zm-2,-0l0,1l-1,-0l0,-1l1,-0Z" fill="#6a6bd3"/><path d="M156,121c0,-0 0.331,-0.637 0.613,-1l0.387,-0l0,0.011c0,-0.004 -0,-0.007 -0,-0.011l1,-0l0,1l-2,-0Zm0,1l1,-0l0,1l-1,-0l0,-1Zm0,2l1,-0l0,1l-1,0l0,-1Zm0,2l1,0l0,1l-1,0l0,-1Zm0,2l1,0l0,1l-1,0l0,-1Zm0,2l1,-0l0,1l-1,-0l0,-1Zm0,2l1,-0l0,1l-1,0l0,-1Zm0,2l1,0l0,1l-1,-0l0,-1Zm0,2l1,-0l0,1l-1,0l0,-1Zm0,2l1,-0l0,1l-1,-0l0,-1Zm0,2l1,-0l0,1l-1,-0l0,-1Zm0,2l1,-0l-0,2l-1,-0l0,-1l0.011,-0c-0.004,-0 -0.007,0 -0.011,0l0,-1Zm2,2l-0,-1l1,-0l-0,1l-1,-0Zm2,-0l0,-1l1,-0l0,1l-1,-0Zm2,-0l0,-1l1,-0l0,1l-1,-0Zm2,-0l0,-1l1,-0l0,1l-1,-0Zm2,-0l-0,-1l1,-0l-0,1l-1,-0Zm2,-0l-0,-1l1,-0l0,1l-1,-0Zm2,-0l0,-1l1,-0l-0,1l-1,-0Zm2,-0l0,-1l1,-0l0,1l-1,-0Zm2,-0l-0,-1l1,-0l0,1l-1,-0Zm2,-0l-0,-1l1,-0l-0,1l-1,-0Zm2,-0l-0,-1l2,-0l0,1l-0.989,-0l-0.011,-0.011l-0,0.011l-1,-0Zm2,-2l-1,-0l0,-1l1,0l0,1Zm0,-2l-1,-0l0,-1l1,-0l0,1Zm0,-2l-1,-0l0,-1l1,-0l0,1Zm0,-2l-1,-0l0,-1l1,-0l0,1Zm0,-2l-1,0l0,-1l1,0l0,1Zm0,-2l-1,0l0,-1l1,-0l0,1Zm0,-2l-1,-0l0,-1l1,0l0,1Zm0,-2l-1,-0l-0,-1l1,-0l0,1Zm0,-2l-1,-0l-0,-1l1,-0l0,1Zm0,-2l-1,0l0,-1l1,0l0,1Zm0,-2l-1,0l0,-2c0,0.943 1,1 1,1l0,1Zm-2,-2l0,1l-1,-0l0,-1l1,-0Zm-2,-0l-0,1l-1,-0l-0,-1l1,-0Zm-2,-0l-0,1l-1,-0l-0,-1l1,-0Zm-2,-0l-0,1l-1,-0l-0,-1l1,-0Zm-2,-0l0,1l-1,-0l0,-1l1,-0Zm-2,-0l0,1l-1,-0l-0,-1l1,-0Zm-2,-0l-0,1l-1,-0l0,-1l1,-0Zm-2,-0l-0,1l-1,-0l-0,-1l1,-0Zm-2,-0l0,1l-1,-0l-0,-1l1,-0Zm-2,-0l0,1l-1,-0l0,-1l1,-0Z" fill="#6a6bd3"/><path d="M180,121c0,-0 0.331,-0.637 0.613,-1l0.387,-0l0,0.011c0,-0.004 -0,-0.007 -0,-0.011l1,-0l0,1l-2,-0Zm0,1l1,-0l0,1l-1,-0l0,-1Zm0,2l1,-0l0,1l-1,0l0,-1Zm0,2l1,0l0,1l-1,0l0,-1Zm0,2l1,0l0,1l-1,0l0,-1Zm0,2l1,-0l0,1l-1,-0l0,-1Zm0,2l1,-0l0,1l-1,0l0,-1Zm0,2l1,0l0,1l-1,-0l0,-1Zm0,2l1,-0l0,1l-1,0l0,-1Zm0,2l1,-0l0,1l-1,-0l0,-1Zm0,2l1,-0l0,1l-1,-0l0,-1Zm0,2l1,-0l-0,2l-1,-0l0,-1l0.011,-0c-0.004,-0 -0.007,0 -0.011,0l0,-1Zm2,2l-0,-1l1,-0l-0,1l-1,-0Zm2,-0l0,-1l1,-0l0,1l-1,-0Zm2,-0l0,-1l1,-0l0,1l-1,-0Zm2,-0l0,-1l1,-0l0,1l-1,-0Zm2,-0l-0,-1l1,-0l-0,1l-1,-0Zm2,-0l-0,-1l1,-0l0,1l-1,-0Zm2,-0l0,-1l1,-0l-0,1l-1,-0Zm2,-0l0,-1l1,-0l0,1l-1,-0Zm2,-0l-0,-1l1,-0l0,1l-1,-0Zm2,-0l-0,-1l1,-0l-0,1l-1,-0Zm2,-0l-0,-1l2,-0l0,1l-1,-0l-0,-0.011c-0,0.004 0,0.007 0,0.011l-1,-0Zm2,-2l-1,-0l0,-1l1,0l0,1Zm0,-2l-1,-0l0,-1l1,-0l0,1Zm0,-2l-1,-0l-0,-1l1,-0l0,1Zm0,-2l-1,-0l-0,-1l1,-0l0,1Zm0,-2l-1,0l-0,-1l1,0l0,1Zm0,-2l-1,0l-0,-1l1,-0l0,1Zm0,-2l-1,-0l-0,-1l1,0l0,1Zm0,-2l-1,-0l-0,-1l1,-0l0,1Zm0,-2l-1,-0l0,-1l1,-0l0,1Zm0,-2l-1,0l0,-1l1,0l0,1Zm0,-2l-1,0l0,-2c0,0.943 1,1 1,1l0,1Zm-2,-2l0,1l-1,-0l0,-1l1,-0Zm-2,-0l-0,1l-1,-0l-0,-1l1,-0Zm-2,-0l-0,1l-1,-0l-0,-1l1,-0Zm-2,-0l-0,1l-1,-0l-0,-1l1,-0Zm-2,-0l0,1l-1,-0l0,-1l1,-0Zm-2,-0l0,1l-1,-0l-0,-1l1,-0Zm-2,-0l-0,1l-1,-0l0,-1l1,-0Zm-2,-0l-0,1l-1,-0l-0,-1l1,-0Zm-2,-0l0,1l-1,-0l-0,-1l1,-0Zm-2,-0l0,1l-1,-0l0,-1l1,-0Z" fill="#6a6bd3"/><path d="M195,130c0,1.646 -1.354,3 -3,3c-1.646,-0 -3,-1.354 -3,-3c0,-1.646 1.354,-3 3,-3c1.646,-0 3,1.354 3,3Z" fill-rule="nonzero"/><path d="M184,132c0,-4.389 3.611,-8 8,-8c4.389,-0 8,3.611 8,8c0,4.389 -3.611,8 -8,8c-4.389,-0 -8,-3.611 -8,-8Zm8,-7c-3.84,0 -7,3.16 -7,7c0,1.588 0.541,3.13 1.532,4.37c0.71,-1.144 2.273,-2.37 5.468,-2.37c3.195,-0 4.757,1.225 5.468,2.37c0.991,-1.24 1.532,-2.782 1.532,-4.37c-0,-3.84 -3.16,-7 -7,-7Z"/><path d="M169.535,125.016c0.132,-0.001 0.26,0.052 0.354,0.146l4.95,4.95c0.194,0.194 0.194,0.513 -0,0.707c-0.48,0.48 -1.072,0.588 -1.503,0.588c-0.177,-0 -0.335,-0.018 -0.46,-0.039l-3.134,3.134c0.082,0.332 0.136,0.671 0.16,1.013c0.046,0.702 -0.032,1.687 -0.72,2.375c-0.194,0.194 -0.513,0.194 -0.707,-0l-2.829,-2.828l-3.182,3.182c-0.195,0.195 -1.219,0.902 -1.414,0.707c-0.195,-0.195 0.512,-1.22 0.707,-1.414l3.182,-3.182l-2.828,-2.829c-0.194,-0.194 -0.194,-0.513 -0,-0.707c0.688,-0.688 1.673,-0.767 2.375,-0.72c0.341,0.024 0.68,0.077 1.013,0.16l3.134,-3.133c-0.027,-0.153 -0.04,-0.307 -0.04,-0.461c-0,-0.43 0.108,-1.022 0.589,-1.503c0.093,-0.094 0.22,-0.146 0.353,-0.146Z" fill-rule="nonzero"/><path d="M136.05,127.555c0.207,-0.907 1.02,-1.555 1.95,-1.555l12,-0c0.93,-0 1.743,0.648 1.95,1.555l-7.95,4.859l-7.95,-4.859Zm-0.05,1.142l0,7.104l5.803,-3.558l-5.803,-3.546Zm6.761,4.133l-6.57,4.026c0.33,0.698 1.037,1.145 1.809,1.144l6.256,-0c-0.17,-0.482 -0.257,-0.989 -0.256,-1.5c-0.001,-1.329 0.587,-2.592 1.606,-3.446l-0.367,-0.225l-1.239,0.757l-1.239,-0.757l0,0.001Zm9.239,-4.133l0,4.974c-0.853,-1.057 -2.141,-1.672 -3.5,-1.671c-0.681,-0.001 -1.353,0.153 -1.965,0.45l-0.338,-0.207l5.803,-3.546Z" fill-rule="nonzero"/><path d="M152,136.5c0,1.92 -1.58,3.5 -3.5,3.5c-1.92,-0 -3.5,-1.58 -3.5,-3.5c0,-1.92 1.58,-3.5 3.5,-3.5c1.92,-0 3.5,1.58 3.5,3.5Zm-3.5,-2c-0.274,-0 -0.5,0.226 -0.5,0.5l0,1l-1,-0c-0.274,-0 -0.5,0.226 -0.5,0.5c0,0.274 0.226,0.5 0.5,0.5l1,-0l0,1c0,0.274 0.226,0.5 0.5,0.5c0.274,-0 0.5,-0.226 0.5,-0.5l0,-1l1,-0c0.274,-0 0.5,-0.226 0.5,-0.5c0,-0.274 -0.226,-0.5 -0.5,-0.5l-1,-0l0,-1c0,-0.274 -0.226,-0.5 -0.5,-0.5Z" fill-rule="nonzero"/><path d="M120.707,125.395c-0.388,-0.387 -1.026,-0.387 -1.414,0l-6.647,6.646c-0.094,0.094 -0.147,0.222 -0.147,0.354c0,0.275 0.226,0.501 0.501,0.501c0.133,0 0.26,-0.053 0.354,-0.147l6.646,-6.647l6.646,6.647c0.094,0.094 0.221,0.147 0.354,0.147c0.275,0 0.501,-0.226 0.501,-0.501c-0,-0.132 -0.053,-0.26 -0.147,-0.354l-2.354,-2.353l-0,-3.293c-0,-0.274 -0.226,-0.5 -0.5,-0.5l-1,0c-0.274,0 -0.5,0.226 -0.5,0.5l-0,1.293l-2.293,-2.293Z" fill-rule="nonzero"/><path d="M120,127.188l6,6l-0,4.207c-0,0.823 -0.677,1.5 -1.5,1.5l-9,0c-0.823,0 -1.5,-0.677 -1.5,-1.5l-0,-4.207l6,-6Z" fill-rule="nonzero"/><path d="M96,124c4.389,-0 8,3.611 8,8c0,4.389 -3.611,8 -8,8c-4.389,-0 -8,-3.611 -8,-8c0,-4.389 3.611,-8 8,-8Zm-3.5,7.5c-0.274,-0 -0.5,0.226 -0.5,0.5c0,0.274 0.226,0.5 0.5,0.5l5.793,-0l-2.147,2.146c-0.094,0.094 -0.147,0.221 -0.147,0.354c0,0.275 0.226,0.501 0.501,0.501c0.133,-0 0.26,-0.053 0.354,-0.147l3,-3c0.094,-0.094 0.147,-0.221 0.147,-0.354c-0,-0.133 -0.053,-0.26 -0.147,-0.354l-3,-3c-0.094,-0.094 -0.221,-0.147 -0.354,-0.147c-0.275,0 -0.501,0.226 -0.501,0.501c0,0.133 0.053,0.26 0.147,0.354l2.147,2.146l-5.793,-0Z" fill-rule="nonzero"/><path d="M72,124c-4.389,-0 -8,3.611 -8,8c0,4.389 3.611,8 8,8c4.389,-0 8,-3.611 8,-8c0,-4.389 -3.611,-8 -8,-8Zm3.5,7.5c0.274,-0 0.5,0.226 0.5,0.5c0,0.274 -0.226,0.5 -0.5,0.5l-5.793,-0l2.147,2.146c0.094,0.094 0.147,0.221 0.147,0.354c-0,0.275 -0.226,0.501 -0.501,0.501c-0.133,-0 -0.26,-0.053 -0.354,-0.147l-3,-3c-0.094,-0.094 -0.147,-0.221 -0.147,-0.354c0,-0.133 0.053,-0.26 0.147,-0.354l3,-3c0.094,-0.094 0.221,-0.147 0.354,-0.147c0.275,0 0.501,0.226 0.501,0.501c-0,0.133 -0.053,0.26 -0.147,0.354l-2.147,2.146l5.793,-0Z" fill-rule="nonzero"/><path d="M54.5,120.5l-8,-0" fill="none" stroke="#000" stroke-width="1px"/><path d="M54.5,143.5l-8,-0" fill="none" stroke="#000" stroke-width="1px"/><path d="M50.5,120.5l-0,23" fill="none" stroke="#000" stroke-width="1px" stroke-miterlimit="1"/><path d="M60.5,149.5l0,8" fill="none" stroke="#000" stroke-width="1px"/><path d="M83.5,149.5l0,8" fill="none" stroke="#000" stroke-width="1px"/><path d="M60.5,153.5l23,-0" fill="none" stroke="#000" stroke-width="1px" stroke-miterlimit="1"/><path d="M17.871,129.28c-0.036,-1.02 0.468,-2.112 1.657,-2.112c0.9,-0 1.645,0.612 1.645,1.536c-0,1.176 -0.733,1.704 -2.173,2.592c-1.201,0.745 -2.219,1.465 -2.387,3.48l5.554,-0l0,-0.899l-4.368,0c0.204,-1.056 1.321,-1.596 2.389,-2.244c1.057,-0.661 2.063,-1.417 2.063,-2.917c0,-1.584 -1.174,-2.447 -2.663,-2.447c-1.801,0 -2.819,1.283 -2.735,3.011l1.018,0Z" fill-rule="nonzero"/><path d="M28.023,126.269l-0.814,0l-3.876,5.532l-0,0.983l3.732,-0l-0,1.992l0.958,-0l0,-1.992l1.152,-0l0,-0.899l-1.152,0l0,-5.616Zm-3.814,5.616l2.832,-4.164l0.024,0l-0,4.164l-2.856,0Z" fill-rule="nonzero"/><path d="M35.273,131.62c-0,1.213 -0.468,2.401 -1.861,2.401c-1.405,0 -1.957,-1.128 -1.957,-2.353c0,-1.164 0.528,-2.34 1.897,-2.34c1.321,-0 1.921,1.128 1.921,2.292Zm-4.8,5.532l1.018,-0l0,-3.203l0.024,0c0.456,0.731 1.369,0.971 2.005,0.971c1.897,-0 2.831,-1.475 2.831,-3.228c0,-1.752 -0.946,-3.263 -2.855,-3.263c-0.852,0 -1.645,0.3 -1.981,0.983l-0.024,-0l0,-0.839l-1.018,0l-0,8.579Z" fill-rule="nonzero"/><path d="M36.893,134.776l1.235,-0l1.728,-2.578l1.728,2.578l1.307,-0l-2.399,-3.36l2.135,-2.843l-1.223,0l-1.548,2.162l-1.488,-2.162l-1.307,0l2.159,2.939l-2.327,3.264Z" fill-rule="nonzero"/><path d="M60.399,163.072c-0.036,-1.021 0.468,-2.113 1.656,-2.113c0.901,0 1.645,0.612 1.645,1.537c0,1.176 -0.732,1.704 -2.173,2.592c-1.2,0.744 -2.219,1.464 -2.387,3.479l5.555,0l-0,-0.898l-4.368,-0c0.204,-1.056 1.32,-1.597 2.389,-2.245c1.056,-0.66 2.063,-1.416 2.063,-2.916c-0,-1.585 -1.175,-2.447 -2.664,-2.447c-1.8,-0 -2.819,1.282 -2.735,3.011l1.019,-0Z" fill-rule="nonzero"/><path d="M70.551,160.061l-0.815,-0l-3.876,5.532l0,0.982l3.732,0l0,1.992l0.959,0l-0,-1.992l1.152,0l-0,-0.898l-1.152,-0l-0,-5.616Zm-3.815,5.616l2.832,-4.164l0.024,-0l0,4.164l-2.856,-0Z" fill-rule="nonzero"/><path d="M77.8,165.412c0,1.212 -0.468,2.401 -1.861,2.401c-1.404,-0 -1.956,-1.129 -1.956,-2.353c-0,-1.164 0.528,-2.341 1.896,-2.341c1.321,0 1.921,1.129 1.921,2.293Zm-4.8,5.531l1.019,0l-0,-3.202l0.024,-0c0.456,0.731 1.368,0.97 2.004,0.97c1.897,0 2.832,-1.474 2.832,-3.227c-0,-1.753 -0.947,-3.263 -2.856,-3.263c-0.852,-0 -1.644,0.299 -1.98,0.982l-0.024,0l-0,-0.838l-1.019,-0l0,8.578Z" fill-rule="nonzero"/><path d="M79.42,168.567l1.236,0l1.727,-2.577l1.728,2.577l1.308,0l-2.4,-3.36l2.136,-2.842l-1.224,-0l-1.548,2.161l-1.487,-2.161l-1.308,-0l2.16,2.938l-2.328,3.264Z" fill-rule="nonzero"/><path d="M220.141,138.649l4.398,0l-0,-4.32l2.601,0c3.28,0 5.599,-1.618 5.599,-5.079c-0,-2.04 -1.359,-4.878 -5.238,-4.878l-7.36,-0l0,14.277Zm4.398,-10.62l1.961,0c1.081,0 2.081,0.08 2.081,1.382c0,1.441 -1.2,1.521 -2.341,1.521l-1.701,-0l-0,-2.903Z" fill="#1b7024" fill-rule="nonzero"/><path d="M237.46,133.552l1.38,-4.4l0.04,-0l1.28,4.4l-2.7,-0Zm-6.019,5.097l4.42,0l0.639,-2.04l4.54,0l0.6,2.04l4.559,0l-5.199,-14.277l-4.3,-0l-5.259,14.277Z" fill="#1b7024" fill-rule="nonzero"/><path d="M246.281,133.851c0.04,4.559 4.658,5.138 6.279,5.138c3.181,0 6.599,-1.199 6.599,-4.918c-0,-2.621 -1.999,-3.561 -4.018,-4.121c-2.021,-0.56 -4.062,-0.78 -4.142,-1.8c-0,-0.801 0.98,-0.961 1.581,-0.961c0.44,0 0.941,0.1 1.301,0.36c0.36,0.241 0.6,0.601 0.52,1.14l4.158,0c-0.12,-3.478 -2.859,-4.657 -5.959,-4.657c-2.94,-0 -5.759,1.419 -5.759,4.717c0,2.881 2.579,3.502 4.838,4.142c2.462,0.7 3.082,0.9 3.082,1.64c0,1.061 -1.1,1.301 -1.821,1.301c-0.82,-0 -1.781,-0.18 -2.101,-1.041c-0.1,-0.26 -0.16,-0.58 -0.16,-0.94l-4.398,0Z" fill="#1b7024" fill-rule="nonzero"/><path d="M259.621,133.851c0.04,4.559 4.658,5.138 6.279,5.138c3.181,0 6.599,-1.199 6.599,-4.918c-0,-2.621 -1.999,-3.561 -4.018,-4.121c-2.021,-0.56 -4.062,-0.78 -4.142,-1.8c-0,-0.801 0.98,-0.961 1.581,-0.961c0.44,0 0.941,0.1 1.301,0.36c0.36,0.241 0.6,0.601 0.52,1.14l4.158,0c-0.12,-3.478 -2.859,-4.657 -5.959,-4.657c-2.94,-0 -5.759,1.419 -5.759,4.717c0,2.881 2.579,3.502 4.838,4.142c2.462,0.7 3.082,0.9 3.082,1.64c0,1.061 -1.1,1.301 -1.821,1.301c-0.82,-0 -1.781,-0.18 -2.101,-1.041c-0.1,-0.26 -0.16,-0.58 -0.16,-0.94l-4.398,0Z" fill="#1b7024" fill-rule="nonzero"/><path d="M60,213c0,-0 0.332,-0.638 0.613,-1l0.387,-0l0,0.011c0,-0.004 -0,-0.008 -0,-0.011l1,-0l0,1l-2,-0Zm0,1l1,-0l0,1l-1,-0l0,-1Zm0,2l1,-0l-0,1l-1,-0l0,-1Zm0,2l1,-0l-0,1l-1,-0l0,-1Zm0,2l1,-0l-0,1l-1,-0l0,-1Zm0,2l1,-0l-0,1l-1,-0l0,-1Zm0,2l1,-0l-0,1l-1,-0l0,-1Zm0,2l1,-0l-0,1l-1,-0l0,-1Zm0,2l1,-0l0,1l-1,-0l0,-1Zm0,2l1,-0l-0,2l-1,-0l0,-1l0.011,-0c-0.004,-0 -0.007,-0 -0.011,-0l0,-1Zm2,2l0,-1l1,-0l0,1l-1,-0Zm2,-0l-0,-1l1,-0l-0,1l-1,-0Zm2,-0l-0,-1l1,-0l-0,1l-1,-0Zm2,-0l-0,-1l1,-0l-0,1l-1,-0Zm2,-0l-0,-1l1,-0l-0,1l-1,-0Zm2,-0l-0,-1l1,-0l-0,1l-1,-0Zm2,-0l0,-1l1,-0l-0,1l-1,-0Zm2,-0l-0,-1l1,-0l-0,1l-1,-0Zm2,-0l-0,-1l2,-0l0,1l-1,-0l-0,-0.011c-0,0.003 0,0.007 0,0.011l-1,-0Zm2,-2l-1,-0l0,-1l1,-0l0,1Zm0,-2l-1,-0l0,-1l1,-0l0,1Zm0,-2l-1,-0l0,-1l1,-0l0,1Zm0,-2l-1,-0l0,-1l1,-0l0,1Zm0,-2l-1,-0l0,-1l1,-0l0,1Zm0,-2l-1,-0l0,-1l1,-0l0,1Zm0,-2l-1,-0l0,-1l1,-0l0,1Zm0,-2l-1,-0l0,-1l1,-0l0,1Zm0,-2l-1,-0l0,-2c0,0.942 1,1 1,1l0,1Zm-2,-2l-0,1l-1,-0l-0,-1l1,-0Zm-2,-0l0,1l-1,-0l0,-1l1,-0Zm-2,-0l0,1l-1,-0l0,-1l1,-0Zm-2,-0l0,1l-1,-0l0,-1l1,-0Zm-2,-0l0,1l-1,-0l0,-1l1,-0Zm-2,-0l0,1l-1,-0l0,-1l1,-0Zm-2,-0l-0,1l-1,-0l0,-1l1,-0Zm-2,-0l0,1l-1,-0l0,-1l1,-0Z" fill="#6a6bd3"/><path d="M84,213c0,-0 0.332,-0.638 0.613,-1l0.387,-0l0,0.011c0,-0.004 -0,-0.008 -0,-0.011l1,-0l0,1l-2,-0Zm0,1l1,-0l0,1l-1,-0l0,-1Zm0,2l1,-0l0,1l-1,-0l0,-1Zm0,2l1,-0l0,1l-1,-0l0,-1Zm0,2l1,-0l-0,1l-1,-0l0,-1Zm0,2l1,-0l0,1l-1,-0l0,-1Zm0,2l1,-0l0,1l-1,-0l0,-1Zm0,2l1,-0l0,1l-1,-0l0,-1Zm0,2l1,-0l0,1l-1,-0l0,-1Zm0,2l1,-0l-0,2l-1,-0l0,-1l0.011,-0c-0.004,-0 -0.007,-0 -0.011,-0l0,-1Zm2,2l0,-1l1,-0l0,1l-1,-0Zm2,-0l-0,-1l1,-0l-0,1l-1,-0Zm2,-0l-0,-1l1,-0l-0,1l-1,-0Zm2,-0l-0,-1l1,-0l-0,1l-1,-0Zm2,-0l-0,-1l1,-0l-0,1l-1,-0Zm2,-0l-0,-1l1,-0l-0,1l-1,-0Zm2,-0l0,-1l1,-0l-0,1l-1,-0Zm2,-0l-0,-1l1,-0l-0,1l-1,-0Zm2,-0l-0,-1l2,-0l0,1l-1,-0l-0,-0.011c-0,0.003 0,0.007 0,0.011l-1,-0Zm2,-2l-1,-0l0,-1l1,-0l0,1Zm0,-2l-1,-0l0,-1l1,-0l0,1Zm0,-2l-1,-0l-0,-1l1,-0l0,1Zm0,-2l-1,-0l-0,-1l1,-0l0,1Zm0,-2l-1,-0l0,-1l1,-0l0,1Zm0,-2l-1,-0l0,-1l1,-0l0,1Zm0,-2l-1,-0l0,-1l1,-0l0,1Zm0,-2l-1,-0l0,-1l1,-0l0,1Zm0,-2l-1,-0l0,-2c0,0.942 1,1 1,1l0,1Zm-2,-2l-0,1l-1,-0l-0,-1l1,-0Zm-2,-0l0,1l-1,-0l0,-1l1,-0Zm-2,-0l0,1l-1,-0l0,-1l1,-0Zm-2,-0l0,1l-1,-0l0,-1l1,-0Zm-2,-0l0,1l-1,-0l0,-1l1,-0Zm-2,-0l0,1l-1,-0l0,-1l1,-0Zm-2,-0l-0,1l-1,-0l0,-1l1,-0Zm-2,-0l0,1l-1,-0l0,-1l1,-0Z" fill="#6a6bd3"/><path d="M108,213c0,-0 0.332,-0.638 0.613,-1l0.387,-0l0,0.011c0,-0.004 -0,-0.008 -0,-0.011l1,-0l0,1l-2,-0Zm0,1l1,-0l0,1l-1,-0l0,-1Zm0,2l1,-0l0,1l-1,-0l0,-1Zm0,2l1,-0l-0,1l-1,-0l0,-1Zm0,2l1,-0l-0,1l-1,-0l0,-1Zm0,2l1,-0l-0,1l-1,-0l0,-1Zm0,2l1,-0l0,1l-1,-0l0,-1Zm0,2l1,-0l0,1l-1,-0l0,-1Zm0,2l1,-0l0,1l-1,-0l0,-1Zm0,2l1,-0l-0,2l-1,-0l0,-1l0.011,-0c-0.004,-0 -0.007,-0 -0.011,-0l0,-1Zm2,2l0,-1l1,-0l0,1l-1,-0Zm2,-0l-0,-1l1,-0l-0,1l-1,-0Zm2,-0l-0,-1l1,-0l-0,1l-1,-0Zm2,-0l-0,-1l1,-0l-0,1l-1,-0Zm2,-0l-0,-1l1,-0l-0,1l-1,-0Zm2,-0l-0,-1l1,-0l-0,1l-1,-0Zm2,-0l0,-1l1,-0l-0,1l-1,-0Zm2,-0l-0,-1l1,-0l-0,1l-1,-0Zm2,-0l-0,-1l2,-0l0,1l-1,-0l-0,-0.011c-0,0.003 0,0.007 0,0.011l-1,-0Zm2,-2l-1,-0l-0,-1l1,-0l0,1Zm0,-2l-1,-0l-0,-1l1,-0l0,1Zm0,-2l-1,-0l-0,-1l1,-0l0,1Zm0,-2l-1,-0l-0,-1l1,-0l0,1Zm0,-2l-1,-0l-0,-1l1,-0l0,1Zm0,-2l-1,-0l-0,-1l1,-0l0,1Zm0,-2l-1,-0l-0,-1l1,-0l0,1Zm0,-2l-1,-0l-0,-1l1,-0l0,1Zm0,-2l-1,-0l0,-2c0,0.942 1,1 1,1l0,1Zm-2,-2l-0,1l-1,-0l-0,-1l1,-0Zm-2,-0l0,1l-1,-0l0,-1l1,-0Zm-2,-0l0,1l-1,-0l0,-1l1,-0Zm-2,-0l0,1l-1,-0l0,-1l1,-0Zm-2,-0l0,1l-1,-0l0,-1l1,-0Zm-2,-0l0,1l-1,-0l0,-1l1,-0Zm-2,-0l-0,1l-1,-0l0,-1l1,-0Zm-2,-0l0,1l-1,-0l0,-1l1,-0Z" fill="#6a6bd3"/><path d="M132,213c0,-0 0.332,-0.638 0.613,-1l0.387,-0l0,0.011c0,-0.004 -0,-0.008 -0,-0.011l1,-0l0,1l-2,-0Zm0,1l1,-0l0,1l-1,-0l0,-1Zm0,2l1,-0l0,1l-1,-0l0,-1Zm0,2l1,-0l0,1l-1,-0l0,-1Zm0,2l1,-0l0,1l-1,-0l0,-1Zm0,2l1,-0l0,1l-1,-0l0,-1Zm0,2l1,-0l0,1l-1,-0l0,-1Zm0,2l1,-0l0,1l-1,-0l0,-1Zm0,2l1,-0l0,1l-1,-0l0,-1Zm0,2l1,-0l-0,2l-1,-0l0,-1l0.011,-0c-0.004,-0 -0.007,-0 -0.011,-0l0,-1Zm2,2l0,-1l1,-0l0,1l-1,-0Zm2,-0l-0,-1l1,-0l-0,1l-1,-0Zm2,-0l-0,-1l1,-0l-0,1l-1,-0Zm2,-0l-0,-1l1,-0l-0,1l-1,-0Zm2,-0l-0,-1l1,-0l-0,1l-1,-0Zm2,-0l-0,-1l1,-0l-0,1l-1,-0Zm2,-0l0,-1l1,-0l-0,1l-1,-0Zm2,-0l-0,-1l1,-0l-0,1l-1,-0Zm2,-0l-0,-1l2,-0l0,1l-1,-0l-0,-0.011c-0,0.003 0,0.007 0,0.011l-1,-0Zm2,-2l-1,-0l0,-1l1,-0l0,1Zm0,-2l-1,-0l-0,-1l1,-0l0,1Zm0,-2l-1,-0l-0,-1l1,-0l0,1Zm0,-2l-1,-0l-0,-1l1,-0l0,1Zm0,-2l-1,-0l0,-1l1,-0l0,1Zm0,-2l-1,-0l0,-1l1,-0l0,1Zm0,-2l-1,-0l0,-1l1,-0l0,1Zm0,-2l-1,-0l0,-1l1,-0l0,1Zm0,-2l-1,-0l0,-2c0,0.942 1,1 1,1l0,1Zm-2,-2l-0,1l-1,-0l-0,-1l1,-0Zm-2,-0l0,1l-1,-0l0,-1l1,-0Zm-2,-0l0,1l-1,-0l0,-1l1,-0Zm-2,-0l0,1l-1,-0l0,-1l1,-0Zm-2,-0l0,1l-1,-0l0,-1l1,-0Zm-2,-0l0,1l-1,-0l0,-1l1,-0Zm-2,-0l-0,1l-1,-0l0,-1l1,-0Zm-2,-0l0,1l-1,-0l0,-1l1,-0Z" fill="#6a6bd3"/><path d="M156,213c0,-0 0.332,-0.638 0.613,-1l0.387,-0l0,0.011c0,-0.004 -0,-0.008 -0,-0.011l1,-0l0,1l-2,-0Zm0,1l1,-0l0,1l-1,-0l0,-1Zm0,2l1,-0l-0,1l-1,-0l0,-1Zm0,2l1,-0l-0,1l-1,-0l0,-1Zm0,2l1,-0l0,1l-1,-0l0,-1Zm0,2l1,-0l0,1l-1,-0l0,-1Zm0,2l1,-0l0,1l-1,-0l0,-1Zm0,2l1,-0l0,1l-1,-0l0,-1Zm0,2l1,-0l0,1l-1,-0l0,-1Zm0,2l1,-0l-0,2l-1,-0l0,-1l0.011,-0c-0.004,-0 -0.007,-0 -0.011,-0l0,-1Zm2,2l0,-1l1,-0l0,1l-1,-0Zm2,-0l-0,-1l1,-0l-0,1l-1,-0Zm2,-0l-0,-1l1,-0l-0,1l-1,-0Zm2,-0l-0,-1l1,-0l-0,1l-1,-0Zm2,-0l-0,-1l1,-0l-0,1l-1,-0Zm2,-0l-0,-1l1,-0l-0,1l-1,-0Zm2,-0l0,-1l1,-0l-0,1l-1,-0Zm2,-0l-0,-1l1,-0l-0,1l-1,-0Zm2,-0l-0,-1l2,-0l0,1l-0.989,-0l-0.011,-0.011l-0,0.011l-1,-0Zm2,-2l-1,-0l0,-1l1,-0l0,1Zm0,-2l-1,-0l0,-1l1,-0l0,1Zm0,-2l-1,-0l0,-1l1,-0l0,1Zm0,-2l-1,-0l-0,-1l1,-0l0,1Zm0,-2l-1,-0l0,-1l1,-0l0,1Zm0,-2l-1,-0l-0,-1l1,-0l0,1Zm0,-2l-1,-0l-0,-1l1,-0l0,1Zm0,-2l-1,-0l0,-1l1,-0l0,1Zm0,-2l-1,-0l0,-2c0,0.942 1,1 1,1l0,1Zm-2,-2l-0,1l-1,-0l-0,-1l1,-0Zm-2,-0l0,1l-1,-0l0,-1l1,-0Zm-2,-0l0,1l-1,-0l0,-1l1,-0Zm-2,-0l0,1l-1,-0l0,-1l1,-0Zm-2,-0l0,1l-1,-0l0,-1l1,-0Zm-2,-0l0,1l-1,-0l0,-1l1,-0Zm-2,-0l-0,1l-1,-0l0,-1l1,-0Zm-2,-0l0,1l-1,-0l0,-1l1,-0Z" fill="#6a6bd3"/><path d="M180,213c0,-0 0.332,-0.638 0.613,-1l0.387,-0l0,0.011c0,-0.004 -0,-0.008 -0,-0.011l1,-0l0,1l-2,-0Zm0,1l1,-0l-0,1l-1,-0l0,-1Zm0,2l1,-0l-0,1l-1,-0l0,-1Zm0,2l1,-0l-0,1l-1,-0l0,-1Zm0,2l1,-0l-0,1l-1,-0l0,-1Zm0,2l1,-0l-0,1l-1,-0l0,-1Zm0,2l1,-0l-0,1l-1,-0l0,-1Zm0,2l1,-0l0,1l-1,-0l0,-1Zm0,2l1,-0l0,1l-1,-0l0,-1Zm0,2l1,-0l-0,2l-1,-0l0,-1l0.011,-0c-0.004,-0 -0.007,-0 -0.011,-0l0,-1Zm2,2l0,-1l1,-0l0,1l-1,-0Zm2,-0l-0,-1l1,-0l-0,1l-1,-0Zm2,-0l-0,-1l1,-0l-0,1l-1,-0Zm2,-0l-0,-1l1,-0l-0,1l-1,-0Zm2,-0l-0,-1l1,-0l-0,1l-1,-0Zm2,-0l-0,-1l1,-0l-0,1l-1,-0Zm2,-0l0,-1l1,-0l-0,1l-1,-0Zm2,-0l-0,-1l1,-0l-0,1l-1,-0Zm2,-0l-0,-1l2,-0l-0,1l-1,-0l-0,-0.011c-0,0.003 0,0.007 0,0.011l-1,-0Zm2,-2l-1,-0l0,-1l1,-0l-0,1Zm-0,-2l-1,-0l0,-1l1,-0l-0,1Zm-0,-2l-1,-0l0,-1l1,-0l-0,1Zm-0,-2l-1,-0l0,-1l1,-0l-0,1Zm-0,-2l-1,-0l0,-1l1,-0l-0,1Zm-0,-2l-1,-0l0,-1l1,-0l-0,1Zm-0,-2l-1,-0l0,-1l1,-0l-0,1Zm-0,-2l-1,-0l0,-1l1,-0l-0,1Zm-0,-2l-1,-0l0,-2c0,0.942 1,1 1,1l-0,1Zm-2,-2l-0,1l-1,-0l-0,-1l1,-0Zm-2,-0l0,1l-1,-0l0,-1l1,-0Zm-2,-0l0,1l-1,-0l0,-1l1,-0Zm-2,-0l0,1l-1,-0l0,-1l1,-0Zm-2,-0l0,1l-1,-0l0,-1l1,-0Zm-2,-0l0,1l-1,-0l0,-1l1,-0Zm-2,-0l-0,1l-1,-0l0,-1l1,-0Zm-2,-0l0,1l-1,-0l0,-1l1,-0Z" fill="#6a6bd3"/><path d="M193,220c0,1.645 -1.354,3 -3,3c-1.646,-0 -3,-1.355 -3,-3c0,-1.646 1.354,-3 3,-3c1.646,-0 3,1.354 3,3Z" fill-rule="nonzero"/><path d="M182,222c0,-4.389 3.611,-8 8,-8c4.389,-0 8,3.611 8,8c0,4.388 -3.611,8 -8,8c-4.389,-0 -8,-3.612 -8,-8Zm8,-7c-3.84,-0 -7,3.16 -7,7c0,1.588 0.541,3.129 1.532,4.37c0.71,-1.144 2.273,-2.37 5.468,-2.37c3.195,-0 4.757,1.225 5.468,2.37c0.991,-1.241 1.532,-2.782 1.532,-4.37c-0,-3.84 -3.16,-7 -7,-7Z"/><path d="M167.535,215.015c0.132,0 0.26,0.053 0.354,0.146l4.95,4.95c0.194,0.194 0.194,0.513 -0,0.707c-0.48,0.48 -1.072,0.588 -1.503,0.588c-0.177,0 -0.335,-0.018 -0.46,-0.039l-3.134,3.134c0.082,0.333 0.136,0.672 0.16,1.013c0.046,0.702 -0.032,1.687 -0.72,2.375c-0.194,0.194 -0.513,0.194 -0.707,0l-2.829,-2.828l-3.182,3.182c-0.195,0.195 -1.219,0.902 -1.414,0.707c-0.195,-0.195 0.512,-1.22 0.707,-1.414l3.182,-3.182l-2.828,-2.829c-0.194,-0.194 -0.194,-0.513 -0,-0.707c0.688,-0.688 1.673,-0.767 2.375,-0.72c0.341,0.024 0.68,0.078 1.013,0.16l3.134,-3.133c-0.027,-0.152 -0.04,-0.306 -0.04,-0.461c-0,-0.43 0.108,-1.022 0.589,-1.503c0.093,-0.093 0.22,-0.146 0.353,-0.146Z" fill-rule="nonzero"/><path d="M134.05,217.555c0.207,-0.907 1.02,-1.555 1.95,-1.555l12,-0c0.93,-0 1.743,0.648 1.95,1.555l-7.95,4.859l-7.95,-4.859Zm-0.05,1.142l0,7.104l5.803,-3.558l-5.803,-3.546Zm6.761,4.133l-6.57,4.026c0.33,0.698 1.037,1.144 1.809,1.144l6.256,-0c-0.17,-0.482 -0.257,-0.989 -0.256,-1.5c-0.001,-1.329 0.587,-2.593 1.606,-3.446l-0.367,-0.225l-1.239,0.757l-1.239,-0.757l0,0.001Zm9.239,-4.133l0,4.974c-0.853,-1.058 -2.141,-1.673 -3.5,-1.671c-0.681,-0.001 -1.353,0.153 -1.965,0.45l-0.338,-0.207l5.803,-3.546Z" fill-rule="nonzero"/><path d="M150,226.5c0,1.92 -1.58,3.5 -3.5,3.5c-1.92,-0 -3.5,-1.58 -3.5,-3.5c0,-1.92 1.58,-3.5 3.5,-3.5c1.92,-0 3.5,1.58 3.5,3.5Zm-3.5,-2c-0.274,-0 -0.5,0.225 -0.5,0.5l0,1l-1,-0c-0.274,-0 -0.5,0.225 -0.5,0.5c0,0.274 0.226,0.5 0.5,0.5l1,-0l0,1c0,0.274 0.226,0.5 0.5,0.5c0.274,-0 0.5,-0.226 0.5,-0.5l0,-1l1,-0c0.274,-0 0.5,-0.226 0.5,-0.5c0,-0.275 -0.226,-0.5 -0.5,-0.5l-1,-0l0,-1c0,-0.275 -0.226,-0.5 -0.5,-0.5Z" fill-rule="nonzero"/><path d="M118.707,215.395c-0.388,-0.388 -1.026,-0.388 -1.414,0l-6.647,6.646c-0.094,0.094 -0.147,0.221 -0.147,0.354c0,0.275 0.226,0.501 0.501,0.501c0.133,-0 0.26,-0.053 0.354,-0.147l6.646,-6.647l6.646,6.647c0.094,0.094 0.221,0.147 0.354,0.147c0.275,-0 0.501,-0.226 0.501,-0.501c-0,-0.133 -0.053,-0.26 -0.147,-0.354l-2.354,-2.353l-0,-3.293c-0,-0.274 -0.226,-0.5 -0.5,-0.5l-1,0c-0.274,0 -0.5,0.226 -0.5,0.5l-0,1.293l-2.293,-2.293Z" fill-rule="nonzero"/><path d="M118,217.188l6,6l-0,4.207c-0,0.823 -0.677,1.5 -1.5,1.5l-9,0c-0.823,0 -1.5,-0.677 -1.5,-1.5l-0,-4.207l6,-6Z" fill-rule="nonzero"/><path d="M94,214c4.389,-0 8,3.611 8,8c0,4.388 -3.611,8 -8,8c-4.389,-0 -8,-3.612 -8,-8c0,-4.389 3.611,-8 8,-8Zm-3.5,7.5c-0.274,-0 -0.5,0.225 -0.5,0.5c0,0.274 0.226,0.5 0.5,0.5l5.793,-0l-2.147,2.146c-0.094,0.093 -0.147,0.221 -0.147,0.354c0,0.274 0.226,0.5 0.501,0.5c0.133,0 0.26,-0.053 0.354,-0.146l3,-3c0.094,-0.094 0.147,-0.222 0.147,-0.354c-0,-0.133 -0.053,-0.261 -0.147,-0.354l-3,-3c-0.094,-0.094 -0.221,-0.147 -0.354,-0.147c-0.275,-0 -0.501,0.226 -0.501,0.501c0,0.132 0.053,0.26 0.147,0.354l2.147,2.146l-5.793,-0Z" fill-rule="nonzero"/><path d="M70,214c-4.389,-0 -8,3.611 -8,8c0,4.388 3.611,8 8,8c4.389,-0 8,-3.612 8,-8c0,-4.389 -3.611,-8 -8,-8Zm3.5,7.5c0.274,-0 0.5,0.225 0.5,0.5c0,0.274 -0.226,0.5 -0.5,0.5l-5.793,-0l2.147,2.146c0.094,0.093 0.147,0.221 0.147,0.354c-0,0.274 -0.226,0.5 -0.501,0.5c-0.133,0 -0.26,-0.053 -0.354,-0.146l-3,-3c-0.094,-0.094 -0.147,-0.222 -0.147,-0.354c0,-0.133 0.053,-0.261 0.147,-0.354l3,-3c0.094,-0.094 0.221,-0.147 0.354,-0.147c0.275,-0 0.501,0.226 0.501,0.501c-0,0.132 -0.053,0.26 -0.147,0.354l-2.147,2.146l5.793,-0Z" fill-rule="nonzero"/><path d="M54.5,212.5l-8,-0" fill="none" stroke="#000" stroke-width="1px"/><path d="M54.5,231.5l-8,-0" fill="none" stroke="#000" stroke-width="1px"/><path d="M50.5,212.5l0,19" fill="none" stroke="#000" stroke-width="1px" stroke-miterlimit="1"/><path d="M60.5,237.5l-0,8" fill="none" stroke="#000" stroke-width="1px"/><path d="M79.5,237.5l-0,8" fill="none" stroke="#000" stroke-width="1px"/><path d="M60.5,241.5l19,-0" fill="none" stroke="#000" stroke-width="1px" stroke-miterlimit="1"/><path d="M80.5,219.5l0,4" fill="none" stroke="#000" stroke-width="1px"/><path d="M83.5,219.5l0,4" fill="none" stroke="#000" stroke-width="1px"/><path d="M80.5,221.5l3,-0" fill="none" stroke="#000" stroke-width="1px" stroke-miterlimit="1"/><path d="M17.871,219.28c-0.036,-1.02 0.468,-2.112 1.657,-2.112c0.9,-0 1.645,0.612 1.645,1.536c-0,1.176 -0.733,1.704 -2.173,2.592c-1.201,0.745 -2.219,1.465 -2.387,3.48l5.554,-0l0,-0.899l-4.368,0c0.204,-1.056 1.321,-1.596 2.389,-2.244c1.057,-0.661 2.063,-1.417 2.063,-2.917c0,-1.584 -1.174,-2.447 -2.663,-2.447c-1.801,0 -2.819,1.283 -2.735,3.011l1.018,0Z" fill-rule="nonzero"/><path d="M23.501,220.6c-0,1.873 0.168,4.32 2.831,4.32c2.663,-0 2.831,-2.447 2.831,-4.32c0,-1.884 -0.168,-4.331 -2.831,-4.331c-2.663,0 -2.831,2.447 -2.831,4.331Zm1.078,-0.012c0,-1.26 0.012,-3.42 1.753,-3.42c1.741,-0 1.753,2.16 1.753,3.42c-0,1.273 -0.012,3.433 -1.753,3.433c-1.741,0 -1.753,-2.16 -1.753,-3.433Z" fill-rule="nonzero"/><path d="M35.273,221.62c-0,1.213 -0.468,2.401 -1.861,2.401c-1.405,0 -1.957,-1.128 -1.957,-2.353c0,-1.164 0.528,-2.34 1.897,-2.34c1.321,-0 1.921,1.128 1.921,2.292Zm-4.8,5.532l1.018,-0l0,-3.203l0.024,0c0.456,0.731 1.369,0.971 2.005,0.971c1.897,-0 2.831,-1.475 2.831,-3.228c0,-1.752 -0.946,-3.263 -2.855,-3.263c-0.852,0 -1.645,0.3 -1.981,0.983l-0.024,-0l0,-0.839l-1.018,0l-0,8.579Z" fill-rule="nonzero"/><path d="M36.893,224.776l1.235,-0l1.728,-2.578l1.728,2.578l1.307,-0l-2.399,-3.36l2.135,-2.843l-1.223,0l-1.548,2.162l-1.488,-2.162l-1.307,0l2.159,2.939l-2.327,3.264Z" fill-rule="nonzero"/><path d="M58.875,251.072c-0.036,-1.021 0.468,-2.113 1.657,-2.113c0.9,0 1.645,0.612 1.645,1.537c-0,1.176 -0.733,1.704 -2.173,2.592c-1.201,0.744 -2.219,1.464 -2.387,3.479l5.554,0l0,-0.898l-4.368,-0c0.204,-1.056 1.321,-1.597 2.389,-2.245c1.057,-0.66 2.063,-1.416 2.063,-2.916c0,-1.585 -1.174,-2.447 -2.663,-2.447c-1.801,-0 -2.819,1.282 -2.735,3.011l1.018,-0Z" fill-rule="nonzero"/><path d="M64.505,252.392c-0,1.872 0.168,4.319 2.831,4.319c2.663,0 2.831,-2.447 2.831,-4.319c0,-1.884 -0.168,-4.331 -2.831,-4.331c-2.663,-0 -2.831,2.447 -2.831,4.331Zm1.078,-0.012c0,-1.26 0.012,-3.421 1.753,-3.421c1.741,0 1.753,2.161 1.753,3.421c-0,1.272 -0.012,3.433 -1.753,3.433c-1.741,-0 -1.753,-2.161 -1.753,-3.433Z" fill-rule="nonzero"/><path d="M76.277,253.412c-0,1.212 -0.468,2.401 -1.861,2.401c-1.405,-0 -1.957,-1.129 -1.957,-2.353c0,-1.164 0.528,-2.341 1.897,-2.341c1.321,0 1.921,1.129 1.921,2.293Zm-4.8,5.531l1.018,0l0,-3.202l0.024,-0c0.456,0.731 1.369,0.97 2.005,0.97c1.897,0 2.831,-1.474 2.831,-3.227c0,-1.753 -0.946,-3.263 -2.855,-3.263c-0.852,-0 -1.645,0.299 -1.981,0.982l-0.024,0l0,-0.838l-1.018,-0l-0,8.578Z" fill-rule="nonzero"/><path d="M77.897,256.567l1.235,0l1.728,-2.577l1.728,2.577l1.307,0l-2.399,-3.36l2.135,-2.842l-1.223,-0l-1.548,2.161l-1.488,-2.161l-1.307,-0l2.159,2.938l-2.327,3.264Z" fill-rule="nonzero"/><path d="M78.82,198.261l-0.815,-0l-3.875,5.532l-0,0.982l3.732,0l-0,1.992l0.958,0l0,-1.992l1.152,0l0,-0.898l-1.152,-0l0,-5.616Zm-3.814,5.616l2.832,-4.164l0.024,-0l-0,4.164l-2.856,-0Z" fill-rule="nonzero"/><path d="M86.07,203.612c-0,1.212 -0.468,2.401 -1.861,2.401c-1.405,-0 -1.957,-1.129 -1.957,-2.353c0,-1.164 0.528,-2.341 1.897,-2.341c1.32,0 1.921,1.129 1.921,2.293Zm-4.8,5.531l1.018,0l0,-3.202l0.024,-0c0.456,0.731 1.369,0.97 2.005,0.97c1.896,0 2.831,-1.474 2.831,-3.227c0,-1.753 -0.946,-3.263 -2.855,-3.263c-0.852,-0 -1.645,0.299 -1.981,0.982l-0.024,0l0,-0.838l-1.018,-0l-0,8.578Z" fill-rule="nonzero"/><path d="M87.69,206.767l1.235,0l1.728,-2.577l1.728,2.577l1.307,0l-2.399,-3.36l2.135,-2.842l-1.223,-0l-1.548,2.161l-1.488,-2.161l-1.307,-0l2.159,2.938l-2.327,3.264Z" fill-rule="nonzero"/><path d="M214.141,228.649l4.398,0l-0,-4.32l2.601,0c3.28,0 5.599,-1.618 5.599,-5.079c-0,-2.04 -1.359,-4.878 -5.238,-4.878l-7.36,-0l0,14.277Zm4.398,-10.62l1.961,0c1.081,0 2.081,0.08 2.081,1.382c0,1.441 -1.2,1.521 -2.341,1.521l-1.701,-0l-0,-2.903Z" fill="#1b7024" fill-rule="nonzero"/><path d="M231.46,223.552l1.38,-4.4l0.04,-0l1.28,4.4l-2.7,-0Zm-6.019,5.097l4.42,0l0.639,-2.04l4.54,0l0.6,2.04l4.559,0l-5.199,-14.277l-4.3,-0l-5.259,14.277Z" fill="#1b7024" fill-rule="nonzero"/><path d="M240.281,223.851c0.04,4.559 4.658,5.138 6.279,5.138c3.181,0 6.599,-1.199 6.599,-4.918c-0,-2.621 -1.999,-3.561 -4.018,-4.121c-2.021,-0.56 -4.062,-0.78 -4.142,-1.8c-0,-0.801 0.98,-0.961 1.581,-0.961c0.44,0 0.941,0.1 1.301,0.36c0.36,0.241 0.6,0.601 0.52,1.14l4.158,0c-0.12,-3.478 -2.859,-4.657 -5.959,-4.657c-2.94,-0 -5.759,1.419 -5.759,4.717c0,2.881 2.579,3.502 4.838,4.142c2.462,0.7 3.082,0.9 3.082,1.64c0,1.061 -1.1,1.301 -1.821,1.301c-0.82,-0 -1.781,-0.18 -2.101,-1.041c-0.1,-0.26 -0.16,-0.58 -0.16,-0.94l-4.398,0Z" fill="#1b7024" fill-rule="nonzero"/><path d="M253.621,223.851c0.04,4.559 4.658,5.138 6.279,5.138c3.181,0 6.599,-1.199 6.599,-4.918c-0,-2.621 -1.999,-3.561 -4.018,-4.121c-2.021,-0.56 -4.062,-0.78 -4.142,-1.8c-0,-0.801 0.98,-0.961 1.581,-0.961c0.44,0 0.941,0.1 1.301,0.36c0.36,0.241 0.6,0.601 0.52,1.14l4.158,0c-0.12,-3.478 -2.859,-4.657 -5.959,-4.657c-2.94,-0 -5.759,1.419 -5.759,4.717c0,2.881 2.579,3.502 4.838,4.142c2.462,0.7 3.082,0.9 3.082,1.64c0,1.061 -1.1,1.301 -1.821,1.301c-0.82,-0 -1.781,-0.18 -2.101,-1.041c-0.1,-0.26 -0.16,-0.58 -0.16,-0.94l-4.398,0Z" fill="#1b7024" fill-rule="nonzero"/><path d="M60,301c0,-0 0.332,-0.637 0.613,-1l0.387,-0l0,0.011c0,-0.004 -0,-0.007 -0,-0.011l1,-0l0,1l-2,-0Zm0,1l1,0l0,1l-1,-0l0,-1Zm0,2l1,-0l-0,1l-1,-0l0,-1Zm0,2l1,-0l-0,1l-1,-0l0,-1Zm0,2l1,-0l-0,1l-1,-0l0,-1Zm0,2l1,-0l-0,1l-1,-0l0,-1Zm0,2l1,-0l-0,1l-1,-0l0,-1Zm0,2l1,-0l-0,1l-1,-0l0,-1Zm0,2l1,-0l0,1l-1,-0l0,-1Zm0,2l1,-0l-0,2l-1,-0l0,-1l0.011,-0c-0.004,-0 -0.007,0 -0.011,0l0,-1Zm2,2l0,-1l1,-0l0,1l-1,-0Zm2,-0l-0,-1l1,-0l-0,1l-1,-0Zm2,-0l-0,-1l1,-0l-0,1l-1,-0Zm2,-0l-0,-1l1,-0l-0,1l-1,-0Zm2,-0l-0,-1l1,-0l-0,1l-1,-0Zm2,-0l-0,-1l1,-0l-0,1l-1,-0Zm2,-0l0,-1l1,-0l-0,1l-1,-0Zm2,-0l-0,-1l1,-0l-0,1l-1,-0Zm2,-0l-0,-1l2,-0l0,1l-1,-0l-0,-0.011c-0,0.004 0,0.007 0,0.011l-1,-0Zm2,-2l-1,-0l0,-1l1,-0l0,1Zm0,-2l-1,0l0,-1l1,0l0,1Zm0,-2l-1,0l0,-1l1,0l0,1Zm0,-2l-1,0l0,-1l1,0l0,1Zm0,-2l-1,0l0,-1l1,0l0,1Zm0,-2l-1,0l0,-1l1,0l0,1Zm0,-2l-1,-0l0,-1l1,0l0,1Zm0,-2l-1,0l0,-1l1,0l0,1Zm0,-2l-1,0l0,-2c0,0.943 1,1 1,1l0,1Zm-2,-2l-0,1l-1,-0l-0,-1l1,0Zm-2,-0l0,1l-1,-0l0,-1l1,-0Zm-2,-0l0,1l-1,-0l0,-1l1,-0Zm-2,-0l0,1l-1,-0l0,-1l1,-0Zm-2,-0l0,1l-1,-0l0,-1l1,-0Zm-2,-0l0,1l-1,-0l0,-1l1,-0Zm-2,-0l-0,1l-1,-0l0,-1l1,-0Zm-2,-0l0,1l-1,-0l0,-1l1,-0Z" fill="#6a6bd3"/><path d="M80,301c0,-0 0.332,-0.637 0.613,-1l0.387,-0l0,0.011c0,-0.004 -0,-0.007 -0,-0.011l1,-0l0,1l-2,-0Zm0,1l1,0l0,1l-1,-0l0,-1Zm0,2l1,-0l0,1l-1,-0l0,-1Zm0,2l1,-0l0,1l-1,-0l0,-1Zm0,2l1,-0l0,1l-1,-0l0,-1Zm0,2l1,-0l0,1l-1,-0l0,-1Zm0,2l1,-0l0,1l-1,-0l0,-1Zm0,2l1,-0l-0,1l-1,-0l0,-1Zm0,2l1,-0l-0,1l-1,-0l0,-1Zm0,2l1,-0l-0,2l-1,-0l0,-1l0.011,-0c-0.004,-0 -0.007,0 -0.011,0l0,-1Zm2,2l0,-1l1,-0l0,1l-1,-0Zm2,-0l-0,-1l1,-0l-0,1l-1,-0Zm2,-0l-0,-1l1,-0l-0,1l-1,-0Zm2,-0l-0,-1l1,-0l-0,1l-1,-0Zm2,-0l-0,-1l1,-0l-0,1l-1,-0Zm2,-0l-0,-1l1,-0l-0,1l-1,-0Zm2,-0l0,-1l1,-0l-0,1l-1,-0Zm2,-0l-0,-1l1,-0l-0,1l-1,-0Zm2,-0l-0,-1l2,-0l-0,1l-1,-0l-0,-0.011c-0,0.004 0,0.007 0,0.011l-1,-0Zm2,-2l-1,-0l0,-1l1,-0l-0,1Zm-0,-2l-1,0l0,-1l1,0l-0,1Zm-0,-2l-1,0l0,-1l1,0l-0,1Zm-0,-2l-1,0l0,-1l1,0l-0,1Zm-0,-2l-1,0l0,-1l1,0l-0,1Zm-0,-2l-1,0l0,-1l1,0l-0,1Zm-0,-2l-1,-0l0,-1l1,0l-0,1Zm-0,-2l-1,0l0,-1l1,0l-0,1Zm-0,-2l-1,0l0,-2c0,0.943 1,1 1,1l-0,1Zm-2,-2l-0,1l-1,-0l-0,-1l1,0Zm-2,-0l0,1l-1,-0l0,-1l1,-0Zm-2,-0l0,1l-1,-0l0,-1l1,-0Zm-2,-0l0,1l-1,-0l0,-1l1,-0Zm-2,-0l0,1l-1,-0l0,-1l1,-0Zm-2,-0l0,1l-1,-0l0,-1l1,-0Zm-2,-0l-0,1l-1,-0l0,-1l1,-0Zm-2,-0l0,1l-1,-0l0,-1l1,-0Z" fill="#6a6bd3"/><path d="M100,301c0,-0 0.332,-0.637 0.613,-1l0.387,-0l0,0.011c0,-0.004 -0,-0.007 -0,-0.011l1,-0l0,1l-2,-0Zm0,1l1,0l0,1l-1,-0l0,-1Zm0,2l1,-0l0,1l-1,-0l0,-1Zm0,2l1,-0l0,1l-1,-0l0,-1Zm0,2l1,-0l0,1l-1,-0l0,-1Zm0,2l1,-0l0,1l-1,-0l0,-1Zm0,2l1,-0l0,1l-1,-0l0,-1Zm0,2l1,-0l0,1l-1,-0l0,-1Zm0,2l1,-0l0,1l-1,-0l0,-1Zm0,2l1,-0l-0,2l-1,-0l0,-1l0.011,-0c-0.004,-0 -0.007,0 -0.011,0l0,-1Zm2,2l0,-1l1,-0l0,1l-1,-0Zm2,-0l-0,-1l1,-0l-0,1l-1,-0Zm2,-0l-0,-1l1,-0l-0,1l-1,-0Zm2,-0l-0,-1l1,-0l-0,1l-1,-0Zm2,-0l-0,-1l1,-0l-0,1l-1,-0Zm2,-0l-0,-1l1,-0l-0,1l-1,-0Zm2,-0l0,-1l1,-0l-0,1l-1,-0Zm2,-0l-0,-1l1,-0l-0,1l-1,-0Zm2,-0l-0,-1l2,-0l0,1l-0.989,-0l-0.011,-0.011l-0,0.011l-1,-0Zm2,-2l-1,-0l0,-1l1,-0l0,1Zm0,-2l-1,0l-0,-1l1,0l0,1Zm0,-2l-1,0l-0,-1l1,0l0,1Zm0,-2l-1,0l-0,-1l1,0l0,1Zm0,-2l-1,0l-0,-1l1,0l0,1Zm0,-2l-1,0l-0,-1l1,0l0,1Zm0,-2l-1,-0l-0,-1l1,0l0,1Zm0,-2l-1,0l0,-1l1,0l0,1Zm0,-2l-1,0l0,-2c0,0.943 1,1 1,1l0,1Zm-2,-2l-0,1l-1,-0l-0,-1l1,0Zm-2,-0l0,1l-1,-0l0,-1l1,-0Zm-2,-0l0,1l-1,-0l0,-1l1,-0Zm-2,-0l0,1l-1,-0l0,-1l1,-0Zm-2,-0l0,1l-1,-0l0,-1l1,-0Zm-2,-0l0,1l-1,-0l0,-1l1,-0Zm-2,-0l-0,1l-1,-0l0,-1l1,-0Zm-2,-0l0,1l-1,-0l0,-1l1,-0Z" fill="#6a6bd3"/><path d="M120,301c0,-0 0.332,-0.637 0.613,-1l0.387,-0l0,0.011c0,-0.004 -0,-0.007 -0,-0.011l1,-0l0,1l-2,-0Zm0,1l1,0l0,1l-1,-0l0,-1Zm0,2l1,-0l0,1l-1,-0l0,-1Zm0,2l1,-0l-0,1l-1,-0l0,-1Zm0,2l1,-0l-0,1l-1,-0l0,-1Zm0,2l1,-0l0,1l-1,-0l0,-1Zm0,2l1,-0l0,1l-1,-0l0,-1Zm0,2l1,-0l0,1l-1,-0l0,-1Zm0,2l1,-0l0,1l-1,-0l0,-1Zm0,2l1,-0l-0,2l-1,-0l0,-1l0.011,-0c-0.004,-0 -0.007,0 -0.011,0l0,-1Zm2,2l0,-1l1,-0l0,1l-1,-0Zm2,-0l-0,-1l1,-0l-0,1l-1,-0Zm2,-0l-0,-1l1,-0l-0,1l-1,-0Zm2,-0l-0,-1l1,-0l-0,1l-1,-0Zm2,-0l-0,-1l1,-0l-0,1l-1,-0Zm2,-0l-0,-1l1,-0l-0,1l-1,-0Zm2,-0l0,-1l1,-0l-0,1l-1,-0Zm2,-0l-0,-1l1,-0l-0,1l-1,-0Zm2,-0l-0,-1l2,-0l0,1l-1,-0l-0,-0.011c-0,0.004 0,0.007 0,0.011l-1,-0Zm2,-2l-1,-0l-0,-1l1,-0l0,1Zm0,-2l-1,0l-0,-1l1,0l0,1Zm0,-2l-1,0l-0,-1l1,0l0,1Zm0,-2l-1,0l-0,-1l1,0l0,1Zm0,-2l-1,0l-0,-1l1,0l0,1Zm0,-2l-1,0l0,-1l1,0l0,1Zm0,-2l-1,-0l0,-1l1,0l0,1Zm0,-2l-1,0l0,-1l1,0l0,1Zm0,-2l-1,0l0,-2c0,0.943 1,1 1,1l0,1Zm-2,-2l-0,1l-1,-0l-0,-1l1,0Zm-2,-0l0,1l-1,-0l0,-1l1,-0Zm-2,-0l0,1l-1,-0l0,-1l1,-0Zm-2,-0l0,1l-1,-0l0,-1l1,-0Zm-2,-0l0,1l-1,-0l0,-1l1,-0Zm-2,-0l0,1l-1,-0l0,-1l1,-0Zm-2,-0l-0,1l-1,-0l0,-1l1,-0Zm-2,-0l0,1l-1,-0l0,-1l1,-0Z" fill="#6a6bd3"/><path d="M140,301c0,-0 0.332,-0.637 0.613,-1l0.387,-0l0,0.011c0,-0.004 -0,-0.007 -0,-0.011l1,-0l0,1l-2,-0Zm0,1l1,0l-0,1l-1,-0l0,-1Zm0,2l1,-0l-0,1l-1,-0l0,-1Zm0,2l1,-0l-0,1l-1,-0l0,-1Zm0,2l1,-0l-0,1l-1,-0l0,-1Zm0,2l1,-0l-0,1l-1,-0l0,-1Zm0,2l1,-0l0,1l-1,-0l0,-1Zm0,2l1,-0l0,1l-1,-0l0,-1Zm0,2l1,-0l0,1l-1,-0l0,-1Zm0,2l1,-0l-0,2l-1,-0l0,-1l0.011,-0c-0.004,-0 -0.007,0 -0.011,0l0,-1Zm2,2l0,-1l1,-0l0,1l-1,-0Zm2,-0l-0,-1l1,-0l-0,1l-1,-0Zm2,-0l-0,-1l1,-0l-0,1l-1,-0Zm2,-0l-0,-1l1,-0l-0,1l-1,-0Zm2,-0l-0,-1l1,-0l-0,1l-1,-0Zm2,-0l-0,-1l1,-0l-0,1l-1,-0Zm2,-0l0,-1l1,-0l-0,1l-1,-0Zm2,-0l-0,-1l1,-0l-0,1l-1,-0Zm2,-0l-0,-1l2,-0l0,1l-1,-0l-0,-0.011c-0,0.004 0,0.007 0,0.011l-1,-0Zm2,-2l-1,-0l0,-1l1,-0l0,1Zm0,-2l-1,0l0,-1l1,0l0,1Zm0,-2l-1,0l0,-1l1,0l0,1Zm0,-2l-1,0l0,-1l1,0l0,1Zm0,-2l-1,0l0,-1l1,0l0,1Zm0,-2l-1,0l0,-1l1,0l0,1Zm0,-2l-1,-0l0,-1l1,0l0,1Zm0,-2l-1,0l0,-1l1,0l0,1Zm0,-2l-1,0l0,-2c0,0.943 1,1 1,1l0,1Zm-2,-2l-0,1l-1,-0l-0,-1l1,0Zm-2,-0l0,1l-1,-0l0,-1l1,-0Zm-2,-0l0,1l-1,-0l0,-1l1,-0Zm-2,-0l0,1l-1,-0l0,-1l1,-0Zm-2,-0l0,1l-1,-0l0,-1l1,-0Zm-2,-0l0,1l-1,-0l0,-1l1,-0Zm-2,-0l-0,1l-1,-0l0,-1l1,-0Zm-2,-0l0,1l-1,-0l0,-1l1,-0Z" fill="#6a6bd3"/><path d="M160,301c0,-0 0.332,-0.637 0.613,-1l0.387,-0l0,0.011c0,-0.004 -0,-0.007 -0,-0.011l1,-0l0,1l-2,-0Zm0,1l1,0l0,1l-1,-0l0,-1Zm0,2l1,-0l0,1l-1,-0l0,-1Zm0,2l1,-0l0,1l-1,-0l0,-1Zm0,2l1,-0l0,1l-1,-0l0,-1Zm0,2l1,-0l0,1l-1,-0l0,-1Zm0,2l1,-0l0,1l-1,-0l0,-1Zm0,2l1,-0l-0,1l-1,-0l0,-1Zm0,2l1,-0l-0,1l-1,-0l0,-1Zm0,2l1,-0l-0,2l-1,-0l0,-1l0.011,-0c-0.004,-0 -0.007,0 -0.011,0l0,-1Zm2,2l0,-1l1,-0l0,1l-1,-0Zm2,-0l-0,-1l1,-0l-0,1l-1,-0Zm2,-0l-0,-1l1,-0l-0,1l-1,-0Zm2,-0l-0,-1l1,-0l-0,1l-1,-0Zm2,-0l-0,-1l1,-0l-0,1l-1,-0Zm2,-0l-0,-1l1,-0l-0,1l-1,-0Zm2,-0l0,-1l1,-0l-0,1l-1,-0Zm2,-0l-0,-1l1,-0l-0,1l-1,-0Zm2,-0l-0,-1l2,-0l0,1l-0.989,-0l-0.011,-0.011l-0,0.011l-1,-0Zm2,-2l-1,-0l0,-1l1,-0l0,1Zm0,-2l-1,0l-0,-1l1,0l0,1Zm0,-2l-1,0l-0,-1l1,0l0,1Zm0,-2l-1,0l-0,-1l1,0l0,1Zm0,-2l-1,0l0,-1l1,0l0,1Zm0,-2l-1,0l0,-1l1,0l0,1Zm0,-2l-1,-0l0,-1l1,0l0,1Zm0,-2l-1,0l0,-1l1,0l0,1Zm0,-2l-1,0l0,-2c0,0.943 1,1 1,1l0,1Zm-2,-2l-0,1l-1,-0l-0,-1l1,0Zm-2,-0l0,1l-1,-0l0,-1l1,-0Zm-2,-0l0,1l-1,-0l0,-1l1,-0Zm-2,-0l0,1l-1,-0l0,-1l1,-0Zm-2,-0l0,1l-1,-0l0,-1l1,-0Zm-2,-0l0,1l-1,-0l0,-1l1,-0Zm-2,-0l-0,1l-1,-0l0,-1l1,-0Zm-2,-0l0,1l-1,-0l0,-1l1,-0Z" fill="#6a6bd3"/><path d="M173,308c0,1.646 -1.354,3 -3,3c-1.646,-0 -3,-1.354 -3,-3c0,-1.646 1.354,-3 3,-3c1.646,-0 3,1.354 3,3Z" fill-rule="nonzero"/><path d="M162,310c0,-4.389 3.611,-8 8,-8c4.389,-0 8,3.611 8,8c0,4.389 -3.611,8 -8,8c-4.389,-0 -8,-3.611 -8,-8Zm8,-7c-3.84,0 -7,3.16 -7,7c0,1.588 0.541,3.13 1.532,4.37c0.71,-1.144 2.273,-2.37 5.468,-2.37c3.195,-0 4.757,1.225 5.468,2.37c0.991,-1.24 1.532,-2.782 1.532,-4.37c-0,-3.84 -3.16,-7 -7,-7Z"/><path d="M151.535,303.016c0.132,-0.001 0.26,0.052 0.354,0.146l4.95,4.95c0.194,0.194 0.194,0.513 -0,0.707c-0.48,0.48 -1.072,0.588 -1.503,0.588c-0.177,-0 -0.335,-0.018 -0.46,-0.039l-3.134,3.134c0.082,0.332 0.136,0.671 0.16,1.013c0.046,0.702 -0.032,1.687 -0.72,2.375c-0.194,0.194 -0.513,0.194 -0.707,-0l-2.829,-2.828l-3.182,3.182c-0.195,0.195 -1.219,0.902 -1.414,0.707c-0.195,-0.195 0.512,-1.22 0.707,-1.414l3.182,-3.182l-2.828,-2.829c-0.194,-0.194 -0.194,-0.513 -0,-0.707c0.688,-0.688 1.673,-0.767 2.375,-0.72c0.341,0.024 0.68,0.077 1.013,0.16l3.134,-3.133c-0.027,-0.153 -0.04,-0.307 -0.04,-0.461c-0,-0.43 0.108,-1.022 0.589,-1.503c0.093,-0.094 0.22,-0.146 0.353,-0.146Z" fill-rule="nonzero"/><path d="M122.05,305.555c0.207,-0.907 1.02,-1.555 1.95,-1.555l12,-0c0.93,-0 1.743,0.648 1.95,1.555l-7.95,4.859l-7.95,-4.859Zm-0.05,1.142l0,7.104l5.803,-3.558l-5.803,-3.546Zm6.761,4.133l-6.57,4.026c0.33,0.698 1.037,1.145 1.809,1.144l6.256,-0c-0.17,-0.482 -0.257,-0.989 -0.256,-1.5c-0.001,-1.329 0.587,-2.592 1.606,-3.446l-0.367,-0.225l-1.239,0.757l-1.239,-0.757l0,0.001Zm9.239,-4.133l0,4.974c-0.853,-1.057 -2.141,-1.672 -3.5,-1.671c-0.681,-0.001 -1.353,0.153 -1.965,0.45l-0.338,-0.207l5.803,-3.546Z" fill-rule="nonzero"/><path d="M138,314.5c0,1.92 -1.58,3.5 -3.5,3.5c-1.92,-0 -3.5,-1.58 -3.5,-3.5c0,-1.92 1.58,-3.5 3.5,-3.5c1.92,-0 3.5,1.58 3.5,3.5Zm-3.5,-2c-0.274,-0 -0.5,0.226 -0.5,0.5l0,1l-1,-0c-0.274,-0 -0.5,0.226 -0.5,0.5c0,0.274 0.226,0.5 0.5,0.5l1,-0l0,1c0,0.274 0.226,0.5 0.5,0.5c0.274,-0 0.5,-0.226 0.5,-0.5l0,-1l1,-0c0.274,-0 0.5,-0.226 0.5,-0.5c0,-0.274 -0.226,-0.5 -0.5,-0.5l-1,-0l0,-1c0,-0.274 -0.226,-0.5 -0.5,-0.5Z" fill-rule="nonzero"/><path d="M110.707,303.395c-0.388,-0.387 -1.026,-0.387 -1.414,0l-6.647,6.646c-0.094,0.094 -0.147,0.222 -0.147,0.354c0,0.275 0.226,0.501 0.501,0.501c0.133,0 0.26,-0.053 0.354,-0.147l6.646,-6.647l6.646,6.647c0.094,0.094 0.221,0.147 0.354,0.147c0.275,0 0.501,-0.226 0.501,-0.501c-0,-0.132 -0.053,-0.26 -0.147,-0.354l-2.354,-2.353l-0,-3.293c-0,-0.274 -0.226,-0.5 -0.5,-0.5l-1,0c-0.274,0 -0.5,0.226 -0.5,0.5l-0,1.293l-2.293,-2.293Z" fill-rule="nonzero"/><path d="M110,305.188l6,6l-0,4.207c-0,0.823 -0.677,1.5 -1.5,1.5l-9,0c-0.823,0 -1.5,-0.677 -1.5,-1.5l-0,-4.207l6,-6Z" fill-rule="nonzero"/><path d="M90,302c4.389,-0 8,3.611 8,8c0,4.389 -3.611,8 -8,8c-4.389,-0 -8,-3.611 -8,-8c0,-4.389 3.611,-8 8,-8Zm-3.5,7.5c-0.274,-0 -0.5,0.226 -0.5,0.5c0,0.274 0.226,0.5 0.5,0.5l5.793,-0l-2.147,2.146c-0.094,0.094 -0.147,0.221 -0.147,0.354c0,0.275 0.226,0.501 0.501,0.501c0.133,-0 0.26,-0.053 0.354,-0.147l3,-3c0.094,-0.094 0.147,-0.221 0.147,-0.354c-0,-0.133 -0.053,-0.26 -0.147,-0.354l-3,-3c-0.094,-0.094 -0.221,-0.147 -0.354,-0.147c-0.275,0 -0.501,0.226 -0.501,0.501c0,0.133 0.053,0.26 0.147,0.354l2.147,2.146l-5.793,-0Z" fill-rule="nonzero"/><path d="M70,302c-4.389,-0 -8,3.611 -8,8c0,4.389 3.611,8 8,8c4.389,-0 8,-3.611 8,-8c0,-4.389 -3.611,-8 -8,-8Zm3.5,7.5c0.274,-0 0.5,0.226 0.5,0.5c0,0.274 -0.226,0.5 -0.5,0.5l-5.793,-0l2.147,2.146c0.094,0.094 0.147,0.221 0.147,0.354c-0,0.275 -0.226,0.501 -0.501,0.501c-0.133,-0 -0.26,-0.053 -0.354,-0.147l-3,-3c-0.094,-0.094 -0.147,-0.221 -0.147,-0.354c0,-0.133 0.053,-0.26 0.147,-0.354l3,-3c0.094,-0.094 0.221,-0.147 0.354,-0.147c0.275,0 0.501,0.226 0.501,0.501c-0,0.133 -0.053,0.26 -0.147,0.354l-2.147,2.146l5.793,-0Z" fill-rule="nonzero"/><path d="M54.5,300.5l-8,-0" fill="none" stroke="#000" stroke-width="1px"/><path d="M54.5,319.5l-8,-0" fill="none" stroke="#000" stroke-width="1px"/><path d="M50.5,300.5l0,19" fill="none" stroke="#000" stroke-width="1px" stroke-miterlimit="1"/><path d="M60.5,325.5l-0,8" fill="none" stroke="#000" stroke-width="1px"/><path d="M79.5,325.5l-0,8" fill="none" stroke="#000" stroke-width="1px"/><path d="M60.5,329.5l19,-0" fill="none" stroke="#000" stroke-width="1px" stroke-miterlimit="1"/><path d="M16.954,307.28c-0.036,-1.02 0.468,-2.112 1.657,-2.112c0.9,-0 1.644,0.612 1.644,1.536c0,1.176 -0.732,1.704 -2.173,2.592c-1.2,0.745 -2.219,1.465 -2.387,3.48l5.555,-0l0,-0.899l-4.368,0c0.204,-1.056 1.32,-1.596 2.389,-2.244c1.056,-0.661 2.063,-1.417 2.063,-2.917c-0,-1.584 -1.175,-2.447 -2.663,-2.447c-1.801,0 -2.82,1.283 -2.736,3.011l1.019,0Z" fill-rule="nonzero"/><path d="M22.583,308.6c0,1.873 0.168,4.32 2.832,4.32c2.663,-0 2.831,-2.447 2.831,-4.32c-0,-1.884 -0.168,-4.331 -2.831,-4.331c-2.664,0 -2.832,2.447 -2.832,4.331Zm1.079,-0.012c-0,-1.26 0.012,-3.42 1.753,-3.42c1.74,-0 1.752,2.16 1.752,3.42c0,1.273 -0.012,3.433 -1.752,3.433c-1.741,0 -1.753,-2.16 -1.753,-3.433Z" fill-rule="nonzero"/><path d="M34.355,309.62c0,1.213 -0.468,2.401 -1.86,2.401c-1.405,0 -1.957,-1.128 -1.957,-2.353c-0,-1.164 0.528,-2.34 1.897,-2.34c1.32,-0 1.92,1.128 1.92,2.292Zm-4.8,5.532l1.019,-0l-0,-3.203l0.024,0c0.456,0.731 1.368,0.971 2.005,0.971c1.896,-0 2.831,-1.475 2.831,-3.228c-0,-1.752 -0.947,-3.263 -2.855,-3.263c-0.853,0 -1.645,0.3 -1.981,0.983l-0.024,-0l-0,-0.839l-1.019,0l0,8.579Z" fill-rule="nonzero"/><path d="M35.975,312.776l1.236,-0l1.728,-2.578l1.727,2.578l1.308,-0l-2.399,-3.36l2.135,-2.843l-1.224,0l-1.547,2.162l-1.488,-2.162l-1.308,0l2.16,2.939l-2.328,3.264Z" fill-rule="nonzero"/><path d="M58.554,339.432c-0.036,-1.021 0.468,-2.113 1.657,-2.113c0.9,0 1.644,0.612 1.644,1.536c0,1.177 -0.732,1.705 -2.173,2.593c-1.2,0.744 -2.219,1.464 -2.387,3.479l5.555,0l0,-0.898l-4.368,-0c0.204,-1.057 1.32,-1.597 2.389,-2.245c1.056,-0.66 2.063,-1.416 2.063,-2.917c-0,-1.584 -1.175,-2.446 -2.663,-2.446c-1.801,-0 -2.82,1.282 -2.736,3.011l1.019,-0Z" fill-rule="nonzero"/><path d="M64.183,340.752c0,1.872 0.168,4.319 2.832,4.319c2.663,0 2.831,-2.447 2.831,-4.319c-0,-1.884 -0.168,-4.331 -2.831,-4.331c-2.664,-0 -2.832,2.447 -2.832,4.331Zm1.079,-0.012c-0,-1.26 0.012,-3.421 1.753,-3.421c1.74,0 1.752,2.161 1.752,3.421c0,1.272 -0.012,3.433 -1.752,3.433c-1.741,-0 -1.753,-2.161 -1.753,-3.433Z" fill-rule="nonzero"/><path d="M75.955,341.772c0,1.212 -0.468,2.401 -1.86,2.401c-1.405,-0 -1.957,-1.129 -1.957,-2.353c-0,-1.164 0.528,-2.341 1.897,-2.341c1.32,0 1.92,1.129 1.92,2.293Zm-4.8,5.531l1.019,0l-0,-3.202l0.024,-0c0.456,0.731 1.368,0.97 2.005,0.97c1.896,0 2.831,-1.475 2.831,-3.227c-0,-1.753 -0.947,-3.263 -2.855,-3.263c-0.853,-0 -1.645,0.299 -1.981,0.982l-0.024,0l-0,-0.838l-1.019,-0l0,8.578Z" fill-rule="nonzero"/><path d="M77.575,344.927l1.236,0l1.728,-2.577l1.727,2.577l1.308,0l-2.399,-3.36l2.135,-2.842l-1.224,-0l-1.547,2.161l-1.488,-2.161l-1.308,-0l2.16,2.938l-2.328,3.264Z" fill-rule="nonzero"/><path d="M196.141,316.649l4.398,0l-0,-5.44l5.7,0l-0,-3.397l-5.7,-0l-0,-1.783l6.64,0l-0,-3.657l-11.038,-0l0,14.277Z" fill="#ca2626" fill-rule="nonzero"/><path d="M212.36,311.552l1.38,-4.4l0.04,-0l1.28,4.4l-2.7,-0Zm-6.019,5.097l4.42,0l0.639,-2.04l4.54,0l0.6,2.04l4.559,0l-5.199,-14.277l-4.3,-0l-5.259,14.277Z" fill="#ca2626" fill-rule="nonzero"/><rect x="222.081" y="302.372" width="4.397" height="14.278" fill="#ca2626" fill-rule="nonzero"/><path d="M228.741,316.649l10.718,0l-0,-3.657l-6.32,-0l-0,-10.62l-4.398,-0l0,14.277Z" fill="#ca2626" fill-rule="nonzero"/></svg>