<?xml version="1.0" encoding="UTF-8" standalone="no"?>
<!DOCTYPE svg PUBLIC "-//W3C//DTD SVG 1.1//EN" "http://www.w3.org/Graphics/SVG/1.1/DTD/svg11.dtd">
<svg width="100%" height="100%" viewBox="0 0 130 120" version="1.1" xmlns="http://www.w3.org/2000/svg" xmlns:xlink="http://www.w3.org/1999/xlink" xml:space="preserve" xmlns:serif="http://www.serif.com/" style="fill-rule:evenodd;clip-rule:evenodd;stroke-miterlimit:10;">
    <rect id="target-size-skewed" serif:id="target size skewed" x="0" y="0" width="130" height="120" style="fill:none;"/>
    <clipPath id="_clip1">
        <rect id="target-size-skewed1" serif:id="target size skewed" x="0" y="0" width="130" height="120"/>
    </clipPath>
    <g clip-path="url(#_clip1)">
        <rect id="background" x="-0" y="0" width="130" height="120" style="fill:#fff;"/>
        <path d="M43.5,45.707l-3,-3l-3,3" style="fill:none;stroke:#000;stroke-width:1px;"/>
        <path d="M43.5,62.293l-3,3l-3,-3" style="fill:none;stroke:#000;stroke-width:1px;"/>
        <path d="M40.5,42.707l0,22.586" style="fill:none;stroke:#000;stroke-width:1px;stroke-miterlimit:1;"/>
        <path d="M7.871,53.28c-0.036,-1.02 0.468,-2.112 1.657,-2.112c0.9,-0 1.645,0.612 1.645,1.536c-0,1.176 -0.733,1.704 -2.173,2.592c-1.201,0.745 -2.219,1.465 -2.387,3.48l5.554,-0l0,-0.899l-4.368,0c0.204,-1.056 1.321,-1.596 2.389,-2.244c1.057,-0.661 2.063,-1.417 2.063,-2.917c0,-1.584 -1.174,-2.447 -2.663,-2.447c-1.801,0 -2.819,1.283 -2.735,3.011l1.018,0Z" style="fill-rule:nonzero;"/>
        <path d="M18.023,50.269l-0.814,0l-3.876,5.532l-0,0.983l3.732,-0l-0,1.992l0.958,-0l0,-1.992l1.152,-0l0,-0.899l-1.152,0l0,-5.616Zm-3.814,5.616l2.832,-4.164l0.024,0l-0,4.164l-2.856,0Z" style="fill-rule:nonzero;"/>
        <path d="M25.273,55.62c-0,1.213 -0.468,2.401 -1.861,2.401c-1.405,0 -1.957,-1.128 -1.957,-2.353c0,-1.164 0.528,-2.34 1.897,-2.34c1.321,-0 1.921,1.128 1.921,2.292Zm-4.8,5.532l1.018,-0l0,-3.203l0.024,0c0.456,0.731 1.369,0.971 2.005,0.971c1.897,-0 2.831,-1.475 2.831,-3.228c0,-1.752 -0.946,-3.263 -2.855,-3.263c-0.852,0 -1.645,0.3 -1.981,0.983l-0.024,-0l0,-0.839l-1.018,0l-0,8.579Z" style="fill-rule:nonzero;"/>
        <path d="M26.893,58.776l1.235,-0l1.728,-2.578l1.728,2.578l1.307,-0l-2.399,-3.36l2.135,-2.843l-1.223,0l-1.548,2.162l-1.488,-2.162l-1.307,0l2.159,2.939l-2.327,3.264Z" style="fill-rule:nonzero;"/>
        <path d="M55.709,91.072c-0.036,-1.021 0.468,-2.113 1.657,-2.113c0.9,0 1.645,0.612 1.645,1.537c-0,1.176 -0.733,1.704 -2.173,2.592c-1.201,0.744 -2.219,1.464 -2.387,3.479l5.554,0l0,-0.898l-4.368,-0c0.204,-1.056 1.321,-1.597 2.389,-2.245c1.057,-0.66 2.063,-1.416 2.063,-2.916c0,-1.585 -1.174,-2.447 -2.663,-2.447c-1.801,-0 -2.819,1.282 -2.735,3.011l1.018,-0Z" style="fill-rule:nonzero;"/>
        <path d="M65.861,88.061l-0.814,-0l-3.876,5.532l-0,0.982l3.732,0l-0,1.992l0.958,0l0,-1.992l1.152,0l0,-0.898l-1.152,-0l0,-5.616Zm-3.814,5.616l2.832,-4.164l0.024,-0l-0,4.164l-2.856,-0Z" style="fill-rule:nonzero;"/>
        <path d="M73.111,93.412c-0,1.212 -0.468,2.401 -1.861,2.401c-1.405,-0 -1.957,-1.129 -1.957,-2.353c0,-1.164 0.528,-2.341 1.897,-2.341c1.321,0 1.921,1.129 1.921,2.293Zm-4.8,5.531l1.018,0l0,-3.202l0.024,-0c0.456,0.731 1.369,0.97 2.005,0.97c1.897,0 2.831,-1.474 2.831,-3.227c0,-1.753 -0.946,-3.263 -2.855,-3.263c-0.852,-0 -1.645,0.299 -1.981,0.982l-0.024,0l0,-0.838l-1.018,-0l-0,8.578Z" style="fill-rule:nonzero;"/>
        <path d="M74.731,96.567l1.235,0l1.728,-2.577l1.728,2.577l1.307,0l-2.399,-3.36l2.135,-2.842l-1.223,-0l-1.548,2.161l-1.488,-2.161l-1.307,-0l2.159,2.938l-2.327,3.264Z" style="fill-rule:nonzero;"/>
        <path d="M58.707,78.5l-3,3l3,3" style="fill:none;stroke:#000;stroke-width:1px;"/>
        <path d="M75.293,78.5l3,3l-3,3" style="fill:none;stroke:#000;stroke-width:1px;"/>
        <path d="M55.707,81.5l22.586,-0" style="fill:none;stroke:#000;stroke-width:1px;stroke-miterlimit:1;"/>
        <path id="target" d="M90,31l-32,0l-13,44l32,0l13,-44Z" style="fill:#e0e0ea;"/>
        <path d="M90,31l-13,44l-32,0l13,-44l32,0Zm-1.338,1c-0,-0 -29.915,0 -29.915,-0l-12.409,42c0,0 29.915,0 29.915,0l12.409,-42Z" style="fill:#6a6bd3;"/>
        <path id="_24x24-square" serif:id="24x24 square" d="M55,44l0,-2l1,0l0,2l-1,-0Zm22,-2l2,0l-0,1l-2,-0l0,-1Zm2,22l-0,2l-1,-0l-0,-2l1,0Zm-22,2l-2,-0l0,-1l2,0l-0,1Zm-2,-21l1,-0l0,1l-1,0l0,-1Zm0,2l1,0l0,1l-1,0l0,-1Zm0,2l1,0l0,1l-1,0l0,-1Zm0,2l1,0l0,1l-1,-0l0,-1Zm0,2l1,-0l0,1l-1,-0l0,-1Zm0,2l1,0l0,1l-1,0l0,-1Zm0,2l1,-0l-0,1l-1,0l0,-1Zm0,2l1,0l-0,1l-1,-0l0,-1Zm0,2l1,0l0,1l-1,-0l0,-1Zm0,2l1,-0l0,1l-1,-0l0,-1Zm3,3l-0,-1l1,0l0,1l-1,-0Zm2,-0l0,-1l1,0l0,1l-1,-0Zm2,-0l0,-1l1,0l0,1l-1,-0Zm2,-0l0,-1l1,0l-0,1l-1,-0Zm2,-0l-0,-1l1,0l-0,1l-1,-0Zm2,-0l0,-1l1,0l0,1l-1,-0Zm2,-0l-0,-1l1,-0l0,1l-1,-0Zm2,-0l0,-1l1,0l-0,1l-1,-0Zm2,-0l0,-1l1,0l-0,1l-1,-0Zm2,-0l-0,-1l1,0l-0,1l-1,-0Zm3,-3l-1,0l-0,-1l1,-0l-0,1Zm-0,-2l-1,-0l0,-1l1,-0l-0,1Zm-0,-2l-1,-0l0,-1l1,-0l-0,1Zm-0,-2l-1,-0l-0,-1l1,0l-0,1Zm-0,-2l-1,0l-0,-1l1,0l-0,1Zm-0,-2l-1,-0l-0,-1l1,-0l-0,1Zm-0,-2l-1,0l-0,-1l1,-0l-0,1Zm-0,-2l-1,-0l-0,-1l1,0l-0,1Zm-0,-2l-1,-0l-0,-1l1,0l-0,1Zm-0,-2l-1,0l-0,-1l1,0l-0,1Zm-3,-3l0,1l-1,0l-0,-1l1,0Zm-2,0l-0,1l-1,0l-0,-1l1,0Zm-2,0l-0,1l-1,0l-0,-1l1,0Zm-2,0l-0,1l-1,0l0,-1l1,0Zm-2,0l0,1l-1,0l0,-1l1,0Zm-2,0l-0,1l-1,-0l-0,-1l1,0Zm-2,0l0,1l-1,0l-0,-1l1,0Zm-2,0l-0,1l-1,-0l0,-1l1,0Zm-2,0l-0,1l-1,0l0,-1l1,0Zm-2,0l0,1l-1,0l0,-1l1,0Z" style="fill:#6a6bd3;"/>
    </g>
</svg>
