<?xml version="1.0" encoding="UTF-8"?>
<svg width="1200px" height="400px" viewBox="0 0 1200 400" version="1.1" xmlns="http://www.w3.org/2000/svg" xmlns:xlink="http://www.w3.org/1999/xlink">
    <title>Artboard</title>
    <g id="Artboard" stroke="none" stroke-width="1" fill="none" fill-rule="evenodd">
        <rect fill="#FFFFFF" x="0" y="0" width="1200" height="400"></rect>
        <g id="fail-group" transform="translate(622, 6)">
            <g id="scrollbar" transform="translate(386, 112)">
                <rect id="Rectangle" fill="#005B85" x="0" y="0" width="44" height="240"></rect>
                <rect id="Rectangle" fill="#B1D272" x="14" y="32" width="16" height="80" rx="8"></rect>
            </g>
            <g id="back-to-top" transform="translate(0, 160)">
                <rect id="Rectangle" fill="#000F8A" x="0" y="0" width="388" height="144" rx="32"></rect>
                <path d="M43.6875,45.9375 L49.15625,45.9375 L49.15625,62.59375 C50.3854167,60.9895833 51.8541667,59.765625 53.5625,58.921875 C55.2708333,58.078125 57.125,57.65625 59.125,57.65625 C63.2916667,57.65625 66.671875,59.0885417 69.265625,61.953125 C71.859375,64.8177083 73.15625,69.0416667 73.15625,74.625 C73.15625,79.9166667 71.875,84.3125 69.3125,87.8125 C66.75,91.3125 63.1979167,93.0625 58.65625,93.0625 C56.1145833,93.0625 53.96875,92.4479167 52.21875,91.21875 C51.1770833,90.4895833 50.0625,89.3229167 48.875,87.71875 L48.875,92 L43.6875,92 L43.6875,45.9375 Z M58.3125,88.09375 C61.3541667,88.09375 63.6302083,86.8854167 65.140625,84.46875 C66.6510417,82.0520833 67.40625,78.8645833 67.40625,74.90625 C67.40625,71.3854167 66.6510417,68.46875 65.140625,66.15625 C63.6302083,63.84375 61.40625,62.6875 58.46875,62.6875 C55.90625,62.6875 53.6614583,63.6354167 51.734375,65.53125 C49.8072917,67.4270833 48.84375,70.5520833 48.84375,74.90625 C48.84375,78.0520833 49.2395833,80.6041667 50.03125,82.5625 C51.5104167,86.25 54.2708333,88.09375 58.3125,88.09375 Z" id="Shape" fill="#FFFFFF" fill-rule="nonzero"></path>
                <path d="M84.03125,83.09375 C84.03125,84.71875 84.625,86 85.8125,86.9375 C87,87.875 88.40625,88.34375 90.03125,88.34375 C92.0104167,88.34375 93.9270833,87.8854167 95.78125,86.96875 C98.90625,85.4479167 100.46875,82.9583333 100.46875,79.5 L100.46875,74.96875 C99.78125,75.40625 98.8958333,75.7708333 97.8125,76.0625 C96.7291667,76.3541667 95.6666667,76.5625 94.625,76.6875 L91.21875,77.125 C89.1770833,77.3958333 87.6458333,77.8229167 86.625,78.40625 C84.8958333,79.3854167 84.03125,80.9479167 84.03125,83.09375 Z M97.65625,71.71875 C98.9479167,71.5520833 99.8125,71.0104167 100.25,70.09375 C100.5,69.59375 100.625,68.875 100.625,67.9375 C100.625,66.0208333 99.9427083,64.6302083 98.578125,63.765625 C97.2135417,62.9010417 95.2604167,62.46875 92.71875,62.46875 C89.78125,62.46875 87.6979167,63.2604167 86.46875,64.84375 C85.78125,65.71875 85.3333333,67.0208333 85.125,68.75 L79.875,68.75 C79.9791667,64.625 81.3177083,61.7552083 83.890625,60.140625 C86.4635417,58.5260417 89.4479167,57.71875 92.84375,57.71875 C96.78125,57.71875 99.9791667,58.46875 102.4375,59.96875 C104.875,61.46875 106.09375,63.8020833 106.09375,66.96875 L106.09375,86.25 C106.09375,86.8333333 106.213542,87.3020833 106.453125,87.65625 C106.692708,88.0104167 107.197917,88.1875 107.96875,88.1875 C108.21875,88.1875 108.5,88.171875 108.8125,88.140625 C109.125,88.109375 109.458333,88.0625 109.8125,88 L109.8125,92.15625 C108.9375,92.40625 108.270833,92.5625 107.8125,92.625 C107.354167,92.6875 106.729167,92.71875 105.9375,92.71875 C104,92.71875 102.59375,92.03125 101.71875,90.65625 C101.260417,89.9270833 100.9375,88.8958333 100.75,87.5625 C99.6041667,89.0625 97.9583333,90.3645833 95.8125,91.46875 C93.6666667,92.5729167 91.3020833,93.125 88.71875,93.125 C85.6145833,93.125 83.078125,92.1822917 81.109375,90.296875 C79.140625,88.4114583 78.15625,86.0520833 78.15625,83.21875 C78.15625,80.1145833 79.125,77.7083333 81.0625,76 C83,74.2916667 85.5416667,73.2395833 88.6875,72.84375 L97.65625,71.71875 Z" id="Shape" fill="#FFFFFF" fill-rule="nonzero"></path>
                <path d="M128.21875,57.5625 C131.989583,57.5625 135.057292,58.4791667 137.421875,60.3125 C139.786458,62.1458333 141.208333,65.3020833 141.6875,69.78125 L136.21875,69.78125 C135.885417,67.71875 135.125,66.0052083 133.9375,64.640625 C132.75,63.2760417 130.84375,62.59375 128.21875,62.59375 C124.635417,62.59375 122.072917,64.34375 120.53125,67.84375 C119.53125,70.1145833 119.03125,72.9166667 119.03125,76.25 C119.03125,79.6041667 119.739583,82.4270833 121.15625,84.71875 C122.572917,87.0104167 124.802083,88.15625 127.84375,88.15625 C130.177083,88.15625 132.026042,87.4427083 133.390625,86.015625 C134.755208,84.5885417 135.697917,82.6354167 136.21875,80.15625 L141.6875,80.15625 C141.0625,84.59375 139.5,87.8385417 137,89.890625 C134.5,91.9427083 131.302083,92.96875 127.40625,92.96875 C123.03125,92.96875 119.541667,91.3697917 116.9375,88.171875 C114.333333,84.9739583 113.03125,80.9791667 113.03125,76.1875 C113.03125,70.3125 114.458333,65.7395833 117.3125,62.46875 C120.166667,59.1979167 123.802083,57.5625 128.21875,57.5625 Z" id="Path" fill="#FFFFFF" fill-rule="nonzero"></path>
                <polygon id="Path" fill="#FFFFFF" fill-rule="nonzero" points="147.1875 46.09375 152.59375 46.09375 152.59375 72.75 167.03125 58.53125 174.21875 58.53125 161.40625 71.0625 174.9375 92 167.75 92 157.3125 75.125 152.59375 79.4375 152.59375 92 147.1875 92"></polygon>
                <path d="M198.21875,49.1875 L203.90625,49.1875 L203.90625,58.53125 L209.25,58.53125 L209.25,63.125 L203.90625,63.125 L203.90625,84.96875 C203.90625,86.1354167 204.302083,86.9166667 205.09375,87.3125 C205.53125,87.5416667 206.260417,87.65625 207.28125,87.65625 C207.552083,87.65625 207.84375,87.6510417 208.15625,87.640625 C208.46875,87.6302083 208.833333,87.6041667 209.25,87.5625 L209.25,92 C208.604167,92.1875 207.932292,92.3229167 207.234375,92.40625 C206.536458,92.4895833 205.78125,92.53125 204.96875,92.53125 C202.34375,92.53125 200.5625,91.859375 199.625,90.515625 C198.6875,89.171875 198.21875,87.4270833 198.21875,85.28125 L198.21875,63.125 L193.6875,63.125 L193.6875,58.53125 L198.21875,58.53125 L198.21875,49.1875 Z" id="Path" fill="#FFFFFF" fill-rule="nonzero"></path>
                <path d="M228.15625,88.375 C231.885417,88.375 234.442708,86.9635417 235.828125,84.140625 C237.213542,81.3177083 237.90625,78.1770833 237.90625,74.71875 C237.90625,71.59375 237.40625,69.0520833 236.40625,67.09375 C234.822917,64.0104167 232.09375,62.46875 228.21875,62.46875 C224.78125,62.46875 222.28125,63.78125 220.71875,66.40625 C219.15625,69.03125 218.375,72.1979167 218.375,75.90625 C218.375,79.46875 219.15625,82.4375 220.71875,84.8125 C222.28125,87.1875 224.760417,88.375 228.15625,88.375 Z M228.375,57.5625 C232.6875,57.5625 236.333333,59 239.3125,61.875 C242.291667,64.75 243.78125,68.9791667 243.78125,74.5625 C243.78125,79.9583333 242.46875,84.4166667 239.84375,87.9375 C237.21875,91.4583333 233.145833,93.21875 227.625,93.21875 C223.020833,93.21875 219.364583,91.6614583 216.65625,88.546875 C213.947917,85.4322917 212.59375,81.25 212.59375,76 C212.59375,70.375 214.020833,65.8958333 216.875,62.5625 C219.729167,59.2291667 223.5625,57.5625 228.375,57.5625 Z" id="Shape" fill="#FFFFFF" fill-rule="nonzero"></path>
                <path d="M269.375,49.1875 L275.0625,49.1875 L275.0625,58.53125 L280.40625,58.53125 L280.40625,63.125 L275.0625,63.125 L275.0625,84.96875 C275.0625,86.1354167 275.458333,86.9166667 276.25,87.3125 C276.6875,87.5416667 277.416667,87.65625 278.4375,87.65625 C278.708333,87.65625 279,87.6510417 279.3125,87.640625 C279.625,87.6302083 279.989583,87.6041667 280.40625,87.5625 L280.40625,92 C279.760417,92.1875 279.088542,92.3229167 278.390625,92.40625 C277.692708,92.4895833 276.9375,92.53125 276.125,92.53125 C273.5,92.53125 271.71875,91.859375 270.78125,90.515625 C269.84375,89.171875 269.375,87.4270833 269.375,85.28125 L269.375,63.125 L264.84375,63.125 L264.84375,58.53125 L269.375,58.53125 L269.375,49.1875 Z" id="Path" fill="#FFFFFF" fill-rule="nonzero"></path>
                <path d="M299.3125,88.375 C303.041667,88.375 305.598958,86.9635417 306.984375,84.140625 C308.369792,81.3177083 309.0625,78.1770833 309.0625,74.71875 C309.0625,71.59375 308.5625,69.0520833 307.5625,67.09375 C305.979167,64.0104167 303.25,62.46875 299.375,62.46875 C295.9375,62.46875 293.4375,63.78125 291.875,66.40625 C290.3125,69.03125 289.53125,72.1979167 289.53125,75.90625 C289.53125,79.46875 290.3125,82.4375 291.875,84.8125 C293.4375,87.1875 295.916667,88.375 299.3125,88.375 Z M299.53125,57.5625 C303.84375,57.5625 307.489583,59 310.46875,61.875 C313.447917,64.75 314.9375,68.9791667 314.9375,74.5625 C314.9375,79.9583333 313.625,84.4166667 311,87.9375 C308.375,91.4583333 304.302083,93.21875 298.78125,93.21875 C294.177083,93.21875 290.520833,91.6614583 287.8125,88.546875 C285.104167,85.4322917 283.75,81.25 283.75,76 C283.75,70.375 285.177083,65.8958333 288.03125,62.5625 C290.885417,59.2291667 294.71875,57.5625 299.53125,57.5625 Z" id="Shape" fill="#FFFFFF" fill-rule="nonzero"></path>
                <path d="M335.75,88.21875 C338.375,88.21875 340.557292,87.1197917 342.296875,84.921875 C344.036458,82.7239583 344.90625,79.4375 344.90625,75.0625 C344.90625,72.3958333 344.520833,70.1041667 343.75,68.1875 C342.291667,64.5 339.625,62.65625 335.75,62.65625 C331.854167,62.65625 329.1875,64.6041667 327.75,68.5 C326.979167,70.5833333 326.59375,73.2291667 326.59375,76.4375 C326.59375,79.0208333 326.979167,81.21875 327.75,83.03125 C329.208333,86.4895833 331.875,88.21875 335.75,88.21875 Z M321.1875,58.6875 L326.65625,58.6875 L326.65625,63.125 C327.78125,61.6041667 329.010417,60.4270833 330.34375,59.59375 C332.239583,58.34375 334.46875,57.71875 337.03125,57.71875 C340.822917,57.71875 344.041667,59.171875 346.6875,62.078125 C349.333333,64.984375 350.65625,69.1354167 350.65625,74.53125 C350.65625,81.8229167 348.75,87.03125 344.9375,90.15625 C342.520833,92.1354167 339.708333,93.125 336.5,93.125 C333.979167,93.125 331.864583,92.5729167 330.15625,91.46875 C329.15625,90.84375 328.041667,89.7708333 326.8125,88.25 L326.8125,105.34375 L321.1875,105.34375 L321.1875,58.6875 Z" id="Shape" fill="#FFFFFF" fill-rule="nonzero"></path>
            </g>
            <circle id="Oval" stroke="#CA2626" stroke-width="4" fill-opacity="0.2" fill="#CA2626" cx="408" cy="228" r="46"></circle>
            <text id="FAIL" font-family="Arial-Black, Arial Black" font-size="80" font-weight="700" fill="#AB2020">
                <tspan x="132" y="88">FAIL</tspan>
            </text>
        </g>
        <g id="pass-group" transform="translate(40, 6)">
            <g id="scrollbar" transform="translate(414, 112)">
                <rect id="Rectangle" fill="#005B85" x="0" y="0" width="44" height="240"></rect>
                <rect id="Rectangle" fill="#B1D272" x="14" y="32" width="16" height="80" rx="8"></rect>
            </g>
            <g id="back-to-top" transform="translate(0, 160)">
                <rect id="Rectangle" fill="#000F8A" x="0" y="0" width="388" height="144" rx="32"></rect>
                <path d="M43.6875,45.9375 L49.15625,45.9375 L49.15625,62.59375 C50.3854167,60.9895833 51.8541667,59.765625 53.5625,58.921875 C55.2708333,58.078125 57.125,57.65625 59.125,57.65625 C63.2916667,57.65625 66.671875,59.0885417 69.265625,61.953125 C71.859375,64.8177083 73.15625,69.0416667 73.15625,74.625 C73.15625,79.9166667 71.875,84.3125 69.3125,87.8125 C66.75,91.3125 63.1979167,93.0625 58.65625,93.0625 C56.1145833,93.0625 53.96875,92.4479167 52.21875,91.21875 C51.1770833,90.4895833 50.0625,89.3229167 48.875,87.71875 L48.875,92 L43.6875,92 L43.6875,45.9375 Z M58.3125,88.09375 C61.3541667,88.09375 63.6302083,86.8854167 65.140625,84.46875 C66.6510417,82.0520833 67.40625,78.8645833 67.40625,74.90625 C67.40625,71.3854167 66.6510417,68.46875 65.140625,66.15625 C63.6302083,63.84375 61.40625,62.6875 58.46875,62.6875 C55.90625,62.6875 53.6614583,63.6354167 51.734375,65.53125 C49.8072917,67.4270833 48.84375,70.5520833 48.84375,74.90625 C48.84375,78.0520833 49.2395833,80.6041667 50.03125,82.5625 C51.5104167,86.25 54.2708333,88.09375 58.3125,88.09375 Z" id="Shape" fill="#FFFFFF" fill-rule="nonzero"></path>
                <path d="M84.03125,83.09375 C84.03125,84.71875 84.625,86 85.8125,86.9375 C87,87.875 88.40625,88.34375 90.03125,88.34375 C92.0104167,88.34375 93.9270833,87.8854167 95.78125,86.96875 C98.90625,85.4479167 100.46875,82.9583333 100.46875,79.5 L100.46875,74.96875 C99.78125,75.40625 98.8958333,75.7708333 97.8125,76.0625 C96.7291667,76.3541667 95.6666667,76.5625 94.625,76.6875 L91.21875,77.125 C89.1770833,77.3958333 87.6458333,77.8229167 86.625,78.40625 C84.8958333,79.3854167 84.03125,80.9479167 84.03125,83.09375 Z M97.65625,71.71875 C98.9479167,71.5520833 99.8125,71.0104167 100.25,70.09375 C100.5,69.59375 100.625,68.875 100.625,67.9375 C100.625,66.0208333 99.9427083,64.6302083 98.578125,63.765625 C97.2135417,62.9010417 95.2604167,62.46875 92.71875,62.46875 C89.78125,62.46875 87.6979167,63.2604167 86.46875,64.84375 C85.78125,65.71875 85.3333333,67.0208333 85.125,68.75 L79.875,68.75 C79.9791667,64.625 81.3177083,61.7552083 83.890625,60.140625 C86.4635417,58.5260417 89.4479167,57.71875 92.84375,57.71875 C96.78125,57.71875 99.9791667,58.46875 102.4375,59.96875 C104.875,61.46875 106.09375,63.8020833 106.09375,66.96875 L106.09375,86.25 C106.09375,86.8333333 106.213542,87.3020833 106.453125,87.65625 C106.692708,88.0104167 107.197917,88.1875 107.96875,88.1875 C108.21875,88.1875 108.5,88.171875 108.8125,88.140625 C109.125,88.109375 109.458333,88.0625 109.8125,88 L109.8125,92.15625 C108.9375,92.40625 108.270833,92.5625 107.8125,92.625 C107.354167,92.6875 106.729167,92.71875 105.9375,92.71875 C104,92.71875 102.59375,92.03125 101.71875,90.65625 C101.260417,89.9270833 100.9375,88.8958333 100.75,87.5625 C99.6041667,89.0625 97.9583333,90.3645833 95.8125,91.46875 C93.6666667,92.5729167 91.3020833,93.125 88.71875,93.125 C85.6145833,93.125 83.078125,92.1822917 81.109375,90.296875 C79.140625,88.4114583 78.15625,86.0520833 78.15625,83.21875 C78.15625,80.1145833 79.125,77.7083333 81.0625,76 C83,74.2916667 85.5416667,73.2395833 88.6875,72.84375 L97.65625,71.71875 Z" id="Shape" fill="#FFFFFF" fill-rule="nonzero"></path>
                <path d="M128.21875,57.5625 C131.989583,57.5625 135.057292,58.4791667 137.421875,60.3125 C139.786458,62.1458333 141.208333,65.3020833 141.6875,69.78125 L136.21875,69.78125 C135.885417,67.71875 135.125,66.0052083 133.9375,64.640625 C132.75,63.2760417 130.84375,62.59375 128.21875,62.59375 C124.635417,62.59375 122.072917,64.34375 120.53125,67.84375 C119.53125,70.1145833 119.03125,72.9166667 119.03125,76.25 C119.03125,79.6041667 119.739583,82.4270833 121.15625,84.71875 C122.572917,87.0104167 124.802083,88.15625 127.84375,88.15625 C130.177083,88.15625 132.026042,87.4427083 133.390625,86.015625 C134.755208,84.5885417 135.697917,82.6354167 136.21875,80.15625 L141.6875,80.15625 C141.0625,84.59375 139.5,87.8385417 137,89.890625 C134.5,91.9427083 131.302083,92.96875 127.40625,92.96875 C123.03125,92.96875 119.541667,91.3697917 116.9375,88.171875 C114.333333,84.9739583 113.03125,80.9791667 113.03125,76.1875 C113.03125,70.3125 114.458333,65.7395833 117.3125,62.46875 C120.166667,59.1979167 123.802083,57.5625 128.21875,57.5625 Z" id="Path" fill="#FFFFFF" fill-rule="nonzero"></path>
                <polygon id="Path" fill="#FFFFFF" fill-rule="nonzero" points="147.1875 46.09375 152.59375 46.09375 152.59375 72.75 167.03125 58.53125 174.21875 58.53125 161.40625 71.0625 174.9375 92 167.75 92 157.3125 75.125 152.59375 79.4375 152.59375 92 147.1875 92"></polygon>
                <path d="M198.21875,49.1875 L203.90625,49.1875 L203.90625,58.53125 L209.25,58.53125 L209.25,63.125 L203.90625,63.125 L203.90625,84.96875 C203.90625,86.1354167 204.302083,86.9166667 205.09375,87.3125 C205.53125,87.5416667 206.260417,87.65625 207.28125,87.65625 C207.552083,87.65625 207.84375,87.6510417 208.15625,87.640625 C208.46875,87.6302083 208.833333,87.6041667 209.25,87.5625 L209.25,92 C208.604167,92.1875 207.932292,92.3229167 207.234375,92.40625 C206.536458,92.4895833 205.78125,92.53125 204.96875,92.53125 C202.34375,92.53125 200.5625,91.859375 199.625,90.515625 C198.6875,89.171875 198.21875,87.4270833 198.21875,85.28125 L198.21875,63.125 L193.6875,63.125 L193.6875,58.53125 L198.21875,58.53125 L198.21875,49.1875 Z" id="Path" fill="#FFFFFF" fill-rule="nonzero"></path>
                <path d="M228.15625,88.375 C231.885417,88.375 234.442708,86.9635417 235.828125,84.140625 C237.213542,81.3177083 237.90625,78.1770833 237.90625,74.71875 C237.90625,71.59375 237.40625,69.0520833 236.40625,67.09375 C234.822917,64.0104167 232.09375,62.46875 228.21875,62.46875 C224.78125,62.46875 222.28125,63.78125 220.71875,66.40625 C219.15625,69.03125 218.375,72.1979167 218.375,75.90625 C218.375,79.46875 219.15625,82.4375 220.71875,84.8125 C222.28125,87.1875 224.760417,88.375 228.15625,88.375 Z M228.375,57.5625 C232.6875,57.5625 236.333333,59 239.3125,61.875 C242.291667,64.75 243.78125,68.9791667 243.78125,74.5625 C243.78125,79.9583333 242.46875,84.4166667 239.84375,87.9375 C237.21875,91.4583333 233.145833,93.21875 227.625,93.21875 C223.020833,93.21875 219.364583,91.6614583 216.65625,88.546875 C213.947917,85.4322917 212.59375,81.25 212.59375,76 C212.59375,70.375 214.020833,65.8958333 216.875,62.5625 C219.729167,59.2291667 223.5625,57.5625 228.375,57.5625 Z" id="Shape" fill="#FFFFFF" fill-rule="nonzero"></path>
                <path d="M269.375,49.1875 L275.0625,49.1875 L275.0625,58.53125 L280.40625,58.53125 L280.40625,63.125 L275.0625,63.125 L275.0625,84.96875 C275.0625,86.1354167 275.458333,86.9166667 276.25,87.3125 C276.6875,87.5416667 277.416667,87.65625 278.4375,87.65625 C278.708333,87.65625 279,87.6510417 279.3125,87.640625 C279.625,87.6302083 279.989583,87.6041667 280.40625,87.5625 L280.40625,92 C279.760417,92.1875 279.088542,92.3229167 278.390625,92.40625 C277.692708,92.4895833 276.9375,92.53125 276.125,92.53125 C273.5,92.53125 271.71875,91.859375 270.78125,90.515625 C269.84375,89.171875 269.375,87.4270833 269.375,85.28125 L269.375,63.125 L264.84375,63.125 L264.84375,58.53125 L269.375,58.53125 L269.375,49.1875 Z" id="Path" fill="#FFFFFF" fill-rule="nonzero"></path>
                <path d="M299.3125,88.375 C303.041667,88.375 305.598958,86.9635417 306.984375,84.140625 C308.369792,81.3177083 309.0625,78.1770833 309.0625,74.71875 C309.0625,71.59375 308.5625,69.0520833 307.5625,67.09375 C305.979167,64.0104167 303.25,62.46875 299.375,62.46875 C295.9375,62.46875 293.4375,63.78125 291.875,66.40625 C290.3125,69.03125 289.53125,72.1979167 289.53125,75.90625 C289.53125,79.46875 290.3125,82.4375 291.875,84.8125 C293.4375,87.1875 295.916667,88.375 299.3125,88.375 Z M299.53125,57.5625 C303.84375,57.5625 307.489583,59 310.46875,61.875 C313.447917,64.75 314.9375,68.9791667 314.9375,74.5625 C314.9375,79.9583333 313.625,84.4166667 311,87.9375 C308.375,91.4583333 304.302083,93.21875 298.78125,93.21875 C294.177083,93.21875 290.520833,91.6614583 287.8125,88.546875 C285.104167,85.4322917 283.75,81.25 283.75,76 C283.75,70.375 285.177083,65.8958333 288.03125,62.5625 C290.885417,59.2291667 294.71875,57.5625 299.53125,57.5625 Z" id="Shape" fill="#FFFFFF" fill-rule="nonzero"></path>
                <path d="M335.75,88.21875 C338.375,88.21875 340.557292,87.1197917 342.296875,84.921875 C344.036458,82.7239583 344.90625,79.4375 344.90625,75.0625 C344.90625,72.3958333 344.520833,70.1041667 343.75,68.1875 C342.291667,64.5 339.625,62.65625 335.75,62.65625 C331.854167,62.65625 329.1875,64.6041667 327.75,68.5 C326.979167,70.5833333 326.59375,73.2291667 326.59375,76.4375 C326.59375,79.0208333 326.979167,81.21875 327.75,83.03125 C329.208333,86.4895833 331.875,88.21875 335.75,88.21875 Z M321.1875,58.6875 L326.65625,58.6875 L326.65625,63.125 C327.78125,61.6041667 329.010417,60.4270833 330.34375,59.59375 C332.239583,58.34375 334.46875,57.71875 337.03125,57.71875 C340.822917,57.71875 344.041667,59.171875 346.6875,62.078125 C349.333333,64.984375 350.65625,69.1354167 350.65625,74.53125 C350.65625,81.8229167 348.75,87.03125 344.9375,90.15625 C342.520833,92.1354167 339.708333,93.125 336.5,93.125 C333.979167,93.125 331.864583,92.5729167 330.15625,91.46875 C329.15625,90.84375 328.041667,89.7708333 326.8125,88.25 L326.8125,105.34375 L321.1875,105.34375 L321.1875,58.6875 Z" id="Shape" fill="#FFFFFF" fill-rule="nonzero"></path>
            </g>
            <circle id="Oval" stroke="#1C7026" stroke-width="4" fill-opacity="0.2" fill="#00FF41" cx="436" cy="228" r="46"></circle>
            <text id="PASS" font-family="Arial-Black, Arial Black" font-size="80" font-weight="700" fill="#186723">
                <tspan x="122" y="88">PASS</tspan>
            </text>
        </g>
    </g>
</svg>