<?xml version="1.0" encoding="UTF-8" standalone="no"?>
<!DOCTYPE svg PUBLIC "-//W3C//DTD SVG 1.1//EN" "http://www.w3.org/Graphics/SVG/1.1/DTD/svg11.dtd">
<svg width="100%" height="100%" viewBox="0 0 250 105" version="1.1" xmlns="http://www.w3.org/2000/svg" xmlns:xlink="http://www.w3.org/1999/xlink" xml:space="preserve" xmlns:serif="http://www.serif.com/" style="fill-rule:evenodd;clip-rule:evenodd;stroke-miterlimit:10;">
    <rect id="target-size-undersized-rounded" serif:id="target size undersized rounded" x="0" y="0" width="250" height="105" style="fill:none;"/>
    <clipPath id="_clip1">
        <rect id="target-size-undersized-rounded1" serif:id="target size undersized rounded" x="0" y="0" width="250" height="105"/>
    </clipPath>
    <g clip-path="url(#_clip1)">
        <rect id="background" x="-0" y="0" width="250" height="105" style="fill:#fff;"/>
        <g id="scaled">
            <path d="M48.5,31.707l-3,-3l-3,3" style="fill:none;stroke:#000;stroke-width:1px;"/>
            <path d="M48.5,48.293l-3,3l-3,-3" style="fill:none;stroke:#000;stroke-width:1px;"/>
            <path d="M45.5,28.707l-0,22.586" style="fill:none;stroke:#000;stroke-width:1px;stroke-miterlimit:1;"/>
            <path d="M12.871,39.28c-0.036,-1.02 0.468,-2.112 1.657,-2.112c0.9,-0 1.645,0.612 1.645,1.536c-0,1.176 -0.733,1.704 -2.173,2.592c-1.201,0.745 -2.219,1.465 -2.387,3.48l5.554,-0l0,-0.899l-4.368,0c0.204,-1.056 1.321,-1.596 2.389,-2.244c1.057,-0.661 2.063,-1.417 2.063,-2.917c0,-1.584 -1.174,-2.447 -2.663,-2.447c-1.801,0 -2.819,1.283 -2.735,3.011l1.018,0Z" style="fill-rule:nonzero;"/>
            <path d="M23.023,36.269l-0.814,0l-3.876,5.532l-0,0.983l3.732,-0l-0,1.992l0.958,-0l0,-1.992l1.152,-0l0,-0.899l-1.152,0l0,-5.616Zm-3.814,5.616l2.832,-4.164l0.024,0l-0,4.164l-2.856,0Z" style="fill-rule:nonzero;"/>
            <path d="M30.273,41.62c-0,1.213 -0.468,2.401 -1.861,2.401c-1.405,0 -1.957,-1.128 -1.957,-2.353c0,-1.164 0.528,-2.34 1.897,-2.34c1.321,-0 1.921,1.128 1.921,2.292Zm-4.8,5.532l1.018,-0l0,-3.203l0.024,0c0.456,0.731 1.369,0.971 2.005,0.971c1.897,-0 2.831,-1.475 2.831,-3.228c0,-1.752 -0.946,-3.263 -2.855,-3.263c-0.852,0 -1.645,0.3 -1.981,0.983l-0.024,-0l0,-0.839l-1.018,0l-0,8.579Z" style="fill-rule:nonzero;"/>
            <path d="M31.893,44.776l1.235,-0l1.728,-2.578l1.728,2.578l1.307,-0l-2.399,-3.36l2.135,-2.843l-1.223,0l-1.548,2.162l-1.488,-2.162l-1.307,0l2.159,2.939l-2.327,3.264Z" style="fill-rule:nonzero;"/>
            <path d="M55.709,71.072c-0.036,-1.021 0.468,-2.113 1.657,-2.113c0.9,0 1.645,0.612 1.645,1.537c-0,1.176 -0.733,1.704 -2.173,2.592c-1.201,0.744 -2.219,1.464 -2.387,3.479l5.554,0l0,-0.898l-4.368,-0c0.204,-1.056 1.321,-1.597 2.389,-2.245c1.057,-0.66 2.063,-1.416 2.063,-2.916c0,-1.585 -1.174,-2.447 -2.663,-2.447c-1.801,-0 -2.819,1.282 -2.735,3.011l1.018,-0Z" style="fill-rule:nonzero;"/>
            <path d="M65.861,68.061l-0.814,-0l-3.876,5.532l-0,0.982l3.732,0l-0,1.992l0.958,0l0,-1.992l1.152,0l0,-0.898l-1.152,-0l0,-5.616Zm-3.814,5.616l2.832,-4.164l0.024,-0l-0,4.164l-2.856,-0Z" style="fill-rule:nonzero;"/>
            <path d="M73.111,73.412c-0,1.212 -0.468,2.401 -1.861,2.401c-1.405,-0 -1.957,-1.129 -1.957,-2.353c0,-1.164 0.528,-2.341 1.897,-2.341c1.321,0 1.921,1.129 1.921,2.293Zm-4.8,5.531l1.018,0l0,-3.202l0.024,-0c0.456,0.731 1.369,0.97 2.005,0.97c1.897,0 2.831,-1.474 2.831,-3.227c0,-1.753 -0.946,-3.263 -2.855,-3.263c-0.852,-0 -1.645,0.299 -1.981,0.982l-0.024,0l0,-0.838l-1.018,-0l-0,8.578Z" style="fill-rule:nonzero;"/>
            <path d="M74.731,76.567l1.235,0l1.728,-2.577l1.728,2.577l1.307,0l-2.399,-3.36l2.135,-2.842l-1.223,-0l-1.548,2.161l-1.488,-2.161l-1.307,-0l2.159,2.938l-2.327,3.264Z" style="fill-rule:nonzero;"/>
            <path d="M58.707,58.5l-3,3l3,3" style="fill:none;stroke:#000;stroke-width:1px;"/>
            <path d="M75.293,58.5l3,3l-3,3" style="fill:none;stroke:#000;stroke-width:1px;"/>
            <path d="M55.707,61.5l22.586,-0" style="fill:none;stroke:#000;stroke-width:1px;stroke-miterlimit:1;"/>
            <path d="M79,36.4c-0,-4.636 -3.764,-8.4 -8.4,-8.4l-7.2,0c-4.636,0 -8.4,3.764 -8.4,8.4l-0,7.2c-0,4.636 3.764,8.4 8.4,8.4l7.2,0c4.636,0 8.4,-3.764 8.4,-8.4l-0,-7.2Z" style="fill:#e0e0ea;"/>
            <path d="M79,36.4l-0,7.2c-0,4.636 -3.764,8.4 -8.4,8.4l-7.2,0c-4.636,0 -8.4,-3.764 -8.4,-8.4l-0,-7.2c-0,-4.636 3.764,-8.4 8.4,-8.4l7.2,0c4.636,0 8.4,3.764 8.4,8.4Zm-1,-0c-0,-4.084 -3.316,-7.4 -7.4,-7.4l-7.2,0c-4.084,0 -7.4,3.316 -7.4,7.4l-0,7.2c-0,4.084 3.316,7.4 7.4,7.4l7.2,0c4.084,0 7.4,-3.316 7.4,-7.4l-0,-7.2Z" style="fill:#949494;"/>
            <path id="_24x24-square" serif:id="24x24 square" d="M55,30l0,-2l1,0l-0,2l-1,-0Zm22,-2l2,0l-0,1l-2,-0l0,-1Zm2,22l-0,2l-1,-0l-0,-2l1,0Zm-22,2l-2,-0l0,-1l2,0l-0,1Zm-2,-21l1,-0l-0,1l-1,0l0,-1Zm0,2l1,0l-0,1l-1,0l0,-1Zm0,2l1,0l-0,1l-1,0l0,-1Zm0,2l1,0l-0,1l-1,-0l0,-1Zm0,2l1,-0l-0,1l-1,-0l0,-1Zm0,2l1,0l-0,1l-1,0l0,-1Zm0,2l1,-0l-0,1l-1,0l0,-1Zm0,2l1,0l-0,1l-1,-0l0,-1Zm0,2l1,0l-0,1l-1,-0l0,-1Zm0,2l1,-0l-0,1l-1,-0l0,-1Zm3,3l-0,-1l1,-0l0,1l-1,-0Zm2,-0l0,-1l1,-0l0,1l-1,-0Zm2,-0l0,-1l1,-0l0,1l-1,-0Zm2,-0l0,-1l1,-0l-0,1l-1,-0Zm2,-0l-0,-1l1,-0l-0,1l-1,-0Zm2,-0l0,-1l1,-0l0,1l-1,-0Zm2,-0l-0,-1l1,-0l0,1l-1,-0Zm2,-0l0,-1l1,-0l-0,1l-1,-0Zm2,-0l0,-1l1,0l-0,1l-1,-0Zm2,-0l-0,-1l1,0l-0,1l-1,-0Zm3,-3l-1,0l-0,-1l1,-0l-0,1Zm-0,-2l-1,-0l0,-1l1,-0l-0,1Zm-0,-2l-1,-0l0,-1l1,-0l-0,1Zm-0,-2l-1,-0l-0,-1l1,0l-0,1Zm-0,-2l-1,0l-0,-1l1,0l-0,1Zm-0,-2l-1,-0l-0,-1l1,-0l-0,1Zm-0,-2l-1,0l-0,-1l1,-0l-0,1Zm-0,-2l-1,-0l-0,-1l1,0l-0,1Zm-0,-2l-1,-0l-0,-1l1,0l-0,1Zm-0,-2l-1,0l-0,-1l1,0l-0,1Zm-3,-3l0,1l-1,0l-0,-1l1,0Zm-2,0l-0,1l-1,-0l-0,-1l1,0Zm-2,0l-0,1l-1,0l-0,-1l1,0Zm-2,0l-0,1l-1,0l0,-1l1,0Zm-2,0l0,1l-1,0l0,-1l1,0Zm-2,0l-0,1l-1,-0l-0,-1l1,0Zm-2,0l0,1l-1,0l-0,-1l1,0Zm-2,0l-0,1l-1,-0l0,-1l1,0Zm-2,0l-0,1l-1,0l0,-1l1,0Zm-2,0l0,1l-1,0l0,-1l1,0Z" style="fill:#6a6bd3;"/>
        </g>
        <g id="_2x-scale" serif:id="2x scale">
            <path d="M165.5,20.707l-3,-3l-3,3" style="fill:none;stroke:#000;stroke-width:1px;"/>
            <path d="M165.5,61.293l-3,3l-3,-3" style="fill:none;stroke:#000;stroke-width:1px;"/>
            <path d="M162.5,17.707l0,46.586" style="fill:none;stroke:#000;stroke-width:1px;stroke-miterlimit:1;"/>
            <path d="M129.871,39.056c-0.036,-1.02 0.468,-2.113 1.657,-2.113c0.9,0 1.645,0.612 1.645,1.537c-0,1.176 -0.733,1.704 -2.173,2.592c-1.201,0.744 -2.219,1.465 -2.387,3.479l5.554,0l0,-0.898l-4.368,-0c0.204,-1.056 1.321,-1.597 2.389,-2.245c1.057,-0.66 2.063,-1.416 2.063,-2.916c0,-1.585 -1.174,-2.447 -2.663,-2.447c-1.801,-0 -2.819,1.282 -2.735,3.011l1.018,-0Z" style="fill-rule:nonzero;"/>
            <path d="M140.023,36.045l-0.814,-0l-3.876,5.532l-0,0.982l3.732,0l-0,1.992l0.958,0l0,-1.992l1.152,0l0,-0.898l-1.152,-0l0,-5.616Zm-3.814,5.616l2.832,-4.164l0.024,-0l-0,4.164l-2.856,-0Z" style="fill-rule:nonzero;"/>
            <path d="M147.273,41.396c-0,1.212 -0.468,2.401 -1.861,2.401c-1.405,-0 -1.957,-1.129 -1.957,-2.353c0,-1.164 0.528,-2.341 1.897,-2.341c1.321,0 1.921,1.129 1.921,2.293Zm-4.8,5.531l1.018,0l0,-3.202l0.024,-0c0.456,0.731 1.369,0.97 2.005,0.97c1.897,0 2.831,-1.474 2.831,-3.227c0,-1.752 -0.946,-3.263 -2.855,-3.263c-0.852,-0 -1.645,0.299 -1.981,0.982l-0.024,0l0,-0.838l-1.018,-0l-0,8.578Z" style="fill-rule:nonzero;"/>
            <path d="M148.893,44.551l1.235,0l1.728,-2.577l1.728,2.577l1.307,0l-2.399,-3.36l2.135,-2.842l-1.223,-0l-1.548,2.162l-1.488,-2.162l-1.307,-0l2.159,2.938l-2.327,3.264Z" style="fill-rule:nonzero;"/>
            <path d="M184.709,85.072c-0.036,-1.021 0.468,-2.113 1.657,-2.113c0.9,0 1.645,0.612 1.645,1.537c-0,1.176 -0.733,1.704 -2.173,2.592c-1.201,0.744 -2.219,1.464 -2.387,3.479l5.554,0l0,-0.898l-4.368,-0c0.204,-1.056 1.321,-1.597 2.389,-2.245c1.057,-0.66 2.063,-1.416 2.063,-2.916c0,-1.585 -1.174,-2.447 -2.663,-2.447c-1.801,-0 -2.819,1.282 -2.735,3.011l1.018,-0Z" style="fill-rule:nonzero;"/>
            <path d="M194.861,82.061l-0.814,-0l-3.876,5.532l-0,0.982l3.732,0l-0,1.992l0.958,0l0,-1.992l1.152,0l0,-0.898l-1.152,-0l0,-5.616Zm-3.814,5.616l2.832,-4.164l0.024,-0l-0,4.164l-2.856,-0Z" style="fill-rule:nonzero;"/>
            <path d="M202.111,87.412c-0,1.212 -0.468,2.401 -1.861,2.401c-1.405,-0 -1.957,-1.129 -1.957,-2.353c0,-1.164 0.528,-2.341 1.897,-2.341c1.321,0 1.921,1.129 1.921,2.293Zm-4.8,5.531l1.018,0l0,-3.202l0.024,-0c0.456,0.731 1.369,0.97 2.005,0.97c1.897,0 2.831,-1.474 2.831,-3.227c0,-1.753 -0.946,-3.263 -2.855,-3.263c-0.852,-0 -1.645,0.299 -1.981,0.982l-0.024,0l0,-0.838l-1.018,-0l-0,8.578Z" style="fill-rule:nonzero;"/>
            <path d="M203.731,90.567l1.235,0l1.728,-2.577l1.728,2.577l1.307,0l-2.399,-3.36l2.135,-2.842l-1.223,-0l-1.548,2.161l-1.488,-2.161l-1.307,-0l2.159,2.938l-2.327,3.264Z" style="fill-rule:nonzero;"/>
            <path d="M175.707,71.5l-3,3l3,3" style="fill:none;stroke:#000;stroke-width:1px;"/>
            <path d="M216.293,71.5l3,3l-3,3" style="fill:none;stroke:#000;stroke-width:1px;"/>
            <path d="M172.707,74.5l46.586,-0" style="fill:none;stroke:#000;stroke-width:1px;stroke-miterlimit:1;"/>
            <path d="M220,33.801c0,-9.272 -7.528,-16.8 -16.8,-16.8l-14.4,-0c-9.272,-0 -16.8,7.528 -16.8,16.8l0,14.4c0,9.272 7.528,16.8 16.8,16.8l14.4,-0c9.272,-0 16.8,-7.528 16.8,-16.8l0,-14.4Z" style="fill:#e0e0ea;"/>
            <path d="M220,33.801l0,14.4c0,9.272 -7.528,16.8 -16.8,16.8l-14.4,-0c-9.272,-0 -16.8,-7.528 -16.8,-16.8l0,-14.4c0,-9.272 7.528,-16.8 16.8,-16.8l14.4,-0c9.272,-0 16.8,7.528 16.8,16.8Zm-1,-0c0,-8.721 -7.08,-15.8 -15.8,-15.8l-14.4,-0c-8.72,-0 -15.8,7.079 -15.8,15.8l0,14.4c0,8.72 7.08,15.8 15.8,15.8l14.4,-0c8.72,-0 15.8,-7.08 15.8,-15.8l0,-14.4Z" style="fill:#949494;"/>
            <path id="_24x24-square1" serif:id="24x24 square" d="M173,17.001l-0,1l-0,1l-1,-0l-0,-1c-0,-0 0.325,-0.632 0.605,-1l0.395,-0Zm-1,3l1,-0l0,1l-1,-0l0,-1Zm0,2l1,-0l0,1l-1,-0l0,-1Zm0,2l1,-0l0,1l-1,-0l0,-1Zm0,2l1,-0l0,1l-1,-0l0,-1Zm0,2l1,-0l0,1l-1,-0l0,-1Zm0,2l1,-0l0,1l-1,-0l0,-1Zm0,2l1,-0l0,1l-1,-0l0,-1Zm0,2l1,-0l0,1l-1,-0l0,-1Zm0,2l1,-0l0,1l-1,-0l0,-1Zm0,2l1,-0l0,1l-1,-0l0,-1Zm0,2l1,-0l-0,1l-1,-0l0,-1Zm0,2l1,-0l-0,1l-1,-0l0,-1Zm0,2l1,-0l-0,1l-1,-0l0,-1Zm0,2l1,-0l-0,1l-1,-0l0,-1Zm0,2l1,-0l-0,1l-1,-0l0,-1Zm0,2l1,-0l-0,1l-1,-0l0,-1Zm0,2l1,-0l-0,1l-1,-0l0,-1Zm0,2l1,-0l-0,1l-1,-0l0,-1Zm0,2l1,-0l-0,1l-1,-0l0,-1Zm0,2l1,-0l-0,1l-1,-0l0,-1Zm0,2l1,-0l-0,1l-1,-0l0,-1Zm0,2l1,-0l-0,1l-1,-0l0,-1Zm0,2l1,-0l1,-0l0,1l-1,-0c0,-0.004 0,-0.007 0,-0.011l0,0.011l-1,-0l0,-1Zm3,1l0,-1l1,-0l0,1l-1,-0Zm2,-0l0,-1l1,-0l0,1l-1,-0Zm2,-0l0,-1l1,-0l0,1l-1,-0Zm2,-0l0,-1l1,-0l0,1l-1,-0Zm2,-0l0,-1l1,-0l0,1l-1,-0Zm2,-0l0,-1l1,-0l0,1l-1,-0Zm2,-0l0,-1l1,-0l0,1l-1,-0Zm2,-0l0,-1l1,-0l0,1l-1,-0Zm2,-0l0,-1l1,-0l0,1l-1,-0Zm2,-0l0,-1l1,-0l0,1l-1,-0Zm2,-0l0,-1l1,-0l0,1l-1,-0Zm2,-0l0,-1l1,-0l0,1l-1,-0Zm2,-0l0,-1l1,-0l0,1l-1,-0Zm2,-0l0,-1l1,-0l0,1l-1,-0Zm2,-0l0,-1l1,-0l0,1l-1,-0Zm2,-0l0,-1l1,-0l0,1l-1,-0Zm2,-0l0,-1l1,-0l0,1l-1,-0Zm2,-0l0,-1l1,-0l0,1l-1,-0Zm2,-0l0,-1l1,-0l0,1l-1,-0Zm2,-0l0,-1l1,-0l0,1l-1,-0Zm2,-0l0,-1l1,-0l0,1l-1,-0Zm2,-0l0,-1l1,-0l0,1l-1,-0Zm2,-0l0,-1l-0,-1l1,-0l-0,1c-0.003,-0 -0.007,-0 -0.011,-0l0.011,-0l-0,1l-1,-0Zm1,-3l-1,-0l0,-1l1,-0l-0,1Zm-0,-2l-1,-0l-0,-1l1,-0l-0,1Zm-0,-2l-1,-0l-0,-1l1,-0l-0,1Zm-0,-2l-1,-0l-0,-1l1,-0l-0,1Zm-0,-2l-1,-0l-0,-1l1,-0l-0,1Zm-0,-2l-1,-0l-0,-1l1,-0l-0,1Zm-0,-2l-1,-0l-0,-1l1,-0l-0,1Zm-0,-2l-1,-0l-0,-1l1,-0l-0,1Zm-0,-2l-1,-0l-0,-1l1,-0l-0,1Zm-0,-2l-1,-0l-0,-1l1,-0l-0,1Zm-0,-2l-1,-0l-0,-1l1,-0l-0,1Zm-0,-2l-1,-0l-0,-1l1,-0l-0,1Zm-0,-2l-1,-0l-0,-1l1,-0l-0,1Zm-0,-2l-1,-0l-0,-1l1,-0l-0,1Zm-0,-2l-1,-0l-0,-1l1,-0l-0,1Zm-0,-2l-1,-0l-0,-1l1,-0l-0,1Zm-0,-2l-1,-0l-0,-1l1,-0l-0,1Zm-0,-2l-1,-0l-0,-1l1,-0l-0,1Zm-0,-2l-1,-0l-0,-1l1,-0l-0,1Zm-0,-2l-1,-0l-0,-1l1,-0l-0,1Zm-0,-2l-1,-0l-0,-1l1,-0l-0,1Zm-0,-2l-1,-0l-0,-1l1,-0l-0,1Zm-0,-2l-1,-0l-1,-0l0,-1l1,-0l0,0.01l1,0.99Zm-3,-1l-0,1l-1,-0l-0,-1l1,-0Zm-2,-0l-0,1l-1,-0l-0,-1l1,-0Zm-2,-0l-0,1l-1,-0l-0,-1l1,-0Zm-2,-0l-0,1l-1,-0l-0,-1l1,-0Zm-2,-0l-0,1l-1,-0l-0,-1l1,-0Zm-2,-0l-0,1l-1,-0l0,-1l1,-0Zm-2,-0l0,1l-1,-0l0,-1l1,-0Zm-2,-0l0,1l-1,-0l0,-1l1,-0Zm-2,-0l0,1l-1,-0l0,-1l1,-0Zm-2,-0l0,1l-1,-0l-0,-1l1,-0Zm-2,-0l-0,1l-1,-0l-0,-1l1,-0Zm-2,-0l-0,1l-1,-0l-0,-1l1,-0Zm-2,-0l-0,1l-1,-0l-0,-1l1,-0Zm-2,-0l-0,1l-1,-0l-0,-1l1,-0Zm-2,-0l-0,1l-1,-0l-0,-1l1,-0Zm-2,-0l-0,1l-1,-0l-0,-1l1,-0Zm-2,-0l-0,1l-1,-0l-0,-1l1,-0Zm-2,-0l-0,1l-1,-0l-0,-1l1,-0Zm-2,-0l-0,1l-1,-0l-0,-1l1,-0Zm-2,-0l-0,1l-1,-0l-0,-1l1,-0Zm-2,-0l-0,1l-1,-0l-0,-1l1,-0Zm-2,-0l-0,1l-1,-0l-0,-1l1,-0Z" style="fill:#6a6bd3;"/>
        </g>
    </g>
</svg>
