<?xml version="1.0" encoding="UTF-8" standalone="no"?>
<!-- Created with Inkscape (http://www.inkscape.org/) -->

<svg
   xmlns:dc="http://purl.org/dc/elements/1.1/"
   xmlns:cc="http://creativecommons.org/ns#"
   xmlns:rdf="http://www.w3.org/1999/02/22-rdf-syntax-ns#"
   xmlns:svg="http://www.w3.org/2000/svg"
   xmlns="http://www.w3.org/2000/svg"
   xmlns:sodipodi="http://sodipodi.sourceforge.net/DTD/sodipodi-0.dtd"
   xmlns:inkscape="http://www.inkscape.org/namespaces/inkscape"
   width="85.122566mm"
   height="30.865898mm"
   viewBox="0 0 85.122566 30.865898"
   version="1.1"
   id="svg2955"
   inkscape:version="0.92.3 (2405546, 2018-03-11)"
   sodipodi:docname="buttons.svg">
  <defs
     id="defs2949" />
  <sodipodi:namedview
     id="base"
     pagecolor="#ffffff"
     bordercolor="#666666"
     borderopacity="1.0"
     inkscape:pageopacity="0.0"
     inkscape:pageshadow="2"
     inkscape:zoom="5.6"
     inkscape:cx="126.95338"
     inkscape:cy="132.51055"
     inkscape:document-units="mm"
     inkscape:current-layer="layer1"
     showgrid="false"
     inkscape:window-width="3840"
     inkscape:window-height="2066"
     inkscape:window-x="-11"
     inkscape:window-y="-11"
     inkscape:window-maximized="1" />
  <metadata
     id="metadata2952">
    <rdf:RDF>
      <cc:Work
         rdf:about="">
        <dc:format>image/svg+xml</dc:format>
        <dc:type
           rdf:resource="http://purl.org/dc/dcmitype/StillImage" />
        <dc:title />
      </cc:Work>
    </rdf:RDF>
  </metadata>
  <g
     inkscape:label="Ebene 1"
     inkscape:groupmode="layer"
     id="layer1"
     transform="translate(-62.516092,-47.208723)">
    <rect
       style="fill:#ffffff;fill-opacity:1;stroke:#ffffff;stroke-width:0.465;stroke-miterlimit:4;stroke-dasharray:none;stroke-opacity:1"
       id="rect2664"
       width="84.65757"
       height="30.400898"
       x="62.748592"
       y="47.441223" />
    <g
       id="g8110"
       transform="translate(0,-2.1166667)">
      <g
         transform="translate(-1.5875,1.5875)"
         id="g7901">
        <path
           style="fill:#000000;fill-opacity:1;stroke:#000000;stroke-width:0.26458332px;stroke-linecap:butt;stroke-linejoin:miter;stroke-opacity:1"
           d="m 66.465625,67.3999 c 0,-0.89537 1.016927,-1 1.016927,-1 h 21.702556 c 0,0 0.755797,-0.011 0.788849,1 0.03251,0.99458 0.0036,5.4293 0,6.4 -0.0033,0.88949 -1.103341,1 -1.103341,1 h -21.30165 c 0,0 -1.103341,-6.9e-4 -1.103341,-1 z"
           id="path3930"
           inkscape:connector-curvature="0"
           sodipodi:nodetypes="sccssccss" />
        <g
           id="text4071"
           style="font-style:normal;font-variant:normal;font-weight:normal;font-stretch:normal;font-size:7.05555534px;line-height:1.25;font-family:'Fira Sans SemiBold';-inkscape-font-specification:'Fira Sans SemiBold, ';letter-spacing:0px;word-spacing:0px;fill:#ffffff;fill-opacity:1;stroke:none;stroke-width:0.26458332"
           aria-label="Cancel">
          <path
             inkscape:connector-curvature="0"
             id="path8004"
             style="font-style:normal;font-variant:normal;font-weight:bold;font-stretch:normal;font-size:6.3499999px;font-family:Arial;-inkscape-font-specification:'Arial Bold';fill:#ffffff;fill-opacity:1;stroke-width:0.26458332"
             d="m 71.185271,70.927806 0.889868,0.282153 q -0.204639,0.744141 -0.682129,1.10691 -0.47439,0.359668 -1.206128,0.359668 -0.905371,0 -1.488281,-0.617017 -0.58291,-0.620117 -0.58291,-1.69292 0,-1.134814 0.58601,-1.761133 0.586011,-0.629419 1.540992,-0.629419 0.834057,0 1.354956,0.492994 0.310058,0.291455 0.465087,0.837158 l -0.908471,0.217041 q -0.08061,-0.353467 -0.337964,-0.558106 -0.254248,-0.204638 -0.620117,-0.204638 -0.505396,0 -0.821656,0.362768 -0.313159,0.362769 -0.313159,1.175122 0,0.861963 0.310059,1.227832 0.310058,0.365869 0.806152,0.365869 0.365869,0 0.629419,-0.232544 0.26355,-0.232544 0.378272,-0.731738 z" />
          <path
             inkscape:connector-curvature="0"
             id="path8006"
             style="font-style:normal;font-variant:normal;font-weight:bold;font-stretch:normal;font-size:6.3499999px;font-family:Arial;-inkscape-font-specification:'Arial Bold';fill:#ffffff;fill-opacity:1;stroke-width:0.26458332"
             d="m 73.51071,70.31079 -0.790649,-0.142627 q 0.133325,-0.477491 0.458886,-0.706934 0.325562,-0.229443 0.967383,-0.229443 0.58291,0 0.868164,0.139526 0.285254,0.136426 0.399976,0.350366 0.117822,0.21084 0.117822,0.778247 l -0.0093,1.016992 q 0,0.434082 0.04031,0.641822 0.04341,0.204638 0.15813,0.440283 h -0.861963 q -0.03411,-0.08682 -0.08372,-0.257349 -0.0217,-0.07751 -0.03101,-0.102319 -0.223242,0.217041 -0.47749,0.325561 -0.254248,0.108521 -0.542602,0.108521 -0.508497,0 -0.803052,-0.275952 -0.291455,-0.275952 -0.291455,-0.697632 0,-0.279053 0.133325,-0.496094 0.133325,-0.220141 0.37207,-0.334863 0.241846,-0.117822 0.694531,-0.204639 0.610816,-0.114721 0.84646,-0.21394 v -0.08682 q 0,-0.251147 -0.124023,-0.356567 -0.124023,-0.10852 -0.468188,-0.10852 -0.232544,0 -0.362769,0.09302 -0.130225,0.08992 -0.21084,0.319361 z m 1.16582,0.706933 q -0.167431,0.05581 -0.5302,0.133325 -0.362768,0.07751 -0.474389,0.151929 -0.170533,0.120923 -0.170533,0.306958 0,0.182935 0.136426,0.31626 0.136426,0.133325 0.347266,0.133325 0.235644,0 0.449585,-0.155029 0.15813,-0.117823 0.207739,-0.288355 0.03411,-0.111621 0.03411,-0.42478 z" />
          <path
             inkscape:connector-curvature="0"
             id="path8008"
             style="font-style:normal;font-variant:normal;font-weight:bold;font-stretch:normal;font-size:6.3499999px;font-family:Arial;-inkscape-font-specification:'Arial Bold';fill:#ffffff;fill-opacity:1;stroke-width:0.26458332"
             d="m 79.389421,72.599022 h -0.871265 v -1.680518 q 0,-0.5333 -0.05581,-0.68833 -0.05581,-0.15813 -0.182935,-0.244946 -0.124023,-0.08682 -0.300757,-0.08682 -0.226342,0 -0.406176,0.124023 -0.179834,0.124023 -0.248047,0.328662 -0.06511,0.204639 -0.06511,0.756543 v 1.491382 H 76.388054 V 69.3062 h 0.809253 v 0.483691 q 0.430981,-0.558105 1.085205,-0.558105 0.288354,0 0.527099,0.10542 0.238746,0.102319 0.359668,0.263549 0.124024,0.161231 0.170533,0.365869 0.04961,0.204639 0.04961,0.586011 z" />
          <path
             inkscape:connector-curvature="0"
             id="path8010"
             style="font-style:normal;font-variant:normal;font-weight:bold;font-stretch:normal;font-size:6.3499999px;font-family:Arial;-inkscape-font-specification:'Arial Bold';fill:#ffffff;fill-opacity:1;stroke-width:0.26458332"
             d="m 83.147331,70.279784 -0.858862,0.155029 q -0.04341,-0.257349 -0.198438,-0.387573 -0.151929,-0.130225 -0.396875,-0.130225 -0.325561,0 -0.520898,0.226343 -0.192237,0.223242 -0.192237,0.750342 0,0.58601 0.195337,0.827856 0.198438,0.241846 0.5302,0.241846 0.248047,0 0.406177,-0.139527 0.15813,-0.142627 0.223242,-0.486792 l 0.855762,0.145728 q -0.133325,0.589111 -0.511597,0.889868 -0.378271,0.300757 -1.013891,0.300757 -0.722437,0 -1.153418,-0.455786 -0.427881,-0.455786 -0.427881,-1.261939 0,-0.815454 0.430981,-1.268139 0.430982,-0.455786 1.165821,-0.455786 0.601513,0 0.95498,0.260449 0.356568,0.257348 0.511597,0.787549 z" />
          <path
             inkscape:connector-curvature="0"
             id="path8012"
             style="font-style:normal;font-variant:normal;font-weight:bold;font-stretch:normal;font-size:6.3499999px;font-family:Arial;-inkscape-font-specification:'Arial Bold';fill:#ffffff;fill-opacity:1;stroke-width:0.26458332"
             d="m 85.717717,71.551024 0.868164,0.145727 q -0.167432,0.477491 -0.530201,0.728638 -0.359668,0.248047 -0.90227,0.248047 -0.858862,0 -1.27124,-0.561206 -0.325562,-0.449585 -0.325562,-1.134815 0,-0.818554 0.427881,-1.280541 0.427881,-0.465088 1.082105,-0.465088 0.734838,0 1.159619,0.486792 0.42478,0.483691 0.406176,1.48518 h -2.182812 q 0.0093,0.387573 0.21084,0.604615 0.201538,0.21394 0.502295,0.21394 0.204638,0 0.344165,-0.111621 0.139526,-0.111621 0.21084,-0.359668 z m 0.04961,-0.880567 q -0.0093,-0.378271 -0.195337,-0.573608 -0.186035,-0.198437 -0.452686,-0.198437 -0.285253,0 -0.471289,0.207739 -0.186035,0.207739 -0.182934,0.564306 z" />
          <path
             inkscape:connector-curvature="0"
             id="path8014"
             style="font-style:normal;font-variant:normal;font-weight:bold;font-stretch:normal;font-size:6.3499999px;font-family:Arial;-inkscape-font-specification:'Arial Bold';fill:#ffffff;fill-opacity:1;stroke-width:0.26458332"
             d="m 87.345524,72.599022 v -4.545459 h 0.871265 v 4.545459 z" />
        </g>
      </g>
      <g
         id="g8077">
        <path
           style="fill:#0063ff;fill-opacity:1;stroke:#000000;stroke-width:0.26458332px;stroke-linecap:butt;stroke-linejoin:miter;stroke-opacity:1"
           d="m 93.424786,68.9874 c 0,-0.89537 1.016928,-1 1.016928,-1 h 21.702556 c 0,0 0.75579,-0.011 0.78885,1 0.0325,0.99458 0.004,5.4293 0,6.4 -0.003,0.88949 -1.10335,1 -1.10335,1 H 94.528127 c 0,0 -1.103341,-6.9e-4 -1.103341,-1 z"
           id="path3930-6"
           inkscape:connector-curvature="0"
           sodipodi:nodetypes="sccssccss" />
        <g
           id="text4071-8"
           style="font-style:normal;font-variant:normal;font-weight:normal;font-stretch:normal;font-size:7.05555534px;line-height:1.25;font-family:'Fira Sans SemiBold';-inkscape-font-specification:'Fira Sans SemiBold, ';letter-spacing:0px;word-spacing:0px;fill:#ffffff;fill-opacity:1;stroke:none;stroke-width:0.26458332"
           aria-label="Save"
           transform="translate(1.5213542,4.9055598)">
          <path
             inkscape:connector-curvature="0"
             id="path7995"
             style="font-style:normal;font-variant:normal;font-weight:bold;font-stretch:normal;font-size:6.3499999px;font-family:Arial;-inkscape-font-specification:'Arial Bold';fill:#ffffff;fill-opacity:1;stroke-width:0.26458332"
             d="m 96.657185,67.801988 0.892969,-0.08682 q 0.08061,0.449585 0.325562,0.660425 0.248046,0.210839 0.666626,0.210839 0.443383,0 0.666626,-0.186035 0.226342,-0.189135 0.226342,-0.440283 0,-0.16123 -0.09612,-0.272851 -0.09302,-0.114722 -0.328662,-0.198438 -0.16123,-0.05581 -0.734839,-0.198437 -0.737939,-0.182935 -1.035595,-0.449585 -0.41858,-0.375171 -0.41858,-0.914673 0,-0.347266 0.195337,-0.648023 0.198438,-0.303857 0.567408,-0.461987 0.37207,-0.15813 0.896069,-0.15813 0.855762,0 1.286743,0.375171 0.434089,0.375171 0.455789,1.001489 l -0.917776,0.04031 q -0.05891,-0.350366 -0.254248,-0.502295 -0.192237,-0.155029 -0.57981,-0.155029 -0.399975,0 -0.626318,0.164331 -0.145728,0.10542 -0.145728,0.282153 0,0.161231 0.136426,0.275952 0.173633,0.145728 0.843359,0.303858 0.669727,0.15813 0.989087,0.328662 0.322461,0.167431 0.502298,0.461987 0.18293,0.291455 0.18293,0.722437 0,0.390673 -0.21704,0.731738 -0.21704,0.341064 -0.613915,0.508496 -0.396875,0.164331 -0.989087,0.164331 -0.861963,0 -1.32395,-0.396875 -0.461988,-0.399976 -0.551905,-1.16272 z" />
          <path
             inkscape:connector-curvature="0"
             id="path7997"
             style="font-style:normal;font-variant:normal;font-weight:bold;font-stretch:normal;font-size:6.3499999px;font-family:Arial;-inkscape-font-specification:'Arial Bold';fill:#ffffff;fill-opacity:1;stroke-width:0.26458332"
             d="m 101.77625,66.992735 -0.79065,-0.142627 q 0.13333,-0.47749 0.45889,-0.706933 0.32556,-0.229444 0.96738,-0.229444 0.58291,0 0.86817,0.139527 0.28525,0.136426 0.39997,0.350366 0.11782,0.21084 0.11782,0.778247 l -0.009,1.016992 q 0,0.434082 0.0403,0.641822 0.0434,0.204638 0.15813,0.440283 h -0.86196 q -0.0341,-0.08682 -0.0837,-0.257349 -0.0217,-0.07751 -0.031,-0.102319 -0.22325,0.217041 -0.47749,0.325561 -0.25425,0.108521 -0.54261,0.108521 -0.50849,0 -0.80305,-0.275952 -0.29145,-0.275953 -0.29145,-0.697632 0,-0.279053 0.13332,-0.496094 0.13333,-0.220142 0.37207,-0.334863 0.24185,-0.117822 0.69453,-0.204639 0.61082,-0.114722 0.84646,-0.21394 v -0.08682 q 0,-0.251147 -0.12402,-0.356567 -0.12402,-0.108521 -0.46819,-0.108521 -0.23254,0 -0.36277,0.09302 -0.13022,0.08992 -0.21084,0.31936 z m 1.16582,0.706934 q -0.16743,0.05581 -0.5302,0.133325 -0.36277,0.07752 -0.47439,0.151929 -0.17053,0.120923 -0.17053,0.306958 0,0.182934 0.13643,0.31626 0.13642,0.133325 0.34726,0.133325 0.23565,0 0.44959,-0.15503 0.15813,-0.117822 0.20774,-0.288354 0.0341,-0.111621 0.0341,-0.42478 z" />
          <path
             inkscape:connector-curvature="0"
             id="path7999"
             style="font-style:normal;font-variant:normal;font-weight:bold;font-stretch:normal;font-size:6.3499999px;font-family:Arial;-inkscape-font-specification:'Arial Bold';fill:#ffffff;fill-opacity:1;stroke-width:0.26458332"
             d="m 105.56517,69.280968 -1.32705,-3.292823 h 0.91467 l 0.62012,1.680518 0.17983,0.561206 q 0.0713,-0.21394 0.0899,-0.282153 0.0434,-0.139527 0.093,-0.279053 l 0.62631,-1.680518 h 0.89607 l -1.30844,3.292823 z" />
          <path
             inkscape:connector-curvature="0"
             id="path8001"
             style="font-style:normal;font-variant:normal;font-weight:bold;font-stretch:normal;font-size:6.3499999px;font-family:Arial;-inkscape-font-specification:'Arial Bold';fill:#ffffff;fill-opacity:1;stroke-width:0.26458332"
             d="m 110.10133,68.23297 0.86816,0.145727 q -0.16743,0.47749 -0.5302,0.728638 -0.35967,0.248047 -0.90227,0.248047 -0.85886,0 -1.27124,-0.561206 -0.32556,-0.449585 -0.32556,-1.134815 0,-0.818554 0.42788,-1.280542 0.42788,-0.465088 1.0821,-0.465088 0.73484,0 1.15962,0.486792 0.42478,0.483692 0.40618,1.485181 h -2.18281 q 0.009,0.387573 0.21084,0.604614 0.20153,0.213941 0.50229,0.213941 0.20464,0 0.34417,-0.111621 0.13952,-0.111621 0.21084,-0.359668 z m 0.0496,-0.880567 q -0.009,-0.378271 -0.19534,-0.573608 -0.18604,-0.198438 -0.45269,-0.198438 -0.28525,0 -0.47129,0.20774 -0.18603,0.207739 -0.18293,0.564306 z" />
        </g>
      </g>
      <g
         id="g8085">
        <path
           style="fill:#0063ff;fill-opacity:1;stroke:#000000;stroke-width:0.26458332px;stroke-linecap:butt;stroke-linejoin:miter;stroke-opacity:1"
           d="m 121.64319,68.9874 c 0,-0.89537 1.01693,-1 1.01693,-1 h 21.70256 c 0,0 0.75579,-0.011 0.78885,1 0.0325,0.99458 0.004,5.4293 0,6.4 -0.003,0.88949 -1.10335,1 -1.10335,1 h -21.30165 c 0,0 -1.10334,-6.88e-4 -1.10334,-1 z"
           id="path3930-6-3"
           inkscape:connector-curvature="0"
           sodipodi:nodetypes="sccssccss" />
        <g
           id="text4071-8-2"
           style="font-style:normal;font-variant:normal;font-weight:normal;font-stretch:normal;font-size:7.05555534px;line-height:1.25;font-family:'Fira Sans SemiBold';-inkscape-font-specification:'Fira Sans SemiBold, ';letter-spacing:0px;word-spacing:0px;fill:#ffffff;fill-opacity:1;stroke:none;stroke-width:0.26458332"
           aria-label="Send"
           transform="translate(3.638021,4.9055598)">
          <path
             inkscape:connector-curvature="0"
             id="path7986"
             style="font-style:normal;font-variant:normal;font-weight:bold;font-stretch:normal;font-size:6.3499999px;font-family:Arial;-inkscape-font-specification:'Arial Bold';fill:#ffffff;fill-opacity:1;stroke-width:0.26458332"
             d="m 122.75889,67.801988 0.89297,-0.08682 q 0.0806,0.449585 0.32556,0.660425 0.24805,0.210839 0.66663,0.210839 0.44338,0 0.66663,-0.186035 0.22634,-0.189135 0.22634,-0.440283 0,-0.16123 -0.0961,-0.272851 -0.093,-0.114722 -0.32866,-0.198438 -0.16123,-0.05581 -0.73484,-0.198437 -0.73794,-0.182935 -1.0356,-0.449585 -0.41858,-0.375171 -0.41858,-0.914673 0,-0.347266 0.19534,-0.648023 0.19844,-0.303857 0.56741,-0.461987 0.37207,-0.15813 0.89607,-0.15813 0.85576,0 1.28674,0.375171 0.43408,0.375171 0.45579,1.001489 l -0.91778,0.04031 q -0.0589,-0.350366 -0.25424,-0.502295 -0.19224,-0.155029 -0.57981,-0.155029 -0.39998,0 -0.62632,0.164331 -0.14573,0.10542 -0.14573,0.282153 0,0.161231 0.13643,0.275952 0.17363,0.145728 0.84335,0.303858 0.66973,0.15813 0.98909,0.328662 0.32246,0.167431 0.5023,0.461987 0.18293,0.291455 0.18293,0.722437 0,0.390673 -0.21704,0.731738 -0.21704,0.341064 -0.61392,0.508496 -0.39687,0.164331 -0.98908,0.164331 -0.86197,0 -1.32395,-0.396875 -0.46199,-0.399976 -0.55191,-1.16272 z" />
          <path
             inkscape:connector-curvature="0"
             id="path7988"
             style="font-style:normal;font-variant:normal;font-weight:bold;font-stretch:normal;font-size:6.3499999px;font-family:Arial;-inkscape-font-specification:'Arial Bold';fill:#ffffff;fill-opacity:1;stroke-width:0.26458332"
             d="m 129.1337,68.23297 0.86816,0.145727 q -0.16743,0.47749 -0.5302,0.728638 -0.35967,0.248047 -0.90227,0.248047 -0.85886,0 -1.27124,-0.561206 -0.32556,-0.449585 -0.32556,-1.134815 0,-0.818554 0.42788,-1.280542 0.42788,-0.465088 1.0821,-0.465088 0.73484,0 1.15962,0.486792 0.42478,0.483692 0.40618,1.485181 h -2.18281 q 0.009,0.387573 0.21084,0.604614 0.20154,0.213941 0.50229,0.213941 0.20464,0 0.34417,-0.111621 0.13952,-0.111621 0.21084,-0.359668 z m 0.0496,-0.880567 q -0.009,-0.378271 -0.19534,-0.573608 -0.18604,-0.198438 -0.45269,-0.198438 -0.28525,0 -0.47128,0.20774 -0.18604,0.207739 -0.18294,0.564306 z" />
          <path
             inkscape:connector-curvature="0"
             id="path7990"
             style="font-style:normal;font-variant:normal;font-weight:bold;font-stretch:normal;font-size:6.3499999px;font-family:Arial;-inkscape-font-specification:'Arial Bold';fill:#ffffff;fill-opacity:1;stroke-width:0.26458332"
             d="m 133.75667,69.280968 h -0.87126 V 67.60045 q 0,-0.533301 -0.0558,-0.68833 -0.0558,-0.15813 -0.18294,-0.244946 -0.12402,-0.08682 -0.30076,-0.08682 -0.22634,0 -0.40617,0.124024 -0.17984,0.124023 -0.24805,0.328662 -0.0651,0.204639 -0.0651,0.756543 v 1.491382 h -0.87127 v -3.292823 h 0.80926 v 0.483692 q 0.43098,-0.558106 1.0852,-0.558106 0.28836,0 0.5271,0.10542 0.23875,0.10232 0.35967,0.26355 0.12402,0.161231 0.17053,0.365869 0.0496,0.204639 0.0496,0.586011 z" />
          <path
             inkscape:connector-curvature="0"
             id="path7992"
             style="font-style:normal;font-variant:normal;font-weight:bold;font-stretch:normal;font-size:6.3499999px;font-family:Arial;-inkscape-font-specification:'Arial Bold';fill:#ffffff;fill-opacity:1;stroke-width:0.26458332"
             d="m 137.66341,69.280968 h -0.80925 v -0.483692 q -0.20154,0.282154 -0.47749,0.42168 -0.27286,0.136426 -0.55191,0.136426 -0.56741,0 -0.97358,-0.455786 -0.40308,-0.458887 -0.40308,-1.277442 0,-0.837158 0.39378,-1.27124 0.39377,-0.437183 0.99528,-0.437183 0.55191,0 0.95498,0.458887 v -1.637109 h 0.87127 z m -2.32544,-1.717725 q 0,0.5271 0.14573,0.762744 0.21084,0.341065 0.58911,0.341065 0.30076,0 0.5116,-0.254248 0.21084,-0.257349 0.21084,-0.765845 0,-0.567407 -0.20464,-0.815454 -0.20464,-0.251148 -0.524,-0.251148 -0.31006,0 -0.5209,0.248047 -0.20774,0.244947 -0.20774,0.734839 z" />
        </g>
      </g>
    </g>
    <g
       id="g8133"
       transform="translate(0,2.1166667)">
      <g
         id="g8061">
        <path
           style="fill:#0063ff;fill-opacity:1;stroke:#000000;stroke-width:0.26458332px;stroke-linecap:butt;stroke-linejoin:miter;stroke-opacity:1"
           d="m 64.878125,50.213243 c 0,-0.89537 1.016928,-1 1.016928,-1 h 21.702556 c 0,0 0.755796,-0.011 0.788849,1 0.03251,0.99458 0.0036,5.4293 0,6.4 -0.0033,0.88949 -1.103341,1 -1.103341,1 H 65.981466 c 0,0 -1.103341,-6.9e-4 -1.103341,-1 z"
           id="path3930-64"
           inkscape:connector-curvature="0"
           sodipodi:nodetypes="sccssccss" />
        <g
           id="text4071-6"
           style="font-style:normal;font-variant:normal;font-weight:normal;font-stretch:normal;font-size:7.05555534px;line-height:1.25;font-family:'Fira Sans SemiBold';-inkscape-font-specification:'Fira Sans SemiBold, ';letter-spacing:0px;word-spacing:0px;fill:#ffffff;fill-opacity:1;stroke:none;stroke-width:0.26458332"
           aria-label="Cancel"
           transform="translate(-0.59531203,-13.879365)">
          <path
             inkscape:connector-curvature="0"
             id="path7973"
             style="font-style:normal;font-variant:normal;font-weight:bold;font-stretch:normal;font-size:6.3499999px;font-family:Arial;-inkscape-font-specification:'Arial Bold';fill:#ffffff;fill-opacity:1;stroke-width:0.26458332"
             d="m 70.193083,67.620517 0.889868,0.282153 q -0.204638,0.744141 -0.682129,1.106909 -0.474389,0.359668 -1.206128,0.359668 -0.905371,0 -1.488281,-0.617016 -0.58291,-0.620117 -0.58291,-1.69292 0,-1.134814 0.586011,-1.761133 0.586011,-0.629419 1.540991,-0.629419 0.834058,0 1.354956,0.492993 0.310059,0.291455 0.465088,0.837159 l -0.908472,0.217041 q -0.08061,-0.353467 -0.337964,-0.558106 -0.254248,-0.204639 -0.620117,-0.204639 -0.505395,0 -0.821655,0.362769 -0.313159,0.362769 -0.313159,1.175122 0,0.861963 0.310058,1.227832 0.310059,0.365869 0.806153,0.365869 0.365869,0 0.629419,-0.232544 0.263549,-0.232544 0.378271,-0.731738 z" />
          <path
             inkscape:connector-curvature="0"
             id="path7975"
             style="font-style:normal;font-variant:normal;font-weight:bold;font-stretch:normal;font-size:6.3499999px;font-family:Arial;-inkscape-font-specification:'Arial Bold';fill:#ffffff;fill-opacity:1;stroke-width:0.26458332"
             d="m 72.518523,67.0035 -0.79065,-0.142627 q 0.133325,-0.47749 0.458887,-0.706933 0.325561,-0.229443 0.967383,-0.229443 0.58291,0 0.868164,0.139526 0.285254,0.136426 0.399975,0.350366 0.117823,0.21084 0.117823,0.778247 l -0.0093,1.016992 q 0,0.434082 0.04031,0.641822 0.04341,0.204638 0.15813,0.440283 h -0.861963 q -0.03411,-0.08682 -0.08371,-0.257349 -0.0217,-0.07751 -0.03101,-0.102319 -0.223242,0.217041 -0.47749,0.325561 -0.254248,0.108521 -0.542603,0.108521 -0.508496,0 -0.803052,-0.275952 -0.291455,-0.275952 -0.291455,-0.697632 0,-0.279053 0.133325,-0.496094 0.133326,-0.220141 0.372071,-0.334863 0.241845,-0.117822 0.694531,-0.204639 0.610815,-0.114721 0.84646,-0.21394 v -0.08682 q 0,-0.251147 -0.124024,-0.356567 -0.124023,-0.108521 -0.468188,-0.108521 -0.232544,0 -0.362769,0.09302 -0.130224,0.08992 -0.210839,0.31936 z m 1.16582,0.706934 q -0.167432,0.05581 -0.5302,0.133325 -0.362769,0.07751 -0.47439,0.151929 -0.170532,0.120923 -0.170532,0.306958 0,0.182934 0.136426,0.31626 0.136425,0.133325 0.347265,0.133325 0.235645,0 0.449585,-0.155029 0.15813,-0.117823 0.207739,-0.288355 0.03411,-0.111621 0.03411,-0.42478 z" />
          <path
             inkscape:connector-curvature="0"
             id="path7977"
             style="font-style:normal;font-variant:normal;font-weight:bold;font-stretch:normal;font-size:6.3499999px;font-family:Arial;-inkscape-font-specification:'Arial Bold';fill:#ffffff;fill-opacity:1;stroke-width:0.26458332"
             d="m 78.397234,69.291733 h -0.871265 v -1.680518 q 0,-0.533301 -0.05581,-0.68833 -0.05581,-0.15813 -0.182934,-0.244946 -0.124024,-0.08682 -0.300757,-0.08682 -0.226343,0 -0.406177,0.124024 -0.179834,0.124023 -0.248047,0.328662 -0.06511,0.204639 -0.06511,0.756543 v 1.491382 h -0.871265 v -3.292822 h 0.809253 v 0.483691 q 0.430982,-0.558105 1.085205,-0.558105 0.288355,0 0.5271,0.105419 0.238745,0.10232 0.359668,0.26355 0.124023,0.161231 0.170532,0.365869 0.04961,0.204639 0.04961,0.586011 z" />
          <path
             inkscape:connector-curvature="0"
             id="path7979"
             style="font-style:normal;font-variant:normal;font-weight:bold;font-stretch:normal;font-size:6.3499999px;font-family:Arial;-inkscape-font-specification:'Arial Bold';fill:#ffffff;fill-opacity:1;stroke-width:0.26458332"
             d="m 82.155143,66.972495 -0.858862,0.155029 q -0.04341,-0.257349 -0.198437,-0.387573 -0.151929,-0.130225 -0.396875,-0.130225 -0.325562,0 -0.520899,0.226343 -0.192236,0.223242 -0.192236,0.750342 0,0.58601 0.195337,0.827856 0.198437,0.241846 0.5302,0.241846 0.248047,0 0.406177,-0.139527 0.158129,-0.142627 0.223242,-0.486792 l 0.855762,0.145728 q -0.133326,0.589111 -0.511597,0.889868 -0.378272,0.300757 -1.013892,0.300757 -0.722436,0 -1.153418,-0.455786 -0.427881,-0.455786 -0.427881,-1.261939 0,-0.815454 0.430982,-1.268139 0.430981,-0.455786 1.16582,-0.455786 0.601514,0 0.954981,0.260449 0.356567,0.257348 0.511596,0.787549 z" />
          <path
             inkscape:connector-curvature="0"
             id="path7981"
             style="font-style:normal;font-variant:normal;font-weight:bold;font-stretch:normal;font-size:6.3499999px;font-family:Arial;-inkscape-font-specification:'Arial Bold';fill:#ffffff;fill-opacity:1;stroke-width:0.26458332"
             d="m 84.725529,68.243735 0.868164,0.145727 q -0.167432,0.477491 -0.5302,0.728638 -0.359668,0.248047 -0.902271,0.248047 -0.858862,0 -1.27124,-0.561206 -0.325561,-0.449585 -0.325561,-1.134815 0,-0.818554 0.427881,-1.280542 0.42788,-0.465087 1.082104,-0.465087 0.734839,0 1.159619,0.486791 0.42478,0.483692 0.406177,1.485181 h -2.182813 q 0.0093,0.387573 0.21084,0.604614 0.201538,0.213941 0.502295,0.213941 0.204639,0 0.344165,-0.111621 0.139527,-0.111621 0.21084,-0.359668 z m 0.04961,-0.880567 q -0.0093,-0.378271 -0.195336,-0.573608 -0.186036,-0.198438 -0.452686,-0.198438 -0.285254,0 -0.471289,0.20774 -0.186035,0.207739 -0.182935,0.564306 z" />
          <path
             inkscape:connector-curvature="0"
             id="path7983"
             style="font-style:normal;font-variant:normal;font-weight:bold;font-stretch:normal;font-size:6.3499999px;font-family:Arial;-inkscape-font-specification:'Arial Bold';fill:#ffffff;fill-opacity:1;stroke-width:0.26458332"
             d="m 86.353337,69.291733 v -4.545459 h 0.871264 v 4.545459 z" />
        </g>
      </g>
      <g
         id="g8069">
        <path
           style="fill:#0063ff;fill-opacity:1;stroke:#000000;stroke-width:0.26458332px;stroke-linecap:butt;stroke-linejoin:miter;stroke-opacity:1"
           d="m 93.424787,50.213241 c 0,-0.89537 1.016928,-1 1.016928,-1 h 21.702555 c 0,0 0.75579,-0.011 0.78885,1 0.0325,0.99458 0.004,5.4293 0,6.4 -0.003,0.88949 -1.10335,1 -1.10335,1 H 94.528128 c 0,0 -1.103341,-6.9e-4 -1.103341,-1 z"
           id="path3930-6-0"
           inkscape:connector-curvature="0"
           sodipodi:nodetypes="sccssccss" />
        <g
           id="text4071-8-8"
           style="font-style:normal;font-variant:normal;font-weight:normal;font-stretch:normal;font-size:7.05555534px;line-height:1.25;font-family:'Fira Sans SemiBold';-inkscape-font-specification:'Fira Sans SemiBold, ';letter-spacing:0px;word-spacing:0px;fill:#ffffff;fill-opacity:1;stroke:none;stroke-width:0.26458332"
           aria-label="Save"
           transform="translate(1.5213547,-13.868599)">
          <path
             inkscape:connector-curvature="0"
             id="path7964"
             style="font-style:normal;font-variant:normal;font-weight:bold;font-stretch:normal;font-size:6.3499999px;font-family:Arial;-inkscape-font-specification:'Arial Bold';fill:#ffffff;fill-opacity:1;stroke-width:0.26458332"
             d="m 96.657185,67.801988 0.892969,-0.08682 q 0.08061,0.449585 0.325562,0.660425 0.248046,0.210839 0.666626,0.210839 0.443383,0 0.666626,-0.186035 0.226342,-0.189135 0.226342,-0.440283 0,-0.16123 -0.09612,-0.272851 -0.09302,-0.114722 -0.328662,-0.198438 -0.16123,-0.05581 -0.734839,-0.198437 -0.737939,-0.182935 -1.035595,-0.449585 -0.41858,-0.375171 -0.41858,-0.914673 0,-0.347266 0.195337,-0.648023 0.198438,-0.303857 0.567408,-0.461987 0.37207,-0.15813 0.896069,-0.15813 0.855762,0 1.286743,0.375171 0.434089,0.375171 0.455789,1.001489 l -0.917776,0.04031 q -0.05891,-0.350366 -0.254248,-0.502295 -0.192237,-0.155029 -0.57981,-0.155029 -0.399975,0 -0.626318,0.164331 -0.145728,0.10542 -0.145728,0.282153 0,0.161231 0.136426,0.275952 0.173633,0.145728 0.843359,0.303858 0.669727,0.15813 0.989087,0.328662 0.322461,0.167431 0.502298,0.461987 0.18293,0.291455 0.18293,0.722437 0,0.390673 -0.21704,0.731738 -0.21704,0.341064 -0.613915,0.508496 -0.396875,0.164331 -0.989087,0.164331 -0.861963,0 -1.32395,-0.396875 -0.461988,-0.399976 -0.551905,-1.16272 z" />
          <path
             inkscape:connector-curvature="0"
             id="path7966"
             style="font-style:normal;font-variant:normal;font-weight:bold;font-stretch:normal;font-size:6.3499999px;font-family:Arial;-inkscape-font-specification:'Arial Bold';fill:#ffffff;fill-opacity:1;stroke-width:0.26458332"
             d="m 101.77625,66.992735 -0.79065,-0.142627 q 0.13333,-0.47749 0.45889,-0.706933 0.32556,-0.229444 0.96738,-0.229444 0.58291,0 0.86817,0.139527 0.28525,0.136426 0.39997,0.350366 0.11782,0.21084 0.11782,0.778247 l -0.009,1.016992 q 0,0.434082 0.0403,0.641822 0.0434,0.204638 0.15813,0.440283 h -0.86196 q -0.0341,-0.08682 -0.0837,-0.257349 -0.0217,-0.07751 -0.031,-0.102319 -0.22325,0.217041 -0.47749,0.325561 -0.25425,0.108521 -0.54261,0.108521 -0.50849,0 -0.80305,-0.275952 -0.29145,-0.275953 -0.29145,-0.697632 0,-0.279053 0.13332,-0.496094 0.13333,-0.220142 0.37207,-0.334863 0.24185,-0.117822 0.69453,-0.204639 0.61082,-0.114722 0.84646,-0.21394 v -0.08682 q 0,-0.251147 -0.12402,-0.356567 -0.12402,-0.108521 -0.46819,-0.108521 -0.23254,0 -0.36277,0.09302 -0.13022,0.08992 -0.21084,0.31936 z m 1.16582,0.706934 q -0.16743,0.05581 -0.5302,0.133325 -0.36277,0.07752 -0.47439,0.151929 -0.17053,0.120923 -0.17053,0.306958 0,0.182934 0.13643,0.31626 0.13642,0.133325 0.34726,0.133325 0.23565,0 0.44959,-0.15503 0.15813,-0.117822 0.20774,-0.288354 0.0341,-0.111621 0.0341,-0.42478 z" />
          <path
             inkscape:connector-curvature="0"
             id="path7968"
             style="font-style:normal;font-variant:normal;font-weight:bold;font-stretch:normal;font-size:6.3499999px;font-family:Arial;-inkscape-font-specification:'Arial Bold';fill:#ffffff;fill-opacity:1;stroke-width:0.26458332"
             d="m 105.56517,69.280968 -1.32705,-3.292823 h 0.91467 l 0.62012,1.680518 0.17983,0.561206 q 0.0713,-0.21394 0.0899,-0.282153 0.0434,-0.139527 0.093,-0.279053 l 0.62631,-1.680518 h 0.89607 l -1.30844,3.292823 z" />
          <path
             inkscape:connector-curvature="0"
             id="path7970"
             style="font-style:normal;font-variant:normal;font-weight:bold;font-stretch:normal;font-size:6.3499999px;font-family:Arial;-inkscape-font-specification:'Arial Bold';fill:#ffffff;fill-opacity:1;stroke-width:0.26458332"
             d="m 110.10133,68.23297 0.86816,0.145727 q -0.16743,0.47749 -0.5302,0.728638 -0.35967,0.248047 -0.90227,0.248047 -0.85886,0 -1.27124,-0.561206 -0.32556,-0.449585 -0.32556,-1.134815 0,-0.818554 0.42788,-1.280542 0.42788,-0.465088 1.0821,-0.465088 0.73484,0 1.15962,0.486792 0.42478,0.483692 0.40618,1.485181 h -2.18281 q 0.009,0.387573 0.21084,0.604614 0.20153,0.213941 0.50229,0.213941 0.20464,0 0.34417,-0.111621 0.13952,-0.111621 0.21084,-0.359668 z m 0.0496,-0.880567 q -0.009,-0.378271 -0.19534,-0.573608 -0.18604,-0.198438 -0.45269,-0.198438 -0.28525,0 -0.47129,0.20774 -0.18603,0.207739 -0.18293,0.564306 z" />
        </g>
      </g>
      <path
         sodipodi:nodetypes="sccssccss"
         inkscape:connector-curvature="0"
         id="path3930-6-3-1"
         d="m 121.64319,50.213241 c 0,-0.89537 1.01693,-1 1.01693,-1 h 21.70256 c 0,0 0.75579,-0.011 0.78885,1 0.0325,0.99458 0.004,5.4293 0,6.4 -0.003,0.88949 -1.10335,1 -1.10335,1 h -21.30165 c 0,0 -1.10334,-6.88e-4 -1.10334,-1 z"
         style="fill:#0063ff;fill-opacity:1;stroke:#000000;stroke-width:0.26458332px;stroke-linecap:butt;stroke-linejoin:miter;stroke-opacity:1" />
      <path
         inkscape:connector-curvature="0"
         id="path7955"
         style="font-style:normal;font-variant:normal;font-weight:bold;font-stretch:normal;font-size:6.3499999px;line-height:1.25;font-family:Arial;-inkscape-font-specification:'Arial Bold';letter-spacing:0px;word-spacing:0px;fill:#ffffff;fill-opacity:1;stroke:none;stroke-width:0.26458332"
         d="m 126.39691,53.933389 0.89297,-0.08682 q 0.0806,0.449585 0.32556,0.660425 0.24805,0.210839 0.66663,0.210839 0.44338,0 0.66663,-0.186035 0.22634,-0.189135 0.22634,-0.440283 0,-0.16123 -0.0961,-0.272851 -0.093,-0.114722 -0.32866,-0.198438 -0.16123,-0.05581 -0.73484,-0.198437 -0.73794,-0.182935 -1.0356,-0.449585 -0.41858,-0.375171 -0.41858,-0.914673 0,-0.347266 0.19534,-0.648023 0.19844,-0.303857 0.56741,-0.461987 0.37207,-0.15813 0.89607,-0.15813 0.85576,0 1.28674,0.375171 0.43408,0.375171 0.45579,1.001489 l -0.91778,0.04031 q -0.0589,-0.350366 -0.25424,-0.502295 -0.19224,-0.155029 -0.57981,-0.155029 -0.39998,0 -0.62632,0.164331 -0.14573,0.10542 -0.14573,0.282153 0,0.161231 0.13643,0.275952 0.17363,0.145728 0.84335,0.303858 0.66973,0.15813 0.98909,0.328662 0.32246,0.167431 0.5023,0.461987 0.18293,0.291455 0.18293,0.722437 0,0.390673 -0.21704,0.731738 -0.21704,0.341064 -0.61392,0.508496 -0.39687,0.164331 -0.98908,0.164331 -0.86197,0 -1.32395,-0.396875 -0.46199,-0.399976 -0.55191,-1.16272 z" />
      <path
         inkscape:connector-curvature="0"
         id="path7957"
         style="font-style:normal;font-variant:normal;font-weight:bold;font-stretch:normal;font-size:6.3499999px;line-height:1.25;font-family:Arial;-inkscape-font-specification:'Arial Bold';letter-spacing:0px;word-spacing:0px;fill:#ffffff;fill-opacity:1;stroke:none;stroke-width:0.26458332"
         d="m 132.77172,54.364371 0.86816,0.145727 q -0.16743,0.47749 -0.5302,0.728638 -0.35967,0.248047 -0.90227,0.248047 -0.85886,0 -1.27124,-0.561206 -0.32556,-0.449585 -0.32556,-1.134815 0,-0.818554 0.42788,-1.280542 0.42788,-0.465088 1.0821,-0.465088 0.73484,0 1.15962,0.486792 0.42478,0.483692 0.40618,1.485181 h -2.18281 q 0.009,0.387573 0.21084,0.604614 0.20154,0.213941 0.50229,0.213941 0.20464,0 0.34417,-0.111621 0.13952,-0.111621 0.21084,-0.359668 z m 0.0496,-0.880567 q -0.009,-0.378271 -0.19534,-0.573608 -0.18604,-0.198438 -0.45269,-0.198438 -0.28525,0 -0.47128,0.20774 -0.18604,0.207739 -0.18294,0.564306 z" />
      <path
         inkscape:connector-curvature="0"
         id="path7959"
         style="font-style:normal;font-variant:normal;font-weight:bold;font-stretch:normal;font-size:6.3499999px;line-height:1.25;font-family:Arial;-inkscape-font-specification:'Arial Bold';letter-spacing:0px;word-spacing:0px;fill:#ffffff;fill-opacity:1;stroke:none;stroke-width:0.26458332"
         d="m 137.39469,55.412369 h -0.87126 v -1.680518 q 0,-0.533301 -0.0558,-0.68833 -0.0558,-0.15813 -0.18294,-0.244946 -0.12402,-0.08682 -0.30076,-0.08682 -0.22634,0 -0.40617,0.124024 -0.17984,0.124023 -0.24805,0.328662 -0.0651,0.204639 -0.0651,0.756543 v 1.491382 h -0.87127 v -3.292823 h 0.80926 v 0.483692 q 0.43098,-0.558106 1.0852,-0.558106 0.28836,0 0.5271,0.10542 0.23875,0.10232 0.35967,0.26355 0.12402,0.161231 0.17053,0.365869 0.0496,0.204639 0.0496,0.586011 z" />
      <path
         inkscape:connector-curvature="0"
         id="path7961"
         style="font-style:normal;font-variant:normal;font-weight:bold;font-stretch:normal;font-size:6.3499999px;line-height:1.25;font-family:Arial;-inkscape-font-specification:'Arial Bold';letter-spacing:0px;word-spacing:0px;fill:#ffffff;fill-opacity:1;stroke:none;stroke-width:0.26458332"
         d="m 141.30143,55.412369 h -0.80925 v -0.483692 q -0.20154,0.282154 -0.47749,0.42168 -0.27286,0.136426 -0.55191,0.136426 -0.56741,0 -0.97358,-0.455786 -0.40308,-0.458887 -0.40308,-1.277442 0,-0.837158 0.39378,-1.27124 0.39377,-0.437183 0.99528,-0.437183 0.55191,0 0.95498,0.458887 V 50.86691 h 0.87127 z m -2.32544,-1.717725 q 0,0.5271 0.14573,0.762744 0.21084,0.341065 0.58911,0.341065 0.30076,0 0.5116,-0.254248 0.21084,-0.257349 0.21084,-0.765845 0,-0.567407 -0.20464,-0.815454 -0.20464,-0.251148 -0.524,-0.251148 -0.31006,0 -0.5209,0.248047 -0.20774,0.244947 -0.20774,0.734839 z" />
    </g>
  </g>
</svg>
