<svg xmlns="http://www.w3.org/2000/svg" viewBox="0 0 85.122566 30.865898">
  <path d="M62.748592 47.441223h84.65757v30.400898h-84.65757z" style="fill:#fff;fill-opacity:1;stroke:#fff;stroke-width:.465;stroke-miterlimit:4;stroke-dasharray:none;stroke-opacity:1" transform="translate(-62.516092 -47.208723)"/>
  <path d="M66.465625 67.3999c0-.89537 1.016927-1 1.016927-1h21.702556s.755797-.011.788849 1c.03251.99458.0036 5.4293 0 6.4-.0033.88949-1.103341 1-1.103341 1h-21.30165s-1.103341-.00069-1.103341-1z" style="fill:#000;fill-opacity:1;stroke:#000;stroke-width:.26458332px;stroke-linecap:butt;stroke-linejoin:miter;stroke-opacity:1" transform="translate(-64.103592 -47.73789)"/>
  <g aria-label="Cancel" style="fill:#fff;fill-opacity:1;stroke:none;stroke-width:.26458332">
    <path d="m71.185271 70.927806.889868.282153q-.204639.744141-.682129 1.10691-.47439.359668-1.206128.359668-.905371 0-1.488281-.617017-.58291-.620117-.58291-1.69292 0-1.134814.58601-1.761133.586011-.629419 1.540992-.629419.834057 0 1.354956.492994.310058.291455.465087.837158l-.908471.217041q-.08061-.353467-.337964-.558106-.254248-.204638-.620117-.204638-.505396 0-.821656.362768-.313159.362769-.313159 1.175122 0 .861963.310059 1.227832t.806152.365869q.365869 0 .629419-.232544t.378272-.731738M73.51071 70.31079l-.790649-.142627q.133325-.477491.458886-.706934.325562-.229443.967383-.229443.58291 0 .868164.139526.285254.136426.399976.350366.117822.21084.117822.778247l-.0093 1.016992q0 .434082.04031.641822.04341.204638.15813.440283h-.861963q-.03411-.08682-.08372-.257349-.0217-.07751-.03101-.102319-.223242.217041-.47749.325561-.254248.108521-.542602.108521-.508497 0-.803052-.275952-.291455-.275952-.291455-.697632 0-.279053.133325-.496094.133325-.220141.37207-.334863.241846-.117822.694531-.204639.610816-.114721.84646-.21394v-.08682q0-.251147-.124023-.356567-.124023-.10852-.468188-.10852-.232544 0-.362769.09302-.130225.08992-.21084.319361zm1.16582.706933q-.167431.05581-.5302.133325-.362768.07751-.474389.151929-.170533.120923-.170533.306958 0 .182935.136426.31626t.347266.133325q.235644 0 .449585-.155029.15813-.117823.207739-.288355.03411-.111621.03411-.42478zM79.389421 72.599022h-.871265v-1.680518q0-.5333-.05581-.68833-.05581-.15813-.182935-.244946-.124023-.08682-.300757-.08682-.226342 0-.406176.124023t-.248047.328662q-.06511.204639-.06511.756543v1.491382h-.871267V69.3062h.809253v.483691q.430981-.558105 1.085205-.558105.288354 0 .527099.10542.238746.102319.359668.263549.124024.161231.170533.365869.04961.204639.04961.586011zM83.147331 70.279784l-.858862.155029q-.04341-.257349-.198438-.387573-.151929-.130225-.396875-.130225-.325561 0-.520898.226343-.192237.223242-.192237.750342 0 .58601.195337.827856.198438.241846.5302.241846.248047 0 .406177-.139527.15813-.142627.223242-.486792l.855762.145728q-.133325.589111-.511597.889868t-1.013891.300757q-.722437 0-1.153418-.455786-.427881-.455786-.427881-1.261939 0-.815454.430981-1.268139.430982-.455786 1.165821-.455786.601513 0 .95498.260449.356568.257348.511597.787549M85.717717 71.551024l.868164.145727q-.167432.477491-.530201.728638-.359668.248047-.90227.248047-.858862 0-1.27124-.561206-.325562-.449585-.325562-1.134815 0-.818554.427881-1.280541.427881-.465088 1.082105-.465088.734838 0 1.159619.486792.42478.483691.406176 1.48518h-2.182812q.0093.387573.21084.604615.201538.21394.502295.21394.204638 0 .344165-.111621.139526-.111621.21084-.359668m.04961-.880567q-.0093-.378271-.195337-.573608-.186035-.198437-.452686-.198437-.285253 0-.471289.207739-.186035.207739-.182934.564306zM87.345524 72.599022v-4.545459h.871265v4.545459z" style="fill:#fff;fill-opacity:1;stroke-width:.26458332" transform="translate(-64.103592 -47.73789)"/>
  </g>
  <path d="M93.424786 68.9874c0-.89537 1.016928-1 1.016928-1h21.702556s.75579-.011.78885 1c.0325.99458.004 5.4293 0 6.4-.003.88949-1.10335 1-1.10335 1H94.528127s-1.103341-.00069-1.103341-1z" style="fill:#0063ff;fill-opacity:1;stroke:#000;stroke-width:.26458332px;stroke-linecap:butt;stroke-linejoin:miter;stroke-opacity:1" transform="translate(-62.516092 -49.32539)"/>
  <g aria-label="Save" style="fill:#fff;fill-opacity:1;stroke:none;stroke-width:.26458332">
    <path d="m96.657185 67.801988.892969-.08682q.08061.449585.325562.660425.248046.210839.666626.210839.443383 0 .666626-.186035.226342-.189135.226342-.440283 0-.16123-.09612-.272851-.09302-.114722-.328662-.198438-.16123-.05581-.734839-.198437-.737939-.182935-1.035595-.449585-.41858-.375171-.41858-.914673 0-.347266.195337-.648023.198438-.303857.567408-.461987.37207-.15813.896069-.15813.855762 0 1.286743.375171.434089.375171.455789 1.001489l-.917776.04031q-.05891-.350366-.254248-.502295-.192237-.155029-.57981-.155029-.399975 0-.626318.164331-.145728.10542-.145728.282153 0 .161231.136426.275952.173633.145728.843359.303858.669727.15813.989087.328662.322461.167431.502298.461987.18293.291455.18293.722437 0 .390673-.21704.731738-.21704.341064-.613915.508496-.396875.164331-.989087.164331-.861963 0-1.32395-.396875-.461988-.399976-.551905-1.16272zM101.77625 66.992735l-.79065-.142627q.13333-.47749.45889-.706933.32556-.229444.96738-.229444.58291 0 .86817.139527.28525.136426.39997.350366.11782.21084.11782.778247l-.009 1.016992q0 .434082.0403.641822.0434.204638.15813.440283h-.86196q-.0341-.08682-.0837-.257349-.0217-.07751-.031-.102319-.22325.217041-.47749.325561-.25425.108521-.54261.108521-.50849 0-.80305-.275952-.29145-.275953-.29145-.697632 0-.279053.13332-.496094.13333-.220142.37207-.334863.24185-.117822.69453-.204639.61082-.114722.84646-.21394v-.08682q0-.251147-.12402-.356567-.12402-.108521-.46819-.108521-.23254 0-.36277.09302-.13022.08992-.21084.31936zm1.16582.706934q-.16743.05581-.5302.133325-.36277.07752-.47439.151929-.17053.120923-.17053.306958 0 .182934.13643.31626.13642.133325.34726.133325.23565 0 .44959-.15503.15813-.117822.20774-.288354.0341-.111621.0341-.42478zM105.56517 69.280968l-1.32705-3.292823h.91467l.62012 1.680518.17983.561206q.0713-.21394.0899-.282153.0434-.139527.093-.279053l.62631-1.680518h.89607l-1.30844 3.292823zM110.10133 68.23297l.86816.145727q-.16743.47749-.5302.728638-.35967.248047-.90227.248047-.85886 0-1.27124-.561206-.32556-.449585-.32556-1.134815 0-.818554.42788-1.280542.42788-.465088 1.0821-.465088.73484 0 1.15962.486792.42478.483692.40618 1.485181h-2.18281q.009.387573.21084.604614.20153.213941.50229.213941.20464 0 .34417-.111621.13952-.111621.21084-.359668m.0496-.880567q-.009-.378271-.19534-.573608-.18604-.198438-.45269-.198438-.28525 0-.47129.20774-.18603.207739-.18293.564306z" style="fill:#fff;fill-opacity:1;stroke-width:.26458332" transform="translate(-60.994738 -44.41983)"/>
  </g>
  <path d="M121.64319 68.9874c0-.89537 1.01693-1 1.01693-1h21.70256s.75579-.011.78885 1c.0325.99458.004 5.4293 0 6.4-.003.88949-1.10335 1-1.10335 1h-21.30165s-1.10334-.000688-1.10334-1z" style="fill:#0063ff;fill-opacity:1;stroke:#000;stroke-width:.26458332px;stroke-linecap:butt;stroke-linejoin:miter;stroke-opacity:1" transform="translate(-62.516092 -49.32539)"/>
  <g aria-label="Send" style="fill:#fff;fill-opacity:1;stroke:none;stroke-width:.26458332">
    <path d="m122.75889 67.801988.89297-.08682q.0806.449585.32556.660425.24805.210839.66663.210839.44338 0 .66663-.186035.22634-.189135.22634-.440283 0-.16123-.0961-.272851-.093-.114722-.32866-.198438-.16123-.05581-.73484-.198437-.73794-.182935-1.0356-.449585-.41858-.375171-.41858-.914673 0-.347266.19534-.648023.19844-.303857.56741-.461987.37207-.15813.89607-.15813.85576 0 1.28674.375171.43408.375171.45579 1.001489l-.91778.04031q-.0589-.350366-.25424-.502295-.19224-.155029-.57981-.155029-.39998 0-.62632.164331-.14573.10542-.14573.282153 0 .161231.13643.275952.17363.145728.84335.303858.66973.15813.98909.328662.32246.167431.5023.461987.18293.291455.18293.722437 0 .390673-.21704.731738-.21704.341064-.61392.508496-.39687.164331-.98908.164331-.86197 0-1.32395-.396875-.46199-.399976-.55191-1.16272zM129.1337 68.23297l.86816.145727q-.16743.47749-.5302.728638-.35967.248047-.90227.248047-.85886 0-1.27124-.561206-.32556-.449585-.32556-1.134815 0-.818554.42788-1.280542.42788-.465088 1.0821-.465088.73484 0 1.15962.486792.42478.483692.40618 1.485181h-2.18281q.009.387573.21084.604614.20154.213941.50229.213941.20464 0 .34417-.111621.13952-.111621.21084-.359668m.0496-.880567q-.009-.378271-.19534-.573608-.18604-.198438-.45269-.198438-.28525 0-.47128.20774-.18604.207739-.18294.564306zM133.75667 69.280968h-.87126V67.60045q0-.533301-.0558-.68833-.0558-.15813-.18294-.244946-.12402-.08682-.30076-.08682-.22634 0-.40617.124024-.17984.124023-.24805.328662-.0651.204639-.0651.756543v1.491382h-.87127v-3.292823h.80926v.483692q.43098-.558106 1.0852-.558106.28836 0 .5271.10542.23875.10232.35967.26355.12402.161231.17053.365869.0496.204639.0496.586011zM137.66341 69.280968h-.80925v-.483692q-.20154.282154-.47749.42168-.27286.136426-.55191.136426-.56741 0-.97358-.455786-.40308-.458887-.40308-1.277442 0-.837158.39378-1.27124.39377-.437183.99528-.437183.55191 0 .95498.458887v-1.637109h.87127zm-2.32544-1.717725q0 .5271.14573.762744.21084.341065.58911.341065.30076 0 .5116-.254248.21084-.257349.21084-.765845 0-.567407-.20464-.815454-.20464-.251148-.524-.251148-.31006 0-.5209.248047-.20774.244947-.20774.734839" style="fill:#fff;fill-opacity:1;stroke-width:.26458332" transform="translate(-58.878071 -44.41983)"/>
  </g>
  <path d="M64.878125 50.213243c0-.89537 1.016928-1 1.016928-1h21.702556s.755796-.011.788849 1c.03251.99458.0036 5.4293 0 6.4-.0033.88949-1.103341 1-1.103341 1H65.981466s-1.103341-.00069-1.103341-1z" style="fill:#0063ff;fill-opacity:1;stroke:#000;stroke-width:.26458332px;stroke-linecap:butt;stroke-linejoin:miter;stroke-opacity:1" transform="translate(-62.516092 -45.092056)"/>
  <g aria-label="Cancel" style="fill:#fff;fill-opacity:1;stroke:none;stroke-width:.26458332">
    <path d="m70.193083 67.620517.889868.282153q-.204638.744141-.682129 1.106909-.474389.359668-1.206128.359668-.905371 0-1.488281-.617016-.58291-.620117-.58291-1.69292 0-1.134814.586011-1.761133.586011-.629419 1.540991-.629419.834058 0 1.354956.492993.310059.291455.465088.837159l-.908472.217041q-.08061-.353467-.337964-.558106-.254248-.204639-.620117-.204639-.505395 0-.821655.362769-.313159.362769-.313159 1.175122 0 .861963.310058 1.227832t.806153.365869q.365869 0 .629419-.232544t.378271-.731738M72.518523 67.0035l-.79065-.142627q.133325-.47749.458887-.706933.325561-.229443.967383-.229443.58291 0 .868164.139526.285254.136426.399975.350366.117823.21084.117823.778247l-.0093 1.016992q0 .434082.04031.641822.04341.204638.15813.440283h-.861963q-.03411-.08682-.08371-.257349-.0217-.07751-.03101-.102319-.223242.217041-.47749.325561-.254248.108521-.542603.108521-.508496 0-.803052-.275952-.291455-.275952-.291455-.697632 0-.279053.133325-.496094.133326-.220141.372071-.334863.241845-.117822.694531-.204639.610815-.114721.84646-.21394v-.08682q0-.251147-.124024-.356567-.124023-.108521-.468188-.108521-.232544 0-.362769.09302-.130224.08992-.210839.31936zm1.16582.706934q-.167432.05581-.5302.133325-.362769.07751-.47439.151929-.170532.120923-.170532.306958 0 .182934.136426.31626.136425.133325.347265.133325.235645 0 .449585-.155029.15813-.117823.207739-.288355.03411-.111621.03411-.42478zM78.397234 69.291733h-.871265v-1.680518q0-.533301-.05581-.68833-.05581-.15813-.182934-.244946-.124024-.08682-.300757-.08682-.226343 0-.406177.124024-.179834.124023-.248047.328662-.06511.204639-.06511.756543v1.491382h-.871265v-3.292822h.809253v.483691q.430982-.558105 1.085205-.558105.288355 0 .5271.105419.238745.10232.359668.26355.124023.161231.170532.365869.04961.204639.04961.586011zM82.155143 66.972495l-.858862.155029q-.04341-.257349-.198437-.387573-.151929-.130225-.396875-.130225-.325562 0-.520899.226343-.192236.223242-.192236.750342 0 .58601.195337.827856.198437.241846.5302.241846.248047 0 .406177-.139527.158129-.142627.223242-.486792l.855762.145728q-.133326.589111-.511597.889868-.378272.300757-1.013892.300757-.722436 0-1.153418-.455786-.427881-.455786-.427881-1.261939 0-.815454.430982-1.268139.430981-.455786 1.16582-.455786.601514 0 .954981.260449.356567.257348.511596.787549M84.725529 68.243735l.868164.145727q-.167432.477491-.5302.728638-.359668.248047-.902271.248047-.858862 0-1.27124-.561206-.325561-.449585-.325561-1.134815 0-.818554.427881-1.280542.42788-.465087 1.082104-.465087.734839 0 1.159619.486791.42478.483692.406177 1.485181h-2.182813q.0093.387573.21084.604614.201538.213941.502295.213941.204639 0 .344165-.111621.139527-.111621.21084-.359668m.04961-.880567q-.0093-.378271-.195336-.573608-.186036-.198438-.452686-.198438-.285254 0-.471289.20774-.186035.207739-.182935.564306zM86.353337 69.291733v-4.545459h.871264v4.545459z" style="fill:#fff;fill-opacity:1;stroke-width:.26458332" transform="translate(-63.111404 -58.971421)"/>
  </g>
  <path d="M93.424787 50.213241c0-.89537 1.016928-1 1.016928-1h21.702555s.75579-.011.78885 1c.0325.99458.004 5.4293 0 6.4-.003.88949-1.10335 1-1.10335 1H94.528128s-1.103341-.00069-1.103341-1z" style="fill:#0063ff;fill-opacity:1;stroke:#000;stroke-width:.26458332px;stroke-linecap:butt;stroke-linejoin:miter;stroke-opacity:1" transform="translate(-62.516092 -45.092056)"/>
  <g aria-label="Save" style="fill:#fff;fill-opacity:1;stroke:none;stroke-width:.26458332">
    <path d="m96.657185 67.801988.892969-.08682q.08061.449585.325562.660425.248046.210839.666626.210839.443383 0 .666626-.186035.226342-.189135.226342-.440283 0-.16123-.09612-.272851-.09302-.114722-.328662-.198438-.16123-.05581-.734839-.198437-.737939-.182935-1.035595-.449585-.41858-.375171-.41858-.914673 0-.347266.195337-.648023.198438-.303857.567408-.461987.37207-.15813.896069-.15813.855762 0 1.286743.375171.434089.375171.455789 1.001489l-.917776.04031q-.05891-.350366-.254248-.502295-.192237-.155029-.57981-.155029-.399975 0-.626318.164331-.145728.10542-.145728.282153 0 .161231.136426.275952.173633.145728.843359.303858.669727.15813.989087.328662.322461.167431.502298.461987.18293.291455.18293.722437 0 .390673-.21704.731738-.21704.341064-.613915.508496-.396875.164331-.989087.164331-.861963 0-1.32395-.396875-.461988-.399976-.551905-1.16272zM101.77625 66.992735l-.79065-.142627q.13333-.47749.45889-.706933.32556-.229444.96738-.229444.58291 0 .86817.139527.28525.136426.39997.350366.11782.21084.11782.778247l-.009 1.016992q0 .434082.0403.641822.0434.204638.15813.440283h-.86196q-.0341-.08682-.0837-.257349-.0217-.07751-.031-.102319-.22325.217041-.47749.325561-.25425.108521-.54261.108521-.50849 0-.80305-.275952-.29145-.275953-.29145-.697632 0-.279053.13332-.496094.13333-.220142.37207-.334863.24185-.117822.69453-.204639.61082-.114722.84646-.21394v-.08682q0-.251147-.12402-.356567-.12402-.108521-.46819-.108521-.23254 0-.36277.09302-.13022.08992-.21084.31936zm1.16582.706934q-.16743.05581-.5302.133325-.36277.07752-.47439.151929-.17053.120923-.17053.306958 0 .182934.13643.31626.13642.133325.34726.133325.23565 0 .44959-.15503.15813-.117822.20774-.288354.0341-.111621.0341-.42478zM105.56517 69.280968l-1.32705-3.292823h.91467l.62012 1.680518.17983.561206q.0713-.21394.0899-.282153.0434-.139527.093-.279053l.62631-1.680518h.89607l-1.30844 3.292823zM110.10133 68.23297l.86816.145727q-.16743.47749-.5302.728638-.35967.248047-.90227.248047-.85886 0-1.27124-.561206-.32556-.449585-.32556-1.134815 0-.818554.42788-1.280542.42788-.465088 1.0821-.465088.73484 0 1.15962.486792.42478.483692.40618 1.485181h-2.18281q.009.387573.21084.604614.20153.213941.50229.213941.20464 0 .34417-.111621.13952-.111621.21084-.359668m.0496-.880567q-.009-.378271-.19534-.573608-.18604-.198438-.45269-.198438-.28525 0-.47129.20774-.18603.207739-.18293.564306z" style="fill:#fff;fill-opacity:1;stroke-width:.26458332" transform="translate(-60.994737 -58.960655)"/>
  </g>
  <path d="M121.64319 50.213241c0-.89537 1.01693-1 1.01693-1h21.70256s.75579-.011.78885 1c.0325.99458.004 5.4293 0 6.4-.003.88949-1.10335 1-1.10335 1h-21.30165s-1.10334-.000688-1.10334-1z" style="fill:#0063ff;fill-opacity:1;stroke:#000;stroke-width:.26458332px;stroke-linecap:butt;stroke-linejoin:miter;stroke-opacity:1" transform="translate(-62.516092 -45.092056)"/>
  <path d="m126.39691 53.933389.89297-.08682q.0806.449585.32556.660425.24805.210839.66663.210839.44338 0 .66663-.186035.22634-.189135.22634-.440283 0-.16123-.0961-.272851-.093-.114722-.32866-.198438-.16123-.05581-.73484-.198437-.73794-.182935-1.0356-.449585-.41858-.375171-.41858-.914673 0-.347266.19534-.648023.19844-.303857.56741-.461987.37207-.15813.89607-.15813.85576 0 1.28674.375171.43408.375171.45579 1.001489l-.91778.04031q-.0589-.350366-.25424-.502295-.19224-.155029-.57981-.155029-.39998 0-.62632.164331-.14573.10542-.14573.282153 0 .161231.13643.275952.17363.145728.84335.303858.66973.15813.98909.328662.32246.167431.5023.461987.18293.291455.18293.722437 0 .390673-.21704.731738-.21704.341064-.61392.508496-.39687.164331-.98908.164331-.86197 0-1.32395-.396875-.46199-.399976-.55191-1.16272zM132.77172 54.364371l.86816.145727q-.16743.47749-.5302.728638-.35967.248047-.90227.248047-.85886 0-1.27124-.561206-.32556-.449585-.32556-1.134815 0-.818554.42788-1.280542.42788-.465088 1.0821-.465088.73484 0 1.15962.486792.42478.483692.40618 1.485181h-2.18281q.009.387573.21084.604614.20154.213941.50229.213941.20464 0 .34417-.111621.13952-.111621.21084-.359668m.0496-.880567q-.009-.378271-.19534-.573608-.18604-.198438-.45269-.198438-.28525 0-.47128.20774-.18604.207739-.18294.564306zM137.39469 55.412369h-.87126v-1.680518q0-.533301-.0558-.68833-.0558-.15813-.18294-.244946-.12402-.08682-.30076-.08682-.22634 0-.40617.124024-.17984.124023-.24805.328662-.0651.204639-.0651.756543v1.491382h-.87127v-3.292823h.80926v.483692q.43098-.558106 1.0852-.558106.28836 0 .5271.10542.23875.10232.35967.26355.12402.161231.17053.365869.0496.204639.0496.586011zM141.30143 55.412369h-.80925v-.483692q-.20154.282154-.47749.42168-.27286.136426-.55191.136426-.56741 0-.97358-.455786-.40308-.458887-.40308-1.277442 0-.837158.39378-1.27124.39377-.437183.99528-.437183.55191 0 .95498.458887V50.86691h.87127zm-2.32544-1.717725q0 .5271.14573.762744.21084.341065.58911.341065.30076 0 .5116-.254248.21084-.257349.21084-.765845 0-.567407-.20464-.815454-.20464-.251148-.524-.251148-.31006 0-.5209.248047-.20774.244947-.20774.734839" style="fill:#fff;fill-opacity:1;stroke:none;stroke-width:.26458332" transform="translate(-62.516092 -45.092056)"/>
</svg>
