<svg width="100%" height="100%" viewBox="0 0 242 58" xmlns="http://www.w3.org/2000/svg" xmlns:xlink="http://www.w3.org/1999/xlink" xml:space="preserve" fill-rule="evenodd" clip-rule="evenodd">
    <rect id="rect2664" x="0.661" y="0.657" width="239.974" height="56.25" style="fill:#fff;stroke:#fff;stroke-width:1.32px;"/>
    <g id="text817-7">
        <path id="path1144" d="M5.601,15.472l0,-5.86l-2.205,-0l0,-0.784l5.305,-0l0,0.784l-2.214,-0l0,5.86l-0.886,-0Z" style="fill-rule:nonzero;"/>
        <path id="path1146" d="M9.51,15.472l-0,-6.644l0.821,-0l0,2.383c0.384,-0.441 0.868,-0.661 1.452,-0.661c0.359,-0 0.671,0.071 0.936,0.213c0.265,0.139 0.454,0.332 0.566,0.58c0.116,0.248 0.174,0.607 0.174,1.078l-0,3.051l-0.822,-0l0,-3.051c0,-0.407 -0.09,-0.704 -0.269,-0.888c-0.177,-0.187 -0.428,-0.281 -0.754,-0.281c-0.243,0 -0.473,0.064 -0.689,0.191c-0.213,0.123 -0.365,0.293 -0.457,0.507c-0.091,0.215 -0.137,0.511 -0.137,0.888l0,2.634l-0.821,-0Z" style="fill-rule:nonzero;"/>
        <path id="path1148" d="M14.719,9.766l0,-0.938l0.822,-0l-0,0.938l-0.822,-0Zm0,5.706l0,-4.814l0.822,0l-0,4.814l-0.822,-0Z" style="fill-rule:nonzero;"/>
        <path id="path1150" d="M16.468,14.035l0.812,-0.127c0.046,0.323 0.172,0.571 0.379,0.743c0.21,0.173 0.503,0.259 0.877,0.259c0.377,-0 0.657,-0.076 0.84,-0.227c0.183,-0.154 0.274,-0.334 0.274,-0.539c-0,-0.185 -0.081,-0.33 -0.242,-0.435c-0.113,-0.073 -0.393,-0.165 -0.84,-0.277c-0.603,-0.151 -1.021,-0.281 -1.256,-0.39c-0.231,-0.111 -0.408,-0.264 -0.529,-0.457c-0.119,-0.197 -0.178,-0.413 -0.178,-0.648c-0,-0.215 0.048,-0.413 0.146,-0.594c0.1,-0.184 0.236,-0.337 0.406,-0.458c0.128,-0.094 0.301,-0.172 0.521,-0.236c0.222,-0.066 0.459,-0.099 0.712,-0.099c0.38,-0 0.714,0.054 1,0.163c0.289,0.109 0.502,0.257 0.639,0.444c0.137,0.184 0.231,0.432 0.283,0.743l-0.804,0.109c-0.036,-0.248 -0.143,-0.441 -0.319,-0.58c-0.174,-0.139 -0.42,-0.209 -0.74,-0.209c-0.377,0 -0.647,0.062 -0.808,0.186c-0.161,0.124 -0.242,0.269 -0.242,0.435c0,0.106 0.034,0.201 0.101,0.286c0.066,0.088 0.171,0.16 0.315,0.217c0.082,0.031 0.324,0.1 0.726,0.209c0.581,0.154 0.986,0.281 1.214,0.381c0.231,0.096 0.412,0.238 0.543,0.426c0.131,0.187 0.197,0.42 0.197,0.698c-0,0.272 -0.081,0.528 -0.242,0.77c-0.159,0.239 -0.388,0.425 -0.69,0.558c-0.301,0.129 -0.642,0.194 -1.022,0.194c-0.631,0 -1.111,-0.13 -1.443,-0.389c-0.329,-0.26 -0.539,-0.645 -0.63,-1.156l-0,-0Z" style="fill-rule:nonzero;"/>
        <path id="path1152" d="M24.07,9.766l-0,-0.938l0.821,-0l0,0.938l-0.821,-0Zm-0,5.706l-0,-4.814l0.821,0l0,4.814l-0.821,-0Z" style="fill-rule:nonzero;"/>
        <path id="path1154" d="M25.818,14.035l0.813,-0.127c0.046,0.323 0.172,0.571 0.379,0.743c0.21,0.173 0.502,0.259 0.877,0.259c0.377,-0 0.657,-0.076 0.84,-0.227c0.182,-0.154 0.274,-0.334 0.274,-0.539c-0,-0.185 -0.081,-0.33 -0.242,-0.435c-0.113,-0.073 -0.393,-0.165 -0.84,-0.277c-0.603,-0.151 -1.022,-0.281 -1.256,-0.39c-0.231,-0.111 -0.408,-0.264 -0.53,-0.457c-0.118,-0.197 -0.178,-0.413 -0.178,-0.648c0,-0.215 0.049,-0.413 0.146,-0.594c0.101,-0.184 0.236,-0.337 0.407,-0.458c0.128,-0.094 0.301,-0.172 0.52,-0.236c0.222,-0.066 0.46,-0.099 0.712,-0.099c0.381,-0 0.714,0.054 1,0.163c0.29,0.109 0.503,0.257 0.64,0.444c0.137,0.184 0.231,0.432 0.283,0.743l-0.804,0.109c-0.036,-0.248 -0.143,-0.441 -0.32,-0.58c-0.173,-0.139 -0.42,-0.209 -0.739,-0.209c-0.378,0 -0.647,0.062 -0.808,0.186c-0.162,0.124 -0.242,0.269 -0.242,0.435c-0,0.106 0.033,0.201 0.1,0.286c0.067,0.088 0.172,0.16 0.315,0.217c0.082,0.031 0.324,0.1 0.726,0.209c0.581,0.154 0.986,0.281 1.215,0.381c0.231,0.096 0.412,0.238 0.543,0.426c0.131,0.187 0.196,0.42 0.196,0.698c0,0.272 -0.08,0.528 -0.242,0.77c-0.158,0.239 -0.388,0.425 -0.689,0.558c-0.301,0.129 -0.642,0.194 -1.023,0.194c-0.63,0 -1.111,-0.13 -1.443,-0.389c-0.328,-0.26 -0.538,-0.645 -0.63,-1.156l0,-0Z" style="fill-rule:nonzero;"/>
        <path id="path1156" d="M36.58,14.878c-0.305,0.257 -0.598,0.438 -0.882,0.544c-0.28,0.105 -0.581,0.158 -0.904,0.158c-0.532,0 -0.942,-0.128 -1.228,-0.385c-0.286,-0.26 -0.429,-0.591 -0.429,-0.992c0,-0.236 0.053,-0.451 0.16,-0.644c0.11,-0.196 0.251,-0.353 0.425,-0.471c0.176,-0.118 0.374,-0.207 0.593,-0.268c0.161,-0.042 0.405,-0.083 0.731,-0.122c0.663,-0.079 1.152,-0.172 1.465,-0.281c0.003,-0.112 0.005,-0.183 0.005,-0.213c-0,-0.332 -0.078,-0.567 -0.233,-0.703c-0.21,-0.184 -0.522,-0.276 -0.936,-0.276c-0.387,0 -0.673,0.068 -0.858,0.204c-0.183,0.133 -0.318,0.37 -0.407,0.711l-0.803,-0.108c0.073,-0.342 0.193,-0.617 0.36,-0.825c0.168,-0.212 0.41,-0.373 0.726,-0.485c0.317,-0.115 0.684,-0.172 1.101,-0.172c0.414,-0 0.75,0.048 1.009,0.145c0.258,0.096 0.449,0.219 0.57,0.367c0.122,0.145 0.207,0.329 0.256,0.553c0.028,0.139 0.041,0.39 0.041,0.752l0,1.088c0,0.758 0.017,1.239 0.05,1.441c0.037,0.199 0.107,0.391 0.21,0.576l-0.858,-0c-0.085,-0.17 -0.14,-0.368 -0.164,-0.594l-0,-0Zm-0.069,-1.822c-0.298,0.121 -0.746,0.224 -1.342,0.308c-0.338,0.049 -0.577,0.103 -0.717,0.163c-0.14,0.061 -0.248,0.15 -0.324,0.268c-0.076,0.115 -0.114,0.243 -0.114,0.385c-0,0.217 0.082,0.399 0.246,0.544c0.168,0.145 0.411,0.217 0.731,0.217c0.316,0 0.598,-0.068 0.844,-0.204c0.247,-0.139 0.428,-0.327 0.544,-0.566c0.088,-0.184 0.132,-0.456 0.132,-0.816l0,-0.299Z" style="fill-rule:nonzero;"/>
        <path id="path1158" d="M41.972,15.472l-0.763,-0l0,-6.644l0.822,-0l0,2.37c0.347,-0.432 0.79,-0.648 1.329,-0.648c0.298,-0 0.58,0.06 0.844,0.181c0.268,0.118 0.487,0.286 0.658,0.503c0.173,0.215 0.309,0.474 0.406,0.78c0.098,0.305 0.146,0.631 0.146,0.979c0,0.824 -0.205,1.462 -0.616,1.912c-0.411,0.45 -0.904,0.675 -1.479,0.675c-0.573,0 -1.022,-0.237 -1.347,-0.711l-0,0.603Zm-0.009,-2.443c-0,0.577 0.079,0.994 0.237,1.251c0.259,0.42 0.609,0.63 1.05,0.63c0.359,-0 0.67,-0.154 0.932,-0.463c0.261,-0.311 0.392,-0.773 0.392,-1.386c0,-0.629 -0.126,-1.093 -0.379,-1.392c-0.249,-0.299 -0.552,-0.449 -0.908,-0.449c-0.359,0 -0.67,0.156 -0.932,0.467c-0.261,0.308 -0.392,0.756 -0.392,1.342Z" style="fill-rule:nonzero;"/>
        <rect id="path1160" x="46.401" y="8.828" width="0.822" height="6.644" style="fill-rule:nonzero;"/>
        <path id="path1162" d="M48.195,13.065c-0,-0.891 0.249,-1.551 0.749,-1.98c0.417,-0.357 0.925,-0.535 1.525,-0.535c0.666,-0 1.211,0.217 1.634,0.652c0.423,0.432 0.635,1.031 0.635,1.795c-0,0.619 -0.095,1.107 -0.283,1.464c-0.186,0.353 -0.458,0.628 -0.818,0.825c-0.356,0.196 -0.745,0.294 -1.168,0.294c-0.679,0 -1.229,-0.216 -1.649,-0.648c-0.417,-0.432 -0.625,-1.054 -0.625,-1.867Zm0.845,0c-0,0.616 0.135,1.079 0.406,1.387c0.271,0.305 0.612,0.458 1.023,0.458c0.407,-0 0.747,-0.154 1.018,-0.463c0.271,-0.308 0.406,-0.778 0.406,-1.409c0,-0.595 -0.137,-1.046 -0.411,-1.351c-0.271,-0.308 -0.609,-0.462 -1.013,-0.462c-0.411,0 -0.752,0.153 -1.023,0.458c-0.271,0.305 -0.406,0.766 -0.406,1.382Z" style="fill-rule:nonzero;"/>
        <path id="path1164" d="M56.87,13.709l0.808,0.104c-0.088,0.553 -0.315,0.986 -0.68,1.301c-0.363,0.311 -0.809,0.466 -1.338,0.466c-0.664,0 -1.198,-0.214 -1.603,-0.643c-0.402,-0.432 -0.602,-1.05 -0.602,-1.854c-0,-0.52 0.086,-0.974 0.26,-1.364c0.173,-0.39 0.437,-0.681 0.79,-0.875c0.356,-0.196 0.742,-0.294 1.159,-0.294c0.527,-0 0.958,0.133 1.292,0.399c0.335,0.262 0.55,0.637 0.644,1.124l-0.799,0.122c-0.076,-0.323 -0.211,-0.567 -0.406,-0.73c-0.192,-0.163 -0.425,-0.245 -0.699,-0.245c-0.414,0 -0.75,0.149 -1.009,0.445c-0.258,0.293 -0.388,0.758 -0.388,1.396c0,0.646 0.125,1.116 0.375,1.409c0.249,0.293 0.575,0.44 0.977,0.44c0.322,-0 0.592,-0.099 0.808,-0.295c0.216,-0.196 0.353,-0.499 0.411,-0.906l-0,-0Z" style="fill-rule:nonzero;"/>
        <path id="path1166" d="M58.386,15.472l-0,-6.644l0.821,-0l0,3.788l1.945,-1.958l1.064,0l-1.853,1.786l2.04,3.028l-1.013,-0l-1.603,-2.461l-0.58,0.553l0,1.908l-0.821,-0Z" style="fill-rule:nonzero;"/>
        <path id="path1168" d="M65.344,13.065c-0,-0.891 0.249,-1.551 0.748,-1.98c0.417,-0.357 0.926,-0.535 1.525,-0.535c0.667,-0 1.212,0.217 1.635,0.652c0.423,0.432 0.635,1.031 0.635,1.795c-0,0.619 -0.095,1.107 -0.283,1.464c-0.186,0.353 -0.459,0.628 -0.818,0.825c-0.356,0.196 -0.745,0.294 -1.169,0.294c-0.678,0 -1.228,-0.216 -1.648,-0.648c-0.417,-0.432 -0.625,-1.054 -0.625,-1.867Zm0.844,0c0,0.616 0.136,1.079 0.407,1.387c0.271,0.305 0.612,0.458 1.022,0.458c0.408,-0 0.748,-0.154 1.019,-0.463c0.27,-0.308 0.406,-0.778 0.406,-1.409c-0,-0.595 -0.137,-1.046 -0.411,-1.351c-0.271,-0.308 -0.609,-0.462 -1.014,-0.462c-0.41,0 -0.751,0.153 -1.022,0.458c-0.271,0.305 -0.407,0.766 -0.407,1.382Z" style="fill-rule:nonzero;"/>
        <path id="path1170" d="M71.051,15.472l-0,-4.179l-0.726,-0l-0,-0.635l0.726,0l-0,-0.512c-0,-0.323 0.029,-0.563 0.087,-0.72c0.079,-0.212 0.217,-0.382 0.415,-0.512c0.201,-0.133 0.481,-0.2 0.84,-0.2c0.232,0 0.487,0.027 0.767,0.082l-0.123,0.711c-0.17,-0.03 -0.332,-0.045 -0.484,-0.045c-0.25,0 -0.426,0.053 -0.53,0.159c-0.103,0.105 -0.155,0.303 -0.155,0.593l0,0.444l0.945,0l0,0.635l-0.945,-0l0,4.179l-0.817,-0Z" style="fill-rule:nonzero;"/>
        <path id="path1172" d="M77.836,14.742l0.118,0.721c-0.231,0.048 -0.438,0.072 -0.621,0.072c-0.298,0 -0.529,-0.047 -0.694,-0.14c-0.164,-0.094 -0.28,-0.216 -0.347,-0.368c-0.067,-0.154 -0.1,-0.475 -0.1,-0.965l-0,-2.769l-0.603,-0l0,-0.635l0.603,0l-0,-1.191l0.817,-0.49l0,1.681l0.827,0l-0,0.635l-0.827,-0l0,2.814c0,0.233 0.014,0.383 0.041,0.449c0.031,0.067 0.078,0.119 0.142,0.159c0.067,0.039 0.161,0.059 0.283,0.059c0.091,-0 0.211,-0.011 0.361,-0.032l-0,-0Z" style="fill-rule:nonzero;"/>
        <path id="path1174" d="M81.954,13.922l0.849,0.104c-0.134,0.492 -0.382,0.875 -0.744,1.146c-0.362,0.272 -0.825,0.408 -1.388,0.408c-0.709,0 -1.272,-0.216 -1.689,-0.648c-0.414,-0.435 -0.621,-1.044 -0.621,-1.826c-0,-0.81 0.21,-1.438 0.63,-1.886c0.42,-0.447 0.965,-0.67 1.634,-0.67c0.649,-0 1.178,0.219 1.589,0.657c0.411,0.438 0.616,1.054 0.616,1.849c0,0.048 -0.001,0.121 -0.004,0.218l-3.616,-0c0.03,0.528 0.181,0.933 0.452,1.214c0.271,0.281 0.609,0.422 1.013,0.422c0.302,-0 0.559,-0.079 0.772,-0.236c0.213,-0.157 0.382,-0.408 0.507,-0.752l-0,-0Zm-2.699,-1.319l2.708,-0c-0.037,-0.405 -0.14,-0.709 -0.311,-0.911c-0.261,-0.314 -0.601,-0.472 -1.018,-0.472c-0.377,0 -0.695,0.126 -0.954,0.377c-0.256,0.25 -0.397,0.586 -0.425,1.006Z" style="fill-rule:nonzero;"/>
        <path id="path1176" d="M83.292,15.472l1.771,-2.502l-1.639,-2.312l1.027,0l0.744,1.129c0.14,0.215 0.253,0.394 0.338,0.539c0.134,-0.199 0.258,-0.376 0.37,-0.53l0.817,-1.138l0.982,0l-1.676,2.267l1.804,2.547l-1.009,-0l-0.995,-1.496l-0.265,-0.403l-1.274,1.899l-0.995,-0Z" style="fill-rule:nonzero;"/>
        <path id="path1178" d="M90.309,14.742l0.119,0.721c-0.232,0.048 -0.439,0.072 -0.621,0.072c-0.298,0 -0.53,-0.047 -0.694,-0.14c-0.165,-0.094 -0.28,-0.216 -0.347,-0.368c-0.067,-0.154 -0.101,-0.475 -0.101,-0.965l0,-2.769l-0.602,-0l-0,-0.635l0.602,0l0,-1.191l0.818,-0.49l-0,1.681l0.826,0l0,0.635l-0.826,-0l-0,2.814c-0,0.233 0.013,0.383 0.041,0.449c0.03,0.067 0.077,0.119 0.141,0.159c0.067,0.039 0.162,0.059 0.283,0.059c0.092,-0 0.212,-0.011 0.361,-0.032l0,-0Z" style="fill-rule:nonzero;"/>
        <path id="path1180" d="M96.865,13.709l0.809,0.104c-0.089,0.553 -0.315,0.986 -0.681,1.301c-0.362,0.311 -0.808,0.466 -1.337,0.466c-0.664,0 -1.198,-0.214 -1.603,-0.643c-0.402,-0.432 -0.603,-1.05 -0.603,-1.854c0,-0.52 0.087,-0.974 0.261,-1.364c0.173,-0.39 0.436,-0.681 0.789,-0.875c0.357,-0.196 0.743,-0.294 1.16,-0.294c0.527,-0 0.957,0.133 1.292,0.399c0.335,0.262 0.55,0.637 0.644,1.124l-0.799,0.122c-0.076,-0.323 -0.212,-0.567 -0.406,-0.73c-0.192,-0.163 -0.425,-0.245 -0.699,-0.245c-0.414,0 -0.75,0.149 -1.009,0.445c-0.259,0.293 -0.388,0.758 -0.388,1.396c-0,0.646 0.125,1.116 0.374,1.409c0.25,0.293 0.576,0.44 0.977,0.44c0.323,-0 0.592,-0.099 0.809,-0.295c0.216,-0.196 0.353,-0.499 0.41,-0.906l0,-0Z" style="fill:#1557ff;fill-rule:nonzero;"/>
        <path id="path1182" d="M98.071,13.065c-0,-0.891 0.249,-1.551 0.749,-1.98c0.417,-0.357 0.925,-0.535 1.525,-0.535c0.666,-0 1.211,0.217 1.634,0.652c0.423,0.432 0.635,1.031 0.635,1.795c-0,0.619 -0.095,1.107 -0.283,1.464c-0.186,0.353 -0.458,0.628 -0.818,0.825c-0.356,0.196 -0.745,0.294 -1.168,0.294c-0.679,0 -1.229,-0.216 -1.649,-0.648c-0.417,-0.432 -0.625,-1.054 -0.625,-1.867Zm0.844,0c0,0.616 0.136,1.079 0.407,1.387c0.271,0.305 0.612,0.458 1.023,0.458c0.407,-0 0.747,-0.154 1.018,-0.463c0.271,-0.308 0.406,-0.778 0.406,-1.409c0,-0.595 -0.137,-1.046 -0.411,-1.351c-0.271,-0.308 -0.609,-0.462 -1.013,-0.462c-0.411,0 -0.752,0.153 -1.023,0.458c-0.271,0.305 -0.407,0.766 -0.407,1.382Z" style="fill:#1557ff;fill-rule:nonzero;"/>
        <path id="path1184" d="M103.582,15.472l-0,-4.814l0.739,0l0,0.685c0.356,-0.529 0.871,-0.793 1.543,-0.793c0.293,-0 0.561,0.053 0.804,0.158c0.247,0.103 0.431,0.239 0.552,0.408c0.122,0.169 0.207,0.37 0.256,0.603c0.031,0.151 0.046,0.415 0.046,0.793l-0,2.96l-0.822,-0l-0,-2.928c-0,-0.333 -0.032,-0.58 -0.096,-0.743c-0.064,-0.167 -0.178,-0.298 -0.342,-0.395c-0.162,-0.099 -0.352,-0.149 -0.571,-0.149c-0.35,-0 -0.653,0.11 -0.909,0.331c-0.252,0.22 -0.379,0.639 -0.379,1.255l0,2.629l-0.821,-0Z" style="fill:#1557ff;fill-rule:nonzero;"/>
        <path id="path1186" d="M110.581,14.742l0.119,0.721c-0.232,0.048 -0.439,0.072 -0.621,0.072c-0.299,0 -0.53,-0.047 -0.694,-0.14c-0.165,-0.094 -0.28,-0.216 -0.347,-0.368c-0.067,-0.154 -0.101,-0.475 -0.101,-0.965l0,-2.769l-0.602,-0l-0,-0.635l0.602,0l0,-1.191l0.817,-0.49l0,1.681l0.827,0l-0,0.635l-0.827,-0l0,2.814c0,0.233 0.014,0.383 0.042,0.449c0.03,0.067 0.077,0.119 0.141,0.159c0.067,0.039 0.161,0.059 0.283,0.059c0.092,-0 0.212,-0.011 0.361,-0.032l-0,-0Z" style="fill:#1557ff;fill-rule:nonzero;"/>
        <path id="path1188" d="M114.544,14.878c-0.304,0.257 -0.598,0.438 -0.881,0.544c-0.28,0.105 -0.582,0.158 -0.904,0.158c-0.533,0 -0.942,-0.128 -1.228,-0.385c-0.287,-0.26 -0.43,-0.591 -0.43,-0.992c0,-0.236 0.054,-0.451 0.16,-0.644c0.11,-0.196 0.251,-0.353 0.425,-0.471c0.176,-0.118 0.374,-0.207 0.593,-0.268c0.162,-0.042 0.405,-0.083 0.731,-0.122c0.663,-0.079 1.152,-0.172 1.465,-0.281c0.004,-0.112 0.005,-0.183 0.005,-0.213c0,-0.332 -0.078,-0.567 -0.233,-0.703c-0.21,-0.184 -0.522,-0.276 -0.936,-0.276c-0.386,0 -0.672,0.068 -0.858,0.204c-0.183,0.133 -0.318,0.37 -0.406,0.711l-0.804,-0.108c0.073,-0.342 0.193,-0.617 0.361,-0.825c0.167,-0.212 0.409,-0.373 0.726,-0.485c0.316,-0.115 0.683,-0.172 1.1,-0.172c0.414,-0 0.75,0.048 1.009,0.145c0.259,0.096 0.449,0.219 0.571,0.367c0.121,0.145 0.207,0.329 0.255,0.553c0.028,0.139 0.041,0.39 0.041,0.752l0,1.088c0,0.758 0.017,1.239 0.051,1.441c0.036,0.199 0.106,0.391 0.21,0.576l-0.859,-0c-0.085,-0.17 -0.14,-0.368 -0.164,-0.594l-0,-0Zm-0.069,-1.822c-0.298,0.121 -0.745,0.224 -1.342,0.308c-0.338,0.049 -0.577,0.103 -0.717,0.163c-0.14,0.061 -0.248,0.15 -0.324,0.268c-0.076,0.115 -0.114,0.243 -0.114,0.385c-0,0.217 0.082,0.399 0.247,0.544c0.167,0.145 0.41,0.217 0.73,0.217c0.317,0 0.598,-0.068 0.845,-0.204c0.246,-0.139 0.427,-0.327 0.543,-0.566c0.088,-0.184 0.132,-0.456 0.132,-0.816l0,-0.299Z" style="fill:#1557ff;fill-rule:nonzero;"/>
        <path id="path1190" d="M116.589,9.766l0,-0.938l0.822,-0l0,0.938l-0.822,-0Zm0,5.706l0,-4.814l0.822,0l0,4.814l-0.822,-0Z" style="fill:#1557ff;fill-rule:nonzero;"/>
        <path id="path1192" d="M118.667,15.472l-0,-4.814l0.739,0l0,0.685c0.357,-0.529 0.871,-0.793 1.544,-0.793c0.292,-0 0.56,0.053 0.803,0.158c0.247,0.103 0.431,0.239 0.553,0.408c0.121,0.169 0.207,0.37 0.255,0.603c0.031,0.151 0.046,0.415 0.046,0.793l-0,2.96l-0.822,-0l0,-2.928c0,-0.333 -0.032,-0.58 -0.096,-0.743c-0.064,-0.167 -0.178,-0.298 -0.342,-0.395c-0.162,-0.099 -0.352,-0.149 -0.571,-0.149c-0.35,-0 -0.653,0.11 -0.908,0.331c-0.253,0.22 -0.379,0.639 -0.379,1.255l-0,2.629l-0.822,-0Z" style="fill:#1557ff;fill-rule:nonzero;"/>
        <path id="path1194" d="M123.876,9.766l0,-0.938l0.822,-0l0,0.938l-0.822,-0Zm0,5.706l0,-4.814l0.822,0l0,4.814l-0.822,-0Z" style="fill:#1557ff;fill-rule:nonzero;"/>
        <path id="path1196" d="M125.954,15.472l-0,-4.814l0.739,0l0,0.685c0.356,-0.529 0.871,-0.793 1.543,-0.793c0.293,-0 0.561,0.053 0.804,0.158c0.247,0.103 0.431,0.239 0.553,0.408c0.121,0.169 0.206,0.37 0.255,0.603c0.031,0.151 0.046,0.415 0.046,0.793l-0,2.96l-0.822,-0l0,-2.928c0,-0.333 -0.032,-0.58 -0.096,-0.743c-0.064,-0.167 -0.178,-0.298 -0.342,-0.395c-0.162,-0.099 -0.352,-0.149 -0.571,-0.149c-0.35,-0 -0.653,0.11 -0.909,0.331c-0.252,0.22 -0.379,0.639 -0.379,1.255l0,2.629l-0.821,-0Z" style="fill:#1557ff;fill-rule:nonzero;"/>
        <path id="path1198" d="M131.008,15.87l0.799,0.118c0.033,0.245 0.126,0.423 0.278,0.535c0.204,0.151 0.483,0.227 0.836,0.227c0.38,-0 0.674,-0.076 0.881,-0.227c0.207,-0.151 0.347,-0.363 0.42,-0.634c0.043,-0.167 0.063,-0.516 0.059,-1.047c-0.359,0.42 -0.806,0.63 -1.342,0.63c-0.666,-0 -1.182,-0.239 -1.548,-0.716c-0.365,-0.478 -0.548,-1.05 -0.548,-1.718c0,-0.459 0.084,-0.882 0.252,-1.269c0.167,-0.39 0.409,-0.691 0.726,-0.902c0.319,-0.212 0.694,-0.317 1.123,-0.317c0.572,-0 1.044,0.229 1.415,0.689l0,-0.581l0.758,0l0,4.161c0,0.749 -0.078,1.28 -0.233,1.591c-0.152,0.314 -0.396,0.562 -0.73,0.743c-0.332,0.181 -0.742,0.272 -1.229,0.272c-0.578,-0 -1.045,-0.13 -1.401,-0.39c-0.356,-0.257 -0.528,-0.645 -0.516,-1.165l-0,0Zm0.68,-2.891c0,0.631 0.126,1.092 0.379,1.382c0.253,0.29 0.569,0.435 0.95,0.435c0.377,0 0.694,-0.143 0.949,-0.43c0.256,-0.29 0.384,-0.744 0.384,-1.36c0,-0.589 -0.132,-1.033 -0.397,-1.332c-0.262,-0.299 -0.579,-0.449 -0.95,-0.449c-0.365,0 -0.676,0.148 -0.931,0.444c-0.256,0.293 -0.384,0.73 -0.384,1.31Z" style="fill:#1557ff;fill-rule:nonzero;"/>
        <path id="path1200" d="M142.121,14.878c-0.305,0.257 -0.598,0.438 -0.881,0.544c-0.28,0.105 -0.582,0.158 -0.904,0.158c-0.533,0 -0.942,-0.128 -1.229,-0.385c-0.286,-0.26 -0.429,-0.591 -0.429,-0.992c0,-0.236 0.054,-0.451 0.16,-0.644c0.11,-0.196 0.251,-0.353 0.425,-0.471c0.176,-0.118 0.374,-0.207 0.593,-0.268c0.162,-0.042 0.405,-0.083 0.731,-0.122c0.663,-0.079 1.152,-0.172 1.465,-0.281c0.004,-0.112 0.005,-0.183 0.005,-0.213c0,-0.332 -0.077,-0.567 -0.232,-0.703c-0.211,-0.184 -0.522,-0.276 -0.936,-0.276c-0.387,0 -0.673,0.068 -0.859,0.204c-0.182,0.133 -0.318,0.37 -0.406,0.711l-0.804,-0.108c0.073,-0.342 0.194,-0.617 0.361,-0.825c0.167,-0.212 0.409,-0.373 0.726,-0.485c0.316,-0.115 0.683,-0.172 1.1,-0.172c0.414,-0 0.751,0.048 1.009,0.145c0.259,0.096 0.449,0.219 0.571,0.367c0.122,0.145 0.207,0.329 0.256,0.553c0.027,0.139 0.041,0.39 0.041,0.752l-0,1.088c-0,0.758 0.016,1.239 0.05,1.441c0.037,0.199 0.107,0.391 0.21,0.576l-0.858,-0c-0.086,-0.17 -0.14,-0.368 -0.165,-0.594l-0,-0Zm-0.069,-1.822c-0.298,0.121 -0.745,0.224 -1.342,0.308c-0.338,0.049 -0.577,0.103 -0.717,0.163c-0.14,0.061 -0.248,0.15 -0.324,0.268c-0.076,0.115 -0.114,0.243 -0.114,0.385c-0,0.217 0.082,0.399 0.247,0.544c0.167,0.145 0.41,0.217 0.73,0.217c0.317,0 0.598,-0.068 0.845,-0.204c0.246,-0.139 0.427,-0.327 0.543,-0.566c0.088,-0.184 0.132,-0.456 0.132,-0.816l0,-0.299Z" style="fill:#1557ff;fill-rule:nonzero;"/>
        <rect id="path1202" x="146.737" y="8.828" width="0.822" height="6.644" style="fill:#1557ff;fill-rule:nonzero;"/>
        <path id="path1204" d="M148.842,9.766l-0,-0.938l0.821,-0l0,0.938l-0.821,-0Zm-0,5.706l-0,-4.814l0.821,0l0,4.814l-0.821,-0Z" style="fill:#1557ff;fill-rule:nonzero;"/>
        <path id="path1206" d="M150.919,15.472l-0,-4.814l0.74,0l-0,0.685c0.356,-0.529 0.87,-0.793 1.543,-0.793c0.292,-0 0.56,0.053 0.803,0.158c0.247,0.103 0.431,0.239 0.553,0.408c0.122,0.169 0.207,0.37 0.256,0.603c0.03,0.151 0.045,0.415 0.045,0.793l0,2.96l-0.822,-0l0,-2.928c0,-0.333 -0.032,-0.58 -0.095,-0.743c-0.064,-0.167 -0.179,-0.298 -0.343,-0.395c-0.161,-0.099 -0.351,-0.149 -0.571,-0.149c-0.35,-0 -0.653,0.11 -0.908,0.331c-0.253,0.22 -0.379,0.639 -0.379,1.255l-0,2.629l-0.822,-0Z" style="fill:#1557ff;fill-rule:nonzero;"/>
        <path id="path1208" d="M156.128,15.472l0,-6.644l0.822,-0l0,3.788l1.945,-1.958l1.064,0l-1.854,1.786l2.041,3.028l-1.013,-0l-1.603,-2.461l-0.58,0.553l0,1.908l-0.822,-0Z" style="fill:#1557ff;fill-rule:nonzero;"/>
        <path id="path1210" d="M163.397,9.766l0,-0.938l0.822,-0l-0,0.938l-0.822,-0Zm0,5.706l0,-4.814l0.822,0l-0,4.814l-0.822,-0Z" style="fill-rule:nonzero;"/>
        <path id="path1212" d="M165.475,15.472l-0,-4.814l0.739,0l0,0.685c0.356,-0.529 0.871,-0.793 1.543,-0.793c0.293,-0 0.56,0.053 0.804,0.158c0.246,0.103 0.431,0.239 0.552,0.408c0.122,0.169 0.207,0.37 0.256,0.603c0.031,0.151 0.046,0.415 0.046,0.793l-0,2.96l-0.822,-0l-0,-2.928c-0,-0.333 -0.032,-0.58 -0.096,-0.743c-0.064,-0.167 -0.178,-0.298 -0.342,-0.395c-0.162,-0.099 -0.352,-0.149 -0.571,-0.149c-0.35,-0 -0.653,0.11 -0.909,0.331c-0.252,0.22 -0.379,0.639 -0.379,1.255l0,2.629l-0.821,-0Z" style="fill-rule:nonzero;"/>
        <path id="path1214" d="M176.437,14.878c-0.305,0.257 -0.598,0.438 -0.881,0.544c-0.28,0.105 -0.582,0.158 -0.904,0.158c-0.533,0 -0.942,-0.128 -1.229,-0.385c-0.286,-0.26 -0.429,-0.591 -0.429,-0.992c0,-0.236 0.054,-0.451 0.16,-0.644c0.11,-0.196 0.251,-0.353 0.425,-0.471c0.176,-0.118 0.374,-0.207 0.593,-0.268c0.162,-0.042 0.405,-0.083 0.731,-0.122c0.663,-0.079 1.152,-0.172 1.465,-0.281c0.004,-0.112 0.005,-0.183 0.005,-0.213c0,-0.332 -0.077,-0.567 -0.232,-0.703c-0.211,-0.184 -0.523,-0.276 -0.936,-0.276c-0.387,0 -0.673,0.068 -0.859,0.204c-0.182,0.133 -0.318,0.37 -0.406,0.711l-0.804,-0.108c0.073,-0.342 0.193,-0.617 0.361,-0.825c0.167,-0.212 0.409,-0.373 0.726,-0.485c0.316,-0.115 0.683,-0.172 1.1,-0.172c0.414,-0 0.751,0.048 1.009,0.145c0.259,0.096 0.449,0.219 0.571,0.367c0.122,0.145 0.207,0.329 0.256,0.553c0.027,0.139 0.041,0.39 0.041,0.752l-0,1.088c-0,0.758 0.016,1.239 0.05,1.441c0.036,0.199 0.106,0.391 0.21,0.576l-0.858,-0c-0.086,-0.17 -0.14,-0.368 -0.165,-0.594l-0,-0Zm-0.069,-1.822c-0.298,0.121 -0.745,0.224 -1.342,0.308c-0.338,0.049 -0.577,0.103 -0.717,0.163c-0.14,0.061 -0.248,0.15 -0.324,0.268c-0.076,0.115 -0.114,0.243 -0.114,0.385c-0,0.217 0.082,0.399 0.246,0.544c0.168,0.145 0.411,0.217 0.731,0.217c0.317,0 0.598,-0.068 0.845,-0.204c0.246,-0.139 0.427,-0.327 0.543,-0.566c0.088,-0.184 0.132,-0.456 0.132,-0.816l0,-0.299Z" style="fill-rule:nonzero;"/>
        <path id="path1216" d="M184.217,15.472l-0,-0.608c-0.308,0.478 -0.76,0.716 -1.356,0.716c-0.387,0 -0.743,-0.105 -1.069,-0.317c-0.322,-0.211 -0.573,-0.506 -0.753,-0.884c-0.176,-0.38 -0.265,-0.817 -0.265,-1.309c0,-0.481 0.081,-0.916 0.242,-1.306c0.162,-0.392 0.404,-0.693 0.726,-0.902c0.323,-0.208 0.683,-0.312 1.082,-0.312c0.292,-0 0.553,0.062 0.781,0.186c0.228,0.12 0.414,0.279 0.557,0.475l-0,-2.383l0.817,-0l0,6.644l-0.762,-0Zm-2.598,-2.402c-0,0.616 0.131,1.077 0.393,1.382c0.261,0.305 0.57,0.458 0.926,0.458c0.36,-0 0.664,-0.145 0.914,-0.435c0.252,-0.294 0.378,-0.739 0.378,-1.337c0,-0.659 -0.127,-1.143 -0.383,-1.451c-0.256,-0.308 -0.571,-0.462 -0.945,-0.462c-0.365,0 -0.671,0.148 -0.918,0.444c-0.243,0.296 -0.365,0.763 -0.365,1.401Z" style="fill-rule:nonzero;"/>
        <path id="path1218" d="M186.28,9.766l0,-0.938l0.822,-0l0,0.938l-0.822,-0Zm0,5.706l0,-4.814l0.822,0l0,4.814l-0.822,-0Z" style="fill-rule:nonzero;"/>
        <path id="path1220" d="M188.554,15.472l0,-4.179l-0.726,-0l0,-0.635l0.726,0l0,-0.512c0,-0.323 0.029,-0.563 0.087,-0.72c0.079,-0.212 0.218,-0.382 0.415,-0.512c0.201,-0.133 0.481,-0.2 0.841,-0.2c0.231,0 0.487,0.027 0.767,0.082l-0.124,0.711c-0.17,-0.03 -0.331,-0.045 -0.484,-0.045c-0.249,0 -0.426,0.053 -0.529,0.159c-0.104,0.105 -0.155,0.303 -0.155,0.593l-0,0.444l0.945,0l-0,0.635l-0.945,-0l-0,4.179l-0.818,-0Z" style="fill-rule:nonzero;"/>
        <path id="path1222" d="M190.983,15.472l0,-4.179l-0.726,-0l0,-0.635l0.726,0l0,-0.512c0,-0.323 0.029,-0.563 0.087,-0.72c0.079,-0.212 0.218,-0.382 0.415,-0.512c0.201,-0.133 0.481,-0.2 0.841,-0.2c0.231,0 0.487,0.027 0.767,0.082l-0.124,0.711c-0.17,-0.03 -0.331,-0.045 -0.484,-0.045c-0.249,0 -0.426,0.053 -0.529,0.159c-0.104,0.105 -0.155,0.303 -0.155,0.593l-0,0.444l0.945,0l-0,0.635l-0.945,-0l-0,4.179l-0.818,-0Z" style="fill-rule:nonzero;"/>
        <path id="path1224" d="M196.699,13.922l0.85,0.104c-0.134,0.492 -0.382,0.875 -0.745,1.146c-0.362,0.272 -0.824,0.408 -1.388,0.408c-0.709,0 -1.272,-0.216 -1.689,-0.648c-0.414,-0.435 -0.621,-1.044 -0.621,-1.826c0,-0.81 0.21,-1.438 0.63,-1.886c0.42,-0.447 0.965,-0.67 1.635,-0.67c0.648,-0 1.178,0.219 1.589,0.657c0.411,0.438 0.616,1.054 0.616,1.849c0,0.048 -0.002,0.121 -0.005,0.218l-3.616,-0c0.031,0.528 0.181,0.933 0.452,1.214c0.271,0.281 0.609,0.422 1.014,0.422c0.301,-0 0.558,-0.079 0.771,-0.236c0.213,-0.157 0.382,-0.408 0.507,-0.752l0,-0Zm-2.698,-1.319l2.708,-0c-0.037,-0.405 -0.14,-0.709 -0.311,-0.911c-0.262,-0.314 -0.601,-0.472 -1.018,-0.472c-0.377,0 -0.696,0.126 -0.954,0.377c-0.256,0.25 -0.397,0.586 -0.425,1.006Z" style="fill-rule:nonzero;"/>
        <path id="path1226" d="M198.576,15.472l-0,-4.814l0.74,0l-0,0.73c0.188,-0.341 0.362,-0.566 0.52,-0.675c0.161,-0.109 0.338,-0.163 0.53,-0.163c0.277,-0 0.558,0.087 0.844,0.263l-0.283,0.756c-0.201,-0.117 -0.401,-0.176 -0.602,-0.176c-0.18,-0 -0.341,0.054 -0.484,0.163c-0.143,0.106 -0.245,0.254 -0.306,0.444c-0.092,0.29 -0.137,0.607 -0.137,0.952l-0,2.52l-0.822,-0Z" style="fill-rule:nonzero;"/>
        <path id="path1228" d="M205.027,13.922l0.85,0.104c-0.134,0.492 -0.382,0.875 -0.745,1.146c-0.362,0.272 -0.825,0.408 -1.388,0.408c-0.709,0 -1.272,-0.216 -1.689,-0.648c-0.414,-0.435 -0.621,-1.044 -0.621,-1.826c0,-0.81 0.21,-1.438 0.63,-1.886c0.42,-0.447 0.965,-0.67 1.635,-0.67c0.648,-0 1.178,0.219 1.589,0.657c0.41,0.438 0.616,1.054 0.616,1.849c-0,0.048 -0.002,0.121 -0.005,0.218l-3.616,-0c0.03,0.528 0.181,0.933 0.452,1.214c0.271,0.281 0.609,0.422 1.014,0.422c0.301,-0 0.558,-0.079 0.771,-0.236c0.213,-0.157 0.382,-0.408 0.507,-0.752l0,-0Zm-2.698,-1.319l2.707,-0c-0.036,-0.405 -0.14,-0.709 -0.31,-0.911c-0.262,-0.314 -0.601,-0.472 -1.018,-0.472c-0.378,0 -0.696,0.126 -0.954,0.377c-0.256,0.25 -0.398,0.586 -0.425,1.006Z" style="fill-rule:nonzero;"/>
        <path id="path1230" d="M206.913,15.472l-0,-4.814l0.74,0l-0,0.685c0.356,-0.529 0.87,-0.793 1.543,-0.793c0.292,-0 0.56,0.053 0.803,0.158c0.247,0.103 0.431,0.239 0.553,0.408c0.122,0.169 0.207,0.37 0.256,0.603c0.03,0.151 0.045,0.415 0.045,0.793l0,2.96l-0.822,-0l0,-2.928c0,-0.333 -0.032,-0.58 -0.095,-0.743c-0.064,-0.167 -0.179,-0.298 -0.343,-0.395c-0.161,-0.099 -0.351,-0.149 -0.571,-0.149c-0.35,-0 -0.653,0.11 -0.908,0.331c-0.253,0.22 -0.379,0.639 -0.379,1.255l-0,2.629l-0.822,-0Z" style="fill-rule:nonzero;"/>
        <path id="path1232" d="M213.912,14.742l0.119,0.721c-0.231,0.048 -0.438,0.072 -0.621,0.072c-0.298,0 -0.53,-0.047 -0.694,-0.14c-0.164,-0.094 -0.28,-0.216 -0.347,-0.368c-0.067,-0.154 -0.1,-0.475 -0.1,-0.965l-0,-2.769l-0.603,-0l0,-0.635l0.603,0l-0,-1.191l0.817,-0.49l-0,1.681l0.826,0l0,0.635l-0.826,-0l-0,2.814c-0,0.233 0.014,0.383 0.041,0.449c0.031,0.067 0.078,0.119 0.142,0.159c0.066,0.039 0.161,0.059 0.283,0.059c0.091,-0 0.211,-0.011 0.36,-0.032l0,-0Z" style="fill-rule:nonzero;"/>
        <path id="path1234" d="M220.469,13.709l0.808,0.104c-0.089,0.553 -0.315,0.986 -0.681,1.301c-0.362,0.311 -0.808,0.466 -1.337,0.466c-0.664,0 -1.198,-0.214 -1.603,-0.643c-0.402,-0.432 -0.603,-1.05 -0.603,-1.854c0,-0.52 0.087,-0.974 0.261,-1.364c0.173,-0.39 0.436,-0.681 0.79,-0.875c0.356,-0.196 0.742,-0.294 1.159,-0.294c0.527,-0 0.958,0.133 1.292,0.399c0.335,0.262 0.55,0.637 0.644,1.124l-0.799,0.122c-0.076,-0.323 -0.211,-0.567 -0.406,-0.73c-0.192,-0.163 -0.425,-0.245 -0.699,-0.245c-0.414,0 -0.75,0.149 -1.009,0.445c-0.259,0.293 -0.388,0.758 -0.388,1.396c0,0.646 0.125,1.116 0.374,1.409c0.25,0.293 0.576,0.44 0.978,0.44c0.322,-0 0.592,-0.099 0.808,-0.295c0.216,-0.196 0.353,-0.499 0.411,-0.906l-0,-0Z" style="fill-rule:nonzero;"/>
        <path id="path1236" d="M221.674,13.065c-0,-0.891 0.25,-1.551 0.749,-1.98c0.417,-0.357 0.925,-0.535 1.525,-0.535c0.666,-0 1.211,0.217 1.634,0.652c0.423,0.432 0.635,1.031 0.635,1.795c-0,0.619 -0.095,1.107 -0.283,1.464c-0.186,0.353 -0.458,0.628 -0.817,0.825c-0.357,0.196 -0.746,0.294 -1.169,0.294c-0.679,0 -1.228,-0.216 -1.649,-0.648c-0.417,-0.432 -0.625,-1.054 -0.625,-1.867Zm0.845,0c-0,0.616 0.135,1.079 0.406,1.387c0.271,0.305 0.612,0.458 1.023,0.458c0.408,-0 0.747,-0.154 1.018,-0.463c0.271,-0.308 0.406,-0.778 0.406,-1.409c0,-0.595 -0.137,-1.046 -0.411,-1.351c-0.271,-0.308 -0.608,-0.462 -1.013,-0.462c-0.411,0 -0.752,0.153 -1.023,0.458c-0.271,0.305 -0.406,0.766 -0.406,1.382Z" style="fill-rule:nonzero;"/>
        <rect id="path1238" x="227.167" y="8.828" width="0.822" height="6.644" style="fill-rule:nonzero;"/>
        <path id="path1240" d="M228.961,13.065c-0,-0.891 0.249,-1.551 0.749,-1.98c0.417,-0.357 0.925,-0.535 1.525,-0.535c0.666,-0 1.211,0.217 1.634,0.652c0.423,0.432 0.635,1.031 0.635,1.795c-0,0.619 -0.095,1.107 -0.283,1.464c-0.186,0.353 -0.458,0.628 -0.818,0.825c-0.356,0.196 -0.745,0.294 -1.168,0.294c-0.679,0 -1.229,-0.216 -1.649,-0.648c-0.417,-0.432 -0.625,-1.054 -0.625,-1.867Zm0.845,0c-0,0.616 0.135,1.079 0.406,1.387c0.271,0.305 0.612,0.458 1.023,0.458c0.407,-0 0.747,-0.154 1.018,-0.463c0.271,-0.308 0.406,-0.778 0.406,-1.409c0,-0.595 -0.137,-1.046 -0.411,-1.351c-0.271,-0.308 -0.609,-0.462 -1.013,-0.462c-0.411,0 -0.752,0.153 -1.023,0.458c-0.271,0.305 -0.406,0.766 -0.406,1.382Z" style="fill-rule:nonzero;"/>
        <path id="path1242" d="M234.463,15.472l-0,-4.814l0.739,0l0,0.73c0.189,-0.341 0.362,-0.566 0.521,-0.675c0.161,-0.109 0.338,-0.163 0.529,-0.163c0.277,-0 0.559,0.087 0.845,0.263l-0.283,0.756c-0.201,-0.117 -0.402,-0.176 -0.603,-0.176c-0.179,-0 -0.341,0.054 -0.484,0.163c-0.143,0.106 -0.245,0.254 -0.306,0.444c-0.091,0.29 -0.137,0.607 -0.137,0.952l0,2.52l-0.821,-0Z" style="fill-rule:nonzero;"/>
    </g>
    <g id="g1512">
        <path id="path1345" d="M5.649,48.085l-1.484,-4.813l0.849,-0l0.772,2.778l0.287,1.033c0.013,-0.051 0.096,-0.382 0.252,-0.992l0.771,-2.819l0.845,-0l0.726,2.792l0.242,0.92l0.278,-0.929l0.831,-2.783l0.799,-0l-1.516,4.813l-0.853,-0l-0.772,-2.882l-0.187,-0.821l-0.982,3.703l-0.858,-0Z" style="fill-rule:nonzero;"/>
        <path id="path1347" d="M11.511,48.085l0,-6.644l0.822,-0l0,2.384c0.384,-0.441 0.868,-0.662 1.452,-0.662c0.359,0 0.671,0.071 0.936,0.213c0.265,0.139 0.453,0.332 0.566,0.58c0.116,0.248 0.174,0.607 0.174,1.079l-0,3.05l-0.822,-0l-0,-3.05c-0,-0.408 -0.09,-0.704 -0.27,-0.888c-0.176,-0.188 -0.427,-0.281 -0.753,-0.281c-0.243,-0 -0.473,0.063 -0.689,0.19c-0.213,0.124 -0.366,0.293 -0.457,0.507c-0.091,0.215 -0.137,0.511 -0.137,0.889l0,2.633l-0.822,-0Z" style="fill-rule:nonzero;"/>
        <path id="path1349" d="M16.721,42.379l-0,-0.938l0.822,-0l-0,0.938l-0.822,-0Zm-0,5.706l-0,-4.813l0.822,-0l-0,4.813l-0.822,-0Z" style="fill-rule:nonzero;"/>
        <path id="path1351" d="M21.962,46.322l0.808,0.104c-0.088,0.553 -0.315,0.987 -0.68,1.301c-0.362,0.311 -0.808,0.467 -1.338,0.467c-0.663,-0 -1.197,-0.215 -1.602,-0.644c-0.402,-0.432 -0.603,-1.05 -0.603,-1.853c0,-0.52 0.087,-0.975 0.26,-1.365c0.174,-0.389 0.437,-0.681 0.79,-0.874c0.356,-0.197 0.743,-0.295 1.16,-0.295c0.526,0 0.957,0.133 1.292,0.399c0.335,0.263 0.549,0.637 0.644,1.124l-0.799,0.122c-0.076,-0.323 -0.212,-0.566 -0.407,-0.729c-0.191,-0.164 -0.424,-0.245 -0.698,-0.245c-0.414,-0 -0.75,0.148 -1.009,0.444c-0.259,0.293 -0.388,0.758 -0.388,1.396c-0,0.646 0.124,1.116 0.374,1.409c0.25,0.293 0.575,0.44 0.977,0.44c0.323,-0 0.592,-0.098 0.808,-0.295c0.216,-0.196 0.353,-0.498 0.411,-0.906Z" style="fill-rule:nonzero;"/>
        <path id="path1353" d="M23.473,48.085l0,-6.644l0.822,-0l0,2.384c0.384,-0.441 0.868,-0.662 1.452,-0.662c0.359,0 0.671,0.071 0.936,0.213c0.265,0.139 0.454,0.332 0.566,0.58c0.116,0.248 0.174,0.607 0.174,1.079l-0,3.05l-0.822,-0l-0,-3.05c-0,-0.408 -0.09,-0.704 -0.269,-0.888c-0.177,-0.188 -0.428,-0.281 -0.754,-0.281c-0.243,-0 -0.473,0.063 -0.689,0.19c-0.213,0.124 -0.365,0.293 -0.457,0.507c-0.091,0.215 -0.137,0.511 -0.137,0.889l0,2.633l-0.822,-0Z" style="fill-rule:nonzero;"/>
        <path id="path1355" d="M31.272,48.085l-0,-6.644l0.822,-0l-0,2.384c0.383,-0.441 0.867,-0.662 1.451,-0.662c0.36,0 0.672,0.071 0.936,0.213c0.265,0.139 0.454,0.332 0.567,0.58c0.115,0.248 0.173,0.607 0.173,1.079l0,3.05l-0.822,-0l0,-3.05c0,-0.408 -0.09,-0.704 -0.269,-0.888c-0.177,-0.188 -0.428,-0.281 -0.753,-0.281c-0.244,-0 -0.474,0.063 -0.69,0.19c-0.213,0.124 -0.365,0.293 -0.456,0.507c-0.092,0.215 -0.137,0.511 -0.137,0.889l-0,2.633l-0.822,-0Z" style="fill-rule:nonzero;"/>
        <path id="path1357" d="M39.641,47.491c-0.305,0.257 -0.598,0.438 -0.882,0.544c-0.28,0.106 -0.581,0.159 -0.904,0.159c-0.532,-0 -0.942,-0.129 -1.228,-0.385c-0.286,-0.26 -0.429,-0.591 -0.429,-0.993c0,-0.236 0.053,-0.45 0.16,-0.644c0.109,-0.196 0.251,-0.353 0.425,-0.471c0.176,-0.118 0.374,-0.207 0.593,-0.267c0.161,-0.043 0.405,-0.083 0.731,-0.123c0.663,-0.078 1.152,-0.172 1.465,-0.281c0.003,-0.111 0.005,-0.182 0.005,-0.213c-0,-0.332 -0.078,-0.566 -0.233,-0.702c-0.21,-0.184 -0.522,-0.277 -0.936,-0.277c-0.387,0 -0.673,0.068 -0.858,0.204c-0.183,0.133 -0.318,0.371 -0.407,0.712l-0.803,-0.109c0.073,-0.341 0.193,-0.616 0.36,-0.825c0.168,-0.211 0.41,-0.373 0.726,-0.485c0.317,-0.114 0.684,-0.172 1.101,-0.172c0.414,0 0.75,0.049 1.009,0.145c0.258,0.097 0.449,0.219 0.57,0.367c0.122,0.145 0.207,0.33 0.256,0.553c0.028,0.139 0.041,0.39 0.041,0.753l0,1.087c0,0.759 0.017,1.239 0.05,1.442c0.037,0.199 0.107,0.391 0.21,0.575l-0.858,0c-0.085,-0.169 -0.14,-0.367 -0.164,-0.594l-0,0Zm-0.069,-1.822c-0.298,0.121 -0.746,0.224 -1.342,0.309c-0.338,0.048 -0.577,0.102 -0.717,0.163c-0.14,0.06 -0.248,0.149 -0.324,0.267c-0.076,0.115 -0.114,0.243 -0.114,0.385c-0,0.218 0.082,0.399 0.246,0.544c0.168,0.145 0.411,0.218 0.731,0.218c0.316,-0 0.598,-0.068 0.844,-0.204c0.247,-0.139 0.428,-0.328 0.544,-0.567c0.088,-0.184 0.132,-0.456 0.132,-0.816l0,-0.299Z" style="fill-rule:nonzero;"/>
        <path id="path1359" d="M41.353,46.648l0.813,-0.127c0.045,0.324 0.171,0.571 0.378,0.744c0.21,0.172 0.503,0.258 0.877,0.258c0.378,-0 0.658,-0.076 0.84,-0.227c0.183,-0.154 0.274,-0.334 0.274,-0.539c0,-0.184 -0.081,-0.329 -0.242,-0.435c-0.112,-0.073 -0.393,-0.165 -0.84,-0.277c-0.603,-0.151 -1.021,-0.281 -1.256,-0.389c-0.231,-0.112 -0.407,-0.265 -0.529,-0.458c-0.119,-0.196 -0.178,-0.412 -0.178,-0.648c-0,-0.215 0.048,-0.413 0.146,-0.594c0.1,-0.184 0.236,-0.337 0.406,-0.458c0.128,-0.093 0.302,-0.172 0.521,-0.235c0.222,-0.067 0.459,-0.1 0.712,-0.1c0.38,0 0.714,0.054 1,0.163c0.289,0.109 0.502,0.257 0.639,0.444c0.137,0.185 0.231,0.432 0.283,0.744l-0.803,0.108c-0.037,-0.247 -0.143,-0.441 -0.32,-0.58c-0.174,-0.139 -0.42,-0.208 -0.74,-0.208c-0.377,-0 -0.646,0.062 -0.808,0.186c-0.161,0.123 -0.242,0.268 -0.242,0.435c0,0.105 0.034,0.201 0.101,0.285c0.067,0.088 0.172,0.16 0.315,0.218c0.082,0.03 0.324,0.099 0.726,0.208c0.581,0.154 0.986,0.281 1.214,0.381c0.231,0.097 0.413,0.239 0.543,0.426c0.131,0.187 0.197,0.42 0.197,0.698c-0,0.272 -0.081,0.529 -0.242,0.77c-0.159,0.239 -0.388,0.425 -0.69,0.558c-0.301,0.13 -0.642,0.195 -1.022,0.195c-0.63,-0 -1.111,-0.13 -1.443,-0.39c-0.329,-0.26 -0.539,-0.645 -0.63,-1.156l-0,0Z" style="fill-rule:nonzero;"/>
        <path id="path1361" d="M48.941,48.085l0,-4.813l0.74,-0l-0,0.73c0.188,-0.342 0.362,-0.567 0.52,-0.676c0.161,-0.109 0.338,-0.163 0.53,-0.163c0.277,0 0.558,0.088 0.844,0.263l-0.283,0.757c-0.201,-0.118 -0.401,-0.177 -0.602,-0.177c-0.18,0 -0.341,0.054 -0.484,0.163c-0.143,0.106 -0.245,0.254 -0.306,0.444c-0.091,0.29 -0.137,0.608 -0.137,0.952l-0,2.52l-0.822,-0Z" style="fill-rule:nonzero;"/>
        <path id="path1363" d="M55.392,46.535l0.85,0.104c-0.134,0.493 -0.382,0.875 -0.745,1.147c-0.362,0.272 -0.824,0.408 -1.388,0.408c-0.709,-0 -1.272,-0.216 -1.689,-0.648c-0.414,-0.435 -0.621,-1.044 -0.621,-1.827c0,-0.81 0.21,-1.438 0.63,-1.885c0.42,-0.447 0.965,-0.671 1.635,-0.671c0.648,0 1.178,0.219 1.589,0.657c0.411,0.438 0.616,1.055 0.616,1.849c0,0.049 -0.002,0.121 -0.005,0.218l-3.616,-0c0.031,0.529 0.181,0.933 0.452,1.214c0.271,0.281 0.609,0.422 1.014,0.422c0.301,-0 0.558,-0.079 0.772,-0.236c0.213,-0.157 0.382,-0.408 0.506,-0.752l0,-0Zm-2.698,-1.319l2.708,0c-0.037,-0.405 -0.14,-0.708 -0.311,-0.911c-0.262,-0.314 -0.601,-0.471 -1.018,-0.471c-0.378,-0 -0.696,0.125 -0.954,0.376c-0.256,0.251 -0.398,0.586 -0.425,1.006Z" style="fill-rule:nonzero;"/>
        <path id="path1365" d="M60.442,46.322l0.808,0.104c-0.088,0.553 -0.315,0.987 -0.68,1.301c-0.362,0.311 -0.808,0.467 -1.338,0.467c-0.663,-0 -1.198,-0.215 -1.602,-0.644c-0.402,-0.432 -0.603,-1.05 -0.603,-1.853c-0,-0.52 0.087,-0.975 0.26,-1.365c0.174,-0.389 0.437,-0.681 0.79,-0.874c0.356,-0.197 0.743,-0.295 1.16,-0.295c0.526,0 0.957,0.133 1.292,0.399c0.335,0.263 0.549,0.637 0.644,1.124l-0.799,0.122c-0.076,-0.323 -0.212,-0.566 -0.407,-0.729c-0.192,-0.164 -0.424,-0.245 -0.698,-0.245c-0.414,-0 -0.751,0.148 -1.009,0.444c-0.259,0.293 -0.388,0.758 -0.388,1.396c-0,0.646 0.124,1.116 0.374,1.409c0.25,0.293 0.575,0.44 0.977,0.44c0.323,-0 0.592,-0.098 0.808,-0.295c0.216,-0.196 0.353,-0.498 0.411,-0.906Z" style="fill-rule:nonzero;"/>
        <path id="path1367" d="M65.273,46.535l0.849,0.104c-0.134,0.493 -0.382,0.875 -0.744,1.147c-0.363,0.272 -0.825,0.408 -1.388,0.408c-0.71,-0 -1.273,-0.216 -1.69,-0.648c-0.414,-0.435 -0.621,-1.044 -0.621,-1.827c0,-0.81 0.21,-1.438 0.63,-1.885c0.421,-0.447 0.965,-0.671 1.635,-0.671c0.648,0 1.178,0.219 1.589,0.657c0.411,0.438 0.616,1.055 0.616,1.849c0,0.049 -0.001,0.121 -0.004,0.218l-3.616,-0c0.03,0.529 0.181,0.933 0.452,1.214c0.27,0.281 0.608,0.422 1.013,0.422c0.301,-0 0.559,-0.079 0.772,-0.236c0.213,-0.157 0.382,-0.408 0.507,-0.752l-0,-0Zm-2.699,-1.319l2.708,0c-0.037,-0.405 -0.14,-0.708 -0.311,-0.911c-0.261,-0.314 -0.601,-0.471 -1.018,-0.471c-0.377,-0 -0.695,0.125 -0.954,0.376c-0.256,0.251 -0.397,0.586 -0.425,1.006Z" style="fill-rule:nonzero;"/>
        <path id="path1369" d="M67.163,42.379l-0,-0.938l0.822,-0l-0,0.938l-0.822,-0Zm-0,5.706l-0,-4.813l0.822,-0l-0,4.813l-0.822,-0Z" style="fill-rule:nonzero;"/>
        <path id="path1371" d="M70.587,48.085l-1.844,-4.813l0.867,-0l1.041,2.882c0.113,0.311 0.216,0.635 0.311,0.97c0.073,-0.254 0.175,-0.559 0.305,-0.915l1.078,-2.937l0.845,-0l-1.836,4.813l-0.767,-0Z" style="fill-rule:nonzero;"/>
        <path id="path1373" d="M77.235,46.535l0.849,0.104c-0.134,0.493 -0.382,0.875 -0.744,1.147c-0.362,0.272 -0.825,0.408 -1.388,0.408c-0.709,-0 -1.272,-0.216 -1.689,-0.648c-0.414,-0.435 -0.621,-1.044 -0.621,-1.827c-0,-0.81 0.21,-1.438 0.63,-1.885c0.42,-0.447 0.965,-0.671 1.634,-0.671c0.649,0 1.178,0.219 1.589,0.657c0.411,0.438 0.616,1.055 0.616,1.849c0,0.049 -0.001,0.121 -0.004,0.218l-3.616,-0c0.03,0.529 0.181,0.933 0.452,1.214c0.271,0.281 0.609,0.422 1.013,0.422c0.302,-0 0.559,-0.079 0.772,-0.236c0.213,-0.157 0.382,-0.408 0.507,-0.752l-0,-0Zm-2.699,-1.319l2.708,0c-0.037,-0.405 -0.14,-0.708 -0.311,-0.911c-0.261,-0.314 -0.601,-0.471 -1.018,-0.471c-0.377,-0 -0.695,0.125 -0.954,0.376c-0.256,0.251 -0.397,0.586 -0.425,1.006Z" style="fill-rule:nonzero;"/>
        <path id="path1375" d="M82.266,48.085l0,-0.607c-0.307,0.477 -0.759,0.716 -1.356,0.716c-0.386,-0 -0.742,-0.106 -1.068,-0.318c-0.323,-0.211 -0.574,-0.506 -0.754,-0.883c-0.176,-0.381 -0.264,-0.818 -0.264,-1.31c-0,-0.48 0.08,-0.916 0.242,-1.305c0.161,-0.393 0.403,-0.694 0.726,-0.902c0.322,-0.209 0.683,-0.313 1.082,-0.313c0.292,0 0.552,0.062 0.78,0.186c0.229,0.121 0.414,0.279 0.557,0.476l0,-2.384l0.818,-0l-0,6.644l-0.763,-0Zm-2.598,-2.402c0,0.616 0.131,1.077 0.393,1.382c0.262,0.305 0.571,0.458 0.927,0.458c0.359,-0 0.663,-0.145 0.913,-0.435c0.253,-0.293 0.379,-0.739 0.379,-1.337c-0,-0.659 -0.128,-1.142 -0.384,-1.45c-0.255,-0.309 -0.57,-0.463 -0.945,-0.463c-0.365,0 -0.671,0.148 -0.917,0.444c-0.244,0.297 -0.366,0.763 -0.366,1.401Z" style="fill-rule:nonzero;"/>
        <path id="path1377" d="M86.923,48.085l0,-6.644l0.822,-0l0,3.789l1.945,-1.958l1.064,-0l-1.854,1.785l2.041,3.028l-1.013,-0l-1.603,-2.461l-0.58,0.553l0,1.908l-0.822,-0Z" style="fill-rule:nonzero;"/>
        <path id="path1379" d="M94.913,46.535l0.849,0.104c-0.133,0.493 -0.382,0.875 -0.744,1.147c-0.362,0.272 -0.825,0.408 -1.388,0.408c-0.709,-0 -1.272,-0.216 -1.689,-0.648c-0.414,-0.435 -0.621,-1.044 -0.621,-1.827c0,-0.81 0.21,-1.438 0.63,-1.885c0.42,-0.447 0.965,-0.671 1.635,-0.671c0.648,0 1.178,0.219 1.589,0.657c0.41,0.438 0.616,1.055 0.616,1.849c-0,0.049 -0.002,0.121 -0.005,0.218l-3.616,-0c0.031,0.529 0.181,0.933 0.452,1.214c0.271,0.281 0.609,0.422 1.014,0.422c0.301,-0 0.558,-0.079 0.771,-0.236c0.213,-0.157 0.382,-0.408 0.507,-0.752l0,-0Zm-2.698,-1.319l2.707,0c-0.036,-0.405 -0.14,-0.708 -0.31,-0.911c-0.262,-0.314 -0.601,-0.471 -1.018,-0.471c-0.378,-0 -0.696,0.125 -0.954,0.376c-0.256,0.251 -0.398,0.586 -0.425,1.006Z" style="fill-rule:nonzero;"/>
        <path id="path1381" d="M96.762,49.939l-0.091,-0.766c0.18,0.048 0.336,0.072 0.47,0.072c0.183,0 0.329,-0.03 0.439,-0.09c0.109,-0.061 0.199,-0.145 0.269,-0.254c0.052,-0.082 0.135,-0.284 0.251,-0.608c0.015,-0.045 0.04,-0.111 0.073,-0.199l-1.84,-4.822l0.886,-0l1.009,2.787c0.131,0.354 0.248,0.725 0.352,1.115c0.094,-0.375 0.207,-0.74 0.337,-1.097l1.037,-2.805l0.822,-0l-1.845,4.895c-0.198,0.528 -0.351,0.892 -0.461,1.092c-0.146,0.269 -0.314,0.465 -0.502,0.589c-0.189,0.127 -0.414,0.19 -0.676,0.19c-0.158,0 -0.335,-0.033 -0.53,-0.099l0,-0Z" style="fill-rule:nonzero;"/>
        <path id="path1383" d="M102.232,48.085l-0.762,-0l-0,-6.644l0.821,-0l0,2.37c0.347,-0.432 0.79,-0.648 1.329,-0.648c0.298,0 0.58,0.06 0.845,0.181c0.268,0.118 0.487,0.286 0.657,0.503c0.174,0.215 0.309,0.475 0.407,0.78c0.097,0.305 0.146,0.631 0.146,0.979c-0,0.825 -0.206,1.462 -0.617,1.912c-0.411,0.451 -0.904,0.676 -1.479,0.676c-0.572,-0 -1.021,-0.237 -1.347,-0.712l0,0.603Zm-0.009,-2.443c0,0.577 0.079,0.994 0.237,1.251c0.259,0.42 0.609,0.63 1.051,0.63c0.359,-0 0.669,-0.154 0.931,-0.462c0.262,-0.312 0.393,-0.774 0.393,-1.387c-0,-0.629 -0.127,-1.092 -0.379,-1.392c-0.25,-0.299 -0.553,-0.448 -0.909,-0.448c-0.359,-0 -0.67,0.155 -0.931,0.467c-0.262,0.308 -0.393,0.755 -0.393,1.341Z" style="fill-rule:nonzero;"/>
        <path id="path1385" d="M106.373,45.678c0,-0.891 0.25,-1.551 0.749,-1.98c0.417,-0.357 0.925,-0.535 1.525,-0.535c0.667,0 1.211,0.218 1.634,0.653c0.424,0.432 0.635,1.03 0.635,1.794c0,0.62 -0.094,1.108 -0.283,1.464c-0.186,0.354 -0.458,0.629 -0.817,0.825c-0.356,0.197 -0.746,0.295 -1.169,0.295c-0.679,-0 -1.228,-0.216 -1.648,-0.648c-0.417,-0.432 -0.626,-1.055 -0.626,-1.868Zm0.845,0c-0,0.617 0.135,1.079 0.406,1.387c0.271,0.305 0.612,0.458 1.023,0.458c0.408,-0 0.747,-0.154 1.018,-0.462c0.271,-0.309 0.406,-0.778 0.406,-1.41c0,-0.595 -0.137,-1.045 -0.41,-1.35c-0.271,-0.309 -0.609,-0.463 -1.014,-0.463c-0.411,0 -0.752,0.153 -1.023,0.458c-0.271,0.305 -0.406,0.766 -0.406,1.382Z" style="fill-rule:nonzero;"/>
        <path id="path1387" d="M115.048,47.491c-0.304,0.257 -0.598,0.438 -0.881,0.544c-0.28,0.106 -0.581,0.159 -0.904,0.159c-0.533,-0 -0.942,-0.129 -1.228,-0.385c-0.286,-0.26 -0.429,-0.591 -0.429,-0.993c-0,-0.236 0.053,-0.45 0.159,-0.644c0.11,-0.196 0.251,-0.353 0.425,-0.471c0.176,-0.118 0.374,-0.207 0.593,-0.267c0.162,-0.043 0.405,-0.083 0.731,-0.123c0.664,-0.078 1.152,-0.172 1.466,-0.281c0.003,-0.111 0.004,-0.182 0.004,-0.213c0,-0.332 -0.077,-0.566 -0.233,-0.702c-0.21,-0.184 -0.522,-0.277 -0.936,-0.277c-0.386,0 -0.672,0.068 -0.858,0.204c-0.183,0.133 -0.318,0.371 -0.406,0.712l-0.804,-0.109c0.073,-0.341 0.193,-0.616 0.361,-0.825c0.167,-0.211 0.409,-0.373 0.726,-0.485c0.316,-0.114 0.683,-0.172 1.1,-0.172c0.414,0 0.75,0.049 1.009,0.145c0.259,0.097 0.449,0.219 0.571,0.367c0.122,0.145 0.207,0.33 0.256,0.553c0.027,0.139 0.041,0.39 0.041,0.753l-0,1.087c-0,0.759 0.016,1.239 0.05,1.442c0.036,0.199 0.106,0.391 0.21,0.575l-0.858,0c-0.086,-0.169 -0.14,-0.367 -0.165,-0.594l0,0Zm-0.068,-1.822c-0.299,0.121 -0.746,0.224 -1.343,0.309c-0.338,0.048 -0.577,0.102 -0.717,0.163c-0.14,0.06 -0.248,0.149 -0.324,0.267c-0.076,0.115 -0.114,0.243 -0.114,0.385c0,0.218 0.082,0.399 0.247,0.544c0.167,0.145 0.411,0.218 0.73,0.218c0.317,-0 0.598,-0.068 0.845,-0.204c0.246,-0.139 0.428,-0.328 0.543,-0.567c0.088,-0.184 0.133,-0.456 0.133,-0.816l-0,-0.299Z" style="fill-rule:nonzero;"/>
        <path id="path1389" d="M117.08,48.085l-0,-4.813l0.739,-0l0,0.73c0.189,-0.342 0.363,-0.567 0.521,-0.676c0.161,-0.109 0.338,-0.163 0.53,-0.163c0.277,0 0.558,0.088 0.844,0.263l-0.283,0.757c-0.201,-0.118 -0.402,-0.177 -0.602,-0.177c-0.18,0 -0.341,0.054 -0.484,0.163c-0.144,0.106 -0.245,0.254 -0.306,0.444c-0.092,0.29 -0.137,0.608 -0.137,0.952l-0,2.52l-0.822,-0Z" style="fill-rule:nonzero;"/>
        <path id="path1391" d="M123.358,48.085l-0,-0.607c-0.308,0.477 -0.76,0.716 -1.356,0.716c-0.387,-0 -0.743,-0.106 -1.069,-0.318c-0.322,-0.211 -0.573,-0.506 -0.753,-0.883c-0.177,-0.381 -0.265,-0.818 -0.265,-1.31c0,-0.48 0.081,-0.916 0.242,-1.305c0.161,-0.393 0.403,-0.694 0.726,-0.902c0.323,-0.209 0.683,-0.313 1.082,-0.313c0.292,0 0.553,0.062 0.781,0.186c0.228,0.121 0.414,0.279 0.557,0.476l-0,-2.384l0.817,-0l0,6.644l-0.762,-0Zm-2.598,-2.402c-0,0.616 0.131,1.077 0.392,1.382c0.262,0.305 0.571,0.458 0.927,0.458c0.359,-0 0.664,-0.145 0.913,-0.435c0.253,-0.293 0.379,-0.739 0.379,-1.337c0,-0.659 -0.127,-1.142 -0.383,-1.45c-0.256,-0.309 -0.571,-0.463 -0.945,-0.463c-0.365,0 -0.671,0.148 -0.918,0.444c-0.243,0.297 -0.365,0.763 -0.365,1.401Z" style="fill-rule:nonzero;"/>
        <path id="path1393" d="M128.206,48.085l0,-4.179l-0.725,0l-0,-0.634l0.725,-0l0,-0.512c0,-0.324 0.029,-0.564 0.087,-0.721c0.079,-0.211 0.218,-0.382 0.416,-0.512c0.201,-0.133 0.481,-0.199 0.84,-0.199c0.231,-0 0.487,0.027 0.767,0.081l-0.123,0.712c-0.171,-0.031 -0.332,-0.046 -0.484,-0.046c-0.25,0 -0.426,0.053 -0.53,0.159c-0.103,0.106 -0.155,0.304 -0.155,0.594l-0,0.444l0.945,-0l-0,0.634l-0.945,0l-0,4.179l-0.818,-0Z" style="fill-rule:nonzero;"/>
        <path id="path1395" d="M130.298,45.678c-0,-0.891 0.249,-1.551 0.748,-1.98c0.417,-0.357 0.926,-0.535 1.525,-0.535c0.667,0 1.212,0.218 1.635,0.653c0.423,0.432 0.634,1.03 0.634,1.794c0,0.62 -0.094,1.108 -0.283,1.464c-0.185,0.354 -0.458,0.629 -0.817,0.825c-0.356,0.197 -0.746,0.295 -1.169,0.295c-0.678,-0 -1.228,-0.216 -1.648,-0.648c-0.417,-0.432 -0.625,-1.055 -0.625,-1.868Zm0.844,0c0,0.617 0.136,1.079 0.407,1.387c0.271,0.305 0.611,0.458 1.022,0.458c0.408,-0 0.748,-0.154 1.018,-0.462c0.271,-0.309 0.407,-0.778 0.407,-1.41c-0,-0.595 -0.137,-1.045 -0.411,-1.35c-0.271,-0.309 -0.609,-0.463 -1.014,-0.463c-0.411,0 -0.751,0.153 -1.022,0.458c-0.271,0.305 -0.407,0.766 -0.407,1.382Z" style="fill-rule:nonzero;"/>
        <path id="path1397" d="M138.972,46.322l0.809,0.104c-0.089,0.553 -0.315,0.987 -0.681,1.301c-0.362,0.311 -0.808,0.467 -1.337,0.467c-0.664,-0 -1.198,-0.215 -1.603,-0.644c-0.402,-0.432 -0.603,-1.05 -0.603,-1.853c0,-0.52 0.087,-0.975 0.261,-1.365c0.173,-0.389 0.436,-0.681 0.789,-0.874c0.357,-0.197 0.743,-0.295 1.16,-0.295c0.527,0 0.957,0.133 1.292,0.399c0.335,0.263 0.55,0.637 0.644,1.124l-0.799,0.122c-0.076,-0.323 -0.212,-0.566 -0.406,-0.729c-0.192,-0.164 -0.425,-0.245 -0.699,-0.245c-0.414,-0 -0.75,0.148 -1.009,0.444c-0.259,0.293 -0.388,0.758 -0.388,1.396c-0,0.646 0.125,1.116 0.374,1.409c0.25,0.293 0.576,0.44 0.977,0.44c0.323,-0 0.592,-0.098 0.809,-0.295c0.216,-0.196 0.353,-0.498 0.41,-0.906Z" style="fill-rule:nonzero;"/>
        <path id="path1399" d="M143.661,48.085l0,-0.707c-0.377,0.544 -0.89,0.816 -1.538,0.816c-0.286,-0 -0.554,-0.055 -0.804,-0.163c-0.246,-0.109 -0.43,-0.245 -0.552,-0.408c-0.119,-0.166 -0.203,-0.369 -0.251,-0.608c-0.034,-0.16 -0.051,-0.414 -0.051,-0.761l0,-2.982l0.822,-0l0,2.669c0,0.426 0.017,0.713 0.051,0.861c0.051,0.215 0.161,0.384 0.328,0.508c0.168,0.121 0.375,0.181 0.621,0.181c0.247,0 0.478,-0.062 0.694,-0.186c0.216,-0.126 0.368,-0.297 0.457,-0.512c0.091,-0.217 0.137,-0.531 0.137,-0.942l-0,-2.579l0.822,-0l-0,4.813l-0.736,-0Z" style="fill-rule:nonzero;"/>
        <path id="path1401" d="M145.36,46.648l0.813,-0.127c0.045,0.324 0.172,0.571 0.379,0.744c0.21,0.172 0.502,0.258 0.876,0.258c0.378,-0 0.658,-0.076 0.84,-0.227c0.183,-0.154 0.274,-0.334 0.274,-0.539c0,-0.184 -0.08,-0.329 -0.242,-0.435c-0.112,-0.073 -0.392,-0.165 -0.84,-0.277c-0.603,-0.151 -1.021,-0.281 -1.255,-0.389c-0.232,-0.112 -0.408,-0.265 -0.53,-0.458c-0.119,-0.196 -0.178,-0.412 -0.178,-0.648c-0,-0.215 0.049,-0.413 0.146,-0.594c0.1,-0.184 0.236,-0.337 0.406,-0.458c0.128,-0.093 0.302,-0.172 0.521,-0.235c0.222,-0.067 0.459,-0.1 0.712,-0.1c0.381,0 0.714,0.054 1,0.163c0.289,0.109 0.502,0.257 0.639,0.444c0.137,0.185 0.231,0.432 0.283,0.744l-0.803,0.108c-0.037,-0.247 -0.143,-0.441 -0.32,-0.58c-0.173,-0.139 -0.42,-0.208 -0.74,-0.208c-0.377,-0 -0.646,0.062 -0.808,0.186c-0.161,0.123 -0.242,0.268 -0.242,0.435c0,0.105 0.034,0.201 0.101,0.285c0.067,0.088 0.172,0.16 0.315,0.218c0.082,0.03 0.324,0.099 0.726,0.208c0.581,0.154 0.986,0.281 1.214,0.381c0.231,0.097 0.413,0.239 0.543,0.426c0.131,0.187 0.197,0.42 0.197,0.698c-0,0.272 -0.081,0.529 -0.242,0.77c-0.158,0.239 -0.388,0.425 -0.69,0.558c-0.301,0.13 -0.642,0.195 -1.022,0.195c-0.63,-0 -1.111,-0.13 -1.443,-0.39c-0.329,-0.26 -0.539,-0.645 -0.63,-1.156l-0,0Z" style="fill-rule:nonzero;"/>
    </g>
    <g id="g1565">
        <path id="path1245" d="M6.562,35.032l0,-5.86l-2.205,0l-0,-0.784l5.305,0l0,0.784l-2.214,0l-0,5.86l-0.886,0Z" style="fill-rule:nonzero;"/>
        <path id="path1247" d="M10.47,35.032l0,-6.644l0.822,0l0,2.384c0.384,-0.441 0.868,-0.661 1.452,-0.661c0.359,-0 0.671,0.071 0.936,0.213c0.265,0.139 0.454,0.332 0.566,0.58c0.116,0.247 0.174,0.607 0.174,1.078l-0,3.05l-0.822,0l-0,-3.05c-0,-0.408 -0.09,-0.704 -0.27,-0.888c-0.176,-0.187 -0.427,-0.281 -0.753,-0.281c-0.243,0 -0.473,0.064 -0.689,0.19c-0.213,0.124 -0.366,0.293 -0.457,0.508c-0.091,0.215 -0.137,0.511 -0.137,0.888l0,2.633l-0.822,0Z" style="fill-rule:nonzero;"/>
        <path id="path1249" d="M15.68,29.327l-0,-0.939l0.822,0l-0,0.939l-0.822,-0Zm-0,5.705l-0,-4.813l0.822,0l-0,4.813l-0.822,0Z" style="fill-rule:nonzero;"/>
        <path id="path1251" d="M17.428,33.596l0.813,-0.127c0.046,0.323 0.172,0.571 0.379,0.743c0.21,0.172 0.502,0.258 0.877,0.258c0.377,0 0.657,-0.075 0.84,-0.226c0.182,-0.154 0.274,-0.334 0.274,-0.539c-0,-0.185 -0.081,-0.33 -0.242,-0.436c-0.113,-0.072 -0.393,-0.164 -0.84,-0.276c-0.603,-0.151 -1.022,-0.281 -1.256,-0.39c-0.231,-0.112 -0.408,-0.264 -0.53,-0.458c-0.118,-0.196 -0.178,-0.412 -0.178,-0.648c0,-0.214 0.049,-0.412 0.147,-0.593c0.1,-0.185 0.235,-0.337 0.406,-0.458c0.128,-0.094 0.301,-0.172 0.52,-0.236c0.223,-0.066 0.46,-0.099 0.713,-0.099c0.38,-0 0.713,0.054 0.999,0.163c0.29,0.108 0.503,0.257 0.64,0.444c0.137,0.184 0.231,0.432 0.283,0.743l-0.804,0.109c-0.036,-0.248 -0.143,-0.441 -0.319,-0.58c-0.174,-0.139 -0.42,-0.209 -0.74,-0.209c-0.377,0 -0.647,0.062 -0.808,0.186c-0.161,0.124 -0.242,0.269 -0.242,0.435c-0,0.106 0.033,0.201 0.1,0.286c0.067,0.087 0.172,0.16 0.315,0.217c0.082,0.03 0.324,0.1 0.726,0.209c0.582,0.154 0.986,0.281 1.215,0.38c0.231,0.097 0.412,0.239 0.543,0.426c0.131,0.188 0.196,0.42 0.196,0.698c0,0.272 -0.08,0.529 -0.242,0.771c-0.158,0.238 -0.388,0.424 -0.689,0.557c-0.301,0.13 -0.642,0.195 -1.023,0.195c-0.63,0 -1.111,-0.13 -1.443,-0.39c-0.328,-0.259 -0.538,-0.645 -0.63,-1.155l0,-0Z" style="fill-rule:nonzero;"/>
        <path id="path1253" d="M25.03,29.327l0,-0.939l0.822,0l0,0.939l-0.822,-0Zm0,5.705l0,-4.813l0.822,0l0,4.813l-0.822,0Z" style="fill-rule:nonzero;"/>
        <path id="path1255" d="M26.779,33.596l0.813,-0.127c0.045,0.323 0.172,0.571 0.379,0.743c0.21,0.172 0.502,0.258 0.876,0.258c0.378,0 0.658,-0.075 0.84,-0.226c0.183,-0.154 0.274,-0.334 0.274,-0.539c0,-0.185 -0.08,-0.33 -0.242,-0.436c-0.112,-0.072 -0.392,-0.164 -0.84,-0.276c-0.602,-0.151 -1.021,-0.281 -1.255,-0.39c-0.232,-0.112 -0.408,-0.264 -0.53,-0.458c-0.119,-0.196 -0.178,-0.412 -0.178,-0.648c0,-0.214 0.049,-0.412 0.146,-0.593c0.101,-0.185 0.236,-0.337 0.406,-0.458c0.128,-0.094 0.302,-0.172 0.521,-0.236c0.222,-0.066 0.46,-0.099 0.712,-0.099c0.381,-0 0.714,0.054 1,0.163c0.289,0.108 0.502,0.257 0.639,0.444c0.137,0.184 0.232,0.432 0.283,0.743l-0.803,0.109c-0.037,-0.248 -0.143,-0.441 -0.32,-0.58c-0.173,-0.139 -0.42,-0.209 -0.739,-0.209c-0.378,0 -0.647,0.062 -0.809,0.186c-0.161,0.124 -0.242,0.269 -0.242,0.435c0,0.106 0.034,0.201 0.101,0.286c0.067,0.087 0.172,0.16 0.315,0.217c0.082,0.03 0.324,0.1 0.726,0.209c0.581,0.154 0.986,0.281 1.214,0.38c0.232,0.097 0.413,0.239 0.544,0.426c0.131,0.188 0.196,0.42 0.196,0.698c-0,0.272 -0.081,0.529 -0.242,0.771c-0.158,0.238 -0.388,0.424 -0.689,0.557c-0.302,0.13 -0.643,0.195 -1.023,0.195c-0.63,0 -1.111,-0.13 -1.443,-0.39c-0.329,-0.259 -0.539,-0.645 -0.63,-1.155l0,-0Z" style="fill-rule:nonzero;"/>
        <path id="path1257" d="M37.54,34.439c-0.304,0.257 -0.598,0.438 -0.881,0.544c-0.28,0.105 -0.581,0.158 -0.904,0.158c-0.532,0 -0.942,-0.128 -1.228,-0.385c-0.286,-0.26 -0.429,-0.591 -0.429,-0.992c-0,-0.236 0.053,-0.451 0.16,-0.644c0.109,-0.196 0.251,-0.354 0.424,-0.471c0.177,-0.118 0.375,-0.207 0.594,-0.268c0.161,-0.042 0.405,-0.083 0.73,-0.122c0.664,-0.079 1.152,-0.172 1.466,-0.281c0.003,-0.112 0.005,-0.183 0.005,-0.213c-0,-0.332 -0.078,-0.567 -0.233,-0.703c-0.21,-0.184 -0.522,-0.276 -0.936,-0.276c-0.387,-0 -0.673,0.068 -0.859,0.204c-0.182,0.133 -0.318,0.37 -0.406,0.711l-0.804,-0.108c0.074,-0.342 0.194,-0.617 0.361,-0.825c0.168,-0.212 0.41,-0.373 0.726,-0.485c0.317,-0.115 0.683,-0.172 1.1,-0.172c0.414,-0 0.751,0.048 1.009,0.145c0.259,0.096 0.449,0.219 0.571,0.367c0.122,0.145 0.207,0.329 0.256,0.553c0.027,0.139 0.041,0.389 0.041,0.752l-0,1.088c-0,0.758 0.017,1.238 0.05,1.441c0.037,0.199 0.107,0.391 0.21,0.575l-0.858,0c-0.085,-0.169 -0.14,-0.367 -0.164,-0.593l-0.001,-0Zm-0.068,-1.822c-0.298,0.121 -0.746,0.223 -1.342,0.308c-0.338,0.048 -0.577,0.103 -0.717,0.163c-0.14,0.061 -0.248,0.15 -0.324,0.268c-0.076,0.114 -0.114,0.243 -0.114,0.385c-0,0.217 0.082,0.399 0.246,0.544c0.167,0.145 0.411,0.217 0.731,0.217c0.316,0 0.598,-0.068 0.844,-0.204c0.247,-0.139 0.428,-0.328 0.544,-0.566c0.088,-0.185 0.132,-0.457 0.132,-0.816l-0,-0.299Z" style="fill-rule:nonzero;"/>
        <path id="path1259" d="M42.933,35.032l-0.763,0l0,-6.644l0.822,0l-0,2.371c0.347,-0.432 0.79,-0.648 1.329,-0.648c0.298,-0 0.579,0.06 0.844,0.181c0.268,0.118 0.487,0.285 0.658,0.503c0.173,0.214 0.309,0.474 0.406,0.779c0.097,0.306 0.146,0.632 0.146,0.979c0,0.825 -0.205,1.463 -0.616,1.913c-0.411,0.45 -0.904,0.675 -1.48,0.675c-0.572,0 -1.021,-0.237 -1.346,-0.711l-0,0.602Zm-0.01,-2.442c0,0.577 0.08,0.994 0.238,1.251c0.259,0.419 0.609,0.629 1.05,0.629c0.359,0 0.67,-0.154 0.931,-0.462c0.262,-0.311 0.393,-0.773 0.393,-1.387c0,-0.628 -0.126,-1.092 -0.379,-1.391c-0.25,-0.299 -0.552,-0.449 -0.909,-0.449c-0.359,0 -0.669,0.156 -0.931,0.467c-0.262,0.308 -0.393,0.755 -0.393,1.342Z" style="fill-rule:nonzero;"/>
        <rect id="path1261" x="47.361" y="28.388" width="0.822" height="6.644" style="fill-rule:nonzero;"/>
        <path id="path1263" d="M49.156,32.626c-0,-0.891 0.249,-1.552 0.748,-1.981c0.417,-0.356 0.926,-0.534 1.525,-0.534c0.667,-0 1.212,0.217 1.635,0.652c0.423,0.432 0.635,1.031 0.635,1.795c-0,0.619 -0.095,1.107 -0.284,1.464c-0.185,0.353 -0.458,0.628 -0.817,0.825c-0.356,0.196 -0.746,0.294 -1.169,0.294c-0.678,0 -1.228,-0.216 -1.648,-0.648c-0.417,-0.432 -0.625,-1.054 -0.625,-1.867Zm0.844,-0c0,0.616 0.136,1.079 0.407,1.387c0.271,0.305 0.611,0.457 1.022,0.457c0.408,0 0.748,-0.154 1.019,-0.462c0.27,-0.308 0.406,-0.778 0.406,-1.409c-0,-0.596 -0.137,-1.046 -0.411,-1.351c-0.271,-0.308 -0.609,-0.462 -1.014,-0.462c-0.411,-0 -0.751,0.152 -1.022,0.458c-0.271,0.305 -0.407,0.766 -0.407,1.382Z" style="fill-rule:nonzero;"/>
        <path id="path1265" d="M57.83,33.269l0.809,0.105c-0.089,0.553 -0.315,0.986 -0.681,1.3c-0.362,0.312 -0.808,0.467 -1.337,0.467c-0.664,0 -1.198,-0.214 -1.603,-0.643c-0.402,-0.432 -0.603,-1.05 -0.603,-1.854c0,-0.52 0.087,-0.974 0.261,-1.364c0.173,-0.39 0.436,-0.681 0.789,-0.875c0.357,-0.196 0.743,-0.294 1.16,-0.294c0.527,-0 0.957,0.133 1.292,0.398c0.335,0.263 0.55,0.638 0.644,1.124l-0.799,0.123c-0.076,-0.324 -0.212,-0.567 -0.406,-0.73c-0.192,-0.163 -0.425,-0.245 -0.699,-0.245c-0.414,0 -0.75,0.148 -1.009,0.444c-0.259,0.294 -0.388,0.759 -0.388,1.396c-0,0.647 0.125,1.117 0.374,1.41c0.25,0.293 0.576,0.439 0.977,0.439c0.323,0 0.592,-0.098 0.809,-0.294c0.216,-0.197 0.353,-0.499 0.41,-0.907Z" style="fill-rule:nonzero;"/>
        <path id="path1267" d="M59.346,35.032l0,-6.644l0.822,0l0,3.789l1.945,-1.958l1.064,0l-1.854,1.786l2.041,3.027l-1.013,0l-1.603,-2.46l-0.58,0.552l0,1.908l-0.822,0Z" style="fill-rule:nonzero;"/>
        <path id="path1269" d="M66.304,32.626c0,-0.891 0.25,-1.552 0.749,-1.981c0.417,-0.356 0.926,-0.534 1.525,-0.534c0.667,-0 1.212,0.217 1.635,0.652c0.423,0.432 0.634,1.031 0.634,1.795c0,0.619 -0.094,1.107 -0.283,1.464c-0.185,0.353 -0.458,0.628 -0.817,0.825c-0.356,0.196 -0.746,0.294 -1.169,0.294c-0.679,0 -1.228,-0.216 -1.648,-0.648c-0.417,-0.432 -0.626,-1.054 -0.626,-1.867Zm0.845,-0c0,0.616 0.136,1.079 0.406,1.387c0.271,0.305 0.612,0.457 1.023,0.457c0.408,0 0.747,-0.154 1.018,-0.462c0.271,-0.308 0.407,-0.778 0.407,-1.409c-0,-0.596 -0.137,-1.046 -0.411,-1.351c-0.271,-0.308 -0.609,-0.462 -1.014,-0.462c-0.411,-0 -0.752,0.152 -1.023,0.458c-0.27,0.305 -0.406,0.766 -0.406,1.382Z" style="fill-rule:nonzero;"/>
        <path id="path1271" d="M72.012,35.032l-0,-4.178l-0.726,-0l-0,-0.635l0.726,0l-0,-0.512c-0,-0.323 0.029,-0.563 0.086,-0.72c0.08,-0.212 0.218,-0.383 0.416,-0.513c0.201,-0.132 0.481,-0.199 0.84,-0.199c0.231,0 0.487,0.027 0.767,0.082l-0.123,0.711c-0.171,-0.03 -0.332,-0.045 -0.484,-0.045c-0.25,-0 -0.426,0.053 -0.53,0.158c-0.103,0.106 -0.155,0.304 -0.155,0.594l-0,0.444l0.945,0l-0,0.635l-0.945,-0l-0,4.178l-0.817,0Z" style="fill-rule:nonzero;"/>
        <path id="path1273" d="M78.796,34.303l0.119,0.72c-0.231,0.049 -0.438,0.073 -0.621,0.073c-0.298,-0 -0.53,-0.047 -0.694,-0.141c-0.164,-0.093 -0.28,-0.216 -0.347,-0.367c-0.067,-0.154 -0.1,-0.476 -0.1,-0.965l-0,-2.769l-0.603,-0l-0,-0.635l0.603,0l-0,-1.192l0.817,-0.489l-0,1.681l0.826,0l0,0.635l-0.826,-0l-0,2.814c-0,0.233 0.014,0.383 0.041,0.449c0.03,0.066 0.078,0.119 0.142,0.159c0.066,0.039 0.161,0.059 0.283,0.059c0.091,-0 0.211,-0.011 0.36,-0.032l0,-0Z" style="fill-rule:nonzero;"/>
        <path id="path1275" d="M82.915,33.482l0.849,0.105c-0.134,0.492 -0.382,0.874 -0.744,1.146c-0.363,0.272 -0.825,0.408 -1.388,0.408c-0.71,0 -1.273,-0.216 -1.69,-0.648c-0.414,-0.435 -0.621,-1.044 -0.621,-1.826c0,-0.81 0.21,-1.438 0.63,-1.886c0.42,-0.447 0.965,-0.67 1.635,-0.67c0.648,-0 1.178,0.219 1.589,0.657c0.411,0.438 0.616,1.054 0.616,1.849c0,0.048 -0.001,0.121 -0.004,0.217l-3.617,0c0.031,0.529 0.182,0.934 0.452,1.215c0.271,0.281 0.609,0.421 1.014,0.421c0.301,0 0.559,-0.078 0.772,-0.235c0.213,-0.157 0.382,-0.408 0.506,-0.753l0.001,0Zm-2.699,-1.318l2.708,-0c-0.037,-0.405 -0.14,-0.709 -0.311,-0.911c-0.262,-0.315 -0.601,-0.472 -1.018,-0.472c-0.377,0 -0.695,0.126 -0.954,0.376c-0.256,0.251 -0.397,0.587 -0.425,1.007Z" style="fill-rule:nonzero;"/>
        <path id="path1277" d="M84.252,35.032l1.772,-2.501l-1.639,-2.312l1.027,0l0.744,1.129c0.14,0.214 0.253,0.394 0.338,0.539c0.134,-0.199 0.257,-0.376 0.37,-0.53l0.817,-1.138l0.982,0l-1.676,2.266l1.804,2.547l-1.009,0l-0.996,-1.495l-0.265,-0.404l-1.273,1.899l-0.996,0Z" style="fill-rule:nonzero;"/>
        <path id="path1279" d="M91.27,34.303l0.119,0.72c-0.232,0.049 -0.439,0.073 -0.621,0.073c-0.299,-0 -0.53,-0.047 -0.694,-0.141c-0.165,-0.093 -0.28,-0.216 -0.347,-0.367c-0.067,-0.154 -0.101,-0.476 -0.101,-0.965l0,-2.769l-0.603,-0l0,-0.635l0.603,0l0,-1.192l0.817,-0.489l0,1.681l0.827,0l-0,0.635l-0.827,-0l0,2.814c0,0.233 0.014,0.383 0.042,0.449c0.03,0.066 0.077,0.119 0.141,0.159c0.067,0.039 0.161,0.059 0.283,0.059c0.091,-0 0.212,-0.011 0.361,-0.032l-0,-0Z" style="fill-rule:nonzero;"/>
        <path id="path1281" d="M97.826,33.269l0.808,0.105c-0.088,0.553 -0.315,0.986 -0.68,1.3c-0.362,0.312 -0.808,0.467 -1.338,0.467c-0.663,0 -1.197,-0.214 -1.602,-0.643c-0.402,-0.432 -0.603,-1.05 -0.603,-1.854c0,-0.52 0.087,-0.974 0.26,-1.364c0.174,-0.39 0.437,-0.681 0.79,-0.875c0.356,-0.196 0.743,-0.294 1.16,-0.294c0.526,-0 0.957,0.133 1.292,0.398c0.335,0.263 0.549,0.638 0.644,1.124l-0.799,0.123c-0.076,-0.324 -0.212,-0.567 -0.407,-0.73c-0.191,-0.163 -0.424,-0.245 -0.698,-0.245c-0.414,0 -0.75,0.148 -1.009,0.444c-0.259,0.294 -0.388,0.759 -0.388,1.396c-0,0.647 0.124,1.117 0.374,1.41c0.25,0.293 0.575,0.439 0.977,0.439c0.323,0 0.592,-0.098 0.808,-0.294c0.216,-0.197 0.353,-0.499 0.411,-0.907Z" style="fill:#0000d4;fill-rule:nonzero;"/>
        <path id="path1283" d="M99.032,32.626c-0,-0.891 0.249,-1.552 0.748,-1.981c0.417,-0.356 0.926,-0.534 1.525,-0.534c0.667,-0 1.212,0.217 1.635,0.652c0.423,0.432 0.634,1.031 0.634,1.795c0,0.619 -0.094,1.107 -0.283,1.464c-0.185,0.353 -0.458,0.628 -0.817,0.825c-0.356,0.196 -0.746,0.294 -1.169,0.294c-0.678,0 -1.228,-0.216 -1.648,-0.648c-0.417,-0.432 -0.625,-1.054 -0.625,-1.867Zm0.844,-0c0,0.616 0.136,1.079 0.407,1.387c0.27,0.305 0.611,0.457 1.022,0.457c0.408,0 0.748,-0.154 1.018,-0.462c0.271,-0.308 0.407,-0.778 0.407,-1.409c-0,-0.596 -0.137,-1.046 -0.411,-1.351c-0.271,-0.308 -0.609,-0.462 -1.014,-0.462c-0.411,-0 -0.752,0.152 -1.022,0.458c-0.271,0.305 -0.407,0.766 -0.407,1.382Z" style="fill:#0000d4;fill-rule:nonzero;"/>
        <path id="path1285" d="M104.542,35.032l0,-4.813l0.74,0l0,0.685c0.356,-0.529 0.871,-0.793 1.543,-0.793c0.292,-0 0.56,0.052 0.804,0.158c0.246,0.103 0.43,0.239 0.552,0.408c0.122,0.169 0.207,0.37 0.256,0.603c0.03,0.151 0.046,0.415 0.046,0.793l-0,2.96l-0.822,-0l-0,-2.928c-0,-0.333 -0.032,-0.58 -0.096,-0.744c-0.064,-0.166 -0.178,-0.297 -0.343,-0.394c-0.161,-0.099 -0.351,-0.149 -0.57,-0.149c-0.35,-0 -0.653,0.11 -0.909,0.331c-0.252,0.22 -0.379,0.639 -0.379,1.255l0,2.629l-0.822,-0.001Z" style="fill:#0000d4;fill-rule:nonzero;"/>
        <path id="path1287" d="M111.542,34.303l0.118,0.72c-0.231,0.049 -0.438,0.073 -0.621,0.073c-0.298,-0 -0.529,-0.047 -0.694,-0.141c-0.164,-0.093 -0.28,-0.216 -0.347,-0.367c-0.067,-0.154 -0.1,-0.476 -0.1,-0.965l-0,-2.769l-0.603,-0l0,-0.635l0.603,0l-0,-1.192l0.817,-0.489l0,1.681l0.827,0l-0,0.635l-0.827,-0l0,2.814c0,0.233 0.014,0.383 0.041,0.449c0.031,0.066 0.078,0.119 0.142,0.159c0.067,0.039 0.161,0.059 0.283,0.059c0.091,-0 0.211,-0.011 0.361,-0.032l-0,-0Z" style="fill:#0000d4;fill-rule:nonzero;"/>
        <path id="path1289" d="M115.505,34.439c-0.305,0.257 -0.598,0.438 -0.882,0.544c-0.28,0.105 -0.581,0.158 -0.904,0.158c-0.532,0 -0.942,-0.128 -1.228,-0.385c-0.286,-0.26 -0.429,-0.591 -0.429,-0.992c0,-0.236 0.053,-0.451 0.16,-0.644c0.109,-0.196 0.251,-0.354 0.425,-0.471c0.176,-0.118 0.374,-0.207 0.593,-0.268c0.161,-0.042 0.405,-0.083 0.731,-0.122c0.663,-0.079 1.152,-0.172 1.465,-0.281c0.003,-0.112 0.005,-0.183 0.005,-0.213c-0,-0.332 -0.078,-0.567 -0.233,-0.703c-0.21,-0.184 -0.522,-0.276 -0.936,-0.276c-0.387,-0 -0.673,0.068 -0.858,0.204c-0.183,0.133 -0.318,0.37 -0.407,0.711l-0.803,-0.108c0.073,-0.342 0.193,-0.617 0.36,-0.825c0.168,-0.212 0.41,-0.373 0.726,-0.485c0.317,-0.115 0.684,-0.172 1.101,-0.172c0.414,-0 0.75,0.048 1.009,0.145c0.258,0.096 0.449,0.219 0.57,0.367c0.122,0.145 0.207,0.329 0.256,0.553c0.028,0.139 0.041,0.389 0.041,0.752l0,1.088c0,0.758 0.017,1.238 0.05,1.441c0.037,0.199 0.107,0.391 0.21,0.575l-0.858,0c-0.085,-0.169 -0.14,-0.367 -0.164,-0.593l-0,-0Zm-0.069,-1.822c-0.298,0.121 -0.746,0.223 -1.342,0.308c-0.338,0.048 -0.577,0.103 -0.717,0.163c-0.14,0.061 -0.248,0.15 -0.324,0.268c-0.076,0.114 -0.114,0.243 -0.114,0.385c-0,0.217 0.082,0.399 0.246,0.544c0.168,0.145 0.411,0.217 0.731,0.217c0.316,0 0.598,-0.068 0.844,-0.204c0.247,-0.139 0.428,-0.328 0.544,-0.566c0.088,-0.185 0.132,-0.457 0.132,-0.816l0,-0.299Z" style="fill:#0000d4;fill-rule:nonzero;"/>
        <path id="path1291" d="M117.55,29.327l0,-0.939l0.822,0l-0,0.939l-0.822,-0Zm0,5.705l0,-4.813l0.822,0l-0,4.813l-0.822,0Z" style="fill:#0000d4;fill-rule:nonzero;"/>
        <path id="path1293" d="M119.628,35.032l-0,-4.813l0.739,0l0,0.685c0.356,-0.529 0.871,-0.793 1.543,-0.793c0.293,-0 0.56,0.052 0.804,0.158c0.246,0.103 0.431,0.239 0.552,0.408c0.122,0.169 0.207,0.37 0.256,0.603c0.03,0.151 0.046,0.415 0.046,0.793l-0,2.96l-0.822,-0l-0,-2.928c-0,-0.333 -0.032,-0.58 -0.096,-0.744c-0.064,-0.166 -0.178,-0.297 -0.342,-0.394c-0.162,-0.099 -0.352,-0.149 -0.571,-0.149c-0.35,-0 -0.653,0.11 -0.909,0.331c-0.252,0.22 -0.379,0.639 -0.379,1.255l0,2.629l-0.821,-0.001Z" style="fill:#0000d4;fill-rule:nonzero;"/>
        <path id="path1295" d="M124.837,29.327l-0,-0.939l0.822,0l-0,0.939l-0.822,-0Zm-0,5.705l-0,-4.813l0.822,0l-0,4.813l-0.822,0Z" style="fill:#0000d4;fill-rule:nonzero;"/>
        <path id="path1297" d="M126.914,35.032l0,-4.813l0.74,0l0,0.685c0.356,-0.529 0.871,-0.793 1.543,-0.793c0.292,-0 0.56,0.052 0.804,0.158c0.246,0.103 0.431,0.239 0.552,0.408c0.122,0.169 0.207,0.37 0.256,0.603c0.03,0.151 0.046,0.415 0.046,0.793l-0,2.96l-0.822,-0l-0,-2.928c-0,-0.333 -0.032,-0.58 -0.096,-0.744c-0.064,-0.166 -0.178,-0.297 -0.343,-0.394c-0.161,-0.099 -0.351,-0.149 -0.57,-0.149c-0.35,-0 -0.653,0.11 -0.909,0.331c-0.252,0.22 -0.379,0.639 -0.379,1.255l0,2.629l-0.822,-0.001Z" style="fill:#0000d4;fill-rule:nonzero;"/>
        <path id="path1299" d="M131.969,35.431l0.799,0.118c0.033,0.245 0.126,0.423 0.278,0.535c0.204,0.151 0.483,0.227 0.836,0.227c0.38,-0 0.674,-0.076 0.881,-0.227c0.207,-0.151 0.347,-0.363 0.42,-0.635c0.043,-0.166 0.062,-0.515 0.059,-1.046c-0.359,0.42 -0.806,0.63 -1.342,0.63c-0.667,-0 -1.183,-0.239 -1.548,-0.717c-0.365,-0.477 -0.548,-1.049 -0.548,-1.717c0,-0.459 0.084,-0.882 0.251,-1.269c0.168,-0.39 0.41,-0.691 0.726,-0.902c0.32,-0.212 0.694,-0.317 1.123,-0.317c0.573,-0 1.044,0.229 1.416,0.689l-0,-0.581l0.758,0l-0,4.161c-0,0.749 -0.078,1.279 -0.233,1.591c-0.152,0.314 -0.396,0.562 -0.731,0.743c-0.331,0.181 -0.741,0.272 -1.228,0.272c-0.578,-0 -1.045,-0.13 -1.401,-0.39c-0.357,-0.257 -0.529,-0.645 -0.516,-1.165l-0,0Zm0.68,-2.891c-0,0.631 0.126,1.092 0.379,1.382c0.253,0.29 0.569,0.435 0.95,0.435c0.377,0 0.694,-0.143 0.949,-0.43c0.256,-0.29 0.384,-0.744 0.384,-1.36c-0,-0.589 -0.133,-1.033 -0.397,-1.332c-0.262,-0.3 -0.579,-0.449 -0.95,-0.449c-0.365,-0 -0.676,0.148 -0.932,0.444c-0.255,0.293 -0.383,0.73 -0.383,1.31Z" style="fill:#0000d4;fill-rule:nonzero;"/>
        <path id="path1301" d="M143.082,34.439c-0.305,0.257 -0.599,0.438 -0.882,0.544c-0.28,0.105 -0.581,0.158 -0.904,0.158c-0.532,0 -0.942,-0.128 -1.228,-0.385c-0.286,-0.26 -0.429,-0.591 -0.429,-0.992c0,-0.236 0.053,-0.451 0.16,-0.644c0.109,-0.196 0.251,-0.354 0.425,-0.471c0.176,-0.118 0.374,-0.207 0.593,-0.268c0.161,-0.042 0.405,-0.083 0.731,-0.122c0.663,-0.079 1.152,-0.172 1.465,-0.281c0.003,-0.112 0.005,-0.183 0.005,-0.213c0,-0.332 -0.077,-0.567 -0.233,-0.703c-0.21,-0.184 -0.522,-0.276 -0.936,-0.276c-0.386,-0 -0.672,0.068 -0.858,0.204c-0.183,0.133 -0.318,0.37 -0.406,0.711l-0.804,-0.108c0.073,-0.342 0.193,-0.617 0.361,-0.825c0.167,-0.212 0.409,-0.373 0.726,-0.485c0.316,-0.115 0.683,-0.172 1.1,-0.172c0.414,-0 0.75,0.048 1.009,0.145c0.259,0.096 0.449,0.219 0.571,0.367c0.122,0.145 0.207,0.329 0.255,0.553c0.028,0.139 0.042,0.389 0.042,0.752l-0,1.088c-0,0.758 0.016,1.238 0.05,1.441c0.036,0.199 0.106,0.391 0.21,0.575l-0.859,0c-0.085,-0.169 -0.14,-0.367 -0.164,-0.593l-0,-0Zm-0.069,-1.822c-0.298,0.121 -0.746,0.223 -1.342,0.308c-0.338,0.048 -0.577,0.103 -0.717,0.163c-0.14,0.061 -0.248,0.15 -0.324,0.268c-0.076,0.114 -0.114,0.243 -0.114,0.385c-0,0.217 0.082,0.399 0.246,0.544c0.168,0.145 0.411,0.217 0.731,0.217c0.316,0 0.598,-0.068 0.844,-0.204c0.247,-0.139 0.428,-0.328 0.544,-0.566c0.088,-0.185 0.132,-0.457 0.132,-0.816l0,-0.299Z" style="fill:#0000d4;fill-rule:nonzero;"/>
        <rect id="path1303" x="147.698" y="28.388" width="0.822" height="6.644" style="fill:#0000d4;fill-rule:nonzero;"/>
        <path id="path1305" d="M149.802,29.327l0,-0.939l0.822,0l0,0.939l-0.822,-0Zm0,5.705l0,-4.813l0.822,0l0,4.813l-0.822,0Z" style="fill:#0000d4;fill-rule:nonzero;"/>
        <path id="path1307" d="M151.88,35.032l-0,-4.813l0.739,0l0,0.685c0.357,-0.529 0.871,-0.793 1.544,-0.793c0.292,-0 0.56,0.052 0.803,0.158c0.247,0.103 0.431,0.239 0.553,0.408c0.121,0.169 0.207,0.37 0.255,0.603c0.031,0.151 0.046,0.415 0.046,0.793l0,2.96l-0.822,-0l0,-2.928c0,-0.333 -0.032,-0.58 -0.096,-0.744c-0.064,-0.166 -0.178,-0.297 -0.342,-0.394c-0.161,-0.099 -0.352,-0.149 -0.571,-0.149c-0.35,-0 -0.653,0.11 -0.908,0.331c-0.253,0.22 -0.379,0.639 -0.379,1.255l-0,2.629l-0.822,-0.001Z" style="fill:#0000d4;fill-rule:nonzero;"/>
        <path id="path1309" d="M157.089,35.032l0,-6.644l0.822,0l0,3.789l1.945,-1.958l1.064,0l-1.854,1.786l2.041,3.027l-1.014,0l-1.602,-2.46l-0.58,0.552l0,1.908l-0.822,0Z" style="fill:#0000d4;fill-rule:nonzero;"/>
        <path id="path1311" d="M164.358,29.327l-0,-0.939l0.822,0l-0,0.939l-0.822,-0Zm-0,5.705l-0,-4.813l0.822,0l-0,4.813l-0.822,0Z" style="fill-rule:nonzero;"/>
        <path id="path1313" d="M166.435,35.032l0,-4.813l0.74,0l-0,0.685c0.356,-0.529 0.87,-0.793 1.543,-0.793c0.292,-0 0.56,0.052 0.804,0.158c0.246,0.103 0.43,0.239 0.552,0.408c0.122,0.169 0.207,0.37 0.256,0.603c0.03,0.151 0.046,0.415 0.046,0.793l-0,2.96l-0.822,-0l-0,-2.928c-0,-0.333 -0.032,-0.58 -0.096,-0.744c-0.064,-0.166 -0.178,-0.297 -0.343,-0.394c-0.161,-0.099 -0.351,-0.149 -0.57,-0.149c-0.35,-0 -0.653,0.11 -0.909,0.331c-0.253,0.22 -0.379,0.639 -0.379,1.255l0,2.629l-0.822,-0.001Z" style="fill-rule:nonzero;"/>
        <path id="path1315" d="M177.398,34.439c-0.305,0.257 -0.599,0.438 -0.882,0.544c-0.28,0.105 -0.581,0.158 -0.904,0.158c-0.532,0 -0.942,-0.128 -1.228,-0.385c-0.286,-0.26 -0.429,-0.591 -0.429,-0.992c-0,-0.236 0.053,-0.451 0.16,-0.644c0.109,-0.196 0.251,-0.354 0.424,-0.471c0.177,-0.118 0.375,-0.207 0.594,-0.268c0.161,-0.042 0.405,-0.083 0.731,-0.122c0.663,-0.079 1.152,-0.172 1.465,-0.281c0.003,-0.112 0.005,-0.183 0.005,-0.213c0,-0.332 -0.078,-0.567 -0.233,-0.703c-0.21,-0.184 -0.522,-0.276 -0.936,-0.276c-0.386,-0 -0.672,0.068 -0.858,0.204c-0.183,0.133 -0.318,0.37 -0.406,0.711l-0.804,-0.108c0.073,-0.342 0.193,-0.617 0.361,-0.825c0.167,-0.212 0.409,-0.373 0.726,-0.485c0.316,-0.115 0.683,-0.172 1.1,-0.172c0.414,-0 0.75,0.048 1.009,0.145c0.259,0.096 0.449,0.219 0.571,0.367c0.121,0.145 0.207,0.329 0.255,0.553c0.028,0.139 0.041,0.389 0.041,0.752l0,1.088c0,0.758 0.017,1.238 0.051,1.441c0.036,0.199 0.106,0.391 0.21,0.575l-0.859,0c-0.085,-0.169 -0.14,-0.367 -0.164,-0.593l-0,-0Zm-0.069,-1.822c-0.298,0.121 -0.746,0.223 -1.342,0.308c-0.338,0.048 -0.577,0.103 -0.717,0.163c-0.14,0.061 -0.248,0.15 -0.324,0.268c-0.076,0.114 -0.114,0.243 -0.114,0.385c-0,0.217 0.082,0.399 0.246,0.544c0.168,0.145 0.411,0.217 0.731,0.217c0.316,0 0.598,-0.068 0.844,-0.204c0.247,-0.139 0.428,-0.328 0.544,-0.566c0.088,-0.185 0.132,-0.457 0.132,-0.816l0,-0.299Z" style="fill-rule:nonzero;"/>
        <path id="path1317" d="M185.178,35.032l-0,-0.607c-0.308,0.478 -0.76,0.716 -1.356,0.716c-0.387,0 -0.743,-0.106 -1.069,-0.317c-0.322,-0.212 -0.574,-0.506 -0.753,-0.884c-0.177,-0.38 -0.265,-0.817 -0.265,-1.31c-0,-0.48 0.081,-0.915 0.242,-1.305c0.161,-0.393 0.403,-0.693 0.726,-0.902c0.323,-0.208 0.683,-0.312 1.082,-0.312c0.292,-0 0.552,0.062 0.781,0.185c0.228,0.121 0.414,0.28 0.557,0.476l-0,-2.384l0.817,0l0,6.644l-0.762,0Zm-2.598,-2.402c-0,0.617 0.131,1.078 0.392,1.383c0.262,0.305 0.571,0.457 0.927,0.457c0.359,0 0.664,-0.145 0.913,-0.435c0.253,-0.293 0.379,-0.738 0.379,-1.337c0,-0.658 -0.128,-1.142 -0.383,-1.45c-0.256,-0.308 -0.571,-0.462 -0.945,-0.462c-0.366,-0 -0.672,0.148 -0.918,0.444c-0.244,0.296 -0.365,0.763 -0.365,1.4Z" style="fill-rule:nonzero;"/>
        <path id="path1319" d="M187.241,29.327l0,-0.939l0.822,0l0,0.939l-0.822,-0Zm0,5.705l0,-4.813l0.822,0l0,4.813l-0.822,0Z" style="fill-rule:nonzero;"/>
        <path id="path1321" d="M189.515,35.032l-0,-4.178l-0.726,-0l0,-0.635l0.726,0l-0,-0.512c-0,-0.323 0.029,-0.563 0.087,-0.72c0.079,-0.212 0.217,-0.383 0.415,-0.513c0.201,-0.132 0.481,-0.199 0.84,-0.199c0.232,0 0.487,0.027 0.767,0.082l-0.123,0.711c-0.17,-0.03 -0.332,-0.045 -0.484,-0.045c-0.249,-0 -0.426,0.053 -0.529,0.158c-0.104,0.106 -0.156,0.304 -0.156,0.594l0,0.444l0.945,0l0,0.635l-0.945,-0l0,4.178l-0.817,0Z" style="fill-rule:nonzero;"/>
        <path id="path1323" d="M191.944,35.032l-0,-4.178l-0.726,-0l-0,-0.635l0.726,0l-0,-0.512c-0,-0.323 0.029,-0.563 0.087,-0.72c0.079,-0.212 0.217,-0.383 0.415,-0.513c0.201,-0.132 0.481,-0.199 0.84,-0.199c0.232,0 0.487,0.027 0.767,0.082l-0.123,0.711c-0.17,-0.03 -0.332,-0.045 -0.484,-0.045c-0.249,-0 -0.426,0.053 -0.529,0.158c-0.104,0.106 -0.156,0.304 -0.156,0.594l0,0.444l0.945,0l0,0.635l-0.945,-0l0,4.178l-0.817,0Z" style="fill-rule:nonzero;"/>
        <path id="path1325" d="M197.66,33.482l0.849,0.105c-0.133,0.492 -0.382,0.874 -0.744,1.146c-0.362,0.272 -0.825,0.408 -1.388,0.408c-0.709,0 -1.272,-0.216 -1.689,-0.648c-0.414,-0.435 -0.621,-1.044 -0.621,-1.826c-0,-0.81 0.21,-1.438 0.63,-1.886c0.42,-0.447 0.965,-0.67 1.635,-0.67c0.648,-0 1.178,0.219 1.588,0.657c0.411,0.438 0.617,1.054 0.617,1.849c-0,0.048 -0.002,0.121 -0.005,0.217l-3.616,0c0.03,0.529 0.181,0.934 0.452,1.215c0.271,0.281 0.609,0.421 1.013,0.421c0.302,0 0.559,-0.078 0.772,-0.235c0.213,-0.157 0.382,-0.408 0.507,-0.753l0,0Zm-2.698,-1.318l2.707,-0c-0.036,-0.405 -0.14,-0.709 -0.31,-0.911c-0.262,-0.315 -0.601,-0.472 -1.018,-0.472c-0.378,0 -0.696,0.126 -0.955,0.376c-0.255,0.251 -0.397,0.587 -0.424,1.007Z" style="fill-rule:nonzero;"/>
        <path id="path1327" d="M199.537,35.032l-0,-4.813l0.739,0l0,0.73c0.189,-0.341 0.363,-0.566 0.521,-0.675c0.161,-0.109 0.338,-0.163 0.529,-0.163c0.277,-0 0.559,0.087 0.845,0.262l-0.283,0.757c-0.201,-0.117 -0.402,-0.176 -0.603,-0.176c-0.179,-0 -0.341,0.054 -0.484,0.163c-0.143,0.106 -0.245,0.254 -0.305,0.444c-0.092,0.29 -0.137,0.607 -0.137,0.952l-0,2.519l-0.822,0Z" style="fill-rule:nonzero;"/>
        <path id="path1329" d="M205.988,33.482l0.849,0.105c-0.134,0.492 -0.382,0.874 -0.744,1.146c-0.362,0.272 -0.825,0.408 -1.388,0.408c-0.709,0 -1.272,-0.216 -1.689,-0.648c-0.414,-0.435 -0.621,-1.044 -0.621,-1.826c-0,-0.81 0.21,-1.438 0.63,-1.886c0.42,-0.447 0.965,-0.67 1.634,-0.67c0.649,-0 1.178,0.219 1.589,0.657c0.411,0.438 0.617,1.054 0.617,1.849c-0,0.048 -0.002,0.121 -0.005,0.217l-3.616,0c0.03,0.529 0.181,0.934 0.452,1.215c0.271,0.281 0.608,0.421 1.013,0.421c0.302,0 0.559,-0.078 0.772,-0.235c0.213,-0.157 0.382,-0.408 0.507,-0.753l0,0Zm-2.698,-1.318l2.707,-0c-0.036,-0.405 -0.14,-0.709 -0.31,-0.911c-0.262,-0.315 -0.601,-0.472 -1.018,-0.472c-0.378,0 -0.696,0.126 -0.955,0.376c-0.255,0.251 -0.397,0.587 -0.424,1.007Z" style="fill-rule:nonzero;"/>
        <path id="path1331" d="M207.874,35.032l-0,-4.813l0.739,0l0,0.685c0.357,-0.529 0.871,-0.793 1.544,-0.793c0.292,-0 0.56,0.052 0.803,0.158c0.247,0.103 0.431,0.239 0.553,0.408c0.121,0.169 0.207,0.37 0.255,0.603c0.031,0.151 0.046,0.415 0.046,0.793l0,2.96l-0.822,-0l0,-2.928c0,-0.333 -0.032,-0.58 -0.096,-0.744c-0.064,-0.166 -0.178,-0.297 -0.342,-0.394c-0.161,-0.099 -0.352,-0.149 -0.571,-0.149c-0.35,-0 -0.653,0.11 -0.908,0.331c-0.253,0.22 -0.379,0.639 -0.379,1.255l-0,2.629l-0.822,-0.001Z" style="fill-rule:nonzero;"/>
        <path id="path1333" d="M214.873,34.303l0.119,0.72c-0.232,0.049 -0.439,0.073 -0.621,0.073c-0.298,-0 -0.53,-0.047 -0.694,-0.141c-0.165,-0.093 -0.28,-0.216 -0.347,-0.367c-0.067,-0.154 -0.101,-0.476 -0.101,-0.965l0,-2.769l-0.602,-0l-0,-0.635l0.602,0l0,-1.192l0.818,-0.489l-0,1.681l0.826,0l0,0.635l-0.826,-0l-0,2.814c-0,0.233 0.013,0.383 0.041,0.449c0.03,0.066 0.077,0.119 0.141,0.159c0.067,0.039 0.162,0.059 0.283,0.059c0.092,-0 0.212,-0.011 0.361,-0.032l-0,-0Z" style="fill-rule:nonzero;"/>
        <path id="path1335" d="M221.429,33.269l0.809,0.105c-0.089,0.553 -0.316,0.986 -0.681,1.3c-0.362,0.312 -0.808,0.467 -1.338,0.467c-0.663,0 -1.197,-0.214 -1.602,-0.643c-0.402,-0.432 -0.603,-1.05 -0.603,-1.854c0,-0.52 0.087,-0.974 0.26,-1.364c0.174,-0.39 0.437,-0.681 0.79,-0.875c0.356,-0.196 0.743,-0.294 1.16,-0.294c0.527,-0 0.957,0.133 1.292,0.398c0.335,0.263 0.55,0.638 0.644,1.124l-0.799,0.123c-0.076,-0.324 -0.212,-0.567 -0.406,-0.73c-0.192,-0.163 -0.425,-0.245 -0.699,-0.245c-0.414,0 -0.75,0.148 -1.009,0.444c-0.259,0.294 -0.388,0.759 -0.388,1.396c-0,0.647 0.125,1.117 0.374,1.41c0.25,0.293 0.576,0.439 0.977,0.439c0.323,0 0.592,-0.098 0.808,-0.294c0.217,-0.197 0.354,-0.499 0.411,-0.907Z" style="fill-rule:nonzero;"/>
        <path id="path1337" d="M222.635,32.626c-0,-0.891 0.249,-1.552 0.748,-1.981c0.417,-0.356 0.926,-0.534 1.525,-0.534c0.667,-0 1.212,0.217 1.635,0.652c0.423,0.432 0.635,1.031 0.635,1.795c-0,0.619 -0.095,1.107 -0.283,1.464c-0.186,0.353 -0.459,0.628 -0.818,0.825c-0.356,0.196 -0.745,0.294 -1.169,0.294c-0.678,0 -1.228,-0.216 -1.648,-0.648c-0.417,-0.432 -0.625,-1.054 -0.625,-1.867Zm0.844,-0c0,0.616 0.136,1.079 0.407,1.387c0.271,0.305 0.612,0.457 1.022,0.457c0.408,0 0.748,-0.154 1.019,-0.462c0.27,-0.308 0.406,-0.778 0.406,-1.409c-0,-0.596 -0.137,-1.046 -0.411,-1.351c-0.271,-0.308 -0.609,-0.462 -1.014,-0.462c-0.41,-0 -0.751,0.152 -1.022,0.458c-0.271,0.305 -0.407,0.766 -0.407,1.382Z" style="fill-rule:nonzero;"/>
        <rect id="path1339" x="228.127" y="28.388" width="0.822" height="6.644" style="fill-rule:nonzero;"/>
        <path id="path1341" d="M229.922,32.626c-0,-0.891 0.249,-1.552 0.748,-1.981c0.417,-0.356 0.926,-0.534 1.525,-0.534c0.667,-0 1.212,0.217 1.635,0.652c0.423,0.432 0.634,1.031 0.634,1.795c0,0.619 -0.094,1.107 -0.283,1.464c-0.185,0.353 -0.458,0.628 -0.817,0.825c-0.356,0.196 -0.746,0.294 -1.169,0.294c-0.678,0 -1.228,-0.216 -1.648,-0.648c-0.417,-0.432 -0.625,-1.054 -0.625,-1.867Zm0.844,-0c0,0.616 0.136,1.079 0.407,1.387c0.271,0.305 0.611,0.457 1.022,0.457c0.408,0 0.748,-0.154 1.018,-0.462c0.271,-0.308 0.407,-0.778 0.407,-1.409c-0,-0.596 -0.137,-1.046 -0.411,-1.351c-0.271,-0.308 -0.609,-0.462 -1.014,-0.462c-0.411,-0 -0.751,0.152 -1.022,0.458c-0.271,0.305 -0.407,0.766 -0.407,1.382Z" style="fill-rule:nonzero;"/>
        <path id="path1343" d="M235.423,35.032l0,-4.813l0.74,0l-0,0.73c0.189,-0.341 0.362,-0.566 0.52,-0.675c0.162,-0.109 0.338,-0.163 0.53,-0.163c0.277,-0 0.559,0.087 0.845,0.262l-0.283,0.757c-0.201,-0.117 -0.402,-0.176 -0.603,-0.176c-0.18,-0 -0.341,0.054 -0.484,0.163c-0.143,0.106 -0.245,0.254 -0.306,0.444c-0.091,0.29 -0.137,0.607 -0.137,0.952l0,2.519l-0.822,0Z" style="fill-rule:nonzero;"/>
        <path id="path1070-4" d="M94.546,37.826l67.424,-0" style="fill:none;fill-rule:nonzero;stroke:#0000d4;stroke-width:1.32px;"/>
    </g>
</svg>
