<svg xmlns="http://www.w3.org/2000/svg" fill-rule="evenodd" clip-rule="evenodd" viewBox="0 0 242 58">
  <path d="M.661.657h239.974v56.25H.661z" style="fill:#fff;stroke:#fff;stroke-width:1.32px"/>
  <path d="M5.601 15.472v-5.86H3.396v-.784h5.305v.784H6.487v5.86zM9.51 15.472V8.828h.821v2.383c.384-.441.868-.661 1.452-.661q.5385 0 .936.213c.265.139.454.332.566.58.116.248.174.607.174 1.078v3.051h-.822v-3.051c0-.407-.09-.704-.269-.888-.177-.187-.428-.281-.754-.281-.243 0-.473.064-.689.191-.213.123-.365.293-.457.507-.091.215-.137.511-.137.888v2.634zM14.719 9.766v-.938h.822v.938zm0 5.706v-4.814h.822v4.814zM16.468 14.035l.812-.127c.046.323.172.571.379.743.21.173.503.259.877.259.377 0 .657-.076.84-.227.183-.154.274-.334.274-.539 0-.185-.081-.33-.242-.435-.113-.073-.393-.165-.84-.277-.603-.151-1.021-.281-1.256-.39-.231-.111-.408-.264-.529-.457-.119-.197-.178-.413-.178-.648 0-.215.048-.413.146-.594.1-.184.236-.337.406-.458.128-.094.301-.172.521-.236.222-.066.459-.099.712-.099.38 0 .714.054 1 .163q.4335.1635.639.444c.137.184.231.432.283.743l-.804.109c-.036-.248-.143-.441-.319-.58-.174-.139-.42-.209-.74-.209-.377 0-.647.062-.808.186s-.242.269-.242.435c0 .106.034.201.101.286.066.088.171.16.315.217.082.031.324.1.726.209.581.154.986.281 1.214.381q.3465.144.543.426c.131.187.197.42.197.698 0 .272-.081.528-.242.77-.159.239-.388.425-.69.558-.301.129-.642.194-1.022.194-.631 0-1.111-.13-1.443-.389-.329-.26-.539-.645-.63-1.156M24.07 9.766v-.938h.821v.938zm0 5.706v-4.814h.821v4.814zM25.818 14.035l.813-.127c.046.323.172.571.379.743.21.173.502.259.877.259.377 0 .657-.076.84-.227.182-.154.274-.334.274-.539 0-.185-.081-.33-.242-.435-.113-.073-.393-.165-.84-.277-.603-.151-1.022-.281-1.256-.39-.231-.111-.408-.264-.53-.457-.118-.197-.178-.413-.178-.648 0-.215.049-.413.146-.594.101-.184.236-.337.407-.458.128-.094.301-.172.52-.236.222-.066.46-.099.712-.099.381 0 .714.054 1 .163.29.109.503.257.64.444.137.184.231.432.283.743l-.804.109c-.036-.248-.143-.441-.32-.58-.173-.139-.42-.209-.739-.209-.378 0-.647.062-.808.186-.162.124-.242.269-.242.435 0 .106.033.201.1.286.067.088.172.16.315.217.082.031.324.1.726.209q.8715.231 1.215.381.3465.144.543.426c.131.187.196.42.196.698 0 .272-.08.528-.242.77-.158.239-.388.425-.689.558-.301.129-.642.194-1.023.194-.63 0-1.111-.13-1.443-.389-.328-.26-.538-.645-.63-1.156M36.58 14.878c-.305.257-.598.438-.882.544-.28.105-.581.158-.904.158-.532 0-.942-.128-1.228-.385-.286-.26-.429-.591-.429-.992 0-.236.053-.451.16-.644.11-.196.251-.353.425-.471.176-.118.374-.207.593-.268.161-.042.405-.083.731-.122.663-.079 1.152-.172 1.465-.281.003-.112.005-.183.005-.213 0-.332-.078-.567-.233-.703q-.315-.276-.936-.276-.5805 0-.858.204c-.183.133-.318.37-.407.711l-.803-.108q.1095-.513.36-.825c.168-.212.41-.373.726-.485.317-.115.684-.172 1.101-.172.414 0 .75.048 1.009.145.258.096.449.219.57.367.122.145.207.329.256.553.028.139.041.39.041.752v1.088c0 .758.017 1.239.05 1.441q.0555.2985.21.576h-.858c-.085-.17-.14-.368-.164-.594m-.069-1.822c-.298.121-.746.224-1.342.308-.338.049-.577.103-.717.163-.14.061-.248.15-.324.268-.076.115-.114.243-.114.385 0 .217.082.399.246.544.168.145.411.217.731.217.316 0 .598-.068.844-.204.247-.139.428-.327.544-.566q.132-.276.132-.816zM41.972 15.472h-.763V8.828h.822v2.37q.5205-.648 1.329-.648c.298 0 .58.06.844.181.268.118.487.286.658.503.173.215.309.474.406.78.098.305.146.631.146.979 0 .824-.205 1.462-.616 1.912q-.6165.675-1.479.675-.8595 0-1.347-.711zm-.009-2.443q0 .8655.237 1.251.3885.63 1.05.63c.359 0 .67-.154.932-.463.261-.311.392-.773.392-1.386 0-.629-.126-1.093-.379-1.392-.249-.299-.552-.449-.908-.449-.359 0-.67.156-.932.467-.261.308-.392.756-.392 1.342M46.401 8.828h.822v6.644h-.822zM48.195 13.065c0-.891.249-1.551.749-1.98.417-.357.925-.535 1.525-.535.666 0 1.211.217 1.634.652.423.432.635 1.031.635 1.795 0 .619-.095 1.107-.283 1.464-.186.353-.458.628-.818.825-.356.196-.745.294-1.168.294-.679 0-1.229-.216-1.649-.648-.417-.432-.625-1.054-.625-1.867m.845 0c0 .616.135 1.079.406 1.387.271.305.612.458 1.023.458.407 0 .747-.154 1.018-.463.271-.308.406-.778.406-1.409 0-.595-.137-1.046-.411-1.351-.271-.308-.609-.462-1.013-.462-.411 0-.752.153-1.023.458s-.406.766-.406 1.382M56.87 13.709l.808.104c-.088.553-.315.986-.68 1.301-.363.311-.809.466-1.338.466-.664 0-1.198-.214-1.603-.643-.402-.432-.602-1.05-.602-1.854 0-.52.086-.974.26-1.364.173-.39.437-.681.79-.875.356-.196.742-.294 1.159-.294.527 0 .958.133 1.292.399.335.262.55.637.644 1.124l-.799.122c-.076-.323-.211-.567-.406-.73-.192-.163-.425-.245-.699-.245-.414 0-.75.149-1.009.445-.258.293-.388.758-.388 1.396 0 .646.125 1.116.375 1.409.249.293.575.44.977.44.322 0 .592-.099.808-.295s.353-.499.411-.906M58.386 15.472V8.828h.821v3.788l1.945-1.958h1.064l-1.853 1.786 2.04 3.028H61.39l-1.603-2.461-.58.553v1.908zM65.344 13.065c0-.891.249-1.551.748-1.98.417-.357.926-.535 1.525-.535.667 0 1.212.217 1.635.652.423.432.635 1.031.635 1.795 0 .619-.095 1.107-.283 1.464-.186.353-.459.628-.818.825-.356.196-.745.294-1.169.294-.678 0-1.228-.216-1.648-.648-.417-.432-.625-1.054-.625-1.867m.844 0c0 .616.136 1.079.407 1.387.271.305.612.458 1.022.458.408 0 .748-.154 1.019-.463.27-.308.406-.778.406-1.409 0-.595-.137-1.046-.411-1.351q-.4065-.462-1.014-.462c-.41 0-.751.153-1.022.458s-.407.766-.407 1.382M71.051 15.472v-4.179h-.726v-.635h.726v-.512q0-.4845.087-.72c.079-.212.217-.382.415-.512.201-.133.481-.2.84-.2.232 0 .487.027.767.082l-.123.711c-.17-.03-.332-.045-.484-.045-.25 0-.426.053-.53.159-.103.105-.155.303-.155.593v.444h.945v.635h-.945v4.179zM77.836 14.742l.118.721q-.3465.072-.621.072c-.298 0-.529-.047-.694-.14-.164-.094-.28-.216-.347-.368-.067-.154-.1-.475-.1-.965v-2.769h-.603v-.635h.603V9.467l.817-.49v1.681h.827v.635h-.827v2.814c0 .233.014.383.041.449.031.067.078.119.142.159.067.039.161.059.283.059.091 0 .211-.011.361-.032M81.954 13.922l.849.104c-.134.492-.382.875-.744 1.146-.362.272-.825.408-1.388.408q-1.0635 0-1.689-.648c-.414-.435-.621-1.044-.621-1.826 0-.81.21-1.438.63-1.886.42-.447.965-.67 1.634-.67.649 0 1.178.219 1.589.657s.616 1.054.616 1.849c0 .048-.001.121-.004.218H79.21c.03.528.181.933.452 1.214s.609.422 1.013.422c.302 0 .559-.079.772-.236s.382-.408.507-.752m-2.699-1.319h2.708c-.037-.405-.14-.709-.311-.911-.261-.314-.601-.472-1.018-.472-.377 0-.695.126-.954.377-.256.25-.397.586-.425 1.006M83.292 15.472l1.771-2.502-1.639-2.312h1.027l.744 1.129c.14.215.253.394.338.539.134-.199.258-.376.37-.53l.817-1.138h.982l-1.676 2.267 1.804 2.547h-1.009l-.995-1.496-.265-.403-1.274 1.899zM90.309 14.742l.119.721q-.348.072-.621.072c-.298 0-.53-.047-.694-.14-.165-.094-.28-.216-.347-.368-.067-.154-.101-.475-.101-.965v-2.769h-.602v-.635h.602V9.467l.818-.49v1.681h.826v.635h-.826v2.814c0 .233.013.383.041.449.03.067.077.119.141.159.067.039.162.059.283.059.092 0 .212-.011.361-.032" style="fill-rule:nonzero"/>
  <path d="m96.865 13.709.809.104c-.089.553-.315.986-.681 1.301-.362.311-.808.466-1.337.466-.664 0-1.198-.214-1.603-.643q-.603-.648-.603-1.854c0-.52.087-.974.261-1.364.173-.39.436-.681.789-.875.357-.196.743-.294 1.16-.294.527 0 .957.133 1.292.399.335.262.55.637.644 1.124l-.799.122c-.076-.323-.212-.567-.406-.73-.192-.163-.425-.245-.699-.245-.414 0-.75.149-1.009.445-.259.293-.388.758-.388 1.396 0 .646.125 1.116.374 1.409.25.293.576.44.977.44.323 0 .592-.099.809-.295.216-.196.353-.499.41-.906M98.071 13.065c0-.891.249-1.551.749-1.98.417-.357.925-.535 1.525-.535.666 0 1.211.217 1.634.652.423.432.635 1.031.635 1.795 0 .619-.095 1.107-.283 1.464-.186.353-.458.628-.818.825-.356.196-.745.294-1.168.294-.679 0-1.229-.216-1.649-.648-.417-.432-.625-1.054-.625-1.867m.844 0c0 .616.136 1.079.407 1.387.271.305.612.458 1.023.458.407 0 .747-.154 1.018-.463.271-.308.406-.778.406-1.409 0-.595-.137-1.046-.411-1.351-.271-.308-.609-.462-1.013-.462-.411 0-.752.153-1.023.458s-.407.766-.407 1.382M103.582 15.472v-4.814h.739v.685c.356-.529.871-.793 1.543-.793.293 0 .561.053.804.158q.3705.1545.552.408c.122.169.207.37.256.603.031.151.046.415.046.793v2.96h-.822v-2.928c0-.333-.032-.58-.096-.743-.064-.167-.178-.298-.342-.395-.162-.099-.352-.149-.571-.149-.35 0-.653.11-.909.331-.252.22-.379.639-.379 1.255v2.629zM110.581 14.742l.119.721q-.348.072-.621.072c-.299 0-.53-.047-.694-.14-.165-.094-.28-.216-.347-.368-.067-.154-.101-.475-.101-.965v-2.769h-.602v-.635h.602V9.467l.817-.49v1.681h.827v.635h-.827v2.814c0 .233.014.383.042.449.03.067.077.119.141.159.067.039.161.059.283.059.092 0 .212-.011.361-.032M114.544 14.878c-.304.257-.598.438-.881.544-.28.105-.582.158-.904.158-.533 0-.942-.128-1.228-.385-.287-.26-.43-.591-.43-.992 0-.236.054-.451.16-.644.11-.196.251-.353.425-.471.176-.118.374-.207.593-.268.162-.042.405-.083.731-.122.663-.079 1.152-.172 1.465-.281.004-.112.005-.183.005-.213 0-.332-.078-.567-.233-.703q-.315-.276-.936-.276-.579 0-.858.204c-.183.133-.318.37-.406.711l-.804-.108c.073-.342.193-.617.361-.825.167-.212.409-.373.726-.485.316-.115.683-.172 1.1-.172.414 0 .75.048 1.009.145.259.096.449.219.571.367.121.145.207.329.255.553.028.139.041.39.041.752v1.088c0 .758.017 1.239.051 1.441q.054.2985.21.576h-.859c-.085-.17-.14-.368-.164-.594m-.069-1.822c-.298.121-.745.224-1.342.308-.338.049-.577.103-.717.163-.14.061-.248.15-.324.268-.076.115-.114.243-.114.385 0 .217.082.399.247.544.167.145.41.217.73.217.317 0 .598-.068.845-.204.246-.139.427-.327.543-.566q.132-.276.132-.816zM116.589 9.766v-.938h.822v.938zm0 5.706v-4.814h.822v4.814zM118.667 15.472v-4.814h.739v.685c.357-.529.871-.793 1.544-.793.292 0 .56.053.803.158.247.103.431.239.553.408.121.169.207.37.255.603.031.151.046.415.046.793v2.96h-.822v-2.928c0-.333-.032-.58-.096-.743-.064-.167-.178-.298-.342-.395-.162-.099-.352-.149-.571-.149-.35 0-.653.11-.908.331-.253.22-.379.639-.379 1.255v2.629zM123.876 9.766v-.938h.822v.938zm0 5.706v-4.814h.822v4.814zM125.954 15.472v-4.814h.739v.685c.356-.529.871-.793 1.543-.793.293 0 .561.053.804.158.247.103.431.239.553.408q.1815.2535.255.603c.031.151.046.415.046.793v2.96h-.822v-2.928c0-.333-.032-.58-.096-.743-.064-.167-.178-.298-.342-.395-.162-.099-.352-.149-.571-.149-.35 0-.653.11-.909.331-.252.22-.379.639-.379 1.255v2.629zM131.008 15.87l.799.118c.033.245.126.423.278.535.204.151.483.227.836.227.38 0 .674-.076.881-.227s.347-.363.42-.634c.043-.167.063-.516.059-1.047-.359.42-.806.63-1.342.63-.666 0-1.182-.239-1.548-.716-.365-.478-.548-1.05-.548-1.718q0-.6885.252-1.269c.167-.39.409-.691.726-.902.319-.212.694-.317 1.123-.317.572 0 1.044.229 1.415.689v-.581h.758v4.161c0 .749-.078 1.28-.233 1.591-.152.314-.396.562-.73.743-.332.181-.742.272-1.229.272q-.867 0-1.401-.39c-.356-.257-.528-.645-.516-1.165m.68-2.891c0 .631.126 1.092.379 1.382s.569.435.95.435c.377 0 .694-.143.949-.43.256-.29.384-.744.384-1.36 0-.589-.132-1.033-.397-1.332-.262-.299-.579-.449-.95-.449-.365 0-.676.148-.931.444-.256.293-.384.73-.384 1.31M142.121 14.878c-.305.257-.598.438-.881.544-.28.105-.582.158-.904.158-.533 0-.942-.128-1.229-.385-.286-.26-.429-.591-.429-.992 0-.236.054-.451.16-.644.11-.196.251-.353.425-.471.176-.118.374-.207.593-.268.162-.042.405-.083.731-.122.663-.079 1.152-.172 1.465-.281.004-.112.005-.183.005-.213 0-.332-.077-.567-.232-.703-.211-.184-.522-.276-.936-.276-.387 0-.673.068-.859.204-.182.133-.318.37-.406.711l-.804-.108c.073-.342.194-.617.361-.825.167-.212.409-.373.726-.485.316-.115.683-.172 1.1-.172.414 0 .751.048 1.009.145.259.096.449.219.571.367.122.145.207.329.256.553.027.139.041.39.041.752v1.088c0 .758.016 1.239.05 1.441q.0555.2985.21.576h-.858c-.086-.17-.14-.368-.165-.594m-.069-1.822c-.298.121-.745.224-1.342.308-.338.049-.577.103-.717.163-.14.061-.248.15-.324.268-.076.115-.114.243-.114.385 0 .217.082.399.247.544.167.145.41.217.73.217.317 0 .598-.068.845-.204.246-.139.427-.327.543-.566q.132-.276.132-.816zM146.737 8.828h.822v6.644h-.822zM148.842 9.766v-.938h.821v.938zm0 5.706v-4.814h.821v4.814zM150.919 15.472v-4.814h.74v.685c.356-.529.87-.793 1.543-.793.292 0 .56.053.803.158.247.103.431.239.553.408s.207.37.256.603c.03.151.045.415.045.793v2.96h-.822v-2.928c0-.333-.032-.58-.095-.743-.064-.167-.179-.298-.343-.395-.161-.099-.351-.149-.571-.149-.35 0-.653.11-.908.331-.253.22-.379.639-.379 1.255v2.629zM156.128 15.472V8.828h.822v3.788l1.945-1.958h1.064l-1.854 1.786 2.041 3.028h-1.013l-1.603-2.461-.58.553v1.908z" style="fill:#1557ff;fill-rule:nonzero"/>
  <path d="M163.397 9.766v-.938h.822v.938zm0 5.706v-4.814h.822v4.814zM165.475 15.472v-4.814h.739v.685c.356-.529.871-.793 1.543-.793.293 0 .56.053.804.158.246.103.431.239.552.408.122.169.207.37.256.603.031.151.046.415.046.793v2.96h-.822v-2.928c0-.333-.032-.58-.096-.743-.064-.167-.178-.298-.342-.395-.162-.099-.352-.149-.571-.149-.35 0-.653.11-.909.331-.252.22-.379.639-.379 1.255v2.629zM176.437 14.878c-.305.257-.598.438-.881.544-.28.105-.582.158-.904.158-.533 0-.942-.128-1.229-.385-.286-.26-.429-.591-.429-.992 0-.236.054-.451.16-.644.11-.196.251-.353.425-.471.176-.118.374-.207.593-.268.162-.042.405-.083.731-.122.663-.079 1.152-.172 1.465-.281.004-.112.005-.183.005-.213 0-.332-.077-.567-.232-.703q-.3165-.276-.936-.276c-.387 0-.673.068-.859.204-.182.133-.318.37-.406.711l-.804-.108c.073-.342.193-.617.361-.825.167-.212.409-.373.726-.485.316-.115.683-.172 1.1-.172.414 0 .751.048 1.009.145.259.096.449.219.571.367.122.145.207.329.256.553.027.139.041.39.041.752v1.088c0 .758.016 1.239.05 1.441q.054.2985.21.576h-.858c-.086-.17-.14-.368-.165-.594m-.069-1.822c-.298.121-.745.224-1.342.308-.338.049-.577.103-.717.163-.14.061-.248.15-.324.268-.076.115-.114.243-.114.385 0 .217.082.399.246.544.168.145.411.217.731.217.317 0 .598-.068.845-.204.246-.139.427-.327.543-.566q.132-.276.132-.816zM184.217 15.472v-.608c-.308.478-.76.716-1.356.716-.387 0-.743-.105-1.069-.317-.322-.211-.573-.506-.753-.884-.176-.38-.265-.817-.265-1.309 0-.481.081-.916.242-1.306.162-.392.404-.693.726-.902.323-.208.683-.312 1.082-.312.292 0 .553.062.781.186.228.12.414.279.557.475V8.828h.817v6.644zm-2.598-2.402c0 .616.131 1.077.393 1.382.261.305.57.458.926.458.36 0 .664-.145.914-.435.252-.294.378-.739.378-1.337 0-.659-.127-1.143-.383-1.451q-.384-.462-.945-.462-.5475 0-.918.444c-.243.296-.365.763-.365 1.401M186.28 9.766v-.938h.822v.938zm0 5.706v-4.814h.822v4.814zM188.554 15.472v-4.179h-.726v-.635h.726v-.512q0-.4845.087-.72c.079-.212.218-.382.415-.512.201-.133.481-.2.841-.2.231 0 .487.027.767.082l-.124.711c-.17-.03-.331-.045-.484-.045-.249 0-.426.053-.529.159-.104.105-.155.303-.155.593v.444h.945v.635h-.945v4.179z" style="fill-rule:nonzero"/>
  <path d="M190.983 15.472v-4.179h-.726v-.635h.726v-.512q0-.4845.087-.72c.079-.212.218-.382.415-.512.201-.133.481-.2.841-.2.231 0 .487.027.767.082l-.124.711c-.17-.03-.331-.045-.484-.045-.249 0-.426.053-.529.159-.104.105-.155.303-.155.593v.444h.945v.635h-.945v4.179zM196.699 13.922l.85.104c-.134.492-.382.875-.745 1.146-.362.272-.824.408-1.388.408q-1.0635 0-1.689-.648c-.414-.435-.621-1.044-.621-1.826 0-.81.21-1.438.63-1.886.42-.447.965-.67 1.635-.67.648 0 1.178.219 1.589.657s.616 1.054.616 1.849c0 .048-.002.121-.005.218h-3.616c.031.528.181.933.452 1.214s.609.422 1.014.422c.301 0 .558-.079.771-.236s.382-.408.507-.752m-2.698-1.319h2.708c-.037-.405-.14-.709-.311-.911-.262-.314-.601-.472-1.018-.472-.377 0-.696.126-.954.377-.256.25-.397.586-.425 1.006M198.576 15.472v-4.814h.74v.73c.188-.341.362-.566.52-.675.161-.109.338-.163.53-.163.277 0 .558.087.844.263l-.283.756c-.201-.117-.401-.176-.602-.176-.18 0-.341.054-.484.163q-.2145.159-.306.444c-.092.29-.137.607-.137.952v2.52zM205.027 13.922l.85.104c-.134.492-.382.875-.745 1.146-.362.272-.825.408-1.388.408q-1.0635 0-1.689-.648c-.414-.435-.621-1.044-.621-1.826 0-.81.21-1.438.63-1.886.42-.447.965-.67 1.635-.67.648 0 1.178.219 1.589.657.41.438.616 1.054.616 1.849 0 .048-.002.121-.005.218h-3.616c.03.528.181.933.452 1.214s.609.422 1.014.422c.301 0 .558-.079.771-.236s.382-.408.507-.752m-2.698-1.319h2.707c-.036-.405-.14-.709-.31-.911-.262-.314-.601-.472-1.018-.472-.378 0-.696.126-.954.377-.256.25-.398.586-.425 1.006M206.913 15.472v-4.814h.74v.685c.356-.529.87-.793 1.543-.793.292 0 .56.053.803.158.247.103.431.239.553.408s.207.37.256.603c.03.151.045.415.045.793v2.96h-.822v-2.928c0-.333-.032-.58-.095-.743-.064-.167-.179-.298-.343-.395-.161-.099-.351-.149-.571-.149-.35 0-.653.11-.908.331-.253.22-.379.639-.379 1.255v2.629zM213.912 14.742l.119.721q-.3465.072-.621.072c-.298 0-.53-.047-.694-.14-.164-.094-.28-.216-.347-.368-.067-.154-.1-.475-.1-.965v-2.769h-.603v-.635h.603V9.467l.817-.49v1.681h.826v.635h-.826v2.814c0 .233.014.383.041.449.031.067.078.119.142.159.066.039.161.059.283.059.091 0 .211-.011.36-.032M220.469 13.709l.808.104c-.089.553-.315.986-.681 1.301-.362.311-.808.466-1.337.466-.664 0-1.198-.214-1.603-.643q-.603-.648-.603-1.854c0-.52.087-.974.261-1.364.173-.39.436-.681.79-.875.356-.196.742-.294 1.159-.294.527 0 .958.133 1.292.399.335.262.55.637.644 1.124l-.799.122c-.076-.323-.211-.567-.406-.73-.192-.163-.425-.245-.699-.245-.414 0-.75.149-1.009.445-.259.293-.388.758-.388 1.396 0 .646.125 1.116.374 1.409.25.293.576.44.978.44.322 0 .592-.099.808-.295s.353-.499.411-.906M221.674 13.065c0-.891.25-1.551.749-1.98.417-.357.925-.535 1.525-.535.666 0 1.211.217 1.634.652.423.432.635 1.031.635 1.795 0 .619-.095 1.107-.283 1.464-.186.353-.458.628-.817.825-.357.196-.746.294-1.169.294-.679 0-1.228-.216-1.649-.648-.417-.432-.625-1.054-.625-1.867m.845 0c0 .616.135 1.079.406 1.387.271.305.612.458 1.023.458.408 0 .747-.154 1.018-.463.271-.308.406-.778.406-1.409 0-.595-.137-1.046-.411-1.351-.271-.308-.608-.462-1.013-.462-.411 0-.752.153-1.023.458s-.406.766-.406 1.382M227.167 8.828h.822v6.644h-.822zM228.961 13.065c0-.891.249-1.551.749-1.98.417-.357.925-.535 1.525-.535.666 0 1.211.217 1.634.652.423.432.635 1.031.635 1.795 0 .619-.095 1.107-.283 1.464-.186.353-.458.628-.818.825-.356.196-.745.294-1.168.294-.679 0-1.229-.216-1.649-.648-.417-.432-.625-1.054-.625-1.867m.845 0c0 .616.135 1.079.406 1.387.271.305.612.458 1.023.458.407 0 .747-.154 1.018-.463.271-.308.406-.778.406-1.409 0-.595-.137-1.046-.411-1.351-.271-.308-.609-.462-1.013-.462-.411 0-.752.153-1.023.458s-.406.766-.406 1.382M234.463 15.472v-4.814h.739v.73c.189-.341.362-.566.521-.675.161-.109.338-.163.529-.163.277 0 .559.087.845.263l-.283.756c-.201-.117-.402-.176-.603-.176-.179 0-.341.054-.484.163q-.2145.159-.306.444c-.091.29-.137.607-.137.952v2.52zM5.649 48.085l-1.484-4.813h.849l.772 2.778.287 1.033c.013-.051.096-.382.252-.992l.771-2.819h.845l.726 2.792.242.92.278-.929.831-2.783h.799l-1.516 4.813h-.853l-.772-2.882-.187-.821-.982 3.703zM11.511 48.085v-6.644h.822v2.384c.384-.441.868-.662 1.452-.662q.5385 0 .936.213c.265.139.453.332.566.58.116.248.174.607.174 1.079v3.05h-.822v-3.05q0-.612-.27-.888c-.176-.188-.427-.281-.753-.281-.243 0-.473.063-.689.19-.213.124-.366.293-.457.507-.091.215-.137.511-.137.889v2.633zM16.721 42.379v-.938h.822v.938zm0 5.706v-4.813h.822v4.813zM21.962 46.322l.808.104c-.088.553-.315.987-.68 1.301-.362.311-.808.467-1.338.467-.663 0-1.197-.215-1.602-.644-.402-.432-.603-1.05-.603-1.853 0-.52.087-.975.26-1.365.174-.389.437-.681.79-.874.356-.197.743-.295 1.16-.295.526 0 .957.133 1.292.399.335.263.549.637.644 1.124l-.799.122c-.076-.323-.212-.566-.407-.729-.191-.164-.424-.245-.698-.245-.414 0-.75.148-1.009.444-.259.293-.388.758-.388 1.396 0 .646.124 1.116.374 1.409s.575.44.977.44c.323 0 .592-.098.808-.295q.324-.294.411-.906M23.473 48.085v-6.644h.822v2.384c.384-.441.868-.662 1.452-.662q.5385 0 .936.213c.265.139.454.332.566.58.116.248.174.607.174 1.079v3.05h-.822v-3.05c0-.408-.09-.704-.269-.888-.177-.188-.428-.281-.754-.281-.243 0-.473.063-.689.19-.213.124-.365.293-.457.507-.091.215-.137.511-.137.889v2.633zM31.272 48.085v-6.644h.822v2.384c.383-.441.867-.662 1.451-.662q.54 0 .936.213c.265.139.454.332.567.58.115.248.173.607.173 1.079v3.05h-.822v-3.05c0-.408-.09-.704-.269-.888-.177-.188-.428-.281-.753-.281-.244 0-.474.063-.69.19q-.3195.186-.456.507c-.092.215-.137.511-.137.889v2.633zM39.641 47.491c-.305.257-.598.438-.882.544-.28.106-.581.159-.904.159-.532 0-.942-.129-1.228-.385q-.429-.39-.429-.993c0-.236.053-.45.16-.644.109-.196.251-.353.425-.471.176-.118.374-.207.593-.267.161-.043.405-.083.731-.123.663-.078 1.152-.172 1.465-.281.003-.111.005-.182.005-.213 0-.332-.078-.566-.233-.702-.21-.184-.522-.277-.936-.277q-.5805 0-.858.204c-.183.133-.318.371-.407.712l-.803-.109q.1095-.5115.36-.825c.168-.211.41-.373.726-.485.317-.114.684-.172 1.101-.172.414 0 .75.049 1.009.145.258.097.449.219.57.367.122.145.207.33.256.553.028.139.041.39.041.753v1.087c0 .759.017 1.239.05 1.442.037.199.107.391.21.575h-.858c-.085-.169-.14-.367-.164-.594m-.069-1.822c-.298.121-.746.224-1.342.309-.338.048-.577.102-.717.163q-.21.09-.324.267c-.076.115-.114.243-.114.385 0 .218.082.399.246.544.168.145.411.218.731.218.316 0 .598-.068.844-.204.247-.139.428-.328.544-.567q.132-.276.132-.816zM41.353 46.648l.813-.127c.045.324.171.571.378.744.21.172.503.258.877.258.378 0 .658-.076.84-.227.183-.154.274-.334.274-.539 0-.184-.081-.329-.242-.435-.112-.073-.393-.165-.84-.277-.603-.151-1.021-.281-1.256-.389-.231-.112-.407-.265-.529-.458-.119-.196-.178-.412-.178-.648 0-.215.048-.413.146-.594.1-.184.236-.337.406-.458.128-.093.302-.172.521-.235.222-.067.459-.1.712-.1.38 0 .714.054 1 .163q.4335.1635.639.444c.137.185.231.432.283.744l-.803.108c-.037-.247-.143-.441-.32-.58-.174-.139-.42-.208-.74-.208-.377 0-.646.062-.808.186-.161.123-.242.268-.242.435 0 .105.034.201.101.285.067.088.172.16.315.218.082.03.324.099.726.208.581.154.986.281 1.214.381.231.097.413.239.543.426.131.187.197.42.197.698 0 .272-.081.529-.242.77-.159.239-.388.425-.69.558-.301.13-.642.195-1.022.195q-.945 0-1.443-.39c-.329-.26-.539-.645-.63-1.156M48.941 48.085v-4.813h.74v.73c.188-.342.362-.567.52-.676.161-.109.338-.163.53-.163.277 0 .558.088.844.263l-.283.757c-.201-.118-.401-.177-.602-.177-.18 0-.341.054-.484.163q-.2145.159-.306.444c-.091.29-.137.608-.137.952v2.52zM55.392 46.535l.85.104c-.134.493-.382.875-.745 1.147-.362.272-.824.408-1.388.408q-1.0635 0-1.689-.648-.621-.6525-.621-1.827c0-.81.21-1.438.63-1.885s.965-.671 1.635-.671c.648 0 1.178.219 1.589.657s.616 1.055.616 1.849c0 .049-.002.121-.005.218h-3.616c.031.529.181.933.452 1.214s.609.422 1.014.422c.301 0 .558-.079.772-.236.213-.157.382-.408.506-.752m-2.698-1.319h2.708c-.037-.405-.14-.708-.311-.911-.262-.314-.601-.471-1.018-.471-.378 0-.696.125-.954.376-.256.251-.398.586-.425 1.006M60.442 46.322l.808.104c-.088.553-.315.987-.68 1.301-.362.311-.808.467-1.338.467-.663 0-1.198-.215-1.602-.644-.402-.432-.603-1.05-.603-1.853 0-.52.087-.975.26-1.365.174-.389.437-.681.79-.874.356-.197.743-.295 1.16-.295.526 0 .957.133 1.292.399.335.263.549.637.644 1.124l-.799.122c-.076-.323-.212-.566-.407-.729-.192-.164-.424-.245-.698-.245-.414 0-.751.148-1.009.444-.259.293-.388.758-.388 1.396 0 .646.124 1.116.374 1.409s.575.44.977.44c.323 0 .592-.098.808-.295q.324-.294.411-.906M65.273 46.535l.849.104c-.134.493-.382.875-.744 1.147-.363.272-.825.408-1.388.408-.71 0-1.273-.216-1.69-.648q-.621-.6525-.621-1.827c0-.81.21-1.438.63-1.885.421-.447.965-.671 1.635-.671.648 0 1.178.219 1.589.657s.616 1.055.616 1.849c0 .049-.001.121-.004.218h-3.616c.03.529.181.933.452 1.214.27.281.608.422 1.013.422.301 0 .559-.079.772-.236s.382-.408.507-.752m-2.699-1.319h2.708c-.037-.405-.14-.708-.311-.911-.261-.314-.601-.471-1.018-.471-.377 0-.695.125-.954.376-.256.251-.397.586-.425 1.006M67.163 42.379v-.938h.822v.938zm0 5.706v-4.813h.822v4.813zM70.587 48.085l-1.844-4.813h.867l1.041 2.882c.113.311.216.635.311.97.073-.254.175-.559.305-.915l1.078-2.937h.845l-1.836 4.813zM77.235 46.535l.849.104c-.134.493-.382.875-.744 1.147s-.825.408-1.388.408q-1.0635 0-1.689-.648-.621-.6525-.621-1.827c0-.81.21-1.438.63-1.885s.965-.671 1.634-.671c.649 0 1.178.219 1.589.657s.616 1.055.616 1.849c0 .049-.001.121-.004.218h-3.616c.03.529.181.933.452 1.214s.609.422 1.013.422c.302 0 .559-.079.772-.236s.382-.408.507-.752m-2.699-1.319h2.708c-.037-.405-.14-.708-.311-.911-.261-.314-.601-.471-1.018-.471-.377 0-.695.125-.954.376-.256.251-.397.586-.425 1.006M82.266 48.085v-.607c-.307.477-.759.716-1.356.716q-.579 0-1.068-.318c-.323-.211-.574-.506-.754-.883-.176-.381-.264-.818-.264-1.31 0-.48.08-.916.242-1.305.161-.393.403-.694.726-.902.322-.209.683-.313 1.082-.313q.438 0 .78.186c.229.121.414.279.557.476v-2.384h.818v6.644zm-2.598-2.402c0 .616.131 1.077.393 1.382s.571.458.927.458c.359 0 .663-.145.913-.435.253-.293.379-.739.379-1.337 0-.659-.128-1.142-.384-1.45-.255-.309-.57-.463-.945-.463-.365 0-.671.148-.917.444-.244.297-.366.763-.366 1.401M86.923 48.085v-6.644h.822v3.789l1.945-1.958h1.064L88.9 45.057l2.041 3.028h-1.013l-1.603-2.461-.58.553v1.908zM94.913 46.535l.849.104c-.133.493-.382.875-.744 1.147s-.825.408-1.388.408q-1.0635 0-1.689-.648-.621-.6525-.621-1.827c0-.81.21-1.438.63-1.885s.965-.671 1.635-.671c.648 0 1.178.219 1.589.657.41.438.616 1.055.616 1.849 0 .049-.002.121-.005.218h-3.616c.031.529.181.933.452 1.214s.609.422 1.014.422c.301 0 .558-.079.771-.236s.382-.408.507-.752m-2.698-1.319h2.707c-.036-.405-.14-.708-.31-.911-.262-.314-.601-.471-1.018-.471-.378 0-.696.125-.954.376-.256.251-.398.586-.425 1.006M96.762 49.939l-.091-.766c.18.048.336.072.47.072.183 0 .329-.03.439-.09.109-.061.199-.145.269-.254.052-.082.135-.284.251-.608.015-.045.04-.111.073-.199l-1.84-4.822h.886l1.009 2.787c.131.354.248.725.352 1.115.094-.375.207-.74.337-1.097l1.037-2.805h.822l-1.845 4.895c-.198.528-.351.892-.461 1.092-.146.269-.314.465-.502.589-.189.127-.414.19-.676.19-.158 0-.335-.033-.53-.099M102.232 48.085h-.762v-6.644h.821v2.37q.5205-.648 1.329-.648c.298 0 .58.06.845.181.268.118.487.286.657.503.174.215.309.475.407.78.097.305.146.631.146.979 0 .825-.206 1.462-.617 1.912-.411.451-.904.676-1.479.676-.572 0-1.021-.237-1.347-.712zm-.009-2.443q0 .8655.237 1.251c.259.42.609.63 1.051.63.359 0 .669-.154.931-.462.262-.312.393-.774.393-1.387 0-.629-.127-1.092-.379-1.392-.25-.299-.553-.448-.909-.448-.359 0-.67.155-.931.467q-.393.462-.393 1.341M106.373 45.678c0-.891.25-1.551.749-1.98.417-.357.925-.535 1.525-.535.667 0 1.211.218 1.634.653.424.432.635 1.03.635 1.794 0 .62-.094 1.108-.283 1.464-.186.354-.458.629-.817.825-.356.197-.746.295-1.169.295-.679 0-1.228-.216-1.648-.648-.417-.432-.626-1.055-.626-1.868m.845 0c0 .617.135 1.079.406 1.387.271.305.612.458 1.023.458.408 0 .747-.154 1.018-.462.271-.309.406-.778.406-1.41 0-.595-.137-1.045-.41-1.35-.271-.309-.609-.463-1.014-.463-.411 0-.752.153-1.023.458s-.406.766-.406 1.382M115.048 47.491c-.304.257-.598.438-.881.544-.28.106-.581.159-.904.159-.533 0-.942-.129-1.228-.385q-.429-.39-.429-.993c0-.236.053-.45.159-.644.11-.196.251-.353.425-.471.176-.118.374-.207.593-.267.162-.043.405-.083.731-.123.664-.078 1.152-.172 1.466-.281.003-.111.004-.182.004-.213 0-.332-.077-.566-.233-.702-.21-.184-.522-.277-.936-.277q-.579 0-.858.204c-.183.133-.318.371-.406.712l-.804-.109c.073-.341.193-.616.361-.825.167-.211.409-.373.726-.485.316-.114.683-.172 1.1-.172.414 0 .75.049 1.009.145.259.097.449.219.571.367.122.145.207.33.256.553.027.139.041.39.041.753v1.087c0 .759.016 1.239.05 1.442.036.199.106.391.21.575h-.858c-.086-.169-.14-.367-.165-.594m-.068-1.822c-.299.121-.746.224-1.343.309-.338.048-.577.102-.717.163q-.21.09-.324.267c-.076.115-.114.243-.114.385 0 .218.082.399.247.544.167.145.411.218.73.218.317 0 .598-.068.845-.204.246-.139.428-.328.543-.567.088-.184.133-.456.133-.816zM117.08 48.085v-4.813h.739v.73c.189-.342.363-.567.521-.676.161-.109.338-.163.53-.163.277 0 .558.088.844.263l-.283.757c-.201-.118-.402-.177-.602-.177-.18 0-.341.054-.484.163-.144.106-.245.254-.306.444-.092.29-.137.608-.137.952v2.52zM123.358 48.085v-.607c-.308.477-.76.716-1.356.716-.387 0-.743-.106-1.069-.318-.322-.211-.573-.506-.753-.883-.177-.381-.265-.818-.265-1.31 0-.48.081-.916.242-1.305.161-.393.403-.694.726-.902.323-.209.683-.313 1.082-.313.292 0 .553.062.781.186.228.121.414.279.557.476v-2.384h.817v6.644zm-2.598-2.402c0 .616.131 1.077.392 1.382.262.305.571.458.927.458.359 0 .664-.145.913-.435.253-.293.379-.739.379-1.337 0-.659-.127-1.142-.383-1.45-.256-.309-.571-.463-.945-.463q-.5475 0-.918.444c-.243.297-.365.763-.365 1.401M128.206 48.085v-4.179h-.725v-.634h.725v-.512c0-.324.029-.564.087-.721.079-.211.218-.382.416-.512.201-.133.481-.199.84-.199.231 0 .487.027.767.081l-.123.712c-.171-.031-.332-.046-.484-.046-.25 0-.426.053-.53.159-.103.106-.155.304-.155.594v.444h.945v.634h-.945v4.179zM130.298 45.678c0-.891.249-1.551.748-1.98.417-.357.926-.535 1.525-.535.667 0 1.212.218 1.635.653.423.432.634 1.03.634 1.794 0 .62-.094 1.108-.283 1.464-.185.354-.458.629-.817.825-.356.197-.746.295-1.169.295-.678 0-1.228-.216-1.648-.648-.417-.432-.625-1.055-.625-1.868m.844 0c0 .617.136 1.079.407 1.387.271.305.611.458 1.022.458.408 0 .748-.154 1.018-.462.271-.309.407-.778.407-1.41q0-.8925-.411-1.35c-.271-.309-.609-.463-1.014-.463-.411 0-.751.153-1.022.458s-.407.766-.407 1.382M138.972 46.322l.809.104c-.089.553-.315.987-.681 1.301-.362.311-.808.467-1.337.467-.664 0-1.198-.215-1.603-.644-.402-.432-.603-1.05-.603-1.853q0-.78.261-1.365c.173-.389.436-.681.789-.874.357-.197.743-.295 1.16-.295.527 0 .957.133 1.292.399.335.263.55.637.644 1.124l-.799.122c-.076-.323-.212-.566-.406-.729-.192-.164-.425-.245-.699-.245-.414 0-.75.148-1.009.444-.259.293-.388.758-.388 1.396 0 .646.125 1.116.374 1.409.25.293.576.44.977.44.323 0 .592-.098.809-.295.216-.196.353-.498.41-.906M143.661 48.085v-.707c-.377.544-.89.816-1.538.816-.286 0-.554-.055-.804-.163q-.369-.1635-.552-.408c-.119-.166-.203-.369-.251-.608-.034-.16-.051-.414-.051-.761v-2.982h.822v2.669q0 .639.051.861c.051.215.161.384.328.508.168.121.375.181.621.181.247 0 .478-.062.694-.186.216-.126.368-.297.457-.512.091-.217.137-.531.137-.942v-2.579h.822v4.813zM145.36 46.648l.813-.127c.045.324.172.571.379.744q.315.258.876.258c.378 0 .658-.076.84-.227.183-.154.274-.334.274-.539 0-.184-.08-.329-.242-.435-.112-.073-.392-.165-.84-.277-.603-.151-1.021-.281-1.255-.389-.232-.112-.408-.265-.53-.458-.119-.196-.178-.412-.178-.648 0-.215.049-.413.146-.594.1-.184.236-.337.406-.458.128-.093.302-.172.521-.235.222-.067.459-.1.712-.1.381 0 .714.054 1 .163q.4335.1635.639.444c.137.185.231.432.283.744l-.803.108c-.037-.247-.143-.441-.32-.58-.173-.139-.42-.208-.74-.208-.377 0-.646.062-.808.186-.161.123-.242.268-.242.435 0 .105.034.201.101.285.067.088.172.16.315.218.082.03.324.099.726.208.581.154.986.281 1.214.381.231.097.413.239.543.426.131.187.197.42.197.698 0 .272-.081.529-.242.77q-.237.3585-.69.558c-.301.13-.642.195-1.022.195q-.945 0-1.443-.39c-.329-.26-.539-.645-.63-1.156M6.562 35.032v-5.86H4.357v-.784h5.305v.784H7.448v5.86zM10.47 35.032v-6.644h.822v2.384c.384-.441.868-.661 1.452-.661q.5385 0 .936.213c.265.139.454.332.566.58.116.247.174.607.174 1.078v3.05h-.822v-3.05q0-.612-.27-.888c-.176-.187-.427-.281-.753-.281-.243 0-.473.064-.689.19-.213.124-.366.293-.457.508s-.137.511-.137.888v2.633zM15.68 29.327v-.939h.822v.939zm0 5.705v-4.813h.822v4.813zM17.428 33.596l.813-.127c.046.323.172.571.379.743.21.172.502.258.877.258.377 0 .657-.075.84-.226.182-.154.274-.334.274-.539 0-.185-.081-.33-.242-.436q-.1695-.108-.84-.276c-.603-.151-1.022-.281-1.256-.39-.231-.112-.408-.264-.53-.458-.118-.196-.178-.412-.178-.648 0-.214.049-.412.147-.593.1-.185.235-.337.406-.458.128-.094.301-.172.52-.236.223-.066.46-.099.713-.099.38 0 .713.054.999.163.29.108.503.257.64.444.137.184.231.432.283.743l-.804.109c-.036-.248-.143-.441-.319-.58-.174-.139-.42-.209-.74-.209-.377 0-.647.062-.808.186s-.242.269-.242.435c0 .106.033.201.1.286.067.087.172.16.315.217.082.03.324.1.726.209.582.154.986.281 1.215.38q.3465.1455.543.426c.131.188.196.42.196.698 0 .272-.08.529-.242.771-.158.238-.388.424-.689.557q-.4515.195-1.023.195-.945 0-1.443-.39c-.328-.259-.538-.645-.63-1.155M25.03 29.327v-.939h.822v.939zm0 5.705v-4.813h.822v4.813zM26.779 33.596l.813-.127c.045.323.172.571.379.743q.315.258.876.258c.378 0 .658-.075.84-.226.183-.154.274-.334.274-.539 0-.185-.08-.33-.242-.436q-.168-.108-.84-.276c-.602-.151-1.021-.281-1.255-.39-.232-.112-.408-.264-.53-.458-.119-.196-.178-.412-.178-.648 0-.214.049-.412.146-.593.101-.185.236-.337.406-.458.128-.094.302-.172.521-.236.222-.066.46-.099.712-.099.381 0 .714.054 1 .163.289.108.502.257.639.444.137.184.232.432.283.743l-.803.109c-.037-.248-.143-.441-.32-.58-.173-.139-.42-.209-.739-.209-.378 0-.647.062-.809.186-.161.124-.242.269-.242.435 0 .106.034.201.101.286.067.087.172.16.315.217.082.03.324.1.726.209.581.154.986.281 1.214.38.232.097.413.239.544.426.131.188.196.42.196.698 0 .272-.081.529-.242.771-.158.238-.388.424-.689.557q-.453.195-1.023.195-.945 0-1.443-.39c-.329-.259-.539-.645-.63-1.155M37.54 34.439c-.304.257-.598.438-.881.544-.28.105-.581.158-.904.158-.532 0-.942-.128-1.228-.385-.286-.26-.429-.591-.429-.992 0-.236.053-.451.16-.644.109-.196.251-.354.424-.471.177-.118.375-.207.594-.268.161-.042.405-.083.73-.122.664-.079 1.152-.172 1.466-.281.003-.112.005-.183.005-.213 0-.332-.078-.567-.233-.703q-.315-.276-.936-.276c-.387 0-.673.068-.859.204-.182.133-.318.37-.406.711l-.804-.108c.074-.342.194-.617.361-.825.168-.212.41-.373.726-.485.317-.115.683-.172 1.1-.172.414 0 .751.048 1.009.145.259.096.449.219.571.367.122.145.207.329.256.553.027.139.041.389.041.752v1.088c0 .758.017 1.238.05 1.441.037.199.107.391.21.575h-.858c-.085-.169-.14-.367-.164-.593zm-.068-1.822c-.298.121-.746.223-1.342.308-.338.048-.577.103-.717.163-.14.061-.248.15-.324.268-.076.114-.114.243-.114.385 0 .217.082.399.246.544.167.145.411.217.731.217.316 0 .598-.068.844-.204.247-.139.428-.328.544-.566q.132-.2775.132-.816zM42.933 35.032h-.763v-6.644h.822v2.371q.5205-.648 1.329-.648c.298 0 .579.06.844.181.268.118.487.285.658.503.173.214.309.474.406.779.097.306.146.632.146.979 0 .825-.205 1.463-.616 1.913s-.904.675-1.48.675c-.572 0-1.021-.237-1.346-.711zm-.01-2.442c0 .577.08.994.238 1.251.259.419.609.629 1.05.629.359 0 .67-.154.931-.462.262-.311.393-.773.393-1.387 0-.628-.126-1.092-.379-1.391-.25-.299-.552-.449-.909-.449-.359 0-.669.156-.931.467-.262.308-.393.755-.393 1.342M47.361 28.388h.822v6.644h-.822zM49.156 32.626c0-.891.249-1.552.748-1.981.417-.356.926-.534 1.525-.534.667 0 1.212.217 1.635.652.423.432.635 1.031.635 1.795 0 .619-.095 1.107-.284 1.464-.185.353-.458.628-.817.825-.356.196-.746.294-1.169.294-.678 0-1.228-.216-1.648-.648-.417-.432-.625-1.054-.625-1.867m.844 0c0 .616.136 1.079.407 1.387.271.305.611.457 1.022.457.408 0 .748-.154 1.019-.462.27-.308.406-.778.406-1.409 0-.596-.137-1.046-.411-1.351q-.4065-.462-1.014-.462c-.411 0-.751.152-1.022.458-.271.305-.407.766-.407 1.382M57.83 33.269l.809.105c-.089.553-.315.986-.681 1.3-.362.312-.808.467-1.337.467-.664 0-1.198-.214-1.603-.643q-.603-.648-.603-1.854c0-.52.087-.974.261-1.364.173-.39.436-.681.789-.875.357-.196.743-.294 1.16-.294.527 0 .957.133 1.292.398.335.263.55.638.644 1.124l-.799.123c-.076-.324-.212-.567-.406-.73-.192-.163-.425-.245-.699-.245-.414 0-.75.148-1.009.444-.259.294-.388.759-.388 1.396 0 .647.125 1.117.374 1.41.25.293.576.439.977.439.323 0 .592-.098.809-.294.216-.197.353-.499.41-.907M59.346 35.032v-6.644h.822v3.789l1.945-1.958h1.064l-1.854 1.786 2.041 3.027h-1.013l-1.603-2.46-.58.552v1.908zM66.304 32.626c0-.891.25-1.552.749-1.981.417-.356.926-.534 1.525-.534.667 0 1.212.217 1.635.652.423.432.634 1.031.634 1.795 0 .619-.094 1.107-.283 1.464-.185.353-.458.628-.817.825-.356.196-.746.294-1.169.294-.679 0-1.228-.216-1.648-.648-.417-.432-.626-1.054-.626-1.867m.845 0c0 .616.136 1.079.406 1.387.271.305.612.457 1.023.457.408 0 .747-.154 1.018-.462s.407-.778.407-1.409c0-.596-.137-1.046-.411-1.351q-.4065-.462-1.014-.462c-.411 0-.752.152-1.023.458-.27.305-.406.766-.406 1.382M72.012 35.032v-4.178h-.726v-.635h.726v-.512c0-.323.029-.563.086-.72.08-.212.218-.383.416-.513.201-.132.481-.199.84-.199.231 0 .487.027.767.082l-.123.711c-.171-.03-.332-.045-.484-.045-.25 0-.426.053-.53.158-.103.106-.155.304-.155.594v.444h.945v.635h-.945v4.178zM78.796 34.303l.119.72c-.231.049-.438.073-.621.073-.298 0-.53-.047-.694-.141-.164-.093-.28-.216-.347-.367-.067-.154-.1-.476-.1-.965v-2.769h-.603v-.635h.603v-1.192l.817-.489v1.681h.826v.635h-.826v2.814c0 .233.014.383.041.449.03.066.078.119.142.159.066.039.161.059.283.059.091 0 .211-.011.36-.032M82.915 33.482l.849.105q-.201.738-.744 1.146c-.363.272-.825.408-1.388.408-.71 0-1.273-.216-1.69-.648-.414-.435-.621-1.044-.621-1.826 0-.81.21-1.438.63-1.886.42-.447.965-.67 1.635-.67.648 0 1.178.219 1.589.657s.616 1.054.616 1.849c0 .048-.001.121-.004.217H80.17c.031.529.182.934.452 1.215.271.281.609.421 1.014.421.301 0 .559-.078.772-.235s.382-.408.506-.753zm-2.699-1.318h2.708c-.037-.405-.14-.709-.311-.911-.262-.315-.601-.472-1.018-.472-.377 0-.695.126-.954.376-.256.251-.397.587-.425 1.007M84.252 35.032l1.772-2.501-1.639-2.312h1.027l.744 1.129c.14.214.253.394.338.539.134-.199.257-.376.37-.53l.817-1.138h.982l-1.676 2.266 1.804 2.547h-1.009l-.996-1.495-.265-.404-1.273 1.899zM91.27 34.303l.119.72c-.232.049-.439.073-.621.073-.299 0-.53-.047-.694-.141-.165-.093-.28-.216-.347-.367-.067-.154-.101-.476-.101-.965v-2.769h-.603v-.635h.603v-1.192l.817-.489v1.681h.827v.635h-.827v2.814c0 .233.014.383.042.449q.045.099.141.159c.067.039.161.059.283.059.091 0 .212-.011.361-.032" style="fill-rule:nonzero"/>
  <path d="m97.826 33.269.808.105c-.088.553-.315.986-.68 1.3-.362.312-.808.467-1.338.467-.663 0-1.197-.214-1.602-.643q-.603-.648-.603-1.854c0-.52.087-.974.26-1.364.174-.39.437-.681.79-.875.356-.196.743-.294 1.16-.294.526 0 .957.133 1.292.398.335.263.549.638.644 1.124l-.799.123c-.076-.324-.212-.567-.407-.73-.191-.163-.424-.245-.698-.245-.414 0-.75.148-1.009.444-.259.294-.388.759-.388 1.396 0 .647.124 1.117.374 1.41s.575.439.977.439c.323 0 .592-.098.808-.294.216-.197.353-.499.411-.907M99.032 32.626c0-.891.249-1.552.748-1.981.417-.356.926-.534 1.525-.534.667 0 1.212.217 1.635.652.423.432.634 1.031.634 1.795 0 .619-.094 1.107-.283 1.464-.185.353-.458.628-.817.825-.356.196-.746.294-1.169.294-.678 0-1.228-.216-1.648-.648-.417-.432-.625-1.054-.625-1.867m.844 0c0 .616.136 1.079.407 1.387.27.305.611.457 1.022.457.408 0 .748-.154 1.018-.462.271-.308.407-.778.407-1.409 0-.596-.137-1.046-.411-1.351q-.4065-.462-1.014-.462c-.411 0-.752.152-1.022.458-.271.305-.407.766-.407 1.382M104.542 35.032v-4.813h.74v.685c.356-.529.871-.793 1.543-.793.292 0 .56.052.804.158q.369.1545.552.408c.122.169.207.37.256.603.03.151.046.415.046.793v2.96h-.822v-2.928c0-.333-.032-.58-.096-.744-.064-.166-.178-.297-.343-.394-.161-.099-.351-.149-.57-.149-.35 0-.653.11-.909.331-.252.22-.379.639-.379 1.255v2.629zM111.542 34.303l.118.72c-.231.049-.438.073-.621.073-.298 0-.529-.047-.694-.141-.164-.093-.28-.216-.347-.367-.067-.154-.1-.476-.1-.965v-2.769h-.603v-.635h.603v-1.192l.817-.489v1.681h.827v.635h-.827v2.814c0 .233.014.383.041.449.031.066.078.119.142.159.067.039.161.059.283.059.091 0 .211-.011.361-.032M115.505 34.439c-.305.257-.598.438-.882.544-.28.105-.581.158-.904.158-.532 0-.942-.128-1.228-.385-.286-.26-.429-.591-.429-.992 0-.236.053-.451.16-.644.109-.196.251-.354.425-.471.176-.118.374-.207.593-.268.161-.042.405-.083.731-.122.663-.079 1.152-.172 1.465-.281.003-.112.005-.183.005-.213 0-.332-.078-.567-.233-.703q-.315-.276-.936-.276-.5805 0-.858.204c-.183.133-.318.37-.407.711l-.803-.108q.1095-.513.36-.825c.168-.212.41-.373.726-.485.317-.115.684-.172 1.101-.172.414 0 .75.048 1.009.145.258.096.449.219.57.367.122.145.207.329.256.553.028.139.041.389.041.752v1.088c0 .758.017 1.238.05 1.441.037.199.107.391.21.575h-.858c-.085-.169-.14-.367-.164-.593m-.069-1.822c-.298.121-.746.223-1.342.308-.338.048-.577.103-.717.163-.14.061-.248.15-.324.268-.076.114-.114.243-.114.385 0 .217.082.399.246.544.168.145.411.217.731.217.316 0 .598-.068.844-.204.247-.139.428-.328.544-.566q.132-.2775.132-.816zM117.55 29.327v-.939h.822v.939zm0 5.705v-4.813h.822v4.813zM119.628 35.032v-4.813h.739v.685c.356-.529.871-.793 1.543-.793.293 0 .56.052.804.158.246.103.431.239.552.408.122.169.207.37.256.603.03.151.046.415.046.793v2.96h-.822v-2.928c0-.333-.032-.58-.096-.744-.064-.166-.178-.297-.342-.394-.162-.099-.352-.149-.571-.149-.35 0-.653.11-.909.331-.252.22-.379.639-.379 1.255v2.629zM124.837 29.327v-.939h.822v.939zm0 5.705v-4.813h.822v4.813zM126.914 35.032v-4.813h.74v.685c.356-.529.871-.793 1.543-.793.292 0 .56.052.804.158.246.103.431.239.552.408.122.169.207.37.256.603.03.151.046.415.046.793v2.96h-.822v-2.928c0-.333-.032-.58-.096-.744-.064-.166-.178-.297-.343-.394-.161-.099-.351-.149-.57-.149-.35 0-.653.11-.909.331-.252.22-.379.639-.379 1.255v2.629zM131.969 35.431l.799.118c.033.245.126.423.278.535.204.151.483.227.836.227.38 0 .674-.076.881-.227s.347-.363.42-.635c.043-.166.062-.515.059-1.046-.359.42-.806.63-1.342.63q-1.0005 0-1.548-.717c-.365-.477-.548-1.049-.548-1.717 0-.459.084-.882.251-1.269.168-.39.41-.691.726-.902.32-.212.694-.317 1.123-.317.573 0 1.044.229 1.416.689v-.581h.758v4.161c0 .749-.078 1.279-.233 1.591-.152.314-.396.562-.731.743-.331.181-.741.272-1.228.272q-.867 0-1.401-.39c-.357-.257-.529-.645-.516-1.165m.68-2.891c0 .631.126 1.092.379 1.382s.569.435.95.435c.377 0 .694-.143.949-.43.256-.29.384-.744.384-1.36 0-.589-.133-1.033-.397-1.332-.262-.3-.579-.449-.95-.449-.365 0-.676.148-.932.444-.255.293-.383.73-.383 1.31M143.082 34.439c-.305.257-.599.438-.882.544-.28.105-.581.158-.904.158-.532 0-.942-.128-1.228-.385-.286-.26-.429-.591-.429-.992 0-.236.053-.451.16-.644.109-.196.251-.354.425-.471.176-.118.374-.207.593-.268.161-.042.405-.083.731-.122.663-.079 1.152-.172 1.465-.281.003-.112.005-.183.005-.213 0-.332-.077-.567-.233-.703q-.315-.276-.936-.276-.579 0-.858.204c-.183.133-.318.37-.406.711l-.804-.108c.073-.342.193-.617.361-.825.167-.212.409-.373.726-.485.316-.115.683-.172 1.1-.172.414 0 .75.048 1.009.145.259.096.449.219.571.367.122.145.207.329.255.553.028.139.042.389.042.752v1.088c0 .758.016 1.238.05 1.441.036.199.106.391.21.575h-.859c-.085-.169-.14-.367-.164-.593m-.069-1.822c-.298.121-.746.223-1.342.308-.338.048-.577.103-.717.163-.14.061-.248.15-.324.268-.076.114-.114.243-.114.385 0 .217.082.399.246.544.168.145.411.217.731.217.316 0 .598-.068.844-.204.247-.139.428-.328.544-.566q.132-.2775.132-.816zM147.698 28.388h.822v6.644h-.822zM149.802 29.327v-.939h.822v.939zm0 5.705v-4.813h.822v4.813zM151.88 35.032v-4.813h.739v.685c.357-.529.871-.793 1.544-.793.292 0 .56.052.803.158.247.103.431.239.553.408.121.169.207.37.255.603.031.151.046.415.046.793v2.96h-.822v-2.928c0-.333-.032-.58-.096-.744-.064-.166-.178-.297-.342-.394-.161-.099-.352-.149-.571-.149-.35 0-.653.11-.908.331-.253.22-.379.639-.379 1.255v2.629zM157.089 35.032v-6.644h.822v3.789l1.945-1.958h1.064l-1.854 1.786 2.041 3.027h-1.014l-1.602-2.46-.58.552v1.908z" style="fill:#0000d4;fill-rule:nonzero"/>
  <path d="M164.358 29.327v-.939h.822v.939zm0 5.705v-4.813h.822v4.813zM166.435 35.032v-4.813h.74v.685c.356-.529.87-.793 1.543-.793.292 0 .56.052.804.158q.369.1545.552.408c.122.169.207.37.256.603.03.151.046.415.046.793v2.96h-.822v-2.928c0-.333-.032-.58-.096-.744-.064-.166-.178-.297-.343-.394-.161-.099-.351-.149-.57-.149-.35 0-.653.11-.909.331-.253.22-.379.639-.379 1.255v2.629zM177.398 34.439c-.305.257-.599.438-.882.544-.28.105-.581.158-.904.158-.532 0-.942-.128-1.228-.385-.286-.26-.429-.591-.429-.992 0-.236.053-.451.16-.644.109-.196.251-.354.424-.471.177-.118.375-.207.594-.268.161-.042.405-.083.731-.122.663-.079 1.152-.172 1.465-.281.003-.112.005-.183.005-.213 0-.332-.078-.567-.233-.703q-.315-.276-.936-.276-.579 0-.858.204c-.183.133-.318.37-.406.711l-.804-.108c.073-.342.193-.617.361-.825.167-.212.409-.373.726-.485.316-.115.683-.172 1.1-.172.414 0 .75.048 1.009.145.259.096.449.219.571.367.121.145.207.329.255.553.028.139.041.389.041.752v1.088c0 .758.017 1.238.051 1.441.036.199.106.391.21.575h-.859c-.085-.169-.14-.367-.164-.593m-.069-1.822c-.298.121-.746.223-1.342.308-.338.048-.577.103-.717.163-.14.061-.248.15-.324.268-.076.114-.114.243-.114.385 0 .217.082.399.246.544.168.145.411.217.731.217.316 0 .598-.068.844-.204.247-.139.428-.328.544-.566q.132-.2775.132-.816zM185.178 35.032v-.607c-.308.478-.76.716-1.356.716-.387 0-.743-.106-1.069-.317-.322-.212-.574-.506-.753-.884-.177-.38-.265-.817-.265-1.31 0-.48.081-.915.242-1.305.161-.393.403-.693.726-.902.323-.208.683-.312 1.082-.312.292 0 .552.062.781.185.228.121.414.28.557.476v-2.384h.817v6.644zm-2.598-2.402c0 .617.131 1.078.392 1.383.262.305.571.457.927.457.359 0 .664-.145.913-.435.253-.293.379-.738.379-1.337 0-.658-.128-1.142-.383-1.45q-.384-.462-.945-.462-.549 0-.918.444c-.244.296-.365.763-.365 1.4M187.241 29.327v-.939h.822v.939zm0 5.705v-4.813h.822v4.813zM189.515 35.032v-4.178h-.726v-.635h.726v-.512q0-.4845.087-.72c.079-.212.217-.383.415-.513.201-.132.481-.199.84-.199.232 0 .487.027.767.082l-.123.711c-.17-.03-.332-.045-.484-.045-.249 0-.426.053-.529.158q-.156.159-.156.594v.444h.945v.635h-.945v4.178z" style="fill-rule:nonzero"/>
  <path d="M191.944 35.032v-4.178h-.726v-.635h.726v-.512q0-.4845.087-.72c.079-.212.217-.383.415-.513.201-.132.481-.199.84-.199.232 0 .487.027.767.082l-.123.711c-.17-.03-.332-.045-.484-.045-.249 0-.426.053-.529.158q-.156.159-.156.594v.444h.945v.635h-.945v4.178zM197.66 33.482l.849.105c-.133.492-.382.874-.744 1.146s-.825.408-1.388.408q-1.0635 0-1.689-.648c-.414-.435-.621-1.044-.621-1.826 0-.81.21-1.438.63-1.886.42-.447.965-.67 1.635-.67.648 0 1.178.219 1.588.657.411.438.617 1.054.617 1.849 0 .048-.002.121-.005.217h-3.616c.03.529.181.934.452 1.215s.609.421 1.013.421c.302 0 .559-.078.772-.235q.3195-.2355.507-.753m-2.698-1.318h2.707c-.036-.405-.14-.709-.31-.911-.262-.315-.601-.472-1.018-.472-.378 0-.696.126-.955.376-.255.251-.397.587-.424 1.007M199.537 35.032v-4.813h.739v.73c.189-.341.363-.566.521-.675.161-.109.338-.163.529-.163.277 0 .559.087.845.262l-.283.757c-.201-.117-.402-.176-.603-.176-.179 0-.341.054-.484.163-.143.106-.245.254-.305.444-.092.29-.137.607-.137.952v2.519zM205.988 33.482l.849.105q-.201.738-.744 1.146c-.362.272-.825.408-1.388.408q-1.0635 0-1.689-.648c-.414-.435-.621-1.044-.621-1.826 0-.81.21-1.438.63-1.886.42-.447.965-.67 1.634-.67.649 0 1.178.219 1.589.657s.617 1.054.617 1.849c0 .048-.002.121-.005.217h-3.616c.03.529.181.934.452 1.215s.608.421 1.013.421c.302 0 .559-.078.772-.235q.3195-.2355.507-.753m-2.698-1.318h2.707c-.036-.405-.14-.709-.31-.911-.262-.315-.601-.472-1.018-.472-.378 0-.696.126-.955.376-.255.251-.397.587-.424 1.007M207.874 35.032v-4.813h.739v.685c.357-.529.871-.793 1.544-.793.292 0 .56.052.803.158.247.103.431.239.553.408.121.169.207.37.255.603.031.151.046.415.046.793v2.96h-.822v-2.928c0-.333-.032-.58-.096-.744-.064-.166-.178-.297-.342-.394-.161-.099-.352-.149-.571-.149-.35 0-.653.11-.908.331-.253.22-.379.639-.379 1.255v2.629zM214.873 34.303l.119.72c-.232.049-.439.073-.621.073-.298 0-.53-.047-.694-.141-.165-.093-.28-.216-.347-.367-.067-.154-.101-.476-.101-.965v-2.769h-.602v-.635h.602v-1.192l.818-.489v1.681h.826v.635h-.826v2.814c0 .233.013.383.041.449q.045.099.141.159c.067.039.162.059.283.059.092 0 .212-.011.361-.032M221.429 33.269l.809.105c-.089.553-.316.986-.681 1.3-.362.312-.808.467-1.338.467-.663 0-1.197-.214-1.602-.643q-.603-.648-.603-1.854c0-.52.087-.974.26-1.364.174-.39.437-.681.79-.875.356-.196.743-.294 1.16-.294.527 0 .957.133 1.292.398.335.263.55.638.644 1.124l-.799.123c-.076-.324-.212-.567-.406-.73-.192-.163-.425-.245-.699-.245-.414 0-.75.148-1.009.444-.259.294-.388.759-.388 1.396 0 .647.125 1.117.374 1.41.25.293.576.439.977.439.323 0 .592-.098.808-.294.217-.197.354-.499.411-.907M222.635 32.626c0-.891.249-1.552.748-1.981.417-.356.926-.534 1.525-.534.667 0 1.212.217 1.635.652.423.432.635 1.031.635 1.795 0 .619-.095 1.107-.283 1.464-.186.353-.459.628-.818.825-.356.196-.745.294-1.169.294-.678 0-1.228-.216-1.648-.648-.417-.432-.625-1.054-.625-1.867m.844 0c0 .616.136 1.079.407 1.387.271.305.612.457 1.022.457.408 0 .748-.154 1.019-.462.27-.308.406-.778.406-1.409 0-.596-.137-1.046-.411-1.351q-.4065-.462-1.014-.462c-.41 0-.751.152-1.022.458-.271.305-.407.766-.407 1.382M228.127 28.388h.822v6.644h-.822zM229.922 32.626c0-.891.249-1.552.748-1.981.417-.356.926-.534 1.525-.534.667 0 1.212.217 1.635.652.423.432.634 1.031.634 1.795 0 .619-.094 1.107-.283 1.464-.185.353-.458.628-.817.825-.356.196-.746.294-1.169.294-.678 0-1.228-.216-1.648-.648-.417-.432-.625-1.054-.625-1.867m.844 0c0 .616.136 1.079.407 1.387.271.305.611.457 1.022.457.408 0 .748-.154 1.018-.462.271-.308.407-.778.407-1.409 0-.596-.137-1.046-.411-1.351q-.4065-.462-1.014-.462c-.411 0-.751.152-1.022.458-.271.305-.407.766-.407 1.382M235.423 35.032v-4.813h.74v.73c.189-.341.362-.566.52-.675.162-.109.338-.163.53-.163.277 0 .559.087.845.262l-.283.757c-.201-.117-.402-.176-.603-.176-.18 0-.341.054-.484.163q-.2145.159-.306.444c-.091.29-.137.607-.137.952v2.519z" style="fill-rule:nonzero"/>
  <path d="M94.546 37.826h67.424" style="fill:none;fill-rule:nonzero;stroke:#0000d4;stroke-width:1.32px"/>
</svg>
