<svg xmlns="http://www.w3.org/2000/svg" xmlns:xlink="http://www.w3.org/1999/xlink" width="301" height="26" viewBox="0 0 301 26"><defs><path id="a" d="M0,0 L301,0 L301,26 L0,26 L0,0 Z"/></defs><g fill="none"><use xlink:href="#a" fill="#FFF" fill-rule="evenodd"/><polygon fill="#FFF" points="0 0 301 0 301 26 0 26"/><rect width="84.5" height="24.5" x=".75" y=".75" fill="#B9D6E5" stroke="#183544" stroke-width=".5"/><g fill="#183544" fill-rule="evenodd" transform="translate(14 6)"><path fill-rule="nonzero" d="M3.640625,10.53125 C4.296875,10.53125 4.84244792,10.2565104 5.27734375,9.70703125 C5.71223958,9.15755208 5.9296875,8.3359375 5.9296875,7.2421875 C5.9296875,6.57552083 5.83333333,6.00260417 5.640625,5.5234375 C5.27604167,4.6015625 4.609375,4.140625 3.640625,4.140625 C2.66666667,4.140625 2,4.62760417 1.640625,5.6015625 C1.44791667,6.12239583 1.3515625,6.78385417 1.3515625,7.5859375 C1.3515625,8.23177083 1.44791667,8.78125 1.640625,9.234375 C2.00520833,10.0989583 2.671875,10.53125 3.640625,10.53125 Z M0,3.1484375 L1.3671875,3.1484375 L1.3671875,4.2578125 C1.6484375,3.87760417 1.95572917,3.58333333 2.2890625,3.375 C2.76302083,3.0625 3.3203125,2.90625 3.9609375,2.90625 C4.90885417,2.90625 5.71354167,3.26953125 6.375,3.99609375 C7.03645833,4.72265625 7.3671875,5.76041667 7.3671875,7.109375 C7.3671875,8.93229167 6.890625,10.234375 5.9375,11.015625 C5.33333333,11.5104167 4.63020833,11.7578125 3.828125,11.7578125 C3.19791667,11.7578125 2.66927083,11.6197917 2.2421875,11.34375 C1.9921875,11.1875 1.71354167,10.9192708 1.40625,10.5390625 L1.40625,14.8125 L0,14.8125 L0,3.1484375 Z M9.046875,3.109375 L10.3828125,3.109375 L10.3828125,4.5546875 C10.4921875,4.2734375 10.7604167,3.93098958 11.1875,3.52734375 C11.6145833,3.12369792 12.1067708,2.921875 12.6640625,2.921875 C12.6901042,2.921875 12.734375,2.92447917 12.796875,2.9296875 C12.859375,2.93489583 12.9661458,2.9453125 13.1171875,2.9609375 L13.1171875,4.4453125 C13.0338542,4.4296875 12.9570312,4.41927083 12.8867188,4.4140625 C12.8164062,4.40885417 12.7395833,4.40625 12.65625,4.40625 C11.9479167,4.40625 11.4036458,4.63411458 11.0234375,5.08984375 C10.6432292,5.54557292 10.453125,6.0703125 10.453125,6.6640625 L10.453125,11.4765625 L9.046875,11.4765625 L9.046875,3.109375 Z M17.8203125,2.921875 C18.4140625,2.921875 18.9895833,3.06119792 19.546875,3.33984375 C20.1041667,3.61848958 20.5286458,3.97916667 20.8203125,4.421875 C21.1015625,4.84375 21.2890625,5.3359375 21.3828125,5.8984375 C21.4661458,6.28385417 21.5078125,6.8984375 21.5078125,7.7421875 L15.375,7.7421875 C15.4010417,8.59114583 15.6015625,9.27213542 15.9765625,9.78515625 C16.3515625,10.2981771 16.9322917,10.5546875 17.71875,10.5546875 C18.453125,10.5546875 19.0390625,10.3125 19.4765625,9.828125 C19.7265625,9.546875 19.9036458,9.22135417 20.0078125,8.8515625 L21.390625,8.8515625 C21.3541667,9.15885417 21.2330729,9.50130208 21.0273438,9.87890625 C20.8216146,10.2565104 20.5911458,10.5651042 20.3359375,10.8046875 C19.9088542,11.2213542 19.3802083,11.5026042 18.75,11.6484375 C18.4114583,11.7317708 18.0286458,11.7734375 17.6015625,11.7734375 C16.5598958,11.7734375 15.6770833,11.3945312 14.953125,10.6367188 C14.2291667,9.87890625 13.8671875,8.81770833 13.8671875,7.453125 C13.8671875,6.109375 14.2317708,5.01822917 14.9609375,4.1796875 C15.6901042,3.34114583 16.6432292,2.921875 17.8203125,2.921875 Z M20.0625,6.625 C20.0052083,6.015625 19.8723958,5.52864583 19.6640625,5.1640625 C19.2786458,4.48697917 18.6354167,4.1484375 17.734375,4.1484375 C17.0885417,4.1484375 16.546875,4.38151042 16.109375,4.84765625 C15.671875,5.31380208 15.4401042,5.90625 15.4140625,6.625 L20.0625,6.625 Z"/><polygon fill-rule="nonzero" points="23.922 3.109 26.156 9.922 28.492 3.109 30.031 3.109 26.875 11.477 25.375 11.477 22.289 3.109"/><path fill-rule="nonzero" d="M31.234375,3.1484375 L32.6640625,3.1484375 L32.6640625,11.4765625 L31.234375,11.4765625 L31.234375,3.1484375 Z M31.234375,0 L32.6640625,0 L32.6640625,1.59375 L31.234375,1.59375 L31.234375,0 Z M38.109375,10.5703125 C39.0416667,10.5703125 39.6809896,10.2174479 40.0273438,9.51171875 C40.3736979,8.80598958 40.546875,8.02083333 40.546875,7.15625 C40.546875,6.375 40.421875,5.73958333 40.171875,5.25 C39.7760417,4.47916667 39.09375,4.09375 38.125,4.09375 C37.265625,4.09375 36.640625,4.421875 36.25,5.078125 C35.859375,5.734375 35.6640625,6.52604167 35.6640625,7.453125 C35.6640625,8.34375 35.859375,9.0859375 36.25,9.6796875 C36.640625,10.2734375 37.2604167,10.5703125 38.109375,10.5703125 Z M38.1640625,2.8671875 C39.2421875,2.8671875 40.1536458,3.2265625 40.8984375,3.9453125 C41.6432292,4.6640625 42.015625,5.72135417 42.015625,7.1171875 C42.015625,8.46614583 41.6875,9.58072917 41.03125,10.4609375 C40.375,11.3411458 39.3567708,11.78125 37.9765625,11.78125 C36.8255208,11.78125 35.9114583,11.3919271 35.234375,10.6132812 C34.5572917,9.83463542 34.21875,8.7890625 34.21875,7.4765625 C34.21875,6.0703125 34.5755208,4.95052083 35.2890625,4.1171875 C36.0026042,3.28385417 36.9609375,2.8671875 38.1640625,2.8671875 Z M45.09375,3.109375 L45.09375,8.6640625 C45.09375,9.09114583 45.1614583,9.44010417 45.296875,9.7109375 C45.546875,10.2109375 46.0130208,10.4609375 46.6953125,10.4609375 C47.6744792,10.4609375 48.3411458,10.0234375 48.6953125,9.1484375 C48.8880208,8.6796875 48.984375,8.03645833 48.984375,7.21875 L48.984375,3.109375 L50.390625,3.109375 L50.390625,11.4765625 L49.0625,11.4765625 L49.078125,10.2421875 C48.8958333,10.5598958 48.6692708,10.828125 48.3984375,11.046875 C47.8619792,11.484375 47.2109375,11.703125 46.4453125,11.703125 C45.2526042,11.703125 44.4401042,11.3046875 44.0078125,10.5078125 C43.7734375,10.0807292 43.65625,9.51041667 43.65625,8.796875 L43.65625,3.109375 L45.09375,3.109375 Z M53.421875,8.8515625 C53.4635417,9.3203125 53.5807292,9.6796875 53.7734375,9.9296875 C54.1276042,10.3828125 54.7421875,10.609375 55.6171875,10.609375 C56.1380208,10.609375 56.5963542,10.4960938 56.9921875,10.2695312 C57.3880208,10.0429688 57.5859375,9.69270833 57.5859375,9.21875 C57.5859375,8.859375 57.4270833,8.5859375 57.109375,8.3984375 C56.90625,8.28385417 56.5052083,8.15104167 55.90625,8 L54.7890625,7.71875 C54.0755208,7.54166667 53.5494792,7.34375 53.2109375,7.125 C52.6067708,6.74479167 52.3046875,6.21875 52.3046875,5.546875 C52.3046875,4.75520833 52.5898438,4.11458333 53.1601562,3.625 C53.7304688,3.13541667 54.4973958,2.890625 55.4609375,2.890625 C56.7213542,2.890625 57.6302083,3.26041667 58.1875,4 C58.5364583,4.46875 58.7057292,4.97395833 58.6953125,5.515625 L57.3671875,5.515625 C57.3411458,5.19791667 57.2291667,4.90885417 57.03125,4.6484375 C56.7083333,4.27864583 56.1484375,4.09375 55.3515625,4.09375 C54.8203125,4.09375 54.4179688,4.1953125 54.1445312,4.3984375 C53.8710938,4.6015625 53.734375,4.86979167 53.734375,5.203125 C53.734375,5.56770833 53.9140625,5.859375 54.2734375,6.078125 C54.4817708,6.20833333 54.7890625,6.32291667 55.1953125,6.421875 L56.125,6.6484375 C57.1354167,6.89322917 57.8125,7.13020833 58.15625,7.359375 C58.703125,7.71875 58.9765625,8.28385417 58.9765625,9.0546875 C58.9765625,9.79947917 58.6940104,10.4427083 58.1289062,10.984375 C57.5638021,11.5260417 56.703125,11.796875 55.546875,11.796875 C54.3020833,11.796875 53.4205729,11.5143229 52.9023438,10.9492188 C52.3841146,10.3841146 52.1067708,9.68489583 52.0703125,8.8515625 L53.421875,8.8515625 Z"/></g><rect width="24.5" height="24.5" x="90.75" y=".75" fill="#B9D6E5" stroke="#183544" stroke-width=".5"/><g fill-rule="evenodd" transform="translate(97 4.99)"><rect width="11" height="15.963" fill="#183544" fill-rule="nonzero"/><path fill="#FFF" fill-rule="nonzero" d="M3,5.21875 L3,4.140625 C4.015625,4.04166667 4.72395833,3.87630208 5.125,3.64453125 C5.52604167,3.41276042 5.82552083,2.86458333 6.0234375,2 L7.1328125,2 L7.1328125,13.140625 L5.6328125,13.140625 L5.6328125,5.21875 L3,5.21875 Z"/></g><rect width="24.5" height="24.5" x="120.75" y=".75" fill="#B9D6E5" stroke="#183544" stroke-width=".5"/><path fill="#183544" d="M129.378,18.8705625 C129.430083,17.9070208 129.629302,17.0684792 129.975656,16.3549375 C130.32201,15.6413958 130.997792,14.9929583 132.003,14.409625 L133.503,13.5424375 C134.174875,13.1518125 134.646229,12.8184792 134.917062,12.5424375 C135.344146,12.1101458 135.557687,11.6153542 135.557687,11.0580625 C135.557687,10.4070208 135.362375,9.89009375 134.97175,9.50728125 C134.581125,9.12446875 134.060292,8.9330625 133.40925,8.9330625 C132.445708,8.9330625 131.779042,9.29764583 131.40925,10.0268125 C131.211333,10.4174375 131.101958,10.9591042 131.081125,11.6518125 L129.651437,11.6518125 C129.667062,10.6778542 129.84675,9.88358333 130.1905,9.269 C130.799875,8.18566667 131.875396,7.644 133.417062,7.644 C134.698312,7.644 135.63451,7.99035417 136.225656,8.6830625 C136.816802,9.37577083 137.112375,10.1466042 137.112375,10.9955625 C137.112375,11.8913958 136.797271,12.6570208 136.167062,13.2924375 C135.802479,13.6622292 135.148833,14.1101458 134.206125,14.6361875 L133.135812,15.2299375 C132.625396,15.5111875 132.224354,15.7794167 131.932687,16.034625 C131.411854,16.48775 131.083729,16.9903542 130.948312,17.5424375 L137.057687,17.5424375 L137.057687,18.8705625 L129.378,18.8705625 Z"/><rect width="24.5" height="24.5" x="150.75" y=".75" fill="#B9D6E5" stroke="#183544" stroke-width=".5"/><path fill="#183544" d="M163.058437,18.4548125 C161.735521,18.4548125 160.775885,18.0915312 160.179531,17.3649688 C159.583177,16.6384062 159.285,15.7542917 159.285,14.712625 L160.75375,14.712625 C160.81625,15.4365833 160.951667,15.962625 161.16,16.29075 C161.524583,16.8792917 162.183437,17.1735625 163.136562,17.1735625 C163.876146,17.1735625 164.469896,16.9756458 164.917812,16.5798125 C165.365729,16.1839792 165.589687,15.6735625 165.589687,15.0485625 C165.589687,14.2777292 165.35401,13.7386667 164.882656,13.431375 C164.411302,13.1240833 163.756354,12.9704375 162.917812,12.9704375 C162.824062,12.9704375 162.72901,12.9717396 162.632656,12.9743437 C162.536302,12.9769479 162.438646,12.9808542 162.339687,12.9860625 L162.339687,11.743875 C162.485521,11.7595 162.607917,11.7699167 162.706875,11.775125 C162.805833,11.7803333 162.912604,11.7829375 163.027187,11.7829375 C163.553229,11.7829375 163.985521,11.6996042 164.324062,11.5329375 C164.917812,11.2412708 165.214687,10.7204375 165.214687,9.9704375 C165.214687,9.41314583 165.016771,8.98345833 164.620937,8.681375 C164.225104,8.37929167 163.764167,8.22825 163.238125,8.22825 C162.300625,8.22825 161.652187,8.54075 161.292812,9.16575 C161.094896,9.5095 160.982917,9.99908333 160.956875,10.6345 L159.56625,10.6345 C159.56625,9.80116667 159.732917,9.09283333 160.06625,8.5095 C160.639167,7.46783333 161.646979,6.947 163.089687,6.947 C164.230312,6.947 165.113125,7.20090625 165.738125,7.70871875 C166.363125,8.21653125 166.675625,8.95220833 166.675625,9.91575 C166.675625,10.60325 166.490729,11.1605417 166.120937,11.587625 C165.891771,11.85325 165.594896,12.0615833 165.230312,12.212625 C165.818854,12.3740833 166.27849,12.6852812 166.609219,13.1462187 C166.939948,13.6071562 167.105312,14.1709583 167.105312,14.837625 C167.105312,15.9053333 166.75375,16.775125 166.050625,17.447 C165.3475,18.118875 164.350104,18.4548125 163.058437,18.4548125 Z"/><rect width="24.5" height="24.5" x="180.75" y=".75" fill="#B9D6E5" stroke="#183544" stroke-width=".5"/><path fill="#183544" d="M194.159812,14.9088125 L194.159812,9.8385 L190.573875,14.9088125 L194.159812,14.9088125 Z M194.18325,18.86975 L194.18325,16.135375 L189.277,16.135375 L189.277,14.760375 L194.402,7.651 L195.5895,7.651 L195.5895,14.9088125 L197.237937,14.9088125 L197.237937,16.135375 L195.5895,16.135375 L195.5895,18.86975 L194.18325,18.86975 Z"/><rect width="24.5" height="24.5" x="210.75" y=".75" fill="#B9D6E5" stroke="#183544" stroke-width=".5"/><path fill="#183544" d="M220.853938,15.2684375 C220.947688,16.0705208 221.320083,16.6252083 221.971125,16.9325 C222.304458,17.08875 222.689875,17.166875 223.127375,17.166875 C223.960708,17.166875 224.577896,16.90125 224.978938,16.37 C225.379979,15.83875 225.5805,15.2502083 225.5805,14.604375 C225.5805,13.823125 225.342219,13.2189583 224.865656,12.791875 C224.389094,12.3647917 223.817479,12.15125 223.150813,12.15125 C222.666438,12.15125 222.251073,12.245 221.904719,12.4325 C221.558365,12.62 221.262792,12.8804167 221.018,13.21375 L219.79925,13.1434375 L220.650813,7.12 L226.463313,7.12 L226.463313,8.479375 L221.7055,8.479375 L221.228938,11.58875 C221.489354,11.3908333 221.73675,11.2423958 221.971125,11.1434375 C222.387792,10.9715625 222.869563,10.885625 223.416438,10.885625 C224.442479,10.885625 225.312271,11.2163542 226.025813,11.8778125 C226.739354,12.5392708 227.096125,13.3778125 227.096125,14.3934375 C227.096125,15.4507292 226.769302,16.3830208 226.115656,17.1903125 C225.46201,17.9976042 224.419042,18.40125 222.98675,18.40125 C222.075292,18.40125 221.269302,18.1447396 220.568781,17.6317188 C219.86826,17.1186979 219.476333,16.3309375 219.393,15.2684375 L220.853938,15.2684375 Z"/><rect width="59.5" height="24.5" x="240.75" y=".75" fill="#B9D6E5" stroke="#183544" stroke-width=".5"/><g fill="#183544" fill-rule="evenodd" transform="translate(256 7)"><path fill-rule="nonzero" d="M0,2.3359375 L1.3359375,2.3359375 L1.3359375,3.5234375 C1.73177083,3.03385417 2.15104167,2.68229167 2.59375,2.46875 C3.03645833,2.25520833 3.52864583,2.1484375 4.0703125,2.1484375 C5.2578125,2.1484375 6.05989583,2.5625 6.4765625,3.390625 C6.70572917,3.84375 6.8203125,4.4921875 6.8203125,5.3359375 L6.8203125,10.703125 L5.390625,10.703125 L5.390625,5.4296875 C5.390625,4.91927083 5.31510417,4.5078125 5.1640625,4.1953125 C4.9140625,3.67447917 4.4609375,3.4140625 3.8046875,3.4140625 C3.47135417,3.4140625 3.19791667,3.44791667 2.984375,3.515625 C2.59895833,3.63020833 2.26041667,3.859375 1.96875,4.203125 C1.734375,4.47916667 1.58203125,4.76432292 1.51171875,5.05859375 C1.44140625,5.35286458 1.40625,5.7734375 1.40625,6.3203125 L1.40625,10.703125 L0,10.703125 L0,2.3359375 Z M12.3828125,2.1484375 C12.9765625,2.1484375 13.5520833,2.28776042 14.109375,2.56640625 C14.6666667,2.84505208 15.0911458,3.20572917 15.3828125,3.6484375 C15.6640625,4.0703125 15.8515625,4.5625 15.9453125,5.125 C16.0286458,5.51041667 16.0703125,6.125 16.0703125,6.96875 L9.9375,6.96875 C9.96354167,7.81770833 10.1640625,8.49869792 10.5390625,9.01171875 C10.9140625,9.52473958 11.4947917,9.78125 12.28125,9.78125 C13.015625,9.78125 13.6015625,9.5390625 14.0390625,9.0546875 C14.2890625,8.7734375 14.4661458,8.44791667 14.5703125,8.078125 L15.953125,8.078125 C15.9166667,8.38541667 15.7955729,8.72786458 15.5898438,9.10546875 C15.3841146,9.48307292 15.1536458,9.79166667 14.8984375,10.03125 C14.4713542,10.4479167 13.9427083,10.7291667 13.3125,10.875 C12.9739583,10.9583333 12.5911458,11 12.1640625,11 C11.1223958,11 10.2395833,10.6210938 9.515625,9.86328125 C8.79166667,9.10546875 8.4296875,8.04427083 8.4296875,6.6796875 C8.4296875,5.3359375 8.79427083,4.24479167 9.5234375,3.40625 C10.2526042,2.56770833 11.2057292,2.1484375 12.3828125,2.1484375 Z M14.625,5.8515625 C14.5677083,5.2421875 14.4348958,4.75520833 14.2265625,4.390625 C13.8411458,3.71354167 13.1979167,3.375 12.296875,3.375 C11.6510417,3.375 11.109375,3.60807292 10.671875,4.07421875 C10.234375,4.54036458 10.0026042,5.1328125 9.9765625,5.8515625 L14.625,5.8515625 Z"/><polygon fill-rule="nonzero" points="17 2.336 18.82 2.336 20.742 5.281 22.688 2.336 24.398 2.375 21.578 6.414 24.523 10.703 22.727 10.703 20.648 7.563 18.633 10.703 16.852 10.703 19.797 6.414"/><path fill-rule="nonzero" d="M26.078125,0 L27.5,0 L27.5,2.3359375 L28.8359375,2.3359375 L28.8359375,3.484375 L27.5,3.484375 L27.5,8.9453125 C27.5,9.23697917 27.5989583,9.43229167 27.796875,9.53125 C27.90625,9.58854167 28.0885417,9.6171875 28.34375,9.6171875 C28.4114583,9.6171875 28.484375,9.61588542 28.5625,9.61328125 C28.640625,9.61067708 28.7317708,9.60416667 28.8359375,9.59375 L28.8359375,10.703125 C28.6744792,10.75 28.5065104,10.7838542 28.3320312,10.8046875 C28.1575521,10.8255208 27.96875,10.8359375 27.765625,10.8359375 C27.109375,10.8359375 26.6640625,10.6679688 26.4296875,10.3320312 C26.1953125,9.99609375 26.078125,9.55989583 26.078125,9.0234375 L26.078125,3.484375 L24.9453125,3.484375 L24.9453125,2.3359375 L26.078125,2.3359375 L26.078125,0 Z"/></g></g></svg>