<svg xmlns="http://www.w3.org/2000/svg" xmlns:xlink="http://www.w3.org/1999/xlink" width="301" height="26" viewBox="0 0 301 26"><defs><path id="a" d="M0,0 L301,0 L301,26 L0,26 L0,0 Z"/></defs><g fill="none" fill-rule="evenodd"><use xlink:href="#a" fill="#FFF"/><g transform="translate(1 1)"><rect width="84" height="24" fill="#B9D6E5" stroke="#183544" stroke-width=".5"/><g fill="#183544" fill-rule="nonzero" transform="translate(13 5)"><path d="M3.640625 10.53125C4.296875 10.53125 4.84244792 10.2565104 5.27734375 9.70703125 5.71223958 9.15755208 5.9296875 8.3359375 5.9296875 7.2421875 5.9296875 6.57552083 5.83333333 6.00260417 5.640625 5.5234375 5.27604167 4.6015625 4.609375 4.140625 3.640625 4.140625 2.66666667 4.140625 2 4.62760417 1.640625 5.6015625 1.44791667 6.12239583 1.3515625 6.78385417 1.3515625 7.5859375 1.3515625 8.23177083 1.44791667 8.78125 1.640625 9.234375 2.00520833 10.0989583 2.671875 10.53125 3.640625 10.53125ZM0 3.1484375 1.3671875 3.1484375 1.3671875 4.2578125C1.6484375 3.87760417 1.95572917 3.58333333 2.2890625 3.375 2.76302083 3.0625 3.3203125 2.90625 3.9609375 2.90625 4.90885417 2.90625 5.71354167 3.26953125 6.375 3.99609375 7.03645833 4.72265625 7.3671875 5.76041667 7.3671875 7.109375 7.3671875 8.93229167 6.890625 10.234375 5.9375 11.015625 5.33333333 11.5104167 4.63020833 11.7578125 3.828125 11.7578125 3.19791667 11.7578125 2.66927083 11.6197917 2.2421875 11.34375 1.9921875 11.1875 1.71354167 10.9192708 1.40625 10.5390625L1.40625 14.8125 0 14.8125 0 3.1484375ZM9.046875 3.109375 10.3828125 3.109375 10.3828125 4.5546875C10.4921875 4.2734375 10.7604167 3.93098958 11.1875 3.52734375 11.6145833 3.12369792 12.1067708 2.921875 12.6640625 2.921875 12.6901042 2.921875 12.734375 2.92447917 12.796875 2.9296875 12.859375 2.93489583 12.9661458 2.9453125 13.1171875 2.9609375L13.1171875 4.4453125C13.0338542 4.4296875 12.9570312 4.41927083 12.8867188 4.4140625 12.8164062 4.40885417 12.7395833 4.40625 12.65625 4.40625 11.9479167 4.40625 11.4036458 4.63411458 11.0234375 5.08984375 10.6432292 5.54557292 10.453125 6.0703125 10.453125 6.6640625L10.453125 11.4765625 9.046875 11.4765625 9.046875 3.109375ZM17.8203125 2.921875C18.4140625 2.921875 18.9895833 3.06119792 19.546875 3.33984375 20.1041667 3.61848958 20.5286458 3.97916667 20.8203125 4.421875 21.1015625 4.84375 21.2890625 5.3359375 21.3828125 5.8984375 21.4661458 6.28385417 21.5078125 6.8984375 21.5078125 7.7421875L15.375 7.7421875C15.4010417 8.59114583 15.6015625 9.27213542 15.9765625 9.78515625 16.3515625 10.2981771 16.9322917 10.5546875 17.71875 10.5546875 18.453125 10.5546875 19.0390625 10.3125 19.4765625 9.828125 19.7265625 9.546875 19.9036458 9.22135417 20.0078125 8.8515625L21.390625 8.8515625C21.3541667 9.15885417 21.2330729 9.50130208 21.0273438 9.87890625 20.8216146 10.2565104 20.5911458 10.5651042 20.3359375 10.8046875 19.9088542 11.2213542 19.3802083 11.5026042 18.75 11.6484375 18.4114583 11.7317708 18.0286458 11.7734375 17.6015625 11.7734375 16.5598958 11.7734375 15.6770833 11.3945312 14.953125 10.6367188 14.2291667 9.87890625 13.8671875 8.81770833 13.8671875 7.453125 13.8671875 6.109375 14.2317708 5.01822917 14.9609375 4.1796875 15.6901042 3.34114583 16.6432292 2.921875 17.8203125 2.921875ZM20.0625 6.625C20.0052083 6.015625 19.8723958 5.52864583 19.6640625 5.1640625 19.2786458 4.48697917 18.6354167 4.1484375 17.734375 4.1484375 17.0885417 4.1484375 16.546875 4.38151042 16.109375 4.84765625 15.671875 5.31380208 15.4401042 5.90625 15.4140625 6.625L20.0625 6.625Z"/><polygon points="23.922 3.109 26.156 9.922 28.492 3.109 30.031 3.109 26.875 11.477 25.375 11.477 22.289 3.109"/><path d="M31.234375 3.1484375 32.6640625 3.1484375 32.6640625 11.4765625 31.234375 11.4765625 31.234375 3.1484375ZM31.234375 0 32.6640625 0 32.6640625 1.59375 31.234375 1.59375 31.234375 0ZM38.109375 10.5703125C39.0416667 10.5703125 39.6809896 10.2174479 40.0273438 9.51171875 40.3736979 8.80598958 40.546875 8.02083333 40.546875 7.15625 40.546875 6.375 40.421875 5.73958333 40.171875 5.25 39.7760417 4.47916667 39.09375 4.09375 38.125 4.09375 37.265625 4.09375 36.640625 4.421875 36.25 5.078125 35.859375 5.734375 35.6640625 6.52604167 35.6640625 7.453125 35.6640625 8.34375 35.859375 9.0859375 36.25 9.6796875 36.640625 10.2734375 37.2604167 10.5703125 38.109375 10.5703125ZM38.1640625 2.8671875C39.2421875 2.8671875 40.1536458 3.2265625 40.8984375 3.9453125 41.6432292 4.6640625 42.015625 5.72135417 42.015625 7.1171875 42.015625 8.46614583 41.6875 9.58072917 41.03125 10.4609375 40.375 11.3411458 39.3567708 11.78125 37.9765625 11.78125 36.8255208 11.78125 35.9114583 11.3919271 35.234375 10.6132812 34.5572917 9.83463542 34.21875 8.7890625 34.21875 7.4765625 34.21875 6.0703125 34.5755208 4.95052083 35.2890625 4.1171875 36.0026042 3.28385417 36.9609375 2.8671875 38.1640625 2.8671875ZM45.09375 3.109375 45.09375 8.6640625C45.09375 9.09114583 45.1614583 9.44010417 45.296875 9.7109375 45.546875 10.2109375 46.0130208 10.4609375 46.6953125 10.4609375 47.6744792 10.4609375 48.3411458 10.0234375 48.6953125 9.1484375 48.8880208 8.6796875 48.984375 8.03645833 48.984375 7.21875L48.984375 3.109375 50.390625 3.109375 50.390625 11.4765625 49.0625 11.4765625 49.078125 10.2421875C48.8958333 10.5598958 48.6692708 10.828125 48.3984375 11.046875 47.8619792 11.484375 47.2109375 11.703125 46.4453125 11.703125 45.2526042 11.703125 44.4401042 11.3046875 44.0078125 10.5078125 43.7734375 10.0807292 43.65625 9.51041667 43.65625 8.796875L43.65625 3.109375 45.09375 3.109375ZM53.421875 8.8515625C53.4635417 9.3203125 53.5807292 9.6796875 53.7734375 9.9296875 54.1276042 10.3828125 54.7421875 10.609375 55.6171875 10.609375 56.1380208 10.609375 56.5963542 10.4960938 56.9921875 10.2695312 57.3880208 10.0429688 57.5859375 9.69270833 57.5859375 9.21875 57.5859375 8.859375 57.4270833 8.5859375 57.109375 8.3984375 56.90625 8.28385417 56.5052083 8.15104167 55.90625 8L54.7890625 7.71875C54.0755208 7.54166667 53.5494792 7.34375 53.2109375 7.125 52.6067708 6.74479167 52.3046875 6.21875 52.3046875 5.546875 52.3046875 4.75520833 52.5898438 4.11458333 53.1601562 3.625 53.7304688 3.13541667 54.4973958 2.890625 55.4609375 2.890625 56.7213542 2.890625 57.6302083 3.26041667 58.1875 4 58.5364583 4.46875 58.7057292 4.97395833 58.6953125 5.515625L57.3671875 5.515625C57.3411458 5.19791667 57.2291667 4.90885417 57.03125 4.6484375 56.7083333 4.27864583 56.1484375 4.09375 55.3515625 4.09375 54.8203125 4.09375 54.4179688 4.1953125 54.1445312 4.3984375 53.8710938 4.6015625 53.734375 4.86979167 53.734375 5.203125 53.734375 5.56770833 53.9140625 5.859375 54.2734375 6.078125 54.4817708 6.20833333 54.7890625 6.32291667 55.1953125 6.421875L56.125 6.6484375C57.1354167 6.89322917 57.8125 7.13020833 58.15625 7.359375 58.703125 7.71875 58.9765625 8.28385417 58.9765625 9.0546875 58.9765625 9.79947917 58.6940104 10.4427083 58.1289062 10.984375 57.5638021 11.5260417 56.703125 11.796875 55.546875 11.796875 54.3020833 11.796875 53.4205729 11.5143229 52.9023438 10.9492188 52.3841146 10.3841146 52.1067708 9.68489583 52.0703125 8.8515625L53.421875 8.8515625Z"/></g></g><g transform="translate(91 1)"><rect width="24" height="24" fill="#B9D6E5" stroke="#183544" stroke-width=".5"/><g transform="translate(6 3.99)"><rect width="11" height="15.963" fill="#183544"/><path fill="#FFF" fill-rule="nonzero" d="M0,3.21875 L0,2.140625 C1.015625,2.04166667 1.72395833,1.87630208 2.125,1.64453125 C2.52604167,1.41276042 2.82552083,0.864583333 3.0234375,0 L4.1328125,0 L4.1328125,11.140625 L2.6328125,11.140625 L2.6328125,3.21875 L0,3.21875 Z" transform="translate(3 2)"/></g></g><g transform="translate(121 1)"><rect width="24" height="24" fill="#B9D6E5" stroke="#183544" stroke-width=".5"/><path fill="#183544" fill-rule="nonzero" d="M0,11.2265625 C0.0520833333,10.2630208 0.251302083,9.42447917 0.59765625,8.7109375 C0.944010417,7.99739583 1.61979167,7.34895833 2.625,6.765625 L4.125,5.8984375 C4.796875,5.5078125 5.26822917,5.17447917 5.5390625,4.8984375 C5.96614583,4.46614583 6.1796875,3.97135417 6.1796875,3.4140625 C6.1796875,2.76302083 5.984375,2.24609375 5.59375,1.86328125 C5.203125,1.48046875 4.68229167,1.2890625 4.03125,1.2890625 C3.06770833,1.2890625 2.40104167,1.65364583 2.03125,2.3828125 C1.83333333,2.7734375 1.72395833,3.31510417 1.703125,4.0078125 L0.2734375,4.0078125 C0.2890625,3.03385417 0.46875,2.23958333 0.8125,1.625 C1.421875,0.541666667 2.49739583,0 4.0390625,0 C5.3203125,0 6.25651042,0.346354167 6.84765625,1.0390625 C7.43880208,1.73177083 7.734375,2.50260417 7.734375,3.3515625 C7.734375,4.24739583 7.41927083,5.01302083 6.7890625,5.6484375 C6.42447917,6.01822917 5.77083333,6.46614583 4.828125,6.9921875 L3.7578125,7.5859375 C3.24739583,7.8671875 2.84635417,8.13541667 2.5546875,8.390625 C2.03385417,8.84375 1.70572917,9.34635417 1.5703125,9.8984375 L7.6796875,9.8984375 L7.6796875,11.2265625 L0,11.2265625 Z" transform="translate(8.378 6.644)"/></g><g transform="translate(151 1)"><rect width="24" height="24" fill="#B9D6E5" stroke="#183544" stroke-width=".5"/><path fill="#183544" fill-rule="nonzero" d="M3.7734375,11.5078125 C2.45052083,11.5078125 1.49088542,11.1445312 0.89453125,10.4179688 C0.298177083,9.69140625 0,8.80729167 0,7.765625 L1.46875,7.765625 C1.53125,8.48958333 1.66666667,9.015625 1.875,9.34375 C2.23958333,9.93229167 2.8984375,10.2265625 3.8515625,10.2265625 C4.59114583,10.2265625 5.18489583,10.0286458 5.6328125,9.6328125 C6.08072917,9.23697917 6.3046875,8.7265625 6.3046875,8.1015625 C6.3046875,7.33072917 6.06901042,6.79166667 5.59765625,6.484375 C5.12630208,6.17708333 4.47135417,6.0234375 3.6328125,6.0234375 C3.5390625,6.0234375 3.44401042,6.02473958 3.34765625,6.02734375 C3.25130208,6.02994792 3.15364583,6.03385417 3.0546875,6.0390625 L3.0546875,4.796875 C3.20052083,4.8125 3.32291667,4.82291667 3.421875,4.828125 C3.52083333,4.83333333 3.62760417,4.8359375 3.7421875,4.8359375 C4.26822917,4.8359375 4.70052083,4.75260417 5.0390625,4.5859375 C5.6328125,4.29427083 5.9296875,3.7734375 5.9296875,3.0234375 C5.9296875,2.46614583 5.73177083,2.03645833 5.3359375,1.734375 C4.94010417,1.43229167 4.47916667,1.28125 3.953125,1.28125 C3.015625,1.28125 2.3671875,1.59375 2.0078125,2.21875 C1.80989583,2.5625 1.69791667,3.05208333 1.671875,3.6875 L0.28125,3.6875 C0.28125,2.85416667 0.447916667,2.14583333 0.78125,1.5625 C1.35416667,0.520833333 2.36197917,0 3.8046875,0 C4.9453125,0 5.828125,0.25390625 6.453125,0.76171875 C7.078125,1.26953125 7.390625,2.00520833 7.390625,2.96875 C7.390625,3.65625 7.20572917,4.21354167 6.8359375,4.640625 C6.60677083,4.90625 6.30989583,5.11458333 5.9453125,5.265625 C6.53385417,5.42708333 6.99348958,5.73828125 7.32421875,6.19921875 C7.65494792,6.66015625 7.8203125,7.22395833 7.8203125,7.890625 C7.8203125,8.95833333 7.46875,9.828125 6.765625,10.5 C6.0625,11.171875 5.06510417,11.5078125 3.7734375,11.5078125 Z" transform="translate(8.285 5.947)"/></g><g transform="translate(181 1)"><rect width="24" height="24" fill="#B9D6E5" stroke="#183544" stroke-width=".5"/><path fill="#183544" fill-rule="nonzero" d="M4.8828125,7.2578125 L4.8828125,2.1875 L1.296875,7.2578125 L4.8828125,7.2578125 Z M4.90625,11.21875 L4.90625,8.484375 L0,8.484375 L0,7.109375 L5.125,0 L6.3125,0 L6.3125,7.2578125 L7.9609375,7.2578125 L7.9609375,8.484375 L6.3125,8.484375 L6.3125,11.21875 L4.90625,11.21875 Z" transform="translate(8.277 6.651)"/></g><g transform="translate(211 1)"><rect width="24" height="24" fill="#B9D6E5" stroke="#183544" stroke-width=".5"/><path fill="#183544" fill-rule="nonzero" d="M1.4609375,8.1484375 C1.5546875,8.95052083 1.92708333,9.50520833 2.578125,9.8125 C2.91145833,9.96875 3.296875,10.046875 3.734375,10.046875 C4.56770833,10.046875 5.18489583,9.78125 5.5859375,9.25 C5.98697917,8.71875 6.1875,8.13020833 6.1875,7.484375 C6.1875,6.703125 5.94921875,6.09895833 5.47265625,5.671875 C4.99609375,5.24479167 4.42447917,5.03125 3.7578125,5.03125 C3.2734375,5.03125 2.85807292,5.125 2.51171875,5.3125 C2.16536458,5.5 1.86979167,5.76041667 1.625,6.09375 L0.40625,6.0234375 L1.2578125,0 L7.0703125,0 L7.0703125,1.359375 L2.3125,1.359375 L1.8359375,4.46875 C2.09635417,4.27083333 2.34375,4.12239583 2.578125,4.0234375 C2.99479167,3.8515625 3.4765625,3.765625 4.0234375,3.765625 C5.04947917,3.765625 5.91927083,4.09635417 6.6328125,4.7578125 C7.34635417,5.41927083 7.703125,6.2578125 7.703125,7.2734375 C7.703125,8.33072917 7.37630208,9.26302083 6.72265625,10.0703125 C6.06901042,10.8776042 5.02604167,11.28125 3.59375,11.28125 C2.68229167,11.28125 1.87630208,11.0247396 1.17578125,10.5117188 C0.475260417,9.99869792 0.0833333333,9.2109375 0,8.1484375 L1.4609375,8.1484375 Z" transform="translate(8.393 6.12)"/></g><g transform="translate(241 1)"><rect width="59" height="24" fill="#B9D6E5" stroke="#183544" stroke-width=".5"/><g fill="#183544" fill-rule="nonzero" transform="translate(15 6)"><path d="M0 2.3359375 1.3359375 2.3359375 1.3359375 3.5234375C1.73177083 3.03385417 2.15104167 2.68229167 2.59375 2.46875 3.03645833 2.25520833 3.52864583 2.1484375 4.0703125 2.1484375 5.2578125 2.1484375 6.05989583 2.5625 6.4765625 3.390625 6.70572917 3.84375 6.8203125 4.4921875 6.8203125 5.3359375L6.8203125 10.703125 5.390625 10.703125 5.390625 5.4296875C5.390625 4.91927083 5.31510417 4.5078125 5.1640625 4.1953125 4.9140625 3.67447917 4.4609375 3.4140625 3.8046875 3.4140625 3.47135417 3.4140625 3.19791667 3.44791667 2.984375 3.515625 2.59895833 3.63020833 2.26041667 3.859375 1.96875 4.203125 1.734375 4.47916667 1.58203125 4.76432292 1.51171875 5.05859375 1.44140625 5.35286458 1.40625 5.7734375 1.40625 6.3203125L1.40625 10.703125 0 10.703125 0 2.3359375ZM12.3828125 2.1484375C12.9765625 2.1484375 13.5520833 2.28776042 14.109375 2.56640625 14.6666667 2.84505208 15.0911458 3.20572917 15.3828125 3.6484375 15.6640625 4.0703125 15.8515625 4.5625 15.9453125 5.125 16.0286458 5.51041667 16.0703125 6.125 16.0703125 6.96875L9.9375 6.96875C9.96354167 7.81770833 10.1640625 8.49869792 10.5390625 9.01171875 10.9140625 9.52473958 11.4947917 9.78125 12.28125 9.78125 13.015625 9.78125 13.6015625 9.5390625 14.0390625 9.0546875 14.2890625 8.7734375 14.4661458 8.44791667 14.5703125 8.078125L15.953125 8.078125C15.9166667 8.38541667 15.7955729 8.72786458 15.5898438 9.10546875 15.3841146 9.48307292 15.1536458 9.79166667 14.8984375 10.03125 14.4713542 10.4479167 13.9427083 10.7291667 13.3125 10.875 12.9739583 10.9583333 12.5911458 11 12.1640625 11 11.1223958 11 10.2395833 10.6210938 9.515625 9.86328125 8.79166667 9.10546875 8.4296875 8.04427083 8.4296875 6.6796875 8.4296875 5.3359375 8.79427083 4.24479167 9.5234375 3.40625 10.2526042 2.56770833 11.2057292 2.1484375 12.3828125 2.1484375ZM14.625 5.8515625C14.5677083 5.2421875 14.4348958 4.75520833 14.2265625 4.390625 13.8411458 3.71354167 13.1979167 3.375 12.296875 3.375 11.6510417 3.375 11.109375 3.60807292 10.671875 4.07421875 10.234375 4.54036458 10.0026042 5.1328125 9.9765625 5.8515625L14.625 5.8515625Z"/><polygon points="17 2.336 18.82 2.336 20.742 5.281 22.688 2.336 24.398 2.375 21.578 6.414 24.523 10.703 22.727 10.703 20.648 7.563 18.633 10.703 16.852 10.703 19.797 6.414"/><path d="M26.078125,0 L27.5,0 L27.5,2.3359375 L28.8359375,2.3359375 L28.8359375,3.484375 L27.5,3.484375 L27.5,8.9453125 C27.5,9.23697917 27.5989583,9.43229167 27.796875,9.53125 C27.90625,9.58854167 28.0885417,9.6171875 28.34375,9.6171875 C28.4114583,9.6171875 28.484375,9.61588542 28.5625,9.61328125 C28.640625,9.61067708 28.7317708,9.60416667 28.8359375,9.59375 L28.8359375,10.703125 C28.6744792,10.75 28.5065104,10.7838542 28.3320312,10.8046875 C28.1575521,10.8255208 27.96875,10.8359375 27.765625,10.8359375 C27.109375,10.8359375 26.6640625,10.6679688 26.4296875,10.3320312 C26.1953125,9.99609375 26.078125,9.55989583 26.078125,9.0234375 L26.078125,3.484375 L24.9453125,3.484375 L24.9453125,2.3359375 L26.078125,2.3359375 L26.078125,0 Z"/></g></g></g></svg>