<svg xmlns="http://www.w3.org/2000/svg" xmlns:xlink="http://www.w3.org/1999/xlink" width="514" height="56" viewBox="0 0 514 56"><defs><path id="a" d="M0,0 L514,0 L514,56 L0,56 L0,0 Z"/></defs><g fill="none" fill-rule="evenodd"><use xlink:href="#a" fill="#FFF"/><g transform="translate(1 1)"><rect width="90" height="54" fill="#B9D6E5" stroke="#183544" stroke-width=".5"/><g fill="#183544" fill-rule="nonzero" transform="translate(15 18)"><path d="M4.5625 14.0546875C5.21875 14.0546875 5.76432292 13.7799479 6.19921875 13.2304688 6.63411458 12.6809896 6.8515625 11.859375 6.8515625 10.765625 6.8515625 10.0989583 6.75520833 9.52604167 6.5625 9.046875 6.19791667 8.125 5.53125 7.6640625 4.5625 7.6640625 3.58854167 7.6640625 2.921875 8.15104167 2.5625 9.125 2.36979167 9.64583333 2.2734375 10.3072917 2.2734375 11.109375 2.2734375 11.7552083 2.36979167 12.3046875 2.5625 12.7578125 2.92708333 13.6223958 3.59375 14.0546875 4.5625 14.0546875ZM.921875 6.671875 2.2890625 6.671875 2.2890625 7.78125C2.5703125 7.40104167 2.87760417 7.10677083 3.2109375 6.8984375 3.68489583 6.5859375 4.2421875 6.4296875 4.8828125 6.4296875 5.83072917 6.4296875 6.63541667 6.79296875 7.296875 7.51953125 7.95833333 8.24609375 8.2890625 9.28385417 8.2890625 10.6328125 8.2890625 12.4557292 7.8125 13.7578125 6.859375 14.5390625 6.25520833 15.0338542 5.55208333 15.28125 4.75 15.28125 4.11979167 15.28125 3.59114583 15.1432292 3.1640625 14.8671875 2.9140625 14.7109375 2.63541667 14.4427083 2.328125 14.0625L2.328125 18.3359375.921875 18.3359375.921875 6.671875ZM9.96875 6.6328125 11.3046875 6.6328125 11.3046875 8.078125C11.4140625 7.796875 11.6822917 7.45442708 12.109375 7.05078125 12.5364583 6.64713542 13.0286458 6.4453125 13.5859375 6.4453125 13.6119792 6.4453125 13.65625 6.44791667 13.71875 6.453125 13.78125 6.45833333 13.8880208 6.46875 14.0390625 6.484375L14.0390625 7.96875C13.9557292 7.953125 13.8789062 7.94270833 13.8085938 7.9375 13.7382812 7.93229167 13.6614583 7.9296875 13.578125 7.9296875 12.8697917 7.9296875 12.3255208 8.15755208 11.9453125 8.61328125 11.5651042 9.06901042 11.375 9.59375 11.375 10.1875L11.375 15 9.96875 15 9.96875 6.6328125ZM18.7421875 6.4453125C19.3359375 6.4453125 19.9114583 6.58463542 20.46875 6.86328125 21.0260417 7.14192708 21.4505208 7.50260417 21.7421875 7.9453125 22.0234375 8.3671875 22.2109375 8.859375 22.3046875 9.421875 22.3880208 9.80729167 22.4296875 10.421875 22.4296875 11.265625L16.296875 11.265625C16.3229167 12.1145833 16.5234375 12.7955729 16.8984375 13.3085938 17.2734375 13.8216146 17.8541667 14.078125 18.640625 14.078125 19.375 14.078125 19.9609375 13.8359375 20.3984375 13.3515625 20.6484375 13.0703125 20.8255208 12.7447917 20.9296875 12.375L22.3125 12.375C22.2760417 12.6822917 22.1549479 13.0247396 21.9492188 13.4023438 21.7434896 13.7799479 21.5130208 14.0885417 21.2578125 14.328125 20.8307292 14.7447917 20.3020833 15.0260417 19.671875 15.171875 19.3333333 15.2552083 18.9505208 15.296875 18.5234375 15.296875 17.4817708 15.296875 16.5989583 14.9179688 15.875 14.1601562 15.1510417 13.4023438 14.7890625 12.3411458 14.7890625 10.9765625 14.7890625 9.6328125 15.1536458 8.54166667 15.8828125 7.703125 16.6119792 6.86458333 17.5651042 6.4453125 18.7421875 6.4453125ZM20.984375 10.1484375C20.9270833 9.5390625 20.7942708 9.05208333 20.5859375 8.6875 20.2005208 8.01041667 19.5572917 7.671875 18.65625 7.671875 18.0104167 7.671875 17.46875 7.90494792 17.03125 8.37109375 16.59375 8.83723958 16.3619792 9.4296875 16.3359375 10.1484375L20.984375 10.1484375Z"/><polygon points="24.844 6.633 27.078 13.445 29.414 6.633 30.953 6.633 27.797 15 26.297 15 23.211 6.633"/><path d="M32.15625 6.671875 33.5859375 6.671875 33.5859375 15 32.15625 15 32.15625 6.671875ZM32.15625 3.5234375 33.5859375 3.5234375 33.5859375 5.1171875 32.15625 5.1171875 32.15625 3.5234375ZM39.03125 14.09375C39.9635417 14.09375 40.6028646 13.7408854 40.9492188 13.0351562 41.2955729 12.3294271 41.46875 11.5442708 41.46875 10.6796875 41.46875 9.8984375 41.34375 9.26302083 41.09375 8.7734375 40.6979167 8.00260417 40.015625 7.6171875 39.046875 7.6171875 38.1875 7.6171875 37.5625 7.9453125 37.171875 8.6015625 36.78125 9.2578125 36.5859375 10.0494792 36.5859375 10.9765625 36.5859375 11.8671875 36.78125 12.609375 37.171875 13.203125 37.5625 13.796875 38.1822917 14.09375 39.03125 14.09375ZM39.0859375 6.390625C40.1640625 6.390625 41.0755208 6.75 41.8203125 7.46875 42.5651042 8.1875 42.9375 9.24479167 42.9375 10.640625 42.9375 11.9895833 42.609375 13.1041667 41.953125 13.984375 41.296875 14.8645833 40.2786458 15.3046875 38.8984375 15.3046875 37.7473958 15.3046875 36.8333333 14.9153646 36.15625 14.1367188 35.4791667 13.3580729 35.140625 12.3125 35.140625 11 35.140625 9.59375 35.4973958 8.47395833 36.2109375 7.640625 36.9244792 6.80729167 37.8828125 6.390625 39.0859375 6.390625ZM46.015625 6.6328125 46.015625 12.1875C46.015625 12.6145833 46.0833333 12.9635417 46.21875 13.234375 46.46875 13.734375 46.9348958 13.984375 47.6171875 13.984375 48.5963542 13.984375 49.2630208 13.546875 49.6171875 12.671875 49.8098958 12.203125 49.90625 11.5598958 49.90625 10.7421875L49.90625 6.6328125 51.3125 6.6328125 51.3125 15 49.984375 15 50 13.765625C49.8177083 14.0833333 49.5911458 14.3515625 49.3203125 14.5703125 48.7838542 15.0078125 48.1328125 15.2265625 47.3671875 15.2265625 46.1744792 15.2265625 45.3619792 14.828125 44.9296875 14.03125 44.6953125 13.6041667 44.578125 13.0338542 44.578125 12.3203125L44.578125 6.6328125 46.015625 6.6328125ZM54.34375 12.375C54.3854167 12.84375 54.5026042 13.203125 54.6953125 13.453125 55.0494792 13.90625 55.6640625 14.1328125 56.5390625 14.1328125 57.0598958 14.1328125 57.5182292 14.0195312 57.9140625 13.7929688 58.3098958 13.5664062 58.5078125 13.2161458 58.5078125 12.7421875 58.5078125 12.3828125 58.3489583 12.109375 58.03125 11.921875 57.828125 11.8072917 57.4270833 11.6744792 56.828125 11.5234375L55.7109375 11.2421875C54.9973958 11.0651042 54.4713542 10.8671875 54.1328125 10.6484375 53.5286458 10.2682292 53.2265625 9.7421875 53.2265625 9.0703125 53.2265625 8.27864583 53.5117188 7.63802083 54.0820312 7.1484375 54.6523438 6.65885417 55.4192708 6.4140625 56.3828125 6.4140625 57.6432292 6.4140625 58.5520833 6.78385417 59.109375 7.5234375 59.4583333 7.9921875 59.6276042 8.49739583 59.6171875 9.0390625L58.2890625 9.0390625C58.2630208 8.72135417 58.1510417 8.43229167 57.953125 8.171875 57.6302083 7.80208333 57.0703125 7.6171875 56.2734375 7.6171875 55.7421875 7.6171875 55.3398438 7.71875 55.0664062 7.921875 54.7929688 8.125 54.65625 8.39322917 54.65625 8.7265625 54.65625 9.09114583 54.8359375 9.3828125 55.1953125 9.6015625 55.4036458 9.73177083 55.7109375 9.84635417 56.1171875 9.9453125L57.046875 10.171875C58.0572917 10.4166667 58.734375 10.6536458 59.078125 10.8828125 59.625 11.2421875 59.8984375 11.8072917 59.8984375 12.578125 59.8984375 13.3229167 59.6158854 13.9661458 59.0507812 14.5078125 58.4856771 15.0494792 57.625 15.3203125 56.46875 15.3203125 55.2239583 15.3203125 54.3424479 15.0377604 53.8242188 14.4726562 53.3059896 13.9075521 53.0286458 13.2083333 52.9921875 12.375L54.34375 12.375Z"/></g></g><g transform="translate(103 1)"><rect width="54" height="54" fill="#B9D6E5" stroke="#183544" stroke-width=".5"/><rect width="44" height="44" x="5" y="5" fill="#183544"/><path fill="#FFF" fill-rule="nonzero" d="M1.53125,7.078125 L1.53125,6 C2.546875,5.90104167 3.25520833,5.73567708 3.65625,5.50390625 C4.05729167,5.27213542 4.35677083,4.72395833 4.5546875,3.859375 L5.6640625,3.859375 L5.6640625,15 L4.1640625,15 L4.1640625,7.078125 L1.53125,7.078125 Z" transform="translate(23 18)"/></g><g transform="translate(167 1)"><rect width="54" height="54" fill="#B9D6E5" stroke="#183544" stroke-width=".5"/><path fill="#183544" fill-rule="nonzero" d="M0.5,15 C0.552083333,14.0364583 0.751302083,13.1979167 1.09765625,12.484375 C1.44401042,11.7708333 2.11979167,11.1223958 3.125,10.5390625 L4.625,9.671875 C5.296875,9.28125 5.76822917,8.94791667 6.0390625,8.671875 C6.46614583,8.23958333 6.6796875,7.74479167 6.6796875,7.1875 C6.6796875,6.53645833 6.484375,6.01953125 6.09375,5.63671875 C5.703125,5.25390625 5.18229167,5.0625 4.53125,5.0625 C3.56770833,5.0625 2.90104167,5.42708333 2.53125,6.15625 C2.33333333,6.546875 2.22395833,7.08854167 2.203125,7.78125 L0.7734375,7.78125 C0.7890625,6.80729167 0.96875,6.01302083 1.3125,5.3984375 C1.921875,4.31510417 2.99739583,3.7734375 4.5390625,3.7734375 C5.8203125,3.7734375 6.75651042,4.11979167 7.34765625,4.8125 C7.93880208,5.50520833 8.234375,6.27604167 8.234375,7.125 C8.234375,8.02083333 7.91927083,8.78645833 7.2890625,9.421875 C6.92447917,9.79166667 6.27083333,10.2395833 5.328125,10.765625 L4.2578125,11.359375 C3.74739583,11.640625 3.34635417,11.9088542 3.0546875,12.1640625 C2.53385417,12.6171875 2.20572917,13.1197917 2.0703125,13.671875 L8.1796875,13.671875 L8.1796875,15 L0.5,15 Z" transform="translate(23 18)"/></g><g transform="translate(231 1)"><rect width="54" height="54" fill="#B9D6E5" stroke="#183544" stroke-width=".5"/><path fill="#183544" fill-rule="nonzero" d="M4.15625,15.3046875 C2.83333333,15.3046875 1.87369792,14.9414062 1.27734375,14.2148438 C0.680989583,13.4882812 0.3828125,12.6041667 0.3828125,11.5625 L1.8515625,11.5625 C1.9140625,12.2864583 2.04947917,12.8125 2.2578125,13.140625 C2.62239583,13.7291667 3.28125,14.0234375 4.234375,14.0234375 C4.97395833,14.0234375 5.56770833,13.8255208 6.015625,13.4296875 C6.46354167,13.0338542 6.6875,12.5234375 6.6875,11.8984375 C6.6875,11.1276042 6.45182292,10.5885417 5.98046875,10.28125 C5.50911458,9.97395833 4.85416667,9.8203125 4.015625,9.8203125 C3.921875,9.8203125 3.82682292,9.82161458 3.73046875,9.82421875 C3.63411458,9.82682292 3.53645833,9.83072917 3.4375,9.8359375 L3.4375,8.59375 C3.58333333,8.609375 3.70572917,8.61979167 3.8046875,8.625 C3.90364583,8.63020833 4.01041667,8.6328125 4.125,8.6328125 C4.65104167,8.6328125 5.08333333,8.54947917 5.421875,8.3828125 C6.015625,8.09114583 6.3125,7.5703125 6.3125,6.8203125 C6.3125,6.26302083 6.11458333,5.83333333 5.71875,5.53125 C5.32291667,5.22916667 4.86197917,5.078125 4.3359375,5.078125 C3.3984375,5.078125 2.75,5.390625 2.390625,6.015625 C2.19270833,6.359375 2.08072917,6.84895833 2.0546875,7.484375 L0.6640625,7.484375 C0.6640625,6.65104167 0.830729167,5.94270833 1.1640625,5.359375 C1.73697917,4.31770833 2.74479167,3.796875 4.1875,3.796875 C5.328125,3.796875 6.2109375,4.05078125 6.8359375,4.55859375 C7.4609375,5.06640625 7.7734375,5.80208333 7.7734375,6.765625 C7.7734375,7.453125 7.58854167,8.01041667 7.21875,8.4375 C6.98958333,8.703125 6.69270833,8.91145833 6.328125,9.0625 C6.91666667,9.22395833 7.37630208,9.53515625 7.70703125,9.99609375 C8.03776042,10.4570312 8.203125,11.0208333 8.203125,11.6875 C8.203125,12.7552083 7.8515625,13.625 7.1484375,14.296875 C6.4453125,14.96875 5.44791667,15.3046875 4.15625,15.3046875 Z" transform="translate(22.5 18)"/></g><g transform="translate(295 1)"><rect width="54" height="54" fill="#B9D6E5" stroke="#183544" stroke-width=".5"/><path fill="#183544" fill-rule="nonzero" d="M5.2890625,11.0390625 L5.2890625,5.96875 L1.703125,11.0390625 L5.2890625,11.0390625 Z M5.3125,15 L5.3125,12.265625 L0.40625,12.265625 L0.40625,10.890625 L5.53125,3.78125 L6.71875,3.78125 L6.71875,11.0390625 L8.3671875,11.0390625 L8.3671875,12.265625 L6.71875,12.265625 L6.71875,15 L5.3125,15 Z" transform="translate(22.5 18)"/></g><g transform="translate(359 1)"><rect width="54" height="54" fill="#B9D6E5" stroke="#183544" stroke-width=".5"/><path fill="#183544" fill-rule="nonzero" d="M1.9765625,12.1484375 C2.0703125,12.9505208 2.44270833,13.5052083 3.09375,13.8125 C3.42708333,13.96875 3.8125,14.046875 4.25,14.046875 C5.08333333,14.046875 5.70052083,13.78125 6.1015625,13.25 C6.50260417,12.71875 6.703125,12.1302083 6.703125,11.484375 C6.703125,10.703125 6.46484375,10.0989583 5.98828125,9.671875 C5.51171875,9.24479167 4.94010417,9.03125 4.2734375,9.03125 C3.7890625,9.03125 3.37369792,9.125 3.02734375,9.3125 C2.68098958,9.5 2.38541667,9.76041667 2.140625,10.09375 L0.921875,10.0234375 L1.7734375,4 L7.5859375,4 L7.5859375,5.359375 L2.828125,5.359375 L2.3515625,8.46875 C2.61197917,8.27083333 2.859375,8.12239583 3.09375,8.0234375 C3.51041667,7.8515625 3.9921875,7.765625 4.5390625,7.765625 C5.56510417,7.765625 6.43489583,8.09635417 7.1484375,8.7578125 C7.86197917,9.41927083 8.21875,10.2578125 8.21875,11.2734375 C8.21875,12.3307292 7.89192708,13.2630208 7.23828125,14.0703125 C6.58463542,14.8776042 5.54166667,15.28125 4.109375,15.28125 C3.19791667,15.28125 2.39192708,15.0247396 1.69140625,14.5117188 C0.990885417,13.9986979 0.598958333,13.2109375 0.515625,12.1484375 L1.9765625,12.1484375 Z" transform="translate(22.5 18)"/></g><g transform="translate(423 1)"><rect width="90" height="54" fill="#B9D6E5" stroke="#183544" stroke-width=".5"/><g fill="#183544" fill-rule="nonzero" transform="translate(30 17)"><path d="M1.03125 6.6328125 2.3671875 6.6328125 2.3671875 7.8203125C2.76302083 7.33072917 3.18229167 6.97916667 3.625 6.765625 4.06770833 6.55208333 4.55989583 6.4453125 5.1015625 6.4453125 6.2890625 6.4453125 7.09114583 6.859375 7.5078125 7.6875 7.73697917 8.140625 7.8515625 8.7890625 7.8515625 9.6328125L7.8515625 15 6.421875 15 6.421875 9.7265625C6.421875 9.21614583 6.34635417 8.8046875 6.1953125 8.4921875 5.9453125 7.97135417 5.4921875 7.7109375 4.8359375 7.7109375 4.50260417 7.7109375 4.22916667 7.74479167 4.015625 7.8125 3.63020833 7.92708333 3.29166667 8.15625 3 8.5 2.765625 8.77604167 2.61328125 9.06119792 2.54296875 9.35546875 2.47265625 9.64973958 2.4375 10.0703125 2.4375 10.6171875L2.4375 15 1.03125 15 1.03125 6.6328125ZM13.4140625 6.4453125C14.0078125 6.4453125 14.5833333 6.58463542 15.140625 6.86328125 15.6979167 7.14192708 16.1223958 7.50260417 16.4140625 7.9453125 16.6953125 8.3671875 16.8828125 8.859375 16.9765625 9.421875 17.0598958 9.80729167 17.1015625 10.421875 17.1015625 11.265625L10.96875 11.265625C10.9947917 12.1145833 11.1953125 12.7955729 11.5703125 13.3085938 11.9453125 13.8216146 12.5260417 14.078125 13.3125 14.078125 14.046875 14.078125 14.6328125 13.8359375 15.0703125 13.3515625 15.3203125 13.0703125 15.4973958 12.7447917 15.6015625 12.375L16.984375 12.375C16.9479167 12.6822917 16.8268229 13.0247396 16.6210938 13.4023438 16.4153646 13.7799479 16.1848958 14.0885417 15.9296875 14.328125 15.5026042 14.7447917 14.9739583 15.0260417 14.34375 15.171875 14.0052083 15.2552083 13.6223958 15.296875 13.1953125 15.296875 12.1536458 15.296875 11.2708333 14.9179688 10.546875 14.1601562 9.82291667 13.4023438 9.4609375 12.3411458 9.4609375 10.9765625 9.4609375 9.6328125 9.82552083 8.54166667 10.5546875 7.703125 11.2838542 6.86458333 12.2369792 6.4453125 13.4140625 6.4453125ZM15.65625 10.1484375C15.5989583 9.5390625 15.4661458 9.05208333 15.2578125 8.6875 14.8723958 8.01041667 14.2291667 7.671875 13.328125 7.671875 12.6822917 7.671875 12.140625 7.90494792 11.703125 8.37109375 11.265625 8.83723958 11.0338542 9.4296875 11.0078125 10.1484375L15.65625 10.1484375Z"/><polygon points="18.031 6.633 19.852 6.633 21.773 9.578 23.719 6.633 25.43 6.672 22.609 10.711 25.555 15 23.758 15 21.68 11.859 19.664 15 17.883 15 20.828 10.711"/><path d="M27.109375,4.296875 L28.53125,4.296875 L28.53125,6.6328125 L29.8671875,6.6328125 L29.8671875,7.78125 L28.53125,7.78125 L28.53125,13.2421875 C28.53125,13.5338542 28.6302083,13.7291667 28.828125,13.828125 C28.9375,13.8854167 29.1197917,13.9140625 29.375,13.9140625 C29.4427083,13.9140625 29.515625,13.9127604 29.59375,13.9101562 C29.671875,13.9075521 29.7630208,13.9010417 29.8671875,13.890625 L29.8671875,15 C29.7057292,15.046875 29.5377604,15.0807292 29.3632812,15.1015625 C29.1888021,15.1223958 29,15.1328125 28.796875,15.1328125 C28.140625,15.1328125 27.6953125,14.9648438 27.4609375,14.6289062 C27.2265625,14.2929688 27.109375,13.8567708 27.109375,13.3203125 L27.109375,7.78125 L25.9765625,7.78125 L25.9765625,6.6328125 L27.109375,6.6328125 L27.109375,4.296875 Z"/></g></g></g></svg>