<svg xmlns="http://www.w3.org/2000/svg" xmlns:xlink="http://www.w3.org/1999/xlink" width="450" height="46" viewBox="0 0 450 46"><defs><path id="a" d="M0,0 L450,0 L450,46 L0,46 L0,0 Z"/></defs><g fill="none" fill-rule="evenodd"><use xlink:href="#a" fill="#FFF"/><g transform="translate(1 1)"><rect width="90" height="44" fill="#B9D6E5" fill-rule="nonzero" stroke="#183544" stroke-width=".5"/><g fill="#183544" fill-rule="nonzero" transform="translate(15 11.5)"><path d="M4.5625,14.0546875 C5.21875,14.0546875 5.76432292,13.7799479 6.19921875,13.2304688 C6.63411458,12.6809896 6.8515625,11.859375 6.8515625,10.765625 C6.8515625,10.0989583 6.75520833,9.52604167 6.5625,9.046875 C6.19791667,8.125 5.53125,7.6640625 4.5625,7.6640625 C3.58854167,7.6640625 2.921875,8.15104167 2.5625,9.125 C2.36979167,9.64583333 2.2734375,10.3072917 2.2734375,11.109375 C2.2734375,11.7552083 2.36979167,12.3046875 2.5625,12.7578125 C2.92708333,13.6223958 3.59375,14.0546875 4.5625,14.0546875 Z M0.921875,6.671875 L2.2890625,6.671875 L2.2890625,7.78125 C2.5703125,7.40104167 2.87760417,7.10677083 3.2109375,6.8984375 C3.68489583,6.5859375 4.2421875,6.4296875 4.8828125,6.4296875 C5.83072917,6.4296875 6.63541667,6.79296875 7.296875,7.51953125 C7.95833333,8.24609375 8.2890625,9.28385417 8.2890625,10.6328125 C8.2890625,12.4557292 7.8125,13.7578125 6.859375,14.5390625 C6.25520833,15.0338542 5.55208333,15.28125 4.75,15.28125 C4.11979167,15.28125 3.59114583,15.1432292 3.1640625,14.8671875 C2.9140625,14.7109375 2.63541667,14.4427083 2.328125,14.0625 L2.328125,18.3359375 L0.921875,18.3359375 L0.921875,6.671875 Z M9.96875,6.6328125 L11.3046875,6.6328125 L11.3046875,8.078125 C11.4140625,7.796875 11.6822917,7.45442708 12.109375,7.05078125 C12.5364583,6.64713542 13.0286458,6.4453125 13.5859375,6.4453125 C13.6119792,6.4453125 13.65625,6.44791667 13.71875,6.453125 C13.78125,6.45833333 13.8880208,6.46875 14.0390625,6.484375 L14.0390625,7.96875 C13.9557292,7.953125 13.8789062,7.94270833 13.8085938,7.9375 C13.7382812,7.93229167 13.6614583,7.9296875 13.578125,7.9296875 C12.8697917,7.9296875 12.3255208,8.15755208 11.9453125,8.61328125 C11.5651042,9.06901042 11.375,9.59375 11.375,10.1875 L11.375,15 L9.96875,15 L9.96875,6.6328125 Z M18.7421875,6.4453125 C19.3359375,6.4453125 19.9114583,6.58463542 20.46875,6.86328125 C21.0260417,7.14192708 21.4505208,7.50260417 21.7421875,7.9453125 C22.0234375,8.3671875 22.2109375,8.859375 22.3046875,9.421875 C22.3880208,9.80729167 22.4296875,10.421875 22.4296875,11.265625 L16.296875,11.265625 C16.3229167,12.1145833 16.5234375,12.7955729 16.8984375,13.3085938 C17.2734375,13.8216146 17.8541667,14.078125 18.640625,14.078125 C19.375,14.078125 19.9609375,13.8359375 20.3984375,13.3515625 C20.6484375,13.0703125 20.8255208,12.7447917 20.9296875,12.375 L22.3125,12.375 C22.2760417,12.6822917 22.1549479,13.0247396 21.9492188,13.4023438 C21.7434896,13.7799479 21.5130208,14.0885417 21.2578125,14.328125 C20.8307292,14.7447917 20.3020833,15.0260417 19.671875,15.171875 C19.3333333,15.2552083 18.9505208,15.296875 18.5234375,15.296875 C17.4817708,15.296875 16.5989583,14.9179688 15.875,14.1601562 C15.1510417,13.4023438 14.7890625,12.3411458 14.7890625,10.9765625 C14.7890625,9.6328125 15.1536458,8.54166667 15.8828125,7.703125 C16.6119792,6.86458333 17.5651042,6.4453125 18.7421875,6.4453125 Z M20.984375,10.1484375 C20.9270833,9.5390625 20.7942708,9.05208333 20.5859375,8.6875 C20.2005208,8.01041667 19.5572917,7.671875 18.65625,7.671875 C18.0104167,7.671875 17.46875,7.90494792 17.03125,8.37109375 C16.59375,8.83723958 16.3619792,9.4296875 16.3359375,10.1484375 L20.984375,10.1484375 Z"/><polygon points="24.844 6.633 27.078 13.445 29.414 6.633 30.953 6.633 27.797 15 26.297 15 23.211 6.633"/><path d="M32.15625,6.671875 L33.5859375,6.671875 L33.5859375,15 L32.15625,15 L32.15625,6.671875 Z M32.15625,3.5234375 L33.5859375,3.5234375 L33.5859375,5.1171875 L32.15625,5.1171875 L32.15625,3.5234375 Z M39.03125,14.09375 C39.9635417,14.09375 40.6028646,13.7408854 40.9492188,13.0351562 C41.2955729,12.3294271 41.46875,11.5442708 41.46875,10.6796875 C41.46875,9.8984375 41.34375,9.26302083 41.09375,8.7734375 C40.6979167,8.00260417 40.015625,7.6171875 39.046875,7.6171875 C38.1875,7.6171875 37.5625,7.9453125 37.171875,8.6015625 C36.78125,9.2578125 36.5859375,10.0494792 36.5859375,10.9765625 C36.5859375,11.8671875 36.78125,12.609375 37.171875,13.203125 C37.5625,13.796875 38.1822917,14.09375 39.03125,14.09375 Z M39.0859375,6.390625 C40.1640625,6.390625 41.0755208,6.75 41.8203125,7.46875 C42.5651042,8.1875 42.9375,9.24479167 42.9375,10.640625 C42.9375,11.9895833 42.609375,13.1041667 41.953125,13.984375 C41.296875,14.8645833 40.2786458,15.3046875 38.8984375,15.3046875 C37.7473958,15.3046875 36.8333333,14.9153646 36.15625,14.1367188 C35.4791667,13.3580729 35.140625,12.3125 35.140625,11 C35.140625,9.59375 35.4973958,8.47395833 36.2109375,7.640625 C36.9244792,6.80729167 37.8828125,6.390625 39.0859375,6.390625 Z M46.015625,6.6328125 L46.015625,12.1875 C46.015625,12.6145833 46.0833333,12.9635417 46.21875,13.234375 C46.46875,13.734375 46.9348958,13.984375 47.6171875,13.984375 C48.5963542,13.984375 49.2630208,13.546875 49.6171875,12.671875 C49.8098958,12.203125 49.90625,11.5598958 49.90625,10.7421875 L49.90625,6.6328125 L51.3125,6.6328125 L51.3125,15 L49.984375,15 L50,13.765625 C49.8177083,14.0833333 49.5911458,14.3515625 49.3203125,14.5703125 C48.7838542,15.0078125 48.1328125,15.2265625 47.3671875,15.2265625 C46.1744792,15.2265625 45.3619792,14.828125 44.9296875,14.03125 C44.6953125,13.6041667 44.578125,13.0338542 44.578125,12.3203125 L44.578125,6.6328125 L46.015625,6.6328125 Z M54.34375,12.375 C54.3854167,12.84375 54.5026042,13.203125 54.6953125,13.453125 C55.0494792,13.90625 55.6640625,14.1328125 56.5390625,14.1328125 C57.0598958,14.1328125 57.5182292,14.0195312 57.9140625,13.7929688 C58.3098958,13.5664062 58.5078125,13.2161458 58.5078125,12.7421875 C58.5078125,12.3828125 58.3489583,12.109375 58.03125,11.921875 C57.828125,11.8072917 57.4270833,11.6744792 56.828125,11.5234375 L55.7109375,11.2421875 C54.9973958,11.0651042 54.4713542,10.8671875 54.1328125,10.6484375 C53.5286458,10.2682292 53.2265625,9.7421875 53.2265625,9.0703125 C53.2265625,8.27864583 53.5117188,7.63802083 54.0820312,7.1484375 C54.6523438,6.65885417 55.4192708,6.4140625 56.3828125,6.4140625 C57.6432292,6.4140625 58.5520833,6.78385417 59.109375,7.5234375 C59.4583333,7.9921875 59.6276042,8.49739583 59.6171875,9.0390625 L58.2890625,9.0390625 C58.2630208,8.72135417 58.1510417,8.43229167 57.953125,8.171875 C57.6302083,7.80208333 57.0703125,7.6171875 56.2734375,7.6171875 C55.7421875,7.6171875 55.3398438,7.71875 55.0664062,7.921875 C54.7929688,8.125 54.65625,8.39322917 54.65625,8.7265625 C54.65625,9.09114583 54.8359375,9.3828125 55.1953125,9.6015625 C55.4036458,9.73177083 55.7109375,9.84635417 56.1171875,9.9453125 L57.046875,10.171875 C58.0572917,10.4166667 58.734375,10.6536458 59.078125,10.8828125 C59.625,11.2421875 59.8984375,11.8072917 59.8984375,12.578125 C59.8984375,13.3229167 59.6158854,13.9661458 59.0507812,14.5078125 C58.4856771,15.0494792 57.625,15.3203125 56.46875,15.3203125 C55.2239583,15.3203125 54.3424479,15.0377604 53.8242188,14.4726562 C53.3059896,13.9075521 53.0286458,13.2083333 52.9921875,12.375 L54.34375,12.375 Z"/></g></g><g transform="translate(99 1)"><g fill-rule="nonzero"><rect width="44" height="44" fill="#B9D6E5" stroke="#183544" stroke-width=".5"/><rect width="44" height="44" fill="#183544"/></g><path fill="#FFF" fill-rule="nonzero" d="M20,19.21875 L20,18.140625 C21.015625,18.0416667 21.7239583,17.8763021 22.125,17.6445312 C22.5260417,17.4127604 22.8255208,16.8645833 23.0234375,16 L24.1328125,16 L24.1328125,27.140625 L22.6328125,27.140625 L22.6328125,19.21875 L20,19.21875 Z"/></g><g transform="translate(151 1)"><rect width="44" height="44" fill="#B9D6E5" fill-rule="nonzero" stroke="#183544" stroke-width=".5"/><path fill="#183544" fill-rule="nonzero" d="M19.1481481,26.8888889 C19.1905864,26.1037808 19.3529128,25.4205247 19.6351273,24.8391204 C19.9173418,24.257716 20.4679784,23.7293595 21.287037,23.2540509 L22.5092593,22.5474537 C23.056713,22.2291667 23.4407793,21.9575617 23.6614583,21.7326389 C24.0094522,21.3804012 24.1834491,20.9772377 24.1834491,20.5231481 C24.1834491,19.9926698 24.0243056,19.5714699 23.7060185,19.2595486 C23.3877315,18.9476273 22.9633488,18.7916667 22.4328704,18.7916667 C21.6477623,18.7916667 21.1045525,19.0887346 20.8032407,19.6828704 C20.6419753,20.0011574 20.5528549,20.4425154 20.5358796,21.0069444 L19.3709491,21.0069444 C19.3836806,20.2133488 19.5300926,19.5661651 19.8101852,19.0653935 C20.306713,18.1826775 21.1830633,17.7413194 22.4392361,17.7413194 C23.4832176,17.7413194 24.2460455,18.023534 24.7277199,18.587963 C25.2093943,19.152392 25.4502315,19.7804784 25.4502315,20.4722222 C25.4502315,21.2021605 25.1934799,21.8260031 24.6799769,22.34375 C24.382909,22.6450617 23.8503086,23.0100308 23.0821759,23.4386574 L22.2100694,23.9224537 C21.7941744,24.1516204 21.4673997,24.3701775 21.2297454,24.578125 C20.8053627,24.947338 20.5380015,25.3568673 20.427662,25.806713 L25.4056713,25.806713 L25.4056713,26.8888889 L19.1481481,26.8888889 Z"/></g><g transform="translate(203 1)"><rect width="44" height="44" fill="#B9D6E5" fill-rule="nonzero" stroke="#183544" stroke-width=".5"/><path fill="#183544" fill-rule="nonzero" d="M21.7199074,27.1371528 C20.6419753,27.1371528 19.8600502,26.8411458 19.3741319,26.249132 C18.8882137,25.657118 18.6452546,24.9367284 18.6452546,24.087963 L19.8420139,24.087963 C19.8929398,24.6778549 20.0032793,25.1064815 20.1730324,25.3738426 C20.4701003,25.8533951 21.0069444,26.0931713 21.7835648,26.0931713 C22.3861883,26.0931713 22.8699846,25.9319058 23.2349537,25.609375 C23.5999228,25.2868442 23.7824074,24.8709491 23.7824074,24.3616898 C23.7824074,23.7336034 23.5903742,23.2943673 23.2063079,23.0439815 C22.8222415,22.7935957 22.2885802,22.6684028 21.6053241,22.6684028 C21.5289352,22.6684028 21.4514853,22.6694637 21.3729745,22.6715856 C21.2944637,22.6737076 21.214892,22.6768904 21.1342593,22.6811343 L21.1342593,21.6689815 C21.2530864,21.681713 21.3528164,21.6902006 21.4334491,21.6944444 C21.5140818,21.6986883 21.6010802,21.7008102 21.6944444,21.7008102 C22.123071,21.7008102 22.4753086,21.632909 22.7511574,21.4971065 C23.2349537,21.2594522 23.4768519,20.8350694 23.4768519,20.2239583 C23.4768519,19.7698688 23.3155864,19.4197531 22.9930556,19.1736111 C22.6705247,18.9274691 22.294946,18.8043981 21.8663194,18.8043981 C21.1024306,18.8043981 20.5740741,19.0590278 20.28125,19.568287 C20.1199846,19.8483796 20.0287423,20.2472994 20.0075231,20.7650463 L18.8744213,20.7650463 C18.8744213,20.086034 19.0102238,19.5088735 19.2818287,19.0335648 C19.7486497,18.1847994 20.5698302,17.7604167 21.7453704,17.7604167 C22.6747685,17.7604167 23.3940972,17.9673032 23.9033565,18.3810764 C24.4126157,18.7948495 24.6672454,19.3942901 24.6672454,20.1793981 C24.6672454,20.7395833 24.5165895,21.1936728 24.2152778,21.5416667 C24.0285494,21.7581019 23.7866512,21.9278549 23.4895833,22.0509259 C23.9691358,22.1824846 24.3436535,22.4360532 24.6131366,22.8116319 C24.8826196,23.1872106 25.0173611,23.6466049 25.0173611,24.1898148 C25.0173611,25.0597994 24.7309028,25.7685185 24.1579861,26.3159722 C23.5850694,26.8634259 22.7723765,27.1371528 21.7199074,27.1371528 Z"/></g><g transform="translate(255 1)"><rect width="44" height="44" fill="#B9D6E5" fill-rule="nonzero" stroke="#183544" stroke-width=".5"/><path fill="#183544" fill-rule="nonzero" d="M22.6429398,23.6614583 L22.6429398,19.5300926 L19.7210648,23.6614583 L22.6429398,23.6614583 Z M22.662037,26.8888889 L22.662037,24.6608796 L18.6643519,24.6608796 L18.6643519,23.5405093 L22.8402778,17.7476852 L23.8078704,17.7476852 L23.8078704,23.6614583 L25.1510417,23.6614583 L25.1510417,24.6608796 L23.8078704,24.6608796 L23.8078704,26.8888889 L22.662037,26.8888889 Z"/></g><g transform="translate(307 1)"><rect width="44" height="44" fill="#B9D6E5" fill-rule="nonzero" stroke="#183544" stroke-width=".5"/><path fill="#183544" fill-rule="nonzero" d="M19.9438657,24.5653935 C20.0202546,25.2189429 20.3236883,25.6709105 20.8541667,25.9212963 C21.1257716,26.0486111 21.4398148,26.1122685 21.7962963,26.1122685 C22.4753086,26.1122685 22.9782022,25.8958333 23.3049769,25.462963 C23.6317515,25.0300926 23.7951389,24.5505401 23.7951389,24.0243056 C23.7951389,23.3877315 23.6009838,22.8954475 23.2126736,22.5474537 C22.8243634,22.1994599 22.3586034,22.025463 21.8153935,22.025463 C21.4207176,22.025463 21.0822724,22.1018519 20.8000579,22.2546296 C20.5178434,22.4074074 20.2770062,22.6195988 20.0775463,22.8912037 L19.0844907,22.833912 L19.7783565,17.9259259 L24.5144676,17.9259259 L24.5144676,19.0335648 L20.6377315,19.0335648 L20.2494213,21.5671296 C20.4616127,21.4058642 20.6631944,21.2849151 20.8541667,21.2042824 C21.1936728,21.0642361 21.5862269,20.994213 22.0318287,20.994213 C22.8678627,20.994213 23.5765818,21.263696 24.1579861,21.802662 C24.7393904,22.3416281 25.0300926,23.0248843 25.0300926,23.8524306 C25.0300926,24.7139275 24.7637924,25.4735725 24.2311921,26.1313657 C23.6985918,26.789159 22.8487654,27.1180556 21.681713,27.1180556 C20.9390432,27.1180556 20.282311,26.9090471 19.7115162,26.4910301 C19.1407215,26.0730131 18.8213735,25.4311343 18.7534722,24.5653935 L19.9438657,24.5653935 Z"/></g><g transform="translate(359 1)"><rect width="90" height="44" fill="#B9D6E5" fill-rule="nonzero" stroke="#183544" stroke-width=".5"/><g fill="#183544" fill-rule="nonzero" transform="translate(30 12)"><path d="M1.03125,6.6328125 L2.3671875,6.6328125 L2.3671875,7.8203125 C2.76302083,7.33072917 3.18229167,6.97916667 3.625,6.765625 C4.06770833,6.55208333 4.55989583,6.4453125 5.1015625,6.4453125 C6.2890625,6.4453125 7.09114583,6.859375 7.5078125,7.6875 C7.73697917,8.140625 7.8515625,8.7890625 7.8515625,9.6328125 L7.8515625,15 L6.421875,15 L6.421875,9.7265625 C6.421875,9.21614583 6.34635417,8.8046875 6.1953125,8.4921875 C5.9453125,7.97135417 5.4921875,7.7109375 4.8359375,7.7109375 C4.50260417,7.7109375 4.22916667,7.74479167 4.015625,7.8125 C3.63020833,7.92708333 3.29166667,8.15625 3,8.5 C2.765625,8.77604167 2.61328125,9.06119792 2.54296875,9.35546875 C2.47265625,9.64973958 2.4375,10.0703125 2.4375,10.6171875 L2.4375,15 L1.03125,15 L1.03125,6.6328125 Z M13.4140625,6.4453125 C14.0078125,6.4453125 14.5833333,6.58463542 15.140625,6.86328125 C15.6979167,7.14192708 16.1223958,7.50260417 16.4140625,7.9453125 C16.6953125,8.3671875 16.8828125,8.859375 16.9765625,9.421875 C17.0598958,9.80729167 17.1015625,10.421875 17.1015625,11.265625 L10.96875,11.265625 C10.9947917,12.1145833 11.1953125,12.7955729 11.5703125,13.3085938 C11.9453125,13.8216146 12.5260417,14.078125 13.3125,14.078125 C14.046875,14.078125 14.6328125,13.8359375 15.0703125,13.3515625 C15.3203125,13.0703125 15.4973958,12.7447917 15.6015625,12.375 L16.984375,12.375 C16.9479167,12.6822917 16.8268229,13.0247396 16.6210938,13.4023438 C16.4153646,13.7799479 16.1848958,14.0885417 15.9296875,14.328125 C15.5026042,14.7447917 14.9739583,15.0260417 14.34375,15.171875 C14.0052083,15.2552083 13.6223958,15.296875 13.1953125,15.296875 C12.1536458,15.296875 11.2708333,14.9179688 10.546875,14.1601562 C9.82291667,13.4023438 9.4609375,12.3411458 9.4609375,10.9765625 C9.4609375,9.6328125 9.82552083,8.54166667 10.5546875,7.703125 C11.2838542,6.86458333 12.2369792,6.4453125 13.4140625,6.4453125 Z M15.65625,10.1484375 C15.5989583,9.5390625 15.4661458,9.05208333 15.2578125,8.6875 C14.8723958,8.01041667 14.2291667,7.671875 13.328125,7.671875 C12.6822917,7.671875 12.140625,7.90494792 11.703125,8.37109375 C11.265625,8.83723958 11.0338542,9.4296875 11.0078125,10.1484375 L15.65625,10.1484375 Z"/><polygon points="18.031 6.633 19.852 6.633 21.773 9.578 23.719 6.633 25.43 6.672 22.609 10.711 25.555 15 23.758 15 21.68 11.859 19.664 15 17.883 15 20.828 10.711"/><path d="M27.109375,4.296875 L28.53125,4.296875 L28.53125,6.6328125 L29.8671875,6.6328125 L29.8671875,7.78125 L28.53125,7.78125 L28.53125,13.2421875 C28.53125,13.5338542 28.6302083,13.7291667 28.828125,13.828125 C28.9375,13.8854167 29.1197917,13.9140625 29.375,13.9140625 C29.4427083,13.9140625 29.515625,13.9127604 29.59375,13.9101562 C29.671875,13.9075521 29.7630208,13.9010417 29.8671875,13.890625 L29.8671875,15 C29.7057292,15.046875 29.5377604,15.0807292 29.3632812,15.1015625 C29.1888021,15.1223958 29,15.1328125 28.796875,15.1328125 C28.140625,15.1328125 27.6953125,14.9648438 27.4609375,14.6289062 C27.2265625,14.2929688 27.109375,13.8567708 27.109375,13.3203125 L27.109375,7.78125 L25.9765625,7.78125 L25.9765625,6.6328125 L27.109375,6.6328125 L27.109375,4.296875 Z"/></g></g></g></svg>