<svg role="img" width="321" height="146" viewBox="0 0 321 146" fill="none" xmlns="http://www.w3.org/2000/svg">
  <title>Two star ratings, the first uses 5 stars with a black outline and a yellow or white fill, where yellow indicates checked. The second uses only pale yellow stars on white.</title>
  <rect width="321" height="146" fill="#fff"/>
  <path d="M46.02 22.32a.5.5 0 0 1 .96 0l5.3 16.3.33 1.03h18.23a.5.5 0 0 1 .3.9L57.27 50.64l-.88.64.33 1.04 5.3 16.3a.5.5 0 0 1-.77.56L47.38 59.09l-.88-.64-.88.64-13.87 10.08a.5.5 0 0 1-.77-.56l5.3-16.3.33-1.04-.88-.64-13.87-10.07a.5.5 0 0 1 .3-.9h18.23l.34-1.04zm57 0a.5.5 0 0 1 .96 0l5.3 16.3.33 1.03h18.23a.5.5 0 0 1 .3.9l-13.87 10.08-.88.64.33 1.04 5.3 16.3a.5.5 0 0 1-.77.56l-13.87-10.08-.88-.64-.88.64-13.87 10.08a.5.5 0 0 1-.77-.56l5.3-16.3.33-1.04-.88-.64-13.87-10.07a.5.5 0 0 1 .3-.9h18.23l.34-1.04z" fill="#fff000" stroke="#000" stroke-width="3" stroke-linejoin="round"/>
  <path d="M160.02 22.32a.5.5 0 0 1 .96 0l5.3 16.3.33 1.03h18.23a.5.5 0 0 1 .3.9l-13.87 10.08-.88.64.33 1.04 5.3 16.3a.5.5 0 0 1-.77.56l-13.87-10.08-.88-.64-.88.64-13.87 10.08a.5.5 0 0 1-.77-.56l5.3-16.3.33-1.04-.88-.64-13.87-10.07a.5.5 0 0 1 .3-.9h18.23l.34-1.04zm57 0a.5.5 0 0 1 .96 0l5.3 16.3.33 1.03h18.23a.5.5 0 0 1 .3.9l-13.87 10.08-.88.64.33 1.04 5.3 16.3a.5.5 0 0 1-.77.56l-13.87-10.08-.88-.64-.88.64-13.87 10.08a.5.5 0 0 1-.77-.56l5.3-16.3.33-1.04-.88-.64-13.87-10.07a.5.5 0 0 1 .3-.9h18.23l.34-1.04zm57 0a.5.5 0 0 1 .96 0l5.3 16.3.33 1.03h18.23a.5.5 0 0 1 .3.9l-13.87 10.08-.88.64.33 1.04 5.3 16.3a.5.5 0 0 1-.77.56l-13.87-10.08-.88-.64-.88.64-13.87 10.08a.5.5 0 0 1-.77-.56l5.3-16.3.33-1.04-.88-.64-13.87-10.07a.5.5 0 0 1 .3-.9h18.23l.34-1.04z" stroke="#000" stroke-width="3" stroke-linejoin="round"/>
  <path d="M44.6 77.85a2 2 0 0 1 3.8 0l5.3 16.3h17.14a2 2 0 0 1 1.18 3.62l-13.87 10.08 5.3 16.3a2 2 0 0 1-3.08 2.23L46.5 116.31l-13.87 10.07a2 2 0 0 1-3.08-2.23l5.3-16.3-13.87-10.08a2 2 0 0 1 1.18-3.62H39.3zm57 0a2 2 0 0 1 3.8 0l5.3 16.3h17.14a2 2 0 0 1 1.18 3.62l-13.87 10.08 5.3 16.3a2 2 0 0 1-3.08 2.23l-13.87-10.07-13.87 10.07a2 2 0 0 1-3.08-2.23l5.3-16.3-13.87-10.08a2 2 0 0 1 1.18-3.62H96.3z" fill="#fff000"/>
</svg>
