<svg role="img" width="137" height="76" viewBox="0 0 137 76" fill="none" xmlns="http://www.w3.org/2000/svg">
  <title>Text with the word Menu, and a down-arrow icon next to it.</title>
  <rect width="137" height="76" fill="#fff"/>
  <path d="M33.48 30.65h2.78l4.12 12.13 4.1-12.13h2.75V45h-1.85v-8.47l.02-1.45q.02-1.02.02-2.18L41.32 45H39.4l-4.12-12.1v.44l.02 1.61.03 1.58V45h-1.85zm20.83 3.66q1.1 0 2.15.52t1.6 1.35q.52.8.7 1.85.15.72.15 2.3h-7.66q.05 1.6.75 2.56t2.18.96q1.38 0 2.2-.91.47-.53.66-1.22h1.73q-.07.57-.46 1.29-.38.7-.86 1.15-.8.78-1.98 1.06a6 6 0 0 1-1.44.15q-1.95 0-3.3-1.42-1.37-1.42-1.37-3.98 0-2.52 1.37-4.1t3.58-1.56m2.8 4.62q-.1-1.14-.5-1.82-.72-1.27-2.41-1.27-1.21 0-2.03.88-.82.87-.87 2.21zm3.97-4.39h1.67v1.48q.74-.91 1.57-1.31a4 4 0 0 1 1.85-.4q2.23 0 3 1.55.44.85.44 2.43V45h-1.79v-6.6q0-.95-.28-1.53-.47-.98-1.7-.98-.63 0-1.03.13-.72.21-1.27.86-.44.51-.57 1.07-.13.55-.13 1.57V45h-1.76zm12.9 0v6.94q0 .8.25 1.31.46.94 1.75.94 1.83 0 2.5-1.64.36-.88.36-2.41v-5.14h1.75V45h-1.66l.02-1.54a4 4 0 0 1-.85 1q-1 .82-2.44.82-2.23 0-3.04-1.5-.44-.8-.44-2.13v-7.1zM105 34.5H91l7 7z" fill="#000"/>
</svg>
