<svg role="img" width="105" height="54" viewBox="0 0 105 53.5" fill="none" xmlns="http://www.w3.org/2000/svg">
  <title>A browser-default styled link, with a solid mid-blue outline around the link.</title>
  <rect width="105" height="53.5" fill="#fff"/>
  <rect x="13.5" y="13.5" width="78" height="26.5" rx="1.5" stroke="#007aff" stroke-width="3"/>
  <path d="M16.52 18.65h1.95V31.3h7.26V33h-9.2zm10.9 3.94h1.79V33h-1.79zm0-3.94h1.79v2h-1.79zm4.45 3.9h1.67v1.47q.75-.91 1.58-1.31a4 4 0 0 1 1.84-.4q2.23 0 3.01 1.55.43.85.43 2.43V33h-1.79v-6.6q0-.95-.28-1.53-.47-.98-1.7-.98-.62 0-1.03.13-.72.21-1.27.86-.43.51-.57 1.07-.13.55-.13 1.57V33h-1.76zm11.1-3.9h1.69v8.33l4.5-4.44h2.26l-4 3.92L51.63 33H49.4l-3.26-5.27-1.47 1.34V33h-1.7zm15.96.97h1.77v2.92h1.67v1.44H60.7v6.82q0 .55.37.73.21.11.69.11h.27q.15 0 .34-.03V33q-.3.09-.63.13-.32.04-.7.04-1.24 0-1.68-.63t-.44-1.64v-6.92h-1.41v-1.44h1.42zm9.57 2.69q1.11 0 2.15.52 1.05.52 1.6 1.35.52.8.7 1.85.15.72.16 2.3h-7.67q.05 1.6.75 2.56t2.18.96q1.38 0 2.2-.91.47-.53.66-1.22h1.73q-.07.58-.46 1.29-.38.7-.86 1.15-.8.78-1.98 1.06a6 6 0 0 1-1.44.15q-1.95 0-3.3-1.41-1.37-1.43-1.37-3.99 0-2.52 1.37-4.1t3.58-1.56m2.8 4.63q-.1-1.15-.5-1.83-.72-1.27-2.41-1.27-1.21 0-2.03.88-.82.87-.87 2.22zm2.98-4.4h2.27l2.4 3.68 2.44-3.68 2.13.05L80 27.64 83.68 33h-2.24l-2.6-3.93L76.32 33h-2.23l3.68-5.36zm11.34-2.92h1.78v2.92h1.67v1.44H87.4v6.82q0 .55.37.74.2.1.69.1h.27q.15 0 .34-.03V33a4 4 0 0 1-.63.13q-.32.04-.7.04-1.24 0-1.68-.63t-.44-1.64v-6.92h-1.41v-1.44h1.41z" fill="#0068da"/>
  <rect x="15" y="36" width="75" height="1.5" fill="#0068da"/>
</svg>
