<svg role="img" width="135" height="60" viewBox="0 0 135 60" fill="none" xmlns="http://www.w3.org/2000/svg">
  <title>Checkbox with a black border and a circular grey background next to a text label.</title>
  <rect width="135" height="60" fill="#fff"/>
  <circle cx="22" cy="32" r="17.88" fill="#dedede" stroke="#999" stroke-width=".25"/>
  <rect x="12.5" y="22.5" width="19" height="19" stroke="#000"/>
  <path d="M55.53 16.18h3.54V42h-3.54zm9.44 1.74h3.2v5.25h3v2.59h-3v12.28q0 .99.67 1.32.37.2 1.23.2h.5l.6-.06V42a7 7 0 0 1-1.14.23q-.58.07-1.26.07-2.22 0-3-1.13-.8-1.14-.8-2.95V25.76h-2.55v-2.59h2.55zm17.23 4.83q2 0 3.88.95 1.89.93 2.87 2.43.95 1.42 1.26 3.32.29 1.3.29 4.15H76.7q.08 2.86 1.35 4.6t3.92 1.73q2.48 0 3.96-1.64a5.5 5.5 0 0 0 1.2-2.2h3.1q-.12 1.04-.82 2.32-.69 1.27-1.55 2.08-1.44 1.4-3.57 1.9-1.14.28-2.58.28-3.52 0-5.96-2.55-2.44-2.57-2.44-7.17 0-4.54 2.46-7.37t6.43-2.83m5.04 8.33q-.19-2.05-.9-3.28-1.3-2.29-4.33-2.29-2.18 0-3.66 1.58-1.48 1.57-1.56 4zm7.16-7.9h3.13v2.67q1.12-1.4 2.04-2.03 1.56-1.07 3.55-1.07 2.25 0 3.62 1.1.77.64 1.4 1.87 1.06-1.5 2.48-2.23 1.43-.74 3.2-.74 3.8 0 5.17 2.74.74 1.48.74 3.98V42h-3.29V28.92q0-1.88-.95-2.58-.93-.7-2.28-.7-1.87 0-3.22 1.24-1.34 1.25-1.34 4.17V42h-3.21V29.71q0-1.91-.46-2.8-.72-1.31-2.69-1.31-1.8 0-3.27 1.39-1.46 1.39-1.46 5.03V42H94.4z" fill="#333"/>
  <g filter="url(#a)">
    <path d="M35.37 41.74a.5.5 0 0 1-.14.83l-3.43 1.46 3.13 7.36a.5.5 0 0 1-.27.66l-3.68 1.56a.5.5 0 0 1-.65-.27l-3.13-7.36-3.43 1.46a.5.5 0 0 1-.7-.48l.35-15.12a.5.5 0 0 1 .84-.35z" fill="#000"/>
    <path d="m34.8 42.07-3.82 1.62 3.32 7.83-3.45 1.46-3.32-7.82-3.83 1.62.34-14.65z" stroke="#fff" stroke-width="1.25"/>
  </g>
  <defs>
    <filter id="a" x="22.82" y="31.35" width="12.96" height="22.8" filterUnits="userSpaceOnUse" color-interpolation-filters="sRGB">
      <feFlood flood-opacity="0" result="BackgroundImageFix"/>
      <feColorMatrix in="SourceAlpha" values="0 0 0 0 0 0 0 0 0 0 0 0 0 0 0 0 0 0 127 0" result="hardAlpha"/>
      <feOffset dy=".25"/>
      <feGaussianBlur stdDeviation=".13"/>
      <feComposite in2="hardAlpha" operator="out"/>
      <feColorMatrix values="0 0 0 0 0 0 0 0 0 0 0 0 0 0 0 0 0 0 0.4 0"/>
      <feBlend in2="BackgroundImageFix" result="effect1_dropShadow_203_10"/>
      <feBlend in="SourceGraphic" in2="effect1_dropShadow_203_10" result="shape"/>
    </filter>
  </defs>
</svg>
