<svg role="img" width="106" height="64" viewBox="0 0 106 64" fill="none" xmlns="http://www.w3.org/2000/svg">
  <title>Button with a faint blue background.</title>
  <rect width="106" height="64" fill="#fff"/>
  <rect x="12.5" y="12.5" width="81" height="39" rx="2.5" fill="#ddf"/>
  <rect x="12.5" y="12.5" width="81" height="39" rx="2.5" stroke="#eee"/>
  <path d="M30.91 30.72q1.23 0 1.92-.34 1.07-.54 1.07-1.94t-1.14-1.9q-.64-.26-1.91-.26h-3.47v4.44zm.66 6.62q1.79 0 2.55-1.04.48-.65.48-1.58 0-1.56-1.4-2.13-.74-.3-1.96-.3h-3.86v5.05zm-6.1-12.69h6.17q2.52 0 3.58 1.5.63.9.63 2.06 0 1.36-.78 2.23-.4.45-1.15.84 1.1.42 1.65.94.97.94.97 2.59a4 4 0 0 1-.87 2.51Q34.37 39 31.54 39h-6.06zm14.92 3.9v6.93q0 .8.25 1.31.47.94 1.75.94 1.83 0 2.5-1.64.36-.88.36-2.41v-5.14h1.76V39h-1.66l.02-1.54a4 4 0 0 1-.85 1q-1 .82-2.44.82-2.24 0-3.05-1.5-.44-.8-.44-2.13v-7.1zm9.72-2.93h1.78v2.92h1.67v1.44H51.9v6.82q0 .55.37.74.2.1.68.1h.28q.14 0 .34-.03V39q-.3.09-.63.13t-.7.04q-1.24 0-1.68-.63t-.44-1.64v-6.92H48.7v-1.44h1.41zm5.57 0h1.78v2.92h1.67v1.44h-1.67v6.82q0 .55.37.74.2.1.68.1h.28q.14 0 .34-.03V39q-.3.09-.64.13-.32.04-.7.04-1.23 0-1.67-.63t-.44-1.64v-6.92h-1.42v-1.44h1.42zm9.37 12.25q1.74 0 2.39-1.32.65-1.33.65-2.95 0-1.47-.47-2.38-.74-1.45-2.56-1.45-1.6 0-2.34 1.23T62 33.97q0 1.67.73 2.78.73 1.12 2.33 1.12m.06-9.63q2.03 0 3.42 1.35 1.4 1.34 1.4 3.96 0 2.53-1.23 4.18t-3.82 1.65q-2.16 0-3.43-1.45-1.27-1.47-1.27-3.93 0-2.64 1.34-4.2t3.6-1.56m6.9.3h1.68v1.49q.74-.92 1.57-1.32a4 4 0 0 1 1.85-.4q2.22 0 3 1.55.43.85.43 2.43V39h-1.78v-6.6q0-.95-.29-1.53-.47-.98-1.7-.98-.62 0-1.02.13-.72.21-1.27.86-.44.51-.58 1.07-.12.55-.12 1.57V39h-1.76z" fill="#000"/>
</svg>
