<svg role="image img" width="135" height="60" viewBox="0 0 135 60" fill="none" xmlns="http://www.w3.org/2000/svg">
  <title>Checkbox with a black border and a circular grey background next to a text label.</title>
  <rect width="135" height="60" fill="white"/>
  <circle cx="22" cy="32" r="17.875" fill="#DEDEDE" stroke="#999999" stroke-width="0.25"/>
  <rect x="12.5" y="22.5" width="19" height="19" stroke="black"/>
  <text fill="#333333" style="white-space: pre" font-family="Helvetica" font-size="36">
    <tspan x="52" y="42.4189">Item</tspan>
  </text>
  <g filter="url(#filter0_d_203_10)">
    <path d="M35.3742 41.7427C35.6411 41.9889 35.5648 42.4285 35.2305 42.5704L31.8011 44.0261L34.927 51.3901C35.0349 51.6443 34.9163 51.9379 34.6621 52.0458L30.9801 53.6087C30.7259 53.7166 30.4324 53.598 30.3245 53.3438L27.1986 45.9798L23.7692 47.4354C23.4349 47.5773 23.0657 47.3268 23.074 46.9638L23.4183 31.842C23.4281 31.4116 23.9409 31.194 24.2572 31.4859L35.3742 41.7427Z" fill="black"/>
    <path d="M34.8075 42.071L30.9816 43.695L34.3028 51.5193L30.8509 52.9845L27.5297 45.1602L23.7039 46.7842L24.0373 32.1338L34.8075 42.071Z" stroke="white" stroke-width="1.25"/>
  </g>
  <defs>
    <filter id="filter0_d_203_10" x="22.8239" y="31.3524" width="12.9614" height="22.7961" filterUnits="userSpaceOnUse" color-interpolation-filters="sRGB">
      <feFlood flood-opacity="0" result="BackgroundImageFix"/>
      <feColorMatrix in="SourceAlpha" type="matrix" values="0 0 0 0 0 0 0 0 0 0 0 0 0 0 0 0 0 0 127 0" result="hardAlpha"/>
      <feOffset dy="0.25"/>
      <feGaussianBlur stdDeviation="0.125"/>
      <feComposite in2="hardAlpha" operator="out"/>
      <feColorMatrix type="matrix" values="0 0 0 0 0 0 0 0 0 0 0 0 0 0 0 0 0 0 0.4 0"/>
      <feBlend mode="normal" in2="BackgroundImageFix" result="effect1_dropShadow_203_10"/>
      <feBlend mode="normal" in="SourceGraphic" in2="effect1_dropShadow_203_10" result="shape"/>
    </filter>
  </defs>
</svg>
