<svg role="img" width="171" height="64" viewBox="0 0 171 64" fill="none" xmlns="http://www.w3.org/2000/svg">
  <title>Grey button with non-contrasting grey text.</title>
  <rect width="171" height="64" fill="#fff"/>
  <rect x="12.5" y="12.5" width="146" height="39" fill="#ccc"/>
  <rect x="12.5" y="12.5" width="146" height="39" stroke="#bfbfbf"/>
  <path d="M26.8 34.37q.06 1.22.57 1.98.97 1.43 3.4 1.43 1.1 0 2-.31 1.74-.6 1.74-2.17 0-1.17-.74-1.67-.74-.49-2.32-.85l-1.94-.44q-1.9-.43-2.7-.95-1.36-.9-1.36-2.68 0-1.94 1.33-3.18t3.8-1.24q2.25 0 3.82 1.1 1.58 1.08 1.58 3.47h-1.82q-.15-1.15-.63-1.76-.89-1.13-3.02-1.13-1.72 0-2.47.73-.75.72-.75 1.68 0 1.05.88 1.54.58.31 2.6.78l2.02.46q1.45.33 2.25.9Q36.4 33.08 36.4 35q0 2.38-1.74 3.4-1.72 1.03-4.02 1.03-2.67 0-4.19-1.37-1.51-1.35-1.48-3.68zm13.59-5.83v6.94q0 .8.25 1.31.47.94 1.75.94 1.83 0 2.5-1.64.36-.88.36-2.41v-5.14h1.76V39h-1.66l.02-1.54a4 4 0 0 1-.85 1q-1 .82-2.44.82-2.24 0-3.05-1.5-.44-.8-.44-2.13v-7.1zm9.24-3.93h1.7v5.2a4 4 0 0 1 1.38-1.14 4 4 0 0 1 1.74-.4q1.95 0 3.16 1.35 1.22 1.33 1.22 3.95 0 2.48-1.2 4.12t-3.33 1.64q-1.19 0-2-.57-.5-.35-1.05-1.1V39h-1.62zm4.56 13.17q1.43 0 2.14-1.13.7-1.14.7-3 0-1.64-.7-2.73-.7-1.08-2.09-1.08-1.2 0-2.1.89t-.9 2.93q0 1.47.37 2.4.7 1.72 2.59 1.72m6.7-9.24h1.73v1.49q.63-.77 1.14-1.13a3.4 3.4 0 0 1 1.97-.6q1.25 0 2.01.62.43.35.78 1.04.59-.84 1.38-1.24t1.78-.41q2.1 0 2.87 1.52.4.82.4 2.2V39h-1.82v-7.27q0-1.04-.53-1.43-.51-.4-1.27-.4-1.03 0-1.78.7t-.75 2.32V39h-1.78v-6.83q0-1.06-.26-1.55-.4-.73-1.5-.73-.99 0-1.8.77t-.82 2.8V39H60.9zm16.66.05h1.78V39h-1.78zm0-3.94h1.78v2h-1.78zm4.8.97h1.78v2.92h1.67v1.44h-1.67v6.82q0 .55.37.74.2.1.68.1h.28q.14 0 .34-.03V39q-.3.09-.64.13-.32.04-.7.04-1.23 0-1.67-.63t-.44-1.64v-6.92h-1.42v-1.44h1.42zm24.14 13.34-.98 1.18-2.21-1.69a8 8 0 0 1-1.74.7 7 7 0 0 1-2.03.27q-3.34 0-5.24-2.19-1.67-2.13-1.67-5.33 0-2.91 1.45-4.98 1.85-2.66 5.49-2.66 3.8 0 5.62 2.45 1.43 1.9 1.43 4.87 0 1.39-.35 2.66-.51 1.96-1.74 3.19zm-6.73-1.28a8 8 0 0 0 1.13-.08 3 3 0 0 0 .92-.33l-1.57-1.23.98-1.2 1.87 1.45a5.4 5.4 0 0 0 1.2-2.27q.33-1.26.33-2.41 0-2.53-1.33-4.08Q101.98 26 99.68 26q-2.32 0-3.68 1.49-1.36 1.47-1.36 4.55 0 2.59 1.3 4.12 1.31 1.53 3.83 1.53m10.7-9.14v6.94q0 .8.25 1.31.47.94 1.75.94 1.83 0 2.5-1.64.36-.88.36-2.41v-5.14h1.76V39h-1.66l.02-1.54a4 4 0 0 1-.85 1q-1.01.82-2.45.82-2.23 0-3.04-1.5-.44-.8-.44-2.13v-7.1zm13.73-.23q1.1 0 2.15.52t1.6 1.35q.52.8.7 1.85.15.72.15 2.3h-7.66q.05 1.6.75 2.56t2.18.96q1.38 0 2.2-.9.46-.54.66-1.23h1.73q-.07.58-.46 1.29a5 5 0 0 1-.86 1.15q-.8.78-1.98 1.06a6 6 0 0 1-1.44.15q-1.95 0-3.3-1.41-1.37-1.43-1.37-3.99 0-2.52 1.37-4.09t3.58-1.57m2.8 4.63q-.11-1.15-.5-1.83-.72-1.27-2.41-1.27-1.21 0-2.03.88-.82.87-.87 2.22zm4.02-4.4h1.67v1.8q.2-.52 1-1.27.8-.76 1.85-.76h.17l.4.05v1.85l-.3-.04h-.28q-1.32 0-2.04.85a3 3 0 0 0-.71 1.96V39h-1.76zm13.15 0h1.94q-.37 1-1.65 4.6a225 225 0 0 1-1.6 4.39q-1.52 4-2.15 4.88t-2.15.88q-.37 0-.58-.03l-.48-.1v-1.61q.46.13.66.16t.36.03q.5 0 .71-.17.24-.16.4-.4.05-.07.35-.8t.44-1.07l-3.87-10.76h2l2.8 8.52z" fill="#6d6d6d"/>
</svg>
