<svg role="img" width="296" height="96" viewBox="0 0 296 96" fill="none" xmlns="http://www.w3.org/2000/svg">
  <title>A text box with a dark background and light border, with a white background.</title>
  <rect width="296" height="96" fill="#036"/>
  <path d="M13.52 16.65h2.3l7.24 11.63V16.64h1.85V31h-2.18l-7.35-11.61V31h-1.86zM29.1 28.22q0 .76.56 1.2.55.44 1.32.44.92 0 1.8-.43 1.46-.72 1.46-2.34v-1.41q-.33.2-.83.34-.51.14-1 .2l-1.06.13q-.96.13-1.44.4-.81.46-.81 1.47m4.26-3.56q.6-.08.8-.5.13-.24.13-.68 0-.9-.65-1.3-.63-.4-1.82-.4-1.38 0-1.96.73-.32.41-.42 1.22H27.8q.05-1.93 1.25-2.68 1.21-.76 2.8-.76 1.85 0 3 .7 1.14.7 1.14 2.19v6.02q0 .28.11.44.12.17.48.17l.26-.01.32-.05v1.3a5 5 0 0 1-.63.15q-.21.03-.59.03-.9 0-1.31-.65-.22-.34-.3-.97-.54.7-1.55 1.22-1 .52-2.22.52-1.45 0-2.38-.88t-.92-2.21q0-1.46.91-2.26t2.38-.99zm5.53-4.12h1.73v1.49q.63-.77 1.14-1.13a3.4 3.4 0 0 1 1.97-.6q1.25 0 2.01.62.43.35.78 1.04.59-.84 1.38-1.24t1.78-.41q2.1 0 2.87 1.52.4.82.4 2.2V31h-1.82v-7.27q0-1.04-.53-1.43-.51-.4-1.27-.4-1.03 0-1.78.7-.74.7-.74 2.32V31H45v-6.83q0-1.06-.25-1.55-.4-.73-1.49-.73-1 0-1.82.77-.8.77-.8 2.8V31h-1.76zm21.01-.23q1.11 0 2.16.52 1.04.52 1.6 1.35.52.8.7 1.85.15.72.15 2.3h-7.67q.05 1.6.76 2.56.7.96 2.17.96 1.38 0 2.2-.91.47-.53.67-1.22h1.72q-.06.58-.45 1.29-.38.7-.86 1.15-.8.78-1.99 1.06a6 6 0 0 1-1.43.15q-1.96 0-3.31-1.41-1.36-1.43-1.36-3.99 0-2.52 1.37-4.1 1.36-1.56 3.57-1.56m2.8 4.63q-.1-1.15-.5-1.83-.72-1.27-2.4-1.27-1.22 0-2.04.88-.82.87-.87 2.22z" fill="#fff"/>
  <rect x="13" y="41" width="270" height="42" fill="#fff"/>
  <rect x="13" y="41" width="270" height="42" stroke="#6e6e6e" stroke-width="2"/>
</svg>
