<svg role="img" width="155" height="54" viewBox="0 0 155 54" fill="none" xmlns="http://www.w3.org/2000/svg">
  <title>White non-link and link text on an almost black background. The link text has a dull-red underline.</title>
  <rect width="155" height="54" fill="#000"/>
  <path d="M17.8 28.62q.06 1.22.57 1.98.97 1.43 3.4 1.43 1.1 0 2-.31 1.74-.6 1.74-2.17 0-1.17-.73-1.67-.75-.49-2.33-.85l-1.94-.44q-1.9-.43-2.7-.95-1.36-.9-1.36-2.68 0-1.94 1.33-3.18t3.8-1.24q2.25 0 3.82 1.1 1.58 1.08 1.58 3.47h-1.82q-.15-1.15-.63-1.76-.89-1.13-3.02-1.13-1.72 0-2.47.72-.75.73-.75 1.68 0 1.06.88 1.55.58.31 2.6.78l2.02.46q1.45.33 2.25.9 1.36 1.01 1.36 2.93 0 2.38-1.74 3.4-1.72 1.03-4.02 1.03-2.67 0-4.19-1.37-1.51-1.35-1.48-3.68zm15.98 3.5q1.75 0 2.4-1.32.65-1.33.65-2.95 0-1.47-.47-2.38-.74-1.45-2.56-1.45-1.61 0-2.34 1.23t-.74 2.97q0 1.67.74 2.78t2.32 1.12m.07-9.63q2.02 0 3.42 1.35 1.4 1.34 1.4 3.96 0 2.53-1.24 4.18t-3.82 1.65q-2.15 0-3.42-1.45-1.27-1.47-1.27-3.93 0-2.64 1.33-4.2 1.34-1.56 3.6-1.56m6.91.3h1.74v1.49q.63-.78 1.13-1.13a3.4 3.4 0 0 1 1.98-.6q1.25 0 2 .62.44.35.79 1.04.58-.84 1.38-1.24t1.77-.41q2.11 0 2.87 1.52.41.82.41 2.2v6.97h-1.82v-7.27q0-1.04-.53-1.43-.52-.4-1.27-.4-1.03 0-1.79.7-.74.7-.74 2.32v6.08H46.9v-6.83q0-1.06-.25-1.55-.4-.73-1.5-.73-.99 0-1.81.77-.81.77-.81 2.8v5.54h-1.76zm21.02-.23q1.11 0 2.15.52 1.05.52 1.6 1.35.52.8.7 1.85.16.72.16 2.3h-7.67q.05 1.6.75 2.56t2.18.96q1.38 0 2.2-.91.47-.53.66-1.22h1.73q-.07.58-.46 1.29-.38.7-.86 1.15-.8.78-1.98 1.06a6 6 0 0 1-1.44.15q-1.95 0-3.3-1.41-1.37-1.43-1.37-3.99 0-2.52 1.37-4.1 1.37-1.56 3.58-1.56m2.8 4.63q-.1-1.15-.5-1.83-.72-1.27-2.41-1.27-1.21 0-2.03.88-.82.87-.87 2.22zm8.76-8.54h1.76V33h-1.76zm4.4 3.94h1.79V33h-1.79zm0-3.94h1.79v2h-1.79zm4.45 3.9h1.67v1.47q.75-.91 1.58-1.31a4 4 0 0 1 1.84-.4q2.23 0 3.01 1.55.43.85.43 2.43V33h-1.79v-6.6q0-.95-.28-1.53-.47-.98-1.7-.98-.62 0-1.02.13-.73.21-1.27.86-.44.51-.58 1.07-.13.55-.13 1.57V33H82.2zm11.1-3.9h1.69v8.33l4.51-4.44h2.25l-4 3.92 4.22 6.54h-2.24l-3.27-5.27-1.47 1.34V33h-1.69zm15.96.97h1.77v2.92h1.67v1.44h-1.67v6.82q0 .55.37.73.2.11.69.11h.27q.15 0 .34-.03V33a4 4 0 0 1-.63.13 6 6 0 0 1-.7.04q-1.24 0-1.67-.63-.44-.63-.44-1.64v-6.92h-1.42v-1.44h1.42zm9.57 2.69q1.11 0 2.15.52 1.05.52 1.6 1.35.52.8.7 1.85.16.72.16 2.3h-7.67q.05 1.6.75 2.56t2.18.96q1.38 0 2.2-.91.47-.53.66-1.22h1.73q-.07.58-.46 1.29a5 5 0 0 1-.86 1.15q-.8.78-1.98 1.06a6 6 0 0 1-1.44.15q-1.95 0-3.3-1.41-1.37-1.43-1.37-3.99 0-2.52 1.37-4.1 1.37-1.56 3.58-1.56m2.8 4.63q-.1-1.15-.5-1.83-.72-1.27-2.41-1.27-1.21 0-2.03.88-.82.87-.87 2.22zm2.98-4.4h2.27l2.4 3.68 2.44-3.68 2.14.05-3.53 5.05L134 33h-2.24l-2.6-3.93-2.52 3.93h-2.23l3.68-5.36zm11.34-2.92h1.78v2.92h1.67v1.44h-1.67v6.82q0 .55.37.74.2.1.69.1h.27q.15 0 .34-.03V33q-.3.09-.63.13a6 6 0 0 1-.7.04q-1.24 0-1.68-.63t-.44-1.64v-6.92h-1.41v-1.44h1.41z" fill="#fff"/>
  <rect x="72" y="36" width="68" height="2" fill="#b1262b"/>
</svg>
