<svg role="img" width="469" height="332" viewBox="0 0 469 332" fill="none" xmlns="http://www.w3.org/2000/svg">
  <title>Four radio buttons, the first is a plain circle labelled ‘Not selected’. The second shows the circle filled with a darker color than the border. The third is filled with the same color as the border. The fourth has an inner filled circle with a gap between it and the outer border.</title>
  <rect width="469" height="332" fill="#fff"/>
  <circle cx="46" cy="46" r="30" stroke="#949494" stroke-width="8"/>
  <path d="M104.88 22.1h7.34l23.19 37.18V22.1h5.9V68h-6.97l-23.53-37.16V68h-5.93zm58.78 42.28q5.59 0 7.65-4.22 2.1-4.25 2.1-9.44 0-4.69-1.5-7.63-2.38-4.62-8.2-4.62-5.15 0-7.5 3.94t-2.34 9.5q0 5.34 2.35 8.9 2.34 3.56 7.44 3.57m.22-30.82q6.46 0 10.93 4.32 4.47 4.3 4.47 12.68 0 8.1-3.94 13.38t-12.22 5.28q-6.9 0-10.96-4.66-4.07-4.69-4.07-12.56 0-8.44 4.28-13.44t11.5-5m23.25-8.37h5.7v9.34h5.34v4.6h-5.35v21.84q0 1.75 1.19 2.34.66.35 2.19.35h.87q.47-.03 1.1-.1V68q-.97.28-2.04.4a19 19 0 0 1-2.25.13q-3.93 0-5.34-2-1.4-2.03-1.4-5.25V39.13h-4.54v-4.6h4.53zm37.85 32.31q.25 2.81 1.4 4.31 2.13 2.72 7.38 2.72 3.13 0 5.5-1.34 2.38-1.38 2.38-4.22 0-2.16-1.91-3.28-1.22-.7-4.81-1.6l-4.47-1.12q-4.28-1.06-6.31-2.38-3.63-2.28-3.63-6.3 0-4.76 3.4-7.7 3.44-2.93 9.23-2.93 7.56 0 10.9 4.43 2.1 2.82 2.03 6.07h-5.31a6.5 6.5 0 0 0-1.34-3.47q-1.94-2.22-6.72-2.22-3.2 0-4.85 1.22-1.62 1.22-1.62 3.22 0 2.18 2.16 3.5 1.25.78 3.68 1.37l3.72.9q6.06 1.48 8.13 2.85 3.28 2.16 3.28 6.78 0 4.47-3.4 7.72-3.38 3.25-10.32 3.25-7.47 0-10.6-3.37-3.09-3.41-3.3-8.41zm42.6-23.72q3.56 0 6.9 1.69 3.34 1.66 5.1 4.31 1.68 2.53 2.24 5.9.5 2.32.5 7.38h-24.53q.16 5.1 2.4 8.19 2.26 3.06 6.98 3.06 4.4 0 7.03-2.9a10 10 0 0 0 2.12-3.91h5.53q-.22 1.84-1.46 4.13-1.22 2.25-2.75 3.68-2.57 2.5-6.35 3.38-2.03.5-4.6.5-6.24 0-10.59-4.53-4.34-4.57-4.34-12.75 0-8.07 4.38-13.1t11.43-5.03m8.97 14.81q-.34-3.65-1.6-5.84-2.3-4.06-7.71-4.06-3.88 0-6.5 2.81-2.63 2.78-2.78 7.1zm12.88-26.5h5.62V68h-5.62zm28.03 11.7q3.56 0 6.9 1.68 3.35 1.65 5.1 4.31 1.68 2.53 2.25 5.9.5 2.32.5 7.38h-24.53q.15 5.1 2.4 8.19 2.25 3.06 6.97 3.06 4.4 0 7.03-2.9a10 10 0 0 0 2.13-3.91h5.53q-.22 1.84-1.47 4.12-1.22 2.25-2.75 3.7-2.56 2.5-6.34 3.37-2.03.5-4.6.5-6.25 0-10.6-4.53-4.33-4.57-4.33-12.75 0-8.07 4.37-13.1t11.44-5.03m8.97 14.81q-.35-3.65-1.6-5.84-2.31-4.06-7.72-4.06-3.87 0-6.5 2.81-2.62 2.78-2.78 7.1zm25.62-15.03q5.66 0 9.19 2.75 3.56 2.75 4.28 9.47h-5.47q-.5-3.1-2.28-5.12-1.78-2.07-5.72-2.07-5.37 0-7.69 5.25-1.5 3.41-1.5 8.41 0 5.03 2.13 8.47t6.69 3.44q3.5 0 5.53-2.13 2.06-2.16 2.84-5.87h5.47q-.94 6.65-4.69 9.75-3.75 3.06-9.6 3.06-6.55 0-10.46-4.78-3.9-4.82-3.9-12 0-8.82 4.27-13.72 4.29-4.9 10.91-4.9m20.22-8.38h5.69v9.34h5.34v4.6h-5.34v21.84q0 1.75 1.18 2.34.66.35 2.2.35h.87q.47-.03 1.1-.1V68q-.98.28-2.04.4-1.03.13-2.25.13-3.94 0-5.34-2-1.41-2.03-1.41-5.25V39.13h-4.53v-4.6h4.53zm30.63 8.6q3.56 0 6.9 1.68 3.35 1.65 5.1 4.31 1.68 2.53 2.25 5.9.5 2.32.5 7.38h-24.54q.16 5.1 2.41 8.19 2.25 3.06 6.97 3.06 4.4 0 7.03-2.9a10 10 0 0 0 2.13-3.91h5.53q-.22 1.84-1.47 4.12-1.22 2.25-2.75 3.7-2.57 2.5-6.35 3.37-2.03.5-4.59.5-6.25 0-10.6-4.53-4.34-4.57-4.34-12.75 0-8.07 4.38-13.1t11.43-5.03m8.97 14.81q-.34-3.65-1.59-5.84-2.31-4.06-7.72-4.06-3.87 0-6.5 2.81-2.62 2.78-2.78 7.1zm16.29 3.07q0 5.37 2.28 9t7.3 3.62q3.92 0 6.42-3.34 2.53-3.38 2.53-9.66 0-6.34-2.6-9.37-2.6-3.07-6.4-3.07-4.25 0-6.91 3.25-2.62 3.25-2.62 9.57m8.46-17.72q3.85 0 6.44 1.62 1.5.94 3.4 3.28v-16.9h5.41V68h-5.06v-4.66q-1.97 3.1-4.65 4.47-2.7 1.38-6.16 1.38-5.6 0-9.69-4.69-4.1-4.72-4.1-12.53 0-7.31 3.73-12.66 3.75-5.37 10.68-5.37" fill="#000"/>
  <circle cx="46" cy="126" r="30" fill="#797979" stroke="#949494" stroke-width="8"/>
  <path d="M108.94 133.19q.22 3.9 1.84 6.34 3.1 4.56 10.9 4.56 3.5 0 6.38-1 5.57-1.93 5.57-6.93 0-3.75-2.35-5.35-2.37-1.56-7.44-2.72l-6.21-1.4q-6.1-1.38-8.63-3.03-4.37-2.88-4.37-8.6 0-6.19 4.28-10.15 4.28-3.97 12.12-3.97 7.22 0 12.25 3.5 5.06 3.47 5.06 11.12h-5.84q-.47-3.69-2-5.65-2.84-3.6-9.66-3.6-5.5 0-7.9 2.31t-2.4 5.38q0 3.37 2.8 4.94 1.85 1 8.35 2.5l6.43 1.47q4.66 1.06 7.2 2.9 4.37 3.22 4.37 9.35 0 7.62-5.56 10.9-5.53 3.28-12.88 3.28-8.56 0-13.4-4.37-4.85-4.34-4.76-11.78zm51.81-19.4q3.56 0 6.9 1.68 3.35 1.65 5.1 4.31 1.69 2.53 2.25 5.9.5 2.32.5 7.38h-24.53q.15 5.1 2.4 8.19 2.25 3.06 6.97 3.06 4.41 0 7.03-2.9a10 10 0 0 0 2.13-3.91h5.53q-.22 1.84-1.47 4.12-1.22 2.25-2.75 3.7-2.56 2.5-6.34 3.37-2.03.5-4.6.5-6.24 0-10.59-4.53-4.34-4.57-4.34-12.75 0-8.07 4.37-13.1t11.44-5.03m8.97 14.81q-.34-3.65-1.6-5.84-2.3-4.06-7.71-4.06-3.88 0-6.5 2.81-2.63 2.78-2.78 7.1zm12.87-26.5h5.63V148h-5.63zm28.04 11.7q3.56 0 6.9 1.68 3.35 1.65 5.1 4.31 1.68 2.53 2.25 5.9.5 2.32.5 7.38h-24.54q.16 5.1 2.41 8.19 2.25 3.06 6.97 3.06 4.4 0 7.03-2.9a10 10 0 0 0 2.13-3.91h5.53q-.22 1.84-1.47 4.12-1.22 2.25-2.75 3.7-2.56 2.5-6.35 3.37-2.03.5-4.59.5-6.25 0-10.6-4.53-4.34-4.57-4.34-12.75 0-8.07 4.38-13.1t11.44-5.03m8.96 14.81q-.34-3.65-1.59-5.84-2.31-4.06-7.72-4.06-3.87 0-6.5 2.81-2.62 2.78-2.78 7.1zm25.63-15.03q5.66 0 9.19 2.75 3.56 2.75 4.28 9.47h-5.47q-.5-3.1-2.28-5.12-1.78-2.07-5.72-2.07-5.38 0-7.69 5.25-1.5 3.41-1.5 8.41 0 5.03 2.13 8.47t6.68 3.44q3.5 0 5.54-2.13 2.06-2.16 2.84-5.87h5.47q-.94 6.65-4.69 9.75-3.75 3.06-9.6 3.06-6.56 0-10.46-4.78-3.9-4.82-3.9-12 0-8.82 4.27-13.72 4.28-4.9 10.9-4.9m20.23-8.38h5.69v9.34h5.34v4.6h-5.34v21.84q0 1.75 1.18 2.34.66.35 2.19.35h.88l1.09-.1V148a12 12 0 0 1-2.03.4 19 19 0 0 1-2.25.13q-3.94 0-5.35-2-1.4-2.03-1.4-5.25v-22.15h-4.53v-4.6h4.53zm30.62 8.6q3.57 0 6.9 1.68 3.35 1.65 5.1 4.31 1.7 2.53 2.25 5.9.5 2.32.5 7.38h-24.53q.16 5.1 2.4 8.19 2.26 3.06 6.98 3.06 4.4 0 7.03-2.9a10 10 0 0 0 2.12-3.91h5.53q-.22 1.84-1.46 4.12-1.22 2.25-2.75 3.7-2.57 2.5-6.35 3.37-2.03.5-4.6.5-6.24 0-10.59-4.53-4.34-4.57-4.34-12.75 0-8.07 4.38-13.1t11.43-5.03m8.97 14.81q-.34-3.65-1.6-5.84-2.3-4.06-7.71-4.06-3.88 0-6.5 2.81-2.63 2.78-2.78 7.1zm16.28 3.07q0 5.37 2.28 9 2.29 3.62 7.32 3.62 3.9 0 6.4-3.34 2.53-3.38 2.53-9.66 0-6.34-2.59-9.37-2.6-3.07-6.4-3.07-4.26 0-6.91 3.25-2.63 3.25-2.63 9.57m8.47-17.72q3.85 0 6.44 1.62 1.5.94 3.4 3.28v-16.9h5.41V148h-5.06v-4.66q-1.97 3.1-4.66 4.47-2.68 1.38-6.15 1.38-5.6 0-9.7-4.69-4.08-4.72-4.08-12.53 0-7.31 3.71-12.66 3.75-5.37 10.7-5.37" fill="#000"/>
  <circle cx="46" cy="206" r="30" fill="#949494" stroke="#949494" stroke-width="8"/>
  <path d="M108.94 213.19q.22 3.9 1.84 6.34 3.1 4.56 10.9 4.56 3.5 0 6.38-1 5.57-1.93 5.57-6.93 0-3.75-2.35-5.35-2.37-1.56-7.44-2.72l-6.21-1.4q-6.1-1.38-8.63-3.03-4.37-2.88-4.37-8.6 0-6.18 4.28-10.15t12.12-3.97q7.22 0 12.25 3.5 5.06 3.47 5.06 11.12h-5.84q-.47-3.69-2-5.65-2.84-3.6-9.66-3.6-5.5 0-7.9 2.31t-2.4 5.38q0 3.37 2.8 4.94 1.85 1 8.35 2.5l6.43 1.47q4.66 1.06 7.2 2.9 4.37 3.22 4.37 9.35 0 7.62-5.56 10.9-5.53 3.28-12.88 3.28-8.56 0-13.4-4.37-4.85-4.35-4.76-11.78zm51.81-19.4q3.56 0 6.9 1.68 3.35 1.65 5.1 4.31 1.69 2.53 2.25 5.9.5 2.32.5 7.38h-24.53q.15 5.1 2.4 8.19 2.25 3.06 6.97 3.06 4.41 0 7.03-2.9a10 10 0 0 0 2.13-3.91h5.53q-.22 1.84-1.47 4.12-1.22 2.25-2.75 3.7-2.56 2.5-6.34 3.37-2.03.5-4.6.5-6.24 0-10.59-4.53-4.34-4.57-4.34-12.75 0-8.07 4.37-13.1t11.44-5.03m8.97 14.81q-.34-3.65-1.6-5.84-2.3-4.06-7.71-4.06-3.88 0-6.5 2.81-2.63 2.78-2.78 7.1zm12.87-26.5h5.63V228h-5.63zm28.04 11.7q3.56 0 6.9 1.68 3.35 1.65 5.1 4.31 1.68 2.53 2.25 5.9.5 2.32.5 7.38h-24.54q.16 5.1 2.41 8.19 2.25 3.06 6.97 3.06 4.4 0 7.03-2.9a10 10 0 0 0 2.13-3.91h5.53q-.22 1.84-1.47 4.12-1.22 2.25-2.75 3.7-2.56 2.5-6.35 3.37-2.03.5-4.59.5-6.25 0-10.6-4.53-4.34-4.57-4.34-12.75 0-8.07 4.38-13.1t11.44-5.03m8.96 14.81q-.34-3.65-1.59-5.84-2.31-4.06-7.72-4.06-3.87 0-6.5 2.81-2.62 2.78-2.78 7.1zm25.63-15.03q5.66 0 9.19 2.75 3.56 2.75 4.28 9.47h-5.47q-.5-3.1-2.28-5.12-1.78-2.07-5.72-2.07-5.38 0-7.69 5.25-1.5 3.41-1.5 8.41 0 5.03 2.13 8.47t6.68 3.44q3.5 0 5.54-2.13 2.06-2.16 2.84-5.87h5.47q-.94 6.65-4.69 9.75-3.75 3.06-9.6 3.06-6.56 0-10.46-4.78-3.9-4.82-3.9-12 0-8.82 4.27-13.72 4.28-4.9 10.9-4.9m20.23-8.38h5.69v9.34h5.34v4.6h-5.34v21.84q0 1.75 1.18 2.34.66.35 2.19.35h.88l1.09-.1V228a12 12 0 0 1-2.03.4 19 19 0 0 1-2.25.13q-3.94 0-5.35-2-1.4-2.03-1.4-5.25v-22.15h-4.53v-4.6h4.53zm30.62 8.6q3.57 0 6.9 1.68 3.35 1.65 5.1 4.31 1.7 2.53 2.25 5.9.5 2.32.5 7.38h-24.53q.16 5.1 2.4 8.19 2.26 3.06 6.98 3.06 4.4 0 7.03-2.9a10 10 0 0 0 2.12-3.91h5.53q-.22 1.84-1.46 4.12-1.22 2.25-2.75 3.7-2.57 2.5-6.35 3.37-2.03.5-4.6.5-6.24 0-10.59-4.53-4.34-4.57-4.34-12.75 0-8.07 4.38-13.1t11.43-5.03m8.97 14.81q-.34-3.65-1.6-5.84-2.3-4.06-7.71-4.06-3.88 0-6.5 2.81-2.63 2.78-2.78 7.1zm16.28 3.07q0 5.37 2.28 9 2.29 3.62 7.32 3.62 3.9 0 6.4-3.34 2.53-3.38 2.53-9.66 0-6.34-2.59-9.37-2.6-3.07-6.4-3.07-4.26 0-6.91 3.25-2.63 3.25-2.63 9.57m8.47-17.72q3.85 0 6.44 1.62 1.5.94 3.4 3.28v-16.9h5.41V228h-5.06v-4.66q-1.97 3.1-4.66 4.47-2.68 1.38-6.15 1.38-5.6 0-9.7-4.69-4.08-4.72-4.08-12.53 0-7.31 3.71-12.66 3.75-5.37 10.7-5.37" fill="#000"/>
  <circle cx="46" cy="286" r="20" fill="#797979"/>
  <circle cx="46" cy="286" r="30" stroke="#949494" stroke-width="8"/>
  <path d="M108.94 293.19q.22 3.9 1.84 6.34 3.1 4.56 10.9 4.56 3.5 0 6.38-1 5.57-1.93 5.57-6.93 0-3.75-2.35-5.35-2.37-1.56-7.44-2.72l-6.21-1.4q-6.1-1.38-8.63-3.03-4.37-2.88-4.37-8.6 0-6.18 4.28-10.15t12.12-3.97q7.22 0 12.25 3.5 5.06 3.47 5.06 11.12h-5.84q-.47-3.68-2-5.65-2.84-3.6-9.66-3.6-5.5 0-7.9 2.32-2.4 2.3-2.4 5.37 0 3.38 2.8 4.94 1.85 1 8.35 2.5l6.43 1.47q4.66 1.06 7.2 2.9 4.37 3.22 4.37 9.35 0 7.62-5.56 10.9-5.53 3.28-12.88 3.28-8.56 0-13.4-4.37-4.85-4.35-4.76-11.78zm51.81-19.4q3.56 0 6.9 1.68 3.35 1.65 5.1 4.31 1.69 2.53 2.25 5.9.5 2.32.5 7.38h-24.53q.15 5.1 2.4 8.19 2.25 3.06 6.97 3.06 4.41 0 7.03-2.9a10 10 0 0 0 2.13-3.91h5.53q-.22 1.84-1.47 4.13-1.22 2.25-2.75 3.68-2.56 2.5-6.34 3.38-2.03.5-4.6.5-6.24 0-10.59-4.53-4.34-4.57-4.34-12.75 0-8.07 4.37-13.1t11.44-5.03m8.97 14.81q-.34-3.65-1.6-5.84-2.3-4.06-7.71-4.06-3.88 0-6.5 2.81-2.63 2.78-2.78 7.1zm12.87-26.5h5.63V308h-5.63zm28.04 11.7q3.56 0 6.9 1.68 3.35 1.65 5.1 4.31 1.68 2.53 2.25 5.9.5 2.32.5 7.38h-24.54q.16 5.1 2.41 8.19 2.25 3.06 6.97 3.06 4.4 0 7.03-2.9a10 10 0 0 0 2.13-3.91h5.53q-.22 1.84-1.47 4.13-1.22 2.25-2.75 3.68-2.56 2.5-6.35 3.38-2.03.5-4.59.5-6.25 0-10.6-4.53-4.34-4.57-4.34-12.75 0-8.07 4.38-13.1t11.44-5.03m8.96 14.81q-.34-3.65-1.59-5.84-2.31-4.06-7.72-4.06-3.87 0-6.5 2.81-2.62 2.78-2.78 7.1zm25.63-15.03q5.66 0 9.19 2.75 3.56 2.75 4.28 9.47h-5.47q-.5-3.1-2.28-5.12-1.78-2.07-5.72-2.07-5.38 0-7.69 5.25-1.5 3.41-1.5 8.41 0 5.03 2.13 8.47t6.68 3.44q3.5 0 5.54-2.13 2.06-2.15 2.84-5.87h5.47q-.94 6.65-4.69 9.75-3.75 3.06-9.6 3.06-6.56 0-10.46-4.78-3.9-4.82-3.9-12 0-8.82 4.27-13.72 4.28-4.9 10.9-4.9m20.23-8.38h5.69v9.34h5.34v4.6h-5.34v21.84q0 1.75 1.18 2.34.66.35 2.19.35h.88l1.09-.1V308a12 12 0 0 1-2.03.4 19 19 0 0 1-2.25.13q-3.94 0-5.35-2-1.4-2.03-1.4-5.25v-22.15h-4.53v-4.6h4.53zm30.62 8.6q3.57 0 6.9 1.68 3.35 1.65 5.1 4.31 1.7 2.53 2.25 5.9.5 2.32.5 7.38h-24.53q.16 5.1 2.4 8.19 2.26 3.06 6.98 3.06 4.4 0 7.03-2.9a10 10 0 0 0 2.12-3.91h5.53q-.22 1.84-1.46 4.13-1.22 2.25-2.75 3.68-2.57 2.5-6.35 3.38-2.03.5-4.6.5-6.24 0-10.59-4.53-4.34-4.57-4.34-12.75 0-8.07 4.38-13.1t11.43-5.03m8.97 14.81q-.34-3.65-1.6-5.84-2.3-4.06-7.71-4.06-3.88 0-6.5 2.81-2.63 2.78-2.78 7.1zm16.28 3.07q0 5.37 2.28 9 2.29 3.62 7.32 3.62 3.9 0 6.4-3.34 2.53-3.38 2.53-9.66 0-6.34-2.59-9.37-2.6-3.07-6.4-3.07-4.26 0-6.91 3.25-2.63 3.25-2.63 9.57m8.47-17.72q3.85 0 6.44 1.62 1.5.94 3.4 3.28v-16.9h5.41V308h-5.06v-4.66q-1.97 3.1-4.66 4.47-2.68 1.38-6.15 1.38-5.6 0-9.7-4.69-4.08-4.72-4.08-12.53 0-7.31 3.71-12.66 3.75-5.37 10.7-5.37" fill="#000"/>
</svg>
