<svg role="img" width="321" height="146" viewBox="0 0 321 146" fill="none" xmlns="http://www.w3.org/2000/svg">
  <title>Two star ratings, one uses a black outline (on white) with a black fill to indicate it is checked. The second has a yellow fill and a thicker dark border.</title>
  <rect width="321" height="146" fill="#fff"/>
  <path d="M44.6 21.85a2 2 0 0 1 3.8 0l5.3 16.3h17.14a2 2 0 0 1 1.18 3.62L58.15 51.85l5.3 16.3a2 2 0 0 1-3.08 2.23L46.5 60.31 32.63 70.38a2 2 0 0 1-3.08-2.23l5.3-16.3-13.87-10.08a2 2 0 0 1 1.18-3.62H39.3zm57 0a2 2 0 0 1 3.8 0l5.3 16.3h17.14a2 2 0 0 1 1.18 3.62l-13.87 10.08 5.3 16.3a2 2 0 0 1-3.08 2.23L103.5 60.31 89.63 70.38a2 2 0 0 1-3.08-2.23l5.3-16.3-13.87-10.08a2 2 0 0 1 1.18-3.62H96.3z" fill="#000"/>
  <path d="M160.02 22.32a.5.5 0 0 1 .96 0l5.3 16.3.33 1.03h18.23a.5.5 0 0 1 .3.9l-13.87 10.08-.88.64.33 1.04 5.3 16.3a.5.5 0 0 1-.77.56l-13.87-10.08-.88-.64-.88.64-13.87 10.08a.5.5 0 0 1-.77-.56l5.3-16.3.33-1.04-.88-.64-13.87-10.07a.5.5 0 0 1 .3-.9h18.23l.34-1.04zm57 0a.5.5 0 0 1 .96 0l5.3 16.3.33 1.03h18.23a.5.5 0 0 1 .3.9l-13.87 10.08-.88.64.33 1.04 5.3 16.3a.5.5 0 0 1-.77.56l-13.87-10.08-.88-.64-.88.64-13.87 10.08a.5.5 0 0 1-.77-.56l5.3-16.3.33-1.04-.88-.64-13.87-10.07a.5.5 0 0 1 .3-.9h18.23l.34-1.04zm57 0a.5.5 0 0 1 .96 0l5.3 16.3.33 1.03h18.23a.5.5 0 0 1 .3.9l-13.87 10.08-.88.64.33 1.04 5.3 16.3a.5.5 0 0 1-.77.56l-13.87-10.08-.88-.64-.88.64-13.87 10.08a.5.5 0 0 1-.77-.56l5.3-16.3.33-1.04-.88-.64-13.87-10.07a.5.5 0 0 1 .3-.9h18.23l.34-1.04z" stroke="#000" stroke-width="3" stroke-linejoin="round"/>
  <path d="m51.32 94.93.56 1.72H69.3l-12.62 9.17-1.47 1.07.56 1.73 4.83 14.83-12.63-9.17-1.47-1.06-1.47 1.07-12.63 9.16 4.83-14.83.56-1.73-1.47-1.07-12.62-9.17h17.42l.56-1.72 4.82-14.84zm57 0 .56 1.72h17.42l-12.62 9.17-1.47 1.07.56 1.73 4.83 14.83-12.63-9.17-1.47-1.06-1.47 1.07-12.63 9.16 4.83-14.83.56-1.73-1.47-1.07-12.62-9.17h17.42l.56-1.72 4.82-14.84z" fill="#fff000" stroke="#000" stroke-width="5" stroke-linejoin="round"/>
  <path d="M160.02 78.32a.5.5 0 0 1 .96 0l5.3 16.3.33 1.03h18.23a.5.5 0 0 1 .3.9l-13.87 10.08-.88.64.33 1.04 5.3 16.3a.5.5 0 0 1-.77.56l-13.87-10.08-.88-.64-.88.64-13.87 10.08a.5.5 0 0 1-.77-.56l5.3-16.3.33-1.04-.88-.64-13.87-10.07a.5.5 0 0 1 .3-.9h18.23l.34-1.04zm57 0a.5.5 0 0 1 .96 0l5.3 16.3.33 1.03h18.23a.5.5 0 0 1 .3.9l-13.87 10.08-.88.64.33 1.04 5.3 16.3a.5.5 0 0 1-.77.56l-13.87-10.08-.88-.64-.88.64-13.87 10.08a.5.5 0 0 1-.77-.56l5.3-16.3.33-1.04-.88-.64-13.87-10.07a.5.5 0 0 1 .3-.9h18.23l.34-1.04zm57 0a.5.5 0 0 1 .96 0l5.3 16.3.33 1.03h18.23a.5.5 0 0 1 .3.9l-13.87 10.08-.88.64.33 1.04 5.3 16.3a.5.5 0 0 1-.77.56l-13.87-10.08-.88-.64-.88.64-13.87 10.08a.5.5 0 0 1-.77-.56l5.3-16.3.33-1.04-.88-.64-13.87-10.07a.5.5 0 0 1 .3-.9h18.23l.34-1.04z" stroke="#000" stroke-width="3" stroke-linejoin="round"/>
</svg>
