<svg role="img" width="417" height="76" viewBox="0 0 417 76" fill="none" xmlns="http://www.w3.org/2000/svg">
  <title>Three blue buttons on a white background, the middle has a light yellow outline outside of the button’s non-focused boundary.</title>
  <rect width="417" height="76" fill="#fff"/>
  <rect x="12.5" y="12.5" width="122" height="51" fill="#4189b9"/>
  <rect x="12.5" y="12.5" width="122" height="51" stroke="#000"/>
  <path d="M43.54 38.71h-6.99v3.7h7.97V45h-10.9V30.6h10.55v2.55h-7.62v3.06h7zM56.12 45h-3.47l-1.83-3.2-1.85 3.2H45.6l3.64-5.39-3.48-5.23h3.4l1.79 3.08 1.73-3.09h3.31l-3.5 5.19zm2.05-9.5q1.1-1.4 3.8-1.4 1.74 0 3.1.7 1.35.69 1.35 2.61v4.88l.02 1.23q.03.55.17.75t.4.32V45H64a3 3 0 0 1-.17-.6l-.08-.65a6 6 0 0 1-1.33 1.07q-.9.51-2.03.51-1.45 0-2.4-.82-.93-.83-.93-2.34 0-1.97 1.51-2.84.83-.48 2.44-.69l.95-.11q.77-.1 1.1-.25.6-.25.6-.79 0-.65-.46-.9-.45-.25-1.33-.25-.98 0-1.4.49-.29.36-.38.97H57.4q.09-1.4.78-2.3m2.06 7.5q.4.32.96.32.9 0 1.65-.53.76-.52.79-1.92v-1.04q-.26.17-.54.28a5 5 0 0 1-.73.18l-.62.12q-.88.16-1.26.38-.65.38-.65 1.18 0 .72.4 1.03m14.64-5.7q-.35-.78-1.38-.78-1.19 0-1.6.78-.22.44-.22 1.3V45h-2.82V34.38h2.7v1.55q.52-.83.98-1.18.8-.63 2.1-.63 1.22 0 1.97.54.6.5.92 1.28.54-.94 1.35-1.38a4 4 0 0 1 1.92-.44q.7 0 1.38.27.69.28 1.24.96.45.56.61 1.37.1.54.1 1.57L84.1 45h-2.85v-6.78q0-.6-.2-1-.37-.74-1.36-.74-1.16 0-1.6.96-.22.5-.22 1.22V45h-2.8v-6.34q0-.94-.2-1.37m20.73-1.8q1.3 1.38 1.3 4.05 0 2.81-1.28 4.29-1.26 1.47-3.25 1.47-1.27 0-2.1-.63-.47-.35-.9-1.03v5.55h-2.76V34.36h2.67v1.57q.45-.7.95-1.1.93-.7 2.2-.7 1.87 0 3.17 1.37m-1.58 4.18q0-1.23-.56-2.18t-1.82-.95q-1.51 0-2.08 1.44-.3.76-.3 1.93 0 1.86 1 2.6.58.45 1.38.45 1.16 0 1.77-.9t.61-2.4m4.95-9.06h2.79V45h-2.79zm14.62 11.26q-.1.95-.98 1.93-1.37 1.55-3.83 1.55a5.4 5.4 0 0 1-3.59-1.3q-1.55-1.32-1.55-4.26 0-2.77 1.4-4.24t3.64-1.48q1.33 0 2.4.5t1.75 1.57q.63.95.81 2.2.1.73.09 2.11h-7.29q.06 1.6 1 2.24.59.4 1.4.4.86 0 1.4-.48.29-.27.51-.74zm-2.75-3.26q-.07-1.1-.68-1.67-.6-.57-1.48-.57-.97 0-1.5.6t-.67 1.64z" fill="#fff"/>
  <rect x="147.5" y="12.5" width="122" height="51" fill="#4189b9"/>
  <rect x="147.5" y="12.5" width="122" height="51" stroke="#000"/>
  <path d="M178.54 38.71h-6.99v3.7h7.97V45h-10.9V30.6h10.55v2.55h-7.62v3.06h7zM191.12 45h-3.47l-1.83-3.2-1.85 3.2h-3.38l3.64-5.39-3.48-5.23h3.4l1.79 3.08 1.73-3.09h3.31l-3.5 5.19zm2.05-9.5q1.1-1.4 3.8-1.4 1.74 0 3.1.7 1.35.69 1.35 2.61v4.88l.02 1.23q.03.55.17.75t.41.32V45h-3.03a3 3 0 0 1-.17-.6l-.08-.65a6 6 0 0 1-1.33 1.07q-.9.51-2.03.51-1.45 0-2.4-.82-.93-.83-.93-2.34 0-1.97 1.51-2.84.83-.48 2.44-.69l.95-.11q.77-.1 1.1-.25.6-.25.6-.79 0-.65-.46-.9-.45-.25-1.33-.25-.98 0-1.4.49-.29.36-.38.97h-2.69q.09-1.4.78-2.3m2.07 7.49q.4.32.96.32.9 0 1.65-.53.76-.52.8-1.92v-1.04q-.27.17-.55.28-.26.1-.73.18l-.62.12q-.88.16-1.26.38-.65.38-.65 1.18 0 .72.4 1.03m14.64-5.7q-.35-.78-1.38-.78-1.19 0-1.6.78-.22.44-.22 1.3V45h-2.82V34.38h2.7v1.55q.52-.83.98-1.18.8-.63 2.1-.63 1.22 0 1.97.54.6.5.92 1.28.54-.94 1.36-1.38a4 4 0 0 1 1.9-.44q.71 0 1.4.27.68.28 1.24.96.45.56.6 1.37.1.54.1 1.57L219.1 45h-2.85v-6.78q0-.6-.2-1-.37-.74-1.36-.74-1.16 0-1.6.96-.22.5-.22 1.22V45h-2.8v-6.34q0-.94-.2-1.37m20.73-1.8q1.3 1.38 1.3 4.05 0 2.81-1.28 4.29-1.26 1.47-3.25 1.47-1.27 0-2.1-.63-.47-.35-.9-1.03v5.55h-2.76V34.36h2.66v1.57q.45-.7.96-1.1.93-.7 2.2-.7 1.87 0 3.17 1.37m-1.58 4.18q0-1.23-.57-2.18-.55-.95-1.81-.95-1.52 0-2.08 1.44-.3.76-.3 1.93 0 1.86 1 2.6.58.45 1.38.45 1.16 0 1.77-.9t.61-2.4m4.95-9.06h2.79V45h-2.79zm14.62 11.26q-.1.95-.99 1.93-1.36 1.55-3.82 1.55a5.4 5.4 0 0 1-3.59-1.3q-1.55-1.32-1.55-4.26 0-2.77 1.4-4.24t3.64-1.48q1.33 0 2.4.5t1.75 1.57q.62.95.81 2.2.1.73.09 2.11h-7.29q.06 1.6 1 2.24.58.4 1.4.4.86 0 1.4-.48.28-.27.51-.74zm-2.75-3.26q-.07-1.1-.68-1.67-.6-.57-1.48-.57-.97 0-1.5.6t-.67 1.64z" fill="#fff"/>
  <rect x="145" y="10" width="127" height="56" stroke="#ff0" stroke-width="4"/>
  <rect x="282.5" y="12.5" width="122" height="51" fill="#4189b9"/>
  <rect x="282.5" y="12.5" width="122" height="51" stroke="#000"/>
  <path d="M313.54 38.71h-6.99v3.7h7.97V45h-10.9V30.6h10.55v2.55h-7.62v3.06h7zM326.12 45h-3.47l-1.83-3.2-1.85 3.2h-3.38l3.64-5.39-3.48-5.23h3.4l1.79 3.08 1.73-3.09h3.31l-3.5 5.19zm2.05-9.5q1.1-1.4 3.8-1.4 1.74 0 3.1.7 1.35.69 1.35 2.61v4.88l.02 1.23q.03.55.17.75t.41.32V45h-3.03a3 3 0 0 1-.17-.6l-.08-.65a6 6 0 0 1-1.33 1.07q-.9.51-2.03.51-1.45 0-2.4-.82-.93-.83-.93-2.34 0-1.97 1.51-2.84.83-.48 2.44-.69l.95-.11q.77-.1 1.1-.25.6-.25.6-.79 0-.65-.46-.9-.45-.25-1.33-.25-.98 0-1.4.49-.29.36-.38.97h-2.69q.09-1.4.78-2.3m2.07 7.49q.4.32.96.32.9 0 1.65-.53.76-.52.8-1.92v-1.04q-.27.17-.55.28-.26.1-.73.18l-.62.12q-.88.16-1.26.38-.65.38-.65 1.18 0 .72.4 1.03m14.64-5.7q-.35-.78-1.38-.78-1.19 0-1.6.78-.22.44-.22 1.3V45h-2.82V34.38h2.7v1.55q.52-.83.98-1.18.8-.63 2.1-.63 1.22 0 1.97.54.6.5.92 1.28.54-.94 1.36-1.38a4 4 0 0 1 1.9-.44q.71 0 1.4.27.68.28 1.24.96.45.56.6 1.37.1.54.1 1.57L354.1 45h-2.85v-6.78q0-.6-.2-1-.37-.74-1.36-.74-1.16 0-1.6.96-.22.5-.22 1.22V45h-2.8v-6.34q0-.94-.2-1.37m20.73-1.8q1.3 1.38 1.3 4.05 0 2.81-1.28 4.29-1.26 1.47-3.25 1.47-1.27 0-2.1-.63-.47-.35-.9-1.03v5.55h-2.76V34.36h2.66v1.57q.45-.7.96-1.1.93-.7 2.2-.7 1.87 0 3.17 1.37m-1.58 4.18q0-1.23-.57-2.18-.55-.95-1.81-.95-1.52 0-2.08 1.44-.3.76-.3 1.93 0 1.86 1 2.6.58.45 1.38.45 1.16 0 1.77-.9t.61-2.4m4.95-9.06h2.79V45h-2.79zm14.62 11.26q-.1.95-.98 1.93-1.37 1.55-3.83 1.55a5.4 5.4 0 0 1-3.59-1.3q-1.55-1.32-1.55-4.26 0-2.77 1.4-4.24t3.64-1.48q1.33 0 2.4.5t1.75 1.57q.63.95.81 2.2.1.73.09 2.11h-7.29q.06 1.6 1 2.24.58.4 1.4.4.86 0 1.4-.48.28-.27.51-.74zm-2.75-3.26q-.07-1.1-.68-1.67-.6-.57-1.48-.57-.97 0-1.5.6t-.67 1.64z" fill="#fff"/>
</svg>
