<?xml version="1.0" encoding="UTF-8"?>
<svg version="1.1" viewBox="0 0 100 100" xmlns="http://www.w3.org/2000/svg" xmlns:xlink="http://www.w3.org/1999/xlink">
 <defs>
  <linearGradient id="linearGradient84569">
   <stop stop-color="#fff" offset="0"/>
   <stop stop-color="#fff" offset=".56667"/>
   <stop stop-color="#6d95bf" offset="1"/>
  </linearGradient>
  <radialGradient id="radialGradient84571-9" cx="-5.862e-13" cy="387" r="32.5" gradientTransform="matrix(.86154 -1.8546e-6 -6.6538e-8 .86154 155 38.585)" gradientUnits="userSpaceOnUse" xlink:href="#linearGradient84569"/>
  <radialGradient id="radialGradient84571-7" cx="-5.862e-13" cy="387" r="32.5" gradientTransform="matrix(.86154 -1.8546e-6 -6.6538e-8 .86154 180 103.58)" gradientUnits="userSpaceOnUse" xlink:href="#linearGradient84569"/>
  <clipPath id="clipPath1003">
   <path d="m117.5 372c0-20.711 16.789-37.5 37.5-37.5 7.9679 0 15.729 2.538 22.157 7.2459l-12.157 20.254-15 5 5 10-10 5-7.6906 23.065c-12.196-6.525-19.809-19.233-19.809-33.065z" fill="none" stroke="#000" stroke-width=".5"/>
  </clipPath>
  <clipPath id="clipPath1137">
   <path d="m202.16 406.75c9.644 7.0629 15.343 18.3 15.343 30.254 0 20.711-16.789 37.5-37.5 37.5-6.172 0-12.249-1.5234-17.691-4.435l7.6906-23.065 10-5-5-10 15-5 12.157-20.254" fill="none" stroke="#000" stroke-width=".5"/>
  </clipPath>
 </defs>
 <g transform="translate(0 -197)">
  <g transform="rotate(24.836 522.65 82.114)">
   <path d="m170 447 10-5-5-10 15-5 8.2784-13.789c7.3902 5.6784 11.722 14.469 11.722 23.789 0 16.569-13.431 30-30 30-5.3762 0-10.654-1.4447-15.28-4.1831z" fill="none" stroke="#fefefe" stroke-width="15"/>
   <g clip-path="url(#clipPath1137)">
    <circle cx="180" cy="437" r="30" fill="url(#radialGradient84571-7)" stroke="#040404" stroke-width="5"/>
    <path d="m205 402-15 25-15 5 5 10-10 5-10 30" fill="none" stroke="#000" stroke-width="10"/>
    <circle cx="180" cy="437" r="35" fill="none" stroke="#fff" stroke-width="5"/>
   </g>
  </g>
  <g transform="translate(-118.53 -137.05)">
   <path d="m125 372c0-16.569 13.431-30 30-30 6.6107 0 13.036 2.1836 18.278 6.2113l-8.2784 13.789-15 5 5 10-10 5-5.2802 15.817c-9.1238-5.4001-14.72-15.215-14.72-25.817z" fill="none" stroke="#fff" stroke-width="15"/>
   <g clip-path="url(#clipPath1003)">
    <circle cx="155" cy="372" r="30" fill="url(#radialGradient84571-9)" stroke="#040404" stroke-width="5"/>
    <path d="m180 337-15 25-15 5 5 10-10 5-10 30" fill="none" stroke="#000" stroke-width="10"/>
    <circle cx="155" cy="372" r="35" fill="none" stroke="#fff" stroke-width="5"/>
   </g>
  </g>
 </g>
</svg>
