<?xml version="1.0" encoding="UTF-8"?>
<svg version="1.1" viewBox="0 0 100 100" xmlns="http://www.w3.org/2000/svg">
 <defs>
  <linearGradient id="linearGradient34812" x1="127.5" x2="145" y1="264.5" y2="202" gradientUnits="userSpaceOnUse">
   <stop stop-color="#404040" offset="0"/>
   <stop stop-color="#036" offset="1"/>
  </linearGradient>
  <clipPath id="clipPath34942">
   <path d="m145 199.5c-7.9387 0-15.604 5.4492-21.018 12.51-6.5206 8.5037-10.116 20.409-11.481 41.99 2.5549-1.2775 7.6476-1.4621 12.5-0.25477v10.754l2.5001 5.0002 2.4996-5.0002v-10.991c4.7778-1.3797 10.814-0.69566 12.5 0.99064 4.1496-15.713-0.53495-22.787 2.4593-34.803 2.541-10.197 2.5408-17.697 0.0408-20.197z" fill="none" stroke="#000" stroke-width=".265"/>
  </clipPath>
  <meshgradient id="meshgradient34946" x="128.5" y="207.00002" gradientUnits="userSpaceOnUse">
   <meshrow>
    <meshpatch>
     <stop stop-color="#bdb53f" stop-opacity="0" path="c 5,-4.5  10.7718,-7.50007  16.5002,-7.50009"/>
     <stop stop-color="#003266" stop-opacity=".14118" path="c -3.0002,4.0001  -9.0002,9.5001  -11.0002,17.5001"/>
     <stop stop-color="#003266" path="c -5.72815,-0.000342628  -7.77141,-0.000356774  -13.5,2.65879e-05"/>
     <stop stop-color="#003266" stop-opacity=".14118" path="c 3,-5.5  5.50029,-7.50035  8,-10"/>
    </meshpatch>
    <meshpatch>
     <stop path="c 2.4998,4.00007  1.4998,4.00009  1.9998,7.50009"/>
     <stop stop-color="#bdb53f" stop-opacity="0" path="c 0.000329629,6.11101  -0.500003,4  -1.5,10"/>
     <stop stop-color="#003266" stop-opacity=".14118" path="c -5.72802,-0.000478145  -5.77128,-0.00037721  -11.5,1e-05"/>
    </meshpatch>
   </meshrow>
   <meshrow>
    <meshpatch>
     <stop path="c -2,5.5  -4,12  -4.9998,18.9999"/>
     <stop stop-color="#003266" path="c -5.72835,0.000236886  -8.77162,0.000238015  -14.5002,0.000237015"/>
     <stop stop-color="#003266" stop-opacity=".14118" path="c 0.999998,-6.50015  3.5,-13.5002  6,-19.0001"/>
    </meshpatch>
    <meshpatch>
     <stop path="c -1.5,6  -2,12  -1.5,19"/>
     <stop stop-color="#003266" stop-opacity=".14118" path="c -5.72811,-0.00015566  -9.27132,-5.2806e-05  -14.9998,-9.59612e-05"/>
    </meshpatch>
   </meshrow>
   <meshrow>
    <meshpatch>
     <stop path="c -1.0002,6.0001  -1.5002,14.0001  -1.49975,18.5001"/>
     <stop stop-color="#003266" path="c -6.50045,-0.500014  -10.0005,-1.50001  -14.9999,-0.0002757"/>
     <stop stop-color="#003266" stop-opacity=".14118" path="c 0.499448,-10.4997  0.999448,-11.9997  1.99945,-18.4996"/>
    </meshpatch>
    <meshpatch>
     <stop path="c 0.500003,6.99999  1.052e-05,12  -1.4994,18.4999"/>
     <stop stop-color="#003266" stop-opacity=".14118" path="c -6.5006,-1.4999  -9.0006,-0.999904  -15.0001,0.00011"/>
    </meshpatch>
   </meshrow>
  </meshgradient>
 </defs>
 <g transform="translate(0 -197)">
  <rect x="7.5" y="204.5" width="52.116" height="74.506" fill="none" stroke="#fff" stroke-width="15"/>
  <rect x="2.5" y="204.5" width="52.116" height="74.506" fill="#fff" stroke="#930" stroke-width="5"/>
  <g transform="translate(-10)">
   <g fill="none">
    <rect x="27.5" y="214.5" width="52.461" height="75" stroke="#fff" stroke-width="15"/>
    <rect x="17.5" y="204.5" width="52.461" height="75" stroke="#fff" stroke-width="15"/>
    <rect x="27.5" y="214.5" width="52.461" height="75" stroke="#930" stroke-width="5"/>
   </g>
   <rect x="17.5" y="204.5" width="52.461" height="75" fill="#fff" stroke="#930" stroke-width="5"/>
  </g>
  <g transform="translate(-88.769 2.5)" fill="none" stroke="#000" stroke-width="5">
   <g>
    <path d="m110 212h25"/>
    <path d="m105 227h35"/>
    <path d="m105 237h35"/>
    <path d="m105 257h25"/>
   </g>
   <path d="m130 257h10" stroke-opacity=".49412"/>
   <path d="m105 267h35" stroke-opacity=".49412"/>
   <path d="m105 247h35"/>
  </g>
  <path d="m53.072 247.49c5.4612 0.84427 11.613 6.175 12.019 8.9741 12.726-10.108 13.204-18.579 22.792-26.416 8.1367-6.6506 12.624-12.66 12.116-16.159-6.3613-4.7495-15.764-4.9693-24.326-2.5508-10.312 2.9128-20.316 10.302-34.322 26.777 3.3013 0.59288 8.5097 4.4817 11.72 9.3747z" fill="#fff" fill-opacity=".49412"/>
  <g transform="rotate(36.746 100.84 138.95)">
   <path d="m127.5 254.5c4.8811-2.5908 13-2 15 0 4.1496-15.713-0.53523-22.787 2.459-34.803 2.541-10.197 2.541-17.697 0.041-20.197-7.9387 0-15.604 5.4492-21.019 12.51-6.5206 8.5037-10.116 20.409-11.481 41.99 3-1.5 9.5-1.5 15 0.5z" fill="url(#meshgradient34946)"/>
   <g clip-path="url(#clipPath34942)">
    <g fill="none" stroke="#036" stroke-width="3">
     <path d="m129 252c7.5-2.5 15 0 15 0"/>
     <path d="m111 252c7.5-2.5 15 0 15 0"/>
     <path d="m130 244.5c7.5 2.5 15 0 15 0"/>
     <path d="m111.64 242.49c7.0972 3.4828 14.865 2.0108 14.865 2.0108"/>
     <path d="m130.5 238.5c3 1 14.612 0.0562 17-2.5"/>
     <path d="m131.5 230.5c3 1 14.989 0.11973 17.5-2.5"/>
     <path d="m133.5 222.5c3.5 1 14 1e-3 16.5-2.5"/>
     <path d="m136.5 214.5c3.5 0.5 9.9973 0.0265 12.5-2.5"/>
     <path d="m142 205.5s5 0 7.5-2.5"/>
     <path d="m127 238c-3.1296 0.45371-14.392-2.5287-16.29-5.4669"/>
     <path d="m128.5 230c-3.1572-0.17853-13.973-5.4238-15.34-8.7857"/>
     <path d="m130.5 221.5c-3.3494-1.4253-10.881-8.8092-11.25-12.326"/>
     <path d="m133.5 213c-2.5157-2.4842-6.0698-7.9438-5.5724-11.465"/>
     <path d="m139.5 205s-2.0744-4.5494-0.83692-7.8613"/>
    </g>
    <path d="m127.5 262s-1.1075-45.881 14.804-58.252" clip-path="none" fill="none" stroke="url(#linearGradient34812)" stroke-linecap="round" stroke-width="5"/>
    <path d="m125 262v2.5l2.5 5 2.5-5v-2.5h-5" fill="#404040"/>
   </g>
  </g>
 </g>
</svg>
