<?xml version="1.0" encoding="UTF-8"?>
<!-- Created with Inkscape (http://www.inkscape.org/) -->
<svg version="1.1" viewBox="0 0 100 100" xmlns="http://www.w3.org/2000/svg">
 <defs>
  <clipPath id="clipPath4785">
   <path d="m0 197v100h100v-100z" fill="none" stroke="#000" stroke-width=".26458px"/>
  </clipPath>
  <clipPath id="clipPath4795">
   <path d="m0 197v100h100v-100z" fill="none" stroke="#000" stroke-width=".26458px"/>
  </clipPath>
 </defs>
 <g transform="translate(0 -197)">
  <g transform="translate(-17.5,-30)">
   <path d="m67.5 297 22.5 10v-7.5l-22.5-10z" fill="#c0c0c0"/>
   <path d="m67.5 289.5 22.5 10h9l-23-10z" fill="#fff"/>
  </g>
  <path d="m65 287-2e-6 -10h7.5v-7.5h7.5v-7.5h10v25z" fill="#9c9c9c"/>
  <path d="m57.5 259.5 22.5 10v-7.5l-22.5-10z" fill="#c0c0c0"/>
  <g transform="translate(-17.5,-30)">
   <path d="m60 304.5 22.5 10v-7.5l-22.5-10z" fill="#c0c0c0"/>
   <path d="m60 297 22.5 10h9l-23-10z" fill="#fff"/>
  </g>
  <path d="m50 259.5 27.5 12.5" fill="none" stroke="#000"/>
  <g fill="none" stroke="#000">
   <path d="m42.5 267 27.5 12.5"/>
   <path d="m45 264.5 27.5 12.5"/>
   <path d="m52.5 257 27.5 12.5"/>
  </g>
  <path transform="matrix(.26458 0 0 .26458 0 197)" d="m283.96 18.898h75.098v209.76h-52.913l-248.82-109.78z" fill="#fff"/>
  <path d="m2.5 252v42.5l10.166 1.6e-4 28.334-12.5 28.334 12.5 28.166-1.5e-4v-95h-22.5" fill="none" stroke="#fbfbfb" stroke-width="5"/>
  <path transform="matrix(.26458 0 0 .26458 0 197)" d="m151.18 302.36-151.18 66.697-7.021e-4 -55.149 151.18-83.99z" fill="#9c9c9c"/>
  <g fill="none" stroke="#000" stroke-width="5">
   <path d="m55 248.5-1e-6 8.5h-7.5v7.5h-7.5v11.5l30 13.5h22.5v-29.5h-12z"/>
   <path d="m67.5 287v-7.5h7.5v-7.5h7.5v-10"/>
  </g>
  <path d="m-3.0532e-5 280.06 55-30.556-27.5-12.5-27.5 15.278z" fill="#c0c0c0"/>
  <g clip-path="url(#clipPath4785)" fill="none" stroke="#000" stroke-width="18.898">
   <path transform="matrix(.26458 0 0 .26458 0 197)" d="m-18.898 377.4 170.08-75.035"/>
   <path transform="matrix(.26458 0 0 .26458 0 197)" d="m-18.898 324.41 226.77-125.98"/>
   <path transform="matrix(.26458 0 0 .26458 0 197)" d="m-18.899 218.53 124.84-69.353"/>
  </g>
  <path d="m51 243.5v9.5h-7.5v7.5h-7.5v18l33.5 15.5" fill="none" stroke="#fff" stroke-width="3"/>
  <g clip-path="url(#clipPath4795)" fill="none" stroke="#000" stroke-width="18.898">
   <path transform="matrix(.26458 0 0 .26458 0 197)" d="m312.81 238.11-274.02-120.89 308.54-136.12"/>
   <path transform="matrix(.26458 0 0 .26458 0 197)" d="m396.85 217.27s-47.244 20.843-47.244 20.843"/>
  </g>
  <g transform="matrix(.86956 0 0 .86956 -92.065 26.022)" stroke-width="1.15">
   <circle cx="137.5" cy="228.25" r="28.75" fill="#fff" fill-opacity=".48235" stroke="#fff" stroke-linecap="round" stroke-width="5.75"/>
   <g transform="matrix(1.0556 0 0 1.0556 179.72 -11.361)" fill="none">
    <g stroke="#000" stroke-width="3.2684">
     <g stroke-opacity=".48235">
      <path d="m-40 204.5v45"/>
      <path d="m-17.5 227h-45"/>
      <path d="m-55.91 211.09 31.82 31.82"/>
     </g>
     <path d="m-24.09 211.09-31.82 31.82" stroke-opacity=".34112"/>
    </g>
    <circle cx="-40" cy="227" r="22.5" stroke="#003266" stroke-linecap="square" stroke-width="5.4474"/>
   </g>
  </g>
 </g>
</svg>
