<?xml version="1.0" encoding="UTF-8"?>
<!-- Created with Inkscape (http://www.inkscape.org/) -->
<svg version="1.1" viewBox="0 0 16.933 16.933" xmlns="http://www.w3.org/2000/svg">
 <g>
  <rect y="-1.0093e-6" width="16.933" height="16.933" fill="#c0c0c0"/>
  <g transform="translate(.018658 -.060559)" aria-label="ag">
   <g>
    <path d="m9.6241 9.3257q0 0.46302 0.11162 0.75654 0.11162 0.29352 0.28112 0.45889 0.17363 0.16123 0.3762 0.22324 0.20257 0.05788 0.38447 0.05788 0.29766 0 0.5581-0.11989 0.26045-0.11989 0.45889-0.3266v-2.0547q-0.053743-0.074414-0.14883-0.1695t-0.22324-0.17363q-0.12402-0.082682-0.28525-0.13643-0.16123-0.057878-0.3514-0.057878-0.28525 0-0.50436 0.11576-0.21497 0.11162-0.3638 0.31419-0.14469 0.20257-0.21911 0.48783-0.074414 0.28112-0.074414 0.62425zm1.079-2.0919q0.25632 0.00413 0.44648 0.066146 0.19017 0.062012 0.3266 0.1571 0.13643 0.09095 0.21497 0.1819 0.08268 0.090951 0.11162 0.14469h0.01654l0.13229-0.44648h0.48369v4.1589q0 0.45475-0.14883 0.78962-0.14883 0.339-0.41755 0.56224-0.26872 0.22324-0.64906 0.33073-0.3762 0.11162-0.83509 0.11162-0.38861 0-0.69453-0.07028-0.30592-0.06615-0.47956-0.16123v-0.54157q0.14056 0.05788 0.27285 0.09508 0.13229 0.04134 0.27285 0.06615 0.14056 0.02894 0.28525 0.04134 0.14883 0.0124 0.3266 0.0124 0.6904 0 1.0583-0.32246t0.36794-0.98392v-0.52503h-0.0124q-0.21084 0.23151-0.49196 0.3514-0.27699 0.11576-0.63665 0.11576-0.16536 0-0.35553-0.03721-0.19018-0.0372-0.38034-0.12402-0.19017-0.09095-0.3638-0.23564-0.17363-0.14883-0.30592-0.36794-0.13229-0.22324-0.21497-0.52503-0.078548-0.30179-0.078548-0.69867 0-0.54984 0.14883-0.95085 0.14883-0.40514 0.39274-0.66973 0.24391-0.26458 0.55811-0.39274 0.31419-0.13229 0.64906-0.13229z" stroke-width=".26458"/>
   </g>
   <g transform="scale(1,-1)">
    <path d="m5.1304-9.2811q0 0.46302 0.11162 0.75654t0.28112 0.45889q0.17363 0.16123 0.3762 0.22324 0.20257 0.057878 0.38447 0.057878 0.29766 0 0.55811-0.11989 0.26045-0.11989 0.45889-0.3266v-2.0547q-0.053743-0.07441-0.14883-0.1695-0.095085-0.09508-0.22324-0.17363-0.12402-0.08268-0.28525-0.13643-0.16123-0.05788-0.3514-0.05788-0.28525 0-0.50436 0.11576-0.21497 0.11162-0.3638 0.31419-0.14469 0.20257-0.21911 0.48783-0.074414 0.28112-0.074414 0.62425zm1.079-2.0919q0.25632 0.0041 0.44648 0.06615 0.19017 0.06201 0.3266 0.1571 0.13643 0.09095 0.21497 0.1819 0.082682 0.09095 0.11162 0.14469h0.016537l0.13229-0.44648h0.48369v4.1589q0 0.45475-0.14883 0.78962-0.14883 0.339-0.41755 0.56224-0.26872 0.22324-0.64906 0.33073-0.3762 0.11162-0.83509 0.11162-0.38861 0-0.69453-0.07028-0.30592-0.066146-0.47956-0.16123v-0.54157q0.14056 0.057878 0.27285 0.095085 0.13229 0.041341 0.27285 0.066146 0.14056 0.028939 0.28525 0.041341 0.14883 0.012402 0.3266 0.012402 0.6904 0 1.0583-0.32246 0.36794-0.32246 0.36794-0.98392v-0.52503h-0.012402q-0.21084 0.23151-0.49196 0.3514-0.27699 0.11576-0.63665 0.11576-0.16536 0-0.35553-0.037207-0.19017-0.037211-0.38034-0.12403-0.19017-0.09095-0.3638-0.23564-0.17363-0.14883-0.30592-0.36794-0.13229-0.22324-0.21497-0.52503-0.078548-0.30179-0.078548-0.69867 0-0.54984 0.14883-0.95085 0.14883-0.40514 0.39274-0.66973 0.24391-0.26458 0.55811-0.39274 0.31419-0.13229 0.64906-0.13229z" stroke-width=".26458"/>
   </g>
  </g>
  <g stroke-width=".26458">
   <g aria-label="w3c">
    <path d="m1.8365 1.3306q-0.028939 0.14986-0.068213 0.29042l-0.12092 0.43925h-0.24081l-0.35037-1.0015h0.25838l0.12919 0.41961q0.044442 0.14573 0.078548 0.28215h0.00413q0.028943-0.13229 0.069251-0.28215l0.11472-0.41961h0.25838l0.11265 0.41961q0.036173 0.13333 0.069246 0.28215h0.00413q0.035144-0.13953 0.078553-0.28215l0.12919-0.41961h0.25838l-0.35037 1.0015h-0.24081l-0.12092-0.43925q-0.041341-0.14779-0.068213-0.29042z"/>
    <path d="m3.5211 1.4123q0 0.10439-0.045475 0.18604-0.045475 0.081649-0.14469 0.12816v0.00413q0.048576 0.013436 0.088884 0.041341t0.069246 0.068213q0.029972 0.040308 0.046509 0.091984 0.016536 0.050643 0.016536 0.11265 0 0.10129-0.033073 0.18293-0.032039 0.081649-0.098185 0.13953-0.066146 0.057878-0.1664 0.088884-0.099219 0.031006-0.23254 0.031006-0.037207 0-0.078548-0.00413-0.041341-0.0031-0.082682-0.011369-0.040308-0.00723-0.079582-0.018603-0.038241-0.011369-0.07028-0.026872v-0.21291q0.057878 0.026872 0.13333 0.045475 0.076481 0.018603 0.16536 0.018603 0.080615 0 0.13539-0.018603 0.05581-0.018604 0.089917-0.050643 0.034106-0.031006 0.048576-0.07338 0.015503-0.041341 0.015503-0.08785 0-0.068213-0.028939-0.11265-0.027905-0.045475-0.080615-0.068213-0.026872-0.011369-0.062012-0.015503-0.034107-0.00517-0.082682-0.00517h-0.16123v-0.20774h0.10955q0.047542 0 0.084749-0.00413 0.037207-0.00517 0.067179-0.01757 0.058911-0.023771 0.09095-0.072347 0.032039-0.049609 0.032039-0.12402 0-0.048576-0.018604-0.081649-0.018604-0.034106-0.050643-0.054777t-0.075448-0.029972q-0.043408-0.0093-0.085783-0.0093-0.086816 0-0.16123 0.01757-0.07338 0.016536-0.14366 0.045475v-0.21188q0.067179-0.025838 0.14779-0.043408 0.080615-0.01757 0.18914-0.01757 0.10542 0 0.18914 0.029972 0.084749 0.028939 0.14263 0.080615 0.058911 0.050643 0.088883 0.11989 0.031006 0.068213 0.031006 0.14779z"/>
    <path d="m4.5226 2.0386q-0.046509 0.019637-0.11369 0.033073-0.067179 0.014469-0.14159 0.014469-0.10852 0-0.20257-0.031006-0.094051-0.031006-0.16433-0.094051-0.07028-0.063045-0.11059-0.15916-0.040308-0.097152-0.040308-0.22634 0-0.14469 0.046509-0.24805 0.046509-0.10335 0.11989-0.16743 0.074414-0.065112 0.1664-0.095085 0.093017-0.031006 0.18293-0.031006 0.067179 0 0.12919 0.012402 0.062012 0.011369 0.11265 0.032039v0.19947q-0.045475-0.019637-0.097152-0.031006-0.050643-0.012402-0.10955-0.012402t-0.11265 0.018603q-0.053743 0.01757-0.095085 0.056844-0.041341 0.039274-0.066146 0.10439-0.023771 0.064079-0.023771 0.15503 0 0.066146 0.018604 0.12506 0.018604 0.057878 0.053743 0.099219 0.036174 0.041341 0.09095 0.067179 0.055811 0.024805 0.13126 0.024805 0.067179 0 0.12196-0.013436 0.054777-0.013436 0.10335-0.033073z"/>
   </g>
   <g aria-label="a11y">
    <path d="m12.336 1.9525h-0.0041q-0.02067 0.021704-0.04961 0.044442t-0.06615 0.043408q-0.03721 0.019637-0.08268 0.032039t-0.09819 0.012402q-0.07131 0-0.13332-0.022738-0.06201-0.021704-0.10645-0.063045-0.04444-0.042375-0.07028-0.10129-0.0248-0.059945-0.0248-0.13333 0-0.080615 0.02894-0.14469 0.02997-0.064079 0.08268-0.10852 0.05271-0.044442 0.12609-0.067179 0.07338-0.023771 0.16226-0.023771 0.06511 0 0.11989 0.00827t0.09612 0.019637v-0.040308q0-0.03514-0.0124-0.067179-0.01137-0.033073-0.03824-0.057878-0.02584-0.025838-0.06821-0.040308-0.04237-0.015503-0.10335-0.015503-0.07441 0-0.14883 0.016536-0.07441 0.016536-0.16123 0.049609v-0.1912q0.07545-0.033073 0.1602-0.050643 0.08475-0.01757 0.17777-0.018603 0.10956 0 0.1912 0.026872 0.08268 0.026872 0.13746 0.074414 0.05581 0.046509 0.08268 0.11059 0.0279 0.064079 0.0279 0.13953v0.37724q0 0.099219 0.0021 0.17053 0.0021 0.071314 0.0041 0.12712h-0.2212zm-0.019637-0.32039q-0.03514-0.00827-0.08062-0.014469-0.04548-0.00723-0.09198-0.00723-0.08992 0-0.14263 0.036174-0.05168 0.03514-0.05168 0.10852 0 0.034106 0.01137 0.059945 0.0124 0.024805 0.03204 0.041341 0.02067 0.016536 0.04754 0.024805 0.02687 0.00827 0.05684 0.00827 0.03721 0 0.07028-0.0093 0.03307-0.010335 0.06098-0.024805 0.02791-0.015503 0.04961-0.034107 0.02274-0.018603 0.03824-0.036174z"/>
    <path d="m13.145 1.8512v-0.5333l-0.3483 0.099219v-0.21704l0.40514-0.14263h0.1881v0.79375h0.29146v0.20774h-0.86403v-0.20774z"/>
    <path d="m14.191 1.8512v-0.5333l-0.3483 0.099219v-0.21704l0.40514-0.14263h0.1881v0.79375h0.29146v0.20774h-0.86403v-0.20774z"/>
    <path d="m14.806 1.0575h0.26252l0.14986 0.36277q0.08475 0.20671 0.11989 0.30592h0.0041q0.02584-0.077515 0.10955-0.28732l0.15503-0.38137h0.26562l-0.64492 1.4821h-0.24185l0.22944-0.5364z"/>
   </g>
   <g aria-label="silver">
    <path d="m1.5493 15.587q0-0.03204-0.018603-0.05271-0.01757-0.02067-0.047542-0.03411-0.029972-0.01447-0.069246-0.02481-0.038241-0.01033-0.080615-0.02067-0.053743-0.01447-0.10335-0.03307-0.049609-0.01964-0.08785-0.05064-0.037207-0.03101-0.059945-0.07752-0.021704-0.04754-0.021704-0.11576 0-0.08372 0.029972-0.14469 0.029972-0.06201 0.080615-0.10232 0.051676-0.04031 0.11886-0.05994 0.068213-0.01964 0.14366-0.01964 0.091984 0 0.1726 0.0155 0.080615 0.01447 0.14573 0.03824v0.19947q-0.034106-0.01137-0.072347-0.02067-0.037207-0.01034-0.076481-0.01757-0.038241-0.0072-0.076481-0.01137-0.038241-0.0052-0.072347-0.0052-0.043408 0-0.073381 0.0083-0.029972 0.0083-0.048576 0.02274-0.018603 0.01344-0.026872 0.03204-0.00827 0.01757-0.00827 0.03721 0 0.03411 0.01757 0.05581 0.018603 0.0217 0.050643 0.03514 0.032039 0.01344 0.067179 0.02274 0.03514 0.0083 0.068213 0.01654 0.051676 0.0124 0.10335 0.02997 0.051676 0.01757 0.093018 0.04961 0.041341 0.03101 0.067179 0.08165 0.026872 0.04961 0.026872 0.12712 0 0.08475-0.032039 0.14779-0.032039 0.06304-0.089917 0.10542-0.056844 0.04134-0.13746 0.06098-0.079582 0.02067-0.1757 0.02067-0.095085 0-0.17157-0.0155-0.075448-0.01447-0.12506-0.03721v-0.1974q0.080615 0.02997 0.14883 0.04134 0.068213 0.01033 0.12712 0.01033 0.045475 0 0.084749-0.0062 0.039274-0.0072 0.067179-0.0217 0.028939-0.01447 0.045475-0.03617 0.016536-0.02274 0.016536-0.05374z"/>
    <path d="m2.0092 14.876h0.24495v1.0015h-0.24495zm-0.0062-0.49506h0.25735v0.26562h-0.25735z"/>
    <path d="m2.5383 15.877v-1.4966h0.24495v1.4966z"/>
    <path d="m3.9563 14.876-0.38757 1.0015h-0.24288l-0.38861-1.0015h0.25838l0.13953 0.38241q0.059945 0.16123 0.10955 0.32246h0.00413q0.043408-0.13953 0.10749-0.31626l0.13953-0.38861z"/>
    <path d="m4.6188 15.706q0.071314 0 0.14883-0.01447 0.077515-0.01447 0.1571-0.04134v0.19534q-0.047542 0.02067-0.14573 0.03927-0.098185 0.0186-0.20361 0.0186-0.10645 0-0.20257-0.02687-0.095085-0.02791-0.1664-0.08888-0.071313-0.06098-0.11369-0.15813-0.041341-0.09715-0.041341-0.23564 0-0.13642 0.039274-0.23874 0.039274-0.10232 0.10542-0.1695 0.066146-0.06718 0.1509-0.10025 0.085783-0.03411 0.17673-0.03411 0.095085 0 0.17467 0.02894 0.080615 0.02894 0.13849 0.09095 0.058911 0.06201 0.090951 0.1602 0.033073 0.09715 0.033073 0.23048-0.00103 0.05168-0.0031 0.08785h-0.65629q0.00517 0.06925 0.031006 0.11886 0.025838 0.04858 0.067179 0.07958 0.042375 0.02997 0.098185 0.04444 0.05581 0.01344 0.12092 0.01344zm-0.098185-0.66352q-0.046509 0-0.082682 0.01757-0.036174 0.01654-0.063045 0.04651-0.025838 0.02894-0.041341 0.06821t-0.02067 0.08372h0.39377q0-0.04444-0.012402-0.08372-0.011369-0.03927-0.03514-0.06821-0.022738-0.02997-0.057878-0.04651-0.034106-0.01757-0.080615-0.01757z"/>
    <path d="m5.7857 15.07h-0.020671q-0.11265 0-0.19844 0.03411-0.084749 0.03307-0.13126 0.10232v0.67076h-0.24495v-1.0015h0.20257l0.022738 0.13953h0.00413q0.043408-0.07648 0.11886-0.11989 0.076481-0.04444 0.18293-0.04444 0.037207 0 0.064079 0.0041z"/>
   </g>
  </g>
 </g>
</svg>
