<?xml version="1.0" encoding="UTF-8"?>
<!-- Created with Inkscape (http://www.inkscape.org/) -->
<svg version="1.1" viewBox="0 0 51 131" xmlns="http://www.w3.org/2000/svg">
 <defs>
  <marker id="TriangleOutM-2" overflow="visible" orient="auto">
   <path transform="scale(.4)" d="m5.77 0-8.65 5v-10z" fill-rule="evenodd" stroke="#000" stroke-width="1pt"/>
  </marker>
  <marker id="TriangleOutM" overflow="visible" orient="auto">
   <path transform="scale(.4)" d="m5.77 0-8.65 5v-10z" fill-rule="evenodd" stroke="#000" stroke-width="1pt"/>
  </marker>
 </defs>
 <g transform="translate(180.47 38.375)">
  <g transform="translate(-179.97 -39.875)">
   <rect y="2" width="50" height="30" fill="#fff" stroke="#000" stroke-linecap="round"/>
   <g transform="matrix(.26458 0 0 .26458 -57.523 2.3872)" aria-label="Guidelines">
    <path d="m270.02 62.823q-2.625 1.4297-5.8476 1.4297-3.7266 0-6.0352-2.3203-2.3086-2.3203-2.3086-6.1406 0-3.9023 2.5195-6.3984 2.5312-2.5078 6.4219-2.5078 2.8008 0 4.7109 0.82031v2.8711q-1.9336-1.2891-4.6055-1.2891-2.6836 0-4.4062 1.7695-1.7109 1.7695-1.7109 4.582 0 2.8945 1.4766 4.5586 1.4766 1.6523 4.0078 1.6523 1.7344 0 3-0.66797v-3.9961h-3.5391v-2.3438h6.3164z"/>
    <path d="m283.8 63.972h-2.7188v-1.8984h-0.0469q-1.1836 2.1797-3.6797 2.1797-4.2539 0-4.2539-5.1094v-7.1719h2.7188v6.8906q0 3.2344 2.4961 3.2344 1.207 0 1.9805-0.89062 0.78515-0.89062 0.78515-2.332v-6.9023h2.7188z"/>
    <path d="m288.72 49.452q-0.66797 0-1.1484-0.43359-0.46875-0.43359-0.46875-1.1016 0-0.66797 0.46875-1.1133 0.48047-0.44531 1.1484-0.44531 0.69141 0 1.1719 0.44531 0.48047 0.44531 0.48047 1.1133 0 0.63281-0.48047 1.0898-0.48046 0.44531-1.1719 0.44531zm1.3477 14.52h-2.7188v-12h2.7188z"/>
    <path d="m304.54 63.972h-2.7188v-2.0391h-0.0469q-1.3125 2.3203-4.043 2.3203-2.2148 0-3.5508-1.6055-1.3242-1.6172-1.3242-4.3945 0-2.9766 1.4648-4.7695 1.4766-1.793 3.9258-1.793 2.4258 0 3.5274 1.9453h0.0469v-7.4297h2.7188zm-2.6836-5.4844v-1.5703q0-1.2773-0.83203-2.168t-2.1211-0.89062q-1.5234 0-2.4023 1.1367-0.86719 1.1367-0.86719 3.1523 0 1.8281 0.83203 2.8945 0.84375 1.0547 2.2617 1.0547 1.3945 0 2.2617-1.0195 0.86719-1.0312 0.86719-2.5898z"/>
    <path d="m318.28 58.71h-8.1797q0.0469 1.6641 1.0195 2.5664 0.98438 0.90234 2.6953 0.90234 1.9219 0 3.5274-1.1484v2.1914q-1.6406 1.0312-4.3359 1.0312-2.6484 0-4.1602-1.6289-1.5-1.6406-1.5-4.6055 0-2.8008 1.6524-4.5586 1.6641-1.7695 4.125-1.7695 2.4609 0 3.8086 1.582t1.3477 4.3945zm-2.625-1.9219q-0.0117-1.4648-0.69141-2.2734-0.67969-0.82031-1.875-0.82031-1.1719 0-1.9922 0.85547-0.80859 0.85547-0.99609 2.2383z"/>
    <path d="m323.6 63.972h-2.7305v-17.766h2.7305z"/>
    <path d="m328.52 49.452q-0.66796 0-1.1484-0.43359-0.46875-0.43359-0.46875-1.1016 0-0.66797 0.46875-1.1133 0.48047-0.44531 1.1484-0.44531 0.69141 0 1.1719 0.44531 0.48047 0.44531 0.48047 1.1133 0 0.63281-0.48047 1.0898-0.48047 0.44531-1.1719 0.44531zm1.3477 14.52h-2.7188v-12h2.7188z"/>
    <path d="m344.12 63.972h-2.7188v-6.7617q0-3.3633-2.3789-3.3633-1.2422 0-2.0508 0.9375-0.80859 0.92578-0.80859 2.3438v6.8438h-2.7305v-12h2.7305v1.9922h0.0469q1.3477-2.2734 3.8906-2.2734 1.957 0 2.9883 1.2773 1.0312 1.2656 1.0312 3.668z"/>
    <path d="m357.61 58.71h-8.1797q0.0469 1.6641 1.0195 2.5664 0.98437 0.90234 2.6953 0.90234 1.9219 0 3.5273-1.1484v2.1914q-1.6406 1.0312-4.3359 1.0312-2.6484 0-4.1602-1.6289-1.5-1.6406-1.5-4.6055 0-2.8008 1.6523-4.5586 1.6641-1.7695 4.125-1.7695t3.8086 1.582q1.3476 1.582 1.3476 4.3945zm-2.625-1.9219q-0.0117-1.4648-0.6914-2.2734-0.67969-0.82031-1.875-0.82031-1.1719 0-1.9922 0.85547-0.8086 0.85547-0.9961 2.2383z"/>
    <path d="m359.45 63.597v-2.5195q1.5234 1.1602 3.3633 1.1602 2.4609 0 2.4609-1.4531 0-0.41016-0.21093-0.69141-0.21094-0.29297-0.57422-0.51562-0.35156-0.22266-0.84375-0.39844-0.48047-0.17578-1.0781-0.39844-0.73828-0.29297-1.3359-0.62109-0.58594-0.32812-0.98438-0.73828-0.38672-0.42188-0.58594-0.94922t-0.19922-1.2305q0-0.86719 0.41016-1.5234 0.41016-0.66797 1.1016-1.1133 0.69141-0.45703 1.5703-0.67969 0.8789-0.23438 1.8164-0.23438 1.6641 0 2.9766 0.50391v2.3789q-1.2656-0.86719-2.9062-0.86719-0.51562 0-0.9375 0.10547-0.41015 0.10547-0.70312 0.29297t-0.45703 0.45703q-0.16406 0.25781-0.16406 0.57422 0 0.38672 0.16406 0.65625 0.16406 0.26953 0.48047 0.48047 0.32812 0.19922 0.77343 0.375 0.45704 0.16406 1.043 0.36328 0.77344 0.31641 1.3828 0.64453 0.62109 0.32812 1.0547 0.75 0.4336 0.41016 0.66797 0.96094 0.23438 0.53906 0.23438 1.2891 0 0.91406-0.42188 1.5938-0.42187 0.67969-1.125 1.125-0.70312 0.44531-1.6289 0.65625-0.91407 0.22266-1.9336 0.22266-1.9688 0-3.4102-0.65625z"/>
   </g>
  </g>
  <g transform="translate(-179.97 -39.875)">
   <rect x="1.7408e-13" y="47" width="50" height="30" fill="#fff" stroke="#000" stroke-linecap="round"/>
   <g transform="matrix(.26458 0 0 .26458 -64.93 6.0797)" aria-label="Outcomes Critical Errors Outcome Scoring">
    <path d="m293.82 196.54q-3.6328 0-5.8242-2.3555-2.1797-2.3555-2.1797-6.1289 0-4.0547 2.2266-6.4688 2.2266-2.4141 6.0469-2.4141 3.5391 0 5.6953 2.3438 2.168 2.3438 2.168 6.1289 0 4.1133-2.2148 6.5039-2.2148 2.3906-5.918 2.3906zm0.1289-14.918q-2.3086 0-3.7617 1.7227-1.4414 1.7226-1.4414 4.5352 0 2.8008 1.4062 4.5117t3.6797 1.7109q2.4141 0 3.8086-1.6289 1.3945-1.6289 1.3945-4.5586 0-3.0117-1.3594-4.6524-1.3476-1.6406-3.7266-1.6406z" style="font-feature-settings:normal;font-variant-caps:normal;font-variant-ligatures:normal;font-variant-numeric:normal"/>
    <path d="m315.2 196.26h-2.7188v-1.8984h-0.0469q-1.1836 2.1797-3.6797 2.1797-4.2539 0-4.2539-5.1094v-7.1719h2.7188v6.8906q0 3.2344 2.4961 3.2344 1.207 0 1.9805-0.89063 0.78516-0.89062 0.78516-2.332v-6.9023h2.7188z" style="font-feature-settings:normal;font-variant-caps:normal;font-variant-ligatures:normal;font-variant-numeric:normal"/>
    <path d="m325.08 196.13q-0.79687 0.39844-2.0976 0.39844-3.4922 0-3.4922-3.3516v-6.7852h-2.0039v-2.1328h2.0039v-2.7774l2.7188-0.77343v3.5508h2.8711v2.1328h-2.8711v6q0 1.0664 0.38672 1.5234t1.2891 0.45703q0.69141 0 1.1953-0.39844z" style="font-feature-settings:normal;font-variant-caps:normal;font-variant-ligatures:normal;font-variant-numeric:normal"/>
    <path d="m335.82 195.71q-1.4414 0.83203-3.4102 0.83203-2.6719 0-4.3125-1.6641-1.6406-1.6758-1.6406-4.3359 0-2.9648 1.7578-4.7578 1.7695-1.8047 4.7226-1.8047 1.6406 0 2.8945 0.57422v2.5312q-1.2539-0.9375-2.6719-0.9375-1.7227 0-2.8242 1.1719-1.1016 1.1602-1.1016 3.0469 0 1.8633 1.0312 2.9414 1.043 1.0781 2.7891 1.0781 1.4648 0 2.7656-1.043z" style="font-feature-settings:normal;font-variant-caps:normal;font-variant-ligatures:normal;font-variant-numeric:normal"/>
    <path d="m343.85 196.54q-2.7773 0-4.4414-1.6758-1.6523-1.6875-1.6523-4.4648 0-3.0234 1.7227-4.7226 1.7344-1.6992 4.6641-1.6992 2.8125 0 4.3828 1.6523 1.5703 1.6524 1.5703 4.582 0 2.8711-1.6992 4.6055-1.6875 1.7227-4.5469 1.7227zm0.12891-10.395q-1.5938 0-2.5195 1.1133-0.92578 1.1133-0.92578 3.0703 0 1.8867 0.9375 2.9766 0.9375 1.0781 2.5078 1.0781 1.6055 0 2.4609-1.0664 0.86719-1.0664 0.86719-3.0352 0-1.9805-0.86719-3.0586-0.85547-1.0781-2.4609-1.0781z" style="font-feature-settings:normal;font-variant-caps:normal;font-variant-ligatures:normal;font-variant-numeric:normal"/>
    <path d="m370.81 196.26h-2.7188v-6.5391q0-1.8867-0.53906-2.7305-0.52734-0.84375-1.793-0.84375-1.0664 0-1.8164 1.0664-0.73829 1.0664-0.73829 2.5547v6.4922h-2.7305v-6.7617q0-3.3516-2.3672-3.3516-1.1016 0-1.8164 1.0078-0.70312 1.0078-0.70312 2.6133v6.4922h-2.7188v-12h2.7188v1.8984h0.0469q1.3008-2.1797 3.7852-2.1797 1.2422 0 2.168 0.6914 0.9375 0.67969 1.2773 1.793 1.3359-2.4844 3.9844-2.4844 3.9609 0 3.9609 4.8867z" style="font-feature-settings:normal;font-variant-caps:normal;font-variant-ligatures:normal;font-variant-numeric:normal"/>
    <path d="m384.31 191h-8.1797q0.0469 1.6641 1.0195 2.5664 0.98437 0.90234 2.6953 0.90234 1.9219 0 3.5273-1.1484v2.1914q-1.6406 1.0312-4.3359 1.0312-2.6484 0-4.1602-1.6289-1.5-1.6406-1.5-4.6055 0-2.8008 1.6523-4.5586 1.6641-1.7695 4.125-1.7695 2.4609 0 3.8086 1.582 1.3476 1.582 1.3476 4.3945zm-2.625-1.9219q-0.0117-1.4648-0.6914-2.2734-0.67969-0.82032-1.875-0.82032-1.1719 0-1.9922 0.85547-0.80859 0.85547-0.99609 2.2383z" style="font-feature-settings:normal;font-variant-caps:normal;font-variant-ligatures:normal;font-variant-numeric:normal"/>
    <path d="m386.15 195.88v-2.5195q1.5234 1.1602 3.3633 1.1602 2.4609 0 2.4609-1.4531 0-0.41016-0.21094-0.69141-0.21094-0.29297-0.57422-0.51562-0.35156-0.22266-0.84375-0.39844-0.48047-0.17578-1.0781-0.39844-0.73828-0.29297-1.3359-0.62109-0.58594-0.32813-0.98438-0.73828-0.38672-0.42188-0.58594-0.94922-0.19921-0.52735-0.19921-1.2305 0-0.86719 0.41015-1.5234 0.41016-0.66797 1.1016-1.1133 0.69141-0.45703 1.5703-0.67969 0.8789-0.23437 1.8164-0.23437 1.6641 0 2.9766 0.5039v2.3789q-1.2656-0.86719-2.9062-0.86719-0.51563 0-0.9375 0.10547-0.41016 0.10547-0.70313 0.29297t-0.45703 0.45703q-0.16406 0.25781-0.16406 0.57422 0 0.38672 0.16406 0.65625t0.48047 0.48047q0.32812 0.19922 0.77344 0.375 0.45703 0.16406 1.043 0.36328 0.77344 0.31641 1.3828 0.64453 0.62109 0.32813 1.0547 0.75 0.4336 0.41016 0.66797 0.96094 0.23438 0.53906 0.23438 1.2891 0 0.91406-0.42188 1.5938-0.42187 0.67969-1.125 1.125-0.70312 0.44531-1.6289 0.65625-0.91407 0.22266-1.9336 0.22266-1.9688 0-3.4102-0.65625z" style="font-feature-settings:normal;font-variant-caps:normal;font-variant-ligatures:normal;font-variant-numeric:normal"/>
    <path d="m300.84 217.97q-1.2656 0.65625-3.1484 0.65625-2.4375 0-3.9062-1.5391t-1.4688-4.0391q0-2.6875 1.6484-4.3438 1.6562-1.6562 4.1797-1.6562 1.625 0 2.6953 0.46093v1.8438q-1.1328-0.67187-2.5-0.67187-1.8203 0-2.9531 1.1641-1.125 1.1641-1.125 3.1094 0 1.8516 1.0547 2.9531 1.0547 1.0938 2.7734 1.0938 1.5859 0 2.75-0.75z" style="font-feature-settings:normal;font-variant-caps:normal;font-variant-ligatures:normal;font-variant-numeric:normal"/>
    <path d="m307.4 212.16q-0.32812-0.25781-0.94531-0.25781-0.80469 0-1.3438 0.72656-0.53906 0.72657-0.53906 1.9766v3.8281h-1.8125v-8h1.8125v1.6484h0.0312q0.26562-0.84375 0.8125-1.3125 0.55468-0.47656 1.2344-0.47656 0.49219 0 0.75 0.14843z" style="font-feature-settings:normal;font-variant-caps:normal;font-variant-ligatures:normal;font-variant-numeric:normal"/>
    <path d="m309.61 208.76q-0.44531 0-0.76563-0.28906-0.3125-0.28906-0.3125-0.73437 0-0.44532 0.3125-0.74219 0.32032-0.29688 0.76563-0.29688 0.46094 0 0.78125 0.29688 0.32031 0.29687 0.32031 0.74219 0 0.42187-0.32031 0.72656-0.32031 0.29687-0.78125 0.29687zm0.89844 9.6797h-1.8125v-8h1.8125z" style="font-feature-settings:normal;font-variant-caps:normal;font-variant-ligatures:normal;font-variant-numeric:normal"/>
    <path d="m317.1 218.35q-0.53125 0.26563-1.3984 0.26563-2.3281 0-2.3281-2.2344v-4.5234h-1.3359v-1.4219h1.3359v-1.8516l1.8125-0.51563v2.3672h1.9141v1.4219h-1.9141v4q0 0.71093 0.25782 1.0156 0.25781 0.30469 0.85937 0.30469 0.46094 0 0.79688-0.26563z" style="font-feature-settings:normal;font-variant-caps:normal;font-variant-ligatures:normal;font-variant-numeric:normal"/>
    <path d="m319.58 208.76q-0.44531 0-0.76563-0.28906-0.3125-0.28906-0.3125-0.73437 0-0.44532 0.3125-0.74219 0.32032-0.29688 0.76563-0.29688 0.46094 0 0.78125 0.29688 0.32031 0.29687 0.32031 0.74219 0 0.42187-0.32031 0.72656-0.32031 0.29687-0.78125 0.29687zm0.89844 9.6797h-1.8125v-8h1.8125z" style="font-feature-settings:normal;font-variant-caps:normal;font-variant-ligatures:normal;font-variant-numeric:normal"/>
    <path d="m328.58 218.07q-0.96094 0.55469-2.2734 0.55469-1.7812 0-2.875-1.1094-1.0938-1.1172-1.0938-2.8906 0-1.9766 1.1719-3.1719 1.1797-1.2031 3.1484-1.2031 1.0938 0 1.9297 0.38281v1.6875q-0.83594-0.625-1.7812-0.625-1.1484 0-1.8828 0.78125-0.73438 0.77344-0.73438 2.0312 0 1.2422 0.6875 1.9609 0.69532 0.71875 1.8594 0.71875 0.97656 0 1.8438-0.69531z" style="font-feature-settings:normal;font-variant-caps:normal;font-variant-ligatures:normal;font-variant-numeric:normal"/>
    <path d="m336.53 218.44h-1.7578v-1.25h-0.0312q-0.82813 1.4375-2.4297 1.4375-1.1797 0-1.8516-0.64062-0.66406-0.64063-0.66406-1.6953 0-2.2656 2.6094-2.6406l2.375-0.33594q0-1.7109-1.625-1.7109-1.4297 0-2.5781 0.98438v-1.5859q1.2656-0.75 2.9219-0.75 3.0312 0 3.0312 2.9844zm-1.75-3.9297-1.6797 0.23438q-0.78125 0.10156-1.1797 0.38281-0.39063 0.27344-0.39063 0.96875 0 0.50781 0.35938 0.83594 0.36718 0.32031 0.97656 0.32031 0.82812 0 1.3672-0.57812 0.54687-0.58594 0.54687-1.4688z" style="font-feature-settings:normal;font-variant-caps:normal;font-variant-ligatures:normal;font-variant-numeric:normal"/>
    <path d="m340.55 218.44h-1.8203v-11.844h1.8203z" style="font-feature-settings:normal;font-variant-caps:normal;font-variant-ligatures:normal;font-variant-numeric:normal"/>
    <path d="m353.81 218.44h-6.2891v-11.203h6.0391v1.5781h-4.1797v3.1719h3.8516v1.5703h-3.8516v3.3125h4.4297z" style="font-feature-settings:normal;font-variant-caps:normal;font-variant-ligatures:normal;font-variant-numeric:normal"/>
    <path d="m360.24 212.16q-0.32812-0.25781-0.94531-0.25781-0.80469 0-1.3438 0.72656-0.53906 0.72657-0.53906 1.9766v3.8281h-1.8125v-8h1.8125v1.6484h0.0312q0.26562-0.84375 0.8125-1.3125 0.55468-0.47656 1.2344-0.47656 0.49219 0 0.75 0.14843z" style="font-feature-settings:normal;font-variant-caps:normal;font-variant-ligatures:normal;font-variant-numeric:normal"/>
    <path d="m366.18 212.16q-0.32812-0.25781-0.94531-0.25781-0.80469 0-1.3438 0.72656-0.53906 0.72657-0.53906 1.9766v3.8281h-1.8125v-8h1.8125v1.6484h0.0312q0.26562-0.84375 0.8125-1.3125 0.55468-0.47656 1.2344-0.47656 0.49219 0 0.75 0.14843z" style="font-feature-settings:normal;font-variant-caps:normal;font-variant-ligatures:normal;font-variant-numeric:normal"/>
    <path d="m370.9 218.62q-1.8516 0-2.9609-1.1172-1.1016-1.125-1.1016-2.9766 0-2.0156 1.1484-3.1484 1.1562-1.1328 3.1094-1.1328 1.875 0 2.9219 1.1016 1.0469 1.1016 1.0469 3.0547 0 1.9141-1.1328 3.0703-1.125 1.1484-3.0312 1.1484zm0.0859-6.9297q-1.0625 0-1.6797 0.74219t-0.61719 2.0469q0 1.2578 0.625 1.9844 0.625 0.71875 1.6719 0.71875 1.0703 0 1.6406-0.71094 0.57813-0.71093 0.57813-2.0234 0-1.3203-0.57813-2.0391-0.57031-0.71875-1.6406-0.71875z" style="font-feature-settings:normal;font-variant-caps:normal;font-variant-ligatures:normal;font-variant-numeric:normal"/>
    <path d="m381.56 212.16q-0.32812-0.25781-0.94531-0.25781-0.80469 0-1.3438 0.72656-0.53906 0.72657-0.53906 1.9766v3.8281h-1.8125v-8h1.8125v1.6484h0.0312q0.26562-0.84375 0.8125-1.3125 0.55468-0.47656 1.2344-0.47656 0.49219 0 0.75 0.14843z" style="font-feature-settings:normal;font-variant-caps:normal;font-variant-ligatures:normal;font-variant-numeric:normal"/>
    <path d="m382.45 218.19v-1.6797q1.0156 0.77344 2.2422 0.77344 1.6406 0 1.6406-0.96875 0-0.27344-0.14063-0.46094-0.14062-0.19531-0.38281-0.34375-0.23437-0.14843-0.5625-0.26562-0.32031-0.11719-0.71875-0.26563-0.49219-0.19531-0.89062-0.41406-0.39063-0.21875-0.65625-0.49219-0.25782-0.28125-0.39063-0.63281t-0.13281-0.82031q0-0.57813 0.27344-1.0156 0.27343-0.44531 0.73437-0.74218 0.46094-0.30469 1.0469-0.45313 0.58593-0.15625 1.2109-0.15625 1.1094 0 1.9844 0.33594v1.5859q-0.84375-0.57813-1.9375-0.57813-0.34375 0-0.625 0.0703-0.27344 0.0703-0.46875 0.19532-0.19531 0.125-0.30469 0.30468-0.10937 0.17188-0.10937 0.38282 0 0.25781 0.10937 0.4375 0.10938 0.17968 0.32031 0.32031 0.21875 0.13281 0.51563 0.25 0.30469 0.10937 0.69531 0.24219 0.51563 0.21093 0.92188 0.42968 0.41406 0.21875 0.70312 0.5 0.28906 0.27344 0.44531 0.64063 0.15625 0.35937 0.15625 0.85937 0 0.60938-0.28125 1.0625-0.28125 0.45313-0.75 0.75-0.46875 0.29688-1.0859 0.4375-0.60938 0.14844-1.2891 0.14844-1.3125 0-2.2734-0.4375z" style="font-feature-settings:normal;font-variant-caps:normal;font-variant-ligatures:normal;font-variant-numeric:normal"/>
    <path d="m283.05 239.96q-2.4219 0-3.8828-1.5703-1.4531-1.5703-1.4531-4.0859 0-2.7031 1.4844-4.3125 1.4844-1.6094 4.0312-1.6094 2.3594 0 3.7969 1.5625 1.4453 1.5625 1.4453 4.0859 0 2.7422-1.4766 4.3359t-3.9453 1.5938zm0.0859-9.9453q-1.5391 0-2.5078 1.1484-0.96093 1.1484-0.96093 3.0234 0 1.8672 0.9375 3.0078 0.9375 1.1406 2.4531 1.1406 1.6094 0 2.5391-1.0859 0.92969-1.0859 0.92969-3.0391 0-2.0078-0.90625-3.1016-0.89844-1.0938-2.4844-1.0938z" style="font-feature-settings:normal;font-variant-caps:normal;font-variant-ligatures:normal;font-variant-numeric:normal"/>
    <path d="m297.3 239.77h-1.8125v-1.2656h-0.0312q-0.78906 1.4531-2.4531 1.4531-2.8359 0-2.8359-3.4062v-4.7812h1.8125v4.5938q0 2.1562 1.6641 2.1562 0.80469 0 1.3203-0.59375 0.52344-0.59375 0.52344-1.5547v-4.6016h1.8125z" style="font-feature-settings:normal;font-variant-caps:normal;font-variant-ligatures:normal;font-variant-numeric:normal"/>
    <path d="m303.88 239.68q-0.53125 0.26563-1.3984 0.26563-2.3281 0-2.3281-2.2344v-4.5234h-1.3359v-1.4219h1.3359v-1.8516l1.8125-0.51563v2.3672h1.9141v1.4219h-1.9141v4q0 0.71093 0.25782 1.0156 0.25781 0.30469 0.85937 0.30469 0.46094 0 0.79688-0.26563z" style="font-feature-settings:normal;font-variant-caps:normal;font-variant-ligatures:normal;font-variant-numeric:normal"/>
    <path d="m311.05 239.4q-0.96094 0.55469-2.2734 0.55469-1.7812 0-2.875-1.1094-1.0938-1.1172-1.0938-2.8906 0-1.9766 1.1719-3.1719 1.1797-1.2031 3.1484-1.2031 1.0938 0 1.9297 0.38281v1.6875q-0.83594-0.625-1.7812-0.625-1.1484 0-1.8828 0.78125-0.73438 0.77344-0.73438 2.0312 0 1.2422 0.6875 1.9609 0.69532 0.71875 1.8594 0.71875 0.97656 0 1.8438-0.69531z" style="font-feature-settings:normal;font-variant-caps:normal;font-variant-ligatures:normal;font-variant-numeric:normal"/>
    <path d="m316.4 239.96q-1.8516 0-2.9609-1.1172-1.1016-1.125-1.1016-2.9766 0-2.0156 1.1484-3.1484 1.1562-1.1328 3.1094-1.1328 1.875 0 2.9219 1.1016 1.0469 1.1016 1.0469 3.0547 0 1.9141-1.1328 3.0703-1.125 1.1484-3.0312 1.1484zm0.0859-6.9297q-1.0625 0-1.6797 0.74219t-0.61719 2.0469q0 1.2578 0.625 1.9844 0.625 0.71875 1.6719 0.71875 1.0703 0 1.6406-0.71094 0.57813-0.71093 0.57813-2.0234 0-1.3203-0.57813-2.0391-0.57031-0.71875-1.6406-0.71875z" style="font-feature-settings:normal;font-variant-caps:normal;font-variant-ligatures:normal;font-variant-numeric:normal"/>
    <path d="m334.38 239.77h-1.8125v-4.3594q0-1.2578-0.35937-1.8203-0.35156-0.5625-1.1953-0.5625-0.71094 0-1.2109 0.71094-0.49219 0.71094-0.49219 1.7031v4.3281h-1.8203v-4.5078q0-2.2344-1.5781-2.2344-0.73437 0-1.2109 0.67188-0.46875 0.67187-0.46875 1.7422v4.3281h-1.8125v-8h1.8125v1.2656h0.0312q0.86718-1.4531 2.5234-1.4531 0.82813 0 1.4453 0.46094 0.625 0.45312 0.85156 1.1953 0.89062-1.6562 2.6562-1.6562 2.6406 0 2.6406 3.2578z" style="font-feature-settings:normal;font-variant-caps:normal;font-variant-ligatures:normal;font-variant-numeric:normal"/>
    <path d="m343.38 236.26h-5.4531q0.0312 1.1094 0.67969 1.7109 0.65625 0.60156 1.7969 0.60156 1.2812 0 2.3516-0.76563v1.4609q-1.0938 0.6875-2.8906 0.6875-1.7656 0-2.7734-1.0859-1-1.0938-1-3.0703 0-1.8672 1.1016-3.0391 1.1094-1.1797 2.75-1.1797 1.6406 0 2.5391 1.0547 0.89843 1.0547 0.89843 2.9297zm-1.75-1.2812q-8e-3 -0.97656-0.46093-1.5156-0.45313-0.54687-1.25-0.54687-0.78125 0-1.3281 0.57031-0.53906 0.57031-0.66406 1.4922z" style="font-feature-settings:normal;font-variant-caps:normal;font-variant-ligatures:normal;font-variant-numeric:normal"/>
    <path d="m349.2 239.32v-1.9141q0.25781 0.23437 0.60937 0.42187 0.35938 0.1875 0.75781 0.32031 0.39844 0.125 0.79688 0.19532 0.39844 0.0703 0.73437 0.0703 1.1719 0 1.7422-0.39063 0.57813-0.39062 0.57813-1.1328 0-0.39844-0.19532-0.6875-0.1875-0.29687-0.53125-0.53906t-0.8125-0.46094q-0.46093-0.22656-0.99218-0.46875-0.57032-0.30469-1.0625-0.61719-0.49219-0.3125-0.85938-0.6875-0.35937-0.38281-0.57031-0.85937-0.20313-0.47656-0.20313-1.1172 0-0.78906 0.35157-1.3672 0.35937-0.58593 0.9375-0.96093 0.58593-0.38282 1.3281-0.5625 0.74219-0.1875 1.5156-0.1875 1.7578 0 2.5625 0.39843v1.8359q-0.95313-0.6875-2.4531-0.6875-0.41406 0-0.82812 0.0781-0.40625 0.0781-0.73438 0.25781-0.32031 0.17969-0.52344 0.46094-0.20312 0.28125-0.20312 0.67968 0 0.375 0.15625 0.64844t0.45312 0.5q0.30469 0.22656 0.73438 0.44531 0.4375 0.21094 1.0078 0.46094 0.58594 0.30469 1.1016 0.64063 0.52344 0.33593 0.91407 0.74218 0.39843 0.40625 0.625 0.90625 0.23437 0.49219 0.23437 1.125 0 0.85157-0.34375 1.4375-0.34375 0.58594-0.92969 0.95313-0.57812 0.36719-1.3359 0.53125-0.75782 0.16406-1.6016 0.16406-0.28125 0-0.69531-0.0469-0.40625-0.0391-0.83594-0.125-0.42968-0.0781-0.8125-0.19532-0.38281-0.11718-0.61718-0.26562z" style="font-feature-settings:normal;font-variant-caps:normal;font-variant-ligatures:normal;font-variant-numeric:normal"/>
    <path d="m363.96 239.4q-0.96094 0.55469-2.2734 0.55469-1.7812 0-2.875-1.1094-1.0938-1.1172-1.0938-2.8906 0-1.9766 1.1719-3.1719 1.1797-1.2031 3.1484-1.2031 1.0938 0 1.9297 0.38281v1.6875q-0.83594-0.625-1.7812-0.625-1.1484 0-1.8828 0.78125-0.73438 0.77344-0.73438 2.0312 0 1.2422 0.6875 1.9609 0.69532 0.71875 1.8594 0.71875 0.97656 0 1.8438-0.69531z" style="font-feature-settings:normal;font-variant-caps:normal;font-variant-ligatures:normal;font-variant-numeric:normal"/>
    <path d="m369.31 239.96q-1.8516 0-2.9609-1.1172-1.1016-1.125-1.1016-2.9766 0-2.0156 1.1484-3.1484 1.1562-1.1328 3.1094-1.1328 1.875 0 2.9219 1.1016 1.0469 1.1016 1.0469 3.0547 0 1.9141-1.1328 3.0703-1.125 1.1484-3.0312 1.1484zm0.0859-6.9297q-1.0625 0-1.6797 0.74219t-0.61719 2.0469q0 1.2578 0.625 1.9844 0.625 0.71875 1.6719 0.71875 1.0703 0 1.6406-0.71094 0.57813-0.71093 0.57813-2.0234 0-1.3203-0.57813-2.0391-0.57031-0.71875-1.6406-0.71875z" style="font-feature-settings:normal;font-variant-caps:normal;font-variant-ligatures:normal;font-variant-numeric:normal"/>
    <path d="m379.96 233.49q-0.32812-0.25781-0.94531-0.25781-0.80469 0-1.3438 0.72656-0.53906 0.72657-0.53906 1.9766v3.8281h-1.8125v-8h1.8125v1.6484h0.0312q0.26562-0.84375 0.8125-1.3125 0.55468-0.47656 1.2344-0.47656 0.49219 0 0.75 0.14843z" style="font-feature-settings:normal;font-variant-caps:normal;font-variant-ligatures:normal;font-variant-numeric:normal"/>
    <path d="m382.17 230.09q-0.44531 0-0.76563-0.28906-0.3125-0.28906-0.3125-0.73437 0-0.44532 0.3125-0.74219 0.32032-0.29688 0.76563-0.29688 0.46094 0 0.78125 0.29688 0.32031 0.29687 0.32031 0.74219 0 0.42187-0.32031 0.72656-0.32031 0.29687-0.78125 0.29687zm0.89844 9.6797h-1.8125v-8h1.8125z" style="font-feature-settings:normal;font-variant-caps:normal;font-variant-ligatures:normal;font-variant-numeric:normal"/>
    <path d="m392.57 239.77h-1.8125v-4.5078q0-2.2422-1.5859-2.2422-0.82813 0-1.3672 0.625-0.53906 0.61719-0.53906 1.5625v4.5625h-1.8203v-8h1.8203v1.3281h0.0312q0.89844-1.5156 2.5938-1.5156 1.3047 0 1.9922 0.85156 0.6875 0.84375 0.6875 2.4453z" style="font-feature-settings:normal;font-variant-caps:normal;font-variant-ligatures:normal;font-variant-numeric:normal"/>
    <path d="m402.07 239.13q0 4.4062-4.4297 4.4062-1.5625 0-2.7266-0.52344v-1.6562q1.3125 0.75 2.4922 0.75 2.8516 0 2.8516-2.8047v-0.875h-0.0312q-0.89844 1.5312-2.7031 1.5312-1.4609 0-2.3594-1.0625-0.89063-1.0703-0.89063-2.8672 0-2.0391 0.96094-3.2422 0.96094-1.2031 2.6406-1.2031 1.5859 0 2.3516 1.2969h0.0312v-1.1094h1.8125zm-1.7969-3.0234v-1.0391q0-0.84375-0.5625-1.4375-0.55469-0.60157-1.3906-0.60157-1.0312 0-1.6172 0.76563-0.57813 0.75781-0.57813 2.125 0 1.1797 0.55469 1.8906 0.5625 0.70313 1.4844 0.70313 0.9375 0 1.5234-0.67188 0.58594-0.67968 0.58594-1.7344z" style="font-feature-settings:normal;font-variant-caps:normal;font-variant-ligatures:normal;font-variant-numeric:normal"/>
   </g>
  </g>
  <path d="m-154.97-7.875v12" fill="none" marker-end="url(#TriangleOutM)" stroke="#000"/>
  <g transform="translate(-199.97 -34.875)">
   <rect x="20" y="87" width="50" height="40" fill="#fff" stroke="#000" stroke-linecap="round"/>
   <g transform="matrix(.26458 0 0 .26458 -22.666 19.226)" style="font-feature-settings:normal;font-variant-caps:normal;font-variant-ligatures:normal;font-variant-numeric:normal" aria-label="Methods Description Examples Tests Test Scoring    ">
    <path d="m226.86 290.74h-2.7656v-10.875q0-1.3359 0.16407-3.2695h-0.0469q-0.25781 1.1016-0.45703 1.582l-5.0156 12.562h-1.9219l-5.0273-12.469q-0.21094-0.55079-0.44532-1.6758h-0.0469q0.0937 1.0078 0.0937 3.293v10.852h-2.5781v-16.805h3.9258l4.418 11.191q0.50391 1.2891 0.65625 1.9219h0.0586q0.43359-1.3242 0.70312-1.9688l4.5-11.145h3.7852z" style="font-feature-settings:normal;font-variant-caps:normal;font-variant-ligatures:normal;font-variant-numeric:normal"/>
    <path d="m240.84 285.48h-8.1797q0.0469 1.6641 1.0195 2.5664 0.98438 0.90235 2.6953 0.90235 1.9219 0 3.5274-1.1484v2.1914q-1.6406 1.0312-4.3359 1.0312-2.6484 0-4.1602-1.6289-1.5-1.6406-1.5-4.6055 0-2.8008 1.6524-4.5586 1.6641-1.7695 4.125-1.7695 2.4609 0 3.8086 1.582t1.3477 4.3945zm-2.625-1.9219q-0.0117-1.4648-0.69141-2.2734-0.67969-0.82031-1.875-0.82031-1.1719 0-1.9922 0.85547-0.80859 0.85547-0.99609 2.2383z" style="font-feature-settings:normal;font-variant-caps:normal;font-variant-ligatures:normal;font-variant-numeric:normal"/>
    <path d="m249.76 290.61q-0.79688 0.39844-2.0977 0.39844-3.4922 0-3.4922-3.3516v-6.7852h-2.0039v-2.1328h2.0039v-2.7774l2.7188-0.77344v3.5508h2.8711v2.1328h-2.8711v6q0 1.0664 0.38672 1.5234 0.38672 0.45703 1.2891 0.45703 0.69141 0 1.1953-0.39844z" style="font-feature-settings:normal;font-variant-caps:normal;font-variant-ligatures:normal;font-variant-numeric:normal"/>
    <path d="m262.77 290.74h-2.7188v-6.5625q0-3.5625-2.3789-3.5625-1.1953 0-2.0156 1.0312-0.82032 1.0312-0.82032 2.6367v6.457h-2.7305v-17.766h2.7305v7.7578h0.0469q1.3594-2.2734 3.8906-2.2734 3.9961 0 3.9961 4.8867z" style="font-feature-settings:normal;font-variant-caps:normal;font-variant-ligatures:normal;font-variant-numeric:normal"/>
    <path d="m271.4 291.02q-2.7774 0-4.4414-1.6758-1.6523-1.6875-1.6523-4.4648 0-3.0234 1.7226-4.7227 1.7344-1.6992 4.6641-1.6992 2.8125 0 4.3828 1.6523t1.5703 4.582q0 2.8711-1.6992 4.6055-1.6875 1.7227-4.5469 1.7227zm0.1289-10.395q-1.5938 0-2.5195 1.1133-0.92578 1.1133-0.92578 3.0703 0 1.8867 0.9375 2.9766 0.9375 1.0781 2.5078 1.0781 1.6055 0 2.4609-1.0664 0.86719-1.0664 0.86719-3.0352 0-1.9805-0.86719-3.0586-0.85547-1.0781-2.4609-1.0781z" style="font-feature-settings:normal;font-variant-caps:normal;font-variant-ligatures:normal;font-variant-numeric:normal"/>
    <path d="m291.33 290.74h-2.7188v-2.0391h-0.0469q-1.3125 2.3203-4.043 2.3203-2.2148 0-3.5508-1.6055-1.3242-1.6172-1.3242-4.3945 0-2.9766 1.4648-4.7695 1.4766-1.793 3.9258-1.793 2.4258 0 3.5274 1.9453h0.0469v-7.4297h2.7188zm-2.6836-5.4844v-1.5703q0-1.2774-0.83203-2.168-0.83203-0.89063-2.1211-0.89063-1.5234 0-2.4023 1.1367-0.86719 1.1367-0.86719 3.1524 0 1.8281 0.83203 2.8945 0.84375 1.0547 2.2617 1.0547 1.3945 0 2.2617-1.0195 0.86719-1.0312 0.86719-2.5898z" style="font-feature-settings:normal;font-variant-caps:normal;font-variant-ligatures:normal;font-variant-numeric:normal"/>
    <path d="m294.15 290.37v-2.5195q1.5234 1.1602 3.3633 1.1602 2.4609 0 2.4609-1.4531 0-0.41016-0.21094-0.69141-0.21094-0.29297-0.57422-0.51563-0.35156-0.22265-0.84375-0.39843-0.48047-0.17578-1.0781-0.39844-0.73828-0.29297-1.3359-0.62109-0.58594-0.32813-0.98437-0.73829-0.38672-0.42187-0.58594-0.94921-0.19922-0.52735-0.19922-1.2305 0-0.86719 0.41016-1.5234 0.41015-0.66797 1.1016-1.1133 0.6914-0.45703 1.5703-0.67969 0.87891-0.23437 1.8164-0.23437 1.6641 0 2.9766 0.5039v2.3789q-1.2656-0.86719-2.9062-0.86719-0.51563 0-0.9375 0.10547-0.41016 0.10547-0.70313 0.29297-0.29296 0.1875-0.45703 0.45703-0.16406 0.25781-0.16406 0.57422 0 0.38672 0.16406 0.65625 0.16407 0.26953 0.48047 0.48047 0.32813 0.19922 0.77344 0.375 0.45703 0.16406 1.043 0.36328 0.77344 0.3164 1.3828 0.64453 0.62109 0.32812 1.0547 0.75 0.43359 0.41016 0.66797 0.96094 0.23437 0.53906 0.23437 1.2891 0 0.91406-0.42187 1.5938-0.42188 0.67969-1.125 1.125-0.70313 0.44531-1.6289 0.65625-0.91406 0.22266-1.9336 0.22266-1.9688 0-3.4102-0.65625z" style="font-feature-settings:normal;font-variant-caps:normal;font-variant-ligatures:normal;font-variant-numeric:normal"/>
    <path d="m214.97 314.74v-11.203h3.2344q6.1953 0 6.1953 5.4609 0 2.5938-1.7188 4.1719-1.7188 1.5703-4.6094 1.5703zm1.8516-9.625v8.0547h1.4844q1.9609 0 3.0469-1.0781 1.0938-1.0781 1.0938-3.0469 0-3.9297-4.0703-3.9297z" style="font-feature-settings:normal;font-variant-caps:normal;font-variant-ligatures:normal;font-variant-numeric:normal"/>
    <path d="m233.01 311.24h-5.4531q0.0312 1.1094 0.67969 1.7109 0.65625 0.60156 1.7969 0.60156 1.2812 0 2.3516-0.76562v1.4609q-1.0938 0.6875-2.8906 0.6875-1.7656 0-2.7734-1.0859-1-1.0938-1-3.0703 0-1.8672 1.1016-3.0391 1.1094-1.1797 2.75-1.1797 1.6406 0 2.5391 1.0547 0.89844 1.0547 0.89844 2.9297zm-1.75-1.2812q-8e-3 -0.97656-0.46094-1.5156-0.45312-0.54688-1.25-0.54688-0.78125 0-1.3281 0.57032-0.53907 0.57031-0.66407 1.4922z" style="font-feature-settings:normal;font-variant-caps:normal;font-variant-ligatures:normal;font-variant-numeric:normal"/>
    <path d="m234.24 314.49v-1.6797q1.0156 0.77344 2.2422 0.77344 1.6406 0 1.6406-0.96875 0-0.27344-0.14062-0.46094-0.14063-0.19531-0.38281-0.34375-0.23438-0.14844-0.5625-0.26563-0.32032-0.11718-0.71875-0.26562-0.49219-0.19531-0.89063-0.41406-0.39062-0.21875-0.65625-0.49219-0.25781-0.28125-0.39062-0.63281-0.13282-0.35157-0.13282-0.82032 0-0.57812 0.27344-1.0156 0.27344-0.44531 0.73438-0.74219 0.46093-0.30469 1.0469-0.45312 0.58594-0.15625 1.2109-0.15625 1.1094 0 1.9844 0.33593v1.5859q-0.84375-0.57812-1.9375-0.57812-0.34375 0-0.625 0.0703-0.27343 0.0703-0.46875 0.19531-0.19531 0.125-0.30468 0.30469-0.10938 0.17187-0.10938 0.38281 0 0.25781 0.10938 0.4375 0.10937 0.17969 0.32031 0.32031 0.21875 0.13282 0.51562 0.25 0.30469 0.10938 0.69532 0.24219 0.51562 0.21094 0.92187 0.42969 0.41406 0.21875 0.70313 0.5 0.28906 0.27344 0.44531 0.64062 0.15625 0.35938 0.15625 0.85938 0 0.60937-0.28125 1.0625-0.28125 0.45312-0.75 0.75-0.46875 0.29687-1.0859 0.4375-0.60937 0.14844-1.2891 0.14844-1.3125 0-2.2734-0.4375z" style="font-feature-settings:normal;font-variant-caps:normal;font-variant-ligatures:normal;font-variant-numeric:normal"/>
    <path d="m247.37 314.38q-0.96093 0.55469-2.2734 0.55469-1.7812 0-2.875-1.1094-1.0938-1.1172-1.0938-2.8906 0-1.9766 1.1719-3.1719 1.1797-1.2031 3.1484-1.2031 1.0938 0 1.9297 0.38281v1.6875q-0.83594-0.625-1.7812-0.625-1.1484 0-1.8828 0.78125-0.73437 0.77344-0.73437 2.0312 0 1.2422 0.6875 1.9609 0.69531 0.71875 1.8594 0.71875 0.97657 0 1.8438-0.69532z" style="font-feature-settings:normal;font-variant-caps:normal;font-variant-ligatures:normal;font-variant-numeric:normal"/>
    <path d="m253.81 308.47q-0.32813-0.25781-0.94532-0.25781-0.80468 0-1.3438 0.72656-0.53906 0.72656-0.53906 1.9766v3.8281h-1.8125v-8h1.8125v1.6484h0.0312q0.26563-0.84375 0.8125-1.3125 0.55469-0.47656 1.2344-0.47656 0.49218 0 0.75 0.14844z" style="font-feature-settings:normal;font-variant-caps:normal;font-variant-ligatures:normal;font-variant-numeric:normal"/>
    <path d="m256.02 305.06q-0.44531 0-0.76562-0.28906-0.3125-0.28907-0.3125-0.73438t0.3125-0.74219q0.32031-0.29687 0.76562-0.29687 0.46094 0 0.78125 0.29687 0.32032 0.29688 0.32032 0.74219 0 0.42188-0.32032 0.72656-0.32031 0.29688-0.78125 0.29688zm0.89844 9.6797h-1.8125v-8h1.8125z" style="font-feature-settings:normal;font-variant-caps:normal;font-variant-ligatures:normal;font-variant-numeric:normal"/>
    <path d="m261.14 313.56h-0.0312v4.8594h-1.8125v-11.68h1.8125v1.4062h0.0312q0.92969-1.5938 2.7188-1.5938 1.5234 0 2.375 1.0703t0.85156 2.875q0 2-0.96093 3.2031-0.96094 1.2031-2.625 1.2031-1.5312 0-2.3594-1.3438zm-0.0469-3.1562v0.99219q0 0.875 0.55468 1.4844 0.5625 0.60938 1.4219 0.60938 1.0078 0 1.5781-0.78125 0.57813-0.78907 0.57813-2.1953 0-1.1797-0.53906-1.8438-0.53125-0.67187-1.4453-0.67187-0.96875 0-1.5625 0.6875-0.58593 0.6875-0.58593 1.7188z" style="font-feature-settings:normal;font-variant-caps:normal;font-variant-ligatures:normal;font-variant-numeric:normal"/>
    <path d="m273.17 314.66q-0.53125 0.26562-1.3984 0.26562-2.3281 0-2.3281-2.2344v-4.5234h-1.3359v-1.4219h1.3359v-1.8516l1.8125-0.51562v2.3672h1.9141v1.4219h-1.9141v4q0 0.71094 0.25781 1.0156 0.25781 0.30468 0.85938 0.30468 0.46093 0 0.79687-0.26562z" style="font-feature-settings:normal;font-variant-caps:normal;font-variant-ligatures:normal;font-variant-numeric:normal"/>
    <path d="m275.65 305.06q-0.44531 0-0.76562-0.28906-0.3125-0.28907-0.3125-0.73438t0.3125-0.74219q0.32031-0.29687 0.76562-0.29687 0.46094 0 0.78125 0.29687 0.32032 0.29688 0.32032 0.74219 0 0.42188-0.32032 0.72656-0.32031 0.29688-0.78125 0.29688zm0.89844 9.6797h-1.8125v-8h1.8125z" style="font-feature-settings:normal;font-variant-caps:normal;font-variant-ligatures:normal;font-variant-numeric:normal"/>
    <path d="m282.47 314.93q-1.8516 0-2.9609-1.1172-1.1016-1.125-1.1016-2.9766 0-2.0156 1.1484-3.1484 1.1562-1.1328 3.1094-1.1328 1.875 0 2.9219 1.1016 1.0469 1.1016 1.0469 3.0547 0 1.9141-1.1328 3.0703-1.125 1.1484-3.0312 1.1484zm0.0859-6.9297q-1.0625 0-1.6797 0.74219-0.61719 0.74218-0.61719 2.0469 0 1.2578 0.625 1.9844 0.625 0.71875 1.6719 0.71875 1.0703 0 1.6406-0.71094 0.57812-0.71094 0.57812-2.0234 0-1.3203-0.57812-2.0391-0.57031-0.71875-1.6406-0.71875z" style="font-feature-settings:normal;font-variant-caps:normal;font-variant-ligatures:normal;font-variant-numeric:normal"/>
    <path d="m295.61 314.74h-1.8125v-4.5078q0-2.2422-1.5859-2.2422-0.82812 0-1.3672 0.625-0.53907 0.61718-0.53907 1.5625v4.5625h-1.8203v-8h1.8203v1.3281h0.0312q0.89844-1.5156 2.5938-1.5156 1.3047 0 1.9922 0.85156 0.6875 0.84375 0.6875 2.4453z" style="font-feature-settings:normal;font-variant-caps:normal;font-variant-ligatures:normal;font-variant-numeric:normal"/>
    <path d="m228.74 338.74h-6.2891v-11.203h6.0391v1.5781h-4.1797v3.1719h3.8516v1.5703h-3.8516v3.3125h4.4297z" style="font-feature-settings:normal;font-variant-caps:normal;font-variant-ligatures:normal;font-variant-numeric:normal"/>
    <path d="m237.22 330.74-2.6641 4.0469 2.6328 3.9531h-2.1016l-1.4062-2.4766q-0.13281-0.22656-0.3125-0.57812h-0.0312q-0.0312 0.0703-0.32812 0.57812l-1.4297 2.4766h-2.0938l2.7188-3.9219-2.5781-4.0781h2.1094l1.3828 2.6016q0.15625 0.28906 0.30469 0.59375h0.0234l1.7891-3.1953z" style="font-feature-settings:normal;font-variant-caps:normal;font-variant-ligatures:normal;font-variant-numeric:normal"/>
    <path d="m244.7 338.74h-1.7578v-1.25h-0.0312q-0.82813 1.4375-2.4297 1.4375-1.1797 0-1.8516-0.64063-0.66406-0.64062-0.66406-1.6953 0-2.2656 2.6094-2.6406l2.375-0.33593q0-1.7109-1.625-1.7109-1.4297 0-2.5781 0.98437v-1.5859q1.2656-0.75 2.9219-0.75 3.0312 0 3.0312 2.9844zm-1.75-3.9297-1.6797 0.23437q-0.78125 0.10157-1.1797 0.38282-0.39063 0.27343-0.39063 0.96875 0 0.50781 0.35938 0.83593 0.36718 0.32032 0.97656 0.32032 0.82812 0 1.3672-0.57813 0.54687-0.58594 0.54687-1.4688z" style="font-feature-settings:normal;font-variant-caps:normal;font-variant-ligatures:normal;font-variant-numeric:normal"/>
    <path d="m258.87 338.74h-1.8125v-4.3594q0-1.2578-0.35937-1.8203-0.35156-0.5625-1.1953-0.5625-0.71094 0-1.2109 0.71094-0.49219 0.71093-0.49219 1.7031v4.3281h-1.8203v-4.5078q0-2.2344-1.5781-2.2344-0.73437 0-1.2109 0.67187-0.46875 0.67188-0.46875 1.7422v4.3281h-1.8125v-8h1.8125v1.2656h0.0312q0.86718-1.4531 2.5234-1.4531 0.82813 0 1.4453 0.46093 0.625 0.45313 0.85156 1.1953 0.89062-1.6562 2.6562-1.6562 2.6406 0 2.6406 3.2578z" style="font-feature-settings:normal;font-variant-caps:normal;font-variant-ligatures:normal;font-variant-numeric:normal"/>
    <path d="m262.94 337.56h-0.0312v4.8594h-1.8125v-11.68h1.8125v1.4062h0.0312q0.92968-1.5938 2.7188-1.5938 1.5234 0 2.375 1.0703 0.85156 1.0703 0.85156 2.875 0 2-0.96094 3.2031-0.96094 1.2031-2.625 1.2031-1.5312 0-2.3594-1.3438zm-0.0469-3.1562v0.99219q0 0.875 0.55469 1.4844 0.5625 0.60938 1.4219 0.60938 1.0078 0 1.5781-0.78125 0.57812-0.78907 0.57812-2.1953 0-1.1797-0.53906-1.8438-0.53125-0.67187-1.4453-0.67187-0.96875 0-1.5625 0.6875-0.58594 0.6875-0.58594 1.7188z" style="font-feature-settings:normal;font-variant-caps:normal;font-variant-ligatures:normal;font-variant-numeric:normal"/>
    <path d="m272.57 338.74h-1.8203v-11.844h1.8203z" style="font-feature-settings:normal;font-variant-caps:normal;font-variant-ligatures:normal;font-variant-numeric:normal"/>
    <path d="m281.71 335.24h-5.4531q0.0312 1.1094 0.67969 1.7109 0.65625 0.60156 1.7969 0.60156 1.2812 0 2.3516-0.76562v1.4609q-1.0938 0.6875-2.8906 0.6875-1.7656 0-2.7734-1.0859-1-1.0938-1-3.0703 0-1.8672 1.1016-3.0391 1.1094-1.1797 2.75-1.1797 1.6406 0 2.5391 1.0547 0.89843 1.0547 0.89843 2.9297zm-1.75-1.2812q-8e-3 -0.97656-0.46093-1.5156-0.45313-0.54688-1.25-0.54688-0.78125 0-1.3281 0.57032-0.53906 0.57031-0.66406 1.4922z" style="font-feature-settings:normal;font-variant-caps:normal;font-variant-ligatures:normal;font-variant-numeric:normal"/>
    <path d="m282.94 338.49v-1.6797q1.0156 0.77344 2.2422 0.77344 1.6406 0 1.6406-0.96875 0-0.27344-0.14063-0.46094-0.14062-0.19531-0.38281-0.34375-0.23437-0.14844-0.5625-0.26563-0.32031-0.11718-0.71875-0.26562-0.49219-0.19531-0.89062-0.41406-0.39063-0.21875-0.65625-0.49219-0.25782-0.28125-0.39063-0.63281-0.13281-0.35157-0.13281-0.82032 0-0.57812 0.27344-1.0156 0.27343-0.44531 0.73437-0.74219 0.46094-0.30469 1.0469-0.45312 0.58593-0.15625 1.2109-0.15625 1.1094 0 1.9844 0.33593v1.5859q-0.84375-0.57812-1.9375-0.57812-0.34375 0-0.625 0.0703-0.27344 0.0703-0.46875 0.19531-0.19531 0.125-0.30469 0.30469-0.10937 0.17187-0.10937 0.38281 0 0.25781 0.10937 0.4375 0.10938 0.17969 0.32031 0.32031 0.21875 0.13282 0.51563 0.25 0.30469 0.10938 0.69531 0.24219 0.51563 0.21094 0.92188 0.42969 0.41406 0.21875 0.70312 0.5 0.28906 0.27344 0.44531 0.64062 0.15625 0.35938 0.15625 0.85938 0 0.60937-0.28125 1.0625-0.28125 0.45312-0.75 0.75-0.46875 0.29687-1.0859 0.4375-0.60938 0.14844-1.2891 0.14844-1.3125 0-2.2734-0.4375z" style="font-feature-settings:normal;font-variant-caps:normal;font-variant-ligatures:normal;font-variant-numeric:normal"/>
    <path d="m246 353.12h-3.2188v9.625h-1.8594v-9.625h-3.2109v-1.5781h8.2891z" style="font-feature-settings:normal;font-variant-caps:normal;font-variant-ligatures:normal;font-variant-numeric:normal"/>
    <path d="m252.67 359.24h-5.4531q0.0312 1.1094 0.67969 1.7109 0.65625 0.60156 1.7969 0.60156 1.2812 0 2.3516-0.76562v1.4609q-1.0938 0.6875-2.8906 0.6875-1.7656 0-2.7734-1.0859-1-1.0938-1-3.0703 0-1.8672 1.1016-3.0391 1.1094-1.1797 2.75-1.1797 1.6406 0 2.5391 1.0547 0.89844 1.0547 0.89844 2.9297zm-1.75-1.2812q-8e-3 -0.97656-0.46094-1.5156-0.45312-0.54688-1.25-0.54688-0.78125 0-1.3281 0.57032-0.53907 0.57031-0.66407 1.4922z" style="font-feature-settings:normal;font-variant-caps:normal;font-variant-ligatures:normal;font-variant-numeric:normal"/>
    <path d="m253.89 362.49v-1.6797q1.0156 0.77344 2.2422 0.77344 1.6406 0 1.6406-0.96875 0-0.27344-0.14062-0.46094-0.14063-0.19531-0.38281-0.34375-0.23438-0.14844-0.5625-0.26563-0.32032-0.11718-0.71875-0.26562-0.49219-0.19531-0.89063-0.41406-0.39062-0.21875-0.65625-0.49219-0.25781-0.28125-0.39062-0.63281-0.13282-0.35157-0.13282-0.82032 0-0.57812 0.27344-1.0156 0.27344-0.44531 0.73438-0.74219 0.46093-0.30469 1.0469-0.45312 0.58594-0.15625 1.2109-0.15625 1.1094 0 1.9844 0.33593v1.5859q-0.84375-0.57812-1.9375-0.57812-0.34375 0-0.625 0.0703-0.27343 0.0703-0.46875 0.19531-0.19531 0.125-0.30468 0.30469-0.10938 0.17187-0.10938 0.38281 0 0.25781 0.10938 0.4375 0.10937 0.17969 0.32031 0.32031 0.21875 0.13282 0.51562 0.25 0.30469 0.10938 0.69532 0.24219 0.51562 0.21094 0.92187 0.42969 0.41406 0.21875 0.70313 0.5 0.28906 0.27344 0.44531 0.64062 0.15625 0.35938 0.15625 0.85938 0 0.60937-0.28125 1.0625-0.28125 0.45312-0.75 0.75-0.46875 0.29687-1.0859 0.4375-0.60937 0.14844-1.2891 0.14844-1.3125 0-2.2734-0.4375z" style="font-feature-settings:normal;font-variant-caps:normal;font-variant-ligatures:normal;font-variant-numeric:normal"/>
    <path d="m265.52 362.66q-0.53125 0.26562-1.3984 0.26562-2.3281 0-2.3281-2.2344v-4.5234h-1.3359v-1.4219h1.3359v-1.8516l1.8125-0.51562v2.3672h1.9141v1.4219h-1.9141v4q0 0.71094 0.25781 1.0156 0.25781 0.30468 0.85938 0.30468 0.46093 0 0.79687-0.26562z" style="font-feature-settings:normal;font-variant-caps:normal;font-variant-ligatures:normal;font-variant-numeric:normal"/>
    <path d="m266.58 362.49v-1.6797q1.0156 0.77344 2.2422 0.77344 1.6406 0 1.6406-0.96875 0-0.27344-0.14062-0.46094-0.14063-0.19531-0.38281-0.34375-0.23438-0.14844-0.5625-0.26563-0.32032-0.11718-0.71875-0.26562-0.49219-0.19531-0.89063-0.41406-0.39062-0.21875-0.65625-0.49219-0.25781-0.28125-0.39062-0.63281-0.13282-0.35157-0.13282-0.82032 0-0.57812 0.27344-1.0156 0.27344-0.44531 0.73438-0.74219 0.46093-0.30469 1.0469-0.45312 0.58594-0.15625 1.2109-0.15625 1.1094 0 1.9844 0.33593v1.5859q-0.84375-0.57812-1.9375-0.57812-0.34375 0-0.625 0.0703-0.27343 0.0703-0.46875 0.19531-0.19531 0.125-0.30468 0.30469-0.10938 0.17187-0.10938 0.38281 0 0.25781 0.10938 0.4375 0.10937 0.17969 0.32031 0.32031 0.21875 0.13282 0.51562 0.25 0.30469 0.10938 0.69532 0.24219 0.51562 0.21094 0.92187 0.42969 0.41406 0.21875 0.70313 0.5 0.28906 0.27344 0.44531 0.64062 0.15625 0.35938 0.15625 0.85938 0 0.60937-0.28125 1.0625-0.28125 0.45312-0.75 0.75-0.46875 0.29687-1.0859 0.4375-0.60937 0.14844-1.2891 0.14844-1.3125 0-2.2734-0.4375z" style="font-feature-settings:normal;font-variant-caps:normal;font-variant-ligatures:normal;font-variant-numeric:normal"/>
    <path d="m219.78 377.12h-3.2188v9.625h-1.8594v-9.625h-3.2109v-1.5781h8.2891z" style="font-feature-settings:normal;font-variant-caps:normal;font-variant-ligatures:normal;font-variant-numeric:normal"/>
    <path d="m226.45 383.24h-5.4531q0.0312 1.1094 0.67969 1.7109 0.65625 0.60156 1.7969 0.60156 1.2812 0 2.3516-0.76562v1.4609q-1.0938 0.6875-2.8906 0.6875-1.7656 0-2.7734-1.0859-1-1.0938-1-3.0703 0-1.8672 1.1016-3.0391 1.1094-1.1797 2.75-1.1797 1.6406 0 2.5391 1.0547 0.89844 1.0547 0.89844 2.9297zm-1.75-1.2812q-8e-3 -0.97656-0.46094-1.5156-0.45312-0.54688-1.25-0.54688-0.78125 0-1.3281 0.57032-0.53907 0.57031-0.66407 1.4922z" style="font-feature-settings:normal;font-variant-caps:normal;font-variant-ligatures:normal;font-variant-numeric:normal"/>
    <path d="m227.67 386.49v-1.6797q1.0156 0.77344 2.2422 0.77344 1.6406 0 1.6406-0.96875 0-0.27344-0.14062-0.46094-0.14063-0.19531-0.38281-0.34375-0.23438-0.14844-0.5625-0.26563-0.32032-0.11718-0.71875-0.26562-0.49219-0.19531-0.89063-0.41406-0.39062-0.21875-0.65625-0.49219-0.25781-0.28125-0.39062-0.63281-0.13282-0.35157-0.13282-0.82032 0-0.57812 0.27344-1.0156 0.27344-0.44531 0.73438-0.74219 0.46093-0.30469 1.0469-0.45312 0.58594-0.15625 1.2109-0.15625 1.1094 0 1.9844 0.33593v1.5859q-0.84375-0.57812-1.9375-0.57812-0.34375 0-0.625 0.0703-0.27343 0.0703-0.46875 0.19531-0.19531 0.125-0.30468 0.30469-0.10938 0.17187-0.10938 0.38281 0 0.25781 0.10938 0.4375 0.10937 0.17969 0.32031 0.32031 0.21875 0.13282 0.51562 0.25 0.30469 0.10938 0.69532 0.24219 0.51562 0.21094 0.92187 0.42969 0.41406 0.21875 0.70313 0.5 0.28906 0.27344 0.44531 0.64062 0.15625 0.35938 0.15625 0.85938 0 0.60937-0.28125 1.0625-0.28125 0.45312-0.75 0.75-0.46875 0.29687-1.0859 0.4375-0.60937 0.14844-1.2891 0.14844-1.3125 0-2.2734-0.4375z" style="font-feature-settings:normal;font-variant-caps:normal;font-variant-ligatures:normal;font-variant-numeric:normal"/>
    <path d="m239.3 386.66q-0.53125 0.26562-1.3984 0.26562-2.3281 0-2.3281-2.2344v-4.5234h-1.3359v-1.4219h1.3359v-1.8516l1.8125-0.51562v2.3672h1.9141v1.4219h-1.9141v4q0 0.71094 0.25781 1.0156 0.25781 0.30468 0.85938 0.30468 0.46093 0 0.79687-0.26562z" style="font-feature-settings:normal;font-variant-caps:normal;font-variant-ligatures:normal;font-variant-numeric:normal"/>
    <path d="m244.95 386.3v-1.9141q0.25781 0.23438 0.60938 0.42188 0.35937 0.1875 0.75781 0.32031 0.39844 0.125 0.79687 0.19531 0.39844 0.0703 0.73438 0.0703 1.1719 0 1.7422-0.39062 0.57812-0.39063 0.57812-1.1328 0-0.39844-0.19531-0.6875-0.1875-0.29688-0.53125-0.53907-0.34375-0.24218-0.8125-0.46093-0.46094-0.22657-0.99219-0.46875-0.57031-0.30469-1.0625-0.61719t-0.85937-0.6875q-0.35938-0.38281-0.57032-0.85938-0.20312-0.47656-0.20312-1.1172 0-0.78907 0.35156-1.3672 0.35938-0.58594 0.9375-0.96094 0.58594-0.38281 1.3281-0.5625 0.74218-0.1875 1.5156-0.1875 1.7578 0 2.5625 0.39844v1.8359q-0.95312-0.6875-2.4531-0.6875-0.41407 0-0.82813 0.0781-0.40625 0.0781-0.73437 0.25781-0.32032 0.17969-0.52344 0.46094-0.20313 0.28125-0.20313 0.67969 0 0.375 0.15625 0.64844 0.15625 0.27343 0.45313 0.5 0.30469 0.22656 0.73437 0.44531 0.4375 0.21094 1.0078 0.46094 0.58593 0.30468 1.1016 0.64062 0.52344 0.33594 0.91406 0.74219 0.39844 0.40625 0.625 0.90625 0.23438 0.49219 0.23438 1.125 0 0.85156-0.34375 1.4375t-0.92969 0.95312q-0.57813 0.36719-1.3359 0.53125-0.75781 0.16407-1.6016 0.16407-0.28125 0-0.69531-0.0469-0.40625-0.0391-0.83594-0.125-0.42969-0.0781-0.8125-0.19531-0.38281-0.11719-0.61719-0.26563z" style="font-feature-settings:normal;font-variant-caps:normal;font-variant-ligatures:normal;font-variant-numeric:normal"/>
    <path d="m259.71 386.38q-0.96093 0.55469-2.2734 0.55469-1.7812 0-2.875-1.1094-1.0938-1.1172-1.0938-2.8906 0-1.9766 1.1719-3.1719 1.1797-1.2031 3.1484-1.2031 1.0938 0 1.9297 0.38281v1.6875q-0.83594-0.625-1.7812-0.625-1.1484 0-1.8828 0.78125-0.73437 0.77344-0.73437 2.0312 0 1.2422 0.6875 1.9609 0.69531 0.71875 1.8594 0.71875 0.97657 0 1.8438-0.69532z" style="font-feature-settings:normal;font-variant-caps:normal;font-variant-ligatures:normal;font-variant-numeric:normal"/>
    <path d="m265.06 386.93q-1.8516 0-2.9609-1.1172-1.1016-1.125-1.1016-2.9766 0-2.0156 1.1484-3.1484 1.1562-1.1328 3.1094-1.1328 1.875 0 2.9219 1.1016 1.0469 1.1016 1.0469 3.0547 0 1.9141-1.1328 3.0703-1.125 1.1484-3.0312 1.1484zm0.0859-6.9297q-1.0625 0-1.6797 0.74219-0.61719 0.74218-0.61719 2.0469 0 1.2578 0.625 1.9844 0.625 0.71875 1.6719 0.71875 1.0703 0 1.6406-0.71094 0.57812-0.71094 0.57812-2.0234 0-1.3203-0.57812-2.0391-0.57031-0.71875-1.6406-0.71875z" style="font-feature-settings:normal;font-variant-caps:normal;font-variant-ligatures:normal;font-variant-numeric:normal"/>
    <path d="m275.72 380.47q-0.32813-0.25781-0.94532-0.25781-0.80468 0-1.3438 0.72656-0.53906 0.72656-0.53906 1.9766v3.8281h-1.8125v-8h1.8125v1.6484h0.0312q0.26563-0.84375 0.8125-1.3125 0.55469-0.47656 1.2344-0.47656 0.49218 0 0.75 0.14844z" style="font-feature-settings:normal;font-variant-caps:normal;font-variant-ligatures:normal;font-variant-numeric:normal"/>
    <path d="m277.93 377.06q-0.44531 0-0.76562-0.28906-0.3125-0.28907-0.3125-0.73438t0.3125-0.74219q0.32031-0.29687 0.76562-0.29687 0.46094 0 0.78125 0.29687 0.32032 0.29688 0.32032 0.74219 0 0.42188-0.32032 0.72656-0.32031 0.29688-0.78125 0.29688zm0.89844 9.6797h-1.8125v-8h1.8125z" style="font-feature-settings:normal;font-variant-caps:normal;font-variant-ligatures:normal;font-variant-numeric:normal"/>
    <path d="m288.33 386.74h-1.8125v-4.5078q0-2.2422-1.5859-2.2422-0.82812 0-1.3672 0.625-0.53907 0.61718-0.53907 1.5625v4.5625h-1.8203v-8h1.8203v1.3281h0.0312q0.89844-1.5156 2.5938-1.5156 1.3047 0 1.9922 0.85156 0.6875 0.84375 0.6875 2.4453z" style="font-feature-settings:normal;font-variant-caps:normal;font-variant-ligatures:normal;font-variant-numeric:normal"/>
    <path d="m297.83 386.1q0 4.4062-4.4297 4.4062-1.5625 0-2.7266-0.52344v-1.6562q1.3125 0.75 2.4922 0.75 2.8516 0 2.8516-2.8047v-0.875h-0.0312q-0.89844 1.5312-2.7031 1.5312-1.4609 0-2.3594-1.0625-0.89062-1.0703-0.89062-2.8672 0-2.0391 0.96093-3.2422 0.96094-1.2031 2.6406-1.2031 1.5859 0 2.3516 1.2969h0.0312v-1.1094h1.8125zm-1.7969-3.0234v-1.0391q0-0.84375-0.5625-1.4375-0.55469-0.60156-1.3906-0.60156-1.0312 0-1.6172 0.76562-0.57812 0.75782-0.57812 2.125 0 1.1797 0.55469 1.8906 0.5625 0.70312 1.4844 0.70312 0.9375 0 1.5234-0.67187 0.58594-0.67969 0.58594-1.7344z" style="font-feature-settings:normal;font-variant-caps:normal;font-variant-ligatures:normal;font-variant-numeric:normal"/>
   </g>
  </g>
  <path d="m-154.97 37.125v12" fill="none" marker-end="url(#TriangleOutM-2)" stroke="#000"/>
 </g>
</svg>
